STARTFONT 2.1
FONT -Misc-Fixed-Medium-R-Normal--13-120-75-75-C-80-ISO10646-1
SIZE 13 75 75
FONTBOUNDINGBOX 8 13 0 -2
COMMENT "Generated by fontforge, http://fontforge.sourceforge.net"
STARTPROPERTIES 24
FONTNAME_REGISTRY ""
FOUNDRY "Misc"
FAMILY_NAME "Fixed"
WEIGHT_NAME "Medium"
SLANT "R"
SETWIDTH_NAME "Normal"
ADD_STYLE_NAME ""
PIXEL_SIZE 13
POINT_SIZE 120
RESOLUTION_X 75
RESOLUTION_Y 75
SPACING "C"
AVERAGE_WIDTH 80
CHARSET_REGISTRY "ISO10646"
CHARSET_ENCODING "1"
COPYRIGHT "Public domain font.  Share and enjoy."
_XMBDFED_INFO "Edited with xmbdfed 4.5."
CAP_HEIGHT 9
X_HEIGHT 6
WEIGHT 10
QUAD_WIDTH 8
DEFAULT_CHAR 0
FONT_DESCENT 2
FONT_ASCENT 11
ENDPROPERTIES
CHARS 3703
STARTCHAR char0
ENCODING 0
SWIDTH 568 0
DWIDTH 8 0
BBX 8 16 0 -4
BITMAP
:........
:........
:........
:........
:........
:........
:........
:........
:........
:........
:........
:........
:........
:........
:........
:........
ENDCHAR

ENCODING 1
BBX 8 16 0 -4
BITMAP
:......XX
:....XXXX
:...XXXXX
:..XXXXXX
:.XXXXXXX
:.XXXXXXX
:XXXXXXXX
:XXXXXXXX
:XXXXXXXX
:XXXXXXXX
:.XXXXXXX
:.XXXXXXX
:..XXXXXX
:...XXXXX
:....XXXX
:......XX
ENDCHAR

ENCODING 2
BBX 8 16 0 -4
BITMAP
:XX......
:XXXX....
:XXXXX...
:XXXXXX..
:XXXXXXX.
:XXXXXXX.
:XXXXXXXX
:XXXXXXXX
:XXXXXXXX
:XXXXXXXX
:XXXXXXX.
:XXXXXXX.
:XXXXXX..
:XXXXX...
:XXXX....
:XX......
ENDCHAR

ENCODING 3
BBX 8 16 0 -4
BITMAP
:......XX
:....XXXX
:...XX...
:..XX....
:.XX.....
:.XX..... 
:XX......
:XX......
:XX......
:XX......
:.XX.....
:.XX.....
:..XX....
:...XX...
:....XXXX
:......XX
ENDCHAR

ENCODING 4
BBX 8 16 0 -4
BITMAP
:XX......
:XXXX....
:...XX...
:....XX..
:.....XX.
:.....XX.
:......XX
:......XX
:......XX
:......XX
:.....XX.
:.....XX.
:....XX..
:...XX...
:XXXX....
:XX......
ENDCHAR

ENCODING 5
BBX 8 16 0 -4
BITMAP
:........
:........
:......xx
:....xxxx
:...xxxxx
:...xxxxx
:..xxxxxx
:..xxxxxx
:..xxxxxx
:..xxxxxx
:...xxxxx
:...xxxxx
:....xxxx
:......xx
:........
:........
ENDCHAR

ENCODING 6
BBX 8 16 0 -4
BITMAP
:........
:........
:xx......
:xxxx....
:xxxxx...
:xxxxx...
:xxxxxx..
:xxxxxx..
:xxxxxx..
:xxxxxx..
:xxxxx...
:xxxxx...
:xxxx....
:xx......
:........
:........
ENDCHAR

ENCODING 9
BBX 8 16 0 -4
BITMAP
:........
:........
:........
:.....XX.
:.X...XX.
:.XX..XX.
:.XXX.XX.
:XXXXXXX.
:XXXXXXX.
:.XXX.XX.
:.XX..XX.
:.X...XX.
:.....XX.
:........
:........
:........
ENDCHAR

ENCODING 10
BBX 8 16 0 -4
BITMAP
:........
:........
:........
:.....XX.
:.....XX.
:.....XX.
:.....XX.
:..XX.XX.
:.XXX.XX.
:XXXXXXX.
:XXXXXXX.
:.XXX....
:..XX....
:........
:........
:........
ENDCHAR

ENCODING 11
BBX 8 16 0 -4
BITMAP
:.......x
:.......x
:......xx
:......xx
:.....xxx
:.....xxx 
:....xxxx
:....xxxx
:...xxxxx
:...xxxxx
:..xxxxxx
:..xxxxxx
:.xxxxxxx
:.xxxxxxx
:xxxxxxxx
:xxxxxxxx
ENDCHAR

ENCODING 12
BBX 8 16 0 -4
BITMAP
:xxxxxxxx
:xxxxxxxx
:.xxxxxxx
:.xxxxxxx
:..xxxxxx
:..xxxxxx
:...xxxxx
:...xxxxx
:....xxxx
:....xxxx
:.....xxx 
:.....xxx
:......xx
:......xx
:.......x
:.......x
ENDCHAR

ENCODING 13
BBX 8 16 0 -4
BITMAP
:xxxxxxxx
:xxxxxxxx
:xxxxxxxx
:xxxxxxxx
:xxxxxxxx
:xxxxxxxx
:xxxxxxxx
:xxxxxxxx
:xxxxxxxx
:xxxxxxxx
:xxxxxxxx 
:xxxxxxxx
:xxxxxxxx
:xxxxxxxx
:xxxxxxxx
:xxxxxxxx
ENDCHAR

ENCODING 14
BBX 8 16 0 -4
BITMAP
:x.x.x.x.
:.x.x.x.x
:x.x.x.x.
:.x.x.x.x
:x.x.x.x.
:.x.x.x.x
:x.x.x.x.
:.x.x.x.x
:x.x.x.x.
:.x.x.x.x
:x.x.x.x.
:.x.x.x.x
:x.x.x.x.
:.x.x.x.x
:x.x.x.x.
:.x.x.x.x
ENDCHAR

ENCODING 15
BBX 8 16 0 -4
BITMAP
:....xxxx
:....xxxx
:....xxxx
:....xxxx
:....xxxx
:....xxxx
:....xxxx
:....xxxx
:....xxxx
:....xxxx
:....xxxx
:....xxxx
:....xxxx
:....xxxx
:....xxxx
:....xxxx
ENDCHAR

ENCODING 16
BBX 8 16 0 -4
BITMAP
:X.X.X.X.
:.X.X.X.X
:........
:..XXX...
:.XXXXX..
:XXX.XXX.
:XX...XX.
:XX...XX.
:XXXXXXX.
:XXXXXXX.
:XX...XX.
:XX...XX.
:XX...XX.
:........
:X.X.X.X.
:.X.X.X.X
ENDCHAR

STARTCHAR space
ENCODING 32
SWIDTH 568 0
DWIDTH 8 0
BBX 1 1 7 -2
BITMAP
00
ENDCHAR
STARTCHAR exclam
ENCODING 33
SWIDTH 568 0
DWIDTH 8 0
BBX 8 16 0 -4
BITMAP
:........
:........
:........
:...XX...
:...XX...
:...XX...
:...XX...
:...XX...
:...XX...
:........
:........
:...XX...
:...XX...
:........
:........
:........
ENDCHAR
STARTCHAR quotedbl
ENCODING 34
SWIDTH 568 0
DWIDTH 8 0
BBX 8 16 0 -4
BITMAP
:........
:........
:........
:.XX..XX.
:.XX..XX.
:XX..XX..
:XX..XX..
:........
:........
:........
:........
:........
:........
:........
:........
:........
ENDCHAR
STARTCHAR numbersign
ENCODING 35
SWIDTH 568 0
DWIDTH 8 0
BBX 8 16 0 -4
BITMAP
:........
:........
:........
:.XX.XX..
:.XX.XX..
:XXXXXXX.
:XXXXXXX.
:.XX.XX..
:.XX.XX..
:XXXXXXX.
:XXXXXXX.
:.XX.XX..
:.XX.XX..
:........
:........
:........
ENDCHAR
STARTCHAR dollar
ENCODING 36
SWIDTH 568 0
DWIDTH 8 0
BBX 8 16 0 -4
BITMAP
:........
:........
:...XX...
:...XX...
:.XXXXXX.
:XXXXXXX.
:XX......
:XXXXXX..
:.XXXXXX.
:.....XX.
:XXXXXXX.
:XXXXXX..
:..XX....
:..XX....
:........
:........
ENDCHAR
STARTCHAR percent
ENCODING 37
SWIDTH 568 0
DWIDTH 8 0
BBX 8 16 0 -4
BITMAP
:........
:........
:........
:.XX..XX.
:.XX..XX.
:....XX..
:....XX..
:...XX...
:...XX...
:..XX....
:..XX....
:.XX..XX.
:.XX..XX.
:........
:........
:........
ENDCHAR
STARTCHAR ampersand
ENCODING 38
SWIDTH 568 0
DWIDTH 8 0
BBX 8 16 0 -4
BITMAP
:........
:........
:........
:.XXXX...
:XXXXXX..
:XX..XX..
:XX..XX..
:.XXXX...
:XXXXXX..
:XX..XX..
:XX......
:XXXXXXX.
:.XXXXXX.
:........
:........
:........
ENDCHAR
STARTCHAR quotesingle
ENCODING 39
SWIDTH 568 0
DWIDTH 8 0
BBX 8 16 0 -4
BITMAP
:........
:........
:........
:...XX...
:...XX...
:..XX....
:..XX....
:........
:........
:........
:........
:........
:........
:........
:........
:........
ENDCHAR
STARTCHAR parenleft
ENCODING 40
SWIDTH 568 0
DWIDTH 8 0
BBX 8 16 0 -4
BITMAP
:........
:........
:....XX..
:...XX...
:...XX...
:..XX....
:..XX....
:..XX....
:..XX....
:..XX....
:..XX....
:...XX...
:...XX...
:....XX..
:........
:........
ENDCHAR
STARTCHAR parenright
ENCODING 41
SWIDTH 568 0
DWIDTH 8 0
BBX 8 16 0 -4
BITMAP
:........
:........
:.XX.....
:..XX....
:..XX....
:...XX...
:...XX...
:...XX...
:...XX...
:...XX...
:...XX...
:..XX....
:..XX....
:.XX.....
:........
:........
ENDCHAR
STARTCHAR asterisk
ENCODING 42
SWIDTH 568 0
DWIDTH 8 0
BBX 8 16 0 -4
BITMAP
:........
:........
:........
:XXX.XXX.
:.XXXXX..
:..XXX...
:XXXXXXX.
:XXXXXXX.
:..XXX...
:.XXXXX..
:XXX.XXX.
:........
:........
:........
:........
:........
ENDCHAR
STARTCHAR plus
ENCODING 43
SWIDTH 568 0
DWIDTH 8 0
BBX 8 16 0 -4
BITMAP
:........
:........
:........
:........
:........
:...XX...
:...XX...
:.XXXXXX.
:.XXXXXX.
:...XX...
:...XX...
:........
:........
:........
:........
:........
ENDCHAR
STARTCHAR comma
ENCODING 44
SWIDTH 568 0
DWIDTH 8 0
BBX 8 16 0 -4
BITMAP
:........
:........
:........
:........
:........
:........
:........
:........
:........
:........
:........
:...XX...
:...XX...
:..XX....
:..XX....
:........
ENDCHAR
STARTCHAR hyphen
ENCODING 45
SWIDTH 568 0
DWIDTH 8 0
BBX 8 16 0 -4
BITMAP
:........
:........
:........
:........
:........
:........
:........
:XXXXXXX.
:XXXXXXX.
:........
:........
:........
:........
:........
:........
:........
ENDCHAR
STARTCHAR period
ENCODING 46
SWIDTH 568 0
DWIDTH 8 0
BBX 8 16 0 -4
BITMAP
:........
:........
:........
:........
:........
:........
:........
:........
:........
:........
:........
:..XX....
:..XX....
:........
:........
:........
ENDCHAR
STARTCHAR slash
ENCODING 47
SWIDTH 568 0
DWIDTH 8 0
BBX 8 16 0 -4
BITMAP
:........
:........
:........
:.....XX.
:.....XX.
:....XX..
:....XX..
:...XX...
:...XX...
:..XX....
:..XX....
:.XX.....
:.XX.....
:........
:........
:........
ENDCHAR
STARTCHAR zero
ENCODING 48
SWIDTH 568 0
DWIDTH 8 0
BBX 8 16 0 -4
BITMAP
:........
:........
:........
:.XXXXX..
:XXXXXXX.
:XX...XX.
:XX..XXX.
:XX.XXXX.
:XXXX.XX.
:XXX..XX.
:XX...XX.
:XXXXXXX.
:.XXXXX..
:........
:........
:........
ENDCHAR
STARTCHAR one
ENCODING 49
SWIDTH 568 0
DWIDTH 8 0
BBX 8 16 0 -4
BITMAP
:........
:........
:........
:...XX...
:..XXX...
:.XXXX...
:.XXXX...
:...XX...
:...XX...
:...XX...
:...XX...
:...XX...
:...XX...
:........
:........
:........
ENDCHAR
STARTCHAR two
ENCODING 50
SWIDTH 568 0
DWIDTH 8 0
BBX 8 16 0 -4
BITMAP
:........
:........
:........
:.XXXXX..
:XXXXXXX.
:XX...XX.
:.....XX.
:.XXXXXX.
:XXXXXX..
:XX......
:XX......
:XXXXXXX.
:XXXXXXX.
:........
:........
:........
ENDCHAR
STARTCHAR three
ENCODING 51
SWIDTH 568 0
DWIDTH 8 0
BBX 8 16 0 -4
BITMAP
:........
:........
:........
:.XXXXX..
:XXXXXXX.
:XX...XX.
:.....XX.
:...XXX..
:...XXX..
:.....XX.
:XX...XX.
:XXXXXXX.
:.XXXXX..
:........
:........
:........
ENDCHAR
STARTCHAR four
ENCODING 52
SWIDTH 568 0
DWIDTH 8 0
BBX 8 16 0 -4
BITMAP
:........
:........
:........
:....XX..
:...XXX..
:..XXXX..
:.XX.XX..
:XX..XX..
:XX..XX..
:XXXXXXX.
:XXXXXXX.
:....XX..
:....XX..
:........
:........
:........
ENDCHAR
STARTCHAR five
ENCODING 53
SWIDTH 568 0
DWIDTH 8 0
BBX 8 16 0 -4
BITMAP
:........
:........
:........
:XXXXXXX.
:XXXXXXX.
:XX......
:XXXXXX..
:XXXXXXX.
:.....XX.
:.....XX.
:XX...XX.
:XXXXXXX.
:.XXXXX..
:........
:........
:........
ENDCHAR
STARTCHAR six
ENCODING 54
SWIDTH 568 0
DWIDTH 8 0
BBX 8 16 0 -4
BITMAP
:........
:........
:........
:.XXXXX..
:XXXXXX..
:XX......
:XX......
:XXXXXX..
:XXXXXXX.
:XX...XX.
:XX...XX.
:XXXXXXX.
:.XXXXX..
:........
:........
:........
ENDCHAR
STARTCHAR seven
ENCODING 55
SWIDTH 568 0
DWIDTH 8 0
BBX 8 16 0 -4
BITMAP
:........
:........
:........
:XXXXXXX.
:XXXXXXX.
:.....XX.
:....XXX.
:...XXX..
:..XXX...
:.XXX....
:.XX.....
:.XX.....
:.XX.....
:........
:........
:........
ENDCHAR
STARTCHAR eight
ENCODING 56
SWIDTH 568 0
DWIDTH 8 0
BBX 8 16 0 -4
BITMAP
:........
:........
:........
:.XXXXX..
:XXXXXXX.
:XX...XX.
:XX...XX.
:.XXXXXX.
:XXXXXX..
:XX...XX.
:XX...XX.
:XXXXXXX.
:.XXXXX..
:........
:........
:........
ENDCHAR
STARTCHAR nine
ENCODING 57
SWIDTH 568 0
DWIDTH 8 0
BBX 8 16 0 -4
BITMAP
:........
:........
:........
:.XXXXX..
:XXXXXXX.
:XX...XX.
:XX...XX.
:XXXXXXX.
:.XXXXXX.
:.....XX.
:.....XX.
:.XXXXXX.
:.XXXXX..
:........
:........
:........
ENDCHAR
STARTCHAR colon
ENCODING 58
SWIDTH 568 0
DWIDTH 8 0
BBX 8 16 0 -4
BITMAP
:........
:........
:........
:........
:........
:........
:........
:..XX....
:..XX....
:........
:........
:..XX....
:..XX....
:........
:........
:........
ENDCHAR
STARTCHAR semicolon
ENCODING 59
SWIDTH 568 0
DWIDTH 8 0
BBX 8 16 0 -4
BITMAP
:........
:........
:........
:........
:........
:........
:........
:...XX...
:...XX...
:........
:........
:...XX...
:...XX...
:..XX....
:..XX....
:........
ENDCHAR
STARTCHAR less
ENCODING 60
SWIDTH 568 0
DWIDTH 8 0
BBX 8 16 0 -4
BITMAP
:........
:........
:........
:....XXX.
:...XXX..
:..XXX...
:.XXX....
:XXX.....
:XXX.....
:.XXX....
:..XXX...
:...XXX..
:....XXX.
:........
:........
:........
ENDCHAR
STARTCHAR equal
ENCODING 61
SWIDTH 568 0
DWIDTH 8 0
BBX 8 16 0 -4
BITMAP
:........
:........
:........
:........
:........
:XXXXXXX.
:XXXXXXX.
:........
:........
:XXXXXXX.
:XXXXXXX.
:........
:........
:........
:........
:........
ENDCHAR
STARTCHAR greater
ENCODING 62
SWIDTH 568 0
DWIDTH 8 0
BBX 8 16 0 -4
BITMAP
:........
:........
:........
:XXX.....
:.XXX....
:..XXX...
:...XXX..
:....XXX.
:....XXX.
:...XXX..
:..XXX...
:.XXX....
:XXX.....
:........
:........
:........
ENDCHAR
STARTCHAR question
ENCODING 63
SWIDTH 568 0
DWIDTH 8 0
BBX 8 16 0 -4
BITMAP
:........
:........
:........
:.XXXXX..
:XXXXXXX.
:XX...XX.
:XX...XX.
:....XXX.
:...XXX..
:...XX...
:........
:...XX...
:...XX...
:........
:........
:........
ENDCHAR
STARTCHAR at
ENCODING 64
SWIDTH 568 0
DWIDTH 8 0
BBX 8 16 0 -4
BITMAP
:........
:........
:........
:.XXXXX..
:XXXXXXX.
:XX...XX.
:XX...XX.
:XX.XXXX.
:XX.XXXX.
:XX......
:XX......
:XXXXXXX.
:.XXXXXX.
:........
:........
:........
ENDCHAR
STARTCHAR A
ENCODING 65
SWIDTH 568 0
DWIDTH 8 0
BBX 8 16 0 -4
BITMAP
:........
:........
:........
:..XXX...
:.XXXXX..
:XXX.XXX.
:XX...XX.
:XX...XX.
:XXXXXXX.
:XXXXXXX.
:XX...XX.
:XX...XX.
:XX...XX.
:........
:........
:........
ENDCHAR
STARTCHAR B
ENCODING 66
SWIDTH 568 0
DWIDTH 8 0
BBX 8 16 0 -4
BITMAP
:........
:........
:........
:XXXXXX..
:XXXXXXX.
:XX...XX.
:XX...XX.
:XXXXXX..
:XXXXXX..
:XX...XX.
:XX...XX.
:XXXXXXX.
:XXXXXX..
:........
:........
:........
ENDCHAR
STARTCHAR C
ENCODING 67
SWIDTH 568 0
DWIDTH 8 0
BBX 8 16 0 -4
BITMAP
:........
:........
:........
:.XXXXX..
:XXXXXXX.
:XX...XX.
:XX......
:XX......
:XX......
:XX......
:XX...XX.
:XXXXXXX.
:.XXXXX..
:........
:........
:........
ENDCHAR
STARTCHAR D
ENCODING 68
SWIDTH 568 0
DWIDTH 8 0
BBX 8 16 0 -4
BITMAP
:........
:........
:........
:XXXXXX..
:XXXXXXX.
:XX...XX.
:XX...XX.
:XX...XX.
:XX...XX.
:XX...XX.
:XX...XX.
:XXXXXXX.
:XXXXXX..
:........
:........
:........
ENDCHAR
STARTCHAR E
ENCODING 69
SWIDTH 568 0
DWIDTH 8 0
BBX 8 16 0 -4
BITMAP
:........
:........
:........
:XXXXXXX.
:XXXXXXX.
:XX......
:XX......
:XXXXX...
:XXXXX...
:XX......
:XX......
:XXXXXXX.
:XXXXXXX.
:........
:........
:........
ENDCHAR
STARTCHAR F
ENCODING 70
SWIDTH 568 0
DWIDTH 8 0
BBX 8 16 0 -4
BITMAP
:........
:........
:........
:XXXXXXX.
:XXXXXXX.
:XX......
:XX......
:XXXXX...
:XXXXX...
:XX......
:XX......
:XX......
:XX......
:........
:........
:........
ENDCHAR
STARTCHAR G
ENCODING 71
SWIDTH 568 0
DWIDTH 8 0
BBX 8 16 0 -4
BITMAP
:........
:........
:........
:.XXXXX..
:XXXXXXX.
:XX...XX.
:XX......
:XX..XXX.
:XX..XXX.
:XX...XX.
:XX...XX.
:XXXXXXX.
:.XXXXX..
:........
:........
:........
ENDCHAR
STARTCHAR H
ENCODING 72
SWIDTH 568 0
DWIDTH 8 0
BBX 8 16 0 -4
BITMAP
:........
:........
:........
:XX...XX.
:XX...XX.
:XX...XX.
:XX...XX.
:XXXXXXX.
:XXXXXXX.
:XX...XX.
:XX...XX.
:XX...XX.
:XX...XX.
:........
:........
:........
ENDCHAR
STARTCHAR I
ENCODING 73
SWIDTH 568 0
DWIDTH 8 0
BBX 8 16 0 -4
BITMAP
:........
:........
:........
:..XXXX..
:..XXXX..
:...XX...
:...XX...
:...XX...
:...XX...
:...XX...
:...XX...
:..XXXX..
:..XXXX..
:........
:........
:........
ENDCHAR
STARTCHAR J
ENCODING 74
SWIDTH 568 0
DWIDTH 8 0
BBX 8 16 0 -4
BITMAP
:........
:........
:........
:.....XX.
:.....XX.
:.....XX.
:.....XX.
:.....XX.
:.....XX.
:XX...XX.
:XX...XX.
:XXXXXXX.
:.XXXXX..
:........
:........
:........
ENDCHAR
STARTCHAR K
ENCODING 75
SWIDTH 568 0
DWIDTH 8 0
BBX 8 16 0 -4
BITMAP
:........
:........
:........
:XX...XX.
:XX...XX.
:XX..XXX.
:XX.XXX..
:XXXXX...
:XXXXX...
:XX.XXX..
:XX..XXX.
:XX...XX.
:XX...XX.
:........
:........
:........
ENDCHAR
STARTCHAR L
ENCODING 76
SWIDTH 568 0
DWIDTH 8 0
BBX 8 16 0 -4
BITMAP
:........
:........
:........
:XX......
:XX......
:XX......
:XX......
:XX......
:XX......
:XX......
:XX......
:XXXXXXX.
:XXXXXXX.
:........
:........
:........
ENDCHAR
STARTCHAR M
ENCODING 77
SWIDTH 568 0
DWIDTH 8 0
BBX 8 16 0 -4
BITMAP
:........
:........
:........
:XX...XX.
:XX...XX.
:XXX.XXX.
:XXXXXXX.
:XX.X.XX.
:XX...XX.
:XX...XX.
:XX...XX.
:XX...XX.
:XX...XX.
:........
:........
:........
ENDCHAR
STARTCHAR N
ENCODING 78
SWIDTH 568 0
DWIDTH 8 0
BBX 8 16 0 -4
BITMAP
:........
:........
:........
:XX...XX.
:XX...XX.
:XXX..XX.
:XXXX.XX.
:XX.XXXX.
:XX..XXX.
:XX...XX.
:XX...XX.
:XX...XX.
:XX...XX.
:........
:........
:........
ENDCHAR
STARTCHAR O
ENCODING 79
SWIDTH 568 0
DWIDTH 8 0
BBX 8 16 0 -4
BITMAP
:........
:........
:........
:.XXXXX..
:XXXXXXX.
:XX...XX.
:XX...XX.
:XX...XX.
:XX...XX.
:XX...XX.
:XX...XX.
:XXXXXXX.
:.XXXXX..
:........
:........
:........
ENDCHAR
STARTCHAR P
ENCODING 80
SWIDTH 568 0
DWIDTH 8 0
BBX 8 16 0 -4
BITMAP
:........
:........
:........
:XXXXXX..
:XXXXXXX.
:XX...XX.
:XX...XX.
:XXXXXXX.
:XXXXXX..
:XX......
:XX......
:XX......
:XX......
:........
:........
:........
ENDCHAR
STARTCHAR Q
ENCODING 81
SWIDTH 568 0
DWIDTH 8 0
BBX 8 16 0 -4
BITMAP
:........
:........
:........
:.XXXXX..
:XXXXXXX.
:XX...XX.
:XX...XX.
:XX...XX.
:XX...XX.
:XX.XXXX.
:XX..XX..
:XXXXXXX.
:.XXX.XX.
:........
:........
:........
ENDCHAR
STARTCHAR R
ENCODING 82
SWIDTH 568 0
DWIDTH 8 0
BBX 8 16 0 -4
BITMAP
:........
:........
:........
:XXXXXX..
:XXXXXXX.
:XX...XX.
:XX...XX.
:XXXXXX..
:XXXXXX..
:XX...XX.
:XX...XX.
:XX...XX.
:XX...XX.
:........
:........
:........
ENDCHAR
STARTCHAR S
ENCODING 83
SWIDTH 568 0
DWIDTH 8 0
BBX 8 16 0 -4
BITMAP
:........
:........
:........
:.XXXXX..
:XXXXXXX.
:XX...XX.
:XX......
:XXXXXX..
:.XXXXXX.
:.....XX.
:XX...XX.
:XXXXXXX.
:.XXXXX..
:........
:........
:........
ENDCHAR
STARTCHAR T
ENCODING 84
SWIDTH 568 0
DWIDTH 8 0
BBX 8 16 0 -4
BITMAP
:........
:........
:........
:.XXXXXX.
:.XXXXXX.
:...XX...
:...XX...
:...XX...
:...XX...
:...XX...
:...XX...
:...XX...
:...XX...
:........
:........
:........
ENDCHAR
STARTCHAR U
ENCODING 85
SWIDTH 568 0
DWIDTH 8 0
BBX 8 16 0 -4
BITMAP
:........
:........
:........
:XX...XX.
:XX...XX.
:XX...XX.
:XX...XX.
:XX...XX.
:XX...XX.
:XX...XX.
:XX...XX.
:XXXXXXX.
:.XXXXX..
:........
:........
:........
ENDCHAR
STARTCHAR V
ENCODING 86
SWIDTH 568 0
DWIDTH 8 0
BBX 8 16 0 -4
BITMAP
:........
:........
:........
:XX...XX.
:XX...XX.
:XX...XX.
:XX...XX.
:XX...XX.
:XX...XX.
:XX...XX.
:XXX.XXX.
:.XXXXX..
:..XXX...
:........
:........
:........
ENDCHAR
STARTCHAR W
ENCODING 87
SWIDTH 568 0
DWIDTH 8 0
BBX 8 16 0 -4
BITMAP
:........
:........
:........
:XX...XX.
:XX...XX.
:XX...XX.
:XX...XX.
:XX...XX.
:XX.X.XX.
:XXXXXXX.
:XXX.XXX.
:XX...XX.
:XX...XX.
:........
:........
:........
ENDCHAR
STARTCHAR X
ENCODING 88
SWIDTH 568 0
DWIDTH 8 0
BBX 8 16 0 -4
BITMAP
:........
:........
:........
:XX...XX.
:XX...XX.
:XX...XX.
:.XX.XX..
:..XXX...
:..XXX...
:.XX.XX..
:XX...XX.
:XX...XX.
:XX...XX.
:........
:........
:........
ENDCHAR
STARTCHAR Y
ENCODING 89
SWIDTH 568 0
DWIDTH 8 0
BBX 8 16 0 -4
BITMAP
:........
:........
:........
:.XX..XX.
:.XX..XX.
:.XX..XX.
:..XXXX..
:...XX...
:...XX...
:...XX...
:...XX...
:...XX...
:...XX...
:........
:........
:........
ENDCHAR
STARTCHAR Z
ENCODING 90
SWIDTH 568 0
DWIDTH 8 0
BBX 8 16 0 -4
BITMAP
:........
:........
:........
:XXXXXXX.
:XXXXXXX.
:....XXX.
:...XXX..
:..XXX...
:.XXX....
:XXX.....
:XX......
:XXXXXXX.
:XXXXXXX.
:........
:........
:........
ENDCHAR
STARTCHAR bracketleft
ENCODING 91
SWIDTH 568 0
DWIDTH 8 0
BBX 8 16 0 -4
BITMAP
:........
:........
:..XXX...
:..XXX...
:..XX....
:..XX....
:..XX....
:..XX....
:..XX....
:..XX....
:..XX....
:..XX....
:..XXX...
:..XXX...
:........
:........
ENDCHAR
STARTCHAR backslash
ENCODING 92
SWIDTH 568 0
DWIDTH 8 0
BBX 8 16 0 -4
BITMAP
:........
:........
:........
:.XX.....
:.XX.....
:..XX....
:..XX....
:...XX...
:...XX...
:....XX..
:....XX..
:.....XX.
:.....XX.
:........
:........
:........
ENDCHAR
STARTCHAR bracketright
ENCODING 93
SWIDTH 568 0
DWIDTH 8 0
BBX 8 16 0 -4
BITMAP
:........
:........
:..XXX...
:..XXX...
:...XX...
:...XX...
:...XX...
:...XX...
:...XX...
:...XX...
:...XX...
:...XX...
:..XXX...
:..XXX...
:........
:........
ENDCHAR
STARTCHAR asciicircum
ENCODING 94
SWIDTH 568 0
DWIDTH 8 0
BBX 8 16 0 -4
BITMAP
:........
:........
:........
:...XX...
:..XXXX..
:.XXXXXX.
:.XX..XX.
:........
:........
:........
:........
:........
:........
:........
:........
:........
ENDCHAR
STARTCHAR underscore
ENCODING 95
SWIDTH 568 0
DWIDTH 8 0
BBX 8 16 0 -4
BITMAP
:........
:........
:........
:........
:........
:........
:........
:........
:........
:........
:........
:XXXXXXX.
:XXXXXXX.
:........
:........
:........
ENDCHAR
STARTCHAR grave
ENCODING 96
SWIDTH 568 0
DWIDTH 8 0
BBX 8 16 0 -4
BITMAP
:........
:........
:........
:..XX....
:..XX....
:...XX...
:...XX...
:........
:........
:........
:........
:........
:........
:........
:........
:........
ENDCHAR
STARTCHAR a
ENCODING 97
SWIDTH 568 0
DWIDTH 8 0
BBX 8 16 0 -4
BITMAP
:........
:........
:........
:........
:........
:.XXXXX..
:.XXXXXX.
:.....XX.
:.XXXXXX.
:XXXXXXX.
:XX...XX.
:XXXXXXX.
:.XXXXXX.
:........
:........
:........
ENDCHAR
STARTCHAR b
ENCODING 98
SWIDTH 568 0
DWIDTH 8 0
BBX 8 16 0 -4
BITMAP
:........
:........
:........
:XX......
:XX......
:XXXXXX..
:XXXXXXX.
:XX...XX.
:XX...XX.
:XX...XX.
:XX...XX.
:XXXXXXX.
:XXXXXX..
:........
:........
:........
ENDCHAR
STARTCHAR c
ENCODING 99
SWIDTH 568 0
DWIDTH 8 0
BBX 8 16 0 -4
BITMAP
:........
:........
:........
:........
:........
:.XXXXXX.
:XXXXXXX.
:XX......
:XX......
:XX......
:XX......
:XXXXXXX.
:.XXXXXX.
:........
:........
:........
ENDCHAR
STARTCHAR d
ENCODING 100
SWIDTH 568 0
DWIDTH 8 0
BBX 8 16 0 -4
BITMAP
:........
:........
:........
:.....XX.
:.....XX.
:.XXXXXX.
:XXXXXXX.
:XX...XX.
:XX...XX.
:XX...XX.
:XX...XX.
:XXXXXXX.
:.XXXXXX.
:........
:........
:........
ENDCHAR
STARTCHAR e
ENCODING 101
SWIDTH 568 0
DWIDTH 8 0
BBX 8 16 0 -4
BITMAP
:........
:........
:........
:........
:........
:.XXXXX..
:XXXXXXX.
:XX...XX.
:XXXXXXX.
:XXXXXXX.
:XX......
:XXXXXXX.
:.XXXXXX.
:........
:........
:........
ENDCHAR
STARTCHAR f
ENCODING 102
SWIDTH 568 0
DWIDTH 8 0
BBX 8 16 0 -4
BITMAP
:........
:........
:........
:..XXXX..
:.XXXXX..
:.XX.....
:XXXXX...
:XXXXX...
:.XX.....
:.XX.....
:.XX.....
:.XX.....
:.XX.....
:........
:........
:........
ENDCHAR
STARTCHAR g
ENCODING 103
SWIDTH 568 0
DWIDTH 8 0
BBX 8 16 0 -4
BITMAP
:........
:........
:........
:........
:........
:.XXXXXX.
:XXXXXXX.
:XX...XX.
:XX...XX.
:XX...XX.
:XX...XX.
:XXXXXXX.
:.XXXXXX.
:.....XX.
:XXXXXXX.
:XXXXXX..
ENDCHAR
STARTCHAR h
ENCODING 104
SWIDTH 568 0
DWIDTH 8 0
BBX 8 16 0 -4
BITMAP
:........
:........
:........
:XX......
:XX......
:XXXXXX..
:XXXXXXX.
:XX...XX.
:XX...XX.
:XX...XX.
:XX...XX.
:XX...XX.
:XX...XX.
:........
:........
:........
ENDCHAR
STARTCHAR i
ENCODING 105
SWIDTH 568 0
DWIDTH 8 0
BBX 8 16 0 -4
BITMAP
:........
:........
:........
:...XX...
:...XX...
:........
:..XXX...
:..XXX...
:...XX...
:...XX...
:...XX...
:.XXXXX..
:.XXXXX..
:........
:........
:........
ENDCHAR
STARTCHAR j
ENCODING 106
SWIDTH 568 0
DWIDTH 8 0
BBX 8 16 0 -4
BITMAP
:........
:........
:........
:.....XX.
:.....XX.
:........
:....XXX.
:....XXX.
:.....XX.
:.....XX.
:.....XX.
:XX...XX.
:XX...XX.
:XXXXXXX.
:.XXXXX..
:........
ENDCHAR
STARTCHAR k
ENCODING 107
SWIDTH 568 0
DWIDTH 8 0
BBX 8 16 0 -4
BITMAP
:........
:........
:........
:XX......
:XX......
:XX...XX.
:XX..XXX.
:XXXXXX..
:XXXXX...
:XX.XXX..
:XX..XXX.
:XX...XX.
:XX...XX.
:........
:........
:........
ENDCHAR
STARTCHAR l
ENCODING 108
SWIDTH 568 0
DWIDTH 8 0
BBX 8 16 0 -4
BITMAP
:........
:........
:........
:..XXX...
:..XXX...
:...XX...
:...XX...
:...XX...
:...XX...
:...XX...
:...XX...
:.XXXXX..
:.XXXXX..
:........
:........
:........
ENDCHAR
STARTCHAR m
ENCODING 109
SWIDTH 568 0
DWIDTH 8 0
BBX 8 16 0 -4
BITMAP
:........
:........
:........
:........
:........
:XXXXXX..
:XXXXXXX.
:XX.X.XX.
:XX.X.XX.
:XX...XX.
:XX...XX.
:XX...XX.
:XX...XX.
:........
:........
:........
ENDCHAR
STARTCHAR n
ENCODING 110
SWIDTH 568 0
DWIDTH 8 0
BBX 8 16 0 -4
BITMAP
:........
:........
:........
:........
:........
:XXXXXX..
:XXXXXXX.
:XX...XX.
:XX...XX.
:XX...XX.
:XX...XX.
:XX...XX.
:XX...XX.
:........
:........
:........
ENDCHAR
STARTCHAR o
ENCODING 111
SWIDTH 568 0
DWIDTH 8 0
BBX 8 16 0 -4
BITMAP
:........
:........
:........
:........
:........
:.XXXXX..
:XXXXXXX.
:XX...XX.
:XX...XX.
:XX...XX.
:XX...XX.
:XXXXXXX.
:.XXXXX..
:........
:........
:........
ENDCHAR
STARTCHAR p
ENCODING 112
SWIDTH 568 0
DWIDTH 8 0
BBX 8 16 0 -4
BITMAP
:........
:........
:........
:........
:........
:XXXXXX..
:XXXXXXX.
:XX...XX.
:XX...XX.
:XX...XX.
:XX...XX.
:XXXXXXX.
:XXXXXX..
:XX......
:XX......
:XX......
ENDCHAR
STARTCHAR q
ENCODING 113
SWIDTH 568 0
DWIDTH 8 0
BBX 8 16 0 -4
BITMAP
:........
:........
:........
:........
:........
:.XXXXXX.
:XXXXXXX.
:XX...XX.
:XX...XX.
:XX...XX.
:XX...XX.
:XXXXXXX.
:.XXXXXX.
:.....XX.
:.....XX.
:.....XX.
ENDCHAR
STARTCHAR r
ENCODING 114
SWIDTH 568 0
DWIDTH 8 0
BBX 8 16 0 -4
BITMAP
:........
:........
:........
:........
:........
:XXXXXX..
:XXXXXXX.
:XX...XX.
:XX...XX.
:XX......
:XX......
:XX......
:XX......
:........
:........
:........
ENDCHAR
STARTCHAR s
ENCODING 115
SWIDTH 568 0
DWIDTH 8 0
BBX 8 16 0 -4
BITMAP
:........
:........
:........
:........
:........
:.XXXXXX.
:XXXXXXX.
:XX......
:XXXXXX..
:.XXXXXX.
:.....XX.
:XXXXXXX.
:XXXXXX..
:........
:........
:........
ENDCHAR
STARTCHAR t
ENCODING 116
SWIDTH 568 0
DWIDTH 8 0
BBX 8 16 0 -4
BITMAP
:........
:........
:........
:...XX...
:...XX...
:.XXXXXX.
:.XXXXXX.
:...XX...
:...XX...
:...XX...
:...XX...
:...XXX..
:....XX..
:........
:........
:........
ENDCHAR
STARTCHAR u
ENCODING 117
SWIDTH 568 0
DWIDTH 8 0
BBX 8 16 0 -4
BITMAP
:........
:........
:........
:........
:........
:XX...XX.
:XX...XX.
:XX...XX.
:XX...XX.
:XX...XX.
:XX...XX.
:XXXXXXX.
:.XXXXX..
:........
:........
:........
ENDCHAR
STARTCHAR v
ENCODING 118
SWIDTH 568 0
DWIDTH 8 0
BBX 8 16 0 -4
BITMAP
:........
:........
:........
:........
:........
:XX...XX.
:XX...XX.
:XX...XX.
:XX...XX.
:XX...XX.
:XXX.XXX.
:.XXXXX..
:..XXX...
:........
:........
:........
ENDCHAR
STARTCHAR w
ENCODING 119
SWIDTH 568 0
DWIDTH 8 0
BBX 8 16 0 -4
BITMAP
:........
:........
:........
:........
:........
:XX...XX.
:XX...XX.
:XX...XX.
:XX...XX.
:XX.X.XX.
:XX.X.XX.
:XXXXXXX.
:XXXXXX..
:........
:........
:........
ENDCHAR
STARTCHAR x
ENCODING 120
SWIDTH 568 0
DWIDTH 8 0
BBX 8 16 0 -4
BITMAP
:........
:........
:........
:........
:........
:XX...XX.
:XX...XX.
:.XX.XX..
:..XXX...
:..XXX...
:.XX.XX..
:XX...XX.
:XX...XX.
:........
:........
:........
ENDCHAR
STARTCHAR y
ENCODING 121
SWIDTH 568 0
DWIDTH 8 0
BBX 8 16 0 -4
BITMAP
:........
:........
:........
:........
:........
:XX...XX.
:XX...XX.
:XX...XX.
:XX...XX.
:XX...XX.
:XX...XX.
:XXXXXXX.
:.XXXXXX.
:.....XX.
:XXXXXXX.
:XXXXXX..
ENDCHAR
STARTCHAR z
ENCODING 122
SWIDTH 568 0
DWIDTH 8 0
BBX 8 16 0 -4
BITMAP
:........
:........
:........
:........
:........
:XXXXXXX.
:XXXXXXX.
:...XXX..
:..XXX...
:.XXX....
:XXX.....
:XXXXXXX.
:XXXXXXX.
:........
:........
:........
ENDCHAR
STARTCHAR braceleft
ENCODING 123
SWIDTH 568 0
DWIDTH 8 0
BBX 8 16 0 -4
BITMAP
:........
:........
:...XX...
:..XXX...
:..XX....
:..XX....
:..XX....
:.XX.....
:.XX.....
:..XX....
:..XX....
:..XX....
:..XXX...
:...XX...
:........
:........
ENDCHAR
STARTCHAR bar
ENCODING 124
SWIDTH 568 0
DWIDTH 8 0
BBX 8 16 0 -4
BITMAP
:........
:........
:..XX....
:..XX....
:..XX....
:..XX....
:..XX....
:..XX....
:..XX....
:..XX....
:..XX....
:..XX....
:..XX....
:..XX....
:........
:........
ENDCHAR
STARTCHAR braceright
ENCODING 125
SWIDTH 568 0
DWIDTH 8 0
BBX 8 16 0 -4
BITMAP
:........
:........
:..XX....
:..XXX...
:...XX...
:...XX...
:...XX...
:....XX..
:....XX..
:...XX...
:...XX...
:...XX...
:..XXX...
:..XX....
:........
:........
ENDCHAR
STARTCHAR asciitilde
ENCODING 126
SWIDTH 568 0
DWIDTH 8 0
BBX 8 16 0 -4
BITMAP
:........
:........
:........
:.XXX.XX.
:.XXX.XX.
:XX.XXX..
:XX.XXX..
:........
:........
:........
:........
:........
:........
:........
:........
:........
ENDCHAR
STARTCHAR visiblespc
ENCODING 127
SWIDTH 568 0
DWIDTH 8 0
BBX 8 16 0 -4
BITMAP
:........
:........
:........
:........
:........
:........
:........
:........
:........
:........
:........
:........
:XX...XX.
:XXXXXXX.
:XXXXXXX.
:........
ENDCHAR

ENCODING 128
BBX 8 16 0 -4
BITMAP
:........
:........
:........
:........
:........
:........
:........
:........
:........
:........
:........
:........
:........
:........
:XXXXXXXX
:XXXXXXXX
ENDCHAR

ENCODING 129
BBX 8 16 0 -4
BITMAP
:........
:........
:........
:........
:........
:........
:........
:........
:........
:........
:........
:........
:XXXXXXXX
:XXXXXXXX
:XXXXXXXX
:XXXXXXXX
ENDCHAR

ENCODING 130
BBX 8 16 0 -4
BITMAP
:........
:........
:........
:........
:........
:........
:........
:........
:........
:........
:XXXXXXXX
:XXXXXXXX
:XXXXXXXX
:XXXXXXXX
:XXXXXXXX
:XXXXXXXX
ENDCHAR

ENCODING 131
BBX 8 16 0 -4
BITMAP
:........
:........
:........
:........
:........
:........
:........
:........
:XXXXXXXX
:XXXXXXXX
:XXXXXXXX
:XXXXXXXX
:XXXXXXXX
:XXXXXXXX
:XXXXXXXX
:XXXXXXXX
ENDCHAR

ENCODING 132
BBX 8 16 0 -4
BITMAP
:........
:........
:........
:........
:........
:........
:XXXXXXXX
:XXXXXXXX
:XXXXXXXX
:XXXXXXXX
:XXXXXXXX
:XXXXXXXX
:XXXXXXXX
:XXXXXXXX
:XXXXXXXX
:XXXXXXXX
ENDCHAR

ENCODING 133
BBX 8 16 0 -4
BITMAP
:........
:........
:........
:........
:XXXXXXXX
:XXXXXXXX
:XXXXXXXX
:XXXXXXXX
:XXXXXXXX
:XXXXXXXX
:XXXXXXXX
:XXXXXXXX
:XXXXXXXX
:XXXXXXXX
:XXXXXXXX
:XXXXXXXX
ENDCHAR


ENCODING 133
BBX 8 16 0 -4
BITMAP
:........
:........
:XXXXXXXX
:XXXXXXXX
:XXXXXXXX
:XXXXXXXX
:XXXXXXXX
:XXXXXXXX
:XXXXXXXX
:XXXXXXXX
:XXXXXXXX
:XXXXXXXX
:XXXXXXXX
:XXXXXXXX
:XXXXXXXX
:XXXXXXXX
ENDCHAR


ENCODING 134
BBX 8 16 0 -4
BITMAP
:XXXXXXXX
:XXXXXXXX
:XXXXXXXX
:XXXXXXXX
:XXXXXXXX
:XXXXXXXX
:XXXXXXXX
:XXXXXXXX
:XXXXXXXX
:XXXXXXXX
:XXXXXXXX
:XXXXXXXX
:XXXXXXXX
:XXXXXXXX
:XXXXXXXX
:XXXXXXXX
ENDCHAR


ENCODING 134
BBX 8 16 0 -4
BITMAP
:X.......
:X.......
:X.......
:X.......
:X.......
:X.......
:X.......
:X.......
:X.......
:X.......
:X.......
:X.......
:X.......
:X.......
:X.......
:X.......
ENDCHAR

ENCODING 135
BBX 8 16 0 -4
BITMAP
:XX......
:XX......
:XX......
:XX......
:XX......
:XX......
:XX......
:XX......
:XX......
:XX......
:XX......
:XX......
:XX......
:XX......
:XX......
:XX......
ENDCHAR

ENCODING 136
BBX 8 16 0 -4
BITMAP
:XXX.....
:XXX.....
:XXX.....
:XXX.....
:XXX.....
:XXX.....
:XXX.....
:XXX.....
:XXX.....
:XXX.....
:XXX.....
:XXX.....
:XXX.....
:XXX.....
:XXX.....
:XXX.....
ENDCHAR

ENCODING 137
BBX 8 16 0 -4
BITMAP
:XXXX....
:XXXX....
:XXXX....
:XXXX....
:XXXX....
:XXXX....
:XXXX....
:XXXX....
:XXXX....
:XXXX....
:XXXX....
:XXXX....
:XXXX....
:XXXX....
:XXXX....
:XXXX....
ENDCHAR

ENCODING 138
BBX 8 16 0 -4
BITMAP
:XXXXX...
:XXXXX...
:XXXXX...
:XXXXX...
:XXXXX...
:XXXXX...
:XXXXX...
:XXXXX...
:XXXXX...
:XXXXX...
:XXXXX...
:XXXXX...
:XXXXX...
:XXXXX...
:XXXXX...
:XXXXX...
ENDCHAR

ENCODING 139
BBX 8 16 0 -4
BITMAP
:XXXXXX..
:XXXXXX..
:XXXXXX..
:XXXXXX..
:XXXXXX..
:XXXXXX..
:XXXXXX..
:XXXXXX..
:XXXXXX..
:XXXXXX..
:XXXXXX..
:XXXXXX..
:XXXXXX..
:XXXXXX..
:XXXXXX..
:XXXXXX..
ENDCHAR

ENCODING 140
BBX 8 16 0 -4
BITMAP
:XXXXXXX.
:XXXXXXX.
:XXXXXXX.
:XXXXXXX.
:XXXXXXX.
:XXXXXXX.
:XXXXXXX.
:XXXXXXX.
:XXXXXXX.
:XXXXXXX.
:XXXXXXX.
:XXXXXXX.
:XXXXXXX.
:XXXXXXX.
:XXXXXXX.
:XXXXXXX.
ENDCHAR




ENCODING ++
BBX 8 16 0 -4
BITMAP
:X.XXX.XX
:XXXXXXXX
:XXX.XXX.
:XXXXXXXX
:X.XXX.XX
:XXXXXXXX
:XXX.XXX.
:XXXXXXXX
:X.XXX.XX
:XXXXXXXX
:XXX.XXX.
:XXXXXXXX
:X.XXX.XX
:XXXXXXXX
:XXX.XXX.
:XXXXXXXX
ENDCHAR


ENCODING ++
BBX 8 16 0 -4
BITMAP
:.X.X.X.X
:X.X.X.X.
:.X.X.X.X
:X.X.X.X.
:.X.X.X.X
:X.X.X.X.
:.X.X.X.X
:X.X.X.X.
:.X.X.X.X
:X.X.X.X.
:.X.X.X.X
:X.X.X.X.
:.X.X.X.X
:X.X.X.X.
:.X.X.X.X
:X.X.X.X.
ENDCHAR


ENCODING ++
BBX 8 16 0 -4
BITMAP
:.X...X..
:........
:...X...X
:........
:.X...X..
:........
:...X...X
:........
:.X...X..
:........
:...X...X
:........
:.X...X..
:........
:...X...X
:........
ENDCHAR

ENCODING ++
BBX 8 16 0 -4
BITMAP
:.XX..XX.
:........
:X..XX..X
:........
:.XX..XX.
:........
:X..XX..X
:........
:.XX..XX.
:........
:X..XX..X
:........
:.XX..XX.
:........
:X..XX..X
:........
ENDCHAR

ENCODING ++
BBX 8 16 0 -4
BITMAP
:.XXX.XX.
:........
:XX.XXX.X
:........
:.XXX.XX.
:........
:XX.XXX.X
:........
:.XXX.XXX
:........
:XX.XXX.X
:........
:.XXX.XXX
:........
:XX.XXX.X
:........
ENDCHAR

ENCODING ++
BBX 8 16 0 -4
BITMAP
:XX..XX..
:XX..XX..
:..XX..XX
:..XX..XX
:XX..XX..
:XX..XX..
:..XX..XX
:..XX..XX
:XX..XX..
:XX..XX..
:..XX..XX
:..XX..XX
:XX..XX..
:XX..XX..
:..XX..XX
:..XX..XX
ENDCHAR

ENCODING ++
BBX 8 16 0 -4
BITMAP
:XXXXXXX.
:XXXXXXX.
:XXXXXXX.
:........
:XXX.XXXX
:XXX.XXXX
:XXX.XXXX
:........
:XXXXXX.X
:XXXXXX.X
:XXXXXX.X
:........
:XX.XXXXX
:XX.XXXXX
:XX.XXXXX
:........
ENDCHAR

ENCODING ++
BBX 8 16 0 -4
BITMAP
:X...X...
:.X...X..
:..X...X.
:...X...X
:X...X...
:.X...X..
:..X...X.
:...X...X
:X...X...
:.X...X..
:..X...X.
:...X...X
:X...X...
:.X...X..
:..X...X.
:...X...X
ENDCHAR


ENCODING ++
BBX 8 16 0 -4
BITMAP
:XX..XX..
:.XX..XX.
:..XX..XX
:X..XX..X
:XX..XX..
:.XX..XX.
:..XX..XX
:X..XX..X
:XX..XX..
:.XX..XX.
:..XX..XX
:X..XX..X
:XX..XX..
:.XX..XX.
:..XX..XX
:X..XX..X
ENDCHAR


ENCODING ++
BBX 8 16 0 -4
BITMAP
:...X...X
:..X...X.
:.X...X..
:X...X...
:...X...X
:..X...X.
:.X...X..
:X...X...
:...X...X
:..X...X.
:.X...X..
:X...X...
:...X...X
:..X...X.
:.X...X..
:X...X...
ENDCHAR


ENCODING ++
BBX 8 16 0 -4
BITMAP
:X..XX..X
:..XX..XX
:.XX..XX.
:XX..XX..
:X..XX..X
:..XX..XX
:.XX..XX.
:XX..XX..
:X..XX..X
:..XX..XX
:.XX..XX.
:XX..XX..
:X..XX..X
:..XX..XX
:.XX..XX.
:XX..XX..
ENDCHAR

ENCODING ++
BBX 8 16 0 -4
BITMAP
:XX..XX..
:.XX..XX.
:..XX..XX
:.XX..XX.
:XX..XX..
:.XX..XX.
:..XX..XX
:.XX..XX.
:XX..XX..
:.XX..XX.
:..XX..XX
:.XX..XX.
:XX..XX..
:.XX..XX.
:..XX..XX
:.XX..XX.
ENDCHAR

ENCODING ++
BBX 8 16 0 -4
BITMAP
:XXX.XXX.
:.XXX.XXX
:X.XXX.XX
:.XXX.XXX
:XXX.XXX.
:.XXX.XXX
:X.XXX.XX
:.XXX.XXX
:XXX.XXX.
:.XXX.XXX
:X.XXX.XX
:.XXX.XXX
:XXX.XXX.
:.XXX.XXX
:X.XXX.XX
:.XXX.XXX
ENDCHAR

ENCODING ++
BBX 8 16 0 -4
BITMAP
:XXXXXXXX
:XXXXXXXX
:XX......
:XX......
:XX......
:XX......
:XX......
:XX......
:XX......
:XX......
:XX......
:XX......
:XX......
:XX......
:XX......
:XX......
ENDCHAR

ENCODING ++
BBX 8 16 0 -4
BITMAP
:XXXXXXXX
:XXXXXXXX
:...XX...
:...XX...
:...XX...
:...XX...
:...XX...
:...XX...
:...XX...
:...XX...
:...XX...
:...XX...
:...XX...
:...XX...
:...XX...
:...XX...
ENDCHAR

ENCODING ++
BBX 8 16 0 -4
BITMAP
:XXXXXXXX
:XXXXXXXX
:......XX
:......XX
:......XX
:......XX
:......XX
:......XX
:......XX
:......XX
:......XX
:......XX
:......XX
:......XX
:......XX
:......XX
ENDCHAR

ENCODING ++
BBX 8 16 0 -4
BITMAP
:XX......
:XX......
:XX......
:XX......
:XX......
:XX......
:XX......
:XXXXXXXX
:XXXXXXXX
:XX......
:XX......
:XX......
:XX......
:XX......
:XX......
:XX......
ENDCHAR

ENCODING ++
BBX 8 16 0 -4
BITMAP
:...XX...
:...XX...
:...XX...
:...XX...
:...XX...
:...XX...
:...XX...
:XXXXXXXX
:XXXXXXXX
:...XX...
:...XX...
:...XX...
:...XX...
:...XX...
:...XX...
:...XX...
ENDCHAR

ENCODING ++
BBX 8 16 0 -4
BITMAP
:......XX
:......XX
:......XX
:......XX
:......XX
:......XX
:......XX
:XXXXXXXX
:XXXXXXXX
:......XX
:......XX
:......XX
:......XX
:......XX
:......XX
:......XX
ENDCHAR

ENCODING ++
BBX 8 16 0 -4
BITMAP
:XX......
:XX......
:XX......
:XX......
:XX......
:XX......
:XX......
:XX......
:XX......
:XX......
:XX......
:XX......
:XX......
:XX......
:XXXXXXXX
:XXXXXXXX
ENDCHAR


ENCODING ++
BBX 8 16 0 -4
BITMAP
:...XX...
:...XX...
:...XX...
:...XX...
:...XX...
:...XX...
:...XX...
:...XX...
:...XX...
:...XX...
:...XX...
:...XX...
:...XX...
:...XX...
:XXXXXXXX
:XXXXXXXX
ENDCHAR


ENCODING ++
BBX 8 16 0 -4
BITMAP
:......XX
:......XX
:......XX
:......XX
:......XX
:......XX
:......XX
:......XX
:......XX
:......XX
:......XX
:......XX
:......XX
:......XX
:XXXXXXXX
:XXXXXXXX
ENDCHAR

ENCODING ++
BBX 8 16 0 -4
BITMAP
:........
:........
:........
:........
:........
:........
:...XXXXX
:...XXXXX
:...XX...
:...XX...
:...XX...
:...XX...
:...XX...
:...XX...
ENDCHAR

ENCODING ++
BBX 8 16 0 -4
BITMAP
:........
:........
:........
:........
:........
:........
:XXXXXXXX
:XXXXXXXX
:...XX...
:...XX...
:...XX...
:...XX...
:...XX...
:...XX...
ENDCHAR


ENCODING ++
BBX 8 16 0 -4
BITMAP
:........
:........
:........
:........
:........
:........
:XXXXX...
:XXXXX...
:...XX...
:...XX...
:...XX...
:...XX...
:...XX...
:...XX...
ENDCHAR


ENCODING ++
BBX 8 16 0 -4
BITMAP
:...XX...
:...XX...
:...XX...
:...XX...
:...XX...
:...XX...
:...XXXXX
:...XXXXX
:...XX...
:...XX...
:...XX...
:...XX...
:...XX...
:...XX...
ENDCHAR


ENCODING ++
BBX 8 16 0 -4
BITMAP
:...XX...
:...XX...
:...XX...
:...XX...
:...XX...
:...XX...
:XXXXX...
:XXXXX...
:...XX...
:...XX...
:...XX...
:...XX...
:...XX...
:...XX...
ENDCHAR


ENCODING ++
BBX 8 16 0 -4
BITMAP
:...XX...
:...XX...
:...XX...
:...XX...
:...XX...
:...XX...
:...XXXXX
:...XXXXX
:........
:........
:........
:........
:........
:........
ENDCHAR


ENCODING ++
BBX 8 16 0 -4
BITMAP
:...XX...
:...XX...
:...XX...
:...XX...
:...XX...
:...XX...
:XXXXXXXX
:XXXXXXXX
:........
:........
:........
:........
:........
:........
ENDCHAR


ENCODING ++
BBX 8 16 0 -4
BITMAP
:...XX...
:...XX...
:...XX...
:...XX...
:...XX...
:...XX...
:XXXXX...
:XXXXX...
:........
:........
:........
:........
:........
:........
ENDCHAR


ENCODING ++
BBX 8 16 0 -4
BITMAP
:........
:........
:........
:........
:........
:........
:XXXXXXXX
:XXXXXXXX
:........
:........
:........
:........
:........
:........
ENDCHAR

ENCODING ++
BBX 8 16 0 -4
BITMAP
:...XX...
:...XX...
:...XX...
:...XX...
:...XX...
:...XX...
:...XX...
:...XX...
:...XX...
:...XX...
:...XX...
:...XX...
:...XX...
:...XX...
ENDCHAR


ENCODING ++
BBX 8 16 0 -4
BITMAP
:...XX...
:...XX...
:...XX...
:...XX...
:...XX...
:...XX...
:...XX...
:...XX...
:...XX...
:...XX...
:...XX...
:...XX...
:...XX...
:...XX...
:...XX...
:...XX...
ENDCHAR

ENCODING ++
BBX 8 16 0 -4
BITMAP
:X.......
:X.......
:.X......
:.X......
:..X.....
:..X.....
:...X....
:...X....
:....X...
:....X...
:.....X..
:.....X..
:......X.
:......X.
:.......X
:.......X
ENDCHAR

ENCODING ++
BBX 8 16 0 -4
BITMAP
:X......X
:X......X
:.X....X.
:.X....X.
:..X..X..
:..X..X..
:...XX...
:...XX...
:...XX...
:...XX...
:..X..X..
:..X..X..
:.X....X.
:.X....X.
:X......X
:X......X
ENDCHAR

ENCODING ++
BBX 8 16 0 -4
BITMAP
:.......X
:.......X
:......X.
:......X.
:.....X..
:.....X..
:....X...
:....X...
:...X....
:...X....
:..X.....
:..X.....
:.X......
:.X......
:X.......
:X.......
ENDCHAR

ENCODING ++
BBX 8 16 0 -4
BITMAP
:xxxxxxxx
:xxxxxxxx
:xxxxxxx.
:xxxxxxx.
:xxxxxx..
:xxxxxx..
:xxxxx...
:xxxxx...
:xxxx....
:xxxx....
:xxx..... 
:xxx.....
:xx......
:xx......
:x.......
:x.......
ENDCHAR

ENCODING ++
BBX 8 16 0 -4
BITMAP
:xxxxxxxx
:xxxxxxxx
:.xxxxxxx
:.xxxxxxx
:..xxxxxx
:..xxxxxx
:...xxxxx
:...xxxxx
:....xxxx
:....xxxx
:.....xxx 
:.....xxx
:......xx
:......xx
:.......x
:.......x
ENDCHAR

ENCODING ++
BBX 8 16 0 -4
BITMAP
:x.......
:x.......
:xx......
:xx......
:xxx.....
:xxx..... 
:xxxx....
:xxxx....
:xxxxx...
:xxxxx...
:xxxxxx..
:xxxxxx..
:xxxxxxx.
:xxxxxxx.
:xxxxxxxx
:xxxxxxxx
ENDCHAR

ENCODING ++
BBX 8 16 0 -4
BITMAP
:.......x
:.......x
:......xx
:......xx
:.....xxx
:.....xxx 
:....xxxx
:....xxxx
:...xxxxx
:...xxxxx
:..xxxxxx
:..xxxxxx
:.xxxxxxx
:.xxxxxxx
:xxxxxxxx
:xxxxxxxx
ENDCHAR

ENCODING ++
BBX 8 16 0 -4
BITMAP
:X.......
:XX......
:XXX.....
:XXXX....
:XXXXX... 
:XXXXXX..
:XXXXXXX.
:XXXXXXXX
:XXXXXXXX
:XXXXXXXX
:XXXXXXXX
:XXXXXXXX
:XXXXXXXX
:XXXXXXXX
:XXXXXXXX
:XXXXXXXX
ENDCHAR

ENCODING ++
BBX 8 16 0 -4
BITMAP
:........
:........
:........
:........
:........
:........
:........
:........
:X.......
:XX......
:XXX.....
:XXXX....
:XXXXX... 
:XXXXXX..
:XXXXXXX.
ENDCHAR

ENCODING ++
BBX 8 16 0 -4
BITMAP
:........
:........
:........
:........
:........
:........
:........
:........
:.......X
:......XX
:.....XXX
:....XXXX
:...XXXXX
:..XXXXXX 
:.XXXXXXX
:XXXXXXXX
ENDCHAR

ENCODING ++
BBX 8 16 0 -4
BITMAP
:.......X
:......XX
:.....XXX
:....XXXX
:...XXXXX
:..XXXXXX 
:.XXXXXXX
:XXXXXXXX
:XXXXXXXX
:XXXXXXXX
:XXXXXXXX
:XXXXXXXX
:XXXXXXXX
:XXXXXXXX
:XXXXXXXX
:XXXXXXXX
ENDCHAR

ENCODING ++
BBX 8 16 0 -4
BITMAP
:........
:........
:........
:...XX...
:..XXXX..
:.XXXXXX.
:...XX...
:...XX...
:...XX...
:...XX...
:...XX...
:...XX...
:...XX...
:........
:........
:........
ENDCHAR
ENCODING ++
BBX 8 16 0 -4
BITMAP
:........
:........
:........
:...XX...
:...XX...
:...XX...
:...XX...
:...XX...
:...XX...
:...XX...
:.XXXXXX.
:..XXXX..
:...XX...
:........
:........
:........
ENDCHAR
ENCODING ++
BBX 8 16 0 -4
BITMAP
:........
:........
:........
:........
:........
:........
:..X.....
:.XX.....
:XXXXXXX.
:XXXXXXX.
:.XX.....
:..X.....
:........
:........
:........
:........
ENDCHAR
ENCODING ++
BBX 8 16 0 -4
BITMAP
:........
:........
:........
:........
:........
:........
:....X...
:....XX..
:XXXXXXX.
:XXXXXXX.
:....XX..
:....X...
:........
:........
:........
:........
ENDCHAR

ENCODING ++
BBX 8 16 0 -4
BITMAP
:........
:........
:........
:........
:........
:.XXXXXX.
:.XXXXXX.
:.XXXXXX.
:.XXXXXX.
:.XXXXXX.
:.XXXXXX.
:........
:........
:........
:........
:........
ENDCHAR

ENCODING ++
BBX 8 16 0 -4
BITMAP
:........
:........
:........
:........
:........
:.XXXXXX.
:.X....X.
:.X....X.
:.X....X.
:.X....X.
:.XXXXXX.
:........
:........
:........
:........
:........
ENDCHAR

ENCODING ++
BBX 8 16 0 -4
BITMAP
:........
:........
:........
:........
:........
:..XXXX..
:.XXXXXX.
:.XXXXXX.
:.XXXXXX.
:.XXXXXX.
:..XXXX..
:........
:........
:........
:........
:........
ENDCHAR

ENCODING ++
BBX 8 16 0 -4
BITMAP
:........
:........
:........
:........
:........
:..XXXX..
:.X....X.
:.X....X.
:.X....X.
:.X....X.
:..XXXX..
:........
:........
:........
:........
:........
ENDCHAR

ENCODING ++
BBX 8 16 0 -4
BITMAP
:........
:........
:........
:........
:........
:...XX...
:..XXXX..
:.XXXXXX.
:.XXXXXX.
:..XXXX..
:...XX...
:........
:........
:........
:........
:........
ENDCHAR

ENCODING ++
BBX 8 16 0 -4
BITMAP
:........
:........
:........
:........
:........
:...XX...
:..X..X..
:.X....X.
:.X....X.
:..X..X..
:...XX...
:........
:........
:........
:........
:........
ENDCHAR

ENCODING ++
BBX 8 16 0 -4
BITMAP
:.....XXX
:...XXXXX
:..XXXXXX
:..XXXXXX
:.XXXXXXX
:.XXXXXXX
:.XXXXXXX
:XXXXXXXX
:XXXXXXXX
:XXXXXXXX
:XXXXXXXX
:XXXXXXXX
:XXXXXXXX
:XXXXXXXX
:XXXXXXXX
:XXXXXXXX
ENDCHAR

ENCODING ++
BBX 8 16 0 -4
BITMAP
:XXX.....
:XXXXX...
:XXXXXX..
:XXXXXX..
:XXXXXXX.
:XXXXXXX.
:XXXXXXX.
:XXXXXXXX
:XXXXXXXX
:XXXXXXXX
:XXXXXXXX
:XXXXXXXX
:XXXXXXXX
:XXXXXXXX
:XXXXXXXX
:XXXXXXXX
ENDCHAR

ENCODING ++
BBX 8 16 0 -4
BITMAP
:XXXXXXXX
:XXXXXXXX
:XXXXXXXX
:XXXXXXXX
:XXXXXXXX
:XXXXXXXX
:XXXXXXXX
:XXXXXXXX
:XXXXXXXX
:.XXXXXXX
:.XXXXXXX
:.XXXXXXX
:..XXXXXX
:..XXXXXX
:...XXXXX
:.....XXX
ENDCHAR

ENCODING ++
BBX 8 16 0 -4
BITMAP
:XXXXXXXX
:XXXXXXXX
:XXXXXXXX
:XXXXXXXX
:XXXXXXXX
:XXXXXXXX
:XXXXXXXX
:XXXXXXXX
:XXXXXXXX
:XXXXXXX.
:XXXXXXX.
:XXXXXXX.
:XXXXXX..
:XXXXXX..
:XXXXX...
:XXX.....
ENDCHAR

ENCODING ++
BBX 8 16 0 -4
BITMAP
:.....XXX
:...XXXXX
:..XX....
:..XX....
:.XX.....
:.XX.....
:.XX.....
:XX......
:XX......
:XX......
:XX......
:XX......
:XX......
:XX......
:XX......
:XX......
ENDCHAR

ENCODING ++
BBX 8 16 0 -4
BITMAP
:XXX.....
:XXXXX...
:....XX..
:....XX..
:.....XX.
:.....XX.
:.....XX.
:......XX
:......XX
:......XX
:......XX
:......XX
:......XX
:......XX
:......XX
:......XX
ENDCHAR

ENCODING ++
BBX 8 16 0 -4
BITMAP
:XX......
:XX......
:XX......
:XX......
:XX......
:XX......
:XX......
:XX......
:XX......
:.XX.....
:.XX.....
:.XX.....
:..XX....
:..XX....
:...XXXXX
:.....XXX
ENDCHAR

ENCODING ++
BBX 8 16 0 -4
BITMAP
:......XX
:......XX
:......XX
:......XX
:......XX
:......XX
:......XX
:......XX
:......XX
:.....XX.
:.....XX.
:.....XX.
:....XX..
:....XX..
:XXXXX...
:XXX.....
ENDCHAR

ENCODING ++
BBX 8 16 0 -4
BITMAP
:........
:........
:..XXXXXX
:..XXXXXX
:..XX....
:..XX....
:..XX....
:..XX....
:..XX....
:..XX....
:..XX....
:..XX....
:..XXXXXX
:..XXXXXX
:........
:........
ENDCHAR

ENCODING ++
BBX 8 16 0 -4
BITMAP
:........
:........
:XXXXXX..
:XXXXXX..
:....XX..
:....XX..
:....XX..
:....XX..
:....XX..
:....XX..
:....XX..
:....XX..
:XXXXXX..
:XXXXXX..
:........
:........
ENDCHAR

ENCODING ++
BBX 8 16 0 -4
BITMAP
:........
:........
:..XXXXXX
:..XXXXXX
:..XX....
:..XX..XX
:..XX..XX
:..XX..XX
:..XX..XX
:..XX..XX
:..XX..XX
:..XX....
:..XXXXXX
:..XXXXXX
:........
:........
ENDCHAR

ENCODING ++
BBX 8 16 0 -4
BITMAP
:........
:........
:XXXXXX..
:XXXXXX..
:....XX..
:XX..XX..
:XX..XX..
:XX..XX..
:XX..XX..
:XX..XX..
:XX..XX..
:....XX..
:XXXXXX..
:XXXXXX..
:........
:........
ENDCHAR

ENCODING ++
BBX 8 16 0 -4
BITMAP
:........
:........
:.....XXX
:....XXXX
:...XX...
:..XX....
:..XX....
:..XX....
:..XX....
:..XX....
:..XX....
:...XX...
:....XXXX
:.....XXX
:........
:........
ENDCHAR

ENCODING ++
BBX 8 16 0 -4
BITMAP
:........
:........
:XXX.....
:XXXX....
:...XX...
:....XX..
:....XX..
:....XX..
:....XX..
:....XX..
:....XX..
:...XX...
:XXXX....
:XXX.....
:........
:........
ENDCHAR

ENCODING ++
BBX 8 16 0 -4
BITMAP
:........
:........
:.....XXX
:....XXXX
:...XX...
:..XX..XX
:..XX..XX
:..XX..XX
:..XX..XX
:..XX..XX
:..XX..XX
:...XX...
:....XXXX
:.....XXX
:........
:........
ENDCHAR

ENCODING ++
BBX 8 16 0 -4
BITMAP
:........
:........
:XXX.....
:XXXX....
:...XX...
:XX..XX..
:XX..XX..
:XX..XX..
:XX..XX..
:XX..XX..
:XX..XX..
:...XX...
:XXXX....
:XXX.....
:........
:........
ENDCHAR


// PEL graphics. Only the necessary characters are defined, the
// remaining patterns can be obtained by using these ones with reverse
// video on or using other characters from this character set.

ENCODING ++
BBX 8 16 0 -4
BITMAP
:....XXXX
:....XXXX
:....XXXX
:....XXXX
:....XXXX
:....XXXX
:....XXXX
:....XXXX
:........
:........
:........
:........
:........
:........
:........
:........
ENDCHAR
ENCODING ++
BBX 8 16 0 -4
BITMAP
:XXXX....
:XXXX....
:XXXX....
:XXXX....
:XXXX....
:XXXX....
:XXXX....
:XXXX....
:........
:........
:........
:........
:........
:........
:........
:........
ENDCHAR
ENCODING ++
BBX 8 16 0 -4
BITMAP
:........
:........
:........
:........
:........
:........
:........
:........
:XXXX....
:XXXX....
:XXXX....
:XXXX....
:XXXX....
:XXXX....
:XXXX....
:XXXX....
ENDCHAR
ENCODING ++
BBX 8 16 0 -4
BITMAP
:........
:........
:........
:........
:........
:........
:........
:........
:....XXXX
:....XXXX
:....XXXX
:....XXXX
:....XXXX
:....XXXX
:....XXXX
:....XXXX
ENDCHAR
ENCODING ++
BBX 8 16 0 -4
BITMAP
:....XXXX
:....XXXX
:....XXXX
:....XXXX
:....XXXX
:....XXXX
:....XXXX
:....XXXX
:XXXX....
:XXXX....
:XXXX....
:XXXX....
:XXXX....
:XXXX....
:XXXX....
:XXXX....
ENDCHAR
