  0
SECTION
  2
HEADER
  9
$ACADVER
  1
AC1014
  9
$HANDSEED
  5
FFFF
  9
$MEASUREMENT
 70
     1
  0
ENDSEC
  0
SECTION
  2
TABLES
  0
TABLE
  2
VPORT
  5
8
330
0
100
AcDbSymbolTable
 70
     4
  0
VPORT
  5
2E
330
8
100
AcDbSymbolTableRecord
100
AcDbViewportTableRecord
  2
*ACTIVE
 70
     0
 10
0.0
 20
0.0
 11
1.0
 21
1.0
 12
210.0
 22
148.5
 13
0.0
 23
0.0
 14
10.0
 24
10.0
 15
10.0
 25
10.0
 16
0.0
 26
0.0
 36
1.0
 17
0.0
 27
0.0
 37
0.0
 40
341.0
 41
1.24
 42
50.0
 43
0.0
 44
0.0
 50
0.0
 51
0.0
 71
     0
 72
   100
 73
     1
 74
     3
 75
     0
 76
     0
 77
     0
 78
     0
  0
ENDTAB
  0
TABLE
  2
LTYPE
  5
5
330
0
100
AcDbSymbolTable
 70
     1
  0
LTYPE
  5
14
330
5
100
AcDbSymbolTableRecord
100
AcDbLinetypeTableRecord
  2
BYBLOCK
 70
     0
  3

 72
    65
 73
     0
 40
0.0
  0
LTYPE
  5
15
330
5
100
AcDbSymbolTableRecord
100
AcDbLinetypeTableRecord
  2
BYLAYER
 70
     0
  3

 72
    65
 73
     0
 40
0.0
  0
LTYPE
  5
16
330
5
100
AcDbSymbolTableRecord
100
AcDbLinetypeTableRecord
  2
CONTINUOUS
 70
     0
  3
Solid line
 72
    65
 73
     0
 40
0.0
  0
ENDTAB
  0
TABLE
  2
LAYER
  5
2
100
AcDbSymbolTable
 70
2
  0
LAYER
  5
50
100
AcDbSymbolTableRecord
100
AcDbLayerTableRecord
  2
0
 70
0
  6
CONTINUOUS
  0
LAYER
  5
51
100
AcDbSymbolTableRecord
100
AcDbLayerTableRecord
  2
Engraving
 70
0
  6
CONTINUOUS
  0
ENDTAB
  0
TABLE
  2
STYLE
  5
3
330
0
100
AcDbSymbolTable
 70
     1
  0
STYLE
  5
11
330
3
100
AcDbSymbolTableRecord
100
AcDbTextStyleTableRecord
  2
STANDARD
 70
     0
 40
0.0
 41
1.0
 50
0.0
 71
     0
 42
2.5
  3
txt
  4

  0
ENDTAB
  0
TABLE
  2
VIEW
  5
6
330
0
100
AcDbSymbolTable
 70
     0
  0
ENDTAB
  0
TABLE
  2
UCS
  5
7
330
0
100
AcDbSymbolTable
 70
     0
  0
ENDTAB
  0
TABLE
  2
APPID
  5
9
330
0
100
AcDbSymbolTable
 70
     2
  0
APPID
  5
12
330
9
100
AcDbSymbolTableRecord
100
AcDbRegAppTableRecord
  2
ACAD
 70
     0
  0
ENDTAB
  0
TABLE
  2
DIMSTYLE
  5
A
330
0
100
AcDbSymbolTable
 70
     1
  0
DIMSTYLE
105
27
330
A
100
AcDbSymbolTableRecord
100
AcDbDimStyleTableRecord
  2
ISO-25
 70
     0
  3

  4

  5

  6

  7

 40
1.0
 41
2.5
 42
0.625
 43
3.75
 44
1.25
 45
0.0
 46
0.0
 47
0.0
 48
0.0
140
2.5
141
2.5
142
0.0
143
0.03937007874016
144
1.0
145
0.0
146
1.0
147
0.625
 71
     0
 72
     0
 73
     0
 74
     0
 75
     0
 76
     0
 77
     1
 78
     8
170
     0
171
     3
172
     1
173
     0
174
     0
175
     0
176
     0
177
     0
178
     0
270
     2
271
     2
272
     2
273
     2
274
     3
340
11
275
     0
280
     0
281
     0
282
     0
283
     0
284
     8
285
     0
286
     0
287
     3
288
     0
  0
ENDTAB
  0
TABLE
  2
BLOCK_RECORD
  5
1
330
0
100
AcDbSymbolTable
 70
     1
  0
BLOCK_RECORD
  5
1F
330
1
100
AcDbSymbolTableRecord
100
AcDbBlockTableRecord
  2
*MODEL_SPACE
  0
BLOCK_RECORD
  5
1B
330
1
100
AcDbSymbolTableRecord
100
AcDbBlockTableRecord
  2
*PAPER_SPACE
  0
ENDTAB
  0
ENDSEC
  0
SECTION
  2
BLOCKS
  0
BLOCK
  5
20
330
1F
100
AcDbEntity
  8
0
100
AcDbBlockBegin
  2
*MODEL_SPACE
 70
     0
 10
0.0
 20
0.0
 30
0.0
  3
*MODEL_SPACE
  1

  0
ENDBLK
  5
21
330
1F
100
AcDbEntity
  8
0
100
AcDbBlockEnd
  0
BLOCK
  5
1C
330
1B
100
AcDbEntity
 67
     1
  8
0
100
AcDbBlockBegin
  2
*PAPER_SPACE
  1

  0
ENDBLK
  5
1D
330
1B
100
AcDbEntity
 67
     1
  8
0
100
AcDbBlockEnd
  0
ENDSEC
  0
SECTION
  2
ENTITIES
  0
LWPOLYLINE
  5
100
100
AcDbEntity
  8
Engraving
 62
1
100
AcDbPolyline
 90
6
 70
0
 10
-17.824097
 20
190.746944
 30
0.0
 10
-17.824097
 20
-39.255361
 30
0.0
 10
482.176667
 20
-39.255361
 30
0.0
 10
482.176667
 20
190.746944
 30
0.0
 10
-17.824097
 20
190.746944
 30
0.0
 10
-17.824097
 20
190.746944
 30
0.0
  0
LWPOLYLINE
  5
101
100
AcDbEntity
  8
Engraving
 62
1
100
AcDbPolyline
 90
34
 70
0
 10
6.773333
 20
169.906597
 30
0.0
 10
7.117292
 20
169.880139
 30
0.0
 10
7.434792
 20
169.774306
 30
0.0
 10
7.725833
 20
169.624375
 30
0.0
 10
7.972778
 20
169.412708
 30
0.0
 10
8.184444
 20
169.156944
 30
0.0
 10
8.343194
 20
168.874722
 30
0.0
 10
8.440208
 20
168.557222
 30
0.0
 10
8.475486
 20
168.213264
 30
0.0
 10
8.440208
 20
167.869306
 30
0.0
 10
8.343194
 20
167.551806
 30
0.0
 10
8.184444
 20
167.260764
 30
0.0
 10
7.972778
 20
167.005000
 30
0.0
 10
7.725833
 20
166.802153
 30
0.0
 10
7.434792
 20
166.643403
 30
0.0
 10
7.117292
 20
166.546389
 30
0.0
 10
6.773333
 20
166.511111
 30
0.0
 10
6.429375
 20
166.546389
 30
0.0
 10
6.111875
 20
166.643403
 30
0.0
 10
5.820833
 20
166.802153
 30
0.0
 10
5.573889
 20
167.005000
 30
0.0
 10
5.362222
 20
167.260764
 30
0.0
 10
5.203472
 20
167.551806
 30
0.0
 10
5.106458
 20
167.869306
 30
0.0
 10
5.071181
 20
168.213264
 30
0.0
 10
5.106458
 20
168.557222
 30
0.0
 10
5.203472
 20
168.874722
 30
0.0
 10
5.362222
 20
169.156944
 30
0.0
 10
5.573889
 20
169.412708
 30
0.0
 10
5.820833
 20
169.624375
 30
0.0
 10
6.111875
 20
169.774306
 30
0.0
 10
6.429375
 20
169.880139
 30
0.0
 10
6.773333
 20
169.906597
 30
0.0
 10
6.773333
 20
169.906597
 30
0.0
  0
LWPOLYLINE
  5
102
100
AcDbEntity
  8
Engraving
 62
1
100
AcDbPolyline
 90
18
 70
0
 10
456.776667
 20
169.906597
 30
0.0
 10
457.438139
 20
169.774306
 30
0.0
 10
457.976111
 20
169.412708
 30
0.0
 10
458.337694
 20
168.874722
 30
0.0
 10
458.470000
 20
168.213264
 30
0.0
 10
458.337694
 20
167.551806
 30
0.0
 10
457.976111
 20
167.013819
 30
0.0
 10
457.438139
 20
166.643403
 30
0.0
 10
456.776667
 20
166.511111
 30
0.0
 10
456.115194
 20
166.643403
 30
0.0
 10
455.577222
 20
167.013819
 30
0.0
 10
455.206806
 20
167.551806
 30
0.0
 10
455.074528
 20
168.213264
 30
0.0
 10
455.206806
 20
168.874722
 30
0.0
 10
455.577222
 20
169.412708
 30
0.0
 10
456.115194
 20
169.774306
 30
0.0
 10
456.776667
 20
169.906597
 30
0.0
 10
456.776667
 20
169.906597
 30
0.0
  0
LWPOLYLINE
  5
103
100
AcDbEntity
  8
Engraving
 62
1
100
AcDbPolyline
 90
6
 70
0
 10
22.225000
 20
29.862639
 30
0.0
 10
60.325000
 20
29.862639
 30
0.0
 10
60.325000
 20
17.162639
 30
0.0
 10
22.225000
 20
17.162639
 30
0.0
 10
22.225000
 20
29.862639
 30
0.0
 10
22.225000
 20
29.862639
 30
0.0
  0
LWPOLYLINE
  5
104
100
AcDbEntity
  8
Engraving
 62
1
100
AcDbPolyline
 90
6
 70
0
 10
73.025000
 20
29.862639
 30
0.0
 10
111.125000
 20
29.862639
 30
0.0
 10
111.125000
 20
17.162639
 30
0.0
 10
73.025000
 20
17.162639
 30
0.0
 10
73.025000
 20
29.862639
 30
0.0
 10
73.025000
 20
29.862639
 30
0.0
  0
LWPOLYLINE
  5
105
100
AcDbEntity
  8
Engraving
 62
1
100
AcDbPolyline
 90
6
 70
0
 10
123.825000
 20
29.862639
 30
0.0
 10
327.025000
 20
29.862639
 30
0.0
 10
327.025000
 20
17.162639
 30
0.0
 10
123.825000
 20
17.162639
 30
0.0
 10
123.825000
 20
29.862639
 30
0.0
 10
123.825000
 20
29.862639
 30
0.0
  0
LWPOLYLINE
  5
106
100
AcDbEntity
  8
Engraving
 62
1
100
AcDbPolyline
 90
6
 70
0
 10
339.725000
 20
29.862639
 30
0.0
 10
441.325000
 20
29.862639
 30
0.0
 10
441.325000
 20
17.162639
 30
0.0
 10
339.725000
 20
17.162639
 30
0.0
 10
339.725000
 20
29.862639
 30
0.0
 10
339.725000
 20
29.862639
 30
0.0
  0
LWPOLYLINE
  5
107
100
AcDbEntity
  8
Engraving
 62
1
100
AcDbPolyline
 90
18
 70
0
 10
6.773333
 20
-12.682361
 30
0.0
 10
7.434792
 20
-12.814653
 30
0.0
 10
7.972778
 20
-13.176250
 30
0.0
 10
8.343194
 20
-13.714236
 30
0.0
 10
8.475486
 20
-14.375694
 30
0.0
 10
8.343194
 20
-15.045972
 30
0.0
 10
7.972778
 20
-15.583972
 30
0.0
 10
7.434792
 20
-15.945556
 30
0.0
 10
6.773333
 20
-16.077861
 30
0.0
 10
6.111875
 20
-15.945556
 30
0.0
 10
5.573889
 20
-15.583972
 30
0.0
 10
5.203472
 20
-15.045972
 30
0.0
 10
5.071181
 20
-14.375694
 30
0.0
 10
5.203472
 20
-13.714236
 30
0.0
 10
5.573889
 20
-13.176250
 30
0.0
 10
6.111875
 20
-12.814653
 30
0.0
 10
6.773333
 20
-12.682361
 30
0.0
 10
6.773333
 20
-12.682361
 30
0.0
  0
SPLINE
  5
108
100
AcDbEntity
  8
Engraving
 62
7
100
AcDbSpline
 70
8
 71
3
 72
8
 73
4
 74
0
 40
0
 40
0
 40
0
 40
0
 40
1
 40
1
 40
1
 40
1
 10
518.064889
 20
27.789841
 30
0.0
 10
517.472372
 20
27.789841
 30
0.0
 10
517.184001
 20
27.161613
 30
0.0
 10
517.184001
 20
26.434611
 30
0.0
  0
SPLINE
  5
109
100
AcDbEntity
  8
Engraving
 62
7
100
AcDbSpline
 70
8
 71
3
 72
8
 73
4
 74
0
 40
0
 40
0
 40
0
 40
0
 40
1
 40
1
 40
1
 40
1
 10
517.184001
 20
26.434611
 30
0.0
 10
517.184001
 20
25.703654
 30
0.0
 10
517.421013
 20
25.063574
 30
0.0
 10
518.025382
 20
25.063574
 30
0.0
  0
SPLINE
  5
10a
100
AcDbEntity
  8
Engraving
 62
7
100
AcDbSpline
 70
8
 71
3
 72
8
 73
4
 74
0
 40
0
 40
0
 40
0
 40
0
 40
1
 40
1
 40
1
 40
1
 10
518.025382
 20
25.063574
 30
0.0
 10
518.531012
 20
25.063574
 30
0.0
 10
518.886545
 20
25.470541
 30
0.0
 10
518.886545
 20
26.474121
 30
0.0
  0
SPLINE
  5
10b
100
AcDbEntity
  8
Engraving
 62
7
100
AcDbSpline
 70
8
 71
3
 72
8
 73
4
 74
0
 40
0
 40
0
 40
0
 40
0
 40
1
 40
1
 40
1
 40
1
 10
518.886545
 20
26.474121
 30
0.0
 10
518.886545
 20
27.082591
 30
0.0
 10
518.704842
 20
27.789841
 30
0.0
 10
518.064889
 20
27.789841
 30
0.0
  0
SPLINE
  5
10c
100
AcDbEntity
  8
Engraving
 62
7
100
AcDbSpline
 70
8
 71
3
 72
8
 73
4
 74
0
 40
0
 40
0
 40
0
 40
0
 40
1
 40
1
 40
1
 40
1
 10
518.041185
 20
27.339413
 30
0.0
 10
518.278197
 20
27.339413
 30
0.0
 10
518.349309
 20
26.916646
 30
0.0
 10
518.349309
 20
26.450414
 30
0.0
  0
SPLINE
  5
10d
100
AcDbEntity
  8
Engraving
 62
7
100
AcDbSpline
 70
8
 71
3
 72
8
 73
4
 74
0
 40
0
 40
0
 40
0
 40
0
 40
1
 40
1
 40
1
 40
1
 10
518.349309
 20
26.450414
 30
0.0
 10
518.349309
 20
25.909112
 30
0.0
 10
518.266345
 20
25.514002
 30
0.0
 10
518.045135
 20
25.514002
 30
0.0
  0
SPLINE
  5
10e
100
AcDbEntity
  8
Engraving
 62
7
100
AcDbSpline
 70
8
 71
3
 72
8
 73
4
 74
0
 40
0
 40
0
 40
0
 40
0
 40
1
 40
1
 40
1
 40
1
 10
518.045135
 20
25.514002
 30
0.0
 10
517.835778
 20
25.514002
 30
0.0
 10
517.721236
 20
25.822189
 30
0.0
 10
517.721236
 20
26.426708
 30
0.0
  0
SPLINE
  5
10f
100
AcDbEntity
  8
Engraving
 62
7
100
AcDbSpline
 70
8
 71
3
 72
8
 73
4
 74
0
 40
0
 40
0
 40
0
 40
0
 40
1
 40
1
 40
1
 40
1
 10
517.721236
 20
26.426708
 30
0.0
 10
517.721236
 20
26.999620
 30
0.0
 10
517.835778
 20
27.339413
 30
0.0
 10
518.041185
 20
27.339413
 30
0.0
  0
LWPOLYLINE
  5
110
100
AcDbEntity
  8
Engraving
 62
1
100
AcDbPolyline
 90
18
 70
0
 10
456.776667
 20
-12.682361
 30
0.0
 10
457.438139
 20
-12.814653
 30
0.0
 10
457.976111
 20
-13.176250
 30
0.0
 10
458.337694
 20
-13.714236
 30
0.0
 10
458.470000
 20
-14.375694
 30
0.0
 10
458.337694
 20
-15.037153
 30
0.0
 10
457.976111
 20
-15.575139
 30
0.0
 10
457.438139
 20
-15.945556
 30
0.0
 10
456.776667
 20
-16.077861
 30
0.0
 10
456.115194
 20
-15.945556
 30
0.0
 10
455.577222
 20
-15.575139
 30
0.0
 10
455.206806
 20
-15.037153
 30
0.0
 10
455.074528
 20
-14.375694
 30
0.0
 10
455.206806
 20
-13.714236
 30
0.0
 10
455.577222
 20
-13.176250
 30
0.0
 10
456.115194
 20
-12.814653
 30
0.0
 10
456.776667
 20
-12.682361
 30
0.0
 10
456.776667
 20
-12.682361
 30
0.0
  0
LWPOLYLINE
  5
111
100
AcDbEntity
  8
Engraving
 62
7
100
AcDbPolyline
 90
11
 70
0
 10
519.212306
 20
25.095184
 30
0.0
 10
519.729788
 20
25.095184
 30
0.0
 10
519.729788
 20
26.193592
 30
0.0
 10
520.330235
 20
26.193592
 30
0.0
 10
520.330235
 20
26.624262
 30
0.0
 10
519.729788
 20
26.624262
 30
0.0
 10
519.729788
 20
27.307806
 30
0.0
 10
520.369742
 20
27.307806
 30
0.0
 10
520.369742
 20
27.758232
 30
0.0
 10
519.212306
 20
27.758232
 30
0.0
 10
519.212306
 20
25.095184
 30
0.0
  0
LWPOLYLINE
  5
112
100
AcDbEntity
  8
Engraving
 62
7
100
AcDbPolyline
 90
11
 70
0
 10
520.763088
 20
25.095184
 30
0.0
 10
521.280570
 20
25.095184
 30
0.0
 10
521.280570
 20
26.193592
 30
0.0
 10
521.881017
 20
26.193592
 30
0.0
 10
521.881017
 20
26.624262
 30
0.0
 10
521.280570
 20
26.624262
 30
0.0
 10
521.280570
 20
27.307806
 30
0.0
 10
521.920523
 20
27.307806
 30
0.0
 10
521.920523
 20
27.758232
 30
0.0
 10
520.763088
 20
27.758232
 30
0.0
 10
520.763088
 20
25.095184
 30
0.0
  0
ENDSEC
  0
SECTION
  2
OBJECTS
  0
DICTIONARY
  5
C
330
0
100
AcDbDictionary
  3
ACAD_GROUP
350
D
  3
ACAD_MLINESTYLE
350
17
  0
DICTIONARY
  5
D
330
C
100
AcDbDictionary
  0
DICTIONARY
  5
1A
330
C
100
AcDbDictionary
  0
DICTIONARY
  5
17
330
C
100
AcDbDictionary
  3
STANDARD
350
18
  0
DICTIONARY
  5
19
330
C
100
AcDbDictionary
  0
ENDSEC
  0
EOF
