  0
SECTION
  2
HEADER
  9
$ACADVER
  1
AC1014
  9
$HANDSEED
  5
FFFF
  9
$MEASUREMENT
 70
     1
  0
ENDSEC
  0
SECTION
  2
TABLES
  0
TABLE
  2
VPORT
  5
8
330
0
100
AcDbSymbolTable
 70
     4
  0
VPORT
  5
2E
330
8
100
AcDbSymbolTableRecord
100
AcDbViewportTableRecord
  2
*ACTIVE
 70
     0
 10
0.0
 20
0.0
 11
1.0
 21
1.0
 12
210.0
 22
148.5
 13
0.0
 23
0.0
 14
10.0
 24
10.0
 15
10.0
 25
10.0
 16
0.0
 26
0.0
 36
1.0
 17
0.0
 27
0.0
 37
0.0
 40
341.0
 41
1.24
 42
50.0
 43
0.0
 44
0.0
 50
0.0
 51
0.0
 71
     0
 72
   100
 73
     1
 74
     3
 75
     0
 76
     0
 77
     0
 78
     0
  0
ENDTAB
  0
TABLE
  2
LTYPE
  5
5
330
0
100
AcDbSymbolTable
 70
     1
  0
LTYPE
  5
14
330
5
100
AcDbSymbolTableRecord
100
AcDbLinetypeTableRecord
  2
BYBLOCK
 70
     0
  3

 72
    65
 73
     0
 40
0.0
  0
LTYPE
  5
15
330
5
100
AcDbSymbolTableRecord
100
AcDbLinetypeTableRecord
  2
BYLAYER
 70
     0
  3

 72
    65
 73
     0
 40
0.0
  0
LTYPE
  5
16
330
5
100
AcDbSymbolTableRecord
100
AcDbLinetypeTableRecord
  2
CONTINUOUS
 70
     0
  3
Solid line
 72
    65
 73
     0
 40
0.0
  0
ENDTAB
  0
TABLE
  2
LAYER
  5
2
100
AcDbSymbolTable
 70
2
  0
LAYER
  5
50
100
AcDbSymbolTableRecord
100
AcDbLayerTableRecord
  2
0
 70
0
  6
CONTINUOUS
  0
LAYER
  5
51
100
AcDbSymbolTableRecord
100
AcDbLayerTableRecord
  2
Switch_Mount
 70
0
  6
CONTINUOUS
  0
ENDTAB
  0
TABLE
  2
STYLE
  5
3
330
0
100
AcDbSymbolTable
 70
     1
  0
STYLE
  5
11
330
3
100
AcDbSymbolTableRecord
100
AcDbTextStyleTableRecord
  2
STANDARD
 70
     0
 40
0.0
 41
1.0
 50
0.0
 71
     0
 42
2.5
  3
txt
  4

  0
ENDTAB
  0
TABLE
  2
VIEW
  5
6
330
0
100
AcDbSymbolTable
 70
     0
  0
ENDTAB
  0
TABLE
  2
UCS
  5
7
330
0
100
AcDbSymbolTable
 70
     0
  0
ENDTAB
  0
TABLE
  2
APPID
  5
9
330
0
100
AcDbSymbolTable
 70
     2
  0
APPID
  5
12
330
9
100
AcDbSymbolTableRecord
100
AcDbRegAppTableRecord
  2
ACAD
 70
     0
  0
ENDTAB
  0
TABLE
  2
DIMSTYLE
  5
A
330
0
100
AcDbSymbolTable
 70
     1
  0
DIMSTYLE
105
27
330
A
100
AcDbSymbolTableRecord
100
AcDbDimStyleTableRecord
  2
ISO-25
 70
     0
  3

  4

  5

  6

  7

 40
1.0
 41
2.5
 42
0.625
 43
3.75
 44
1.25
 45
0.0
 46
0.0
 47
0.0
 48
0.0
140
2.5
141
2.5
142
0.0
143
0.03937007874016
144
1.0
145
0.0
146
1.0
147
0.625
 71
     0
 72
     0
 73
     0
 74
     0
 75
     0
 76
     0
 77
     1
 78
     8
170
     0
171
     3
172
     1
173
     0
174
     0
175
     0
176
     0
177
     0
178
     0
270
     2
271
     2
272
     2
273
     2
274
     3
340
11
275
     0
280
     0
281
     0
282
     0
283
     0
284
     8
285
     0
286
     0
287
     3
288
     0
  0
ENDTAB
  0
TABLE
  2
BLOCK_RECORD
  5
1
330
0
100
AcDbSymbolTable
 70
     1
  0
BLOCK_RECORD
  5
1F
330
1
100
AcDbSymbolTableRecord
100
AcDbBlockTableRecord
  2
*MODEL_SPACE
  0
BLOCK_RECORD
  5
1B
330
1
100
AcDbSymbolTableRecord
100
AcDbBlockTableRecord
  2
*PAPER_SPACE
  0
ENDTAB
  0
ENDSEC
  0
SECTION
  2
BLOCKS
  0
BLOCK
  5
20
330
1F
100
AcDbEntity
  8
0
100
AcDbBlockBegin
  2
*MODEL_SPACE
 70
     0
 10
0.0
 20
0.0
 30
0.0
  3
*MODEL_SPACE
  1

  0
ENDBLK
  5
21
330
1F
100
AcDbEntity
  8
0
100
AcDbBlockEnd
  0
BLOCK
  5
1C
330
1B
100
AcDbEntity
 67
     1
  8
0
100
AcDbBlockBegin
  2
*PAPER_SPACE
  1

  0
ENDBLK
  5
1D
330
1B
100
AcDbEntity
 67
     1
  8
0
100
AcDbBlockEnd
  0
ENDSEC
  0
SECTION
  2
ENTITIES
  0
LWPOLYLINE
  5
100
100
AcDbEntity
  8
Switch_Mount
 62
7
100
AcDbPolyline
 90
38
 70
0
 10
30.700486
 20
87.806389
 30
0.0
 10
29.488442
 20
87.685032
 30
0.0
 10
28.361108
 20
87.336760
 30
0.0
 10
27.342186
 20
86.785275
 30
0.0
 10
26.455375
 20
86.054277
 30
0.0
 10
25.724377
 20
85.167467
 30
0.0
 10
25.172892
 20
84.148545
 30
0.0
 10
24.824621
 20
83.021211
 30
0.0
 10
24.703264
 20
81.809167
 30
0.0
 10
24.703264
 20
43.806181
 30
0.0
 10
24.824621
 20
42.594136
 30
0.0
 10
25.172892
 20
41.466802
 30
0.0
 10
25.724377
 20
40.447880
 30
0.0
 10
26.455375
 20
39.561070
 30
0.0
 10
27.342186
 20
38.830072
 30
0.0
 10
28.361108
 20
38.278587
 30
0.0
 10
29.488442
 20
37.930316
 30
0.0
 10
30.700486
 20
37.808958
 30
0.0
 10
468.700556
 20
37.808958
 30
0.0
 10
469.912604
 20
37.930316
 30
0.0
 10
471.039940
 20
38.278587
 30
0.0
 10
472.058862
 20
38.830072
 30
0.0
 10
472.945672
 20
39.561070
 30
0.0
 10
473.676668
 20
40.447880
 30
0.0
 10
474.228151
 20
41.466802
 30
0.0
 10
474.576421
 20
42.594136
 30
0.0
 10
474.697778
 20
43.806181
 30
0.0
 10
474.697778
 20
81.809167
 30
0.0
 10
474.576421
 20
83.021211
 30
0.0
 10
474.228151
 20
84.148545
 30
0.0
 10
473.676668
 20
85.167467
 30
0.0
 10
472.945672
 20
86.054277
 30
0.0
 10
472.058862
 20
86.785275
 30
0.0
 10
471.039940
 20
87.336760
 30
0.0
 10
469.912604
 20
87.685032
 30
0.0
 10
468.700556
 20
87.806389
 30
0.0
 10
30.700486
 20
87.806389
 30
0.0
 10
30.700486
 20
87.806389
 30
0.0
  0
LWPOLYLINE
  5
101
100
AcDbEntity
  8
Switch_Mount
 62
7
100
AcDbPolyline
 90
18
 70
0
 10
32.455556
 20
81.756250
 30
0.0
 10
33.116230
 20
81.622312
 30
0.0
 10
33.654303
 20
81.257237
 30
0.0
 10
34.016336
 20
80.716130
 30
0.0
 10
34.148889
 20
80.054097
 30
0.0
 10
34.016336
 20
79.393442
 30
0.0
 10
33.654303
 20
78.855366
 30
0.0
 10
33.116230
 20
78.493323
 30
0.0
 10
32.455556
 20
78.360764
 30
0.0
 10
31.793502
 20
78.493323
 30
0.0
 10
31.252397
 20
78.855366
 30
0.0
 10
30.887333
 20
79.393442
 30
0.0
 10
30.753403
 20
80.054097
 30
0.0
 10
30.887333
 20
80.716130
 30
0.0
 10
31.252397
 20
81.257237
 30
0.0
 10
31.793502
 20
81.622312
 30
0.0
 10
32.455556
 20
81.756250
 30
0.0
 10
32.455556
 20
81.756250
 30
0.0
  0
LWPOLYLINE
  5
102
100
AcDbEntity
  8
Switch_Mount
 62
7
100
AcDbPolyline
 90
10
 70
0
 10
59.134375
 20
75.935417
 30
0.0
 10
60.001000
 20
75.576139
 30
0.0
 10
60.360278
 20
74.709514
 30
0.0
 10
60.001000
 20
73.842890
 30
0.0
 10
59.134375
 20
73.483611
 30
0.0
 10
58.272160
 20
73.842890
 30
0.0
 10
57.917292
 20
74.709514
 30
0.0
 10
58.272160
 20
75.576139
 30
0.0
 10
59.134375
 20
75.935417
 30
0.0
 10
59.134375
 20
75.935417
 30
0.0
  0
LWPOLYLINE
  5
103
100
AcDbEntity
  8
Switch_Mount
 62
7
100
AcDbPolyline
 90
10
 70
0
 10
71.834375
 20
75.935417
 30
0.0
 10
72.701000
 20
75.576139
 30
0.0
 10
73.060278
 20
74.709514
 30
0.0
 10
72.701000
 20
73.842890
 30
0.0
 10
71.834375
 20
73.483611
 30
0.0
 10
70.972160
 20
73.842890
 30
0.0
 10
70.617292
 20
74.709514
 30
0.0
 10
70.972160
 20
75.576139
 30
0.0
 10
71.834375
 20
75.935417
 30
0.0
 10
71.834375
 20
75.935417
 30
0.0
  0
LWPOLYLINE
  5
104
100
AcDbEntity
  8
Switch_Mount
 62
7
100
AcDbPolyline
 90
10
 70
0
 10
97.234375
 20
75.935417
 30
0.0
 10
98.101000
 20
75.576139
 30
0.0
 10
98.460278
 20
74.709514
 30
0.0
 10
98.101000
 20
73.842890
 30
0.0
 10
97.234375
 20
73.483611
 30
0.0
 10
96.372160
 20
73.842890
 30
0.0
 10
96.017292
 20
74.709514
 30
0.0
 10
96.372160
 20
75.576139
 30
0.0
 10
97.234375
 20
75.935417
 30
0.0
 10
97.234375
 20
75.935417
 30
0.0
  0
LWPOLYLINE
  5
105
100
AcDbEntity
  8
Switch_Mount
 62
7
100
AcDbPolyline
 90
10
 70
0
 10
109.934375
 20
75.935417
 30
0.0
 10
110.801000
 20
75.576139
 30
0.0
 10
111.160278
 20
74.709514
 30
0.0
 10
110.801000
 20
73.842890
 30
0.0
 10
109.934375
 20
73.483611
 30
0.0
 10
109.072160
 20
73.842890
 30
0.0
 10
108.717292
 20
74.709514
 30
0.0
 10
109.072160
 20
75.576139
 30
0.0
 10
109.934375
 20
75.935417
 30
0.0
 10
109.934375
 20
75.935417
 30
0.0
  0
LWPOLYLINE
  5
106
100
AcDbEntity
  8
Switch_Mount
 62
7
100
AcDbPolyline
 90
10
 70
0
 10
122.634375
 20
75.935417
 30
0.0
 10
123.501000
 20
75.576139
 30
0.0
 10
123.860278
 20
74.709514
 30
0.0
 10
123.501000
 20
73.842890
 30
0.0
 10
122.634375
 20
73.483611
 30
0.0
 10
121.772160
 20
73.842890
 30
0.0
 10
121.417292
 20
74.709514
 30
0.0
 10
121.772160
 20
75.576139
 30
0.0
 10
122.634375
 20
75.935417
 30
0.0
 10
122.634375
 20
75.935417
 30
0.0
  0
LWPOLYLINE
  5
107
100
AcDbEntity
  8
Switch_Mount
 62
7
100
AcDbPolyline
 90
10
 70
0
 10
148.034375
 20
75.935417
 30
0.0
 10
148.901000
 20
75.576139
 30
0.0
 10
149.260278
 20
74.709514
 30
0.0
 10
148.901000
 20
73.842890
 30
0.0
 10
148.034375
 20
73.483611
 30
0.0
 10
147.172160
 20
73.842890
 30
0.0
 10
146.817292
 20
74.709514
 30
0.0
 10
147.172160
 20
75.576139
 30
0.0
 10
148.034375
 20
75.935417
 30
0.0
 10
148.034375
 20
75.935417
 30
0.0
  0
LWPOLYLINE
  5
108
100
AcDbEntity
  8
Switch_Mount
 62
7
100
AcDbPolyline
 90
10
 70
0
 10
160.734375
 20
75.935417
 30
0.0
 10
161.601000
 20
75.576139
 30
0.0
 10
161.960278
 20
74.709514
 30
0.0
 10
161.601000
 20
73.842890
 30
0.0
 10
160.734375
 20
73.483611
 30
0.0
 10
159.872160
 20
73.842890
 30
0.0
 10
159.517292
 20
74.709514
 30
0.0
 10
159.872160
 20
75.576139
 30
0.0
 10
160.734375
 20
75.935417
 30
0.0
 10
160.734375
 20
75.935417
 30
0.0
  0
LWPOLYLINE
  5
109
100
AcDbEntity
  8
Switch_Mount
 62
7
100
AcDbPolyline
 90
10
 70
0
 10
173.434375
 20
75.935417
 30
0.0
 10
174.301000
 20
75.576139
 30
0.0
 10
174.660278
 20
74.709514
 30
0.0
 10
174.301000
 20
73.842890
 30
0.0
 10
173.434375
 20
73.483611
 30
0.0
 10
172.572160
 20
73.842890
 30
0.0
 10
172.217292
 20
74.709514
 30
0.0
 10
172.572160
 20
75.576139
 30
0.0
 10
173.434375
 20
75.935417
 30
0.0
 10
173.434375
 20
75.935417
 30
0.0
  0
LWPOLYLINE
  5
10a
100
AcDbEntity
  8
Switch_Mount
 62
7
100
AcDbPolyline
 90
10
 70
0
 10
186.134375
 20
75.935417
 30
0.0
 10
187.001000
 20
75.576139
 30
0.0
 10
187.360278
 20
74.709514
 30
0.0
 10
187.001000
 20
73.842890
 30
0.0
 10
186.134375
 20
73.483611
 30
0.0
 10
185.272160
 20
73.842890
 30
0.0
 10
184.917292
 20
74.709514
 30
0.0
 10
185.272160
 20
75.576139
 30
0.0
 10
186.134375
 20
75.935417
 30
0.0
 10
186.134375
 20
75.935417
 30
0.0
  0
LWPOLYLINE
  5
10b
100
AcDbEntity
  8
Switch_Mount
 62
7
100
AcDbPolyline
 90
10
 70
0
 10
198.834375
 20
75.935417
 30
0.0
 10
199.701000
 20
75.576139
 30
0.0
 10
200.060278
 20
74.709514
 30
0.0
 10
199.701000
 20
73.842890
 30
0.0
 10
198.834375
 20
73.483611
 30
0.0
 10
197.972160
 20
73.842890
 30
0.0
 10
197.617292
 20
74.709514
 30
0.0
 10
197.972160
 20
75.576139
 30
0.0
 10
198.834375
 20
75.935417
 30
0.0
 10
198.834375
 20
75.935417
 30
0.0
  0
LWPOLYLINE
  5
10c
100
AcDbEntity
  8
Switch_Mount
 62
7
100
AcDbPolyline
 90
10
 70
0
 10
211.534375
 20
75.935417
 30
0.0
 10
212.401000
 20
75.576139
 30
0.0
 10
212.760278
 20
74.709514
 30
0.0
 10
212.401000
 20
73.842890
 30
0.0
 10
211.534375
 20
73.483611
 30
0.0
 10
210.672160
 20
73.842890
 30
0.0
 10
210.317292
 20
74.709514
 30
0.0
 10
210.672160
 20
75.576139
 30
0.0
 10
211.534375
 20
75.935417
 30
0.0
 10
211.534375
 20
75.935417
 30
0.0
  0
LWPOLYLINE
  5
10d
100
AcDbEntity
  8
Switch_Mount
 62
7
100
AcDbPolyline
 90
10
 70
0
 10
224.234375
 20
75.935417
 30
0.0
 10
225.101000
 20
75.576139
 30
0.0
 10
225.460278
 20
74.709514
 30
0.0
 10
225.101000
 20
73.842890
 30
0.0
 10
224.234375
 20
73.483611
 30
0.0
 10
223.372160
 20
73.842890
 30
0.0
 10
223.017292
 20
74.709514
 30
0.0
 10
223.372160
 20
75.576139
 30
0.0
 10
224.234375
 20
75.935417
 30
0.0
 10
224.234375
 20
75.935417
 30
0.0
  0
LWPOLYLINE
  5
10e
100
AcDbEntity
  8
Switch_Mount
 62
7
100
AcDbPolyline
 90
10
 70
0
 10
236.934375
 20
75.935417
 30
0.0
 10
237.801000
 20
75.576139
 30
0.0
 10
238.160278
 20
74.709514
 30
0.0
 10
237.801000
 20
73.842890
 30
0.0
 10
236.934375
 20
73.483611
 30
0.0
 10
236.072160
 20
73.842890
 30
0.0
 10
235.717292
 20
74.709514
 30
0.0
 10
236.072160
 20
75.576139
 30
0.0
 10
236.934375
 20
75.935417
 30
0.0
 10
236.934375
 20
75.935417
 30
0.0
  0
LWPOLYLINE
  5
10f
100
AcDbEntity
  8
Switch_Mount
 62
7
100
AcDbPolyline
 90
10
 70
0
 10
249.634375
 20
75.935417
 30
0.0
 10
250.501000
 20
75.576139
 30
0.0
 10
250.860278
 20
74.709514
 30
0.0
 10
250.501000
 20
73.842890
 30
0.0
 10
249.634375
 20
73.483611
 30
0.0
 10
248.772160
 20
73.842890
 30
0.0
 10
248.417292
 20
74.709514
 30
0.0
 10
248.772160
 20
75.576139
 30
0.0
 10
249.634375
 20
75.935417
 30
0.0
 10
249.634375
 20
75.935417
 30
0.0
  0
LWPOLYLINE
  5
110
100
AcDbEntity
  8
Switch_Mount
 62
7
100
AcDbPolyline
 90
10
 70
0
 10
262.334375
 20
75.935417
 30
0.0
 10
263.201000
 20
75.576139
 30
0.0
 10
263.560278
 20
74.709514
 30
0.0
 10
263.201000
 20
73.842890
 30
0.0
 10
262.334375
 20
73.483611
 30
0.0
 10
261.472160
 20
73.842890
 30
0.0
 10
261.117292
 20
74.709514
 30
0.0
 10
261.472160
 20
75.576139
 30
0.0
 10
262.334375
 20
75.935417
 30
0.0
 10
262.334375
 20
75.935417
 30
0.0
  0
LWPOLYLINE
  5
111
100
AcDbEntity
  8
Switch_Mount
 62
7
100
AcDbPolyline
 90
10
 70
0
 10
275.034375
 20
75.935417
 30
0.0
 10
275.901000
 20
75.576139
 30
0.0
 10
276.260278
 20
74.709514
 30
0.0
 10
275.901000
 20
73.842890
 30
0.0
 10
275.034375
 20
73.483611
 30
0.0
 10
274.172160
 20
73.842890
 30
0.0
 10
273.817292
 20
74.709514
 30
0.0
 10
274.172160
 20
75.576139
 30
0.0
 10
275.034375
 20
75.935417
 30
0.0
 10
275.034375
 20
75.935417
 30
0.0
  0
LWPOLYLINE
  5
112
100
AcDbEntity
  8
Switch_Mount
 62
7
100
AcDbPolyline
 90
10
 70
0
 10
287.734361
 20
75.935417
 30
0.0
 10
288.600991
 20
75.576139
 30
0.0
 10
288.960278
 20
74.709514
 30
0.0
 10
288.601002
 20
73.842890
 30
0.0
 10
287.734361
 20
73.483611
 30
0.0
 10
286.872151
 20
73.842890
 30
0.0
 10
286.517306
 20
74.709514
 30
0.0
 10
286.872151
 20
75.576139
 30
0.0
 10
287.734361
 20
75.935417
 30
0.0
 10
287.734361
 20
75.935417
 30
0.0
  0
LWPOLYLINE
  5
113
100
AcDbEntity
  8
Switch_Mount
 62
7
100
AcDbPolyline
 90
10
 70
0
 10
300.434361
 20
75.935417
 30
0.0
 10
301.301002
 20
75.576139
 30
0.0
 10
301.660278
 20
74.709514
 30
0.0
 10
301.301002
 20
73.842890
 30
0.0
 10
300.434361
 20
73.483611
 30
0.0
 10
299.572140
 20
73.842890
 30
0.0
 10
299.217306
 20
74.709514
 30
0.0
 10
299.572172
 20
75.576139
 30
0.0
 10
300.434361
 20
75.935417
 30
0.0
 10
300.434361
 20
75.935417
 30
0.0
  0
LWPOLYLINE
  5
114
100
AcDbEntity
  8
Switch_Mount
 62
7
100
AcDbPolyline
 90
10
 70
0
 10
313.134361
 20
75.935417
 30
0.0
 10
314.001002
 20
75.576139
 30
0.0
 10
314.360278
 20
74.709514
 30
0.0
 10
314.001002
 20
73.842890
 30
0.0
 10
313.134361
 20
73.483611
 30
0.0
 10
312.272140
 20
73.842890
 30
0.0
 10
311.917306
 20
74.709514
 30
0.0
 10
312.272172
 20
75.576139
 30
0.0
 10
313.134361
 20
75.935417
 30
0.0
 10
313.134361
 20
75.935417
 30
0.0
  0
LWPOLYLINE
  5
115
100
AcDbEntity
  8
Switch_Mount
 62
7
100
AcDbPolyline
 90
10
 70
0
 10
325.834361
 20
75.935417
 30
0.0
 10
326.701002
 20
75.576139
 30
0.0
 10
327.060278
 20
74.709514
 30
0.0
 10
326.701002
 20
73.842890
 30
0.0
 10
325.834361
 20
73.483611
 30
0.0
 10
324.972140
 20
73.842890
 30
0.0
 10
324.617306
 20
74.709514
 30
0.0
 10
324.972172
 20
75.576139
 30
0.0
 10
325.834361
 20
75.935417
 30
0.0
 10
325.834361
 20
75.935417
 30
0.0
  0
LWPOLYLINE
  5
116
100
AcDbEntity
  8
Switch_Mount
 62
7
100
AcDbPolyline
 90
10
 70
0
 10
338.534361
 20
75.935417
 30
0.0
 10
339.401002
 20
75.576139
 30
0.0
 10
339.760278
 20
74.709514
 30
0.0
 10
339.401002
 20
73.842890
 30
0.0
 10
338.534361
 20
73.483611
 30
0.0
 10
337.672183
 20
73.842890
 30
0.0
 10
337.317306
 20
74.709514
 30
0.0
 10
337.672183
 20
75.576139
 30
0.0
 10
338.534361
 20
75.935417
 30
0.0
 10
338.534361
 20
75.935417
 30
0.0
  0
LWPOLYLINE
  5
117
100
AcDbEntity
  8
Switch_Mount
 62
7
100
AcDbPolyline
 90
10
 70
0
 10
363.934361
 20
75.935417
 30
0.0
 10
364.801012
 20
75.576139
 30
0.0
 10
365.160278
 20
74.709514
 30
0.0
 10
364.801012
 20
73.842890
 30
0.0
 10
363.934361
 20
73.483611
 30
0.0
 10
363.072183
 20
73.842890
 30
0.0
 10
362.717306
 20
74.709514
 30
0.0
 10
363.072183
 20
75.576139
 30
0.0
 10
363.934361
 20
75.935417
 30
0.0
 10
363.934361
 20
75.935417
 30
0.0
  0
LWPOLYLINE
  5
118
100
AcDbEntity
  8
Switch_Mount
 62
7
100
AcDbPolyline
 90
10
 70
0
 10
376.634361
 20
75.935417
 30
0.0
 10
377.501012
 20
75.576139
 30
0.0
 10
377.860278
 20
74.709514
 30
0.0
 10
377.501012
 20
73.842890
 30
0.0
 10
376.634361
 20
73.483611
 30
0.0
 10
375.772183
 20
73.842890
 30
0.0
 10
375.417306
 20
74.709514
 30
0.0
 10
375.772172
 20
75.576139
 30
0.0
 10
376.634361
 20
75.935417
 30
0.0
 10
376.634361
 20
75.935417
 30
0.0
  0
LWPOLYLINE
  5
119
100
AcDbEntity
  8
Switch_Mount
 62
7
100
AcDbPolyline
 90
10
 70
0
 10
389.334361
 20
75.935417
 30
0.0
 10
390.201002
 20
75.576139
 30
0.0
 10
390.560278
 20
74.709514
 30
0.0
 10
390.201012
 20
73.842890
 30
0.0
 10
389.334361
 20
73.483611
 30
0.0
 10
388.472151
 20
73.842890
 30
0.0
 10
388.117306
 20
74.709514
 30
0.0
 10
388.472183
 20
75.576139
 30
0.0
 10
389.334361
 20
75.935417
 30
0.0
 10
389.334361
 20
75.935417
 30
0.0
  0
LWPOLYLINE
  5
11a
100
AcDbEntity
  8
Switch_Mount
 62
7
100
AcDbPolyline
 90
10
 70
0
 10
402.034361
 20
75.935417
 30
0.0
 10
402.900991
 20
75.576139
 30
0.0
 10
403.260278
 20
74.709514
 30
0.0
 10
402.901002
 20
73.842890
 30
0.0
 10
402.034361
 20
73.483611
 30
0.0
 10
401.172140
 20
73.842890
 30
0.0
 10
400.817306
 20
74.709514
 30
0.0
 10
401.172172
 20
75.576139
 30
0.0
 10
402.034361
 20
75.935417
 30
0.0
 10
402.034361
 20
75.935417
 30
0.0
  0
LWPOLYLINE
  5
11b
100
AcDbEntity
  8
Switch_Mount
 62
7
100
AcDbPolyline
 90
10
 70
0
 10
414.734361
 20
75.935417
 30
0.0
 10
415.600991
 20
75.576139
 30
0.0
 10
415.960278
 20
74.709514
 30
0.0
 10
415.601002
 20
73.842890
 30
0.0
 10
414.734361
 20
73.483611
 30
0.0
 10
413.872140
 20
73.842890
 30
0.0
 10
413.517306
 20
74.709514
 30
0.0
 10
413.872172
 20
75.576139
 30
0.0
 10
414.734361
 20
75.935417
 30
0.0
 10
414.734361
 20
75.935417
 30
0.0
  0
LWPOLYLINE
  5
11c
100
AcDbEntity
  8
Switch_Mount
 62
7
100
AcDbPolyline
 90
10
 70
0
 10
427.434361
 20
75.935417
 30
0.0
 10
428.300991
 20
75.576139
 30
0.0
 10
428.660278
 20
74.709514
 30
0.0
 10
428.301002
 20
73.842890
 30
0.0
 10
427.434361
 20
73.483611
 30
0.0
 10
426.572140
 20
73.842890
 30
0.0
 10
426.217306
 20
74.709514
 30
0.0
 10
426.572172
 20
75.576139
 30
0.0
 10
427.434361
 20
75.935417
 30
0.0
 10
427.434361
 20
75.935417
 30
0.0
  0
LWPOLYLINE
  5
11d
100
AcDbEntity
  8
Switch_Mount
 62
7
100
AcDbPolyline
 90
10
 70
0
 10
440.134361
 20
75.935417
 30
0.0
 10
441.000991
 20
75.576139
 30
0.0
 10
441.360278
 20
74.709514
 30
0.0
 10
441.001002
 20
73.842890
 30
0.0
 10
440.134361
 20
73.483611
 30
0.0
 10
439.272140
 20
73.842890
 30
0.0
 10
438.917306
 20
74.709514
 30
0.0
 10
439.272172
 20
75.576139
 30
0.0
 10
440.134361
 20
75.935417
 30
0.0
 10
440.134361
 20
75.935417
 30
0.0
  0
LWPOLYLINE
  5
11e
100
AcDbEntity
  8
Switch_Mount
 62
7
100
AcDbPolyline
 90
10
 70
0
 10
452.834361
 20
75.935417
 30
0.0
 10
453.700991
 20
75.576139
 30
0.0
 10
454.060278
 20
74.709514
 30
0.0
 10
453.701002
 20
73.842890
 30
0.0
 10
452.834361
 20
73.483611
 30
0.0
 10
451.972151
 20
73.842890
 30
0.0
 10
451.617306
 20
74.709514
 30
0.0
 10
451.972183
 20
75.576139
 30
0.0
 10
452.834361
 20
75.935417
 30
0.0
 10
452.834361
 20
75.935417
 30
0.0
  0
LWPOLYLINE
  5
11f
100
AcDbEntity
  8
Switch_Mount
 62
7
100
AcDbPolyline
 90
14
 70
0
 10
40.719375
 20
69.153264
 30
0.0
 10
77.558194
 20
69.153264
 30
0.0
 10
77.913424
 20
69.010194
 30
0.0
 10
78.060903
 20
68.659375
 30
0.0
 10
78.060903
 20
56.955972
 30
0.0
 10
77.913424
 20
56.600744
 30
0.0
 10
77.558194
 20
56.453264
 30
0.0
 10
40.719375
 20
56.453264
 30
0.0
 10
40.364145
 20
56.600744
 30
0.0
 10
40.216667
 20
56.955972
 30
0.0
 10
40.216667
 20
68.659375
 30
0.0
 10
40.364145
 20
69.010194
 30
0.0
 10
40.719375
 20
69.153264
 30
0.0
 10
40.719375
 20
69.153264
 30
0.0
  0
LWPOLYLINE
  5
120
100
AcDbEntity
  8
Switch_Mount
 62
7
100
AcDbPolyline
 90
14
 70
0
 10
91.519375
 20
69.153264
 30
0.0
 10
128.358194
 20
69.153264
 30
0.0
 10
128.713424
 20
69.010194
 30
0.0
 10
128.860903
 20
68.659375
 30
0.0
 10
128.860903
 20
56.955972
 30
0.0
 10
128.713424
 20
56.600744
 30
0.0
 10
128.358194
 20
56.453264
 30
0.0
 10
91.519375
 20
56.453264
 30
0.0
 10
91.164145
 20
56.600744
 30
0.0
 10
91.016667
 20
56.955972
 30
0.0
 10
91.016667
 20
68.659375
 30
0.0
 10
91.164145
 20
69.010194
 30
0.0
 10
91.519375
 20
69.153264
 30
0.0
 10
91.519375
 20
69.153264
 30
0.0
  0
LWPOLYLINE
  5
121
100
AcDbEntity
  8
Switch_Mount
 62
7
100
AcDbPolyline
 90
14
 70
0
 10
142.187083
 20
69.153264
 30
0.0
 10
344.390472
 20
69.153264
 30
0.0
 10
344.741345
 20
69.010194
 30
0.0
 10
344.884361
 20
68.659375
 30
0.0
 10
344.884361
 20
56.955972
 30
0.0
 10
344.741313
 20
56.600744
 30
0.0
 10
344.390472
 20
56.453264
 30
0.0
 10
142.187083
 20
56.453264
 30
0.0
 10
141.831855
 20
56.600744
 30
0.0
 10
141.684375
 20
56.955972
 30
0.0
 10
141.684375
 20
68.659375
 30
0.0
 10
141.831855
 20
69.010194
 30
0.0
 10
142.187083
 20
69.153264
 30
0.0
 10
142.187083
 20
69.153264
 30
0.0
  0
LWPOLYLINE
  5
122
100
AcDbEntity
  8
Switch_Mount
 62
7
100
AcDbPolyline
 90
14
 70
0
 10
358.087083
 20
69.153264
 30
0.0
 10
458.690472
 20
69.153264
 30
0.0
 10
459.041313
 20
69.010194
 30
0.0
 10
459.184361
 20
68.659375
 30
0.0
 10
459.184361
 20
56.955972
 30
0.0
 10
459.041313
 20
56.600744
 30
0.0
 10
458.690472
 20
56.453264
 30
0.0
 10
358.087083
 20
56.453264
 30
0.0
 10
357.731868
 20
56.600744
 30
0.0
 10
357.584361
 20
56.955972
 30
0.0
 10
357.584361
 20
68.659375
 30
0.0
 10
357.731847
 20
69.010194
 30
0.0
 10
358.087083
 20
69.153264
 30
0.0
 10
358.087083
 20
69.153264
 30
0.0
  0
LWPOLYLINE
  5
123
100
AcDbEntity
  8
Switch_Mount
 62
7
100
AcDbPolyline
 90
10
 70
0
 10
46.434375
 20
52.131736
 30
0.0
 10
47.301000
 20
51.772459
 30
0.0
 10
47.660278
 20
50.905833
 30
0.0
 10
47.301000
 20
50.039209
 30
0.0
 10
46.434375
 20
49.679931
 30
0.0
 10
45.572160
 20
50.039209
 30
0.0
 10
45.217292
 20
50.905833
 30
0.0
 10
45.572160
 20
51.772459
 30
0.0
 10
46.434375
 20
52.131736
 30
0.0
 10
46.434375
 20
52.131736
 30
0.0
  0
LWPOLYLINE
  5
124
100
AcDbEntity
  8
Switch_Mount
 62
7
100
AcDbPolyline
 90
10
 70
0
 10
59.134375
 20
52.131736
 30
0.0
 10
60.001000
 20
51.772459
 30
0.0
 10
60.360278
 20
50.905833
 30
0.0
 10
60.001000
 20
50.039209
 30
0.0
 10
59.134375
 20
49.679931
 30
0.0
 10
58.272160
 20
50.039209
 30
0.0
 10
57.917292
 20
50.905833
 30
0.0
 10
58.272160
 20
51.772459
 30
0.0
 10
59.134375
 20
52.131736
 30
0.0
 10
59.134375
 20
52.131736
 30
0.0
  0
LWPOLYLINE
  5
125
100
AcDbEntity
  8
Switch_Mount
 62
7
100
AcDbPolyline
 90
10
 70
0
 10
97.234375
 20
52.131736
 30
0.0
 10
98.101000
 20
51.772459
 30
0.0
 10
98.460278
 20
50.905833
 30
0.0
 10
98.101000
 20
50.039209
 30
0.0
 10
97.234375
 20
49.679931
 30
0.0
 10
96.372160
 20
50.039209
 30
0.0
 10
96.017292
 20
50.905833
 30
0.0
 10
96.372160
 20
51.772459
 30
0.0
 10
97.234375
 20
52.131736
 30
0.0
 10
97.234375
 20
52.131736
 30
0.0
  0
LWPOLYLINE
  5
126
100
AcDbEntity
  8
Switch_Mount
 62
7
100
AcDbPolyline
 90
10
 70
0
 10
109.934375
 20
52.131736
 30
0.0
 10
110.801000
 20
51.772459
 30
0.0
 10
111.160278
 20
50.905833
 30
0.0
 10
110.801000
 20
50.039209
 30
0.0
 10
109.934375
 20
49.679931
 30
0.0
 10
109.072160
 20
50.039209
 30
0.0
 10
108.717292
 20
50.905833
 30
0.0
 10
109.072160
 20
51.772459
 30
0.0
 10
109.934375
 20
52.131736
 30
0.0
 10
109.934375
 20
52.131736
 30
0.0
  0
LWPOLYLINE
  5
127
100
AcDbEntity
  8
Switch_Mount
 62
7
100
AcDbPolyline
 90
10
 70
0
 10
122.634375
 20
52.131736
 30
0.0
 10
123.501000
 20
51.772459
 30
0.0
 10
123.860278
 20
50.905833
 30
0.0
 10
123.501000
 20
50.039209
 30
0.0
 10
122.634375
 20
49.679931
 30
0.0
 10
121.772160
 20
50.039209
 30
0.0
 10
121.417292
 20
50.905833
 30
0.0
 10
121.772160
 20
51.772459
 30
0.0
 10
122.634375
 20
52.131736
 30
0.0
 10
122.634375
 20
52.131736
 30
0.0
  0
LWPOLYLINE
  5
128
100
AcDbEntity
  8
Switch_Mount
 62
7
100
AcDbPolyline
 90
10
 70
0
 10
148.034375
 20
52.131736
 30
0.0
 10
148.901000
 20
51.772459
 30
0.0
 10
149.260278
 20
50.905833
 30
0.0
 10
148.901000
 20
50.039209
 30
0.0
 10
148.034375
 20
49.679931
 30
0.0
 10
147.172160
 20
50.039209
 30
0.0
 10
146.817292
 20
50.905833
 30
0.0
 10
147.172160
 20
51.772459
 30
0.0
 10
148.034375
 20
52.131736
 30
0.0
 10
148.034375
 20
52.131736
 30
0.0
  0
LWPOLYLINE
  5
129
100
AcDbEntity
  8
Switch_Mount
 62
7
100
AcDbPolyline
 90
10
 70
0
 10
160.734375
 20
52.131736
 30
0.0
 10
161.601000
 20
51.772459
 30
0.0
 10
161.960278
 20
50.905833
 30
0.0
 10
161.601000
 20
50.039209
 30
0.0
 10
160.734375
 20
49.679931
 30
0.0
 10
159.872160
 20
50.039209
 30
0.0
 10
159.517292
 20
50.905833
 30
0.0
 10
159.872160
 20
51.772459
 30
0.0
 10
160.734375
 20
52.131736
 30
0.0
 10
160.734375
 20
52.131736
 30
0.0
  0
LWPOLYLINE
  5
12a
100
AcDbEntity
  8
Switch_Mount
 62
7
100
AcDbPolyline
 90
10
 70
0
 10
173.434375
 20
52.131736
 30
0.0
 10
174.301000
 20
51.772459
 30
0.0
 10
174.660278
 20
50.905833
 30
0.0
 10
174.301000
 20
50.039209
 30
0.0
 10
173.434375
 20
49.679931
 30
0.0
 10
172.572160
 20
50.039209
 30
0.0
 10
172.217292
 20
50.905833
 30
0.0
 10
172.572160
 20
51.772459
 30
0.0
 10
173.434375
 20
52.131736
 30
0.0
 10
173.434375
 20
52.131736
 30
0.0
  0
LWPOLYLINE
  5
12b
100
AcDbEntity
  8
Switch_Mount
 62
7
100
AcDbPolyline
 90
10
 70
0
 10
186.134375
 20
52.131736
 30
0.0
 10
187.001000
 20
51.772459
 30
0.0
 10
187.360278
 20
50.905833
 30
0.0
 10
187.001000
 20
50.039209
 30
0.0
 10
186.134375
 20
49.679931
 30
0.0
 10
185.272160
 20
50.039209
 30
0.0
 10
184.917292
 20
50.905833
 30
0.0
 10
185.272160
 20
51.772459
 30
0.0
 10
186.134375
 20
52.131736
 30
0.0
 10
186.134375
 20
52.131736
 30
0.0
  0
LWPOLYLINE
  5
12c
100
AcDbEntity
  8
Switch_Mount
 62
7
100
AcDbPolyline
 90
10
 70
0
 10
198.834375
 20
52.131736
 30
0.0
 10
199.701000
 20
51.772459
 30
0.0
 10
200.060278
 20
50.905833
 30
0.0
 10
199.701000
 20
50.039209
 30
0.0
 10
198.834375
 20
49.679931
 30
0.0
 10
197.972160
 20
50.039209
 30
0.0
 10
197.617292
 20
50.905833
 30
0.0
 10
197.972160
 20
51.772459
 30
0.0
 10
198.834375
 20
52.131736
 30
0.0
 10
198.834375
 20
52.131736
 30
0.0
  0
LWPOLYLINE
  5
12d
100
AcDbEntity
  8
Switch_Mount
 62
7
100
AcDbPolyline
 90
10
 70
0
 10
211.534375
 20
52.131736
 30
0.0
 10
212.401000
 20
51.772459
 30
0.0
 10
212.760278
 20
50.905833
 30
0.0
 10
212.401000
 20
50.039209
 30
0.0
 10
211.534375
 20
49.679931
 30
0.0
 10
210.672160
 20
50.039209
 30
0.0
 10
210.317292
 20
50.905833
 30
0.0
 10
210.672160
 20
51.772459
 30
0.0
 10
211.534375
 20
52.131736
 30
0.0
 10
211.534375
 20
52.131736
 30
0.0
  0
LWPOLYLINE
  5
12e
100
AcDbEntity
  8
Switch_Mount
 62
7
100
AcDbPolyline
 90
10
 70
0
 10
224.234375
 20
52.131736
 30
0.0
 10
225.101000
 20
51.772459
 30
0.0
 10
225.460278
 20
50.905833
 30
0.0
 10
225.101000
 20
50.039209
 30
0.0
 10
224.234375
 20
49.679931
 30
0.0
 10
223.372160
 20
50.039209
 30
0.0
 10
223.017292
 20
50.905833
 30
0.0
 10
223.372160
 20
51.772459
 30
0.0
 10
224.234375
 20
52.131736
 30
0.0
 10
224.234375
 20
52.131736
 30
0.0
  0
LWPOLYLINE
  5
12f
100
AcDbEntity
  8
Switch_Mount
 62
7
100
AcDbPolyline
 90
10
 70
0
 10
236.934375
 20
52.131736
 30
0.0
 10
237.801000
 20
51.772459
 30
0.0
 10
238.160278
 20
50.905833
 30
0.0
 10
237.801000
 20
50.039209
 30
0.0
 10
236.934375
 20
49.679931
 30
0.0
 10
236.072160
 20
50.039209
 30
0.0
 10
235.717292
 20
50.905833
 30
0.0
 10
236.072160
 20
51.772459
 30
0.0
 10
236.934375
 20
52.131736
 30
0.0
 10
236.934375
 20
52.131736
 30
0.0
  0
LWPOLYLINE
  5
130
100
AcDbEntity
  8
Switch_Mount
 62
7
100
AcDbPolyline
 90
10
 70
0
 10
249.634375
 20
52.131736
 30
0.0
 10
250.501000
 20
51.772459
 30
0.0
 10
250.860278
 20
50.905833
 30
0.0
 10
250.501000
 20
50.039209
 30
0.0
 10
249.634375
 20
49.679931
 30
0.0
 10
248.772160
 20
50.039209
 30
0.0
 10
248.417292
 20
50.905833
 30
0.0
 10
248.772160
 20
51.772459
 30
0.0
 10
249.634375
 20
52.131736
 30
0.0
 10
249.634375
 20
52.131736
 30
0.0
  0
LWPOLYLINE
  5
131
100
AcDbEntity
  8
Switch_Mount
 62
7
100
AcDbPolyline
 90
10
 70
0
 10
262.334375
 20
52.131736
 30
0.0
 10
263.201000
 20
51.772459
 30
0.0
 10
263.560278
 20
50.905833
 30
0.0
 10
263.201000
 20
50.039209
 30
0.0
 10
262.334375
 20
49.679931
 30
0.0
 10
261.472160
 20
50.039209
 30
0.0
 10
261.117292
 20
50.905833
 30
0.0
 10
261.472160
 20
51.772459
 30
0.0
 10
262.334375
 20
52.131736
 30
0.0
 10
262.334375
 20
52.131736
 30
0.0
  0
LWPOLYLINE
  5
132
100
AcDbEntity
  8
Switch_Mount
 62
7
100
AcDbPolyline
 90
10
 70
0
 10
275.034375
 20
52.131736
 30
0.0
 10
275.901000
 20
51.772459
 30
0.0
 10
276.260278
 20
50.905833
 30
0.0
 10
275.901000
 20
50.039209
 30
0.0
 10
275.034375
 20
49.679931
 30
0.0
 10
274.172160
 20
50.039209
 30
0.0
 10
273.817292
 20
50.905833
 30
0.0
 10
274.172160
 20
51.772459
 30
0.0
 10
275.034375
 20
52.131736
 30
0.0
 10
275.034375
 20
52.131736
 30
0.0
  0
LWPOLYLINE
  5
133
100
AcDbEntity
  8
Switch_Mount
 62
7
100
AcDbPolyline
 90
10
 70
0
 10
287.734361
 20
52.131736
 30
0.0
 10
288.600991
 20
51.772459
 30
0.0
 10
288.960278
 20
50.905833
 30
0.0
 10
288.601002
 20
50.039209
 30
0.0
 10
287.734361
 20
49.679931
 30
0.0
 10
286.872151
 20
50.039209
 30
0.0
 10
286.517306
 20
50.905833
 30
0.0
 10
286.872151
 20
51.772459
 30
0.0
 10
287.734361
 20
52.131736
 30
0.0
 10
287.734361
 20
52.131736
 30
0.0
  0
LWPOLYLINE
  5
134
100
AcDbEntity
  8
Switch_Mount
 62
7
100
AcDbPolyline
 90
10
 70
0
 10
300.434361
 20
52.131736
 30
0.0
 10
301.301002
 20
51.772459
 30
0.0
 10
301.660278
 20
50.905833
 30
0.0
 10
301.301002
 20
50.039209
 30
0.0
 10
300.434361
 20
49.679931
 30
0.0
 10
299.572140
 20
50.039209
 30
0.0
 10
299.217306
 20
50.905833
 30
0.0
 10
299.572172
 20
51.772459
 30
0.0
 10
300.434361
 20
52.131736
 30
0.0
 10
300.434361
 20
52.131736
 30
0.0
  0
LWPOLYLINE
  5
135
100
AcDbEntity
  8
Switch_Mount
 62
7
100
AcDbPolyline
 90
10
 70
0
 10
313.134361
 20
52.131736
 30
0.0
 10
314.001002
 20
51.772459
 30
0.0
 10
314.360278
 20
50.905833
 30
0.0
 10
314.001002
 20
50.039209
 30
0.0
 10
313.134361
 20
49.679931
 30
0.0
 10
312.272140
 20
50.039209
 30
0.0
 10
311.917306
 20
50.905833
 30
0.0
 10
312.272172
 20
51.772459
 30
0.0
 10
313.134361
 20
52.131736
 30
0.0
 10
313.134361
 20
52.131736
 30
0.0
  0
LWPOLYLINE
  5
136
100
AcDbEntity
  8
Switch_Mount
 62
7
100
AcDbPolyline
 90
10
 70
0
 10
325.834361
 20
52.131736
 30
0.0
 10
326.701002
 20
51.772459
 30
0.0
 10
327.060278
 20
50.905833
 30
0.0
 10
326.701002
 20
50.039209
 30
0.0
 10
325.834361
 20
49.679931
 30
0.0
 10
324.972140
 20
50.039209
 30
0.0
 10
324.617306
 20
50.905833
 30
0.0
 10
324.972172
 20
51.772459
 30
0.0
 10
325.834361
 20
52.131736
 30
0.0
 10
325.834361
 20
52.131736
 30
0.0
  0
LWPOLYLINE
  5
137
100
AcDbEntity
  8
Switch_Mount
 62
7
100
AcDbPolyline
 90
10
 70
0
 10
338.534361
 20
52.131736
 30
0.0
 10
339.401002
 20
51.772459
 30
0.0
 10
339.760278
 20
50.905833
 30
0.0
 10
339.401002
 20
50.039209
 30
0.0
 10
338.534361
 20
49.679931
 30
0.0
 10
337.672183
 20
50.039209
 30
0.0
 10
337.317306
 20
50.905833
 30
0.0
 10
337.672183
 20
51.772459
 30
0.0
 10
338.534361
 20
52.131736
 30
0.0
 10
338.534361
 20
52.131736
 30
0.0
  0
LWPOLYLINE
  5
138
100
AcDbEntity
  8
Switch_Mount
 62
7
100
AcDbPolyline
 90
10
 70
0
 10
363.934361
 20
52.131736
 30
0.0
 10
364.801012
 20
51.772459
 30
0.0
 10
365.160278
 20
50.905833
 30
0.0
 10
364.801012
 20
50.039209
 30
0.0
 10
363.934361
 20
49.679931
 30
0.0
 10
363.072183
 20
50.039209
 30
0.0
 10
362.717306
 20
50.905833
 30
0.0
 10
363.072183
 20
51.772459
 30
0.0
 10
363.934361
 20
52.131736
 30
0.0
 10
363.934361
 20
52.131736
 30
0.0
  0
LWPOLYLINE
  5
139
100
AcDbEntity
  8
Switch_Mount
 62
7
100
AcDbPolyline
 90
10
 70
0
 10
376.634361
 20
52.131736
 30
0.0
 10
377.501012
 20
51.772459
 30
0.0
 10
377.860278
 20
50.905833
 30
0.0
 10
377.501012
 20
50.039209
 30
0.0
 10
376.634361
 20
49.679931
 30
0.0
 10
375.772183
 20
50.039209
 30
0.0
 10
375.417306
 20
50.905833
 30
0.0
 10
375.772172
 20
51.772459
 30
0.0
 10
376.634361
 20
52.131736
 30
0.0
 10
376.634361
 20
52.131736
 30
0.0
  0
LWPOLYLINE
  5
13a
100
AcDbEntity
  8
Switch_Mount
 62
7
100
AcDbPolyline
 90
10
 70
0
 10
389.334361
 20
52.131736
 30
0.0
 10
390.201002
 20
51.772459
 30
0.0
 10
390.560278
 20
50.905833
 30
0.0
 10
390.201012
 20
50.039209
 30
0.0
 10
389.334361
 20
49.679931
 30
0.0
 10
388.472151
 20
50.039209
 30
0.0
 10
388.117306
 20
50.905833
 30
0.0
 10
388.472183
 20
51.772459
 30
0.0
 10
389.334361
 20
52.131736
 30
0.0
 10
389.334361
 20
52.131736
 30
0.0
  0
LWPOLYLINE
  5
13b
100
AcDbEntity
  8
Switch_Mount
 62
7
100
AcDbPolyline
 90
10
 70
0
 10
402.034361
 20
52.131736
 30
0.0
 10
402.900991
 20
51.772459
 30
0.0
 10
403.260278
 20
50.905833
 30
0.0
 10
402.901002
 20
50.039209
 30
0.0
 10
402.034361
 20
49.679931
 30
0.0
 10
401.172140
 20
50.039209
 30
0.0
 10
400.817306
 20
50.905833
 30
0.0
 10
401.172172
 20
51.772459
 30
0.0
 10
402.034361
 20
52.131736
 30
0.0
 10
402.034361
 20
52.131736
 30
0.0
  0
LWPOLYLINE
  5
13c
100
AcDbEntity
  8
Switch_Mount
 62
7
100
AcDbPolyline
 90
10
 70
0
 10
414.734361
 20
52.131736
 30
0.0
 10
415.600991
 20
51.772459
 30
0.0
 10
415.960278
 20
50.905833
 30
0.0
 10
415.601002
 20
50.039209
 30
0.0
 10
414.734361
 20
49.679931
 30
0.0
 10
413.872140
 20
50.039209
 30
0.0
 10
413.517306
 20
50.905833
 30
0.0
 10
413.872172
 20
51.772459
 30
0.0
 10
414.734361
 20
52.131736
 30
0.0
 10
414.734361
 20
52.131736
 30
0.0
  0
LWPOLYLINE
  5
13d
100
AcDbEntity
  8
Switch_Mount
 62
7
100
AcDbPolyline
 90
10
 70
0
 10
427.434361
 20
52.131736
 30
0.0
 10
428.300991
 20
51.772459
 30
0.0
 10
428.660278
 20
50.905833
 30
0.0
 10
428.301002
 20
50.039209
 30
0.0
 10
427.434361
 20
49.679931
 30
0.0
 10
426.572140
 20
50.039209
 30
0.0
 10
426.217306
 20
50.905833
 30
0.0
 10
426.572172
 20
51.772459
 30
0.0
 10
427.434361
 20
52.131736
 30
0.0
 10
427.434361
 20
52.131736
 30
0.0
  0
LWPOLYLINE
  5
13e
100
AcDbEntity
  8
Switch_Mount
 62
7
100
AcDbPolyline
 90
10
 70
0
 10
440.134361
 20
52.131736
 30
0.0
 10
441.000991
 20
51.772459
 30
0.0
 10
441.360278
 20
50.905833
 30
0.0
 10
441.001002
 20
50.039209
 30
0.0
 10
440.134361
 20
49.679931
 30
0.0
 10
439.272140
 20
50.039209
 30
0.0
 10
438.917306
 20
50.905833
 30
0.0
 10
439.272172
 20
51.772459
 30
0.0
 10
440.134361
 20
52.131736
 30
0.0
 10
440.134361
 20
52.131736
 30
0.0
  0
LWPOLYLINE
  5
13f
100
AcDbEntity
  8
Switch_Mount
 62
7
100
AcDbPolyline
 90
10
 70
0
 10
452.834361
 20
52.131736
 30
0.0
 10
453.700991
 20
51.772459
 30
0.0
 10
454.060278
 20
50.905833
 30
0.0
 10
453.701002
 20
50.039209
 30
0.0
 10
452.834361
 20
49.679931
 30
0.0
 10
451.972151
 20
50.039209
 30
0.0
 10
451.617306
 20
50.905833
 30
0.0
 10
451.972183
 20
51.772459
 30
0.0
 10
452.834361
 20
52.131736
 30
0.0
 10
452.834361
 20
52.131736
 30
0.0
  0
LWPOLYLINE
  5
140
100
AcDbEntity
  8
Switch_Mount
 62
1
100
AcDbPolyline
 90
26
 70
0
 10
47.663220
 20
74.709239
 30
0.0
 10
47.638335
 20
74.462390
 30
0.0
 10
47.566965
 20
74.232474
 30
0.0
 10
47.304471
 20
73.843143
 30
0.0
 10
46.915140
 20
73.580649
 30
0.0
 10
46.685224
 20
73.509279
 30
0.0
 10
46.438375
 20
73.484394
 30
0.0
 10
46.191526
 20
73.509279
 30
0.0
 10
45.961611
 20
73.580649
 30
0.0
 10
45.572280
 20
73.843143
 30
0.0
 10
45.309785
 20
74.232474
 30
0.0
 10
45.238415
 20
74.462390
 30
0.0
 10
45.213531
 20
74.709239
 30
0.0
 10
45.238415
 20
74.956088
 30
0.0
 10
45.309785
 20
75.186004
 30
0.0
 10
45.572280
 20
75.575335
 30
0.0
 10
45.961611
 20
75.837829
 30
0.0
 10
46.191526
 20
75.909199
 30
0.0
 10
46.438375
 20
75.934083
 30
0.0
 10
46.685224
 20
75.909199
 30
0.0
 10
46.915140
 20
75.837829
 30
0.0
 10
47.304471
 20
75.575335
 30
0.0
 10
47.566965
 20
75.186004
 30
0.0
 10
47.638335
 20
74.956088
 30
0.0
 10
47.663220
 20
74.709239
 30
0.0
 10
47.663220
 20
74.709239
 30
0.0
  0
LWPOLYLINE
  5
141
100
AcDbEntity
  8
Switch_Mount
 62
1
100
AcDbPolyline
 90
10
 70
0
 10
73.063227
 20
50.903872
 30
0.0
 10
72.704479
 20
50.037777
 30
0.0
 10
71.838383
 20
49.679027
 30
0.0
 10
70.972287
 20
50.037777
 30
0.0
 10
70.613538
 20
50.903872
 30
0.0
 10
70.972287
 20
51.769968
 30
0.0
 10
71.838383
 20
52.128716
 30
0.0
 10
72.704479
 20
51.769968
 30
0.0
 10
73.063227
 20
50.903872
 30
0.0
 10
73.063227
 20
50.903872
 30
0.0
  0
ENDSEC
  0
SECTION
  2
OBJECTS
  0
DICTIONARY
  5
C
330
0
100
AcDbDictionary
  3
ACAD_GROUP
350
D
  3
ACAD_MLINESTYLE
350
17
  0
DICTIONARY
  5
D
330
C
100
AcDbDictionary
  0
DICTIONARY
  5
1A
330
C
100
AcDbDictionary
  0
DICTIONARY
  5
17
330
C
100
AcDbDictionary
  3
STANDARD
350
18
  0
DICTIONARY
  5
19
330
C
100
AcDbDictionary
  0
ENDSEC
  0
EOF
