  0
SECTION
  2
HEADER
  9
$ACADVER
  1
AC1014
  9
$HANDSEED
  5
FFFF
  9
$MEASUREMENT
 70
     1
  0
ENDSEC
  0
SECTION
  2
TABLES
  0
TABLE
  2
VPORT
  5
8
330
0
100
AcDbSymbolTable
 70
     4
  0
VPORT
  5
2E
330
8
100
AcDbSymbolTableRecord
100
AcDbViewportTableRecord
  2
*ACTIVE
 70
     0
 10
0.0
 20
0.0
 11
1.0
 21
1.0
 12
210.0
 22
148.5
 13
0.0
 23
0.0
 14
10.0
 24
10.0
 15
10.0
 25
10.0
 16
0.0
 26
0.0
 36
1.0
 17
0.0
 27
0.0
 37
0.0
 40
341.0
 41
1.24
 42
50.0
 43
0.0
 44
0.0
 50
0.0
 51
0.0
 71
     0
 72
   100
 73
     1
 74
     3
 75
     0
 76
     0
 77
     0
 78
     0
  0
ENDTAB
  0
TABLE
  2
LTYPE
  5
5
330
0
100
AcDbSymbolTable
 70
     1
  0
LTYPE
  5
14
330
5
100
AcDbSymbolTableRecord
100
AcDbLinetypeTableRecord
  2
BYBLOCK
 70
     0
  3

 72
    65
 73
     0
 40
0.0
  0
LTYPE
  5
15
330
5
100
AcDbSymbolTableRecord
100
AcDbLinetypeTableRecord
  2
BYLAYER
 70
     0
  3

 72
    65
 73
     0
 40
0.0
  0
LTYPE
  5
16
330
5
100
AcDbSymbolTableRecord
100
AcDbLinetypeTableRecord
  2
CONTINUOUS
 70
     0
  3
Solid line
 72
    65
 73
     0
 40
0.0
  0
ENDTAB
  0
TABLE
  2
LAYER
  5
2
100
AcDbSymbolTable
 70
2
  0
LAYER
  5
50
100
AcDbSymbolTableRecord
100
AcDbLayerTableRecord
  2
0
 70
0
  6
CONTINUOUS
  0
LAYER
  5
51
100
AcDbSymbolTableRecord
100
AcDbLayerTableRecord
  2
LED_Mount
 70
0
  6
CONTINUOUS
  0
ENDTAB
  0
TABLE
  2
STYLE
  5
3
330
0
100
AcDbSymbolTable
 70
     1
  0
STYLE
  5
11
330
3
100
AcDbSymbolTableRecord
100
AcDbTextStyleTableRecord
  2
STANDARD
 70
     0
 40
0.0
 41
1.0
 50
0.0
 71
     0
 42
2.5
  3
txt
  4

  0
ENDTAB
  0
TABLE
  2
VIEW
  5
6
330
0
100
AcDbSymbolTable
 70
     0
  0
ENDTAB
  0
TABLE
  2
UCS
  5
7
330
0
100
AcDbSymbolTable
 70
     0
  0
ENDTAB
  0
TABLE
  2
APPID
  5
9
330
0
100
AcDbSymbolTable
 70
     2
  0
APPID
  5
12
330
9
100
AcDbSymbolTableRecord
100
AcDbRegAppTableRecord
  2
ACAD
 70
     0
  0
ENDTAB
  0
TABLE
  2
DIMSTYLE
  5
A
330
0
100
AcDbSymbolTable
 70
     1
  0
DIMSTYLE
105
27
330
A
100
AcDbSymbolTableRecord
100
AcDbDimStyleTableRecord
  2
ISO-25
 70
     0
  3

  4

  5

  6

  7

 40
1.0
 41
2.5
 42
0.625
 43
3.75
 44
1.25
 45
0.0
 46
0.0
 47
0.0
 48
0.0
140
2.5
141
2.5
142
0.0
143
0.03937007874016
144
1.0
145
0.0
146
1.0
147
0.625
 71
     0
 72
     0
 73
     0
 74
     0
 75
     0
 76
     0
 77
     1
 78
     8
170
     0
171
     3
172
     1
173
     0
174
     0
175
     0
176
     0
177
     0
178
     0
270
     2
271
     2
272
     2
273
     2
274
     3
340
11
275
     0
280
     0
281
     0
282
     0
283
     0
284
     8
285
     0
286
     0
287
     3
288
     0
  0
ENDTAB
  0
TABLE
  2
BLOCK_RECORD
  5
1
330
0
100
AcDbSymbolTable
 70
     1
  0
BLOCK_RECORD
  5
1F
330
1
100
AcDbSymbolTableRecord
100
AcDbBlockTableRecord
  2
*MODEL_SPACE
  0
BLOCK_RECORD
  5
1B
330
1
100
AcDbSymbolTableRecord
100
AcDbBlockTableRecord
  2
*PAPER_SPACE
  0
ENDTAB
  0
ENDSEC
  0
SECTION
  2
BLOCKS
  0
BLOCK
  5
20
330
1F
100
AcDbEntity
  8
0
100
AcDbBlockBegin
  2
*MODEL_SPACE
 70
     0
 10
0.0
 20
0.0
 30
0.0
  3
*MODEL_SPACE
  1

  0
ENDBLK
  5
21
330
1F
100
AcDbEntity
  8
0
100
AcDbBlockEnd
  0
BLOCK
  5
1C
330
1B
100
AcDbEntity
 67
     1
  8
0
100
AcDbBlockBegin
  2
*PAPER_SPACE
  1

  0
ENDBLK
  5
1D
330
1B
100
AcDbEntity
 67
     1
  8
0
100
AcDbBlockEnd
  0
ENDSEC
  0
SECTION
  2
ENTITIES
  0
LWPOLYLINE
  5
100
100
AcDbEntity
  8
LED_Mount
 62
1
100
AcDbPolyline
 90
106
 70
0
 10
6.032500
 20
235.038194
 30
0.0
 10
3.693122
 20
234.568566
 30
0.0
 10
1.787389
 20
233.286083
 30
0.0
 10
0.504906
 20
231.380350
 30
0.0
 10
0.035278
 20
229.040972
 30
0.0
 10
0.035278
 20
203.640972
 30
0.0
 10
0.574604
 20
201.510686
 30
0.0
 10
1.973248
 20
199.581721
 30
0.0
 10
3.902214
 20
198.183076
 30
0.0
 10
6.032500
 20
197.643750
 30
0.0
 10
11.782778
 20
197.643750
 30
0.0
 10
12.848266
 20
197.372824
 30
0.0
 10
13.812710
 20
196.670662
 30
0.0
 10
14.511841
 20
195.703186
 30
0.0
 10
14.781389
 20
194.636319
 30
0.0
 10
14.781389
 20
120.711736
 30
0.0
 10
14.511548
 20
119.647126
 30
0.0
 10
13.811930
 20
118.682584
 30
0.0
 10
12.847388
 20
117.982966
 30
0.0
 10
11.782778
 20
117.713125
 30
0.0
 10
6.032500
 20
117.713125
 30
0.0
 10
3.902231
 20
117.173793
 30
0.0
 10
1.973264
 20
115.775139
 30
0.0
 10
0.574610
 20
113.846171
 30
0.0
 10
0.035278
 20
111.715903
 30
0.0
 10
0.035278
 20
67.301181
 30
0.0
 10
15.592778
 20
67.301181
 30
0.0
 10
15.592778
 20
74.268542
 30
0.0
 10
15.827592
 20
75.438230
 30
0.0
 10
16.468833
 20
76.391097
 30
0.0
 10
17.421700
 20
77.032338
 30
0.0
 10
18.591389
 20
77.267153
 30
0.0
 10
22.524861
 20
77.267153
 30
0.0
 10
23.694550
 20
77.032338
 30
0.0
 10
24.647417
 20
76.391097
 30
0.0
 10
25.288658
 20
75.438230
 30
0.0
 10
25.523472
 20
74.268542
 30
0.0
 10
25.523472
 20
50.341389
 30
0.0
 10
25.288658
 20
49.171699
 30
0.0
 10
24.647417
 20
48.218833
 30
0.0
 10
23.694550
 20
47.577592
 30
0.0
 10
22.524861
 20
47.342778
 30
0.0
 10
18.591389
 20
47.342778
 30
0.0
 10
17.421700
 20
47.577592
 30
0.0
 10
16.468833
 20
48.218833
 30
0.0
 10
15.827592
 20
49.171699
 30
0.0
 10
15.592778
 20
50.341389
 30
0.0
 10
15.592778
 20
57.379306
 30
0.0
 10
0.035278
 20
57.379306
 30
0.0
 10
0.035278
 20
21.034375
 30
0.0
 10
0.504906
 20
18.694997
 30
0.0
 10
1.787389
 20
16.789264
 30
0.0
 10
3.693122
 20
15.506781
 30
0.0
 10
6.032500
 20
15.037153
 30
0.0
 10
41.469028
 20
15.037153
 30
0.0
 10
43.348726
 20
15.608106
 30
0.0
 10
44.945652
 20
17.059456
 30
0.0
 10
46.054422
 20
18.998960
 30
0.0
 10
46.469653
 20
21.034375
 30
0.0
 10
46.469653
 20
28.874861
 30
0.0
 10
47.010363
 20
31.005129
 30
0.0
 10
48.412049
 20
32.934095
 30
0.0
 10
50.344048
 20
34.332749
 30
0.0
 10
52.475694
 20
34.872083
 30
0.0
 10
116.637153
 20
34.872083
 30
0.0
 10
118.767465
 20
34.332765
 30
0.0
 10
120.696433
 20
32.934133
 30
0.0
 10
122.095066
 20
31.005170
 30
0.0
 10
122.634375
 20
28.874861
 30
0.0
 10
122.634375
 20
21.034375
 30
0.0
 10
123.173686
 20
18.904043
 30
0.0
 10
124.572305
 20
16.975083
 30
0.0
 10
126.501265
 20
15.576463
 30
0.0
 10
128.631597
 20
15.037153
 30
0.0
 10
494.038805
 20
15.037153
 30
0.0
 10
496.378201
 20
15.506781
 30
0.0
 10
498.283932
 20
16.789264
 30
0.0
 10
499.566405
 20
18.694997
 30
0.0
 10
500.036028
 20
21.034375
 30
0.0
 10
500.036028
 20
111.724722
 30
0.0
 10
499.496777
 20
113.855147
 30
0.0
 10
498.098258
 20
115.784097
 30
0.0
 10
496.169318
 20
117.182665
 30
0.0
 10
494.038805
 20
117.721944
 30
0.0
 10
486.039583
 20
117.721944
 30
0.0
 10
483.698819
 20
118.191625
 30
0.0
 10
481.790050
 20
119.474193
 30
0.0
 10
480.504534
 20
121.379943
 30
0.0
 10
480.033528
 20
123.719167
 30
0.0
 10
480.033528
 20
191.637708
 30
0.0
 10
480.504534
 20
193.976932
 30
0.0
 10
481.790050
 20
195.882682
 30
0.0
 10
483.698819
 20
197.165250
 30
0.0
 10
486.039583
 20
197.634931
 30
0.0
 10
494.038805
 20
197.634931
 30
0.0
 10
496.169370
 20
198.174237
 30
0.0
 10
498.098417
 20
199.572850
 30
0.0
 10
499.496964
 20
201.501809
 30
0.0
 10
500.036028
 20
203.632153
 30
0.0
 10
500.036028
 20
229.040972
 30
0.0
 10
499.566445
 20
231.380350
 30
0.0
 10
498.284038
 20
233.286083
 30
0.0
 10
496.378320
 20
234.568566
 30
0.0
 10
494.038805
 20
235.038194
 30
0.0
 10
6.032500
 20
235.038194
 30
0.0
 10
6.032500
 20
235.038194
 30
0.0
  0
LWPOLYLINE
  5
101
100
AcDbEntity
  8
LED_Mount
 62
1
100
AcDbPolyline
 90
10
 70
0
 10
24.632708
 20
229.199722
 30
0.0
 10
25.835866
 20
228.700709
 30
0.0
 10
26.334861
 20
227.497569
 30
0.0
 10
25.835866
 20
226.298839
 30
0.0
 10
24.632708
 20
225.804236
 30
0.0
 10
23.433960
 20
226.298839
 30
0.0
 10
22.939375
 20
227.497569
 30
0.0
 10
23.433960
 20
228.700709
 30
0.0
 10
24.632708
 20
229.199722
 30
0.0
 10
24.632708
 20
229.199722
 30
0.0
  0
LWPOLYLINE
  5
102
100
AcDbEntity
  8
LED_Mount
 62
1
100
AcDbPolyline
 90
10
 70
0
 10
137.133542
 20
229.199722
 30
0.0
 10
138.336699
 20
228.700709
 30
0.0
 10
138.835694
 20
227.497569
 30
0.0
 10
138.336699
 20
226.298839
 30
0.0
 10
137.133542
 20
225.804236
 30
0.0
 10
135.934793
 20
226.298839
 30
0.0
 10
135.440208
 20
227.497569
 30
0.0
 10
135.934793
 20
228.700709
 30
0.0
 10
137.133542
 20
229.199722
 30
0.0
 10
137.133542
 20
229.199722
 30
0.0
  0
LWPOLYLINE
  5
103
100
AcDbEntity
  8
LED_Mount
 62
1
100
AcDbPolyline
 90
10
 70
0
 10
249.634375
 20
229.199722
 30
0.0
 10
250.837532
 20
228.700709
 30
0.0
 10
251.336528
 20
227.497569
 30
0.0
 10
250.837532
 20
226.298839
 30
0.0
 10
249.634375
 20
225.804236
 30
0.0
 10
248.431217
 20
226.298839
 30
0.0
 10
247.932222
 20
227.497569
 30
0.0
 10
248.431217
 20
228.700709
 30
0.0
 10
249.634375
 20
229.199722
 30
0.0
 10
249.634375
 20
229.199722
 30
0.0
  0
LWPOLYLINE
  5
104
100
AcDbEntity
  8
LED_Mount
 62
1
100
AcDbPolyline
 90
10
 70
0
 10
362.135194
 20
229.199722
 30
0.0
 10
363.338385
 20
228.700709
 30
0.0
 10
363.837361
 20
227.497569
 30
0.0
 10
363.338385
 20
226.298839
 30
0.0
 10
362.135194
 20
225.804236
 30
0.0
 10
360.932113
 20
226.298839
 30
0.0
 10
360.433056
 20
227.497569
 30
0.0
 10
360.932049
 20
228.700709
 30
0.0
 10
362.135194
 20
229.199722
 30
0.0
 10
362.135194
 20
229.199722
 30
0.0
  0
LWPOLYLINE
  5
105
100
AcDbEntity
  8
LED_Mount
 62
1
100
AcDbPolyline
 90
10
 70
0
 10
474.636028
 20
229.199722
 30
0.0
 10
475.839218
 20
228.700709
 30
0.0
 10
476.338194
 20
227.497569
 30
0.0
 10
475.839208
 20
226.298839
 30
0.0
 10
474.636028
 20
225.804236
 30
0.0
 10
473.432935
 20
226.298839
 30
0.0
 10
472.933889
 20
227.497569
 30
0.0
 10
473.432882
 20
228.700709
 30
0.0
 10
474.636028
 20
229.199722
 30
0.0
 10
474.636028
 20
229.199722
 30
0.0
  0
LWPOLYLINE
  5
106
100
AcDbEntity
  8
LED_Mount
 62
1
100
AcDbPolyline
 90
10
 70
0
 10
61.109931
 20
222.276458
 30
0.0
 10
70.035208
 20
222.276458
 30
0.0
 10
70.537917
 20
221.773750
 30
0.0
 10
70.537917
 20
219.851111
 30
0.0
 10
70.035208
 20
219.348403
 30
0.0
 10
61.109931
 20
219.348403
 30
0.0
 10
60.607222
 20
219.851111
 30
0.0
 10
60.607222
 20
221.773750
 30
0.0
 10
61.109931
 20
222.276458
 30
0.0
 10
61.109931
 20
222.276458
 30
0.0
  0
LWPOLYLINE
  5
107
100
AcDbEntity
  8
LED_Mount
 62
1
100
AcDbPolyline
 90
10
 70
0
 10
429.877361
 20
222.276458
 30
0.0
 10
438.802639
 20
222.276458
 30
0.0
 10
439.305361
 20
221.773750
 30
0.0
 10
439.305361
 20
219.851111
 30
0.0
 10
438.802639
 20
219.348403
 30
0.0
 10
429.877361
 20
219.348403
 30
0.0
 10
429.383472
 20
219.851111
 30
0.0
 10
429.383472
 20
221.773750
 30
0.0
 10
429.877361
 20
222.276458
 30
0.0
 10
429.877361
 20
222.276458
 30
0.0
  0
LWPOLYLINE
  5
108
100
AcDbEntity
  8
LED_Mount
 62
1
100
AcDbPolyline
 90
22
 70
0
 10
112.985903
 20
214.277222
 30
0.0
 10
119.635764
 20
214.277222
 30
0.0
 10
120.805454
 20
214.041030
 30
0.0
 10
121.758320
 20
213.396757
 30
0.0
 10
122.399561
 20
212.440859
 30
0.0
 10
122.634375
 20
211.269792
 30
0.0
 10
122.634375
 20
104.369306
 30
0.0
 10
122.399561
 20
103.199617
 30
0.0
 10
121.758320
 20
102.246751
 30
0.0
 10
120.805454
 20
101.605509
 30
0.0
 10
119.635764
 20
101.370694
 30
0.0
 10
112.985903
 20
101.370694
 30
0.0
 10
111.816213
 20
101.605509
 30
0.0
 10
110.863347
 20
102.246751
 30
0.0
 10
110.222106
 20
103.199617
 30
0.0
 10
109.987292
 20
104.369306
 30
0.0
 10
109.987292
 20
211.269792
 30
0.0
 10
110.222106
 20
212.440859
 30
0.0
 10
110.863347
 20
213.396757
 30
0.0
 10
111.816213
 20
214.041030
 30
0.0
 10
112.985903
 20
214.277222
 30
0.0
 10
112.985903
 20
214.277222
 30
0.0
  0
LWPOLYLINE
  5
109
100
AcDbEntity
  8
LED_Mount
 62
1
100
AcDbPolyline
 90
22
 70
0
 10
163.715347
 20
214.277222
 30
0.0
 10
170.365208
 20
214.277222
 30
0.0
 10
171.534898
 20
214.041030
 30
0.0
 10
172.487764
 20
213.396757
 30
0.0
 10
173.129005
 20
212.440859
 30
0.0
 10
173.363819
 20
211.269792
 30
0.0
 10
173.363819
 20
104.369306
 30
0.0
 10
173.129005
 20
103.199617
 30
0.0
 10
172.487764
 20
102.246751
 30
0.0
 10
171.534898
 20
101.605509
 30
0.0
 10
170.365208
 20
101.370694
 30
0.0
 10
163.715347
 20
101.370694
 30
0.0
 10
162.545658
 20
101.605509
 30
0.0
 10
161.592791
 20
102.246751
 30
0.0
 10
160.951550
 20
103.199617
 30
0.0
 10
160.716736
 20
104.369306
 30
0.0
 10
160.716736
 20
211.269792
 30
0.0
 10
160.951550
 20
212.440859
 30
0.0
 10
161.592791
 20
213.396757
 30
0.0
 10
162.545658
 20
214.041030
 30
0.0
 10
163.715347
 20
214.277222
 30
0.0
 10
163.715347
 20
214.277222
 30
0.0
  0
LWPOLYLINE
  5
10a
100
AcDbEntity
  8
LED_Mount
 62
1
100
AcDbPolyline
 90
22
 70
0
 10
214.515347
 20
214.277222
 30
0.0
 10
221.156389
 20
214.277222
 30
0.0
 10
222.327457
 20
214.041030
 30
0.0
 10
223.283355
 20
213.396757
 30
0.0
 10
223.927627
 20
212.440859
 30
0.0
 10
224.163819
 20
211.269792
 30
0.0
 10
224.163819
 20
104.369306
 30
0.0
 10
223.927627
 20
103.199617
 30
0.0
 10
223.283355
 20
102.246751
 30
0.0
 10
222.327457
 20
101.605509
 30
0.0
 10
221.156389
 20
101.370694
 30
0.0
 10
214.515347
 20
101.370694
 30
0.0
 10
213.344280
 20
101.605509
 30
0.0
 10
212.388382
 20
102.246751
 30
0.0
 10
211.744109
 20
103.199617
 30
0.0
 10
211.507917
 20
104.369306
 30
0.0
 10
211.507917
 20
211.269792
 30
0.0
 10
211.744109
 20
212.440859
 30
0.0
 10
212.388382
 20
213.396757
 30
0.0
 10
213.344280
 20
214.041030
 30
0.0
 10
214.515347
 20
214.277222
 30
0.0
 10
214.515347
 20
214.277222
 30
0.0
  0
LWPOLYLINE
  5
10b
100
AcDbEntity
  8
LED_Mount
 62
1
100
AcDbPolyline
 90
22
 70
0
 10
265.306528
 20
214.277222
 30
0.0
 10
271.956389
 20
214.277222
 30
0.0
 10
273.126079
 20
214.041030
 30
0.0
 10
274.078945
 20
213.396757
 30
0.0
 10
274.720186
 20
212.440859
 30
0.0
 10
274.955000
 20
211.269792
 30
0.0
 10
274.955000
 20
104.369306
 30
0.0
 10
274.720186
 20
103.199617
 30
0.0
 10
274.078945
 20
102.246751
 30
0.0
 10
273.126079
 20
101.605509
 30
0.0
 10
271.956389
 20
101.370694
 30
0.0
 10
265.306528
 20
101.370694
 30
0.0
 10
264.136838
 20
101.605509
 30
0.0
 10
263.183972
 20
102.246751
 30
0.0
 10
262.542731
 20
103.199617
 30
0.0
 10
262.307917
 20
104.369306
 30
0.0
 10
262.307917
 20
211.269792
 30
0.0
 10
262.542731
 20
212.440859
 30
0.0
 10
263.183972
 20
213.396757
 30
0.0
 10
264.136838
 20
214.041030
 30
0.0
 10
265.306528
 20
214.277222
 30
0.0
 10
265.306528
 20
214.277222
 30
0.0
  0
LWPOLYLINE
  5
10c
100
AcDbEntity
  8
LED_Mount
 62
1
100
AcDbPolyline
 90
22
 70
0
 10
316.124167
 20
214.277222
 30
0.0
 10
322.774028
 20
214.277222
 30
0.0
 10
323.943720
 20
214.041030
 30
0.0
 10
324.896586
 20
213.396757
 30
0.0
 10
325.537826
 20
212.440859
 30
0.0
 10
325.772639
 20
211.269792
 30
0.0
 10
325.772639
 20
104.369306
 30
0.0
 10
325.537826
 20
103.199617
 30
0.0
 10
324.896586
 20
102.246751
 30
0.0
 10
323.943720
 20
101.605509
 30
0.0
 10
322.774028
 20
101.370694
 30
0.0
 10
316.124167
 20
101.370694
 30
0.0
 10
314.954475
 20
101.605509
 30
0.0
 10
314.001609
 20
102.246751
 30
0.0
 10
313.360369
 20
103.199617
 30
0.0
 10
313.125556
 20
104.369306
 30
0.0
 10
313.125556
 20
211.269792
 30
0.0
 10
313.360369
 20
212.440859
 30
0.0
 10
314.001609
 20
213.396757
 30
0.0
 10
314.954475
 20
214.041030
 30
0.0
 10
316.124167
 20
214.277222
 30
0.0
 10
316.124167
 20
214.277222
 30
0.0
  0
LWPOLYLINE
  5
10d
100
AcDbEntity
  8
LED_Mount
 62
1
100
AcDbPolyline
 90
22
 70
0
 10
379.624167
 20
214.277222
 30
0.0
 10
386.274028
 20
214.277222
 30
0.0
 10
387.443720
 20
214.041030
 30
0.0
 10
388.396586
 20
213.396757
 30
0.0
 10
389.037826
 20
212.440859
 30
0.0
 10
389.272639
 20
211.269792
 30
0.0
 10
389.272639
 20
104.369306
 30
0.0
 10
389.037826
 20
103.199617
 30
0.0
 10
388.396586
 20
102.246751
 30
0.0
 10
387.443720
 20
101.605509
 30
0.0
 10
386.274028
 20
101.370694
 30
0.0
 10
379.624167
 20
101.370694
 30
0.0
 10
378.454475
 20
101.605509
 30
0.0
 10
377.501609
 20
102.246751
 30
0.0
 10
376.860369
 20
103.199617
 30
0.0
 10
376.625556
 20
104.369306
 30
0.0
 10
376.625556
 20
211.269792
 30
0.0
 10
376.860369
 20
212.440859
 30
0.0
 10
377.501609
 20
213.396757
 30
0.0
 10
378.454475
 20
214.041030
 30
0.0
 10
379.624167
 20
214.277222
 30
0.0
 10
379.624167
 20
214.277222
 30
0.0
  0
LWPOLYLINE
  5
10e
100
AcDbEntity
  8
LED_Mount
 62
1
100
AcDbPolyline
 90
22
 70
0
 10
430.362416
 20
214.277222
 30
0.0
 10
437.012306
 20
214.277222
 30
0.0
 10
438.181295
 20
214.041030
 30
0.0
 10
439.133985
 20
213.396757
 30
0.0
 10
439.775488
 20
212.440859
 30
0.0
 10
440.010917
 20
211.269792
 30
0.0
 10
440.010917
 20
104.369306
 30
0.0
 10
439.776056
 20
103.199617
 30
0.0
 10
439.134737
 20
102.246751
 30
0.0
 10
438.181855
 20
101.605509
 30
0.0
 10
437.012306
 20
101.370694
 30
0.0
 10
430.362416
 20
101.370694
 30
0.0
 10
429.193427
 20
101.605509
 30
0.0
 10
428.240737
 20
102.246751
 30
0.0
 10
427.599234
 20
103.199617
 30
0.0
 10
427.363805
 20
104.369306
 30
0.0
 10
427.363805
 20
211.269792
 30
0.0
 10
427.598666
 20
212.440859
 30
0.0
 10
428.239985
 20
213.396757
 30
0.0
 10
429.192867
 20
214.041030
 30
0.0
 10
430.362416
 20
214.277222
 30
0.0
 10
430.362416
 20
214.277222
 30
0.0
  0
LWPOLYLINE
  5
10f
100
AcDbEntity
  8
LED_Mount
 62
1
100
AcDbPolyline
 90
22
 70
0
 10
62.247639
 20
214.268403
 30
0.0
 10
68.897500
 20
214.268403
 30
0.0
 10
70.067188
 20
214.033589
 30
0.0
 10
71.020055
 20
213.392348
 30
0.0
 10
71.661297
 20
212.439481
 30
0.0
 10
71.896111
 20
211.269792
 30
0.0
 10
71.896111
 20
104.369306
 30
0.0
 10
71.661297
 20
103.198238
 30
0.0
 10
71.020055
 20
102.242340
 30
0.0
 10
70.067188
 20
101.598067
 30
0.0
 10
68.897500
 20
101.361875
 30
0.0
 10
62.247639
 20
101.361875
 30
0.0
 10
61.077950
 20
101.598067
 30
0.0
 10
60.125084
 20
102.242340
 30
0.0
 10
59.483842
 20
103.198238
 30
0.0
 10
59.249028
 20
104.369306
 30
0.0
 10
59.249028
 20
211.269792
 30
0.0
 10
59.483842
 20
212.439481
 30
0.0
 10
60.125084
 20
213.392348
 30
0.0
 10
61.077950
 20
214.033589
 30
0.0
 10
62.247639
 20
214.268403
 30
0.0
 10
62.247639
 20
214.268403
 30
0.0
  0
LWPOLYLINE
  5
110
100
AcDbEntity
  8
LED_Mount
 62
1
100
AcDbPolyline
 90
10
 70
0
 10
11.747500
 20
202.556181
 30
0.0
 10
12.950658
 20
202.057167
 30
0.0
 10
13.449653
 20
200.854028
 30
0.0
 10
12.950658
 20
199.655297
 30
0.0
 10
11.747500
 20
199.160694
 30
0.0
 10
10.548752
 20
199.655297
 30
0.0
 10
10.054167
 20
200.854028
 30
0.0
 10
10.548752
 20
202.057167
 30
0.0
 10
11.747500
 20
202.556181
 30
0.0
 10
11.747500
 20
202.556181
 30
0.0
  0
LWPOLYLINE
  5
111
100
AcDbEntity
  8
LED_Mount
 62
1
100
AcDbPolyline
 90
10
 70
0
 10
32.067500
 20
202.556181
 30
0.0
 10
33.270657
 20
202.057167
 30
0.0
 10
33.769653
 20
200.854028
 30
0.0
 10
33.270657
 20
199.655297
 30
0.0
 10
32.067500
 20
199.160694
 30
0.0
 10
30.868751
 20
199.655297
 30
0.0
 10
30.374167
 20
200.854028
 30
0.0
 10
30.868751
 20
202.057167
 30
0.0
 10
32.067500
 20
202.556181
 30
0.0
 10
32.067500
 20
202.556181
 30
0.0
  0
LWPOLYLINE
  5
112
100
AcDbEntity
  8
LED_Mount
 62
1
100
AcDbPolyline
 90
22
 70
0
 10
27.675417
 20
197.608472
 30
0.0
 10
33.602083
 20
197.608472
 30
0.0
 10
34.771773
 20
197.373658
 30
0.0
 10
35.724639
 20
196.732417
 30
0.0
 10
36.365880
 20
195.779551
 30
0.0
 10
36.600694
 20
194.609861
 30
0.0
 10
36.600694
 20
120.685278
 30
0.0
 10
36.365880
 20
119.514210
 30
0.0
 10
35.724639
 20
118.558312
 30
0.0
 10
34.771773
 20
117.914039
 30
0.0
 10
33.602083
 20
117.677847
 30
0.0
 10
27.675417
 20
117.677847
 30
0.0
 10
26.505727
 20
117.914039
 30
0.0
 10
25.552861
 20
118.558312
 30
0.0
 10
24.911620
 20
119.514210
 30
0.0
 10
24.676806
 20
120.685278
 30
0.0
 10
24.676806
 20
194.609861
 30
0.0
 10
24.911620
 20
195.779551
 30
0.0
 10
25.552861
 20
196.732417
 30
0.0
 10
26.505727
 20
197.373658
 30
0.0
 10
27.675417
 20
197.608472
 30
0.0
 10
27.675417
 20
197.608472
 30
0.0
  0
LWPOLYLINE
  5
113
100
AcDbEntity
  8
LED_Mount
 62
1
100
AcDbPolyline
 90
10
 70
0
 10
44.538194
 20
197.202778
 30
0.0
 10
46.271509
 20
196.484287
 30
0.0
 10
46.990000
 20
194.750972
 30
0.0
 10
46.271509
 20
193.017658
 30
0.0
 10
44.538194
 20
192.299167
 30
0.0
 10
42.804880
 20
193.017658
 30
0.0
 10
42.086389
 20
194.750972
 30
0.0
 10
42.804880
 20
196.484287
 30
0.0
 10
44.538194
 20
197.202778
 30
0.0
 10
44.538194
 20
197.202778
 30
0.0
  0
LWPOLYLINE
  5
114
100
AcDbEntity
  8
LED_Mount
 62
1
100
AcDbPolyline
 90
10
 70
0
 10
91.598750
 20
197.202778
 30
0.0
 10
93.327655
 20
196.484287
 30
0.0
 10
94.041736
 20
194.750972
 30
0.0
 10
93.327655
 20
193.017658
 30
0.0
 10
91.598750
 20
192.299167
 30
0.0
 10
89.865436
 20
193.017658
 30
0.0
 10
89.146944
 20
194.750972
 30
0.0
 10
89.865436
 20
196.484287
 30
0.0
 10
91.598750
 20
197.202778
 30
0.0
 10
91.598750
 20
197.202778
 30
0.0
  0
LWPOLYLINE
  5
115
100
AcDbEntity
  8
LED_Mount
 62
1
100
AcDbPolyline
 90
10
 70
0
 10
142.328194
 20
197.202778
 30
0.0
 10
144.061509
 20
196.484287
 30
0.0
 10
144.780000
 20
194.750972
 30
0.0
 10
144.061509
 20
193.017658
 30
0.0
 10
142.328194
 20
192.299167
 30
0.0
 10
140.594880
 20
193.017658
 30
0.0
 10
139.876389
 20
194.750972
 30
0.0
 10
140.594880
 20
196.484287
 30
0.0
 10
142.328194
 20
197.202778
 30
0.0
 10
142.328194
 20
197.202778
 30
0.0
  0
LWPOLYLINE
  5
116
100
AcDbEntity
  8
LED_Mount
 62
1
100
AcDbPolyline
 90
10
 70
0
 10
193.092917
 20
197.202778
 30
0.0
 10
194.826231
 20
196.484287
 30
0.0
 10
195.544722
 20
194.750972
 30
0.0
 10
194.826231
 20
193.017658
 30
0.0
 10
193.092917
 20
192.299167
 30
0.0
 10
191.359602
 20
193.017658
 30
0.0
 10
190.641111
 20
194.750972
 30
0.0
 10
191.359602
 20
196.484287
 30
0.0
 10
193.092917
 20
197.202778
 30
0.0
 10
193.092917
 20
197.202778
 30
0.0
  0
LWPOLYLINE
  5
117
100
AcDbEntity
  8
LED_Mount
 62
1
100
AcDbPolyline
 90
10
 70
0
 10
243.884097
 20
197.202778
 30
0.0
 10
245.617412
 20
196.484287
 30
0.0
 10
246.335903
 20
194.750972
 30
0.0
 10
245.617412
 20
193.017658
 30
0.0
 10
243.884097
 20
192.299167
 30
0.0
 10
242.150783
 20
193.017658
 30
0.0
 10
241.432292
 20
194.750972
 30
0.0
 10
242.150783
 20
196.484287
 30
0.0
 10
243.884097
 20
197.202778
 30
0.0
 10
243.884097
 20
197.202778
 30
0.0
  0
LWPOLYLINE
  5
118
100
AcDbEntity
  8
LED_Mount
 62
1
100
AcDbPolyline
 90
10
 70
0
 10
294.692917
 20
197.202778
 30
0.0
 10
296.426227
 20
196.484287
 30
0.0
 10
297.144722
 20
194.750972
 30
0.0
 10
296.426227
 20
193.017658
 30
0.0
 10
294.692917
 20
192.299167
 30
0.0
 10
292.959607
 20
193.017658
 30
0.0
 10
292.241111
 20
194.750972
 30
0.0
 10
292.959607
 20
196.484287
 30
0.0
 10
294.692917
 20
197.202778
 30
0.0
 10
294.692917
 20
197.202778
 30
0.0
  0
LWPOLYLINE
  5
119
100
AcDbEntity
  8
LED_Mount
 62
1
100
AcDbPolyline
 90
10
 70
0
 10
351.851750
 20
197.202778
 30
0.0
 10
353.584983
 20
196.484287
 30
0.0
 10
354.303528
 20
194.750972
 30
0.0
 10
353.585120
 20
193.017658
 30
0.0
 10
351.851750
 20
192.299167
 30
0.0
 10
350.122758
 20
193.017658
 30
0.0
 10
349.408750
 20
194.750972
 30
0.0
 10
350.122811
 20
196.484287
 30
0.0
 10
351.851750
 20
197.202778
 30
0.0
 10
351.851750
 20
197.202778
 30
0.0
  0
LWPOLYLINE
  5
11a
100
AcDbEntity
  8
LED_Mount
 62
1
100
AcDbPolyline
 90
10
 70
0
 10
408.975278
 20
197.202778
 30
0.0
 10
410.708588
 20
196.484287
 30
0.0
 10
411.427083
 20
194.750972
 30
0.0
 10
410.708588
 20
193.017658
 30
0.0
 10
408.975278
 20
192.299167
 30
0.0
 10
407.241968
 20
193.017658
 30
0.0
 10
406.523472
 20
194.750972
 30
0.0
 10
407.241968
 20
196.484287
 30
0.0
 10
408.975278
 20
197.202778
 30
0.0
 10
408.975278
 20
197.202778
 30
0.0
  0
LWPOLYLINE
  5
11b
100
AcDbEntity
  8
LED_Mount
 62
1
100
AcDbPolyline
 90
10
 70
0
 10
79.524931
 20
196.382569
 30
0.0
 10
80.728088
 20
195.883556
 30
0.0
 10
81.227083
 20
194.680417
 30
0.0
 10
80.728088
 20
193.477276
 30
0.0
 10
79.524931
 20
192.978264
 30
0.0
 10
78.321772
 20
193.477276
 30
0.0
 10
77.822778
 20
194.680417
 30
0.0
 10
78.321772
 20
195.883556
 30
0.0
 10
79.524931
 20
196.382569
 30
0.0
 10
79.524931
 20
196.382569
 30
0.0
  0
LWPOLYLINE
  5
11c
100
AcDbEntity
  8
LED_Mount
 62
1
100
AcDbPolyline
 90
10
 70
0
 10
130.263194
 20
196.382569
 30
0.0
 10
131.466352
 20
195.887966
 30
0.0
 10
131.965347
 20
194.689236
 30
0.0
 10
131.466352
 20
193.486096
 30
0.0
 10
130.263194
 20
192.987083
 30
0.0
 10
129.060036
 20
193.486096
 30
0.0
 10
128.561042
 20
194.689236
 30
0.0
 10
129.060036
 20
195.887966
 30
0.0
 10
130.263194
 20
196.382569
 30
0.0
 10
130.263194
 20
196.382569
 30
0.0
  0
LWPOLYLINE
  5
11d
100
AcDbEntity
  8
LED_Mount
 62
1
100
AcDbPolyline
 90
10
 70
0
 10
180.992639
 20
196.382569
 30
0.0
 10
182.195796
 20
195.887966
 30
0.0
 10
182.694792
 20
194.689236
 30
0.0
 10
182.195796
 20
193.486096
 30
0.0
 10
180.992639
 20
192.987083
 30
0.0
 10
179.793890
 20
193.486096
 30
0.0
 10
179.299306
 20
194.689236
 30
0.0
 10
179.793890
 20
195.887966
 30
0.0
 10
180.992639
 20
196.382569
 30
0.0
 10
180.992639
 20
196.382569
 30
0.0
  0
LWPOLYLINE
  5
11e
100
AcDbEntity
  8
LED_Mount
 62
1
100
AcDbPolyline
 90
10
 70
0
 10
231.792639
 20
196.382569
 30
0.0
 10
232.991387
 20
195.887966
 30
0.0
 10
233.485972
 20
194.689236
 30
0.0
 10
232.991387
 20
193.486096
 30
0.0
 10
231.792639
 20
192.987083
 30
0.0
 10
230.589480
 20
193.486096
 30
0.0
 10
230.090486
 20
194.689236
 30
0.0
 10
230.589480
 20
195.887966
 30
0.0
 10
231.792639
 20
196.382569
 30
0.0
 10
231.792639
 20
196.382569
 30
0.0
  0
LWPOLYLINE
  5
11f
100
AcDbEntity
  8
LED_Mount
 62
1
100
AcDbPolyline
 90
10
 70
0
 10
282.583805
 20
196.382569
 30
0.0
 10
283.786996
 20
195.887966
 30
0.0
 10
284.285972
 20
194.689236
 30
0.0
 10
283.786986
 20
193.486096
 30
0.0
 10
282.583805
 20
192.987083
 30
0.0
 10
281.380696
 20
193.486096
 30
0.0
 10
280.881667
 20
194.689236
 30
0.0
 10
281.380696
 20
195.887966
 30
0.0
 10
282.583805
 20
196.382569
 30
0.0
 10
282.583805
 20
196.382569
 30
0.0
  0
LWPOLYLINE
  5
120
100
AcDbEntity
  8
LED_Mount
 62
1
100
AcDbPolyline
 90
10
 70
0
 10
333.401472
 20
196.382569
 30
0.0
 10
334.604554
 20
195.887966
 30
0.0
 10
335.103611
 20
194.689236
 30
0.0
 10
334.604618
 20
193.486096
 30
0.0
 10
333.401472
 20
192.987083
 30
0.0
 10
332.202677
 20
193.486096
 30
0.0
 10
331.708139
 20
194.689236
 30
0.0
 10
332.202624
 20
195.887966
 30
0.0
 10
333.401472
 20
196.382569
 30
0.0
 10
333.401472
 20
196.382569
 30
0.0
  0
LWPOLYLINE
  5
121
100
AcDbEntity
  8
LED_Mount
 62
1
100
AcDbPolyline
 90
10
 70
0
 10
396.901472
 20
196.382569
 30
0.0
 10
398.104565
 20
195.887966
 30
0.0
 10
398.603611
 20
194.689236
 30
0.0
 10
398.104618
 20
193.486096
 30
0.0
 10
396.901472
 20
192.987083
 30
0.0
 10
395.702667
 20
193.486096
 30
0.0
 10
395.208139
 20
194.689236
 30
0.0
 10
395.702614
 20
195.887966
 30
0.0
 10
396.901472
 20
196.382569
 30
0.0
 10
396.901472
 20
196.382569
 30
0.0
  0
LWPOLYLINE
  5
122
100
AcDbEntity
  8
LED_Mount
 62
1
100
AcDbPolyline
 90
10
 70
0
 10
447.639722
 20
196.382569
 30
0.0
 10
448.842899
 20
195.887966
 30
0.0
 10
449.341861
 20
194.689236
 30
0.0
 10
448.842878
 20
193.486096
 30
0.0
 10
447.639722
 20
192.987083
 30
0.0
 10
446.440969
 20
193.486096
 30
0.0
 10
445.946389
 20
194.689236
 30
0.0
 10
446.440969
 20
195.887966
 30
0.0
 10
447.639722
 20
196.382569
 30
0.0
 10
447.639722
 20
196.382569
 30
0.0
  0
LWPOLYLINE
  5
123
100
AcDbEntity
  8
LED_Mount
 62
1
100
AcDbPolyline
 90
10
 70
0
 10
52.925486
 20
196.356111
 30
0.0
 10
54.128644
 20
195.857098
 30
0.0
 10
54.627639
 20
194.653958
 30
0.0
 10
54.128644
 20
193.450818
 30
0.0
 10
52.925486
 20
192.951806
 30
0.0
 10
51.722328
 20
193.450818
 30
0.0
 10
51.223333
 20
194.653958
 30
0.0
 10
51.722328
 20
195.857098
 30
0.0
 10
52.925486
 20
196.356111
 30
0.0
 10
52.925486
 20
196.356111
 30
0.0
  0
LWPOLYLINE
  5
124
100
AcDbEntity
  8
LED_Mount
 62
1
100
AcDbPolyline
 90
10
 70
0
 10
103.663750
 20
196.356111
 30
0.0
 10
104.866907
 20
195.861507
 30
0.0
 10
105.365903
 20
194.662778
 30
0.0
 10
104.866907
 20
193.459637
 30
0.0
 10
103.663750
 20
192.960625
 30
0.0
 10
102.460592
 20
193.459637
 30
0.0
 10
101.961597
 20
194.662778
 30
0.0
 10
102.460592
 20
195.861507
 30
0.0
 10
103.663750
 20
196.356111
 30
0.0
 10
103.663750
 20
196.356111
 30
0.0
  0
LWPOLYLINE
  5
125
100
AcDbEntity
  8
LED_Mount
 62
1
100
AcDbPolyline
 90
10
 70
0
 10
154.393194
 20
196.356111
 30
0.0
 10
155.596352
 20
195.861507
 30
0.0
 10
156.095347
 20
194.662778
 30
0.0
 10
155.596352
 20
193.459637
 30
0.0
 10
154.393194
 20
192.960625
 30
0.0
 10
153.194446
 20
193.459637
 30
0.0
 10
152.699861
 20
194.662778
 30
0.0
 10
153.194446
 20
195.861507
 30
0.0
 10
154.393194
 20
196.356111
 30
0.0
 10
154.393194
 20
196.356111
 30
0.0
  0
LWPOLYLINE
  5
126
100
AcDbEntity
  8
LED_Mount
 62
1
100
AcDbPolyline
 90
10
 70
0
 10
205.193194
 20
196.356111
 30
0.0
 10
206.391942
 20
195.861507
 30
0.0
 10
206.886528
 20
194.662778
 30
0.0
 10
206.391942
 20
193.459637
 30
0.0
 10
205.193194
 20
192.960625
 30
0.0
 10
203.990036
 20
193.459637
 30
0.0
 10
203.491042
 20
194.662778
 30
0.0
 10
203.990036
 20
195.861507
 30
0.0
 10
205.193194
 20
196.356111
 30
0.0
 10
205.193194
 20
196.356111
 30
0.0
  0
LWPOLYLINE
  5
127
100
AcDbEntity
  8
LED_Mount
 62
1
100
AcDbPolyline
 90
10
 70
0
 10
255.984375
 20
196.356111
 30
0.0
 10
257.187532
 20
195.861507
 30
0.0
 10
257.686528
 20
194.662778
 30
0.0
 10
257.187532
 20
193.459637
 30
0.0
 10
255.984375
 20
192.960625
 30
0.0
 10
254.781217
 20
193.459637
 30
0.0
 10
254.282222
 20
194.662778
 30
0.0
 10
254.781217
 20
195.861507
 30
0.0
 10
255.984375
 20
196.356111
 30
0.0
 10
255.984375
 20
196.356111
 30
0.0
  0
LWPOLYLINE
  5
128
100
AcDbEntity
  8
LED_Mount
 62
1
100
AcDbPolyline
 90
10
 70
0
 10
306.802028
 20
196.356111
 30
0.0
 10
308.005110
 20
195.861507
 30
0.0
 10
308.504167
 20
194.662778
 30
0.0
 10
308.005173
 20
193.459637
 30
0.0
 10
306.802028
 20
192.960625
 30
0.0
 10
305.603254
 20
193.459637
 30
0.0
 10
305.108695
 20
194.662778
 30
0.0
 10
305.603180
 20
195.861507
 30
0.0
 10
306.802028
 20
196.356111
 30
0.0
 10
306.802028
 20
196.356111
 30
0.0
  0
LWPOLYLINE
  5
129
100
AcDbEntity
  8
LED_Mount
 62
1
100
AcDbPolyline
 90
10
 70
0
 10
370.302028
 20
196.356111
 30
0.0
 10
371.505110
 20
195.861507
 30
0.0
 10
372.004167
 20
194.662778
 30
0.0
 10
371.505173
 20
193.459637
 30
0.0
 10
370.302028
 20
192.960625
 30
0.0
 10
369.103254
 20
193.459637
 30
0.0
 10
368.608695
 20
194.662778
 30
0.0
 10
369.103180
 20
195.861507
 30
0.0
 10
370.302028
 20
196.356111
 30
0.0
 10
370.302028
 20
196.356111
 30
0.0
  0
LWPOLYLINE
  5
12a
100
AcDbEntity
  8
LED_Mount
 62
1
100
AcDbPolyline
 90
10
 70
0
 10
421.040278
 20
196.356111
 30
0.0
 10
422.243433
 20
195.861507
 30
0.0
 10
422.742416
 20
194.662778
 30
0.0
 10
422.243433
 20
193.459637
 30
0.0
 10
421.040278
 20
192.960625
 30
0.0
 10
419.837122
 20
193.459637
 30
0.0
 10
419.338139
 20
194.662778
 30
0.0
 10
419.837122
 20
195.861507
 30
0.0
 10
421.040278
 20
196.356111
 30
0.0
 10
421.040278
 20
196.356111
 30
0.0
  0
LWPOLYLINE
  5
12b
100
AcDbEntity
  8
LED_Mount
 62
1
100
AcDbPolyline
 90
10
 70
0
 10
44.538194
 20
182.447847
 30
0.0
 10
46.271509
 20
181.733766
 30
0.0
 10
46.990000
 20
180.004861
 30
0.0
 10
46.271509
 20
178.271547
 30
0.0
 10
44.538194
 20
177.553056
 30
0.0
 10
42.804880
 20
178.271547
 30
0.0
 10
42.086389
 20
180.004861
 30
0.0
 10
42.804880
 20
181.733766
 30
0.0
 10
44.538194
 20
182.447847
 30
0.0
 10
44.538194
 20
182.447847
 30
0.0
  0
LWPOLYLINE
  5
12c
100
AcDbEntity
  8
LED_Mount
 62
1
100
AcDbPolyline
 90
10
 70
0
 10
91.598750
 20
182.447847
 30
0.0
 10
93.327655
 20
181.733766
 30
0.0
 10
94.041736
 20
180.004861
 30
0.0
 10
93.327655
 20
178.271547
 30
0.0
 10
91.598750
 20
177.553056
 30
0.0
 10
89.865436
 20
178.271547
 30
0.0
 10
89.146944
 20
180.004861
 30
0.0
 10
89.865436
 20
181.733766
 30
0.0
 10
91.598750
 20
182.447847
 30
0.0
 10
91.598750
 20
182.447847
 30
0.0
  0
LWPOLYLINE
  5
12d
100
AcDbEntity
  8
LED_Mount
 62
1
100
AcDbPolyline
 90
10
 70
0
 10
142.328194
 20
182.447847
 30
0.0
 10
144.061509
 20
181.733766
 30
0.0
 10
144.780000
 20
180.004861
 30
0.0
 10
144.061509
 20
178.271547
 30
0.0
 10
142.328194
 20
177.553056
 30
0.0
 10
140.594880
 20
178.271547
 30
0.0
 10
139.876389
 20
180.004861
 30
0.0
 10
140.594880
 20
181.733766
 30
0.0
 10
142.328194
 20
182.447847
 30
0.0
 10
142.328194
 20
182.447847
 30
0.0
  0
LWPOLYLINE
  5
12e
100
AcDbEntity
  8
LED_Mount
 62
1
100
AcDbPolyline
 90
10
 70
0
 10
193.092917
 20
182.447847
 30
0.0
 10
194.826231
 20
181.733766
 30
0.0
 10
195.544722
 20
180.004861
 30
0.0
 10
194.826231
 20
178.271547
 30
0.0
 10
193.092917
 20
177.553056
 30
0.0
 10
191.359602
 20
178.271547
 30
0.0
 10
190.641111
 20
180.004861
 30
0.0
 10
191.359602
 20
181.733766
 30
0.0
 10
193.092917
 20
182.447847
 30
0.0
 10
193.092917
 20
182.447847
 30
0.0
  0
LWPOLYLINE
  5
12f
100
AcDbEntity
  8
LED_Mount
 62
1
100
AcDbPolyline
 90
10
 70
0
 10
243.884097
 20
182.447847
 30
0.0
 10
245.617412
 20
181.733766
 30
0.0
 10
246.335903
 20
180.004861
 30
0.0
 10
245.617412
 20
178.271547
 30
0.0
 10
243.884097
 20
177.553056
 30
0.0
 10
242.150783
 20
178.271547
 30
0.0
 10
241.432292
 20
180.004861
 30
0.0
 10
242.150783
 20
181.733766
 30
0.0
 10
243.884097
 20
182.447847
 30
0.0
 10
243.884097
 20
182.447847
 30
0.0
  0
LWPOLYLINE
  5
130
100
AcDbEntity
  8
LED_Mount
 62
1
100
AcDbPolyline
 90
10
 70
0
 10
294.692917
 20
182.447847
 30
0.0
 10
296.426227
 20
181.733766
 30
0.0
 10
297.144722
 20
180.004861
 30
0.0
 10
296.426227
 20
178.271547
 30
0.0
 10
294.692917
 20
177.553056
 30
0.0
 10
292.959607
 20
178.271547
 30
0.0
 10
292.241111
 20
180.004861
 30
0.0
 10
292.959607
 20
181.733766
 30
0.0
 10
294.692917
 20
182.447847
 30
0.0
 10
294.692917
 20
182.447847
 30
0.0
  0
LWPOLYLINE
  5
131
100
AcDbEntity
  8
LED_Mount
 62
1
100
AcDbPolyline
 90
10
 70
0
 10
351.851750
 20
182.447847
 30
0.0
 10
353.584983
 20
181.733766
 30
0.0
 10
354.303528
 20
180.004861
 30
0.0
 10
353.585120
 20
178.271547
 30
0.0
 10
351.851750
 20
177.553056
 30
0.0
 10
350.122758
 20
178.271547
 30
0.0
 10
349.408750
 20
180.004861
 30
0.0
 10
350.122811
 20
181.733766
 30
0.0
 10
351.851750
 20
182.447847
 30
0.0
 10
351.851750
 20
182.447847
 30
0.0
  0
LWPOLYLINE
  5
132
100
AcDbEntity
  8
LED_Mount
 62
1
100
AcDbPolyline
 90
10
 70
0
 10
408.975278
 20
182.447847
 30
0.0
 10
410.708588
 20
181.733766
 30
0.0
 10
411.427083
 20
180.004861
 30
0.0
 10
410.708588
 20
178.271547
 30
0.0
 10
408.975278
 20
177.553056
 30
0.0
 10
407.241968
 20
178.271547
 30
0.0
 10
406.523472
 20
180.004861
 30
0.0
 10
407.241968
 20
181.733766
 30
0.0
 10
408.975278
 20
182.447847
 30
0.0
 10
408.975278
 20
182.447847
 30
0.0
  0
LWPOLYLINE
  5
133
100
AcDbEntity
  8
LED_Mount
 62
1
100
AcDbPolyline
 90
10
 70
0
 10
44.538194
 20
167.701736
 30
0.0
 10
46.271509
 20
166.983245
 30
0.0
 10
46.990000
 20
165.249931
 30
0.0
 10
46.271509
 20
163.516616
 30
0.0
 10
44.538194
 20
162.798125
 30
0.0
 10
42.804880
 20
163.516616
 30
0.0
 10
42.086389
 20
165.249931
 30
0.0
 10
42.804880
 20
166.983245
 30
0.0
 10
44.538194
 20
167.701736
 30
0.0
 10
44.538194
 20
167.701736
 30
0.0
  0
LWPOLYLINE
  5
134
100
AcDbEntity
  8
LED_Mount
 62
1
100
AcDbPolyline
 90
10
 70
0
 10
91.598750
 20
167.701736
 30
0.0
 10
93.327655
 20
166.983245
 30
0.0
 10
94.041736
 20
165.249931
 30
0.0
 10
93.327655
 20
163.516616
 30
0.0
 10
91.598750
 20
162.798125
 30
0.0
 10
89.865436
 20
163.516616
 30
0.0
 10
89.146944
 20
165.249931
 30
0.0
 10
89.865436
 20
166.983245
 30
0.0
 10
91.598750
 20
167.701736
 30
0.0
 10
91.598750
 20
167.701736
 30
0.0
  0
LWPOLYLINE
  5
135
100
AcDbEntity
  8
LED_Mount
 62
1
100
AcDbPolyline
 90
10
 70
0
 10
142.328194
 20
167.701736
 30
0.0
 10
144.061509
 20
166.983245
 30
0.0
 10
144.780000
 20
165.249931
 30
0.0
 10
144.061509
 20
163.516616
 30
0.0
 10
142.328194
 20
162.798125
 30
0.0
 10
140.594880
 20
163.516616
 30
0.0
 10
139.876389
 20
165.249931
 30
0.0
 10
140.594880
 20
166.983245
 30
0.0
 10
142.328194
 20
167.701736
 30
0.0
 10
142.328194
 20
167.701736
 30
0.0
  0
LWPOLYLINE
  5
136
100
AcDbEntity
  8
LED_Mount
 62
1
100
AcDbPolyline
 90
10
 70
0
 10
193.092917
 20
167.701736
 30
0.0
 10
194.826231
 20
166.983245
 30
0.0
 10
195.544722
 20
165.249931
 30
0.0
 10
194.826231
 20
163.516616
 30
0.0
 10
193.092917
 20
162.798125
 30
0.0
 10
191.359602
 20
163.516616
 30
0.0
 10
190.641111
 20
165.249931
 30
0.0
 10
191.359602
 20
166.983245
 30
0.0
 10
193.092917
 20
167.701736
 30
0.0
 10
193.092917
 20
167.701736
 30
0.0
  0
LWPOLYLINE
  5
137
100
AcDbEntity
  8
LED_Mount
 62
1
100
AcDbPolyline
 90
10
 70
0
 10
243.884097
 20
167.701736
 30
0.0
 10
245.617412
 20
166.983245
 30
0.0
 10
246.335903
 20
165.249931
 30
0.0
 10
245.617412
 20
163.516616
 30
0.0
 10
243.884097
 20
162.798125
 30
0.0
 10
242.150783
 20
163.516616
 30
0.0
 10
241.432292
 20
165.249931
 30
0.0
 10
242.150783
 20
166.983245
 30
0.0
 10
243.884097
 20
167.701736
 30
0.0
 10
243.884097
 20
167.701736
 30
0.0
  0
LWPOLYLINE
  5
138
100
AcDbEntity
  8
LED_Mount
 62
1
100
AcDbPolyline
 90
10
 70
0
 10
294.692917
 20
167.701736
 30
0.0
 10
296.426227
 20
166.983245
 30
0.0
 10
297.144722
 20
165.249931
 30
0.0
 10
296.426227
 20
163.516616
 30
0.0
 10
294.692917
 20
162.798125
 30
0.0
 10
292.959607
 20
163.516616
 30
0.0
 10
292.241111
 20
165.249931
 30
0.0
 10
292.959607
 20
166.983245
 30
0.0
 10
294.692917
 20
167.701736
 30
0.0
 10
294.692917
 20
167.701736
 30
0.0
  0
LWPOLYLINE
  5
139
100
AcDbEntity
  8
LED_Mount
 62
1
100
AcDbPolyline
 90
10
 70
0
 10
351.851750
 20
167.701736
 30
0.0
 10
353.584983
 20
166.983245
 30
0.0
 10
354.303528
 20
165.249931
 30
0.0
 10
353.585120
 20
163.516616
 30
0.0
 10
351.851750
 20
162.798125
 30
0.0
 10
350.122758
 20
163.516616
 30
0.0
 10
349.408750
 20
165.249931
 30
0.0
 10
350.122811
 20
166.983245
 30
0.0
 10
351.851750
 20
167.701736
 30
0.0
 10
351.851750
 20
167.701736
 30
0.0
  0
LWPOLYLINE
  5
13a
100
AcDbEntity
  8
LED_Mount
 62
1
100
AcDbPolyline
 90
10
 70
0
 10
408.975278
 20
167.701736
 30
0.0
 10
410.708588
 20
166.983245
 30
0.0
 10
411.427083
 20
165.249931
 30
0.0
 10
410.708588
 20
163.516616
 30
0.0
 10
408.975278
 20
162.798125
 30
0.0
 10
407.241968
 20
163.516616
 30
0.0
 10
406.523472
 20
165.249931
 30
0.0
 10
407.241968
 20
166.983245
 30
0.0
 10
408.975278
 20
167.701736
 30
0.0
 10
408.975278
 20
167.701736
 30
0.0
  0
LWPOLYLINE
  5
13b
100
AcDbEntity
  8
LED_Mount
 62
1
100
AcDbPolyline
 90
10
 70
0
 10
44.538194
 20
152.955625
 30
0.0
 10
46.271509
 20
152.237134
 30
0.0
 10
46.990000
 20
150.503819
 30
0.0
 10
46.271509
 20
148.770505
 30
0.0
 10
44.538194
 20
148.052014
 30
0.0
 10
42.804880
 20
148.770505
 30
0.0
 10
42.086389
 20
150.503819
 30
0.0
 10
42.804880
 20
152.237134
 30
0.0
 10
44.538194
 20
152.955625
 30
0.0
 10
44.538194
 20
152.955625
 30
0.0
  0
LWPOLYLINE
  5
13c
100
AcDbEntity
  8
LED_Mount
 62
1
100
AcDbPolyline
 90
10
 70
0
 10
91.598750
 20
152.955625
 30
0.0
 10
93.327655
 20
152.237134
 30
0.0
 10
94.041736
 20
150.503819
 30
0.0
 10
93.327655
 20
148.770505
 30
0.0
 10
91.598750
 20
148.052014
 30
0.0
 10
89.865436
 20
148.770505
 30
0.0
 10
89.146944
 20
150.503819
 30
0.0
 10
89.865436
 20
152.237134
 30
0.0
 10
91.598750
 20
152.955625
 30
0.0
 10
91.598750
 20
152.955625
 30
0.0
  0
LWPOLYLINE
  5
13d
100
AcDbEntity
  8
LED_Mount
 62
1
100
AcDbPolyline
 90
10
 70
0
 10
142.328194
 20
152.955625
 30
0.0
 10
144.061509
 20
152.237134
 30
0.0
 10
144.780000
 20
150.503819
 30
0.0
 10
144.061509
 20
148.770505
 30
0.0
 10
142.328194
 20
148.052014
 30
0.0
 10
140.594880
 20
148.770505
 30
0.0
 10
139.876389
 20
150.503819
 30
0.0
 10
140.594880
 20
152.237134
 30
0.0
 10
142.328194
 20
152.955625
 30
0.0
 10
142.328194
 20
152.955625
 30
0.0
  0
LWPOLYLINE
  5
13e
100
AcDbEntity
  8
LED_Mount
 62
1
100
AcDbPolyline
 90
10
 70
0
 10
193.092917
 20
152.955625
 30
0.0
 10
194.826231
 20
152.237134
 30
0.0
 10
195.544722
 20
150.503819
 30
0.0
 10
194.826231
 20
148.770505
 30
0.0
 10
193.092917
 20
148.052014
 30
0.0
 10
191.359602
 20
148.770505
 30
0.0
 10
190.641111
 20
150.503819
 30
0.0
 10
191.359602
 20
152.237134
 30
0.0
 10
193.092917
 20
152.955625
 30
0.0
 10
193.092917
 20
152.955625
 30
0.0
  0
LWPOLYLINE
  5
13f
100
AcDbEntity
  8
LED_Mount
 62
1
100
AcDbPolyline
 90
10
 70
0
 10
243.884097
 20
152.955625
 30
0.0
 10
245.617412
 20
152.237134
 30
0.0
 10
246.335903
 20
150.503819
 30
0.0
 10
245.617412
 20
148.770505
 30
0.0
 10
243.884097
 20
148.052014
 30
0.0
 10
242.150783
 20
148.770505
 30
0.0
 10
241.432292
 20
150.503819
 30
0.0
 10
242.150783
 20
152.237134
 30
0.0
 10
243.884097
 20
152.955625
 30
0.0
 10
243.884097
 20
152.955625
 30
0.0
  0
LWPOLYLINE
  5
140
100
AcDbEntity
  8
LED_Mount
 62
1
100
AcDbPolyline
 90
10
 70
0
 10
294.692917
 20
152.955625
 30
0.0
 10
296.426227
 20
152.237134
 30
0.0
 10
297.144722
 20
150.503819
 30
0.0
 10
296.426227
 20
148.770505
 30
0.0
 10
294.692917
 20
148.052014
 30
0.0
 10
292.959607
 20
148.770505
 30
0.0
 10
292.241111
 20
150.503819
 30
0.0
 10
292.959607
 20
152.237134
 30
0.0
 10
294.692917
 20
152.955625
 30
0.0
 10
294.692917
 20
152.955625
 30
0.0
  0
LWPOLYLINE
  5
141
100
AcDbEntity
  8
LED_Mount
 62
1
100
AcDbPolyline
 90
10
 70
0
 10
351.851750
 20
152.955625
 30
0.0
 10
353.584983
 20
152.237134
 30
0.0
 10
354.303528
 20
150.503819
 30
0.0
 10
353.585120
 20
148.770505
 30
0.0
 10
351.851750
 20
148.052014
 30
0.0
 10
350.122758
 20
148.770505
 30
0.0
 10
349.408750
 20
150.503819
 30
0.0
 10
350.122811
 20
152.237134
 30
0.0
 10
351.851750
 20
152.955625
 30
0.0
 10
351.851750
 20
152.955625
 30
0.0
  0
LWPOLYLINE
  5
142
100
AcDbEntity
  8
LED_Mount
 62
1
100
AcDbPolyline
 90
10
 70
0
 10
408.975278
 20
152.955625
 30
0.0
 10
410.708588
 20
152.237134
 30
0.0
 10
411.427083
 20
150.503819
 30
0.0
 10
410.708588
 20
148.770505
 30
0.0
 10
408.975278
 20
148.052014
 30
0.0
 10
407.241968
 20
148.770505
 30
0.0
 10
406.523472
 20
150.503819
 30
0.0
 10
407.241968
 20
152.237134
 30
0.0
 10
408.975278
 20
152.955625
 30
0.0
 10
408.975278
 20
152.955625
 30
0.0
  0
LWPOLYLINE
  5
143
100
AcDbEntity
  8
LED_Mount
 62
1
100
AcDbPolyline
 90
10
 70
0
 10
44.538194
 20
138.200694
 30
0.0
 10
46.271509
 20
137.482203
 30
0.0
 10
46.990000
 20
135.748889
 30
0.0
 10
46.271509
 20
134.015575
 30
0.0
 10
44.538194
 20
133.297083
 30
0.0
 10
42.804880
 20
134.015575
 30
0.0
 10
42.086389
 20
135.748889
 30
0.0
 10
42.804880
 20
137.482203
 30
0.0
 10
44.538194
 20
138.200694
 30
0.0
 10
44.538194
 20
138.200694
 30
0.0
  0
LWPOLYLINE
  5
144
100
AcDbEntity
  8
LED_Mount
 62
1
100
AcDbPolyline
 90
10
 70
0
 10
91.598750
 20
138.200694
 30
0.0
 10
93.327655
 20
137.482203
 30
0.0
 10
94.041736
 20
135.748889
 30
0.0
 10
93.327655
 20
134.015575
 30
0.0
 10
91.598750
 20
133.297083
 30
0.0
 10
89.865436
 20
134.015575
 30
0.0
 10
89.146944
 20
135.748889
 30
0.0
 10
89.865436
 20
137.482203
 30
0.0
 10
91.598750
 20
138.200694
 30
0.0
 10
91.598750
 20
138.200694
 30
0.0
  0
LWPOLYLINE
  5
145
100
AcDbEntity
  8
LED_Mount
 62
1
100
AcDbPolyline
 90
10
 70
0
 10
142.328194
 20
138.200694
 30
0.0
 10
144.061509
 20
137.482203
 30
0.0
 10
144.780000
 20
135.748889
 30
0.0
 10
144.061509
 20
134.015575
 30
0.0
 10
142.328194
 20
133.297083
 30
0.0
 10
140.594880
 20
134.015575
 30
0.0
 10
139.876389
 20
135.748889
 30
0.0
 10
140.594880
 20
137.482203
 30
0.0
 10
142.328194
 20
138.200694
 30
0.0
 10
142.328194
 20
138.200694
 30
0.0
  0
LWPOLYLINE
  5
146
100
AcDbEntity
  8
LED_Mount
 62
1
100
AcDbPolyline
 90
10
 70
0
 10
193.092917
 20
138.200694
 30
0.0
 10
194.826231
 20
137.482203
 30
0.0
 10
195.544722
 20
135.748889
 30
0.0
 10
194.826231
 20
134.015575
 30
0.0
 10
193.092917
 20
133.297083
 30
0.0
 10
191.359602
 20
134.015575
 30
0.0
 10
190.641111
 20
135.748889
 30
0.0
 10
191.359602
 20
137.482203
 30
0.0
 10
193.092917
 20
138.200694
 30
0.0
 10
193.092917
 20
138.200694
 30
0.0
  0
LWPOLYLINE
  5
147
100
AcDbEntity
  8
LED_Mount
 62
1
100
AcDbPolyline
 90
10
 70
0
 10
243.884097
 20
138.200694
 30
0.0
 10
245.617412
 20
137.482203
 30
0.0
 10
246.335903
 20
135.748889
 30
0.0
 10
245.617412
 20
134.015575
 30
0.0
 10
243.884097
 20
133.297083
 30
0.0
 10
242.150783
 20
134.015575
 30
0.0
 10
241.432292
 20
135.748889
 30
0.0
 10
242.150783
 20
137.482203
 30
0.0
 10
243.884097
 20
138.200694
 30
0.0
 10
243.884097
 20
138.200694
 30
0.0
  0
LWPOLYLINE
  5
148
100
AcDbEntity
  8
LED_Mount
 62
1
100
AcDbPolyline
 90
10
 70
0
 10
294.692917
 20
138.200694
 30
0.0
 10
296.426227
 20
137.482203
 30
0.0
 10
297.144722
 20
135.748889
 30
0.0
 10
296.426227
 20
134.015575
 30
0.0
 10
294.692917
 20
133.297083
 30
0.0
 10
292.959607
 20
134.015575
 30
0.0
 10
292.241111
 20
135.748889
 30
0.0
 10
292.959607
 20
137.482203
 30
0.0
 10
294.692917
 20
138.200694
 30
0.0
 10
294.692917
 20
138.200694
 30
0.0
  0
LWPOLYLINE
  5
149
100
AcDbEntity
  8
LED_Mount
 62
1
100
AcDbPolyline
 90
10
 70
0
 10
351.851750
 20
138.200694
 30
0.0
 10
353.584983
 20
137.482203
 30
0.0
 10
354.303528
 20
135.748889
 30
0.0
 10
353.585120
 20
134.015575
 30
0.0
 10
351.851750
 20
133.297083
 30
0.0
 10
350.122758
 20
134.015575
 30
0.0
 10
349.408750
 20
135.748889
 30
0.0
 10
350.122811
 20
137.482203
 30
0.0
 10
351.851750
 20
138.200694
 30
0.0
 10
351.851750
 20
138.200694
 30
0.0
  0
LWPOLYLINE
  5
14a
100
AcDbEntity
  8
LED_Mount
 62
1
100
AcDbPolyline
 90
10
 70
0
 10
408.975278
 20
138.200694
 30
0.0
 10
410.708588
 20
137.482203
 30
0.0
 10
411.427083
 20
135.748889
 30
0.0
 10
410.708588
 20
134.015575
 30
0.0
 10
408.975278
 20
133.297083
 30
0.0
 10
407.241968
 20
134.015575
 30
0.0
 10
406.523472
 20
135.748889
 30
0.0
 10
407.241968
 20
137.482203
 30
0.0
 10
408.975278
 20
138.200694
 30
0.0
 10
408.975278
 20
138.200694
 30
0.0
  0
LWPOLYLINE
  5
14b
100
AcDbEntity
  8
LED_Mount
 62
1
100
AcDbPolyline
 90
10
 70
0
 10
91.598750
 20
123.551597
 30
0.0
 10
93.327655
 20
122.837516
 30
0.0
 10
94.041736
 20
121.108611
 30
0.0
 10
93.327655
 20
119.375297
 30
0.0
 10
91.598750
 20
118.656806
 30
0.0
 10
89.865436
 20
119.375297
 30
0.0
 10
89.146944
 20
121.108611
 30
0.0
 10
89.865436
 20
122.837516
 30
0.0
 10
91.598750
 20
123.551597
 30
0.0
 10
91.598750
 20
123.551597
 30
0.0
  0
LWPOLYLINE
  5
14c
100
AcDbEntity
  8
LED_Mount
 62
1
100
AcDbPolyline
 90
10
 70
0
 10
44.538194
 20
123.454583
 30
0.0
 10
46.271509
 20
122.736092
 30
0.0
 10
46.990000
 20
121.002778
 30
0.0
 10
46.271509
 20
119.269463
 30
0.0
 10
44.538194
 20
118.550972
 30
0.0
 10
42.804880
 20
119.269463
 30
0.0
 10
42.086389
 20
121.002778
 30
0.0
 10
42.804880
 20
122.736092
 30
0.0
 10
44.538194
 20
123.454583
 30
0.0
 10
44.538194
 20
123.454583
 30
0.0
  0
LWPOLYLINE
  5
14d
100
AcDbEntity
  8
LED_Mount
 62
1
100
AcDbPolyline
 90
10
 70
0
 10
142.328194
 20
123.454583
 30
0.0
 10
144.061509
 20
122.736092
 30
0.0
 10
144.780000
 20
121.002778
 30
0.0
 10
144.061509
 20
119.269463
 30
0.0
 10
142.328194
 20
118.550972
 30
0.0
 10
140.594880
 20
119.269463
 30
0.0
 10
139.876389
 20
121.002778
 30
0.0
 10
140.594880
 20
122.736092
 30
0.0
 10
142.328194
 20
123.454583
 30
0.0
 10
142.328194
 20
123.454583
 30
0.0
  0
LWPOLYLINE
  5
14e
100
AcDbEntity
  8
LED_Mount
 62
1
100
AcDbPolyline
 90
10
 70
0
 10
193.092917
 20
123.454583
 30
0.0
 10
194.826231
 20
122.736092
 30
0.0
 10
195.544722
 20
121.002778
 30
0.0
 10
194.826231
 20
119.269463
 30
0.0
 10
193.092917
 20
118.550972
 30
0.0
 10
191.359602
 20
119.269463
 30
0.0
 10
190.641111
 20
121.002778
 30
0.0
 10
191.359602
 20
122.736092
 30
0.0
 10
193.092917
 20
123.454583
 30
0.0
 10
193.092917
 20
123.454583
 30
0.0
  0
LWPOLYLINE
  5
14f
100
AcDbEntity
  8
LED_Mount
 62
1
100
AcDbPolyline
 90
10
 70
0
 10
243.884097
 20
123.454583
 30
0.0
 10
245.617412
 20
122.736092
 30
0.0
 10
246.335903
 20
121.002778
 30
0.0
 10
245.617412
 20
119.269463
 30
0.0
 10
243.884097
 20
118.550972
 30
0.0
 10
242.150783
 20
119.269463
 30
0.0
 10
241.432292
 20
121.002778
 30
0.0
 10
242.150783
 20
122.736092
 30
0.0
 10
243.884097
 20
123.454583
 30
0.0
 10
243.884097
 20
123.454583
 30
0.0
  0
LWPOLYLINE
  5
150
100
AcDbEntity
  8
LED_Mount
 62
1
100
AcDbPolyline
 90
10
 70
0
 10
294.692917
 20
123.454583
 30
0.0
 10
296.426227
 20
122.736092
 30
0.0
 10
297.144722
 20
121.002778
 30
0.0
 10
296.426227
 20
119.269463
 30
0.0
 10
294.692917
 20
118.550972
 30
0.0
 10
292.959607
 20
119.269463
 30
0.0
 10
292.241111
 20
121.002778
 30
0.0
 10
292.959607
 20
122.736092
 30
0.0
 10
294.692917
 20
123.454583
 30
0.0
 10
294.692917
 20
123.454583
 30
0.0
  0
LWPOLYLINE
  5
151
100
AcDbEntity
  8
LED_Mount
 62
1
100
AcDbPolyline
 90
10
 70
0
 10
351.851750
 20
123.454583
 30
0.0
 10
353.584983
 20
122.736092
 30
0.0
 10
354.303528
 20
121.002778
 30
0.0
 10
353.585120
 20
119.269463
 30
0.0
 10
351.851750
 20
118.550972
 30
0.0
 10
350.122758
 20
119.269463
 30
0.0
 10
349.408750
 20
121.002778
 30
0.0
 10
350.122811
 20
122.736092
 30
0.0
 10
351.851750
 20
123.454583
 30
0.0
 10
351.851750
 20
123.454583
 30
0.0
  0
LWPOLYLINE
  5
152
100
AcDbEntity
  8
LED_Mount
 62
1
100
AcDbPolyline
 90
10
 70
0
 10
408.975278
 20
123.454583
 30
0.0
 10
410.708588
 20
122.736092
 30
0.0
 10
411.427083
 20
121.002778
 30
0.0
 10
410.708588
 20
119.269463
 30
0.0
 10
408.975278
 20
118.550972
 30
0.0
 10
407.241968
 20
119.269463
 30
0.0
 10
406.523472
 20
121.002778
 30
0.0
 10
407.241968
 20
122.736092
 30
0.0
 10
408.975278
 20
123.454583
 30
0.0
 10
408.975278
 20
123.454583
 30
0.0
  0
LWPOLYLINE
  5
153
100
AcDbEntity
  8
LED_Mount
 62
1
100
AcDbPolyline
 90
10
 70
0
 10
52.925486
 20
122.704931
 30
0.0
 10
54.128644
 20
122.205917
 30
0.0
 10
54.627639
 20
121.002778
 30
0.0
 10
54.128644
 20
119.799637
 30
0.0
 10
52.925486
 20
119.300625
 30
0.0
 10
51.722328
 20
119.799637
 30
0.0
 10
51.223333
 20
121.002778
 30
0.0
 10
51.722328
 20
122.205917
 30
0.0
 10
52.925486
 20
122.704931
 30
0.0
 10
52.925486
 20
122.704931
 30
0.0
  0
LWPOLYLINE
  5
154
100
AcDbEntity
  8
LED_Mount
 62
1
100
AcDbPolyline
 90
10
 70
0
 10
79.524931
 20
122.704931
 30
0.0
 10
80.728088
 20
122.205917
 30
0.0
 10
81.227083
 20
121.002778
 30
0.0
 10
80.728088
 20
119.799637
 30
0.0
 10
79.524931
 20
119.300625
 30
0.0
 10
78.321772
 20
119.799637
 30
0.0
 10
77.822778
 20
121.002778
 30
0.0
 10
78.321772
 20
122.205917
 30
0.0
 10
79.524931
 20
122.704931
 30
0.0
 10
79.524931
 20
122.704931
 30
0.0
  0
LWPOLYLINE
  5
155
100
AcDbEntity
  8
LED_Mount
 62
1
100
AcDbPolyline
 90
10
 70
0
 10
103.663750
 20
122.704931
 30
0.0
 10
104.866907
 20
122.210327
 30
0.0
 10
105.365903
 20
121.011597
 30
0.0
 10
104.866907
 20
119.808457
 30
0.0
 10
103.663750
 20
119.309444
 30
0.0
 10
102.460592
 20
119.808457
 30
0.0
 10
101.961597
 20
121.011597
 30
0.0
 10
102.460592
 20
122.210327
 30
0.0
 10
103.663750
 20
122.704931
 30
0.0
 10
103.663750
 20
122.704931
 30
0.0
  0
LWPOLYLINE
  5
156
100
AcDbEntity
  8
LED_Mount
 62
1
100
AcDbPolyline
 90
10
 70
0
 10
130.263194
 20
122.704931
 30
0.0
 10
131.466352
 20
122.210327
 30
0.0
 10
131.965347
 20
121.011597
 30
0.0
 10
131.466352
 20
119.808457
 30
0.0
 10
130.263194
 20
119.309444
 30
0.0
 10
129.060036
 20
119.808457
 30
0.0
 10
128.561042
 20
121.011597
 30
0.0
 10
129.060036
 20
122.210327
 30
0.0
 10
130.263194
 20
122.704931
 30
0.0
 10
130.263194
 20
122.704931
 30
0.0
  0
LWPOLYLINE
  5
157
100
AcDbEntity
  8
LED_Mount
 62
1
100
AcDbPolyline
 90
10
 70
0
 10
154.393194
 20
122.704931
 30
0.0
 10
155.596352
 20
122.210327
 30
0.0
 10
156.095347
 20
121.011597
 30
0.0
 10
155.596352
 20
119.808457
 30
0.0
 10
154.393194
 20
119.309444
 30
0.0
 10
153.194446
 20
119.808457
 30
0.0
 10
152.699861
 20
121.011597
 30
0.0
 10
153.194446
 20
122.210327
 30
0.0
 10
154.393194
 20
122.704931
 30
0.0
 10
154.393194
 20
122.704931
 30
0.0
  0
LWPOLYLINE
  5
158
100
AcDbEntity
  8
LED_Mount
 62
1
100
AcDbPolyline
 90
10
 70
0
 10
180.992639
 20
122.704931
 30
0.0
 10
182.195796
 20
122.210327
 30
0.0
 10
182.694792
 20
121.011597
 30
0.0
 10
182.195796
 20
119.808457
 30
0.0
 10
180.992639
 20
119.309444
 30
0.0
 10
179.793890
 20
119.808457
 30
0.0
 10
179.299306
 20
121.011597
 30
0.0
 10
179.793890
 20
122.210327
 30
0.0
 10
180.992639
 20
122.704931
 30
0.0
 10
180.992639
 20
122.704931
 30
0.0
  0
LWPOLYLINE
  5
159
100
AcDbEntity
  8
LED_Mount
 62
1
100
AcDbPolyline
 90
10
 70
0
 10
205.184375
 20
122.704931
 30
0.0
 10
206.387532
 20
122.210327
 30
0.0
 10
206.886528
 20
121.011597
 30
0.0
 10
206.387532
 20
119.808457
 30
0.0
 10
205.184375
 20
119.309444
 30
0.0
 10
203.985626
 20
119.808457
 30
0.0
 10
203.491042
 20
121.011597
 30
0.0
 10
203.985626
 20
122.210327
 30
0.0
 10
205.184375
 20
122.704931
 30
0.0
 10
205.184375
 20
122.704931
 30
0.0
  0
LWPOLYLINE
  5
15a
100
AcDbEntity
  8
LED_Mount
 62
1
100
AcDbPolyline
 90
10
 70
0
 10
231.792639
 20
122.704931
 30
0.0
 10
232.991387
 20
122.210327
 30
0.0
 10
233.485972
 20
121.011597
 30
0.0
 10
232.991387
 20
119.808457
 30
0.0
 10
231.792639
 20
119.309444
 30
0.0
 10
230.589480
 20
119.808457
 30
0.0
 10
230.090486
 20
121.011597
 30
0.0
 10
230.589480
 20
122.210327
 30
0.0
 10
231.792639
 20
122.704931
 30
0.0
 10
231.792639
 20
122.704931
 30
0.0
  0
LWPOLYLINE
  5
15b
100
AcDbEntity
  8
LED_Mount
 62
1
100
AcDbPolyline
 90
10
 70
0
 10
255.984375
 20
122.704931
 30
0.0
 10
257.187532
 20
122.210327
 30
0.0
 10
257.686528
 20
121.011597
 30
0.0
 10
257.187532
 20
119.808457
 30
0.0
 10
255.984375
 20
119.309444
 30
0.0
 10
254.781217
 20
119.808457
 30
0.0
 10
254.282222
 20
121.011597
 30
0.0
 10
254.781217
 20
122.210327
 30
0.0
 10
255.984375
 20
122.704931
 30
0.0
 10
255.984375
 20
122.704931
 30
0.0
  0
LWPOLYLINE
  5
15c
100
AcDbEntity
  8
LED_Mount
 62
1
100
AcDbPolyline
 90
10
 70
0
 10
282.583805
 20
122.704931
 30
0.0
 10
283.786996
 20
122.210327
 30
0.0
 10
284.285972
 20
121.011597
 30
0.0
 10
283.786986
 20
119.808457
 30
0.0
 10
282.583805
 20
119.309444
 30
0.0
 10
281.380696
 20
119.808457
 30
0.0
 10
280.881667
 20
121.011597
 30
0.0
 10
281.380696
 20
122.210327
 30
0.0
 10
282.583805
 20
122.704931
 30
0.0
 10
282.583805
 20
122.704931
 30
0.0
  0
LWPOLYLINE
  5
15d
100
AcDbEntity
  8
LED_Mount
 62
1
100
AcDbPolyline
 90
10
 70
0
 10
306.802028
 20
122.704931
 30
0.0
 10
308.005110
 20
122.210327
 30
0.0
 10
308.504167
 20
121.011597
 30
0.0
 10
308.005173
 20
119.808457
 30
0.0
 10
306.802028
 20
119.309444
 30
0.0
 10
305.603233
 20
119.808457
 30
0.0
 10
305.108695
 20
121.011597
 30
0.0
 10
305.603180
 20
122.210327
 30
0.0
 10
306.802028
 20
122.704931
 30
0.0
 10
306.802028
 20
122.704931
 30
0.0
  0
LWPOLYLINE
  5
15e
100
AcDbEntity
  8
LED_Mount
 62
1
100
AcDbPolyline
 90
10
 70
0
 10
333.401472
 20
122.704931
 30
0.0
 10
334.604554
 20
122.210327
 30
0.0
 10
335.103611
 20
121.011597
 30
0.0
 10
334.604618
 20
119.808457
 30
0.0
 10
333.401472
 20
119.309444
 30
0.0
 10
332.202677
 20
119.808457
 30
0.0
 10
331.708139
 20
121.011597
 30
0.0
 10
332.202624
 20
122.210327
 30
0.0
 10
333.401472
 20
122.704931
 30
0.0
 10
333.401472
 20
122.704931
 30
0.0
  0
LWPOLYLINE
  5
15f
100
AcDbEntity
  8
LED_Mount
 62
1
100
AcDbPolyline
 90
10
 70
0
 10
370.302028
 20
122.704931
 30
0.0
 10
371.505110
 20
122.210327
 30
0.0
 10
372.004167
 20
121.011597
 30
0.0
 10
371.505173
 20
119.808457
 30
0.0
 10
370.302028
 20
119.309444
 30
0.0
 10
369.103233
 20
119.808457
 30
0.0
 10
368.608695
 20
121.011597
 30
0.0
 10
369.103180
 20
122.210327
 30
0.0
 10
370.302028
 20
122.704931
 30
0.0
 10
370.302028
 20
122.704931
 30
0.0
  0
LWPOLYLINE
  5
160
100
AcDbEntity
  8
LED_Mount
 62
1
100
AcDbPolyline
 90
10
 70
0
 10
396.901472
 20
122.704931
 30
0.0
 10
398.104565
 20
122.210327
 30
0.0
 10
398.603611
 20
121.011597
 30
0.0
 10
398.104618
 20
119.808457
 30
0.0
 10
396.901472
 20
119.309444
 30
0.0
 10
395.702667
 20
119.808457
 30
0.0
 10
395.208139
 20
121.011597
 30
0.0
 10
395.702614
 20
122.210327
 30
0.0
 10
396.901472
 20
122.704931
 30
0.0
 10
396.901472
 20
122.704931
 30
0.0
  0
LWPOLYLINE
  5
161
100
AcDbEntity
  8
LED_Mount
 62
1
100
AcDbPolyline
 90
10
 70
0
 10
421.040278
 20
122.704931
 30
0.0
 10
422.243455
 20
122.210327
 30
0.0
 10
422.742416
 20
121.011597
 30
0.0
 10
422.243433
 20
119.808457
 30
0.0
 10
421.040278
 20
119.309444
 30
0.0
 10
419.837122
 20
119.808457
 30
0.0
 10
419.338139
 20
121.011597
 30
0.0
 10
419.837122
 20
122.210327
 30
0.0
 10
421.040278
 20
122.704931
 30
0.0
 10
421.040278
 20
122.704931
 30
0.0
  0
LWPOLYLINE
  5
162
100
AcDbEntity
  8
LED_Mount
 62
1
100
AcDbPolyline
 90
10
 70
0
 10
447.639722
 20
122.704931
 30
0.0
 10
448.842899
 20
122.210327
 30
0.0
 10
449.341861
 20
121.011597
 30
0.0
 10
448.842878
 20
119.808457
 30
0.0
 10
447.639722
 20
119.309444
 30
0.0
 10
446.440969
 20
119.808457
 30
0.0
 10
445.946389
 20
121.011597
 30
0.0
 10
446.440969
 20
122.210327
 30
0.0
 10
447.639722
 20
122.704931
 30
0.0
 10
447.639722
 20
122.704931
 30
0.0
  0
LWPOLYLINE
  5
163
100
AcDbEntity
  8
LED_Mount
 62
1
100
AcDbPolyline
 90
10
 70
0
 10
11.747500
 20
116.134444
 30
0.0
 10
12.950658
 20
115.635431
 30
0.0
 10
13.449653
 20
114.432292
 30
0.0
 10
12.950658
 20
113.229151
 30
0.0
 10
11.747500
 20
112.730139
 30
0.0
 10
10.548752
 20
113.229151
 30
0.0
 10
10.054167
 20
114.432292
 30
0.0
 10
10.548752
 20
115.635431
 30
0.0
 10
11.747500
 20
116.134444
 30
0.0
 10
11.747500
 20
116.134444
 30
0.0
  0
LWPOLYLINE
  5
164
100
AcDbEntity
  8
LED_Mount
 62
1
100
AcDbPolyline
 90
10
 70
0
 10
32.067500
 20
116.134444
 30
0.0
 10
33.270657
 20
115.635431
 30
0.0
 10
33.769653
 20
114.432292
 30
0.0
 10
33.270657
 20
113.229151
 30
0.0
 10
32.067500
 20
112.730139
 30
0.0
 10
30.868751
 20
113.229151
 30
0.0
 10
30.374167
 20
114.432292
 30
0.0
 10
30.868751
 20
115.635431
 30
0.0
 10
32.067500
 20
116.134444
 30
0.0
 10
32.067500
 20
116.134444
 30
0.0
  0
LWPOLYLINE
  5
165
100
AcDbEntity
  8
LED_Mount
 62
1
100
AcDbPolyline
 90
10
 70
0
 10
38.955486
 20
113.030000
 30
0.0
 10
40.684391
 20
112.311509
 30
0.0
 10
41.398472
 20
110.578194
 30
0.0
 10
40.684391
 20
108.844880
 30
0.0
 10
38.955486
 20
108.126389
 30
0.0
 10
37.222172
 20
108.844880
 30
0.0
 10
36.503681
 20
110.578194
 30
0.0
 10
37.222172
 20
112.311509
 30
0.0
 10
38.955486
 20
113.030000
 30
0.0
 10
38.955486
 20
113.030000
 30
0.0
  0
LWPOLYLINE
  5
166
100
AcDbEntity
  8
LED_Mount
 62
1
100
AcDbPolyline
 90
10
 70
0
 10
38.955486
 20
98.028125
 30
0.0
 10
40.684391
 20
97.309634
 30
0.0
 10
41.398472
 20
95.576319
 30
0.0
 10
40.684391
 20
93.843005
 30
0.0
 10
38.955486
 20
93.124514
 30
0.0
 10
37.222172
 20
93.843005
 30
0.0
 10
36.503681
 20
95.576319
 30
0.0
 10
37.222172
 20
97.309634
 30
0.0
 10
38.955486
 20
98.028125
 30
0.0
 10
38.955486
 20
98.028125
 30
0.0
  0
LWPOLYLINE
  5
167
100
AcDbEntity
  8
LED_Mount
 62
1
100
AcDbPolyline
 90
10
 70
0
 10
137.133542
 20
97.878194
 30
0.0
 10
138.336699
 20
97.379181
 30
0.0
 10
138.835694
 20
96.176042
 30
0.0
 10
138.336699
 20
94.972901
 30
0.0
 10
137.133542
 20
94.473889
 30
0.0
 10
135.934793
 20
94.972901
 30
0.0
 10
135.440208
 20
96.176042
 30
0.0
 10
135.934793
 20
97.379181
 30
0.0
 10
137.133542
 20
97.878194
 30
0.0
 10
137.133542
 20
97.878194
 30
0.0
  0
LWPOLYLINE
  5
168
100
AcDbEntity
  8
LED_Mount
 62
1
100
AcDbPolyline
 90
10
 70
0
 10
249.634375
 20
97.878194
 30
0.0
 10
250.837532
 20
97.379181
 30
0.0
 10
251.336528
 20
96.176042
 30
0.0
 10
250.837532
 20
94.972901
 30
0.0
 10
249.634375
 20
94.473889
 30
0.0
 10
248.431217
 20
94.972901
 30
0.0
 10
247.932222
 20
96.176042
 30
0.0
 10
248.431217
 20
97.379181
 30
0.0
 10
249.634375
 20
97.878194
 30
0.0
 10
249.634375
 20
97.878194
 30
0.0
  0
LWPOLYLINE
  5
169
100
AcDbEntity
  8
LED_Mount
 62
1
100
AcDbPolyline
 90
10
 70
0
 10
362.135194
 20
97.878194
 30
0.0
 10
363.338385
 20
97.379181
 30
0.0
 10
363.837361
 20
96.176042
 30
0.0
 10
363.338385
 20
94.972901
 30
0.0
 10
362.135194
 20
94.473889
 30
0.0
 10
360.932113
 20
94.972901
 30
0.0
 10
360.433056
 20
96.176042
 30
0.0
 10
360.932049
 20
97.379181
 30
0.0
 10
362.135194
 20
97.878194
 30
0.0
 10
362.135194
 20
97.878194
 30
0.0
  0
LWPOLYLINE
  5
16a
100
AcDbEntity
  8
LED_Mount
 62
1
100
AcDbPolyline
 90
10
 70
0
 10
474.636028
 20
97.878194
 30
0.0
 10
475.839218
 20
97.379181
 30
0.0
 10
476.338194
 20
96.176042
 30
0.0
 10
475.839208
 20
94.972901
 30
0.0
 10
474.636028
 20
94.473889
 30
0.0
 10
473.432935
 20
94.972901
 30
0.0
 10
472.933889
 20
96.176042
 30
0.0
 10
473.432882
 20
97.379181
 30
0.0
 10
474.636028
 20
97.878194
 30
0.0
 10
474.636028
 20
97.878194
 30
0.0
  0
LWPOLYLINE
  5
16b
100
AcDbEntity
  8
LED_Mount
 62
1
100
AcDbPolyline
 90
10
 70
0
 10
61.109931
 20
96.299514
 30
0.0
 10
70.035208
 20
96.299514
 30
0.0
 10
70.537917
 20
95.796806
 30
0.0
 10
70.537917
 20
93.874167
 30
0.0
 10
70.035208
 20
93.371458
 30
0.0
 10
61.109931
 20
93.371458
 30
0.0
 10
60.607222
 20
93.874167
 30
0.0
 10
60.607222
 20
95.796806
 30
0.0
 10
61.109931
 20
96.299514
 30
0.0
 10
61.109931
 20
96.299514
 30
0.0
  0
LWPOLYLINE
  5
16c
100
AcDbEntity
  8
LED_Mount
 62
1
100
AcDbPolyline
 90
10
 70
0
 10
429.877361
 20
96.299514
 30
0.0
 10
438.802639
 20
96.299514
 30
0.0
 10
439.305361
 20
95.796806
 30
0.0
 10
439.305361
 20
93.874167
 30
0.0
 10
438.802639
 20
93.371458
 30
0.0
 10
429.877361
 20
93.371458
 30
0.0
 10
429.383472
 20
93.874167
 30
0.0
 10
429.383472
 20
95.796806
 30
0.0
 10
429.877361
 20
96.299514
 30
0.0
 10
429.877361
 20
96.299514
 30
0.0
  0
LWPOLYLINE
  5
16d
100
AcDbEntity
  8
LED_Mount
 62
1
100
AcDbPolyline
 90
10
 70
0
 10
13.061597
 20
88.026875
 30
0.0
 10
14.790502
 20
87.308384
 30
0.0
 10
15.504583
 20
85.575069
 30
0.0
 10
14.790502
 20
83.841755
 30
0.0
 10
13.061597
 20
83.123264
 30
0.0
 10
11.328283
 20
83.841755
 30
0.0
 10
10.609792
 20
85.575069
 30
0.0
 10
11.328283
 20
87.308384
 30
0.0
 10
13.061597
 20
88.026875
 30
0.0
 10
13.061597
 20
88.026875
 30
0.0
  0
LWPOLYLINE
  5
16e
100
AcDbEntity
  8
LED_Mount
 62
1
100
AcDbPolyline
 90
10
 70
0
 10
28.054653
 20
88.026875
 30
0.0
 10
29.787967
 20
87.308384
 30
0.0
 10
30.506458
 20
85.575069
 30
0.0
 10
29.787967
 20
83.841755
 30
0.0
 10
28.054653
 20
83.123264
 30
0.0
 10
26.325748
 20
83.841755
 30
0.0
 10
25.611667
 20
85.575069
 30
0.0
 10
26.325748
 20
87.308384
 30
0.0
 10
28.054653
 20
88.026875
 30
0.0
 10
28.054653
 20
88.026875
 30
0.0
  0
LWPOLYLINE
  5
16f
100
AcDbEntity
  8
LED_Mount
 62
1
100
AcDbPolyline
 90
10
 70
0
 10
32.455556
 20
81.756250
 30
0.0
 10
33.654303
 20
81.257237
 30
0.0
 10
34.148889
 20
80.054097
 30
0.0
 10
33.654303
 20
78.855366
 30
0.0
 10
32.455556
 20
78.360764
 30
0.0
 10
31.252397
 20
78.855366
 30
0.0
 10
30.753403
 20
80.054097
 30
0.0
 10
31.252397
 20
81.257237
 30
0.0
 10
32.455556
 20
81.756250
 30
0.0
 10
32.455556
 20
81.756250
 30
0.0
  0
LWPOLYLINE
  5
170
100
AcDbEntity
  8
LED_Mount
 62
1
100
AcDbPolyline
 90
10
 70
0
 10
77.972708
 20
81.756250
 30
0.0
 10
79.175866
 20
81.257237
 30
0.0
 10
79.674861
 20
80.054097
 30
0.0
 10
79.175866
 20
78.855368
 30
0.0
 10
77.972708
 20
78.360764
 30
0.0
 10
76.773961
 20
78.855368
 30
0.0
 10
76.279375
 20
80.054097
 30
0.0
 10
76.773961
 20
81.257237
 30
0.0
 10
77.972708
 20
81.756250
 30
0.0
 10
77.972708
 20
81.756250
 30
0.0
  0
LWPOLYLINE
  5
171
100
AcDbEntity
  8
LED_Mount
 62
1
100
AcDbPolyline
 90
10
 70
0
 10
128.825625
 20
81.756250
 30
0.0
 10
130.028782
 20
81.257237
 30
0.0
 10
130.527778
 20
80.054097
 30
0.0
 10
130.028782
 20
78.855368
 30
0.0
 10
128.825625
 20
78.360764
 30
0.0
 10
127.622468
 20
78.855368
 30
0.0
 10
127.123472
 20
80.054097
 30
0.0
 10
127.622468
 20
81.257237
 30
0.0
 10
128.825625
 20
81.756250
 30
0.0
 10
128.825625
 20
81.756250
 30
0.0
  0
LWPOLYLINE
  5
172
100
AcDbEntity
  8
LED_Mount
 62
1
100
AcDbPolyline
 90
10
 70
0
 10
179.696181
 20
81.756250
 30
0.0
 10
180.899338
 20
81.257237
 30
0.0
 10
181.398333
 20
80.054097
 30
0.0
 10
180.899338
 20
78.855368
 30
0.0
 10
179.696181
 20
78.360764
 30
0.0
 10
178.493023
 20
78.855368
 30
0.0
 10
177.994028
 20
80.054097
 30
0.0
 10
178.493023
 20
81.257237
 30
0.0
 10
179.696181
 20
81.756250
 30
0.0
 10
179.696181
 20
81.756250
 30
0.0
  0
LWPOLYLINE
  5
173
100
AcDbEntity
  8
LED_Mount
 62
1
100
AcDbPolyline
 90
10
 70
0
 10
230.963611
 20
81.756250
 30
0.0
 10
232.166769
 20
81.257237
 30
0.0
 10
232.665764
 20
80.054097
 30
0.0
 10
232.166769
 20
78.855368
 30
0.0
 10
230.963611
 20
78.360764
 30
0.0
 10
229.764863
 20
78.855368
 30
0.0
 10
229.270278
 20
80.054097
 30
0.0
 10
229.764863
 20
81.257237
 30
0.0
 10
230.963611
 20
81.756250
 30
0.0
 10
230.963611
 20
81.756250
 30
0.0
  0
LWPOLYLINE
  5
174
100
AcDbEntity
  8
LED_Mount
 62
1
100
AcDbPolyline
 90
10
 70
0
 10
282.239861
 20
81.756250
 30
0.0
 10
283.438614
 20
81.257237
 30
0.0
 10
283.933194
 20
80.054097
 30
0.0
 10
283.438614
 20
78.855368
 30
0.0
 10
282.239861
 20
78.360764
 30
0.0
 10
281.036704
 20
78.855368
 30
0.0
 10
280.537708
 20
80.054097
 30
0.0
 10
281.036704
 20
81.257237
 30
0.0
 10
282.239861
 20
81.756250
 30
0.0
 10
282.239861
 20
81.756250
 30
0.0
  0
LWPOLYLINE
  5
175
100
AcDbEntity
  8
LED_Mount
 62
1
100
AcDbPolyline
 90
10
 70
0
 10
332.184361
 20
81.756250
 30
0.0
 10
333.387552
 20
81.257237
 30
0.0
 10
333.886528
 20
80.054097
 30
0.0
 10
333.387552
 20
78.855368
 30
0.0
 10
332.184361
 20
78.360764
 30
0.0
 10
330.985682
 20
78.855368
 30
0.0
 10
330.491028
 20
80.054097
 30
0.0
 10
330.985618
 20
81.257237
 30
0.0
 10
332.184361
 20
81.756250
 30
0.0
 10
332.184361
 20
81.756250
 30
0.0
  0
LWPOLYLINE
  5
176
100
AcDbEntity
  8
LED_Mount
 62
1
100
AcDbPolyline
 90
10
 70
0
 10
370.284361
 20
81.756250
 30
0.0
 10
371.487552
 20
81.257237
 30
0.0
 10
371.986528
 20
80.054097
 30
0.0
 10
371.487552
 20
78.855368
 30
0.0
 10
370.284361
 20
78.360764
 30
0.0
 10
369.085682
 20
78.855368
 30
0.0
 10
368.591028
 20
80.054097
 30
0.0
 10
369.085693
 20
81.257237
 30
0.0
 10
370.284361
 20
81.756250
 30
0.0
 10
370.284361
 20
81.756250
 30
0.0
  0
LWPOLYLINE
  5
177
100
AcDbEntity
  8
LED_Mount
 62
1
100
AcDbPolyline
 90
10
 70
0
 10
421.084361
 20
81.756250
 30
0.0
 10
422.287552
 20
81.257237
 30
0.0
 10
422.786528
 20
80.054097
 30
0.0
 10
422.287541
 20
78.855368
 30
0.0
 10
421.084361
 20
78.360764
 30
0.0
 10
419.885724
 20
78.855368
 30
0.0
 10
419.391028
 20
80.054097
 30
0.0
 10
419.885714
 20
81.257237
 30
0.0
 10
421.084361
 20
81.756250
 30
0.0
 10
421.084361
 20
81.756250
 30
0.0
  0
LWPOLYLINE
  5
178
100
AcDbEntity
  8
LED_Mount
 62
1
100
AcDbPolyline
 90
10
 70
0
 10
466.954306
 20
81.756250
 30
0.0
 10
468.153059
 20
81.257237
 30
0.0
 10
468.647639
 20
80.054097
 30
0.0
 10
468.153059
 20
78.855368
 30
0.0
 10
466.954306
 20
78.360764
 30
0.0
 10
465.751136
 20
78.855368
 30
0.0
 10
465.252139
 20
80.054097
 30
0.0
 10
465.751199
 20
81.257237
 30
0.0
 10
466.954306
 20
81.756250
 30
0.0
 10
466.954306
 20
81.756250
 30
0.0
  0
LWPOLYLINE
  5
179
100
AcDbEntity
  8
LED_Mount
 62
1
100
AcDbPolyline
 90
166
 70
0
 10
41.592500
 20
80.018819
 30
0.0
 10
73.016181
 20
80.018819
 30
0.0
 10
73.415055
 20
78.100614
 30
0.0
 10
74.478412
 20
76.536630
 30
0.0
 10
76.049785
 20
75.483428
 30
0.0
 10
77.972708
 20
75.097569
 30
0.0
 10
79.897010
 20
75.483428
 30
0.0
 10
81.471415
 20
76.536630
 30
0.0
 10
82.537803
 20
78.100614
 30
0.0
 10
82.938056
 20
80.018819
 30
0.0
 10
123.860278
 20
80.018819
 30
0.0
 10
124.260530
 20
78.100614
 30
0.0
 10
125.326919
 20
76.536630
 30
0.0
 10
126.901323
 20
75.483428
 30
0.0
 10
128.825625
 20
75.097569
 30
0.0
 10
130.749927
 20
75.483428
 30
0.0
 10
132.324331
 20
76.536630
 30
0.0
 10
133.390720
 20
78.100614
 30
0.0
 10
133.790972
 20
80.018819
 30
0.0
 10
174.739653
 20
80.018819
 30
0.0
 10
175.138541
 20
78.100625
 30
0.0
 10
176.201901
 20
76.536639
 30
0.0
 10
177.773268
 20
75.483432
 30
0.0
 10
179.696181
 20
75.097569
 30
0.0
 10
181.620482
 20
75.483428
 30
0.0
 10
183.194887
 20
76.536630
 30
0.0
 10
184.261275
 20
78.100614
 30
0.0
 10
184.661528
 20
80.018819
 30
0.0
 10
226.007083
 20
80.018819
 30
0.0
 10
226.405958
 20
78.100614
 30
0.0
 10
227.469314
 20
76.536630
 30
0.0
 10
229.040687
 20
75.483428
 30
0.0
 10
230.963611
 20
75.097569
 30
0.0
 10
232.887913
 20
75.483428
 30
0.0
 10
234.462318
 20
76.536630
 30
0.0
 10
235.528706
 20
78.100614
 30
0.0
 10
235.928958
 20
80.018819
 30
0.0
 10
277.274514
 20
80.018819
 30
0.0
 10
277.674766
 20
78.100614
 30
0.0
 10
278.741155
 20
76.536630
 30
0.0
 10
280.315559
 20
75.483428
 30
0.0
 10
282.239861
 20
75.097569
 30
0.0
 10
284.162799
 20
75.483428
 30
0.0
 10
285.734199
 20
76.536630
 30
0.0
 10
286.797562
 20
78.100614
 30
0.0
 10
287.196389
 20
80.018819
 30
0.0
 10
327.227861
 20
80.018819
 30
0.0
 10
327.626716
 20
78.100614
 30
0.0
 10
328.690143
 20
76.536630
 30
0.0
 10
330.261554
 20
75.483428
 30
0.0
 10
332.184361
 20
75.097569
 30
0.0
 10
334.108763
 20
75.483428
 30
0.0
 10
335.683190
 20
76.536630
 30
0.0
 10
336.749543
 20
78.100614
 30
0.0
 10
337.149722
 20
80.018819
 30
0.0
 10
365.327861
 20
80.018819
 30
0.0
 10
365.726684
 20
78.100614
 30
0.0
 10
366.790058
 20
76.536630
 30
0.0
 10
368.361459
 20
75.483428
 30
0.0
 10
370.284361
 20
75.097569
 30
0.0
 10
372.208763
 20
75.483428
 30
0.0
 10
373.783190
 20
76.536630
 30
0.0
 10
374.849543
 20
78.100614
 30
0.0
 10
375.249722
 20
80.018819
 30
0.0
 10
416.127861
 20
80.018819
 30
0.0
 10
416.526684
 20
78.100614
 30
0.0
 10
417.590058
 20
76.536630
 30
0.0
 10
419.161459
 20
75.483428
 30
0.0
 10
421.084361
 20
75.097569
 30
0.0
 10
423.008763
 20
75.483428
 30
0.0
 10
424.583190
 20
76.536630
 30
0.0
 10
425.649543
 20
78.100614
 30
0.0
 10
426.049722
 20
80.018819
 30
0.0
 10
457.808528
 20
80.018819
 30
0.0
 10
460.149304
 20
79.549191
 30
0.0
 10
462.058071
 20
78.266709
 30
0.0
 10
463.343580
 20
76.360977
 30
0.0
 10
463.814583
 20
74.021597
 30
0.0
 10
463.814583
 20
50.597153
 30
0.0
 10
463.343580
 20
48.256395
 30
0.0
 10
462.058071
 20
46.347631
 30
0.0
 10
460.149304
 20
45.062117
 30
0.0
 10
457.808528
 20
44.591111
 30
0.0
 10
426.049722
 20
44.591111
 30
0.0
 10
425.649678
 20
46.510815
 30
0.0
 10
424.583338
 20
48.077817
 30
0.0
 10
423.008850
 20
49.133984
 30
0.0
 10
421.084361
 20
49.521181
 30
0.0
 10
419.161923
 20
49.133984
 30
0.0
 10
417.590407
 20
48.077817
 30
0.0
 10
416.526744
 20
46.510815
 30
0.0
 10
416.127861
 20
44.591111
 30
0.0
 10
375.249722
 20
44.591111
 30
0.0
 10
374.849689
 20
46.510815
 30
0.0
 10
373.783370
 20
48.077817
 30
0.0
 10
372.208886
 20
49.133984
 30
0.0
 10
370.284361
 20
49.521181
 30
0.0
 10
368.361911
 20
49.133984
 30
0.0
 10
366.790397
 20
48.077817
 30
0.0
 10
365.726740
 20
46.510815
 30
0.0
 10
365.327861
 20
44.591111
 30
0.0
 10
337.149722
 20
44.591111
 30
0.0
 10
336.749709
 20
46.510815
 30
0.0
 10
335.683423
 20
48.077817
 30
0.0
 10
334.108945
 20
49.133984
 30
0.0
 10
332.184361
 20
49.521181
 30
0.0
 10
330.261915
 20
49.133984
 30
0.0
 10
328.690386
 20
48.077817
 30
0.0
 10
327.626720
 20
46.510815
 30
0.0
 10
327.227861
 20
44.591111
 30
0.0
 10
287.196389
 20
44.591111
 30
0.0
 10
286.797709
 20
46.510815
 30
0.0
 10
285.734379
 20
48.077817
 30
0.0
 10
284.162922
 20
49.133984
 30
0.0
 10
282.239861
 20
49.521181
 30
0.0
 10
280.315429
 20
49.133984
 30
0.0
 10
278.740961
 20
48.077817
 30
0.0
 10
277.674606
 20
46.510815
 30
0.0
 10
277.274514
 20
44.591111
 30
0.0
 10
235.928958
 20
44.591111
 30
0.0
 10
235.528866
 20
46.510815
 30
0.0
 10
234.462511
 20
48.077817
 30
0.0
 10
232.888043
 20
49.133984
 30
0.0
 10
230.963611
 20
49.521181
 30
0.0
 10
229.040557
 20
49.133984
 30
0.0
 10
227.469121
 20
48.077817
 30
0.0
 10
226.405798
 20
46.510815
 30
0.0
 10
226.007083
 20
44.591111
 30
0.0
 10
184.661528
 20
44.591111
 30
0.0
 10
184.261435
 20
46.510815
 30
0.0
 10
183.195081
 20
48.077817
 30
0.0
 10
181.620613
 20
49.133984
 30
0.0
 10
179.696181
 20
49.521181
 30
0.0
 10
177.773137
 20
49.133980
 30
0.0
 10
176.201707
 20
48.077808
 30
0.0
 10
175.138382
 20
46.510804
 30
0.0
 10
174.739653
 20
44.591111
 30
0.0
 10
133.790972
 20
44.591111
 30
0.0
 10
133.390880
 20
46.510815
 30
0.0
 10
132.324525
 20
48.077817
 30
0.0
 10
130.750057
 20
49.133984
 30
0.0
 10
128.825625
 20
49.521181
 30
0.0
 10
126.901193
 20
49.133984
 30
0.0
 10
125.326725
 20
48.077817
 30
0.0
 10
124.260370
 20
46.510815
 30
0.0
 10
123.860278
 20
44.591111
 30
0.0
 10
82.938056
 20
44.591111
 30
0.0
 10
82.537963
 20
46.510814
 30
0.0
 10
81.471607
 20
48.077816
 30
0.0
 10
79.897139
 20
49.133984
 30
0.0
 10
77.972708
 20
49.521181
 30
0.0
 10
76.049654
 20
49.133984
 30
0.0
 10
74.478218
 20
48.077816
 30
0.0
 10
73.414895
 20
46.510814
 30
0.0
 10
73.016181
 20
44.591111
 30
0.0
 10
41.592500
 20
44.591111
 30
0.0
 10
39.253122
 20
45.062117
 30
0.0
 10
37.347389
 20
46.347631
 30
0.0
 10
36.064906
 20
48.256395
 30
0.0
 10
35.595278
 20
50.597153
 30
0.0
 10
35.595278
 20
74.021597
 30
0.0
 10
36.064906
 20
76.360977
 30
0.0
 10
37.347389
 20
78.266709
 30
0.0
 10
39.253122
 20
79.549191
 30
0.0
 10
41.592500
 20
80.018819
 30
0.0
 10
41.592500
 20
80.018819
 30
0.0
  0
LWPOLYLINE
  5
17a
100
AcDbEntity
  8
LED_Mount
 62
1
100
AcDbPolyline
 90
10
 70
0
 10
32.455556
 20
46.257986
 30
0.0
 10
33.654303
 20
45.758973
 30
0.0
 10
34.148889
 20
44.555833
 30
0.0
 10
33.654303
 20
43.352694
 30
0.0
 10
32.455556
 20
42.853681
 30
0.0
 10
31.252398
 20
43.352694
 30
0.0
 10
30.753403
 20
44.555833
 30
0.0
 10
31.252398
 20
45.758973
 30
0.0
 10
32.455556
 20
46.257986
 30
0.0
 10
32.455556
 20
46.257986
 30
0.0
  0
LWPOLYLINE
  5
17b
100
AcDbEntity
  8
LED_Mount
 62
1
100
AcDbPolyline
 90
10
 70
0
 10
77.972708
 20
46.257986
 30
0.0
 10
79.175866
 20
45.758973
 30
0.0
 10
79.674861
 20
44.555833
 30
0.0
 10
79.175866
 20
43.352694
 30
0.0
 10
77.972708
 20
42.853681
 30
0.0
 10
76.773961
 20
43.352694
 30
0.0
 10
76.279375
 20
44.555833
 30
0.0
 10
76.773961
 20
45.758973
 30
0.0
 10
77.972708
 20
46.257986
 30
0.0
 10
77.972708
 20
46.257986
 30
0.0
  0
LWPOLYLINE
  5
17c
100
AcDbEntity
  8
LED_Mount
 62
1
100
AcDbPolyline
 90
10
 70
0
 10
128.825625
 20
46.257986
 30
0.0
 10
130.028782
 20
45.758973
 30
0.0
 10
130.527778
 20
44.555833
 30
0.0
 10
130.028782
 20
43.352694
 30
0.0
 10
128.825625
 20
42.853681
 30
0.0
 10
127.622468
 20
43.352694
 30
0.0
 10
127.123472
 20
44.555833
 30
0.0
 10
127.622468
 20
45.758973
 30
0.0
 10
128.825625
 20
46.257986
 30
0.0
 10
128.825625
 20
46.257986
 30
0.0
  0
LWPOLYLINE
  5
17d
100
AcDbEntity
  8
LED_Mount
 62
1
100
AcDbPolyline
 90
10
 70
0
 10
179.696181
 20
46.257986
 30
0.0
 10
180.899338
 20
45.758973
 30
0.0
 10
181.398333
 20
44.555833
 30
0.0
 10
180.899338
 20
43.352694
 30
0.0
 10
179.696181
 20
42.853681
 30
0.0
 10
178.493023
 20
43.352694
 30
0.0
 10
177.994028
 20
44.555833
 30
0.0
 10
178.493023
 20
45.758973
 30
0.0
 10
179.696181
 20
46.257986
 30
0.0
 10
179.696181
 20
46.257986
 30
0.0
  0
LWPOLYLINE
  5
17e
100
AcDbEntity
  8
LED_Mount
 62
1
100
AcDbPolyline
 90
10
 70
0
 10
230.963611
 20
46.257986
 30
0.0
 10
232.166769
 20
45.758973
 30
0.0
 10
232.665764
 20
44.555833
 30
0.0
 10
232.166769
 20
43.352694
 30
0.0
 10
230.963611
 20
42.853681
 30
0.0
 10
229.764863
 20
43.352694
 30
0.0
 10
229.270278
 20
44.555833
 30
0.0
 10
229.764863
 20
45.758973
 30
0.0
 10
230.963611
 20
46.257986
 30
0.0
 10
230.963611
 20
46.257986
 30
0.0
  0
LWPOLYLINE
  5
17f
100
AcDbEntity
  8
LED_Mount
 62
1
100
AcDbPolyline
 90
10
 70
0
 10
282.239861
 20
46.257986
 30
0.0
 10
283.438614
 20
45.758973
 30
0.0
 10
283.933194
 20
44.555833
 30
0.0
 10
283.438614
 20
43.352694
 30
0.0
 10
282.239861
 20
42.853681
 30
0.0
 10
281.036704
 20
43.352694
 30
0.0
 10
280.537708
 20
44.555833
 30
0.0
 10
281.036704
 20
45.758973
 30
0.0
 10
282.239861
 20
46.257986
 30
0.0
 10
282.239861
 20
46.257986
 30
0.0
  0
LWPOLYLINE
  5
180
100
AcDbEntity
  8
LED_Mount
 62
1
100
AcDbPolyline
 90
10
 70
0
 10
332.184361
 20
46.257986
 30
0.0
 10
333.387552
 20
45.758973
 30
0.0
 10
333.886528
 20
44.555833
 30
0.0
 10
333.387552
 20
43.352694
 30
0.0
 10
332.184361
 20
42.853681
 30
0.0
 10
330.985629
 20
43.352694
 30
0.0
 10
330.491028
 20
44.555833
 30
0.0
 10
330.985618
 20
45.758973
 30
0.0
 10
332.184361
 20
46.257986
 30
0.0
 10
332.184361
 20
46.257986
 30
0.0
  0
LWPOLYLINE
  5
181
100
AcDbEntity
  8
LED_Mount
 62
1
100
AcDbPolyline
 90
10
 70
0
 10
370.284361
 20
46.257986
 30
0.0
 10
371.487552
 20
45.758973
 30
0.0
 10
371.986528
 20
44.555833
 30
0.0
 10
371.487552
 20
43.352694
 30
0.0
 10
370.284361
 20
42.853681
 30
0.0
 10
369.085629
 20
43.352694
 30
0.0
 10
368.591028
 20
44.555833
 30
0.0
 10
369.085618
 20
45.758973
 30
0.0
 10
370.284361
 20
46.257986
 30
0.0
 10
370.284361
 20
46.257986
 30
0.0
  0
LWPOLYLINE
  5
182
100
AcDbEntity
  8
LED_Mount
 62
1
100
AcDbPolyline
 90
10
 70
0
 10
421.084361
 20
46.257986
 30
0.0
 10
422.287552
 20
45.758973
 30
0.0
 10
422.786528
 20
44.555833
 30
0.0
 10
422.287541
 20
43.352694
 30
0.0
 10
421.084361
 20
42.853681
 30
0.0
 10
419.885661
 20
43.352694
 30
0.0
 10
419.391028
 20
44.555833
 30
0.0
 10
419.885629
 20
45.758973
 30
0.0
 10
421.084361
 20
46.257986
 30
0.0
 10
421.084361
 20
46.257986
 30
0.0
  0
LWPOLYLINE
  5
183
100
AcDbEntity
  8
LED_Mount
 62
1
100
AcDbPolyline
 90
10
 70
0
 10
466.954306
 20
46.257986
 30
0.0
 10
468.153059
 20
45.758973
 30
0.0
 10
468.647639
 20
44.555833
 30
0.0
 10
468.153059
 20
43.352694
 30
0.0
 10
466.954306
 20
42.853681
 30
0.0
 10
465.751136
 20
43.352694
 30
0.0
 10
465.252139
 20
44.555833
 30
0.0
 10
465.751136
 20
45.758973
 30
0.0
 10
466.954306
 20
46.257986
 30
0.0
 10
466.954306
 20
46.257986
 30
0.0
  0
LWPOLYLINE
  5
184
100
AcDbEntity
  8
LED_Mount
 62
1
100
AcDbPolyline
 90
10
 70
0
 10
24.632708
 20
26.608264
 30
0.0
 10
25.835866
 20
26.113660
 30
0.0
 10
26.334861
 20
24.914931
 30
0.0
 10
25.835866
 20
23.711790
 30
0.0
 10
24.632708
 20
23.212778
 30
0.0
 10
23.433960
 20
23.711790
 30
0.0
 10
22.939375
 20
24.914931
 30
0.0
 10
23.433960
 20
26.113660
 30
0.0
 10
24.632708
 20
26.608264
 30
0.0
 10
24.632708
 20
26.608264
 30
0.0
  0
LWPOLYLINE
  5
185
100
AcDbEntity
  8
LED_Mount
 62
1
100
AcDbPolyline
 90
10
 70
0
 10
137.133542
 20
26.608264
 30
0.0
 10
138.336699
 20
26.113660
 30
0.0
 10
138.835694
 20
24.914931
 30
0.0
 10
138.336699
 20
23.711790
 30
0.0
 10
137.133542
 20
23.212778
 30
0.0
 10
135.934793
 20
23.711790
 30
0.0
 10
135.440208
 20
24.914931
 30
0.0
 10
135.934793
 20
26.113660
 30
0.0
 10
137.133542
 20
26.608264
 30
0.0
 10
137.133542
 20
26.608264
 30
0.0
  0
LWPOLYLINE
  5
186
100
AcDbEntity
  8
LED_Mount
 62
1
100
AcDbPolyline
 90
10
 70
0
 10
249.634375
 20
26.608264
 30
0.0
 10
250.837532
 20
26.113660
 30
0.0
 10
251.336528
 20
24.914931
 30
0.0
 10
250.837532
 20
23.711790
 30
0.0
 10
249.634375
 20
23.212778
 30
0.0
 10
248.431217
 20
23.711790
 30
0.0
 10
247.932222
 20
24.914931
 30
0.0
 10
248.431217
 20
26.113660
 30
0.0
 10
249.634375
 20
26.608264
 30
0.0
 10
249.634375
 20
26.608264
 30
0.0
  0
LWPOLYLINE
  5
187
100
AcDbEntity
  8
LED_Mount
 62
1
100
AcDbPolyline
 90
10
 70
0
 10
362.135194
 20
26.608264
 30
0.0
 10
363.338385
 20
26.113660
 30
0.0
 10
363.837361
 20
24.914931
 30
0.0
 10
363.338385
 20
23.711790
 30
0.0
 10
362.135194
 20
23.212778
 30
0.0
 10
360.932070
 20
23.711790
 30
0.0
 10
360.433056
 20
24.914931
 30
0.0
 10
360.932049
 20
26.113660
 30
0.0
 10
362.135194
 20
26.608264
 30
0.0
 10
362.135194
 20
26.608264
 30
0.0
  0
SPLINE
  5
188
100
AcDbEntity
  8
LED_Mount
 62
1
100
AcDbSpline
 70
8
 71
3
 72
8
 73
4
 74
0
 40
0
 40
0
 40
0
 40
0
 40
1
 40
1
 40
1
 40
1
 10
476.335907
 20
24.911111
 30
0.0
 10
476.335907
 20
23.972275
 30
0.0
 10
475.574791
 20
23.211198
 30
0.0
 10
474.635907
 20
23.211198
 30
0.0
  0
SPLINE
  5
189
100
AcDbEntity
  8
LED_Mount
 62
1
100
AcDbSpline
 70
8
 71
3
 72
8
 73
4
 74
0
 40
0
 40
0
 40
0
 40
0
 40
1
 40
1
 40
1
 40
1
 10
474.635907
 20
23.211198
 30
0.0
 10
473.697022
 20
23.211198
 30
0.0
 10
472.935907
 20
23.972275
 30
0.0
 10
472.935907
 20
24.911111
 30
0.0
  0
SPLINE
  5
18a
100
AcDbEntity
  8
LED_Mount
 62
1
100
AcDbSpline
 70
8
 71
3
 72
8
 73
4
 74
0
 40
0
 40
0
 40
0
 40
0
 40
1
 40
1
 40
1
 40
1
 10
472.935907
 20
24.911111
 30
0.0
 10
472.935907
 20
25.849947
 30
0.0
 10
473.697022
 20
26.611024
 30
0.0
 10
474.635907
 20
26.611024
 30
0.0
  0
SPLINE
  5
18b
100
AcDbEntity
  8
LED_Mount
 62
1
100
AcDbSpline
 70
8
 71
3
 72
8
 73
4
 74
0
 40
0
 40
0
 40
0
 40
0
 40
1
 40
1
 40
1
 40
1
 10
474.635907
 20
26.611024
 30
0.0
 10
475.574791
 20
26.611024
 30
0.0
 10
476.335907
 20
25.849947
 30
0.0
 10
476.335907
 20
24.911111
 30
0.0
  0
LWPOLYLINE
  5
18c
100
AcDbEntity
  8
LED_Mount
 62
1
100
AcDbPolyline
 90
10
 70
0
 10
474.636028
 20
26.608264
 30
0.0
 10
475.839218
 20
26.113660
 30
0.0
 10
476.338194
 20
24.914931
 30
0.0
 10
475.839208
 20
23.711790
 30
0.0
 10
474.636028
 20
23.212778
 30
0.0
 10
473.432904
 20
23.711790
 30
0.0
 10
472.933889
 20
24.914931
 30
0.0
 10
473.432882
 20
26.113660
 30
0.0
 10
474.636028
 20
26.608264
 30
0.0
 10
474.636028
 20
26.608264
 30
0.0
  0
SPLINE
  5
18d
100
AcDbEntity
  8
LED_Mount
 62
1
100
AcDbSpline
 70
8
 71
3
 72
8
 73
4
 74
0
 40
0
 40
0
 40
0
 40
0
 40
1
 40
1
 40
1
 40
1
 10
251.336199
 20
24.911111
 30
0.0
 10
251.336199
 20
23.972275
 30
0.0
 10
250.575083
 20
23.211198
 30
0.0
 10
249.636199
 20
23.211198
 30
0.0
  0
SPLINE
  5
18e
100
AcDbEntity
  8
LED_Mount
 62
1
100
AcDbSpline
 70
8
 71
3
 72
8
 73
4
 74
0
 40
0
 40
0
 40
0
 40
0
 40
1
 40
1
 40
1
 40
1
 10
249.636199
 20
23.211198
 30
0.0
 10
248.697314
 20
23.211198
 30
0.0
 10
247.936198
 20
23.972275
 30
0.0
 10
247.936198
 20
24.911111
 30
0.0
  0
SPLINE
  5
18f
100
AcDbEntity
  8
LED_Mount
 62
1
100
AcDbSpline
 70
8
 71
3
 72
8
 73
4
 74
0
 40
0
 40
0
 40
0
 40
0
 40
1
 40
1
 40
1
 40
1
 10
247.936198
 20
24.911111
 30
0.0
 10
247.936198
 20
25.849947
 30
0.0
 10
248.697314
 20
26.611024
 30
0.0
 10
249.636199
 20
26.611024
 30
0.0
  0
SPLINE
  5
190
100
AcDbEntity
  8
LED_Mount
 62
1
100
AcDbSpline
 70
8
 71
3
 72
8
 73
4
 74
0
 40
0
 40
0
 40
0
 40
0
 40
1
 40
1
 40
1
 40
1
 10
249.636199
 20
26.611024
 30
0.0
 10
250.575083
 20
26.611024
 30
0.0
 10
251.336199
 20
25.849947
 30
0.0
 10
251.336199
 20
24.911111
 30
0.0
  0
LWPOLYLINE
  5
191
100
AcDbEntity
  8
LED_Mount
 62
1
100
AcDbPolyline
 90
2
 70
0
 10
476.335907
 20
24.911111
 30
0.0
 10
476.335907
 20
24.911111
 30
0.0
  0
SPLINE
  5
192
100
AcDbEntity
  8
LED_Mount
 62
1
100
AcDbSpline
 70
8
 71
3
 72
8
 73
4
 74
0
 40
0
 40
0
 40
0
 40
0
 40
1
 40
1
 40
1
 40
1
 10
138.836359
 20
24.911111
 30
0.0
 10
138.836359
 20
23.972275
 30
0.0
 10
138.075243
 20
23.211198
 30
0.0
 10
137.136359
 20
23.211198
 30
0.0
  0
SPLINE
  5
193
100
AcDbEntity
  8
LED_Mount
 62
1
100
AcDbSpline
 70
8
 71
3
 72
8
 73
4
 74
0
 40
0
 40
0
 40
0
 40
0
 40
1
 40
1
 40
1
 40
1
 10
137.136359
 20
23.211198
 30
0.0
 10
136.197474
 20
23.211198
 30
0.0
 10
135.436359
 20
23.972275
 30
0.0
 10
135.436359
 20
24.911111
 30
0.0
  0
SPLINE
  5
194
100
AcDbEntity
  8
LED_Mount
 62
1
100
AcDbSpline
 70
8
 71
3
 72
8
 73
4
 74
0
 40
0
 40
0
 40
0
 40
0
 40
1
 40
1
 40
1
 40
1
 10
135.436359
 20
24.911111
 30
0.0
 10
135.436359
 20
25.849947
 30
0.0
 10
136.197474
 20
26.611024
 30
0.0
 10
137.136359
 20
26.611024
 30
0.0
  0
SPLINE
  5
195
100
AcDbEntity
  8
LED_Mount
 62
1
100
AcDbSpline
 70
8
 71
3
 72
8
 73
4
 74
0
 40
0
 40
0
 40
0
 40
0
 40
1
 40
1
 40
1
 40
1
 10
137.136359
 20
26.611024
 30
0.0
 10
138.075243
 20
26.611024
 30
0.0
 10
138.836359
 20
25.849947
 30
0.0
 10
138.836359
 20
24.911111
 30
0.0
  0
LWPOLYLINE
  5
196
100
AcDbEntity
  8
LED_Mount
 62
1
100
AcDbPolyline
 90
2
 70
0
 10
251.336199
 20
24.911111
 30
0.0
 10
251.336199
 20
24.911111
 30
0.0
  0
SPLINE
  5
197
100
AcDbEntity
  8
LED_Mount
 62
1
100
AcDbSpline
 70
8
 71
3
 72
8
 73
4
 74
0
 40
0
 40
0
 40
0
 40
0
 40
1
 40
1
 40
1
 40
1
 10
363.836033
 20
24.911111
 30
0.0
 10
363.836033
 20
23.972275
 30
0.0
 10
363.074917
 20
23.211198
 30
0.0
 10
362.136033
 20
23.211198
 30
0.0
  0
SPLINE
  5
198
100
AcDbEntity
  8
LED_Mount
 62
1
100
AcDbSpline
 70
8
 71
3
 72
8
 73
4
 74
0
 40
0
 40
0
 40
0
 40
0
 40
1
 40
1
 40
1
 40
1
 10
362.136033
 20
23.211198
 30
0.0
 10
361.197149
 20
23.211198
 30
0.0
 10
360.436033
 20
23.972275
 30
0.0
 10
360.436033
 20
24.911111
 30
0.0
  0
SPLINE
  5
199
100
AcDbEntity
  8
LED_Mount
 62
1
100
AcDbSpline
 70
8
 71
3
 72
8
 73
4
 74
0
 40
0
 40
0
 40
0
 40
0
 40
1
 40
1
 40
1
 40
1
 10
360.436033
 20
24.911111
 30
0.0
 10
360.436033
 20
25.849947
 30
0.0
 10
361.197149
 20
26.611024
 30
0.0
 10
362.136033
 20
26.611024
 30
0.0
  0
SPLINE
  5
19a
100
AcDbEntity
  8
LED_Mount
 62
1
100
AcDbSpline
 70
8
 71
3
 72
8
 73
4
 74
0
 40
0
 40
0
 40
0
 40
0
 40
1
 40
1
 40
1
 40
1
 10
362.136033
 20
26.611024
 30
0.0
 10
363.074917
 20
26.611024
 30
0.0
 10
363.836033
 20
25.849947
 30
0.0
 10
363.836033
 20
24.911111
 30
0.0
  0
LWPOLYLINE
  5
19b
100
AcDbEntity
  8
LED_Mount
 62
1
100
AcDbPolyline
 90
2
 70
0
 10
138.836359
 20
24.911111
 30
0.0
 10
138.836359
 20
24.911111
 30
0.0
  0
LWPOLYLINE
  5
19c
100
AcDbEntity
  8
LED_Mount
 62
1
100
AcDbPolyline
 90
2
 70
0
 10
363.836033
 20
24.911111
 30
0.0
 10
363.836033
 20
24.911111
 30
0.0
  0
ENDSEC
  0
SECTION
  2
OBJECTS
  0
DICTIONARY
  5
C
330
0
100
AcDbDictionary
  3
ACAD_GROUP
350
D
  3
ACAD_MLINESTYLE
350
17
  0
DICTIONARY
  5
D
330
C
100
AcDbDictionary
  0
DICTIONARY
  5
1A
330
C
100
AcDbDictionary
  0
DICTIONARY
  5
17
330
C
100
AcDbDictionary
  3
STANDARD
350
18
  0
DICTIONARY
  5
19
330
C
100
AcDbDictionary
  0
ENDSEC
  0
EOF
