<?xml version="1.0" encoding="UTF-8" standalone="no"?>
<!-- Created with Inkscape (http://www.inkscape.org/) -->

<svg
   xmlns:osb="http://www.openswatchbook.org/uri/2009/osb"
   xmlns:dc="http://purl.org/dc/elements/1.1/"
   xmlns:cc="http://creativecommons.org/ns#"
   xmlns:rdf="http://www.w3.org/1999/02/22-rdf-syntax-ns#"
   xmlns:svg="http://www.w3.org/2000/svg"
   xmlns="http://www.w3.org/2000/svg"
   xmlns:sodipodi="http://sodipodi.sourceforge.net/DTD/sodipodi-0.dtd"
   xmlns:inkscape="http://www.inkscape.org/namespaces/inkscape"
   width="1710"
   height="945"
   id="svg2"
   version="1.1"
   inkscape:version="0.48.3.1 r9886"
   sodipodi:docname="panel-assembly-to-export-switches.svg"
   inkscape:export-filename="/home/alexios/PROJECTS/HARDWARE/cft/documentation/panel/panel-assembly.png"
   inkscape:export-xdpi="300"
   inkscape:export-ydpi="300"
   enable-background="new">
  <defs
     id="defs4">
    <linearGradient
       id="linearGradient7481"
       osb:paint="solid">
      <stop
         style="stop-color:#000000;stop-opacity:1;"
         offset="0"
         id="stop7483" />
    </linearGradient>
    <marker
       inkscape:stockid="Arrow2Mend"
       orient="auto"
       refY="0.0"
       refX="0.0"
       id="Arrow2Mend"
       style="overflow:visible;">
      <path
         id="path6408"
         style="fill-rule:evenodd;stroke-width:0.62500000;stroke-linejoin:round;"
         d="M 8.7185878,4.0337352 L -2.2072895,0.016013256 L 8.7185884,-4.0017078 C 6.9730900,-1.6296469 6.9831476,1.6157441 8.7185878,4.0337352 z "
         transform="scale(0.6) rotate(180) translate(0,0)" />
    </marker>
    <marker
       inkscape:stockid="Arrow2Mstart"
       orient="auto"
       refY="0.0"
       refX="0.0"
       id="Arrow2Mstart"
       style="overflow:visible">
      <path
         id="path6405"
         style="fill-rule:evenodd;stroke-width:0.62500000;stroke-linejoin:round"
         d="M 8.7185878,4.0337352 L -2.2072895,0.016013256 L 8.7185884,-4.0017078 C 6.9730900,-1.6296469 6.9831476,1.6157441 8.7185878,4.0337352 z "
         transform="scale(0.6) translate(0,0)" />
    </marker>
    <marker
       inkscape:stockid="Arrow2Lstart"
       orient="auto"
       refY="0.0"
       refX="0.0"
       id="Arrow2Lstart"
       style="overflow:visible">
      <path
         id="path6399"
         style="fill-rule:evenodd;stroke-width:0.62500000;stroke-linejoin:round"
         d="M 8.7185878,4.0337352 L -2.2072895,0.016013256 L 8.7185884,-4.0017078 C 6.9730900,-1.6296469 6.9831476,1.6157441 8.7185878,4.0337352 z "
         transform="scale(1.1) translate(1,0)" />
    </marker>
    <marker
       inkscape:stockid="Arrow1Lstart"
       orient="auto"
       refY="0.0"
       refX="0.0"
       id="Arrow1Lstart"
       style="overflow:visible">
      <path
         id="path6381"
         d="M 0.0,0.0 L 5.0,-5.0 L -12.5,0.0 L 5.0,5.0 L 0.0,0.0 z "
         style="fill-rule:evenodd;stroke:#000000;stroke-width:1.0pt"
         transform="scale(0.8) translate(12.5,0)" />
    </marker>
  </defs>
  <sodipodi:namedview
     id="base"
     pagecolor="#ffffff"
     bordercolor="#666666"
     borderopacity="1.0"
     inkscape:pageopacity="0.0"
     inkscape:pageshadow="2"
     inkscape:zoom="0.82166667"
     inkscape:cx="830.70926"
     inkscape:cy="161.5506"
     inkscape:document-units="px"
     inkscape:current-layer="layer17"
     showgrid="false"
     units="in"
     inkscape:window-width="1920"
     inkscape:window-height="1060"
     inkscape:window-x="-4"
     inkscape:window-y="-3"
     inkscape:window-maximized="1"
     inkscape:snap-global="true"
     inkscape:snap-object-midpoints="true"
     showguides="false"
     inkscape:guide-bbox="true"
     inkscape:snap-bbox="true"
     inkscape:object-nodes="true"
     inkscape:snap-bbox-edge-midpoints="true"
     showborder="false"
     inkscape:showpageshadow="false"
     inkscape:bbox-paths="true"
     inkscape:bbox-nodes="true">
    <sodipodi:guide
       orientation="1,0"
       position="164.54553,277.10913"
       id="guide31424" />
    <inkscape:grid
       type="xygrid"
       id="grid31426"
       empspacing="5"
       visible="true"
       enabled="true"
       snapvisiblegridlinesonly="true" />
    <sodipodi:guide
       orientation="1,0"
       position="209.54552,277.09497"
       id="guide31428" />
    <sodipodi:guide
       orientation="1,0"
       position="254.54559,277.09497"
       id="guide31430" />
    <sodipodi:guide
       orientation="1,0"
       position="344.54548,346.03607"
       id="guide31432" />
    <sodipodi:guide
       orientation="1,0"
       position="389.54549,277.09513"
       id="guide31434" />
    <sodipodi:guide
       orientation="1,0"
       position="434.5452,339.52667"
       id="guide31436" />
    <sodipodi:guide
       orientation="1,0"
       position="524.54552,339.53571"
       id="guide31438" />
    <sodipodi:guide
       orientation="1,0"
       position="569.54552,339.53573"
       id="guide31440" />
    <sodipodi:guide
       orientation="1,0"
       position="614.54552,339.53573"
       id="guide31442" />
    <sodipodi:guide
       orientation="1,0"
       position="659.54542,346.04513"
       id="guide31444" />
    <sodipodi:guide
       orientation="1,0"
       position="704.54539,346.04513"
       id="guide31446" />
    <sodipodi:guide
       orientation="1,0"
       position="749.54539,346.04513"
       id="guide31448" />
    <sodipodi:guide
       orientation="1,0"
       position="794.54539,346.04513"
       id="guide31450" />
    <sodipodi:guide
       orientation="1,0"
       position="839.54549,346.04513"
       id="guide31452" />
    <sodipodi:guide
       orientation="1,0"
       position="884.54539,346.04513"
       id="guide31454" />
    <sodipodi:guide
       orientation="1,0"
       position="929.54549,346.04513"
       id="guide31456" />
    <sodipodi:guide
       orientation="1,0"
       position="974.54539,346.04513"
       id="guide31458" />
    <sodipodi:guide
       orientation="1,0"
       position="1019.5455,346.04513"
       id="guide31460" />
    <sodipodi:guide
       orientation="1,0"
       position="1064.5454,346.04513"
       id="guide31462" />
    <sodipodi:guide
       orientation="1,0"
       position="1109.5455,346.04513"
       id="guide31464" />
    <sodipodi:guide
       orientation="1,0"
       position="1154.5454,346.04513"
       id="guide31466" />
    <sodipodi:guide
       orientation="1,0"
       position="1199.5455,346.04513"
       id="guide31468" />
    <sodipodi:guide
       orientation="1,0"
       position="1289.5455,435.99198"
       id="guide31470" />
    <sodipodi:guide
       orientation="1,0"
       position="1334.5454,435.99198"
       id="guide31472" />
    <sodipodi:guide
       orientation="1,0"
       position="1379.5455,435.99198"
       id="guide31474" />
    <sodipodi:guide
       orientation="1,0"
       position="1424.5454,435.99198"
       id="guide31476" />
    <sodipodi:guide
       orientation="1,0"
       position="1469.5455,435.99198"
       id="guide31478" />
    <sodipodi:guide
       orientation="1,0"
       position="1514.5454,435.99198"
       id="guide31480" />
    <sodipodi:guide
       orientation="1,0"
       position="1559.5454,435.99198"
       id="guide31482" />
    <sodipodi:guide
       orientation="1,0"
       position="1604.5455,435.99198"
       id="guide31484" />
    <sodipodi:guide
       orientation="0,1"
       position="1627.1805,222.54297"
       id="guide31486" />
    <sodipodi:guide
       orientation="0,1"
       position="178.02498,699.50775"
       id="guide33557" />
    <sodipodi:guide
       orientation="0,1"
       position="216.54031,723.80557"
       id="guide34155" />
    <sodipodi:guide
       orientation="0,1"
       position="214.03314,323.49498"
       id="guide34157" />
    <sodipodi:guide
       orientation="0,1"
       position="1771.6536,407.48033"
       id="guide34178" />
    <sodipodi:guide
       orientation="1,0"
       position="41.633725,670.24134"
       id="guide34239" />
    <sodipodi:guide
       orientation="0,1"
       position="0,664.75"
       id="guide34243" />
    <sodipodi:guide
       orientation="1,0"
       position="1681.7808,735.24149"
       id="guide35000" />
    <sodipodi:guide
       orientation="0,1"
       position="1687.8044,735.24149"
       id="guide35002" />
    <sodipodi:guide
       orientation="0,1"
       position="1687.8044,88.267715"
       id="guide35004" />
    <sodipodi:guide
       orientation="1,0"
       position="87.294771,729.21817"
       id="guide35008" />
    <sodipodi:guide
       orientation="1,0"
       position="114.9874,277.64291"
       id="guide36264" />
    <sodipodi:guide
       orientation="0,1"
       position="114.9874,283.66623"
       id="guide36268" />
    <sodipodi:guide
       orientation="0,1"
       position="160.20542,264.71778"
       id="guide36272" />
    <sodipodi:guide
       orientation="0,1"
       position="164.54542,180.36806"
       id="guide36276" />
    <sodipodi:guide
       orientation="0,1"
       position="121.01102,157.87883"
       id="guide36278" />
    <sodipodi:guide
       orientation="1,0"
       position="1654.5543,277.64291"
       id="guide36280" />
    <sodipodi:guide
       orientation="0,1"
       position="199.84573,123.56791"
       id="guide36411" />
  </sodipodi:namedview>
  <metadata
     id="metadata7">
    <rdf:RDF>
      <cc:Work
         rdf:about="">
        <dc:format>image/svg+xml</dc:format>
        <dc:type
           rdf:resource="http://purl.org/dc/dcmitype/StillImage" />
        <dc:title />
      </cc:Work>
    </rdf:RDF>
  </metadata>
  <g
     inkscape:groupmode="layer"
     id="layer17"
     inkscape:label="Switch Mount"
     style="display:inline">
    <path
       style="opacity:0.75;color:#000000;fill:#ff6600;fill-opacity:1;fill-rule:nonzero;stroke:none;stroke-width:1.77165353;marker:none;visibility:visible;display:inline;overflow:visible;enable-background:accumulate"
       d="M 108.78125 633.875 C 97.0033 633.875 87.53125 643.34705 87.53125 655.125 L 87.53125 789.78125 C 87.53125 801.5592 97.0033 811.03125 108.78125 811.03125 L 1660.75 811.03125 C 1672.528 811.03125 1682 801.5592 1682 789.78125 L 1682 655.125 C 1682 643.34705 1672.528 633.875 1660.75 633.875 L 108.78125 633.875 z M 115 655.3125 C 118.32675 655.3125 121 658.01717 121 661.34375 C 121 664.67034 118.32675 667.34375 115 667.34375 C 111.67324 667.34375 108.96875 664.67034 108.96875 661.34375 C 108.96875 658.01717 111.67324 655.3125 115 655.3125 z M 209.53125 675.9375 C 211.92817 675.9375 213.875 677.88433 213.875 680.28125 C 213.875 682.67816 211.92817 684.625 209.53125 684.625 C 207.13434 684.625 205.21875 682.67816 205.21875 680.28125 C 205.21875 677.88433 207.13434 675.9375 209.53125 675.9375 z M 254.53125 675.9375 C 256.92817 675.9375 258.875 677.88433 258.875 680.28125 C 258.875 682.67816 256.92817 684.625 254.53125 684.625 C 252.13434 684.625 250.21875 682.67816 250.21875 680.28125 C 250.21875 677.88433 252.13434 675.9375 254.53125 675.9375 z M 344.53125 675.9375 C 346.92817 675.9375 348.875 677.88433 348.875 680.28125 C 348.875 682.67816 346.92817 684.625 344.53125 684.625 C 342.13434 684.625 340.21875 682.67816 340.21875 680.28125 C 340.21875 677.88433 342.13434 675.9375 344.53125 675.9375 z M 389.53125 675.9375 C 391.92817 675.9375 393.875 677.88433 393.875 680.28125 C 393.875 682.67816 391.92817 684.625 389.53125 684.625 C 387.13434 684.625 385.21875 682.67816 385.21875 680.28125 C 385.21875 677.88433 387.13434 675.9375 389.53125 675.9375 z M 434.53125 675.9375 C 436.92817 675.9375 438.875 677.88433 438.875 680.28125 C 438.875 682.67816 436.92817 684.625 434.53125 684.625 C 432.13434 684.625 430.21875 682.67816 430.21875 680.28125 C 430.21875 677.88433 432.13434 675.9375 434.53125 675.9375 z M 524.53125 675.9375 C 526.92817 675.9375 528.875 677.88433 528.875 680.28125 C 528.875 682.67816 526.92817 684.625 524.53125 684.625 C 522.13434 684.625 520.21875 682.67816 520.21875 680.28125 C 520.21875 677.88433 522.13434 675.9375 524.53125 675.9375 z M 569.53125 675.9375 C 571.92817 675.9375 573.875 677.88433 573.875 680.28125 C 573.875 682.67816 571.92817 684.625 569.53125 684.625 C 567.13434 684.625 565.21875 682.67816 565.21875 680.28125 C 565.21875 677.88433 567.13434 675.9375 569.53125 675.9375 z M 614.53125 675.9375 C 616.92817 675.9375 618.875 677.88433 618.875 680.28125 C 618.875 682.67816 616.92817 684.625 614.53125 684.625 C 612.13434 684.625 610.21875 682.67816 610.21875 680.28125 C 610.21875 677.88433 612.13434 675.9375 614.53125 675.9375 z M 659.53125 675.9375 C 661.92817 675.9375 663.875 677.88433 663.875 680.28125 C 663.875 682.67816 661.92817 684.625 659.53125 684.625 C 657.13434 684.625 655.21875 682.67816 655.21875 680.28125 C 655.21875 677.88433 657.13434 675.9375 659.53125 675.9375 z M 704.53125 675.9375 C 706.92817 675.9375 708.875 677.88433 708.875 680.28125 C 708.875 682.67816 706.92817 684.625 704.53125 684.625 C 702.13434 684.625 700.21875 682.67816 700.21875 680.28125 C 700.21875 677.88433 702.13434 675.9375 704.53125 675.9375 z M 749.53125 675.9375 C 751.92817 675.9375 753.875 677.88433 753.875 680.28125 C 753.875 682.67816 751.92817 684.625 749.53125 684.625 C 747.13434 684.625 745.21875 682.67816 745.21875 680.28125 C 745.21875 677.88433 747.13434 675.9375 749.53125 675.9375 z M 794.53125 675.9375 C 796.92817 675.9375 798.875 677.88433 798.875 680.28125 C 798.875 682.67816 796.92817 684.625 794.53125 684.625 C 792.13434 684.625 790.21875 682.67816 790.21875 680.28125 C 790.21875 677.88433 792.13434 675.9375 794.53125 675.9375 z M 839.53125 675.9375 C 841.92817 675.9375 843.875 677.88433 843.875 680.28125 C 843.875 682.67816 841.92817 684.625 839.53125 684.625 C 837.13434 684.625 835.21875 682.67816 835.21875 680.28125 C 835.21875 677.88433 837.13434 675.9375 839.53125 675.9375 z M 884.53125 675.9375 C 886.92817 675.9375 888.875 677.88433 888.875 680.28125 C 888.875 682.67816 886.92817 684.625 884.53125 684.625 C 882.13434 684.625 880.21875 682.67816 880.21875 680.28125 C 880.21875 677.88433 882.13434 675.9375 884.53125 675.9375 z M 929.53125 675.9375 C 931.92817 675.9375 933.875 677.88433 933.875 680.28125 C 933.875 682.67816 931.92817 684.625 929.53125 684.625 C 927.13434 684.625 925.21875 682.67816 925.21875 680.28125 C 925.21875 677.88433 927.13434 675.9375 929.53125 675.9375 z M 974.53125 675.9375 C 976.92817 675.9375 978.875 677.88433 978.875 680.28125 C 978.875 682.67816 976.92817 684.625 974.53125 684.625 C 972.13434 684.625 970.21875 682.67816 970.21875 680.28125 C 970.21875 677.88433 972.13434 675.9375 974.53125 675.9375 z M 1019.5312 675.9375 C 1021.9281 675.9375 1023.875 677.88433 1023.875 680.28125 C 1023.875 682.67816 1021.9282 684.625 1019.5312 684.625 C 1017.1342 684.625 1015.2188 682.67816 1015.2188 680.28125 C 1015.2188 677.88433 1017.1342 675.9375 1019.5312 675.9375 z M 1064.5312 675.9375 C 1066.9282 675.9375 1068.875 677.88433 1068.875 680.28125 C 1068.875 682.67816 1066.9282 684.625 1064.5312 684.625 C 1062.1343 684.625 1060.2186 682.67816 1060.2188 680.28125 C 1060.2188 677.88433 1062.1344 675.9375 1064.5312 675.9375 z M 1109.5312 675.9375 C 1111.9282 675.9375 1113.875 677.88433 1113.875 680.28125 C 1113.875 682.67816 1111.9282 684.625 1109.5312 684.625 C 1107.1343 684.625 1105.2186 682.67816 1105.2188 680.28125 C 1105.2188 677.88433 1107.1344 675.9375 1109.5312 675.9375 z M 1154.5312 675.9375 C 1156.9282 675.9375 1158.875 677.88433 1158.875 680.28125 C 1158.875 682.67816 1156.9282 684.625 1154.5312 684.625 C 1152.1343 684.625 1150.2186 682.67816 1150.2188 680.28125 C 1150.2188 677.88433 1152.1344 675.9375 1154.5312 675.9375 z M 1199.5312 675.9375 C 1201.9282 675.9375 1203.875 677.88433 1203.875 680.28125 C 1203.875 682.67816 1201.9282 684.625 1199.5312 684.625 C 1197.1345 684.625 1195.2188 682.67816 1195.2188 680.28125 C 1195.2188 677.88433 1197.1345 675.9375 1199.5312 675.9375 z M 1289.5312 675.9375 C 1291.9283 675.9375 1293.875 677.88433 1293.875 680.28125 C 1293.875 682.67816 1291.9283 684.625 1289.5312 684.625 C 1287.1345 684.625 1285.2188 682.67816 1285.2188 680.28125 C 1285.2188 677.88433 1287.1345 675.9375 1289.5312 675.9375 z M 1334.5312 675.9375 C 1336.9283 675.9375 1338.875 677.88433 1338.875 680.28125 C 1338.875 682.67816 1336.9283 684.625 1334.5312 684.625 C 1332.1345 684.625 1330.2188 682.67816 1330.2188 680.28125 C 1330.2188 677.88433 1332.1344 675.9375 1334.5312 675.9375 z M 1379.5312 675.9375 C 1381.9282 675.9375 1383.875 677.88433 1383.875 680.28125 C 1383.875 682.67816 1381.9283 684.625 1379.5312 684.625 C 1377.1344 684.625 1375.2186 682.67816 1375.2188 680.28125 C 1375.2188 677.88433 1377.1345 675.9375 1379.5312 675.9375 z M 1424.5312 675.9375 C 1426.9281 675.9375 1428.875 677.88433 1428.875 680.28125 C 1428.875 682.67816 1426.9282 684.625 1424.5312 684.625 C 1422.1343 684.625 1420.2186 682.67816 1420.2188 680.28125 C 1420.2188 677.88433 1422.1344 675.9375 1424.5312 675.9375 z M 1469.5312 675.9375 C 1471.9281 675.9375 1473.875 677.88433 1473.875 680.28125 C 1473.875 682.67816 1471.9282 684.625 1469.5312 684.625 C 1467.1343 684.625 1465.2186 682.67816 1465.2188 680.28125 C 1465.2188 677.88433 1467.1344 675.9375 1469.5312 675.9375 z M 1514.5312 675.9375 C 1516.9281 675.9375 1518.875 677.88433 1518.875 680.28125 C 1518.875 682.67816 1516.9282 684.625 1514.5312 684.625 C 1512.1343 684.625 1510.2186 682.67816 1510.2188 680.28125 C 1510.2188 677.88433 1512.1344 675.9375 1514.5312 675.9375 z M 1559.5312 675.9375 C 1561.9281 675.9375 1563.875 677.88433 1563.875 680.28125 C 1563.875 682.67816 1561.9282 684.625 1559.5312 684.625 C 1557.1343 684.625 1555.2186 682.67816 1555.2188 680.28125 C 1555.2188 677.88433 1557.1344 675.9375 1559.5312 675.9375 z M 1604.5312 675.9375 C 1606.9281 675.9375 1608.875 677.88433 1608.875 680.28125 C 1608.875 682.67816 1606.9282 684.625 1604.5312 684.625 C 1602.1344 684.625 1600.2186 682.67816 1600.2188 680.28125 C 1600.2188 677.88433 1602.1345 675.9375 1604.5312 675.9375 z M 144.28125 699.96875 L 274.8125 699.96875 C 275.794 699.96875 276.59375 700.73726 276.59375 701.71875 L 276.59375 743.1875 C 276.59375 744.16899 275.794 744.96875 274.8125 744.96875 L 144.28125 744.96875 C 143.29975 744.96875 142.5 744.16899 142.5 743.1875 L 142.5 701.71875 C 142.5 700.73726 143.29975 699.96875 144.28125 699.96875 z M 324.28125 699.96875 L 454.8125 699.96875 C 455.794 699.96875 456.59375 700.73726 456.59375 701.71875 L 456.59375 743.1875 C 456.59375 744.16899 455.794 744.96875 454.8125 744.96875 L 324.28125 744.96875 C 323.29975 744.96875 322.5 744.16899 322.5 743.1875 L 322.5 701.71875 C 322.5 700.73726 323.29975 699.96875 324.28125 699.96875 z M 503.8125 699.96875 L 1220.2812 699.96875 C 1221.263 699.96875 1222.0314 700.73726 1222.0312 701.71875 L 1222.0312 743.1875 C 1222.0312 744.16899 1221.2629 744.96875 1220.2812 744.96875 L 503.8125 744.96875 C 502.83101 744.96875 502.03125 744.16899 502.03125 743.1875 L 502.03125 701.71875 C 502.03125 700.73726 502.83101 699.96875 503.8125 699.96875 z M 1268.8125 699.96875 L 1625.2812 699.96875 C 1626.2629 699.96875 1627.0312 700.73726 1627.0312 701.71875 L 1627.0312 743.1875 C 1627.0313 744.16899 1626.2628 744.96875 1625.2812 744.96875 L 1268.8125 744.96875 C 1267.831 744.96875 1267.0314 744.16899 1267.0312 743.1875 L 1267.0312 701.71875 C 1267.0312 700.73726 1267.831 699.96875 1268.8125 699.96875 z M 164.53125 760.28125 C 166.92817 760.28125 168.875 762.22808 168.875 764.625 C 168.875 767.02191 166.92817 768.96875 164.53125 768.96875 C 162.13434 768.96875 160.21875 767.02191 160.21875 764.625 C 160.21875 762.22808 162.13434 760.28125 164.53125 760.28125 z M 209.53125 760.28125 C 211.92817 760.28125 213.875 762.22808 213.875 764.625 C 213.875 767.02191 211.92817 768.96875 209.53125 768.96875 C 207.13434 768.96875 205.21875 767.02191 205.21875 764.625 C 205.21875 762.22808 207.13434 760.28125 209.53125 760.28125 z M 344.53125 760.28125 C 346.92817 760.28125 348.875 762.22808 348.875 764.625 C 348.875 767.02191 346.92817 768.96875 344.53125 768.96875 C 342.13434 768.96875 340.21875 767.02191 340.21875 764.625 C 340.21875 762.22808 342.13434 760.28125 344.53125 760.28125 z M 389.53125 760.28125 C 391.92817 760.28125 393.875 762.22808 393.875 764.625 C 393.875 767.02191 391.92817 768.96875 389.53125 768.96875 C 387.13434 768.96875 385.21875 767.02191 385.21875 764.625 C 385.21875 762.22808 387.13434 760.28125 389.53125 760.28125 z M 434.53125 760.28125 C 436.92817 760.28125 438.875 762.22808 438.875 764.625 C 438.875 767.02191 436.92817 768.96875 434.53125 768.96875 C 432.13434 768.96875 430.21875 767.02191 430.21875 764.625 C 430.21875 762.22808 432.13434 760.28125 434.53125 760.28125 z M 524.53125 760.28125 C 526.92817 760.28125 528.875 762.22808 528.875 764.625 C 528.875 767.02191 526.92817 768.96875 524.53125 768.96875 C 522.13434 768.96875 520.21875 767.02191 520.21875 764.625 C 520.21875 762.22808 522.13434 760.28125 524.53125 760.28125 z M 569.53125 760.28125 C 571.92817 760.28125 573.875 762.22808 573.875 764.625 C 573.875 767.02191 571.92817 768.96875 569.53125 768.96875 C 567.13434 768.96875 565.21875 767.02191 565.21875 764.625 C 565.21875 762.22808 567.13434 760.28125 569.53125 760.28125 z M 614.53125 760.28125 C 616.92817 760.28125 618.875 762.22808 618.875 764.625 C 618.875 767.02191 616.92817 768.96875 614.53125 768.96875 C 612.13434 768.96875 610.21875 767.02191 610.21875 764.625 C 610.21875 762.22808 612.13434 760.28125 614.53125 760.28125 z M 659.53125 760.28125 C 661.92817 760.28125 663.875 762.22808 663.875 764.625 C 663.875 767.02191 661.92817 768.96875 659.53125 768.96875 C 657.13434 768.96875 655.21875 767.02191 655.21875 764.625 C 655.21875 762.22808 657.13434 760.28125 659.53125 760.28125 z M 704.53125 760.28125 C 706.92817 760.28125 708.875 762.22808 708.875 764.625 C 708.875 767.02191 706.92817 768.96875 704.53125 768.96875 C 702.13434 768.96875 700.21875 767.02191 700.21875 764.625 C 700.21875 762.22808 702.13434 760.28125 704.53125 760.28125 z M 749.53125 760.28125 C 751.92817 760.28125 753.875 762.22808 753.875 764.625 C 753.875 767.02191 751.92817 768.96875 749.53125 768.96875 C 747.13434 768.96875 745.21875 767.02191 745.21875 764.625 C 745.21875 762.22808 747.13434 760.28125 749.53125 760.28125 z M 794.53125 760.28125 C 796.92817 760.28125 798.875 762.22808 798.875 764.625 C 798.875 767.02191 796.92817 768.96875 794.53125 768.96875 C 792.13434 768.96875 790.21875 767.02191 790.21875 764.625 C 790.21875 762.22808 792.13434 760.28125 794.53125 760.28125 z M 839.53125 760.28125 C 841.92817 760.28125 843.875 762.22808 843.875 764.625 C 843.875 767.02191 841.92817 768.96875 839.53125 768.96875 C 837.13434 768.96875 835.21875 767.02191 835.21875 764.625 C 835.21875 762.22808 837.13434 760.28125 839.53125 760.28125 z M 884.53125 760.28125 C 886.92817 760.28125 888.875 762.22808 888.875 764.625 C 888.875 767.02191 886.92817 768.96875 884.53125 768.96875 C 882.13434 768.96875 880.21875 767.02191 880.21875 764.625 C 880.21875 762.22808 882.13434 760.28125 884.53125 760.28125 z M 929.53125 760.28125 C 931.92817 760.28125 933.875 762.22808 933.875 764.625 C 933.875 767.02191 931.92817 768.96875 929.53125 768.96875 C 927.13434 768.96875 925.21875 767.02191 925.21875 764.625 C 925.21875 762.22808 927.13434 760.28125 929.53125 760.28125 z M 974.53125 760.28125 C 976.92817 760.28125 978.875 762.22808 978.875 764.625 C 978.875 767.02191 976.92817 768.96875 974.53125 768.96875 C 972.13434 768.96875 970.21875 767.02191 970.21875 764.625 C 970.21875 762.22808 972.13434 760.28125 974.53125 760.28125 z M 1019.5312 760.28125 C 1021.9281 760.28125 1023.875 762.22808 1023.875 764.625 C 1023.875 767.02191 1021.9282 768.96875 1019.5312 768.96875 C 1017.1342 768.96875 1015.2188 767.02191 1015.2188 764.625 C 1015.2188 762.22808 1017.1342 760.28125 1019.5312 760.28125 z M 1064.5312 760.28125 C 1066.9282 760.28125 1068.875 762.22808 1068.875 764.625 C 1068.875 767.02191 1066.9282 768.96875 1064.5312 768.96875 C 1062.1343 768.96875 1060.2186 767.02191 1060.2188 764.625 C 1060.2188 762.22808 1062.1344 760.28125 1064.5312 760.28125 z M 1109.5312 760.28125 C 1111.9282 760.28125 1113.875 762.22808 1113.875 764.625 C 1113.875 767.02191 1111.9282 768.96875 1109.5312 768.96875 C 1107.1343 768.96875 1105.2186 767.02191 1105.2188 764.625 C 1105.2188 762.22808 1107.1344 760.28125 1109.5312 760.28125 z M 1154.5312 760.28125 C 1156.9282 760.28125 1158.875 762.22808 1158.875 764.625 C 1158.875 767.02191 1156.9282 768.96875 1154.5312 768.96875 C 1152.1343 768.96875 1150.2186 767.02191 1150.2188 764.625 C 1150.2188 762.22808 1152.1344 760.28125 1154.5312 760.28125 z M 1199.5312 760.28125 C 1201.9282 760.28125 1203.875 762.22808 1203.875 764.625 C 1203.875 767.02191 1201.9282 768.96875 1199.5312 768.96875 C 1197.1345 768.96875 1195.2188 767.02191 1195.2188 764.625 C 1195.2188 762.22808 1197.1345 760.28125 1199.5312 760.28125 z M 1289.5312 760.28125 C 1291.9283 760.28125 1293.875 762.22808 1293.875 764.625 C 1293.875 767.02191 1291.9283 768.96875 1289.5312 768.96875 C 1287.1345 768.96875 1285.2188 767.02191 1285.2188 764.625 C 1285.2188 762.22808 1287.1345 760.28125 1289.5312 760.28125 z M 1334.5312 760.28125 C 1336.9283 760.28125 1338.875 762.22808 1338.875 764.625 C 1338.875 767.02191 1336.9283 768.96875 1334.5312 768.96875 C 1332.1345 768.96875 1330.2188 767.02191 1330.2188 764.625 C 1330.2188 762.22808 1332.1344 760.28125 1334.5312 760.28125 z M 1379.5312 760.28125 C 1381.9282 760.28125 1383.875 762.22808 1383.875 764.625 C 1383.875 767.02191 1381.9283 768.96875 1379.5312 768.96875 C 1377.1344 768.96875 1375.2186 767.02191 1375.2188 764.625 C 1375.2188 762.22808 1377.1345 760.28125 1379.5312 760.28125 z M 1424.5312 760.28125 C 1426.9281 760.28125 1428.875 762.22808 1428.875 764.625 C 1428.875 767.02191 1426.9282 768.96875 1424.5312 768.96875 C 1422.1343 768.96875 1420.2186 767.02191 1420.2188 764.625 C 1420.2188 762.22808 1422.1344 760.28125 1424.5312 760.28125 z M 1469.5312 760.28125 C 1471.9281 760.28125 1473.875 762.22808 1473.875 764.625 C 1473.875 767.02191 1471.9282 768.96875 1469.5312 768.96875 C 1467.1343 768.96875 1465.2186 767.02191 1465.2188 764.625 C 1465.2188 762.22808 1467.1344 760.28125 1469.5312 760.28125 z M 1514.5312 760.28125 C 1516.9281 760.28125 1518.875 762.22808 1518.875 764.625 C 1518.875 767.02191 1516.9282 768.96875 1514.5312 768.96875 C 1512.1343 768.96875 1510.2186 767.02191 1510.2188 764.625 C 1510.2188 762.22808 1512.1344 760.28125 1514.5312 760.28125 z M 1559.5312 760.28125 C 1561.9281 760.28125 1563.875 762.22808 1563.875 764.625 C 1563.875 767.02191 1561.9282 768.96875 1559.5312 768.96875 C 1557.1343 768.96875 1555.2186 767.02191 1555.2188 764.625 C 1555.2188 762.22808 1557.1344 760.28125 1559.5312 760.28125 z M 1604.5312 760.28125 C 1606.9281 760.28125 1608.875 762.22808 1608.875 764.625 C 1608.875 767.02191 1606.9282 768.96875 1604.5312 768.96875 C 1602.1344 768.96875 1600.2186 767.02191 1600.2188 764.625 C 1600.2188 762.22808 1602.1345 760.28125 1604.5312 760.28125 z "
       id="rect35045" />
    <path
       transform="matrix(0.22547657,0,0,0.22547657,151.85927,543.49072)"
       style="color:#000000;fill:#ffffff;stroke:#ff0000;stroke-width:1.17860591;stroke-linecap:butt;stroke-linejoin:miter;stroke-miterlimit:4;stroke-dashoffset:0;stroke-opacity:1;marker:none;visibility:visible;display:inline;overflow:visible;enable-background:accumulate"
       d="m 75.511856,606.67725 c 0,10.63044 -8.617676,19.24812 -19.248119,19.24812 -10.630443,0 -19.24812,-8.61768 -19.24812,-19.24812 0,-10.63045 8.617677,-19.24812 19.24812,-19.24812 10.630443,0 19.248119,8.61767 19.248119,19.24812 z"
       id="path6075" />
    <path
       inkscape:connector-curvature="0"
       style="color:#000000;fill:#ffffff;stroke:#ff0000;stroke-width:0.26574802;stroke-linecap:butt;stroke-linejoin:miter;stroke-miterlimit:4;stroke-opacity:1;stroke-dashoffset:0;marker:none;visibility:visible;display:inline;overflow:visible;enable-background:accumulate"
       d="m 258.88545,764.63195 c 0,2.39691 -1.94308,4.34 -4.34,4.34 -2.39691,0 -4.34,-1.94309 -4.34,-4.34 0,-2.39692 1.94309,-4.34 4.34,-4.34 2.39692,0 4.34,1.94308 4.34,4.34 z"
       id="use35453" />
    <g
       id="g35605"
       transform="matrix(0.46448087,0,0,0.4644805,175.93803,172.9561)"
       inkscape:tile-cx="211.49998"
       inkscape:tile-cy="170.99998"
       inkscape:tile-w="63"
       inkscape:tile-h="108"
       inkscape:tile-x0="179.99999"
       inkscape:tile-y0="117"
       style="fill:#ffffff;fill-opacity:1;stroke:#ff0000;stroke-width:0.76285344;stroke-miterlimit:4;stroke-opacity:1;stroke-dasharray:none;display:inline" />
    <g
       style="fill:#ffffff;fill-opacity:1;stroke:#ff0000;stroke-width:0.76285344;stroke-miterlimit:4;stroke-opacity:1;stroke-dasharray:none;display:inline"
       inkscape:tile-y0="117"
       inkscape:tile-x0="179.99999"
       transform="matrix(0.46448087,0,0,0.4644805,175.93803,298.7435)"
       id="use35615" />
    <g
       style="fill:#ffffff;fill-opacity:1;stroke:#ff0000;stroke-width:0.76285344;stroke-miterlimit:4;stroke-opacity:1;stroke-dasharray:none;display:inline"
       inkscape:tile-y0="117"
       inkscape:tile-x0="179.99999"
       transform="matrix(0.46448087,0,0,0.4644805,1715.5049,172.9561)"
       id="use35617" />
    <g
       id="use35619"
       transform="matrix(0.46448087,0,0,0.4644805,1715.5049,298.7435)"
       inkscape:tile-x0="179.99999"
       inkscape:tile-y0="117"
       style="fill:#ffffff;fill-opacity:1;stroke:#ff0000;stroke-width:0.76285344;stroke-miterlimit:4;stroke-opacity:1;stroke-dasharray:none;display:inline" />
    <g
       style="fill:#ffffff;fill-opacity:1;stroke:#ff0000;stroke-width:0.76285344;stroke-miterlimit:4;stroke-opacity:1;stroke-dasharray:none;display:inline"
       inkscape:tile-y0="117"
       inkscape:tile-x0="179.99999"
       transform="matrix(0.46448087,0,0,0.4644805,337.24142,172.9561)"
       id="use35621" />
    <g
       id="use35623"
       transform="matrix(0.46448087,0,0,0.4644805,337.24142,298.7435)"
       inkscape:tile-x0="179.99999"
       inkscape:tile-y0="117"
       style="fill:#ffffff;fill-opacity:1;stroke:#ff0000;stroke-width:0.76285344;stroke-miterlimit:4;stroke-opacity:1;stroke-dasharray:none;display:inline" />
    <g
       style="fill:#ffffff;fill-opacity:1;stroke:#ff0000;stroke-width:0.76285344;stroke-miterlimit:4;stroke-opacity:1;stroke-dasharray:none;display:inline"
       inkscape:tile-y0="117"
       inkscape:tile-x0="179.99999"
       transform="matrix(0.46448087,0,0,0.4644805,517.42142,172.9561)"
       id="use35625" />
    <g
       id="use35627"
       transform="matrix(0.46448087,0,0,0.4644805,517.42142,298.7435)"
       inkscape:tile-x0="179.99999"
       inkscape:tile-y0="117"
       style="fill:#ffffff;fill-opacity:1;stroke:#ff0000;stroke-width:0.76285344;stroke-miterlimit:4;stroke-opacity:1;stroke-dasharray:none;display:inline" />
    <g
       style="fill:#ffffff;fill-opacity:1;stroke:#ff0000;stroke-width:0.76285344;stroke-miterlimit:4;stroke-opacity:1;stroke-dasharray:none;display:inline"
       inkscape:tile-y0="117"
       inkscape:tile-x0="179.99999"
       transform="matrix(0.46448087,0,0,0.4644805,697.67575,172.9561)"
       id="use35629" />
    <g
       id="use35631"
       transform="matrix(0.46448087,0,0,0.4644805,697.67575,298.7435)"
       inkscape:tile-x0="179.99999"
       inkscape:tile-y0="117"
       style="fill:#ffffff;fill-opacity:1;stroke:#ff0000;stroke-width:0.76285344;stroke-miterlimit:4;stroke-opacity:1;stroke-dasharray:none;display:inline" />
    <g
       style="fill:#ffffff;fill-opacity:1;stroke:#ff0000;stroke-width:0.76285344;stroke-miterlimit:4;stroke-opacity:1;stroke-dasharray:none;display:inline"
       inkscape:tile-y0="117"
       inkscape:tile-x0="179.99999"
       transform="matrix(0.46448087,0,0,0.4644805,879.3393,172.9561)"
       id="use35633" />
    <g
       id="use35635"
       transform="matrix(0.46448087,0,0,0.4644805,879.3393,298.7435)"
       inkscape:tile-x0="179.99999"
       inkscape:tile-y0="117"
       style="fill:#ffffff;fill-opacity:1;stroke:#ff0000;stroke-width:0.76285344;stroke-miterlimit:4;stroke-opacity:1;stroke-dasharray:none;display:inline" />
    <g
       style="fill:#ffffff;fill-opacity:1;stroke:#ff0000;stroke-width:0.76285344;stroke-miterlimit:4;stroke-opacity:1;stroke-dasharray:none;display:inline"
       inkscape:tile-y0="117"
       inkscape:tile-x0="179.99999"
       transform="matrix(0.46448087,0,0,0.4644805,1061.0029,172.9561)"
       id="use35637" />
    <g
       id="use35639"
       transform="matrix(0.46448087,0,0,0.4644805,1061.0029,298.7435)"
       inkscape:tile-x0="179.99999"
       inkscape:tile-y0="117"
       style="fill:#ffffff;fill-opacity:1;stroke:#ff0000;stroke-width:0.76285344;stroke-miterlimit:4;stroke-opacity:1;stroke-dasharray:none;display:inline" />
    <g
       style="fill:#ffffff;fill-opacity:1;stroke:#ff0000;stroke-width:0.76285344;stroke-miterlimit:4;stroke-opacity:1;stroke-dasharray:none;display:inline"
       inkscape:tile-y0="117"
       inkscape:tile-x0="179.99999"
       transform="matrix(0.46448087,0,0,0.4644805,1237.9961,172.9561)"
       id="use35641" />
    <g
       id="use35643"
       transform="matrix(0.46448087,0,0,0.4644805,1237.9961,298.7435)"
       inkscape:tile-x0="179.99999"
       inkscape:tile-y0="117"
       style="fill:#ffffff;fill-opacity:1;stroke:#ff0000;stroke-width:0.76285344;stroke-miterlimit:4;stroke-opacity:1;stroke-dasharray:none;display:inline" />
    <g
       style="fill:#ffffff;fill-opacity:1;stroke:#ff0000;stroke-width:0.76285344;stroke-miterlimit:4;stroke-opacity:1;stroke-dasharray:none;display:inline"
       inkscape:tile-y0="117"
       inkscape:tile-x0="179.99999"
       transform="matrix(0.46448087,0,0,0.4644805,1372.996,172.9561)"
       id="use35645" />
    <g
       id="use35647"
       transform="matrix(0.46448087,0,0,0.4644805,1372.996,298.7435)"
       inkscape:tile-x0="179.99999"
       inkscape:tile-y0="117"
       style="fill:#ffffff;fill-opacity:1;stroke:#ff0000;stroke-width:0.76285344;stroke-miterlimit:4;stroke-opacity:1;stroke-dasharray:none;display:inline" />
    <g
       style="fill:#ffffff;fill-opacity:1;stroke:#ff0000;stroke-width:0.76285344;stroke-miterlimit:4;stroke-opacity:1;stroke-dasharray:none;display:inline"
       inkscape:tile-y0="117"
       inkscape:tile-x0="179.99999"
       transform="matrix(0.46448087,0,0,0.4644805,1552.996,172.9561)"
       id="use35649" />
    <g
       id="use35651"
       transform="matrix(0.46448087,0,0,0.4644805,1552.996,298.7435)"
       inkscape:tile-x0="179.99999"
       inkscape:tile-y0="117"
       style="fill:#ffffff;fill-opacity:1;stroke:#ff0000;stroke-width:0.76285344;stroke-miterlimit:4;stroke-opacity:1;stroke-dasharray:none;display:inline" />
  </g>
</svg>
