<?xml version="1.0" encoding="UTF-8" standalone="no"?>
<!-- Created with Inkscape (http://www.inkscape.org/) -->

<svg
   xmlns:osb="http://www.openswatchbook.org/uri/2009/osb"
   xmlns:dc="http://purl.org/dc/elements/1.1/"
   xmlns:cc="http://creativecommons.org/ns#"
   xmlns:rdf="http://www.w3.org/1999/02/22-rdf-syntax-ns#"
   xmlns:svg="http://www.w3.org/2000/svg"
   xmlns="http://www.w3.org/2000/svg"
   xmlns:sodipodi="http://sodipodi.sourceforge.net/DTD/sodipodi-0.dtd"
   xmlns:inkscape="http://www.inkscape.org/namespaces/inkscape"
   width="744.09448819"
   height="1052.3622047"
   id="svg4432"
   version="1.1"
   inkscape:version="0.48.4 r9939"
   sodipodi:docname="cft-logo-v2.svg">
  <defs
     id="defs4434">
    <linearGradient
       id="linearGradient9655"
       osb:paint="solid">
      <stop
         style="stop-color:#ffffff;stop-opacity:1;"
         offset="0"
         id="stop9657" />
    </linearGradient>
    <linearGradient
       id="linearGradient9647"
       osb:paint="solid">
      <stop
         style="stop-color:#ffffff;stop-opacity:1;"
         offset="0"
         id="stop9649" />
    </linearGradient>
  </defs>
  <sodipodi:namedview
     id="base"
     pagecolor="#ffffff"
     bordercolor="#666666"
     borderopacity="1.0"
     inkscape:pageopacity="0.0"
     inkscape:pageshadow="2"
     inkscape:zoom="0.8981957"
     inkscape:cx="723.94882"
     inkscape:cy="-425.52318"
     inkscape:document-units="px"
     inkscape:current-layer="layer2"
     showgrid="false"
     inkscape:snap-global="true"
     inkscape:snap-bbox="true"
     inkscape:bbox-paths="true"
     inkscape:bbox-nodes="true"
     inkscape:snap-bbox-edge-midpoints="true"
     inkscape:snap-bbox-midpoints="true"
     inkscape:window-width="2048"
     inkscape:window-height="1132"
     inkscape:window-x="-4"
     inkscape:window-y="-3"
     inkscape:window-maximized="1">
    <inkscape:grid
       type="xygrid"
       id="grid4440" />
  </sodipodi:namedview>
  <metadata
     id="metadata4437">
    <rdf:RDF>
      <cc:Work
         rdf:about="">
        <dc:format>image/svg+xml</dc:format>
        <dc:type
           rdf:resource="http://purl.org/dc/dcmitype/StillImage" />
        <dc:title />
      </cc:Work>
    </rdf:RDF>
  </metadata>
  <g
     inkscape:groupmode="layer"
     id="layer2"
     inkscape:label="Swatches"
     style="display:inline">
    <rect
       style="color:#000000;fill:#28170b;fill-opacity:1;fill-rule:nonzero;stroke:none;stroke-width:2;marker:none;visibility:visible;display:inline;overflow:visible;enable-background:accumulate"
       id="rect5373"
       width="30"
       height="30"
       x="-60"
       y="387.36218" />
    <rect
       y="422.36218"
       x="-60"
       height="30"
       width="30"
       id="rect5375"
       style="color:#000000;fill:#c87137;fill-opacity:1;fill-rule:nonzero;stroke:none;stroke-width:2;marker:none;visibility:visible;display:inline;overflow:visible;enable-background:accumulate;stroke-linecap:butt;stroke-linejoin:miter;stroke-miterlimit:4;stroke-opacity:1;stroke-dasharray:none;stroke-dashoffset:0" />
    <rect
       style="color:#000000;fill:#502d16;fill-opacity:1;fill-rule:nonzero;stroke:none;stroke-width:3.54299997999999983;marker:none;visibility:visible;display:inline;overflow:visible;enable-background:accumulate"
       id="rect5379"
       width="30"
       height="30"
       x="-60"
       y="457.36218" />
    <rect
       y="457.36218"
       x="-25"
       height="30"
       width="30"
       id="rect5910"
       style="color:#000000;fill:#aa5555;fill-opacity:1;fill-rule:nonzero;stroke:none;stroke-width:3.54299997999999983;marker:none;visibility:visible;display:inline;overflow:visible;enable-background:accumulate" />
    <rect
       style="color:#000000;fill:#ff5555;fill-opacity:1;fill-rule:nonzero;stroke:none;stroke-width:2;marker:none;visibility:visible;display:inline;overflow:visible;enable-background:accumulate"
       id="rect5912"
       width="30"
       height="30"
       x="-25"
       y="422.36218" />
    <rect
       style="color:#000000;fill:#ff5500;fill-opacity:1;fill-rule:nonzero;stroke:none;stroke-width:2;marker:none;visibility:visible;display:inline;overflow:visible;enable-background:accumulate"
       id="rect6127"
       width="420"
       height="425"
       x="555"
       y="1312.3622" />
    <rect
       y="1312.3622"
       x="995"
       height="425"
       width="420"
       id="rect11244"
       style="color:#000000;fill:#222222;fill-opacity:1;fill-rule:nonzero;stroke:none;stroke-width:2;marker:none;visibility:visible;display:inline;overflow:visible;enable-background:accumulate" />
  </g>
  <g
     inkscape:label="Layer 1"
     inkscape:groupmode="layer"
     id="layer1">
    <path
       style="opacity:0.67464115;color:#000000;fill:#000000;fill-opacity:0.6261261;fill-rule:nonzero;stroke:none;stroke-width:1.0629921;marker:none;visibility:visible;display:inline;overflow:visible;enable-background:accumulate"
       d="m 245,222.36219 c 0,38.65993 -31.34006,69.99999 -69.99999,69.99999 -38.65994,0 -70.00001,-31.34006 -70.00001,-69.99999 0,-38.65995 31.34007,-70.00001 70.00001,-70.00001 38.65993,0 69.99999,31.34006 69.99999,70.00001 z"
       id="path4497"
       inkscape:connector-curvature="0" />
    <path
       id="path4499"
       d="m 214.82938,222.19156 c 0,21.99716 -17.83222,39.82938 -39.82938,39.82938 -21.99716,0 -39.82938,-17.83222 -39.82938,-39.82938 0,-21.99716 17.83222,-39.82938 39.82938,-39.82938 21.99716,0 39.82938,17.83222 39.82938,39.82938 z"
       style="opacity:0.67464115;color:#000000;fill:#000000;fill-opacity:0.6261261;fill-rule:nonzero;stroke:none;stroke-width:1.0629921;marker:none;visibility:visible;display:inline;overflow:visible;enable-background:accumulate"
       inkscape:connector-curvature="0" />
    <path
       inkscape:connector-curvature="0"
       id="path4501"
       d="m 173.00754,207.36218 146.99246,0 0,30.00003 -146.99246,0 z"
       style="opacity:0.67464115;color:#000000;fill:#000000;fill-opacity:0.6261261;fill-rule:nonzero;stroke:none;stroke-width:1.0629921;marker:none;visibility:visible;display:inline;overflow:visible;enable-background:accumulate" />
    <path
       style="opacity:0.67464115;color:#000000;fill:#000000;fill-opacity:0.6261261;fill-rule:nonzero;stroke:none;stroke-width:1.0629921;marker:none;visibility:visible;display:inline;overflow:visible;enable-background:accumulate"
       d="m 260,292.36218 0,-140 30,0 0,140 z"
       id="path4503"
       inkscape:connector-curvature="0" />
    <path
       style="opacity:0.67464115;color:#000000;fill:#000000;fill-opacity:0.6261261;fill-rule:nonzero;stroke:none;stroke-width:1.0629921;marker:none;visibility:visible;display:inline;overflow:visible;enable-background:accumulate"
       d="m 260,152.36219 90,0 0,30.00003 -90,0 z"
       id="path4505"
       inkscape:connector-curvature="0" />
    <path
       inkscape:connector-curvature="0"
       id="path4507"
       d="m 350,292.36218 0,-140 30,0 0,140 z"
       style="opacity:0.67464115;color:#000000;fill:#000000;fill-opacity:0.6261261;fill-rule:nonzero;stroke:none;stroke-width:1.0629921;marker:none;visibility:visible;display:inline;overflow:visible;enable-background:accumulate" />
    <path
       inkscape:connector-curvature="0"
       id="path4509"
       d="m 350,152.36217 90,0 0,30.00003 -90,0 z"
       style="opacity:0.67464115;color:#000000;fill:#000000;fill-opacity:0.6261261;fill-rule:nonzero;stroke:none;stroke-width:1.0629921;marker:none;visibility:visible;display:inline;overflow:visible;enable-background:accumulate" />
    <path
       inkscape:connector-curvature="0"
       id="path5285"
       d="m 245,407.36219 c 0,38.65993 -31.34006,69.99999 -69.99999,69.99999 -38.65994,0 -70.00001,-31.34006 -70.00001,-69.99999 0,-38.65995 31.34007,-70.00001 70.00001,-70.00001 38.65993,0 69.99999,31.34006 69.99999,70.00001 z"
       style="opacity:1;color:#000000;fill:#000000;fill-opacity:0.62612610000000002;fill-rule:nonzero;stroke:none;stroke-width:1.06299210000000000;marker:none;visibility:visible;display:inline;overflow:visible;enable-background:accumulate" />
    <path
       style="opacity:1;color:#000000;fill:#000000;fill-opacity:1;fill-rule:nonzero;stroke:none;stroke-width:1.06299210000000000;marker:none;visibility:visible;display:inline;overflow:visible;enable-background:accumulate"
       d="M 260 337.375 L 260 367.375 L 260 392.375 L 211.96875 392.375 C 206.08932 377.71668 191.75973 367.375 175 367.375 C 153.00284 367.375 135.15625 385.19034 135.15625 407.1875 C 135.15625 429.18466 153.00284 447.03125 175 447.03125 C 191.61653 447.03125 205.84036 436.83467 211.8125 422.375 L 260 422.375 L 260 477.375 L 290 477.375 L 290 422.375 L 320 422.375 L 320 392.375 L 290 392.375 L 290 367.375 L 350 367.375 L 350 477.375 L 380 477.375 L 380 367.375 L 440 367.375 L 440 337.375 L 350 337.375 L 260 337.375 z "
       id="path5287" />
    <path
       style="color:#000000;fill:none;fill-opacity:0.62612610000000002;fill-rule:nonzero;stroke:#000000;stroke-width:5.31496063;marker:none;visibility:visible;display:inline;overflow:visible;enable-background:accumulate;stroke-opacity:1;stroke-miterlimit:4;stroke-dasharray:none"
       d="m 245,572.34937 c 0,38.65993 -31.34006,69.99999 -69.99999,69.99999 C 136.34007,642.34936 105,611.0093 105,572.34937 c 0,-38.65995 31.34007,-70.00001 70.00001,-70.00001 38.65993,0 69.99999,31.34006 69.99999,70.00001 z"
       id="path5439"
       inkscape:connector-curvature="0" />
    <path
       id="path5441"
       d="m 260,502.36218 0,30 0,25 -48.03125,0 c -5.87943,-14.65832 -20.20902,-25 -36.96875,-25 -21.99716,0 -39.84375,17.81534 -39.84375,39.8125 0,21.99716 17.84659,39.84375 39.84375,39.84375 16.61653,0 30.84036,-10.19658 36.8125,-24.65625 l 48.1875,0 0,55 30,0 0,-55 30,0 0,-30 -30,0 0,-25 60,0 0,110 30,0 0,-110 60,0 0,-30 -90,0 -90,0 z"
       style="color:#000000;fill:#000000;fill-opacity:1;fill-rule:nonzero;stroke:none;stroke-width:1.0629921;marker:none;visibility:visible;display:inline;overflow:visible;enable-background:accumulate"
       inkscape:connector-curvature="0" />
    <g
       id="g5906">
      <path
         inkscape:connector-curvature="0"
         id="path5443"
         d="m 245,762.36219 c 0,38.65993 -31.34006,69.99999 -69.99999,69.99999 -38.65994,0 -70.00001,-31.34006 -70.00001,-69.99999 0,-38.65995 31.34007,-70.00001 70.00001,-70.00001 38.65993,0 69.99999,31.34006 69.99999,70.00001 z"
         style="color:#000000;fill:#c87137;fill-opacity:1;fill-rule:nonzero;stroke:none;stroke-width:2;marker:none;visibility:visible;display:inline;overflow:visible;enable-background:accumulate" />
      <path
         inkscape:connector-curvature="0"
         style="color:#000000;fill:#28170b;fill-opacity:1;fill-rule:nonzero;stroke:none;stroke-width:2;marker:none;visibility:visible;display:inline;overflow:visible;enable-background:accumulate"
         d="m 260,692.375 0,30 0,25 -48.03125,0 c -5.87943,-14.65832 -20.20902,-25 -36.96875,-25 -21.99716,0 -39.84375,17.81534 -39.84375,39.8125 0,21.99716 17.84659,39.84375 39.84375,39.84375 16.61653,0 30.84036,-10.19658 36.8125,-24.65625 l 48.1875,0 0,55 30,0 0,-55 30,0 0,-30 -30,0 0,-25 60,0 0,110 30,0 0,-110 60,0 0,-30 -90,0 -90,0 z"
         id="path5445" />
    </g>
    <path
       style="opacity:0.67464115;color:#000000;fill:#000000;fill-opacity:0.6261261;fill-rule:nonzero;stroke:none;stroke-width:1.0629921;marker:none;visibility:visible;display:inline;overflow:visible;enable-background:accumulate"
       d="m 912.03125,152.3125 c -43.46882,-1.8812 -80.67683,45.6389 -68.0625,87.34375 8.96707,37.89149 53.66455,63.42821 90.5,49.15625 33.93398,-11.0727 56.30392,-50.94772 44.99234,-85.43498 -8.18178,-29.16877 -36.66239,-52.15181 -67.42984,-51.06502 z"
       id="path5500"
       inkscape:connector-curvature="0" />
    <path
       style="opacity:0.67464115;color:#000000;fill:#000000;fill-opacity:0.6261261;fill-rule:nonzero;stroke:none;stroke-width:1.0629921;marker:none;visibility:visible;display:inline;overflow:visible;enable-background:accumulate"
       d="m 911.15625,182.34375 c -28.04822,-0.87781 -48.8939,34.07181 -34.8125,58.28125 11.19104,22.30657 45.2826,29.11273 63,10.875 16.93358,-15.6056 16.94156,-47.22984 -2.96875,-60.71875 -7.07466,-5.54789 -16.13592,-8.8237 -25.21875,-8.4375 z"
       id="path5502"
       inkscape:connector-curvature="0" />
    <path
       style="opacity:0.67464115;color:#000000;fill:#000000;fill-opacity:0.6261261;fill-rule:nonzero;stroke:none;stroke-width:1.0629921;marker:none;visibility:visible;display:inline;overflow:visible;enable-background:accumulate"
       d="m 910,237.375 c 49,0 98,0 147,0 0,-10 0,-20 0,-30 -49,0 -98,0 -147,0 0,10 0,20 0,30 z"
       id="path5504"
       inkscape:connector-curvature="0" />
    <path
       style="opacity:0.67464115;color:#000000;fill:#000000;fill-opacity:0.6261261;fill-rule:nonzero;stroke:none;stroke-width:1.0629921;marker:none;visibility:visible;display:inline;overflow:visible;enable-background:accumulate"
       d="m 997,292.375 c 10,0 20,0 30,0 0,-46.66667 0,-93.33333 0,-140 -10,0 -20,0 -30,0 0,46.66667 0,93.33333 0,140 z"
       id="path5506"
       inkscape:connector-curvature="0" />
    <path
       style="opacity:0.67464115;color:#000000;fill:#000000;fill-opacity:0.6261261;fill-rule:nonzero;stroke:none;stroke-width:1.0629921;marker:none;visibility:visible;display:inline;overflow:visible;enable-background:accumulate"
       d="m 997,182.375 c 30,0 60,0 90,0 0,-10 0,-20 0,-30 -30,0 -60,0 -90,0 0,10 0,20 0,30 z"
       id="path5508"
       inkscape:connector-curvature="0" />
    <path
       style="opacity:0.67464115;color:#000000;fill:#000000;fill-opacity:0.6261261;fill-rule:nonzero;stroke:none;stroke-width:1.0629921;marker:none;visibility:visible;display:inline;overflow:visible;enable-background:accumulate"
       d="m 1087,292.375 c 10,0 20,0 30,0 0,-46.66667 0,-93.33333 0,-140 -10,0 -20,0 -30,0 0,46.66667 0,93.33333 0,140 z"
       id="path5510"
       inkscape:connector-curvature="0" />
    <path
       style="opacity:0.67464115;color:#000000;fill:#000000;fill-opacity:0.6261261;fill-rule:nonzero;stroke:none;stroke-width:1.0629921;marker:none;visibility:visible;display:inline;overflow:visible;enable-background:accumulate"
       d="m 1087,182.375 c 30,0 60,0 90,0 0,-10 0,-20 0,-30 -30,0 -60,0 -90,0 0,10 0,20 0,30 z"
       id="path5512"
       inkscape:connector-curvature="0" />
    <g
       id="g6103">
      <path
         sodipodi:nodetypes="sssss"
         style="color:#000000;fill:#502d16;fill-opacity:1;fill-rule:nonzero;stroke:#502d16;stroke-width:3.54299998;stroke-opacity:1;marker:none;visibility:visible;display:inline;overflow:visible;enable-background:accumulate"
         d="m 245.01662,932.36219 c 0,38.65993 -31.3401,70.00001 -70,70.00001 -38.6599,0 -70,-31.34008 -70,-70.00001 0,-38.65995 31.3401,-70.00001 70,-70.00001 38.6599,0 70,31.34006 70,70.00001 z"
         id="path5790"
         inkscape:connector-curvature="0" />
      <path
         sodipodi:nodetypes="ccccssscccccccccsccccccc"
         inkscape:connector-curvature="0"
         id="path5792"
         d="m 304,862.36218 c -24.30042,0 -44,19.69957 -44,44 l 0,10.98719 -48.03125,0.0128 c -5.8794,-14.65832 -20.20905,-25 -36.96875,-25 -21.9972,0 -39.84375,17.81534 -39.84375,39.8125 0,21.99716 17.84655,39.84375 39.84375,39.84375 16.6165,0 30.8404,-10.19658 36.8125,-24.65625 l 48.1875,0 0,55.00003 30,0 0,-55.00003 30,0 0,-30 -30,0 0,-10.99999 c 0.37501,-7.39717 6.50964,-14.00001 14,-14.00001 l 46.00005,0 0,110.00003 30,0 0,-110.00003 44.99995,0 0,-30 z"
         style="color:#000000;fill:#c87137;fill-opacity:1;fill-rule:nonzero;stroke:#502d16;stroke-width:4;stroke-miterlimit:4;stroke-opacity:1;stroke-dasharray:none;marker:none;visibility:visible;display:inline;overflow:visible;enable-background:accumulate" />
    </g>
    <path
       sodipodi:nodetypes="sssss"
       style="color:#000000;fill:none;fill-opacity:1;fill-rule:nonzero;stroke:#000000;stroke-width:3.54299997999999983;stroke-opacity:1;marker:none;visibility:visible;display:inline;overflow:visible;enable-background:accumulate"
       d="m 245.01662,1162.3622 c 0,38.6599 -31.3401,70 -70,70 -38.6599,0 -70,-31.3401 -70,-70 0,-38.66 31.3401,-70 70,-70 38.6599,0 70,31.34 70,70 z"
       id="path6109"
       inkscape:connector-curvature="0" />
    <path
       sodipodi:nodetypes="ccccssscccccccccsccccccc"
       inkscape:connector-curvature="0"
       id="path6111"
       d="m 304,1092.3622 c -24.30042,0 -44,19.6995 -44,44 l 0,10.9872 -48.03125,0.013 c -5.8794,-14.6584 -20.20905,-25 -36.96875,-25 -21.9972,0 -39.84375,17.8153 -39.84375,39.8125 0,21.9971 17.84655,39.8437 39.84375,39.8437 16.6165,0 30.8404,-10.1966 36.8125,-24.6562 l 48.1875,0 0,55 30,0 0,-55 30,0 0,-30 -30,0 0,-11 c 0.37501,-7.3972 6.50964,-14 14,-14 l 46.00005,0 0,110 30,0 0,-110 44.99995,0 0,-30 z"
       style="color:#000000;fill:#ffffff;fill-opacity:1;fill-rule:nonzero;stroke:#000000;stroke-width:4;stroke-miterlimit:4;stroke-opacity:1;stroke-dasharray:none;marker:none;visibility:visible;display:inline;overflow:visible;enable-background:accumulate" />
    <path
       inkscape:connector-curvature="0"
       id="path6115"
       d="m 245.01662,1344.3622 c 0,38.6599 -31.3401,70 -70,70 -38.6599,0 -70,-31.3401 -70,-70 0,-38.66 31.3401,-70 70,-70 38.6599,0 70,31.34 70,70 z"
       style="color:#000000;fill:none;stroke:#000000;stroke-width:3.54299998;stroke-opacity:1;marker:none;visibility:visible;display:inline;overflow:visible;enable-background:accumulate"
       sodipodi:nodetypes="sssss" />
    <path
       style="color:#000000;fill:#000000;fill-opacity:1;fill-rule:nonzero;stroke:#000000;stroke-width:4;stroke-miterlimit:4;stroke-opacity:1;stroke-dasharray:none;marker:none;visibility:visible;display:inline;overflow:visible;enable-background:accumulate"
       d="m 304,1274.3622 c -24.30042,0 -44,19.6995 -44,44 l 0,10.9872 -48.03125,0.013 c -5.8794,-14.6584 -20.20905,-25 -36.96875,-25 -21.9972,0 -39.84375,17.8153 -39.84375,39.8125 0,21.9971 17.84655,39.8437 39.84375,39.8437 16.6165,0 30.8404,-10.1966 36.8125,-24.6562 l 48.1875,0 0,55 30,0 0,-55 30,0 0,-30 -30,0 0,-11 c 0.37501,-7.3972 6.50964,-14 14,-14 l 46.00005,0 0,110 30,0 0,-110 44.99995,0 0,-30 z"
       id="path6117"
       inkscape:connector-curvature="0"
       sodipodi:nodetypes="ccccssscccccccccsccccccc" />
    <g
       id="g7600">
      <path
         inkscape:connector-curvature="0"
         id="path6119"
         d="m 245.01662,1524.3622 c 0,38.6599 -31.3401,70 -70,70 -38.6599,0 -70,-31.3401 -70,-70 0,-38.66 31.3401,-70 70,-70 38.6599,0 70,31.34 70,70 z"
         style="color:#000000;fill:#000000;stroke:#000000;stroke-width:3.54299997999999983;stroke-opacity:1;marker:none;visibility:visible;display:inline;overflow:visible;enable-background:accumulate;fill-opacity:1"
         sodipodi:nodetypes="sssss" />
      <path
         style="color:#000000;fill:#ffffff;fill-opacity:1;fill-rule:nonzero;stroke:#000000;stroke-width:4;stroke-miterlimit:4;stroke-opacity:1;stroke-dasharray:none;marker:none;visibility:visible;display:inline;overflow:visible;enable-background:accumulate"
         d="m 304,1454.3622 c -24.30042,0 -44,19.6995 -44,44 l 0,10.9872 -48.03125,0.013 c -5.8794,-14.6584 -20.20905,-25 -36.96875,-25 -21.9972,0 -39.84375,17.8153 -39.84375,39.8125 0,21.9971 17.84655,39.8437 39.84375,39.8437 16.6165,0 30.8404,-10.1966 36.8125,-24.6562 l 48.1875,0 0,55 30,0 0,-55 30,0 0,-30 -30,0 0,-11 c 0.37501,-7.3972 6.50964,-14 14,-14 l 46.00005,0 0,110 30,0 0,-110 44.99995,0 0,-30 z"
         id="path6121"
         inkscape:connector-curvature="0"
         sodipodi:nodetypes="ccccssscccccccccsccccccc" />
    </g>
    <g
       id="g6129"
       style="opacity:1">
      <path
         sodipodi:nodetypes="sssss"
         style="color:#000000;fill:#000000;fill-opacity:1;stroke:#000000;stroke-width:3.54299997999999983;stroke-opacity:1;marker:none;visibility:visible;display:inline;overflow:visible;enable-background:accumulate"
         d="m 747.06243,1524.3622 c 0,38.6599 -31.3401,70 -70,70 -38.6599,0 -70,-31.3401 -70,-70 0,-38.66 31.3401,-70 70,-70 38.6599,0 70,31.34 70,70 z"
         id="path6123"
         inkscape:connector-curvature="0" />
      <path
         sodipodi:nodetypes="ccccssscccccccccsccccccc"
         inkscape:connector-curvature="0"
         id="path6125"
         d="m 806.04581,1454.3622 c -24.30042,0 -44,19.6995 -44,44 l 0,10.9872 -48.03125,0.013 c -5.8794,-14.6584 -20.20905,-25 -36.96875,-25 -21.9972,0 -39.84375,17.8153 -39.84375,39.8125 0,21.9971 17.84655,39.8437 39.84375,39.8437 16.6165,0 30.8404,-10.1966 36.8125,-24.6562 l 48.1875,0 0,55 30,0 0,-55 30,0 0,-30 -30,0 0,-11 c 0.37501,-7.3972 6.50964,-14 14,-14 l 46.00005,0 0,110 30,0 0,-110 44.99995,0 0,-30 z"
         style="color:#000000;fill:#ffffff;fill-opacity:1;fill-rule:nonzero;stroke:#000000;stroke-width:4;stroke-miterlimit:4;stroke-opacity:1;stroke-dasharray:none;marker:none;visibility:visible;display:inline;overflow:visible;enable-background:accumulate" />
    </g>
    <g
       id="g11252">
      <path
         id="path7692"
         d="M 1114.5625 1454.375 C 1075.9026 1454.375 1044.5625 1485.715 1044.5625 1524.375 C 1044.5625 1563.0349 1075.9026 1594.375 1114.5625 1594.375 C 1148.0648 1594.375 1176.0614 1570.8143 1182.9375 1539.375 L 1151.375 1539.375 C 1145.4029 1553.8346 1131.179 1564.0312 1114.5625 1564.0312 C 1092.5653 1564.0312 1074.7188 1546.1846 1074.7188 1524.1875 C 1074.7188 1502.1903 1092.5653 1484.375 1114.5625 1484.375 C 1131.3222 1484.375 1145.6518 1494.7166 1151.5312 1509.375 L 1182.9375 1509.3438 C 1176.0614 1477.9044 1148.0648 1454.375 1114.5625 1454.375 z "
         style="color:#000000;fill:#ffffff;fill-opacity:1;stroke:#ffffff;stroke-width:3.54299997999999983;stroke-opacity:1;marker:none;visibility:visible;display:inline;overflow:visible;enable-background:accumulate" />
      <path
         style="color:#000000;fill:none;fill-opacity:1;fill-rule:nonzero;stroke:#ffffff;stroke-width:4;stroke-miterlimit:4;stroke-opacity:1;stroke-dasharray:none;marker:none;visibility:visible;display:inline;overflow:visible;enable-background:accumulate"
         d="m 1243.5614,1454.3622 c -24.3005,0 -44,19.6995 -44,44 l 0,10.9872 -48.0313,0.013 c -5.8794,-14.6584 -20.209,-25 -36.9687,-25 -21.9972,0 -39.8438,17.8153 -39.8438,39.8125 0,21.9971 17.8466,39.8437 39.8438,39.8437 16.6165,0 30.8404,-10.1966 36.8125,-24.6562 l 48.1875,0 0,55 30,0 0,-55 30,0 0,-30 -30,0 0,-11 c 0.375,-7.3972 6.5096,-14 14,-14 l 46,0 0,110 30,0 0,-110 45,0 0,-30 z"
         id="path7694"
         inkscape:connector-curvature="0"
         sodipodi:nodetypes="ccccssscccccccccsccccccc" />
    </g>
  </g>
</svg>
