<?xml version="1.0" encoding="UTF-8" standalone="no"?>
<!-- Created with Inkscape (http://www.inkscape.org/) -->

<svg
   xmlns:dc="http://purl.org/dc/elements/1.1/"
   xmlns:cc="http://creativecommons.org/ns#"
   xmlns:rdf="http://www.w3.org/1999/02/22-rdf-syntax-ns#"
   xmlns:svg="http://www.w3.org/2000/svg"
   xmlns="http://www.w3.org/2000/svg"
   version="1.1"
   width="1352.006"
   height="1352.006"
   id="svg3111">
  <defs
     id="defs3113" />
  <metadata
     id="metadata3116">
    <rdf:RDF>
      <cc:Work
         rdf:about="">
        <dc:format>image/svg+xml</dc:format>
        <dc:type
           rdf:resource="http://purl.org/dc/dcmitype/StillImage" />
        <dc:title></dc:title>
      </cc:Work>
    </rdf:RDF>
  </metadata>
  <g
     transform="translate(-2323.9961,647.64032)"
     id="layer1">
    <g
       transform="matrix(3.219062,0,0,3.219062,37830.25,-17400.373)"
       id="g4124">
      <rect
         width="420"
         height="420"
         x="-11030"
         y="5204.228"
         id="use3218"
         style="color:#000000;fill:#ff7f2a;fill-opacity:1;fill-rule:nonzero;stroke:none;stroke-width:2;marker:none;visibility:visible;display:inline;overflow:visible;enable-background:accumulate" />
      <g
         id="use3222"
         style="font-size:10px;font-style:italic;font-weight:normal;line-height:125%;letter-spacing:0px;word-spacing:0px;fill:#000000;fill-opacity:1;stroke:none;display:inline;font-family:Bitstream Vera Sans;-inkscape-font-specification:Sans">
        <path
           d="m -10955.485,5520.1738 2.38,0 0,-13 -2.04,0 -3.18,1.56 0.42,1.86 2.38,-1.2 0.04,0 0,10.78"
           id="path4297"
           style="font-size:20px;font-style:normal;font-variant:normal;font-weight:600;font-stretch:normal;text-align:center;text-anchor:middle;font-family:Myriad Pro;-inkscape-font-specification:Myriad Pro Semi-Bold" />
        <path
           d="m -10940.742,5506.9938 c -0.3,-0.02 -0.7,-0.02 -1.24,0.06 -1.86,0.14 -3.44,0.78 -4.62,1.92 -1.36,1.28 -2.26,3.3 -2.26,5.8 0,3.22 1.74,5.62 4.9,5.62 2.76,0 4.58,-2.16 4.58,-4.64 0,-2.64 -1.74,-4.24 -3.98,-4.24 -1.3,0 -2.28,0.52 -2.92,1.26 l -0.06,0 c 0.32,-1.8 1.62,-3.46 4.36,-3.78 0.48,-0.06 0.88,-0.08 1.24,-0.06 l 0,-1.94 m -3.22,11.56 c -1.62,0 -2.42,-1.4 -2.46,-3.12 0,-0.34 0.06,-0.58 0.16,-0.78 0.38,-0.78 1.2,-1.34 2.12,-1.34 1.44,0 2.26,1.06 2.26,2.58 0,1.56 -0.82,2.66 -2.08,2.66"
           id="path4299"
           style="font-size:20px;font-style:normal;font-variant:normal;font-weight:600;font-stretch:normal;text-align:center;text-anchor:middle;font-family:Myriad Pro;-inkscape-font-specification:Myriad Pro Semi-Bold" />
        <path
           d="m -10933.238,5520.1338 c 0.64,0.08 1.66,0.18 3.02,0.18 2.48,0 4.06,-0.42 5.02,-1.24 0.76,-0.66 1.28,-1.6 1.28,-2.8 0,-1.84 -1.3,-2.96 -2.72,-3.32 l 0,-0.06 c 1.46,-0.54 2.24,-1.66 2.24,-2.9 0,-1.16 -0.56,-2.04 -1.4,-2.54 -0.9,-0.62 -2.04,-0.86 -3.84,-0.86 -1.4,0 -2.82,0.14 -3.6,0.3 l 0,13.24 m 2.44,-11.62 c 0.26,-0.06 0.68,-0.1 1.4,-0.1 1.56,0 2.52,0.58 2.52,1.86 0,1.14 -0.94,1.94 -2.66,1.94 l -1.26,0 0,-3.7 m 0,5.48 1.22,0 c 1.7,0 3.08,0.64 3.08,2.22 0,1.66 -1.42,2.24 -3,2.24 -0.56,0 -0.98,0 -1.3,-0.06 l 0,-4.4"
           id="path4301"
           style="font-size:20px;font-style:normal;font-variant:normal;font-weight:600;font-stretch:normal;text-align:center;text-anchor:middle;font-family:Myriad Pro;-inkscape-font-specification:Myriad Pro Semi-Bold" />
        <path
           d="m -10919.355,5520.1738 0,-9.74 -2.46,0 0,9.74 2.46,0 m -1.22,-13.8 c -0.82,0 -1.38,0.58 -1.38,1.34 0,0.72 0.54,1.32 1.36,1.32 0.86,0 1.4,-0.6 1.4,-1.32 -0.02,-0.76 -0.54,-1.34 -1.38,-1.34"
           id="path4303"
           style="font-size:20px;font-style:normal;font-variant:normal;font-weight:600;font-stretch:normal;text-align:center;text-anchor:middle;font-family:Myriad Pro;-inkscape-font-specification:Myriad Pro Semi-Bold" />
        <path
           d="m -10916.298,5508.6138 0,1.82 -1.38,0 0,1.84 1.38,0 0,4.58 c 0,1.28 0.24,2.18 0.78,2.74 0.46,0.5 1.2,0.8 2.12,0.8 0.76,0 1.42,-0.12 1.78,-0.26 l -0.04,-1.86 c -0.28,0.08 -0.52,0.1 -0.96,0.1 -0.94,0 -1.26,-0.6 -1.26,-1.8 l 0,-4.3 2.34,0 0,-1.84 -2.34,0 0,-2.5 -2.42,0.68"
           id="path4305"
           style="font-size:20px;font-style:normal;font-variant:normal;font-weight:600;font-stretch:normal;text-align:center;text-anchor:middle;font-family:Myriad Pro;-inkscape-font-specification:Myriad Pro Semi-Bold" />
        <path
           d="m -10905.426,5506.6938 0,13.48 2.46,0 0,-5.94 5.7,0 0,5.94 2.46,0 0,-13.48 -2.46,0 0,5.4 -5.7,0 0,-5.4 -2.46,0"
           id="path4307"
           style="font-size:20px;font-style:normal;font-variant:normal;font-weight:600;font-stretch:normal;text-align:center;text-anchor:middle;font-family:Myriad Pro;-inkscape-font-specification:Myriad Pro Semi-Bold" />
        <path
           d="m -10887.668,5510.2138 c -2.94,0 -5.04,1.96 -5.04,5.16 0,3.14 2.14,5.02 4.88,5.02 2.48,0 5,-1.6 5,-5.18 0,-2.96 -1.94,-5 -4.84,-5 m -0.06,1.78 c 1.68,0 2.36,1.76 2.36,3.28 0,1.98 -0.98,3.34 -2.38,3.34 -1.48,0 -2.42,-1.42 -2.42,-3.3 0,-1.62 0.7,-3.32 2.44,-3.32"
           id="path4309"
           style="font-size:20px;font-style:normal;font-variant:normal;font-weight:600;font-stretch:normal;text-align:center;text-anchor:middle;font-family:Myriad Pro;-inkscape-font-specification:Myriad Pro Semi-Bold" />
        <path
           d="m -10880.799,5520.1738 2.4,0 0,-5.76 c 0,-0.28 0.04,-0.56 0.12,-0.82 0.24,-0.66 0.86,-1.38 1.78,-1.38 1.14,0 1.68,0.96 1.68,2.32 l 0,5.64 2.4,0 0,-5.84 c 0,-0.28 0.04,-0.6 0.12,-0.82 0.26,-0.7 0.88,-1.3 1.72,-1.3 1.18,0 1.74,0.96 1.74,2.58 l 0,5.38 2.4,0 0,-5.74 c 0,-3.12 -1.64,-4.22 -3.24,-4.22 -0.82,0 -1.44,0.2 -2,0.58 -0.44,0.28 -0.84,0.68 -1.18,1.22 l -0.04,0 c -0.42,-1.08 -1.42,-1.8 -2.7,-1.8 -1.66,0 -2.54,0.9 -3,1.66 l -0.06,0 -0.12,-1.44 -2.1,0 c 0.04,0.84 0.08,1.78 0.08,2.9 l 0,6.84"
           id="path4311"
           style="font-size:20px;font-style:normal;font-variant:normal;font-weight:600;font-stretch:normal;text-align:center;text-anchor:middle;font-family:Myriad Pro;-inkscape-font-specification:Myriad Pro Semi-Bold" />
        <path
           d="m -10855.586,5515.9938 c 0.04,-0.22 0.08,-0.58 0.08,-1.04 0,-2.14 -1.04,-4.74 -4.2,-4.74 -3.12,0 -4.76,2.54 -4.76,5.24 0,2.98 1.86,4.92 5.02,4.92 1.4,0 2.56,-0.26 3.4,-0.62 l -0.36,-1.68 c -0.76,0.26 -1.56,0.44 -2.7,0.44 -1.58,0 -2.94,-0.76 -3,-2.52 l 6.52,0 m -6.52,-1.72 c 0.1,-1 0.74,-2.38 2.26,-2.38 1.64,0 2.04,1.48 2.02,2.38 l -4.28,0"
           id="path4313"
           style="font-size:20px;font-style:normal;font-variant:normal;font-weight:600;font-stretch:normal;text-align:center;text-anchor:middle;font-family:Myriad Pro;-inkscape-font-specification:Myriad Pro Semi-Bold" />
        <path
           d="m -10853.534,5517.4338 c 0,1 -0.04,2.08 -0.08,2.74 l 2.1,0 0.12,-1.46 0.04,0 c 0.7,1.2 1.82,1.68 3.08,1.68 2.2,0 4.42,-1.74 4.42,-5.24 0.02,-2.96 -1.68,-4.94 -4.06,-4.94 -1.46,0 -2.52,0.62 -3.12,1.56 l -0.04,0 0,-5.8 -2.46,0 0,11.46 m 2.46,-2.86 c 0,-0.24 0.04,-0.46 0.08,-0.64 0.26,-1.08 1.18,-1.8 2.18,-1.8 1.64,0 2.46,1.4 2.46,3.12 0,1.98 -0.94,3.2 -2.48,3.2 -1.06,0 -1.92,-0.72 -2.18,-1.72 -0.04,-0.18 -0.06,-0.38 -0.06,-0.58 l 0,-1.58"
           id="path4315"
           style="font-size:20px;font-style:normal;font-variant:normal;font-weight:600;font-stretch:normal;text-align:center;text-anchor:middle;font-family:Myriad Pro;-inkscape-font-specification:Myriad Pro Semi-Bold" />
        <path
           d="m -10841.815,5520.1738 2.46,0 0,-5.06 c 0,-0.26 0.02,-0.52 0.06,-0.74 0.22,-1.12 1.04,-1.86 2.2,-1.86 0.3,0 0.52,0.02 0.74,0.06 l 0,-2.3 c -0.2,-0.04 -0.34,-0.06 -0.58,-0.06 -1.06,0 -2.2,0.7 -2.68,2.06 l -0.06,0 -0.1,-1.84 -2.12,0 c 0.06,0.86 0.08,1.82 0.08,3.14 l 0,6.6"
           id="path4317"
           style="font-size:20px;font-style:normal;font-variant:normal;font-weight:600;font-stretch:normal;text-align:center;text-anchor:middle;font-family:Myriad Pro;-inkscape-font-specification:Myriad Pro Semi-Bold" />
        <path
           d="m -10826.641,5515.9938 c 0.04,-0.22 0.08,-0.58 0.08,-1.04 0,-2.14 -1.04,-4.74 -4.2,-4.74 -3.12,0 -4.76,2.54 -4.76,5.24 0,2.98 1.86,4.92 5.02,4.92 1.4,0 2.56,-0.26 3.4,-0.62 l -0.36,-1.68 c -0.76,0.26 -1.56,0.44 -2.7,0.44 -1.58,0 -2.94,-0.76 -3,-2.52 l 6.52,0 m -6.52,-1.72 c 0.1,-1 0.74,-2.38 2.26,-2.38 1.64,0 2.04,1.48 2.02,2.38 l -4.28,0"
           id="path4319"
           style="font-size:20px;font-style:normal;font-variant:normal;font-weight:600;font-stretch:normal;text-align:center;text-anchor:middle;font-family:Myriad Pro;-inkscape-font-specification:Myriad Pro Semi-Bold" />
        <path
           d="m -10825.706,5510.4338 2.88,9.74 2.3,0 1.24,-3.96 c 0.28,-0.96 0.52,-1.92 0.74,-3.12 l 0.04,0 c 0.22,1.18 0.44,2.1 0.74,3.12 l 1.16,3.96 2.28,0 3.06,-9.74 -2.42,0 -1.08,4.32 c -0.26,1.14 -0.5,2.2 -0.64,3.26 l -0.04,0 c -0.22,-1.06 -0.48,-2.12 -0.78,-3.26 l -1.22,-4.32 -2,0 -1.28,4.44 c -0.26,1 -0.58,2.08 -0.78,3.14 l -0.04,0 c -0.18,-1.06 -0.4,-2.12 -0.64,-3.16 l -1,-4.42 -2.52,0"
           id="path4321"
           style="font-size:20px;font-style:normal;font-variant:normal;font-weight:600;font-stretch:normal;text-align:center;text-anchor:middle;font-family:Myriad Pro;-inkscape-font-specification:Myriad Pro Semi-Bold" />
        <path
           d="m -10793.825,5520.1738 2.4,0 -0.78,-13.48 -3.2,0 -1.86,5.4 c -0.52,1.58 -0.98,3.24 -1.34,4.7 l -0.06,0 c -0.34,-1.5 -0.76,-3.1 -1.24,-4.68 l -1.76,-5.42 -3.24,0 -0.9,13.48 2.3,0 0.3,-5.42 c 0.1,-1.84 0.18,-3.98 0.24,-5.74 l 0.04,0 c 0.36,1.68 0.84,3.52 1.36,5.24 l 1.8,5.76 1.88,0 1.98,-5.84 c 0.6,-1.7 1.16,-3.52 1.6,-5.16 l 0.06,0 c -0.02,1.82 0.08,3.92 0.16,5.66 l 0.26,5.5"
           id="path4323"
           style="font-size:20px;font-style:normal;font-variant:normal;font-weight:600;font-stretch:normal;text-align:center;text-anchor:middle;font-family:Myriad Pro;-inkscape-font-specification:Myriad Pro Semi-Bold" />
        <path
           d="m -10786.386,5520.1738 0,-9.74 -2.46,0 0,9.74 2.46,0 m -1.22,-13.8 c -0.82,0 -1.38,0.58 -1.38,1.34 0,0.72 0.54,1.32 1.36,1.32 0.86,0 1.4,-0.6 1.4,-1.32 -0.02,-0.76 -0.54,-1.34 -1.38,-1.34"
           id="path4325"
           style="font-size:20px;font-style:normal;font-variant:normal;font-weight:600;font-stretch:normal;text-align:center;text-anchor:middle;font-family:Myriad Pro;-inkscape-font-specification:Myriad Pro Semi-Bold" />
        <path
           d="m -10783.729,5520.1738 2.46,0 0,-5.74 c 0,-0.28 0.04,-0.58 0.12,-0.78 0.26,-0.74 0.94,-1.44 1.92,-1.44 1.34,0 1.86,1.06 1.86,2.46 l 0,5.5 2.46,0 0,-5.78 c 0,-3.08 -1.76,-4.18 -3.46,-4.18 -1.62,0 -2.68,0.92 -3.12,1.68 l -0.06,0 -0.12,-1.46 -2.14,0 c 0.04,0.84 0.08,1.78 0.08,2.9 l 0,6.84"
           id="path4327"
           style="font-size:20px;font-style:normal;font-variant:normal;font-weight:600;font-stretch:normal;text-align:center;text-anchor:middle;font-family:Myriad Pro;-inkscape-font-specification:Myriad Pro Semi-Bold" />
        <path
           d="m -10769.824,5520.1738 0,-9.74 -2.46,0 0,9.74 2.46,0 m -1.22,-13.8 c -0.82,0 -1.38,0.58 -1.38,1.34 0,0.72 0.54,1.32 1.36,1.32 0.86,0 1.4,-0.6 1.4,-1.32 -0.02,-0.76 -0.54,-1.34 -1.38,-1.34"
           id="path4329"
           style="font-size:20px;font-style:normal;font-variant:normal;font-weight:600;font-stretch:normal;text-align:center;text-anchor:middle;font-family:Myriad Pro;-inkscape-font-specification:Myriad Pro Semi-Bold" />
        <path
           d="m -10753.666,5517.8538 c -0.66,0.28 -1.7,0.48 -2.68,0.48 -2.98,0 -4.7,-1.88 -4.7,-4.86 0,-3.24 1.98,-4.96 4.72,-4.96 1.1,0 2,0.24 2.64,0.52 l 0.52,-1.96 c -0.5,-0.26 -1.64,-0.6 -3.26,-0.6 -4.12,0 -7.22,2.68 -7.22,7.12 0,4.12 2.6,6.8 6.88,6.8 1.64,0 2.92,-0.32 3.5,-0.6 l -0.4,-1.94"
           id="path4331"
           style="font-size:20px;font-style:normal;font-variant:normal;font-weight:600;font-stretch:normal;text-align:center;text-anchor:middle;font-family:Myriad Pro;-inkscape-font-specification:Myriad Pro Semi-Bold" />
        <path
           d="m -10747.16,5510.2138 c -2.94,0 -5.04,1.96 -5.04,5.16 0,3.14 2.14,5.02 4.88,5.02 2.48,0 5,-1.6 5,-5.18 0,-2.96 -1.94,-5 -4.84,-5 m -0.06,1.78 c 1.68,0 2.36,1.76 2.36,3.28 0,1.98 -0.98,3.34 -2.38,3.34 -1.48,0 -2.42,-1.42 -2.42,-3.3 0,-1.62 0.7,-3.32 2.44,-3.32"
           id="path4333"
           style="font-size:20px;font-style:normal;font-variant:normal;font-weight:600;font-stretch:normal;text-align:center;text-anchor:middle;font-family:Myriad Pro;-inkscape-font-specification:Myriad Pro Semi-Bold" />
        <path
           d="m -10740.291,5520.1738 2.4,0 0,-5.76 c 0,-0.28 0.04,-0.56 0.12,-0.82 0.24,-0.66 0.86,-1.38 1.78,-1.38 1.14,0 1.68,0.96 1.68,2.32 l 0,5.64 2.4,0 0,-5.84 c 0,-0.28 0.04,-0.6 0.12,-0.82 0.26,-0.7 0.88,-1.3 1.72,-1.3 1.18,0 1.74,0.96 1.74,2.58 l 0,5.38 2.4,0 0,-5.74 c 0,-3.12 -1.64,-4.22 -3.24,-4.22 -0.82,0 -1.44,0.2 -2,0.58 -0.44,0.28 -0.84,0.68 -1.18,1.22 l -0.04,0 c -0.42,-1.08 -1.42,-1.8 -2.7,-1.8 -1.66,0 -2.54,0.9 -3,1.66 l -0.06,0 -0.12,-1.44 -2.1,0 c 0.04,0.84 0.08,1.78 0.08,2.9 l 0,6.84"
           id="path4335"
           style="font-size:20px;font-style:normal;font-variant:normal;font-weight:600;font-stretch:normal;text-align:center;text-anchor:middle;font-family:Myriad Pro;-inkscape-font-specification:Myriad Pro Semi-Bold" />
        <path
           d="m -10723.338,5524.1338 2.46,0 0,-5.04 0.04,0 c 0.5,0.78 1.52,1.3 2.74,1.3 2.22,0 4.44,-1.7 4.44,-5.22 0,-3.04 -1.86,-4.96 -4.1,-4.96 -1.48,0 -2.62,0.62 -3.34,1.72 l -0.04,0 -0.12,-1.5 -2.16,0 c 0.04,0.92 0.08,1.96 0.08,3.24 l 0,10.46 m 2.46,-9.54 c 0,-0.2 0.04,-0.42 0.08,-0.62 0.26,-1.08 1.2,-1.82 2.22,-1.82 1.58,0 2.42,1.4 2.42,3.12 0,1.92 -0.92,3.22 -2.48,3.22 -1.06,0 -1.92,-0.72 -2.18,-1.72 -0.04,-0.22 -0.06,-0.44 -0.06,-0.68 l 0,-1.5"
           id="path4337"
           style="font-size:20px;font-style:normal;font-variant:normal;font-weight:600;font-stretch:normal;text-align:center;text-anchor:middle;font-family:Myriad Pro;-inkscape-font-specification:Myriad Pro Semi-Bold" />
        <path
           d="m -10702.899,5510.4338 -2.46,0 0,5.88 c 0,0.28 -0.04,0.56 -0.14,0.76 -0.24,0.64 -0.88,1.32 -1.88,1.32 -1.3,0 -1.82,-1.04 -1.82,-2.66 l 0,-5.3 -2.46,0 0,5.72 c 0,3.18 1.62,4.24 3.38,4.24 1.76,0 2.72,-1 3.14,-1.68 l 0.06,0 0.12,1.46 2.14,0 c -0.04,-0.8 -0.08,-1.76 -0.08,-2.92 l 0,-6.82"
           id="path4339"
           style="font-size:20px;font-style:normal;font-variant:normal;font-weight:600;font-stretch:normal;text-align:center;text-anchor:middle;font-family:Myriad Pro;-inkscape-font-specification:Myriad Pro Semi-Bold" />
        <path
           d="m -10699.852,5508.6138 0,1.82 -1.38,0 0,1.84 1.38,0 0,4.58 c 0,1.28 0.24,2.18 0.78,2.74 0.46,0.5 1.2,0.8 2.12,0.8 0.76,0 1.42,-0.12 1.78,-0.26 l -0.04,-1.86 c -0.28,0.08 -0.52,0.1 -0.96,0.1 -0.94,0 -1.26,-0.6 -1.26,-1.8 l 0,-4.3 2.34,0 0,-1.84 -2.34,0 0,-2.5 -2.42,0.68"
           id="path4341"
           style="font-size:20px;font-style:normal;font-variant:normal;font-weight:600;font-stretch:normal;text-align:center;text-anchor:middle;font-family:Myriad Pro;-inkscape-font-specification:Myriad Pro Semi-Bold" />
        <path
           d="m -10685.078,5515.9938 c 0.04,-0.22 0.08,-0.58 0.08,-1.04 0,-2.14 -1.04,-4.74 -4.2,-4.74 -3.12,0 -4.76,2.54 -4.76,5.24 0,2.98 1.86,4.92 5.02,4.92 1.4,0 2.56,-0.26 3.4,-0.62 l -0.36,-1.68 c -0.76,0.26 -1.56,0.44 -2.7,0.44 -1.58,0 -2.94,-0.76 -3,-2.52 l 6.52,0 m -6.52,-1.72 c 0.1,-1 0.74,-2.38 2.26,-2.38 1.64,0 2.04,1.48 2.02,2.38 l -4.28,0"
           id="path4343"
           style="font-size:20px;font-style:normal;font-variant:normal;font-weight:600;font-stretch:normal;text-align:center;text-anchor:middle;font-family:Myriad Pro;-inkscape-font-specification:Myriad Pro Semi-Bold" />
        <path
           d="m -10683.026,5520.1738 2.46,0 0,-5.06 c 0,-0.26 0.02,-0.52 0.06,-0.74 0.22,-1.12 1.04,-1.86 2.2,-1.86 0.3,0 0.52,0.02 0.74,0.06 l 0,-2.3 c -0.2,-0.04 -0.34,-0.06 -0.58,-0.06 -1.06,0 -2.2,0.7 -2.68,2.06 l -0.06,0 -0.1,-1.84 -2.12,0 c 0.06,0.86 0.08,1.82 0.08,3.14 l 0,6.6"
           id="path4345"
           style="font-size:20px;font-style:normal;font-variant:normal;font-weight:600;font-stretch:normal;text-align:center;text-anchor:middle;font-family:Myriad Pro;-inkscape-font-specification:Myriad Pro Semi-Bold" />
      </g>
      <g
         transform="translate(-11585,3889.8657)"
         id="use3226">
        <path
           d="m 747.06243,1524.3622 c 0,38.6599 -31.3401,70 -70,70 -38.6599,0 -70,-31.3401 -70,-70 0,-38.66 31.3401,-70 70,-70 38.6599,0 70,31.34 70,70 z"
           id="path4116"
           style="color:#000000;fill:#000000;fill-opacity:1;stroke:#000000;stroke-width:10;stroke-miterlimit:4;stroke-opacity:1;stroke-dasharray:none;marker:none;visibility:visible;display:inline;overflow:visible;enable-background:accumulate" />
        <path
           d="m 806.04581,1454.3622 c -24.30042,0 -44,19.6995 -44,44 l 0,10.9872 -48.03125,0.013 c -5.8794,-14.6584 -20.20905,-25 -36.96875,-25 -21.9972,0 -39.84375,17.8153 -39.84375,39.8125 0,21.9971 17.84655,39.8437 39.84375,39.8437 16.6165,0 30.8404,-10.1966 36.8125,-24.6562 l 48.1875,0 0,55 30,0 0,-55 30,0 0,-30 -30,0 0,-11 c 0.37501,-7.3972 6.50964,-14 14,-14 l 46.00005,0 0,110 30,0 0,-110 44.99995,0 0,-30 z"
           id="path4118"
           style="color:#000000;fill:#ffffff;fill-opacity:1;fill-rule:nonzero;stroke:#000000;stroke-width:10;stroke-miterlimit:4;stroke-opacity:1;stroke-dasharray:none;marker:none;visibility:visible;display:inline;overflow:visible;enable-background:accumulate" />
      </g>
    </g>
  </g>
</svg>
