G75*
G70*
%OFA0B0*%
%FSLAX24Y24*%
%IPPOS*%
%LPD*%
%AMOC8*
5,1,8,0,0,1.08239X$1,22.5*
%
%ADD10C,0.0150*%
%ADD11C,0.0100*%
%ADD12C,0.0110*%
%ADD13C,0.0160*%
%ADD14C,0.0050*%
%ADD15C,0.0060*%
%ADD16C,0.0020*%
%ADD17C,0.0004*%
%ADD18C,0.0030*%
%ADD19C,0.0080*%
%ADD20C,0.0000*%
%ADD21C,0.0070*%
%ADD22R,0.0150X0.0200*%
%ADD23R,0.0300X0.0200*%
%ADD24C,0.0059*%
%ADD25C,0.0090*%
D10*
X048922Y014586D02*
X049064Y014445D01*
X049631Y014445D01*
X049773Y014586D01*
X049773Y014870D01*
X049631Y015012D01*
X049773Y015365D02*
X048922Y015365D01*
X048922Y015932D01*
X048922Y016286D02*
X048922Y016853D01*
X048922Y016570D02*
X049773Y016570D01*
X050706Y016558D02*
X050706Y016274D01*
X050848Y016133D01*
X051131Y016133D01*
X051273Y016274D01*
X051273Y016558D01*
X051131Y016700D01*
X050848Y016700D01*
X050706Y016558D01*
X050848Y017053D02*
X051131Y017053D01*
X051273Y017195D01*
X051273Y017620D01*
X051131Y017974D02*
X050848Y017974D01*
X050706Y018116D01*
X050706Y018399D01*
X050848Y018541D01*
X050989Y018541D01*
X050989Y017974D01*
X051131Y017974D02*
X051273Y018116D01*
X051273Y018399D01*
X051273Y018895D02*
X051273Y019320D01*
X051131Y019462D01*
X050989Y019320D01*
X050989Y019037D01*
X050848Y018895D01*
X050706Y019037D01*
X050706Y019462D01*
X050848Y019816D02*
X050706Y019957D01*
X050706Y020383D01*
X050989Y020241D02*
X050989Y019957D01*
X050848Y019816D01*
X051273Y019816D02*
X051273Y020241D01*
X051131Y020383D01*
X050989Y020241D01*
X050848Y020736D02*
X051131Y020736D01*
X051273Y020878D01*
X051273Y021162D01*
X051131Y021303D01*
X050848Y021303D01*
X050706Y021162D01*
X050706Y020878D01*
X050848Y020736D01*
X050989Y021657D02*
X050706Y021941D01*
X050706Y022082D01*
X050706Y021657D02*
X051273Y021657D01*
X049773Y021764D02*
X049773Y021338D01*
X049631Y021197D01*
X049348Y021197D01*
X049206Y021338D01*
X049206Y021764D01*
X049348Y022117D02*
X049631Y022117D01*
X049773Y022259D01*
X049773Y022543D01*
X049631Y022685D01*
X049348Y022685D01*
X049206Y022543D01*
X049206Y022259D01*
X049348Y022117D01*
X049206Y023038D02*
X049206Y023180D01*
X049348Y023322D01*
X049206Y023464D01*
X049348Y023605D01*
X049773Y023605D01*
X049773Y023322D02*
X049348Y023322D01*
X049206Y023038D02*
X049773Y023038D01*
X050422Y023345D02*
X050422Y023770D01*
X050564Y023912D01*
X050706Y023912D01*
X050848Y023770D01*
X050848Y023345D01*
X051273Y023345D02*
X050422Y023345D01*
X050848Y023770D02*
X050989Y023912D01*
X051131Y023912D01*
X051273Y023770D01*
X051273Y023345D01*
X051131Y024266D02*
X050848Y024266D01*
X050706Y024408D01*
X050706Y024691D01*
X050848Y024833D01*
X051131Y024833D01*
X051273Y024691D01*
X051273Y024408D01*
X051131Y024266D01*
X051131Y025187D02*
X050989Y025328D01*
X050989Y025754D01*
X050848Y025754D02*
X051273Y025754D01*
X051273Y025328D01*
X051131Y025187D01*
X050706Y025328D02*
X050706Y025612D01*
X050848Y025754D01*
X050989Y026107D02*
X050706Y026391D01*
X050706Y026533D01*
X050848Y026875D02*
X050706Y027016D01*
X050706Y027442D01*
X050422Y027442D02*
X051273Y027442D01*
X051273Y027016D01*
X051131Y026875D01*
X050848Y026875D01*
X050706Y026107D02*
X051273Y026107D01*
X049773Y026084D02*
X049631Y025942D01*
X049064Y025942D01*
X049206Y025800D02*
X049206Y026084D01*
X049348Y026414D02*
X049206Y026556D01*
X049206Y026840D01*
X049348Y026981D01*
X049489Y026981D01*
X049489Y026414D01*
X049348Y026414D02*
X049631Y026414D01*
X049773Y026556D01*
X049773Y026840D01*
X049773Y027335D02*
X049206Y027335D01*
X049489Y027335D02*
X049206Y027619D01*
X049206Y027760D01*
X050422Y028858D02*
X050564Y028716D01*
X050422Y028858D02*
X050422Y029141D01*
X050564Y029283D01*
X050706Y029283D01*
X051273Y028716D01*
X051273Y029283D01*
X051273Y030558D02*
X050422Y030558D01*
X050422Y030983D01*
X050564Y031125D01*
X050848Y031125D01*
X050989Y030983D01*
X050989Y030558D01*
X050989Y030841D02*
X051273Y031125D01*
X051131Y031478D02*
X050848Y031478D01*
X050706Y031620D01*
X050706Y031904D01*
X050848Y032045D01*
X050989Y032045D01*
X050989Y031478D01*
X051131Y031478D02*
X051273Y031620D01*
X051273Y031904D01*
X050706Y032399D02*
X051273Y032683D01*
X050706Y032966D01*
X050422Y034241D02*
X050422Y034666D01*
X050564Y034808D01*
X051131Y034808D01*
X051273Y034666D01*
X051273Y034241D01*
X050422Y034241D01*
X049773Y025447D02*
X049206Y025447D01*
X049773Y025447D02*
X049773Y025021D01*
X049631Y024880D01*
X049206Y024880D01*
X049348Y024526D02*
X049631Y024526D01*
X049773Y024384D01*
X049773Y023959D01*
X050056Y023959D02*
X049206Y023959D01*
X049206Y024384D01*
X049348Y024526D01*
X049773Y020866D02*
X049773Y020583D01*
X049773Y020725D02*
X049206Y020725D01*
X049206Y020583D01*
X048922Y020725D02*
X048780Y020725D01*
X049348Y020229D02*
X049773Y020229D01*
X049348Y020229D02*
X049206Y020087D01*
X049206Y019662D01*
X049773Y019662D01*
X049773Y019332D02*
X049773Y019048D01*
X049773Y019190D02*
X049206Y019190D01*
X049206Y019048D01*
X048922Y019190D02*
X048780Y019190D01*
X048922Y018695D02*
X049773Y018695D01*
X049773Y018128D02*
X048922Y018128D01*
X049206Y018411D01*
X048922Y018695D01*
X050706Y017620D02*
X050706Y017195D01*
X050848Y017053D01*
X050706Y015791D02*
X050706Y015649D01*
X050989Y015365D01*
X050706Y015365D02*
X051273Y015365D01*
X050848Y015012D02*
X050989Y014870D01*
X050989Y014445D01*
X051273Y014445D02*
X050422Y014445D01*
X050422Y014870D01*
X050564Y015012D01*
X050848Y015012D01*
X049348Y015365D02*
X049348Y015649D01*
X049064Y015012D02*
X048922Y014870D01*
X048922Y014586D01*
D11*
X054598Y013620D02*
X054848Y013370D01*
X054848Y013870D01*
X054598Y013620D01*
X054609Y013631D02*
X054848Y013631D01*
X054848Y013729D02*
X054708Y013729D01*
X054806Y013828D02*
X054848Y013828D01*
X054848Y013532D02*
X054685Y013532D01*
X054784Y013434D02*
X054848Y013434D01*
X055898Y014420D02*
X056085Y014420D01*
X055991Y014420D02*
X055991Y014980D01*
X055898Y014980D02*
X056085Y014980D01*
X056303Y014887D02*
X056303Y014513D01*
X056396Y014420D01*
X056583Y014420D01*
X056677Y014513D01*
X056677Y014887D01*
X056583Y014980D01*
X056396Y014980D01*
X056303Y014887D01*
X056911Y014980D02*
X056911Y014420D01*
X057191Y014420D01*
X057284Y014513D01*
X057284Y014887D01*
X057191Y014980D01*
X056911Y014980D01*
X056845Y017920D02*
X056845Y018480D01*
X056845Y018200D02*
X056471Y018200D01*
X056471Y017920D02*
X056471Y018480D01*
X055629Y018387D02*
X055629Y018200D01*
X055536Y018106D01*
X055256Y018106D01*
X055442Y018106D02*
X055629Y017920D01*
X055256Y017920D02*
X055256Y018480D01*
X055536Y018480D01*
X055629Y018387D01*
X055021Y018293D02*
X054835Y018480D01*
X054648Y018293D01*
X054648Y017920D01*
X054648Y018200D02*
X055021Y018200D01*
X055021Y018293D02*
X055021Y017920D01*
X045845Y020920D02*
X045845Y021480D01*
X045845Y021200D02*
X045471Y021200D01*
X045471Y020920D02*
X045471Y021480D01*
X044629Y021480D02*
X044629Y021387D01*
X044256Y021013D01*
X044256Y020920D01*
X044629Y020920D01*
X044629Y021480D02*
X044256Y021480D01*
X044021Y021480D02*
X043648Y021480D01*
X043648Y020920D01*
X043648Y021200D02*
X043835Y021200D01*
X044898Y026670D02*
X044898Y027230D01*
X045271Y027230D01*
X045506Y027230D02*
X045879Y027230D01*
X045879Y027137D01*
X045506Y026763D01*
X045506Y026670D01*
X045879Y026670D01*
X046721Y026670D02*
X046721Y027230D01*
X046721Y026670D02*
X047095Y026670D01*
X045085Y026950D02*
X044898Y026950D01*
X053398Y032170D02*
X053585Y032170D01*
X053491Y032170D02*
X053491Y032730D01*
X053398Y032730D02*
X053585Y032730D01*
X053803Y032637D02*
X053803Y032263D01*
X053896Y032170D01*
X054083Y032170D01*
X054177Y032263D01*
X054177Y032637D01*
X054083Y032730D01*
X053896Y032730D01*
X053803Y032637D01*
X054411Y032730D02*
X054411Y032170D01*
X054691Y032170D01*
X054784Y032263D01*
X054784Y032637D01*
X054691Y032730D01*
X054411Y032730D01*
X051435Y035513D02*
X051341Y035420D01*
X051154Y035420D01*
X051061Y035513D01*
X051061Y035887D01*
X051154Y035980D01*
X051341Y035980D01*
X051435Y035887D01*
X050827Y035793D02*
X050547Y035793D01*
X050453Y035700D01*
X050547Y035606D01*
X050733Y035606D01*
X050827Y035513D01*
X050733Y035420D01*
X050453Y035420D01*
X050219Y035513D02*
X050219Y035700D01*
X050126Y035793D01*
X049939Y035793D01*
X049846Y035700D01*
X049846Y035513D01*
X049939Y035420D01*
X050126Y035420D01*
X050219Y035513D01*
X049627Y035420D02*
X049440Y035420D01*
X049534Y035420D02*
X049534Y035793D01*
X049440Y035793D01*
X049534Y035980D02*
X049534Y036073D01*
X049206Y035793D02*
X048833Y035420D01*
X048599Y035606D02*
X048225Y035606D01*
X048225Y035513D02*
X048225Y035700D01*
X048318Y035793D01*
X048505Y035793D01*
X048599Y035700D01*
X048599Y035606D01*
X048505Y035420D02*
X048318Y035420D01*
X048225Y035513D01*
X048007Y035420D02*
X047820Y035420D01*
X047913Y035420D02*
X047913Y035980D01*
X047820Y035980D01*
X047586Y035793D02*
X047586Y035420D01*
X047586Y035700D02*
X047212Y035700D01*
X047212Y035793D02*
X047399Y035980D01*
X047586Y035793D01*
X047212Y035793D02*
X047212Y035420D01*
X046370Y035513D02*
X046277Y035420D01*
X046090Y035420D01*
X045997Y035513D01*
X045763Y035420D02*
X045389Y035420D01*
X045576Y035420D02*
X045576Y035980D01*
X045389Y035793D01*
X045155Y035887D02*
X044781Y035513D01*
X044875Y035420D01*
X045061Y035420D01*
X045155Y035513D01*
X045155Y035887D01*
X045061Y035980D01*
X044875Y035980D01*
X044781Y035887D01*
X044781Y035513D01*
X044547Y035420D02*
X044174Y035420D01*
X044547Y035793D01*
X044547Y035887D01*
X044454Y035980D01*
X044267Y035980D01*
X044174Y035887D01*
X043348Y035793D02*
X043161Y035980D01*
X043348Y035793D02*
X043348Y035606D01*
X043161Y035420D01*
X042927Y035420D02*
X042646Y035420D01*
X042553Y035513D01*
X042553Y035700D01*
X042646Y035793D01*
X042927Y035793D01*
X042335Y035980D02*
X042148Y035793D01*
X042148Y035606D01*
X042335Y035420D01*
X045997Y035887D02*
X046090Y035980D01*
X046277Y035980D01*
X046370Y035887D01*
X046370Y035793D01*
X046277Y035700D01*
X046370Y035606D01*
X046370Y035513D01*
X046277Y035700D02*
X046184Y035700D01*
X048833Y035793D02*
X049206Y035420D01*
X057898Y039420D02*
X057898Y039793D01*
X058085Y039980D01*
X058271Y039793D01*
X058271Y039420D01*
X058506Y039420D02*
X058506Y039980D01*
X058786Y039980D01*
X058879Y039887D01*
X058879Y039700D01*
X058786Y039606D01*
X058506Y039606D01*
X058692Y039606D02*
X058879Y039420D01*
X058271Y039700D02*
X057898Y039700D01*
X059721Y039980D02*
X059721Y039420D01*
X060095Y039420D01*
X062048Y043370D02*
X062598Y043220D01*
X062598Y043570D01*
X062248Y043670D01*
X061948Y043920D01*
X061798Y044370D01*
X061448Y044370D01*
X061498Y044020D01*
X061698Y043670D01*
X062048Y043370D01*
X062023Y043391D02*
X062598Y043391D01*
X062598Y043489D02*
X061908Y043489D01*
X061793Y043588D02*
X062534Y043588D01*
X062598Y043292D02*
X062331Y043292D01*
X062228Y043686D02*
X061688Y043686D01*
X061632Y043785D02*
X062109Y043785D01*
X061991Y043883D02*
X061576Y043883D01*
X061519Y043982D02*
X061927Y043982D01*
X061894Y044081D02*
X061489Y044081D01*
X061475Y044179D02*
X061861Y044179D01*
X061829Y044278D02*
X061461Y044278D01*
X062598Y045170D02*
X062948Y045070D01*
X063248Y044820D01*
X063398Y044370D01*
X063748Y044370D01*
X063698Y044720D01*
X063498Y045070D01*
X063148Y045370D01*
X062598Y045520D01*
X062598Y045170D01*
X062615Y045165D02*
X063387Y045165D01*
X063500Y045066D02*
X062952Y045066D01*
X063070Y044967D02*
X063556Y044967D01*
X063613Y044869D02*
X063189Y044869D01*
X063264Y044770D02*
X063669Y044770D01*
X063705Y044672D02*
X063297Y044672D01*
X063330Y044573D02*
X063719Y044573D01*
X063733Y044475D02*
X063363Y044475D01*
X063396Y044376D02*
X063747Y044376D01*
X063272Y045263D02*
X062598Y045263D01*
X062598Y045362D02*
X063157Y045362D01*
X062816Y045460D02*
X062598Y045460D01*
X060271Y046013D02*
X060271Y046387D01*
X060178Y046480D01*
X059991Y046480D01*
X059898Y046387D01*
X059898Y046293D01*
X059991Y046200D01*
X060271Y046200D01*
X060271Y046013D02*
X060178Y045920D01*
X059991Y045920D01*
X059898Y046013D01*
X053771Y046013D02*
X053678Y045920D01*
X053491Y045920D01*
X053398Y046013D01*
X053398Y046106D01*
X053491Y046200D01*
X053678Y046200D01*
X053771Y046106D01*
X053771Y046013D01*
X053678Y046200D02*
X053771Y046293D01*
X053771Y046387D01*
X053678Y046480D01*
X053491Y046480D01*
X053398Y046387D01*
X053398Y046293D01*
X053491Y046200D01*
X046021Y046387D02*
X045648Y046013D01*
X045648Y045920D01*
X045648Y046480D02*
X046021Y046480D01*
X046021Y046387D01*
X039771Y046480D02*
X039585Y046387D01*
X039398Y046200D01*
X039678Y046200D01*
X039771Y046106D01*
X039771Y046013D01*
X039678Y045920D01*
X039491Y045920D01*
X039398Y046013D01*
X039398Y046200D01*
X034021Y046200D02*
X034021Y046013D01*
X033928Y045920D01*
X033741Y045920D01*
X033648Y046013D01*
X033648Y046200D02*
X033835Y046293D01*
X033928Y046293D01*
X034021Y046200D01*
X034021Y046480D02*
X033648Y046480D01*
X033648Y046200D01*
X027021Y046200D02*
X026648Y046200D01*
X026928Y046480D01*
X026928Y045920D01*
X021271Y046013D02*
X021178Y045920D01*
X020991Y045920D01*
X020898Y046013D01*
X021085Y046200D02*
X021178Y046200D01*
X021271Y046106D01*
X021271Y046013D01*
X021178Y046200D02*
X021271Y046293D01*
X021271Y046387D01*
X021178Y046480D01*
X020991Y046480D01*
X020898Y046387D01*
X014271Y046387D02*
X014178Y046480D01*
X013991Y046480D01*
X013898Y046387D01*
X014271Y046387D02*
X014271Y046293D01*
X013898Y045920D01*
X014271Y045920D01*
X008271Y045920D02*
X007898Y045920D01*
X008085Y045920D02*
X008085Y046480D01*
X007898Y046293D01*
X007022Y045263D02*
X006348Y045263D01*
X006348Y045170D02*
X006698Y045070D01*
X006998Y044820D01*
X007148Y044370D01*
X007498Y044370D01*
X007448Y044720D01*
X007248Y045070D01*
X006898Y045370D01*
X006348Y045520D01*
X006348Y045170D01*
X006365Y045165D02*
X007137Y045165D01*
X007250Y045066D02*
X006702Y045066D01*
X006820Y044967D02*
X007306Y044967D01*
X007363Y044869D02*
X006939Y044869D01*
X007014Y044770D02*
X007419Y044770D01*
X007455Y044672D02*
X007047Y044672D01*
X007080Y044573D02*
X007469Y044573D01*
X007483Y044475D02*
X007113Y044475D01*
X007146Y044376D02*
X007497Y044376D01*
X006907Y045362D02*
X006348Y045362D01*
X006348Y045460D02*
X006566Y045460D01*
X005548Y044370D02*
X005198Y044370D01*
X005248Y044020D01*
X005448Y043670D01*
X005798Y043370D01*
X006348Y043220D01*
X006348Y043570D01*
X005998Y043670D01*
X005698Y043920D01*
X005548Y044370D01*
X005579Y044278D02*
X005211Y044278D01*
X005225Y044179D02*
X005611Y044179D01*
X005644Y044081D02*
X005239Y044081D01*
X005269Y043982D02*
X005677Y043982D01*
X005741Y043883D02*
X005326Y043883D01*
X005382Y043785D02*
X005859Y043785D01*
X005978Y043686D02*
X005438Y043686D01*
X005543Y043588D02*
X006284Y043588D01*
X006348Y043489D02*
X005658Y043489D01*
X005773Y043391D02*
X006348Y043391D01*
X006348Y043292D02*
X006081Y043292D01*
X008798Y040920D02*
X009048Y040670D01*
X008798Y040420D01*
X008798Y040920D01*
X008798Y040829D02*
X008889Y040829D01*
X008798Y040730D02*
X008987Y040730D01*
X009010Y040632D02*
X008798Y040632D01*
X008798Y040533D02*
X008911Y040533D01*
X008813Y040434D02*
X008798Y040434D01*
X005835Y037480D02*
X006021Y037293D01*
X006021Y036920D01*
X006021Y037200D02*
X005648Y037200D01*
X005648Y037293D02*
X005835Y037480D01*
X005648Y037293D02*
X005648Y036920D01*
X007648Y034730D02*
X007928Y034730D01*
X008021Y034637D01*
X008021Y034450D01*
X007928Y034356D01*
X007648Y034356D01*
X007648Y034170D02*
X007648Y034730D01*
X008256Y034637D02*
X008256Y034263D01*
X008349Y034170D01*
X008536Y034170D01*
X008629Y034263D01*
X008629Y034637D02*
X008536Y034730D01*
X008349Y034730D01*
X008256Y034637D01*
X009471Y034730D02*
X009471Y034170D01*
X009845Y034170D01*
X005928Y030230D02*
X005648Y030230D01*
X005648Y029670D01*
X005928Y029670D01*
X006021Y029763D01*
X006021Y029856D01*
X005928Y029950D01*
X005648Y029950D01*
X005928Y029950D02*
X006021Y030043D01*
X006021Y030137D01*
X005928Y030230D01*
X005928Y024730D02*
X005741Y024730D01*
X005648Y024637D01*
X005648Y024263D01*
X005741Y024170D01*
X005928Y024170D01*
X006021Y024263D01*
X006021Y024637D02*
X005928Y024730D01*
X007048Y021480D02*
X007328Y021480D01*
X007421Y021387D01*
X007421Y021200D01*
X007328Y021106D01*
X007048Y021106D01*
X007048Y020920D02*
X007048Y021480D01*
X007656Y021387D02*
X007656Y021013D01*
X007749Y020920D01*
X007936Y020920D01*
X008029Y021013D01*
X008029Y021387D02*
X007936Y021480D01*
X007749Y021480D01*
X007656Y021387D01*
X008871Y021480D02*
X008871Y020920D01*
X008871Y021200D02*
X009245Y021200D01*
X009245Y021480D02*
X009245Y020920D01*
X005928Y017230D02*
X005648Y017230D01*
X005648Y016670D01*
X005928Y016670D01*
X006021Y016763D01*
X006021Y017137D01*
X005928Y017230D01*
X006348Y011270D02*
X006898Y011120D01*
X007248Y010820D01*
X007448Y010470D01*
X007498Y010120D01*
X007148Y010120D01*
X006998Y010570D01*
X006698Y010820D01*
X006348Y010920D01*
X006348Y011270D01*
X006348Y011266D02*
X006362Y011266D01*
X006348Y011167D02*
X006724Y011167D01*
X006957Y011069D02*
X006348Y011069D01*
X006348Y010970D02*
X007072Y010970D01*
X007187Y010871D02*
X006516Y010871D01*
X006754Y010773D02*
X007275Y010773D01*
X007331Y010674D02*
X006872Y010674D01*
X006990Y010576D02*
X007387Y010576D01*
X007443Y010477D02*
X007029Y010477D01*
X007061Y010379D02*
X007461Y010379D01*
X007475Y010280D02*
X007094Y010280D01*
X007127Y010182D02*
X007489Y010182D01*
X006348Y009320D02*
X006348Y008970D01*
X005798Y009120D01*
X005448Y009420D01*
X005248Y009770D01*
X005198Y010120D01*
X005548Y010120D01*
X005698Y009670D01*
X005998Y009420D01*
X006348Y009320D01*
X006348Y009295D02*
X005593Y009295D01*
X005478Y009393D02*
X006090Y009393D01*
X005911Y009492D02*
X005407Y009492D01*
X005350Y009590D02*
X005793Y009590D01*
X005691Y009689D02*
X005294Y009689D01*
X005245Y009787D02*
X005659Y009787D01*
X005626Y009886D02*
X005231Y009886D01*
X005217Y009985D02*
X005593Y009985D01*
X005560Y010083D02*
X005203Y010083D01*
X005708Y009196D02*
X006348Y009196D01*
X006348Y009098D02*
X005878Y009098D01*
X006239Y008999D02*
X006348Y008999D01*
X007898Y008043D02*
X008085Y008230D01*
X008085Y007670D01*
X008271Y007670D02*
X007898Y007670D01*
X013898Y007670D02*
X014271Y008043D01*
X014271Y008137D01*
X014178Y008230D01*
X013991Y008230D01*
X013898Y008137D01*
X013898Y007670D02*
X014271Y007670D01*
X020898Y007763D02*
X020991Y007670D01*
X021178Y007670D01*
X021271Y007763D01*
X021271Y007856D01*
X021178Y007950D01*
X021085Y007950D01*
X021178Y007950D02*
X021271Y008043D01*
X021271Y008137D01*
X021178Y008230D01*
X020991Y008230D01*
X020898Y008137D01*
X026648Y007950D02*
X027021Y007950D01*
X026928Y008230D02*
X026648Y007950D01*
X026928Y007670D02*
X026928Y008230D01*
X029848Y013370D02*
X029598Y013620D01*
X029848Y013870D01*
X029848Y013370D01*
X029848Y013434D02*
X029784Y013434D01*
X029848Y013532D02*
X029685Y013532D01*
X029609Y013631D02*
X029848Y013631D01*
X029848Y013729D02*
X029708Y013729D01*
X029806Y013828D02*
X029848Y013828D01*
X033648Y008230D02*
X033648Y007950D01*
X033835Y008043D01*
X033928Y008043D01*
X034021Y007950D01*
X034021Y007763D01*
X033928Y007670D01*
X033741Y007670D01*
X033648Y007763D01*
X033648Y008230D02*
X034021Y008230D01*
X039398Y007950D02*
X039678Y007950D01*
X039771Y007856D01*
X039771Y007763D01*
X039678Y007670D01*
X039491Y007670D01*
X039398Y007763D01*
X039398Y007950D01*
X039585Y008137D01*
X039771Y008230D01*
X045648Y008230D02*
X046021Y008230D01*
X046021Y008137D01*
X045648Y007763D01*
X045648Y007670D01*
X053398Y007763D02*
X053398Y007856D01*
X053491Y007950D01*
X053678Y007950D01*
X053771Y007856D01*
X053771Y007763D01*
X053678Y007670D01*
X053491Y007670D01*
X053398Y007763D01*
X053491Y007950D02*
X053398Y008043D01*
X053398Y008137D01*
X053491Y008230D01*
X053678Y008230D01*
X053771Y008137D01*
X053771Y008043D01*
X053678Y007950D01*
X059898Y008043D02*
X059991Y007950D01*
X060271Y007950D01*
X060271Y007763D02*
X060271Y008137D01*
X060178Y008230D01*
X059991Y008230D01*
X059898Y008137D01*
X059898Y008043D01*
X059898Y007763D02*
X059991Y007670D01*
X060178Y007670D01*
X060271Y007763D01*
X061698Y009420D02*
X062048Y009120D01*
X062598Y008970D01*
X062598Y009320D01*
X062248Y009420D01*
X061948Y009670D01*
X061798Y010120D01*
X061448Y010120D01*
X061498Y009770D01*
X061698Y009420D01*
X061728Y009393D02*
X062340Y009393D01*
X062161Y009492D02*
X061657Y009492D01*
X061600Y009590D02*
X062043Y009590D01*
X061941Y009689D02*
X061544Y009689D01*
X061495Y009787D02*
X061909Y009787D01*
X061876Y009886D02*
X061481Y009886D01*
X061467Y009985D02*
X061843Y009985D01*
X061810Y010083D02*
X061453Y010083D01*
X061843Y009295D02*
X062598Y009295D01*
X062598Y009196D02*
X061958Y009196D01*
X062128Y009098D02*
X062598Y009098D01*
X062598Y008999D02*
X062489Y008999D01*
X063398Y010120D02*
X063748Y010120D01*
X063698Y010470D01*
X063498Y010820D01*
X063148Y011120D01*
X062598Y011270D01*
X062598Y010920D01*
X062948Y010820D01*
X063248Y010570D01*
X063398Y010120D01*
X063377Y010182D02*
X063739Y010182D01*
X063725Y010280D02*
X063344Y010280D01*
X063311Y010379D02*
X063711Y010379D01*
X063693Y010477D02*
X063279Y010477D01*
X063240Y010576D02*
X063637Y010576D01*
X063581Y010674D02*
X063122Y010674D01*
X063004Y010773D02*
X063525Y010773D01*
X063437Y010871D02*
X062766Y010871D01*
X062598Y010970D02*
X063322Y010970D01*
X063207Y011069D02*
X062598Y011069D01*
X062598Y011167D02*
X062974Y011167D01*
X062612Y011266D02*
X062598Y011266D01*
X068897Y011270D02*
X068897Y010670D01*
X069798Y010670D01*
X069798Y011270D01*
X069798Y011590D02*
X068897Y012191D01*
X068897Y012511D02*
X068897Y012961D01*
X069047Y013112D01*
X069348Y013112D01*
X069498Y012961D01*
X069498Y012511D01*
X069798Y012511D02*
X068897Y012511D01*
X068897Y011590D02*
X069798Y012191D01*
X069348Y010970D02*
X069348Y010670D01*
X035095Y032920D02*
X034721Y032920D01*
X034721Y033480D01*
X033879Y033387D02*
X033786Y033480D01*
X033599Y033480D01*
X033506Y033387D01*
X033506Y033013D01*
X033599Y032920D01*
X033786Y032920D01*
X033879Y033013D01*
X033271Y032920D02*
X033271Y033293D01*
X033085Y033480D01*
X032898Y033293D01*
X032898Y032920D01*
X032898Y033200D02*
X033271Y033200D01*
X033798Y040420D02*
X033798Y040920D01*
X034048Y040670D01*
X033798Y040420D01*
X033798Y040434D02*
X033813Y040434D01*
X033798Y040533D02*
X033911Y040533D01*
X034010Y040632D02*
X033798Y040632D01*
X033798Y040730D02*
X033987Y040730D01*
X033889Y040829D02*
X033798Y040829D01*
X021595Y033670D02*
X021221Y033670D01*
X021221Y034230D01*
X020379Y034137D02*
X020379Y033950D01*
X020286Y033856D01*
X020006Y033856D01*
X020192Y033856D02*
X020379Y033670D01*
X020006Y033670D02*
X020006Y034230D01*
X020286Y034230D01*
X020379Y034137D01*
X019771Y034137D02*
X019678Y034230D01*
X019398Y034230D01*
X019398Y033670D01*
X019678Y033670D01*
X019771Y033763D01*
X019771Y034137D01*
X019928Y021230D02*
X019648Y021230D01*
X019648Y020670D01*
X019928Y020670D01*
X020021Y020763D01*
X020021Y021137D01*
X019928Y021230D01*
X020256Y021230D02*
X020536Y021230D01*
X020629Y021137D01*
X020629Y020950D01*
X020536Y020856D01*
X020256Y020856D01*
X020442Y020856D02*
X020629Y020670D01*
X020256Y020670D02*
X020256Y021230D01*
X021471Y021230D02*
X021471Y020670D01*
X021471Y020950D02*
X021845Y020950D01*
X021845Y021230D02*
X021845Y020670D01*
X032398Y020700D02*
X032771Y020700D01*
X032771Y020793D02*
X032771Y020420D01*
X033006Y020513D02*
X033099Y020420D01*
X033286Y020420D01*
X033379Y020513D01*
X033006Y020513D02*
X033006Y020887D01*
X033099Y020980D01*
X033286Y020980D01*
X033379Y020887D01*
X032771Y020793D02*
X032585Y020980D01*
X032398Y020793D01*
X032398Y020420D01*
X034221Y020420D02*
X034221Y020980D01*
X034221Y020700D02*
X034595Y020700D01*
X034595Y020980D02*
X034595Y020420D01*
D12*
X054153Y015015D02*
X054153Y014425D01*
X054153Y014621D02*
X054448Y014621D01*
X054547Y014720D01*
X054547Y014917D01*
X054448Y015015D01*
X054153Y015015D01*
X054797Y014720D02*
X055191Y014720D01*
X055093Y015015D02*
X054797Y014720D01*
X055093Y014425D02*
X055093Y015015D01*
X059825Y040725D02*
X060218Y040725D01*
X060021Y040725D02*
X060021Y041315D01*
X059825Y041118D01*
X060469Y041217D02*
X060568Y041315D01*
X060764Y041315D01*
X060863Y041217D01*
X060863Y041118D01*
X060764Y041020D01*
X060863Y040921D01*
X060863Y040823D01*
X060764Y040725D01*
X060568Y040725D01*
X060469Y040823D01*
X060666Y041020D02*
X060764Y041020D01*
X061114Y041217D02*
X061212Y041315D01*
X061409Y041315D01*
X061507Y041217D01*
X061507Y041118D01*
X061409Y041020D01*
X061507Y040921D01*
X061507Y040823D01*
X061409Y040725D01*
X061212Y040725D01*
X061114Y040823D01*
X061311Y041020D02*
X061409Y041020D01*
X061758Y041020D02*
X061955Y041217D01*
X062152Y041315D01*
X062054Y041020D02*
X061758Y041020D01*
X061758Y040823D01*
X061857Y040725D01*
X062054Y040725D01*
X062152Y040823D01*
X062152Y040921D01*
X062054Y041020D01*
X057441Y041925D02*
X057047Y041925D01*
X057244Y041925D02*
X057244Y042515D01*
X057047Y042318D01*
X056797Y042417D02*
X056797Y042220D01*
X056698Y042121D01*
X056403Y042121D01*
X056403Y041925D02*
X056403Y042515D01*
X056698Y042515D01*
X056797Y042417D01*
X007941Y013417D02*
X007941Y013318D01*
X007843Y013220D01*
X007941Y013121D01*
X007941Y013023D01*
X007843Y012925D01*
X007646Y012925D01*
X007547Y013023D01*
X007744Y013220D02*
X007843Y013220D01*
X007941Y013417D02*
X007843Y013515D01*
X007646Y013515D01*
X007547Y013417D01*
X007297Y013417D02*
X007297Y013220D01*
X007198Y013121D01*
X006903Y013121D01*
X006903Y012925D02*
X006903Y013515D01*
X007198Y013515D01*
X007297Y013417D01*
X007402Y041975D02*
X007008Y041975D01*
X007402Y042368D01*
X007402Y042467D01*
X007304Y042565D01*
X007107Y042565D01*
X007008Y042467D01*
X006757Y042467D02*
X006757Y042270D01*
X006659Y042171D01*
X006364Y042171D01*
X006364Y041975D02*
X006364Y042565D01*
X006659Y042565D01*
X006757Y042467D01*
D13*
X045799Y038447D02*
X046303Y038636D01*
X046302Y038636D02*
X046371Y038660D01*
X046442Y038680D01*
X046513Y038696D01*
X046585Y038709D01*
X046657Y038718D01*
X046730Y038723D01*
X046803Y038725D01*
X046876Y038723D01*
X046949Y038717D01*
X047021Y038707D01*
X047093Y038694D01*
X047164Y038677D01*
X047234Y038656D01*
X047303Y038632D01*
X047371Y038604D01*
X047437Y038573D01*
X059548Y040420D02*
X059548Y041620D01*
X062698Y041620D01*
X062698Y040420D01*
X059548Y040420D01*
D14*
X060979Y039364D02*
X060979Y039064D01*
X061054Y038989D01*
X061204Y038989D01*
X061279Y039064D01*
X061440Y039214D02*
X061740Y039214D01*
X061665Y038989D02*
X061665Y039439D01*
X061440Y039214D01*
X061279Y039364D02*
X061204Y039439D01*
X061054Y039439D01*
X060979Y039364D01*
X059463Y038645D02*
X059162Y038645D01*
X059162Y038420D01*
X059313Y038495D01*
X059388Y038495D01*
X059463Y038420D01*
X059463Y038270D01*
X059388Y038195D01*
X059237Y038195D01*
X059162Y038270D01*
X059002Y038270D02*
X058927Y038195D01*
X058777Y038195D01*
X058702Y038270D01*
X058702Y038570D01*
X058777Y038645D01*
X058927Y038645D01*
X059002Y038570D01*
X058545Y038645D02*
X058395Y038645D01*
X058470Y038645D02*
X058470Y038195D01*
X058395Y038195D02*
X058545Y038195D01*
X056490Y039739D02*
X056190Y039739D01*
X056490Y040039D01*
X056490Y040114D01*
X056415Y040189D01*
X056265Y040189D01*
X056190Y040114D01*
X056029Y040114D02*
X055954Y040189D01*
X055804Y040189D01*
X055729Y040114D01*
X055729Y039814D01*
X055804Y039739D01*
X055954Y039739D01*
X056029Y039814D01*
X053713Y039320D02*
X053638Y039395D01*
X053487Y039395D01*
X053412Y039320D01*
X053252Y039320D02*
X053177Y039395D01*
X053027Y039395D01*
X052952Y039320D01*
X052952Y039020D01*
X053027Y038945D01*
X053177Y038945D01*
X053252Y039020D01*
X053412Y038945D02*
X053713Y039245D01*
X053713Y039320D01*
X053713Y038945D02*
X053412Y038945D01*
X052795Y038945D02*
X052645Y038945D01*
X052720Y038945D02*
X052720Y039395D01*
X052645Y039395D02*
X052795Y039395D01*
X058323Y042220D02*
X058398Y042145D01*
X058548Y042145D01*
X058623Y042220D01*
X058783Y042370D02*
X059083Y042370D01*
X059244Y042370D02*
X059469Y042370D01*
X059544Y042295D01*
X059544Y042220D01*
X059469Y042145D01*
X059319Y042145D01*
X059244Y042220D01*
X059244Y042370D01*
X059394Y042520D01*
X059544Y042595D01*
X059008Y042595D02*
X058783Y042370D01*
X058623Y042520D02*
X058548Y042595D01*
X058398Y042595D01*
X058323Y042520D01*
X058323Y042220D01*
X059008Y042145D02*
X059008Y042595D01*
X063873Y043220D02*
X063948Y043145D01*
X064098Y043145D01*
X064173Y043220D01*
X064173Y043520D02*
X064098Y043595D01*
X063948Y043595D01*
X063873Y043520D01*
X063873Y043220D01*
X064623Y043145D02*
X064848Y043145D01*
X064923Y043220D01*
X064923Y043295D01*
X064848Y043370D01*
X064623Y043370D01*
X064623Y043145D02*
X064623Y043595D01*
X064848Y043595D01*
X064923Y043520D01*
X064923Y043445D01*
X064848Y043370D01*
X065373Y043370D02*
X065673Y043370D01*
X065673Y043445D02*
X065673Y043145D01*
X065673Y043445D02*
X065523Y043595D01*
X065373Y043445D01*
X065373Y043145D01*
X066873Y042945D02*
X067023Y043095D01*
X067023Y042645D01*
X066873Y042645D02*
X067173Y042645D01*
X063213Y038845D02*
X062913Y038845D01*
X062913Y038620D01*
X063063Y038695D01*
X063138Y038695D01*
X063213Y038620D01*
X063213Y038470D01*
X063138Y038395D01*
X062988Y038395D01*
X062913Y038470D01*
X056740Y032364D02*
X056665Y032439D01*
X056515Y032439D01*
X056440Y032364D01*
X056440Y032289D01*
X056515Y032214D01*
X056740Y032214D01*
X056740Y032064D02*
X056740Y032364D01*
X056740Y032064D02*
X056665Y031989D01*
X056515Y031989D01*
X056440Y032064D01*
X056279Y032064D02*
X056204Y031989D01*
X056054Y031989D01*
X055979Y032064D01*
X055979Y032364D01*
X056054Y032439D01*
X056204Y032439D01*
X056279Y032364D01*
X054190Y031470D02*
X054190Y031395D01*
X054115Y031320D01*
X053965Y031320D01*
X053890Y031395D01*
X053890Y031470D01*
X053965Y031545D01*
X054115Y031545D01*
X054190Y031470D01*
X054115Y031320D02*
X054190Y031245D01*
X054190Y031170D01*
X054115Y031095D01*
X053965Y031095D01*
X053890Y031170D01*
X053890Y031245D01*
X053965Y031320D01*
X053730Y031470D02*
X053655Y031545D01*
X053505Y031545D01*
X053430Y031470D01*
X053430Y031170D01*
X053505Y031095D01*
X053655Y031095D01*
X053730Y031170D01*
X053273Y031095D02*
X053123Y031095D01*
X053198Y031095D02*
X053198Y031545D01*
X053123Y031545D02*
X053273Y031545D01*
X048700Y033739D02*
X048400Y033739D01*
X048550Y033739D02*
X048550Y034189D01*
X048400Y034039D01*
X048240Y033964D02*
X047940Y033964D01*
X048165Y034189D01*
X048165Y033739D01*
X047779Y033814D02*
X047704Y033739D01*
X047554Y033739D01*
X047479Y033814D01*
X047479Y034114D01*
X047554Y034189D01*
X047704Y034189D01*
X047779Y034114D01*
X046151Y033545D02*
X045850Y033545D01*
X045850Y033320D01*
X046001Y033395D01*
X046076Y033395D01*
X046151Y033320D01*
X046151Y033170D01*
X046076Y033095D01*
X045926Y033095D01*
X045850Y033170D01*
X045690Y033170D02*
X045615Y033095D01*
X045465Y033095D01*
X045390Y033170D01*
X045230Y033170D02*
X045155Y033095D01*
X045005Y033095D01*
X044930Y033170D01*
X044930Y033470D01*
X045005Y033545D01*
X045155Y033545D01*
X045230Y033470D01*
X045390Y033470D02*
X045465Y033545D01*
X045615Y033545D01*
X045690Y033470D01*
X045690Y033395D01*
X045615Y033320D01*
X045690Y033245D01*
X045690Y033170D01*
X045615Y033320D02*
X045540Y033320D01*
X044773Y033545D02*
X044623Y033545D01*
X044698Y033545D02*
X044698Y033095D01*
X044623Y033095D02*
X044773Y033095D01*
X043450Y033814D02*
X043375Y033739D01*
X043225Y033739D01*
X043150Y033814D01*
X043150Y033889D01*
X043225Y033964D01*
X043375Y033964D01*
X043450Y033889D01*
X043450Y033814D01*
X043375Y033964D02*
X043450Y034039D01*
X043450Y034114D01*
X043375Y034189D01*
X043225Y034189D01*
X043150Y034114D01*
X043150Y034039D01*
X043225Y033964D01*
X042990Y033889D02*
X042990Y033814D01*
X042915Y033739D01*
X042765Y033739D01*
X042690Y033814D01*
X042529Y033814D02*
X042454Y033739D01*
X042304Y033739D01*
X042229Y033814D01*
X042229Y034114D01*
X042304Y034189D01*
X042454Y034189D01*
X042529Y034114D01*
X042690Y034114D02*
X042765Y034189D01*
X042915Y034189D01*
X042990Y034114D01*
X042990Y034039D01*
X042915Y033964D01*
X042990Y033889D01*
X042915Y033964D02*
X042840Y033964D01*
X039651Y033545D02*
X039651Y033470D01*
X039350Y033170D01*
X039350Y033095D01*
X039190Y033170D02*
X039115Y033095D01*
X038965Y033095D01*
X038890Y033170D01*
X038730Y033170D02*
X038655Y033095D01*
X038505Y033095D01*
X038430Y033170D01*
X038430Y033470D01*
X038505Y033545D01*
X038655Y033545D01*
X038730Y033470D01*
X038890Y033470D02*
X038965Y033545D01*
X039115Y033545D01*
X039190Y033470D01*
X039190Y033395D01*
X039115Y033320D01*
X039190Y033245D01*
X039190Y033170D01*
X039115Y033320D02*
X039040Y033320D01*
X039350Y033545D02*
X039651Y033545D01*
X038273Y033545D02*
X038123Y033545D01*
X038198Y033545D02*
X038198Y033095D01*
X038123Y033095D02*
X038273Y033095D01*
X036625Y031689D02*
X036400Y031464D01*
X036700Y031464D01*
X036625Y031239D02*
X036625Y031689D01*
X036240Y031614D02*
X036240Y031539D01*
X036165Y031464D01*
X036240Y031389D01*
X036240Y031314D01*
X036165Y031239D01*
X036015Y031239D01*
X035940Y031314D01*
X035779Y031314D02*
X035704Y031239D01*
X035554Y031239D01*
X035479Y031314D01*
X035479Y031614D01*
X035554Y031689D01*
X035704Y031689D01*
X035779Y031614D01*
X035940Y031614D02*
X036015Y031689D01*
X036165Y031689D01*
X036240Y031614D01*
X036165Y031464D02*
X036090Y031464D01*
X032213Y031520D02*
X032213Y031220D01*
X032138Y031145D01*
X031987Y031145D01*
X031912Y031220D01*
X031987Y031370D02*
X031912Y031445D01*
X031912Y031520D01*
X031987Y031595D01*
X032138Y031595D01*
X032213Y031520D01*
X032213Y031370D02*
X031987Y031370D01*
X031752Y031445D02*
X031752Y031520D01*
X031677Y031595D01*
X031527Y031595D01*
X031452Y031520D01*
X031292Y031520D02*
X031217Y031595D01*
X031067Y031595D01*
X030992Y031520D01*
X030992Y031220D01*
X031067Y031145D01*
X031217Y031145D01*
X031292Y031220D01*
X031452Y031145D02*
X031752Y031445D01*
X031752Y031145D02*
X031452Y031145D01*
X030835Y031145D02*
X030685Y031145D01*
X030760Y031145D02*
X030760Y031595D01*
X030685Y031595D02*
X030835Y031595D01*
X031048Y032995D02*
X031198Y032995D01*
X031273Y033070D01*
X031433Y032995D02*
X031733Y033295D01*
X031733Y033370D01*
X031658Y033445D01*
X031508Y033445D01*
X031433Y033370D01*
X031273Y033370D02*
X031198Y033445D01*
X031048Y033445D01*
X030973Y033370D01*
X030973Y033070D01*
X031048Y032995D01*
X031433Y032995D02*
X031733Y032995D01*
X031894Y032995D02*
X032194Y032995D01*
X032044Y032995D02*
X032044Y033445D01*
X031894Y033295D01*
X030700Y033814D02*
X030625Y033739D01*
X030475Y033739D01*
X030400Y033814D01*
X030400Y033889D01*
X030475Y033964D01*
X030625Y033964D01*
X030700Y033889D01*
X030700Y033814D01*
X030625Y033964D02*
X030700Y034039D01*
X030700Y034114D01*
X030625Y034189D01*
X030475Y034189D01*
X030400Y034114D01*
X030400Y034039D01*
X030475Y033964D01*
X030240Y034039D02*
X030240Y034114D01*
X030165Y034189D01*
X030015Y034189D01*
X029940Y034114D01*
X029779Y034114D02*
X029704Y034189D01*
X029554Y034189D01*
X029479Y034114D01*
X029479Y033814D01*
X029554Y033739D01*
X029704Y033739D01*
X029779Y033814D01*
X029940Y033739D02*
X030240Y034039D01*
X030240Y033739D02*
X029940Y033739D01*
X026901Y033545D02*
X026751Y033470D01*
X026600Y033320D01*
X026826Y033320D01*
X026901Y033245D01*
X026901Y033170D01*
X026826Y033095D01*
X026676Y033095D01*
X026600Y033170D01*
X026600Y033320D01*
X026440Y033395D02*
X026440Y033470D01*
X026365Y033545D01*
X026215Y033545D01*
X026140Y033470D01*
X025980Y033470D02*
X025905Y033545D01*
X025755Y033545D01*
X025680Y033470D01*
X025680Y033170D01*
X025755Y033095D01*
X025905Y033095D01*
X025980Y033170D01*
X026140Y033095D02*
X026440Y033395D01*
X026440Y033095D02*
X026140Y033095D01*
X025523Y033095D02*
X025373Y033095D01*
X025448Y033095D02*
X025448Y033545D01*
X025373Y033545D02*
X025523Y033545D01*
X022700Y032964D02*
X022400Y032964D01*
X022625Y033189D01*
X022625Y032739D01*
X022240Y032739D02*
X021940Y032739D01*
X022240Y033039D01*
X022240Y033114D01*
X022165Y033189D01*
X022015Y033189D01*
X021940Y033114D01*
X021779Y033114D02*
X021704Y033189D01*
X021554Y033189D01*
X021479Y033114D01*
X021479Y032814D01*
X021554Y032739D01*
X021704Y032739D01*
X021779Y032814D01*
X020501Y032345D02*
X020501Y031895D01*
X020651Y031895D02*
X020350Y031895D01*
X020190Y031895D02*
X019890Y031895D01*
X020190Y032195D01*
X020190Y032270D01*
X020115Y032345D01*
X019965Y032345D01*
X019890Y032270D01*
X019730Y032270D02*
X019655Y032345D01*
X019505Y032345D01*
X019430Y032270D01*
X019430Y031970D01*
X019505Y031895D01*
X019655Y031895D01*
X019730Y031970D01*
X019273Y031895D02*
X019123Y031895D01*
X019198Y031895D02*
X019198Y032345D01*
X019123Y032345D02*
X019273Y032345D01*
X020350Y032195D02*
X020501Y032345D01*
X017450Y033364D02*
X017150Y033064D01*
X017150Y032989D01*
X016990Y032989D02*
X016690Y032989D01*
X016840Y032989D02*
X016840Y033439D01*
X016690Y033289D01*
X016529Y033364D02*
X016454Y033439D01*
X016304Y033439D01*
X016229Y033364D01*
X016229Y033064D01*
X016304Y032989D01*
X016454Y032989D01*
X016529Y033064D01*
X017150Y033439D02*
X017450Y033439D01*
X017450Y033364D01*
X013651Y033470D02*
X013350Y033170D01*
X013350Y033095D01*
X013190Y033095D02*
X012890Y033095D01*
X013040Y033095D02*
X013040Y033545D01*
X012890Y033395D01*
X012730Y033470D02*
X012655Y033545D01*
X012505Y033545D01*
X012430Y033470D01*
X012430Y033170D01*
X012505Y033095D01*
X012655Y033095D01*
X012730Y033170D01*
X012273Y033095D02*
X012123Y033095D01*
X012198Y033095D02*
X012198Y033545D01*
X012123Y033545D02*
X012273Y033545D01*
X013350Y033545D02*
X013651Y033545D01*
X013651Y033470D01*
X010200Y033114D02*
X010200Y033039D01*
X010125Y032964D01*
X010200Y032889D01*
X010200Y032814D01*
X010125Y032739D01*
X009975Y032739D01*
X009900Y032814D01*
X009740Y032739D02*
X009440Y032739D01*
X009590Y032739D02*
X009590Y033189D01*
X009440Y033039D01*
X009279Y033114D02*
X009204Y033189D01*
X009054Y033189D01*
X008979Y033114D01*
X008979Y032814D01*
X009054Y032739D01*
X009204Y032739D01*
X009279Y032814D01*
X009900Y033114D02*
X009975Y033189D01*
X010125Y033189D01*
X010200Y033114D01*
X010125Y032964D02*
X010050Y032964D01*
X008401Y032270D02*
X008326Y032345D01*
X008176Y032345D01*
X008100Y032270D01*
X008401Y032270D02*
X008401Y032195D01*
X008100Y031895D01*
X008401Y031895D01*
X007940Y031895D02*
X007640Y031895D01*
X007790Y031895D02*
X007790Y032345D01*
X007640Y032195D01*
X007480Y032270D02*
X007405Y032345D01*
X007255Y032345D01*
X007180Y032270D01*
X007180Y031970D01*
X007255Y031895D01*
X007405Y031895D01*
X007480Y031970D01*
X007023Y031895D02*
X006873Y031895D01*
X006948Y031895D02*
X006948Y032345D01*
X006873Y032345D02*
X007023Y032345D01*
X006969Y033745D02*
X006894Y033820D01*
X007194Y034120D01*
X007194Y033820D01*
X007119Y033745D01*
X006969Y033745D01*
X006894Y033820D02*
X006894Y034120D01*
X006969Y034195D01*
X007119Y034195D01*
X007194Y034120D01*
X006733Y034120D02*
X006658Y034195D01*
X006508Y034195D01*
X006433Y034120D01*
X006273Y034120D02*
X006198Y034195D01*
X006048Y034195D01*
X005973Y034120D01*
X005973Y033820D01*
X006048Y033745D01*
X006198Y033745D01*
X006273Y033820D01*
X006433Y033745D02*
X006733Y034045D01*
X006733Y034120D01*
X006733Y033745D02*
X006433Y033745D01*
X006873Y039395D02*
X007023Y039395D01*
X006948Y039395D02*
X006948Y039845D01*
X006873Y039845D02*
X007023Y039845D01*
X007180Y039770D02*
X007180Y039470D01*
X007255Y039395D01*
X007405Y039395D01*
X007480Y039470D01*
X007640Y039395D02*
X007940Y039395D01*
X007790Y039395D02*
X007790Y039845D01*
X007640Y039695D01*
X007480Y039770D02*
X007405Y039845D01*
X007255Y039845D01*
X007180Y039770D01*
X008100Y039695D02*
X008251Y039845D01*
X008251Y039395D01*
X008401Y039395D02*
X008100Y039395D01*
X010885Y039625D02*
X010960Y039550D01*
X011111Y039550D01*
X011186Y039625D01*
X011346Y039550D02*
X011646Y039550D01*
X011496Y039550D02*
X011496Y040000D01*
X011346Y039850D01*
X011186Y039925D02*
X011111Y040000D01*
X010960Y040000D01*
X010885Y039925D01*
X010885Y039625D01*
X011806Y039550D02*
X012106Y039850D01*
X012106Y039925D01*
X012031Y040000D01*
X011881Y040000D01*
X011806Y039925D01*
X011806Y039550D02*
X012106Y039550D01*
X012873Y039595D02*
X013023Y039595D01*
X012948Y039595D02*
X012948Y040045D01*
X012873Y040045D02*
X013023Y040045D01*
X013180Y039970D02*
X013180Y039670D01*
X013255Y039595D01*
X013405Y039595D01*
X013480Y039670D01*
X013640Y039595D02*
X013940Y039595D01*
X013790Y039595D02*
X013790Y040045D01*
X013640Y039895D01*
X013480Y039970D02*
X013405Y040045D01*
X013255Y040045D01*
X013180Y039970D01*
X014100Y040045D02*
X014100Y039820D01*
X014251Y039895D01*
X014326Y039895D01*
X014401Y039820D01*
X014401Y039670D01*
X014326Y039595D01*
X014176Y039595D01*
X014100Y039670D01*
X014100Y040045D02*
X014401Y040045D01*
X016979Y039864D02*
X016979Y039564D01*
X017054Y039489D01*
X017204Y039489D01*
X017279Y039564D01*
X017440Y039489D02*
X017740Y039489D01*
X017590Y039489D02*
X017590Y039939D01*
X017440Y039789D01*
X017279Y039864D02*
X017204Y039939D01*
X017054Y039939D01*
X016979Y039864D01*
X017900Y039714D02*
X017900Y039564D01*
X017975Y039489D01*
X018125Y039489D01*
X018200Y039564D01*
X018200Y039639D01*
X018125Y039714D01*
X017900Y039714D01*
X018050Y039864D01*
X018200Y039939D01*
X019623Y039845D02*
X019773Y039845D01*
X019698Y039845D02*
X019698Y039395D01*
X019623Y039395D02*
X019773Y039395D01*
X019930Y039470D02*
X019930Y039770D01*
X020005Y039845D01*
X020155Y039845D01*
X020230Y039770D01*
X020390Y039770D02*
X020465Y039845D01*
X020615Y039845D01*
X020690Y039770D01*
X020690Y039695D01*
X020390Y039395D01*
X020690Y039395D01*
X020850Y039470D02*
X021151Y039770D01*
X021151Y039470D01*
X021076Y039395D01*
X020926Y039395D01*
X020850Y039470D01*
X020850Y039770D01*
X020926Y039845D01*
X021076Y039845D01*
X021151Y039770D01*
X020230Y039470D02*
X020155Y039395D01*
X020005Y039395D01*
X019930Y039470D01*
X024079Y039664D02*
X024154Y039589D01*
X024304Y039589D01*
X024379Y039664D01*
X024540Y039589D02*
X024840Y039889D01*
X024840Y039964D01*
X024765Y040039D01*
X024615Y040039D01*
X024540Y039964D01*
X024379Y039964D02*
X024304Y040039D01*
X024154Y040039D01*
X024079Y039964D01*
X024079Y039664D01*
X024540Y039589D02*
X024840Y039589D01*
X025000Y039664D02*
X025075Y039589D01*
X025225Y039589D01*
X025300Y039664D01*
X025300Y039739D01*
X025225Y039814D01*
X025150Y039814D01*
X025225Y039814D02*
X025300Y039889D01*
X025300Y039964D01*
X025225Y040039D01*
X025075Y040039D01*
X025000Y039964D01*
X026623Y040045D02*
X026773Y040045D01*
X026698Y040045D02*
X026698Y039595D01*
X026623Y039595D02*
X026773Y039595D01*
X026930Y039670D02*
X027005Y039595D01*
X027155Y039595D01*
X027230Y039670D01*
X027390Y039595D02*
X027690Y039895D01*
X027690Y039970D01*
X027615Y040045D01*
X027465Y040045D01*
X027390Y039970D01*
X027230Y039970D02*
X027155Y040045D01*
X027005Y040045D01*
X026930Y039970D01*
X026930Y039670D01*
X027390Y039595D02*
X027690Y039595D01*
X027850Y039820D02*
X028151Y039820D01*
X028076Y040045D02*
X027850Y039820D01*
X028076Y039595D02*
X028076Y040045D01*
X029979Y040564D02*
X030054Y040489D01*
X030204Y040489D01*
X030279Y040564D01*
X030440Y040489D02*
X030740Y040789D01*
X030740Y040864D01*
X030665Y040939D01*
X030515Y040939D01*
X030440Y040864D01*
X030279Y040864D02*
X030204Y040939D01*
X030054Y040939D01*
X029979Y040864D01*
X029979Y040564D01*
X030440Y040489D02*
X030740Y040489D01*
X030900Y040489D02*
X030900Y040564D01*
X031200Y040864D01*
X031200Y040939D01*
X030900Y040939D01*
X032373Y039845D02*
X032523Y039845D01*
X032448Y039845D02*
X032448Y039395D01*
X032373Y039395D02*
X032523Y039395D01*
X032680Y039470D02*
X032680Y039770D01*
X032755Y039845D01*
X032905Y039845D01*
X032980Y039770D01*
X033140Y039770D02*
X033215Y039845D01*
X033365Y039845D01*
X033440Y039770D01*
X033440Y039695D01*
X033140Y039395D01*
X033440Y039395D01*
X033600Y039470D02*
X033600Y039545D01*
X033676Y039620D01*
X033826Y039620D01*
X033901Y039545D01*
X033901Y039470D01*
X033826Y039395D01*
X033676Y039395D01*
X033600Y039470D01*
X033676Y039620D02*
X033600Y039695D01*
X033600Y039770D01*
X033676Y039845D01*
X033826Y039845D01*
X033901Y039770D01*
X033901Y039695D01*
X033826Y039620D01*
X032980Y039470D02*
X032905Y039395D01*
X032755Y039395D01*
X032680Y039470D01*
X036229Y039564D02*
X036304Y039489D01*
X036454Y039489D01*
X036529Y039564D01*
X036690Y039564D02*
X036765Y039489D01*
X036915Y039489D01*
X036990Y039564D01*
X036990Y039639D01*
X036915Y039714D01*
X036840Y039714D01*
X036915Y039714D02*
X036990Y039789D01*
X036990Y039864D01*
X036915Y039939D01*
X036765Y039939D01*
X036690Y039864D01*
X036529Y039864D02*
X036454Y039939D01*
X036304Y039939D01*
X036229Y039864D01*
X036229Y039564D01*
X037150Y039564D02*
X037225Y039489D01*
X037375Y039489D01*
X037450Y039564D01*
X037450Y039639D01*
X037375Y039714D01*
X037300Y039714D01*
X037375Y039714D02*
X037450Y039789D01*
X037450Y039864D01*
X037375Y039939D01*
X037225Y039939D01*
X037150Y039864D01*
X038185Y039895D02*
X038335Y039895D01*
X038260Y039895D02*
X038260Y039445D01*
X038185Y039445D02*
X038335Y039445D01*
X038492Y039520D02*
X038567Y039445D01*
X038717Y039445D01*
X038792Y039520D01*
X038952Y039520D02*
X039027Y039445D01*
X039177Y039445D01*
X039252Y039520D01*
X039252Y039595D01*
X039177Y039670D01*
X039102Y039670D01*
X039177Y039670D02*
X039252Y039745D01*
X039252Y039820D01*
X039177Y039895D01*
X039027Y039895D01*
X038952Y039820D01*
X038792Y039820D02*
X038717Y039895D01*
X038567Y039895D01*
X038492Y039820D01*
X038492Y039520D01*
X039412Y039445D02*
X039713Y039745D01*
X039713Y039820D01*
X039638Y039895D01*
X039487Y039895D01*
X039412Y039820D01*
X039412Y039445D02*
X039713Y039445D01*
X042729Y039564D02*
X042804Y039489D01*
X042954Y039489D01*
X043029Y039564D01*
X043190Y039564D02*
X043265Y039489D01*
X043415Y039489D01*
X043490Y039564D01*
X043490Y039639D01*
X043415Y039714D01*
X043340Y039714D01*
X043415Y039714D02*
X043490Y039789D01*
X043490Y039864D01*
X043415Y039939D01*
X043265Y039939D01*
X043190Y039864D01*
X043029Y039864D02*
X042954Y039939D01*
X042804Y039939D01*
X042729Y039864D01*
X042729Y039564D01*
X043650Y039564D02*
X043950Y039864D01*
X043950Y039939D01*
X043650Y039939D01*
X043650Y039564D02*
X043650Y039489D01*
X044728Y039454D02*
X044749Y039456D01*
X044769Y039461D01*
X044788Y039469D01*
X044805Y039481D01*
X044821Y039495D01*
X044833Y039511D01*
X044843Y039529D01*
X044850Y039549D01*
X044854Y039570D01*
X044854Y039590D01*
X044850Y039611D01*
X044843Y039631D01*
X044833Y039649D01*
X044821Y039665D01*
X044805Y039679D01*
X044788Y039691D01*
X044769Y039699D01*
X044749Y039704D01*
X044728Y039706D01*
X044728Y039455D02*
X044707Y039453D01*
X044687Y039448D01*
X044668Y039440D01*
X044651Y039428D01*
X044635Y039414D01*
X044623Y039398D01*
X044613Y039380D01*
X044606Y039360D01*
X044602Y039339D01*
X044602Y039319D01*
X044606Y039298D01*
X044613Y039278D01*
X044623Y039260D01*
X044635Y039244D01*
X044651Y039230D01*
X044668Y039218D01*
X044687Y039210D01*
X044707Y039205D01*
X044728Y039203D01*
X044728Y039202D02*
X044749Y039200D01*
X044769Y039195D01*
X044788Y039187D01*
X044805Y039175D01*
X044821Y039161D01*
X044833Y039145D01*
X044843Y039127D01*
X044850Y039107D01*
X044854Y039086D01*
X044854Y039066D01*
X044850Y039045D01*
X044843Y039025D01*
X044833Y039007D01*
X044821Y038991D01*
X044805Y038977D01*
X044788Y038965D01*
X044769Y038957D01*
X044749Y038952D01*
X044728Y038950D01*
X044707Y038948D01*
X044687Y038943D01*
X044668Y038935D01*
X044651Y038923D01*
X044635Y038909D01*
X044623Y038893D01*
X044613Y038875D01*
X044606Y038855D01*
X044602Y038834D01*
X044602Y038814D01*
X044606Y038793D01*
X044613Y038773D01*
X044623Y038755D01*
X044635Y038739D01*
X044651Y038725D01*
X044668Y038713D01*
X044687Y038705D01*
X044707Y038700D01*
X044728Y038698D01*
X044917Y038321D02*
X044035Y038321D01*
X043972Y038258D02*
X043974Y038244D01*
X043978Y038231D01*
X043986Y038219D01*
X043996Y038209D01*
X044008Y038201D01*
X044021Y038197D01*
X044035Y038195D01*
X043972Y038258D02*
X043974Y038272D01*
X043978Y038285D01*
X043986Y038297D01*
X043996Y038307D01*
X044008Y038315D01*
X044021Y038319D01*
X044035Y038321D01*
X044035Y038195D02*
X044055Y038193D01*
X044074Y038189D01*
X044092Y038181D01*
X044109Y038171D01*
X044124Y038158D01*
X044137Y038143D01*
X044147Y038126D01*
X044155Y038108D01*
X044159Y038089D01*
X044161Y038069D01*
X044161Y038069D01*
X044098Y037627D01*
X044098Y037564D01*
X044100Y037508D01*
X044106Y037452D01*
X044115Y037397D01*
X044128Y037343D01*
X044145Y037290D01*
X044166Y037238D01*
X044190Y037187D01*
X044217Y037138D01*
X044248Y037092D01*
X044282Y037047D01*
X044318Y037005D01*
X044358Y036965D01*
X044400Y036929D01*
X044445Y036895D01*
X044491Y036864D01*
X044540Y036837D01*
X044591Y036813D01*
X044643Y036792D01*
X044696Y036775D01*
X044750Y036762D01*
X044805Y036753D01*
X044861Y036747D01*
X044917Y036745D01*
X044917Y036746D02*
X044917Y038321D01*
X045232Y038824D02*
X045211Y038826D01*
X045191Y038831D01*
X045172Y038839D01*
X045155Y038851D01*
X045139Y038865D01*
X045127Y038881D01*
X045117Y038899D01*
X045110Y038919D01*
X045106Y038940D01*
X045106Y038960D01*
X045110Y038981D01*
X045117Y039001D01*
X045127Y039019D01*
X045139Y039035D01*
X045155Y039049D01*
X045172Y039061D01*
X045191Y039069D01*
X045211Y039074D01*
X045232Y039076D01*
X045253Y039078D01*
X045273Y039083D01*
X045292Y039091D01*
X045309Y039103D01*
X045325Y039117D01*
X045337Y039133D01*
X045347Y039151D01*
X045354Y039171D01*
X045358Y039192D01*
X045358Y039212D01*
X045354Y039233D01*
X045347Y039253D01*
X045337Y039271D01*
X045325Y039287D01*
X045309Y039301D01*
X045292Y039313D01*
X045273Y039321D01*
X045253Y039326D01*
X045232Y039328D01*
X045211Y039330D01*
X045191Y039335D01*
X045172Y039343D01*
X045155Y039355D01*
X045139Y039369D01*
X045127Y039385D01*
X045117Y039403D01*
X045110Y039423D01*
X045106Y039444D01*
X045106Y039464D01*
X045110Y039485D01*
X045117Y039505D01*
X045127Y039523D01*
X045139Y039539D01*
X045155Y039553D01*
X045172Y039565D01*
X045191Y039573D01*
X045211Y039578D01*
X045232Y039580D01*
X045253Y039582D01*
X045273Y039587D01*
X045292Y039595D01*
X045309Y039607D01*
X045325Y039621D01*
X045337Y039637D01*
X045347Y039655D01*
X045354Y039675D01*
X045358Y039696D01*
X045358Y039716D01*
X045354Y039737D01*
X045347Y039757D01*
X045337Y039775D01*
X045325Y039791D01*
X045309Y039805D01*
X045292Y039817D01*
X045273Y039825D01*
X045253Y039830D01*
X045232Y039832D01*
X045736Y039706D02*
X045757Y039704D01*
X045777Y039699D01*
X045796Y039691D01*
X045813Y039679D01*
X045829Y039665D01*
X045841Y039649D01*
X045851Y039631D01*
X045858Y039611D01*
X045862Y039590D01*
X045862Y039570D01*
X045858Y039549D01*
X045851Y039529D01*
X045841Y039511D01*
X045829Y039495D01*
X045813Y039481D01*
X045796Y039469D01*
X045777Y039461D01*
X045757Y039456D01*
X045736Y039454D01*
X045736Y039455D02*
X045715Y039453D01*
X045695Y039448D01*
X045676Y039440D01*
X045659Y039428D01*
X045643Y039414D01*
X045631Y039398D01*
X045621Y039380D01*
X045614Y039360D01*
X045610Y039339D01*
X045610Y039319D01*
X045614Y039298D01*
X045621Y039278D01*
X045631Y039260D01*
X045643Y039244D01*
X045659Y039230D01*
X045676Y039218D01*
X045695Y039210D01*
X045715Y039205D01*
X045736Y039203D01*
X045736Y039202D02*
X045757Y039200D01*
X045777Y039195D01*
X045796Y039187D01*
X045813Y039175D01*
X045829Y039161D01*
X045841Y039145D01*
X045851Y039127D01*
X045858Y039107D01*
X045862Y039086D01*
X045862Y039066D01*
X045858Y039045D01*
X045851Y039025D01*
X045841Y039007D01*
X045829Y038991D01*
X045813Y038977D01*
X045796Y038965D01*
X045777Y038957D01*
X045757Y038952D01*
X045736Y038950D01*
X045715Y038948D01*
X045695Y038943D01*
X045676Y038935D01*
X045659Y038923D01*
X045643Y038909D01*
X045631Y038893D01*
X045621Y038875D01*
X045614Y038855D01*
X045610Y038834D01*
X045610Y038814D01*
X045614Y038793D01*
X045621Y038773D01*
X045631Y038755D01*
X045643Y038739D01*
X045659Y038725D01*
X045676Y038713D01*
X045695Y038705D01*
X045715Y038700D01*
X045736Y038698D01*
X058596Y028925D02*
X058596Y028625D01*
X058671Y028550D01*
X058821Y028550D01*
X058896Y028625D01*
X059056Y028550D02*
X059356Y028550D01*
X059206Y028550D02*
X059206Y029000D01*
X059056Y028850D01*
X058896Y028925D02*
X058821Y029000D01*
X058671Y029000D01*
X058596Y028925D01*
X060283Y029560D02*
X060913Y029560D01*
X060913Y030679D02*
X060283Y030679D01*
X060273Y031145D02*
X060123Y031145D01*
X060198Y031145D02*
X060198Y031595D01*
X060123Y031595D02*
X060273Y031595D01*
X060430Y031520D02*
X060430Y031220D01*
X060505Y031145D01*
X060655Y031145D01*
X060730Y031220D01*
X060890Y031145D02*
X061190Y031145D01*
X061040Y031145D02*
X061040Y031595D01*
X060890Y031445D01*
X060730Y031520D02*
X060655Y031595D01*
X060505Y031595D01*
X060430Y031520D01*
X062452Y031395D02*
X062752Y031395D01*
X062602Y031395D02*
X062602Y031845D01*
X062452Y031695D01*
X062912Y031770D02*
X062988Y031845D01*
X063138Y031845D01*
X063213Y031770D01*
X063213Y031695D01*
X062912Y031395D01*
X063213Y031395D01*
X063213Y028845D02*
X062912Y028845D01*
X062912Y028620D01*
X063063Y028695D01*
X063138Y028695D01*
X063213Y028620D01*
X063213Y028470D01*
X063138Y028395D01*
X062988Y028395D01*
X062912Y028470D01*
X062752Y028395D02*
X062452Y028395D01*
X062602Y028395D02*
X062602Y028845D01*
X062452Y028695D01*
X060869Y027445D02*
X060644Y027220D01*
X060944Y027220D01*
X060869Y026995D02*
X060869Y027445D01*
X060483Y027220D02*
X060183Y027220D01*
X060408Y027445D01*
X060408Y026995D01*
X060023Y027070D02*
X059948Y026995D01*
X059798Y026995D01*
X059723Y027070D01*
X059723Y027370D01*
X059798Y027445D01*
X059948Y027445D01*
X060023Y027370D01*
X061054Y025439D02*
X060979Y025364D01*
X060979Y025064D01*
X061054Y024989D01*
X061204Y024989D01*
X061279Y025064D01*
X061440Y025064D02*
X061515Y024989D01*
X061665Y024989D01*
X061740Y025064D01*
X061740Y025214D01*
X061665Y025289D01*
X061590Y025289D01*
X061440Y025214D01*
X061440Y025439D01*
X061740Y025439D01*
X061279Y025364D02*
X061204Y025439D01*
X061054Y025439D01*
X062452Y024695D02*
X062602Y024845D01*
X062602Y024395D01*
X062452Y024395D02*
X062752Y024395D01*
X062912Y024470D02*
X062988Y024395D01*
X063138Y024395D01*
X063213Y024470D01*
X063213Y024770D01*
X063138Y024845D01*
X062988Y024845D01*
X062912Y024770D01*
X062912Y024695D01*
X062988Y024620D01*
X063213Y024620D01*
X059690Y024495D02*
X059615Y024570D01*
X059390Y024570D01*
X059390Y024420D01*
X059465Y024345D01*
X059615Y024345D01*
X059690Y024420D01*
X059690Y024495D01*
X059540Y024720D02*
X059690Y024795D01*
X059540Y024720D02*
X059390Y024570D01*
X059230Y024720D02*
X059155Y024795D01*
X059005Y024795D01*
X058930Y024720D01*
X058930Y024420D01*
X059005Y024345D01*
X059155Y024345D01*
X059230Y024420D01*
X058773Y024345D02*
X058623Y024345D01*
X058698Y024345D02*
X058698Y024795D01*
X058623Y024795D02*
X058773Y024795D01*
X057490Y025064D02*
X057415Y024989D01*
X057265Y024989D01*
X057190Y025064D01*
X057029Y025064D02*
X056954Y024989D01*
X056804Y024989D01*
X056729Y025064D01*
X056729Y025364D01*
X056804Y025439D01*
X056954Y025439D01*
X057029Y025364D01*
X057190Y025364D02*
X057265Y025439D01*
X057415Y025439D01*
X057490Y025364D01*
X057490Y025289D01*
X057415Y025214D01*
X057490Y025139D01*
X057490Y025064D01*
X057415Y025214D02*
X057340Y025214D01*
X054190Y024720D02*
X054190Y024645D01*
X054115Y024570D01*
X054190Y024495D01*
X054190Y024420D01*
X054115Y024345D01*
X053965Y024345D01*
X053890Y024420D01*
X053730Y024420D02*
X053655Y024345D01*
X053505Y024345D01*
X053430Y024420D01*
X053430Y024720D01*
X053505Y024795D01*
X053655Y024795D01*
X053730Y024720D01*
X053890Y024720D02*
X053965Y024795D01*
X054115Y024795D01*
X054190Y024720D01*
X054115Y024570D02*
X054040Y024570D01*
X053273Y024795D02*
X053123Y024795D01*
X053198Y024795D02*
X053198Y024345D01*
X053123Y024345D02*
X053273Y024345D01*
X047863Y025120D02*
X047788Y025045D01*
X047637Y025045D01*
X047562Y025120D01*
X047562Y025270D02*
X047713Y025345D01*
X047788Y025345D01*
X047863Y025270D01*
X047863Y025120D01*
X047562Y025270D02*
X047562Y025495D01*
X047863Y025495D01*
X047402Y025270D02*
X047102Y025270D01*
X047327Y025495D01*
X047327Y025045D01*
X046942Y025120D02*
X046867Y025045D01*
X046717Y025045D01*
X046642Y025120D01*
X046642Y025420D01*
X046717Y025495D01*
X046867Y025495D01*
X046942Y025420D01*
X043850Y025464D02*
X043625Y025464D01*
X043550Y025539D01*
X043550Y025614D01*
X043625Y025689D01*
X043775Y025689D01*
X043850Y025614D01*
X043850Y025314D01*
X043775Y025239D01*
X043625Y025239D01*
X043550Y025314D01*
X043390Y025314D02*
X043315Y025239D01*
X043165Y025239D01*
X043090Y025314D01*
X042929Y025314D02*
X042854Y025239D01*
X042704Y025239D01*
X042629Y025314D01*
X042629Y025614D01*
X042704Y025689D01*
X042854Y025689D01*
X042929Y025614D01*
X043090Y025614D02*
X043165Y025689D01*
X043315Y025689D01*
X043390Y025614D01*
X043390Y025539D01*
X043315Y025464D01*
X043390Y025389D01*
X043390Y025314D01*
X043315Y025464D02*
X043240Y025464D01*
X039651Y026670D02*
X039576Y026595D01*
X039426Y026595D01*
X039350Y026670D01*
X039190Y026670D02*
X039115Y026595D01*
X038965Y026595D01*
X038890Y026670D01*
X038730Y026670D02*
X038655Y026595D01*
X038505Y026595D01*
X038430Y026670D01*
X038430Y026970D01*
X038505Y027045D01*
X038655Y027045D01*
X038730Y026970D01*
X038890Y026970D02*
X038965Y027045D01*
X039115Y027045D01*
X039190Y026970D01*
X039190Y026895D01*
X039115Y026820D01*
X039190Y026745D01*
X039190Y026670D01*
X039115Y026820D02*
X039040Y026820D01*
X039350Y026970D02*
X039426Y027045D01*
X039576Y027045D01*
X039651Y026970D01*
X039651Y026895D01*
X039576Y026820D01*
X039651Y026745D01*
X039651Y026670D01*
X039576Y026820D02*
X039501Y026820D01*
X038273Y027045D02*
X038123Y027045D01*
X038198Y027045D02*
X038198Y026595D01*
X038123Y026595D02*
X038273Y026595D01*
X037450Y026564D02*
X037375Y026489D01*
X037225Y026489D01*
X037150Y026564D01*
X037150Y026714D02*
X037300Y026789D01*
X037375Y026789D01*
X037450Y026714D01*
X037450Y026564D01*
X037150Y026714D02*
X037150Y026939D01*
X037450Y026939D01*
X036990Y026864D02*
X036990Y026789D01*
X036915Y026714D01*
X036990Y026639D01*
X036990Y026564D01*
X036915Y026489D01*
X036765Y026489D01*
X036690Y026564D01*
X036529Y026564D02*
X036454Y026489D01*
X036304Y026489D01*
X036229Y026564D01*
X036229Y026864D01*
X036304Y026939D01*
X036454Y026939D01*
X036529Y026864D01*
X036690Y026864D02*
X036765Y026939D01*
X036915Y026939D01*
X036990Y026864D01*
X036915Y026714D02*
X036840Y026714D01*
X033901Y026770D02*
X033600Y026470D01*
X033676Y026395D01*
X033826Y026395D01*
X033901Y026470D01*
X033901Y026770D01*
X033826Y026845D01*
X033676Y026845D01*
X033600Y026770D01*
X033600Y026470D01*
X033440Y026470D02*
X033365Y026395D01*
X033215Y026395D01*
X033140Y026470D01*
X032980Y026470D02*
X032905Y026395D01*
X032755Y026395D01*
X032680Y026470D01*
X032680Y026770D01*
X032755Y026845D01*
X032905Y026845D01*
X032980Y026770D01*
X033140Y026770D02*
X033215Y026845D01*
X033365Y026845D01*
X033440Y026770D01*
X033440Y026695D01*
X033365Y026620D01*
X033440Y026545D01*
X033440Y026470D01*
X033365Y026620D02*
X033290Y026620D01*
X032523Y026845D02*
X032373Y026845D01*
X032448Y026845D02*
X032448Y026395D01*
X032373Y026395D02*
X032523Y026395D01*
X030950Y026564D02*
X030950Y026864D01*
X030875Y026939D01*
X030725Y026939D01*
X030650Y026864D01*
X030650Y026789D01*
X030725Y026714D01*
X030950Y026714D01*
X030950Y026564D02*
X030875Y026489D01*
X030725Y026489D01*
X030650Y026564D01*
X030490Y026489D02*
X030190Y026489D01*
X030490Y026789D01*
X030490Y026864D01*
X030415Y026939D01*
X030265Y026939D01*
X030190Y026864D01*
X030029Y026864D02*
X029954Y026939D01*
X029804Y026939D01*
X029729Y026864D01*
X029729Y026564D01*
X029804Y026489D01*
X029954Y026489D01*
X030029Y026564D01*
X025901Y026670D02*
X025826Y026595D01*
X025676Y026595D01*
X025600Y026670D01*
X025600Y026820D02*
X025751Y026895D01*
X025826Y026895D01*
X025901Y026820D01*
X025901Y026670D01*
X025600Y026820D02*
X025600Y027045D01*
X025901Y027045D01*
X025440Y026970D02*
X025365Y027045D01*
X025215Y027045D01*
X025140Y026970D01*
X024980Y026970D02*
X024905Y027045D01*
X024755Y027045D01*
X024680Y026970D01*
X024680Y026670D01*
X024755Y026595D01*
X024905Y026595D01*
X024980Y026670D01*
X025140Y026595D02*
X025440Y026895D01*
X025440Y026970D01*
X025440Y026595D02*
X025140Y026595D01*
X024523Y026595D02*
X024373Y026595D01*
X024448Y026595D02*
X024448Y027045D01*
X024373Y027045D02*
X024523Y027045D01*
X023900Y027314D02*
X023825Y027239D01*
X023675Y027239D01*
X023600Y027314D01*
X023600Y027464D02*
X023750Y027539D01*
X023825Y027539D01*
X023900Y027464D01*
X023900Y027314D01*
X023600Y027464D02*
X023600Y027689D01*
X023900Y027689D01*
X023440Y027614D02*
X023365Y027689D01*
X023215Y027689D01*
X023140Y027614D01*
X022979Y027614D02*
X022904Y027689D01*
X022754Y027689D01*
X022679Y027614D01*
X022679Y027314D01*
X022754Y027239D01*
X022904Y027239D01*
X022979Y027314D01*
X023140Y027239D02*
X023440Y027539D01*
X023440Y027614D01*
X023440Y027239D02*
X023140Y027239D01*
X021151Y026770D02*
X021076Y026845D01*
X020926Y026845D01*
X020850Y026770D01*
X020690Y026770D02*
X020615Y026845D01*
X020465Y026845D01*
X020390Y026770D01*
X020230Y026770D02*
X020155Y026845D01*
X020005Y026845D01*
X019930Y026770D01*
X019930Y026470D01*
X020005Y026395D01*
X020155Y026395D01*
X020230Y026470D01*
X020390Y026395D02*
X020690Y026695D01*
X020690Y026770D01*
X020690Y026395D02*
X020390Y026395D01*
X020850Y026395D02*
X021151Y026695D01*
X021151Y026770D01*
X021151Y026395D02*
X020850Y026395D01*
X019773Y026395D02*
X019623Y026395D01*
X019698Y026395D02*
X019698Y026845D01*
X019623Y026845D02*
X019773Y026845D01*
X018450Y026864D02*
X018450Y026789D01*
X018375Y026714D01*
X018225Y026714D01*
X018150Y026789D01*
X018150Y026864D01*
X018225Y026939D01*
X018375Y026939D01*
X018450Y026864D01*
X018375Y026714D02*
X018450Y026639D01*
X018450Y026564D01*
X018375Y026489D01*
X018225Y026489D01*
X018150Y026564D01*
X018150Y026639D01*
X018225Y026714D01*
X017990Y026489D02*
X017690Y026489D01*
X017840Y026489D02*
X017840Y026939D01*
X017690Y026789D01*
X017529Y026864D02*
X017454Y026939D01*
X017304Y026939D01*
X017229Y026864D01*
X017229Y026564D01*
X017304Y026489D01*
X017454Y026489D01*
X017529Y026564D01*
X013651Y026670D02*
X013651Y026745D01*
X013576Y026820D01*
X013350Y026820D01*
X013350Y026670D01*
X013426Y026595D01*
X013576Y026595D01*
X013651Y026670D01*
X013501Y026970D02*
X013350Y026820D01*
X013501Y026970D02*
X013651Y027045D01*
X013040Y027045D02*
X013040Y026595D01*
X012890Y026595D02*
X013190Y026595D01*
X012890Y026895D02*
X013040Y027045D01*
X012730Y026970D02*
X012655Y027045D01*
X012505Y027045D01*
X012430Y026970D01*
X012430Y026670D01*
X012505Y026595D01*
X012655Y026595D01*
X012730Y026670D01*
X012273Y026595D02*
X012123Y026595D01*
X012198Y026595D02*
X012198Y027045D01*
X012123Y027045D02*
X012273Y027045D01*
X011400Y026714D02*
X011100Y026714D01*
X011325Y026939D01*
X011325Y026489D01*
X010940Y026489D02*
X010640Y026489D01*
X010790Y026489D02*
X010790Y026939D01*
X010640Y026789D01*
X010479Y026864D02*
X010404Y026939D01*
X010254Y026939D01*
X010179Y026864D01*
X010179Y026564D01*
X010254Y026489D01*
X010404Y026489D01*
X010479Y026564D01*
X007651Y026545D02*
X007651Y026470D01*
X007576Y026395D01*
X007426Y026395D01*
X007350Y026470D01*
X007190Y026395D02*
X006890Y026395D01*
X007040Y026395D02*
X007040Y026845D01*
X006890Y026695D01*
X006730Y026770D02*
X006655Y026845D01*
X006505Y026845D01*
X006430Y026770D01*
X006430Y026470D01*
X006505Y026395D01*
X006655Y026395D01*
X006730Y026470D01*
X006273Y026395D02*
X006123Y026395D01*
X006198Y026395D02*
X006198Y026845D01*
X006123Y026845D02*
X006273Y026845D01*
X007350Y026770D02*
X007426Y026845D01*
X007576Y026845D01*
X007651Y026770D01*
X007651Y026695D01*
X007576Y026620D01*
X007651Y026545D01*
X007576Y026620D02*
X007501Y026620D01*
X008048Y020445D02*
X007973Y020370D01*
X007973Y020070D01*
X008048Y019995D01*
X008198Y019995D01*
X008273Y020070D01*
X008433Y020070D02*
X008508Y019995D01*
X008658Y019995D01*
X008733Y020070D01*
X008733Y020145D01*
X008658Y020220D01*
X008583Y020220D01*
X008658Y020220D02*
X008733Y020295D01*
X008733Y020370D01*
X008658Y020445D01*
X008508Y020445D01*
X008433Y020370D01*
X008273Y020370D02*
X008198Y020445D01*
X008048Y020445D01*
X008894Y020295D02*
X009044Y020445D01*
X009044Y019995D01*
X008894Y019995D02*
X009194Y019995D01*
X009479Y020114D02*
X009479Y019814D01*
X009554Y019739D01*
X009704Y019739D01*
X009779Y019814D01*
X009940Y019739D02*
X010240Y019739D01*
X010090Y019739D02*
X010090Y020189D01*
X009940Y020039D01*
X009779Y020114D02*
X009704Y020189D01*
X009554Y020189D01*
X009479Y020114D01*
X010400Y020189D02*
X010400Y019964D01*
X010550Y020039D01*
X010625Y020039D01*
X010700Y019964D01*
X010700Y019814D01*
X010625Y019739D01*
X010475Y019739D01*
X010400Y019814D01*
X010400Y020189D02*
X010700Y020189D01*
X012623Y020095D02*
X012773Y020095D01*
X012698Y020095D02*
X012698Y020545D01*
X012623Y020545D02*
X012773Y020545D01*
X012930Y020470D02*
X012930Y020170D01*
X013005Y020095D01*
X013155Y020095D01*
X013230Y020170D01*
X013390Y020095D02*
X013690Y020095D01*
X013540Y020095D02*
X013540Y020545D01*
X013390Y020395D01*
X013230Y020470D02*
X013155Y020545D01*
X013005Y020545D01*
X012930Y020470D01*
X013850Y020470D02*
X013850Y020395D01*
X013926Y020320D01*
X014076Y020320D01*
X014151Y020245D01*
X014151Y020170D01*
X014076Y020095D01*
X013926Y020095D01*
X013850Y020170D01*
X013850Y020245D01*
X013926Y020320D01*
X014076Y020320D02*
X014151Y020395D01*
X014151Y020470D01*
X014076Y020545D01*
X013926Y020545D01*
X013850Y020470D01*
X017229Y020364D02*
X017229Y020064D01*
X017304Y019989D01*
X017454Y019989D01*
X017529Y020064D01*
X017690Y019989D02*
X017990Y019989D01*
X017840Y019989D02*
X017840Y020439D01*
X017690Y020289D01*
X017529Y020364D02*
X017454Y020439D01*
X017304Y020439D01*
X017229Y020364D01*
X018150Y020364D02*
X018150Y020289D01*
X018225Y020214D01*
X018450Y020214D01*
X018450Y020064D02*
X018450Y020364D01*
X018375Y020439D01*
X018225Y020439D01*
X018150Y020364D01*
X018150Y020064D02*
X018225Y019989D01*
X018375Y019989D01*
X018450Y020064D01*
X018873Y019345D02*
X019023Y019345D01*
X018948Y019345D02*
X018948Y018895D01*
X018873Y018895D02*
X019023Y018895D01*
X019180Y018970D02*
X019180Y019270D01*
X019255Y019345D01*
X019405Y019345D01*
X019480Y019270D01*
X019640Y019270D02*
X019715Y019345D01*
X019865Y019345D01*
X019940Y019270D01*
X019940Y019195D01*
X019640Y018895D01*
X019940Y018895D01*
X020100Y018970D02*
X020176Y018895D01*
X020326Y018895D01*
X020401Y018970D01*
X020401Y019045D01*
X020326Y019120D01*
X020251Y019120D01*
X020326Y019120D02*
X020401Y019195D01*
X020401Y019270D01*
X020326Y019345D01*
X020176Y019345D01*
X020100Y019270D01*
X019480Y018970D02*
X019405Y018895D01*
X019255Y018895D01*
X019180Y018970D01*
X021729Y019814D02*
X021729Y020114D01*
X021804Y020189D01*
X021954Y020189D01*
X022029Y020114D01*
X022190Y020114D02*
X022265Y020189D01*
X022415Y020189D01*
X022490Y020114D01*
X022490Y020039D01*
X022190Y019739D01*
X022490Y019739D01*
X022650Y019814D02*
X022725Y019739D01*
X022875Y019739D01*
X022950Y019814D01*
X022950Y019889D01*
X022875Y019964D01*
X022650Y019964D01*
X022650Y019814D01*
X022650Y019964D02*
X022800Y020114D01*
X022950Y020189D01*
X022029Y019814D02*
X021954Y019739D01*
X021804Y019739D01*
X021729Y019814D01*
X025373Y020095D02*
X025523Y020095D01*
X025448Y020095D02*
X025448Y020545D01*
X025373Y020545D02*
X025523Y020545D01*
X025680Y020470D02*
X025680Y020170D01*
X025755Y020095D01*
X025905Y020095D01*
X025980Y020170D01*
X026140Y020095D02*
X026440Y020395D01*
X026440Y020470D01*
X026365Y020545D01*
X026215Y020545D01*
X026140Y020470D01*
X025980Y020470D02*
X025905Y020545D01*
X025755Y020545D01*
X025680Y020470D01*
X026140Y020095D02*
X026440Y020095D01*
X026600Y020095D02*
X026600Y020170D01*
X026901Y020470D01*
X026901Y020545D01*
X026600Y020545D01*
X029729Y020364D02*
X029729Y020064D01*
X029804Y019989D01*
X029954Y019989D01*
X030029Y020064D01*
X030190Y020064D02*
X030265Y019989D01*
X030415Y019989D01*
X030490Y020064D01*
X030490Y020139D01*
X030415Y020214D01*
X030340Y020214D01*
X030415Y020214D02*
X030490Y020289D01*
X030490Y020364D01*
X030415Y020439D01*
X030265Y020439D01*
X030190Y020364D01*
X030029Y020364D02*
X029954Y020439D01*
X029804Y020439D01*
X029729Y020364D01*
X030650Y020364D02*
X030650Y020064D01*
X030950Y020364D01*
X030950Y020064D01*
X030875Y019989D01*
X030725Y019989D01*
X030650Y020064D01*
X030650Y020364D02*
X030725Y020439D01*
X030875Y020439D01*
X030950Y020364D01*
X031623Y019345D02*
X031773Y019345D01*
X031698Y019345D02*
X031698Y018895D01*
X031623Y018895D02*
X031773Y018895D01*
X031930Y018970D02*
X032005Y018895D01*
X032155Y018895D01*
X032230Y018970D01*
X032390Y018970D02*
X032465Y018895D01*
X032615Y018895D01*
X032690Y018970D01*
X032690Y019045D01*
X032615Y019120D01*
X032540Y019120D01*
X032615Y019120D02*
X032690Y019195D01*
X032690Y019270D01*
X032615Y019345D01*
X032465Y019345D01*
X032390Y019270D01*
X032230Y019270D02*
X032155Y019345D01*
X032005Y019345D01*
X031930Y019270D01*
X031930Y018970D01*
X032850Y018895D02*
X033151Y018895D01*
X033001Y018895D02*
X033001Y019345D01*
X032850Y019195D01*
X033979Y019814D02*
X034054Y019739D01*
X034204Y019739D01*
X034279Y019814D01*
X034440Y019814D02*
X034515Y019739D01*
X034665Y019739D01*
X034740Y019814D01*
X034740Y019889D01*
X034665Y019964D01*
X034590Y019964D01*
X034665Y019964D02*
X034740Y020039D01*
X034740Y020114D01*
X034665Y020189D01*
X034515Y020189D01*
X034440Y020114D01*
X034279Y020114D02*
X034204Y020189D01*
X034054Y020189D01*
X033979Y020114D01*
X033979Y019814D01*
X034900Y019814D02*
X034975Y019739D01*
X035125Y019739D01*
X035200Y019814D01*
X035200Y019889D01*
X035125Y019964D01*
X034900Y019964D01*
X034900Y019814D01*
X034900Y019964D02*
X035050Y020114D01*
X035200Y020189D01*
X036873Y020095D02*
X037023Y020095D01*
X036948Y020095D02*
X036948Y020545D01*
X036873Y020545D02*
X037023Y020545D01*
X037180Y020470D02*
X037180Y020170D01*
X037255Y020095D01*
X037405Y020095D01*
X037480Y020170D01*
X037640Y020170D02*
X037715Y020095D01*
X037865Y020095D01*
X037940Y020170D01*
X037940Y020245D01*
X037865Y020320D01*
X037790Y020320D01*
X037865Y020320D02*
X037940Y020395D01*
X037940Y020470D01*
X037865Y020545D01*
X037715Y020545D01*
X037640Y020470D01*
X037480Y020470D02*
X037405Y020545D01*
X037255Y020545D01*
X037180Y020470D01*
X038100Y020470D02*
X038100Y020395D01*
X038176Y020320D01*
X038326Y020320D01*
X038401Y020245D01*
X038401Y020170D01*
X038326Y020095D01*
X038176Y020095D01*
X038100Y020170D01*
X038100Y020245D01*
X038176Y020320D01*
X038326Y020320D02*
X038401Y020395D01*
X038401Y020470D01*
X038326Y020545D01*
X038176Y020545D01*
X038100Y020470D01*
X039179Y020464D02*
X039179Y020164D01*
X039254Y020089D01*
X039404Y020089D01*
X039479Y020164D01*
X039640Y020314D02*
X039940Y020314D01*
X040100Y020164D02*
X040400Y020464D01*
X040400Y020164D01*
X040325Y020089D01*
X040175Y020089D01*
X040100Y020164D01*
X040100Y020464D01*
X040175Y020539D01*
X040325Y020539D01*
X040400Y020464D01*
X039865Y020539D02*
X039640Y020314D01*
X039479Y020464D02*
X039404Y020539D01*
X039254Y020539D01*
X039179Y020464D01*
X039865Y020539D02*
X039865Y020089D01*
X043873Y020095D02*
X044023Y020095D01*
X043948Y020095D02*
X043948Y020545D01*
X043873Y020545D02*
X044023Y020545D01*
X044180Y020470D02*
X044180Y020170D01*
X044255Y020095D01*
X044405Y020095D01*
X044480Y020170D01*
X044640Y020170D02*
X044715Y020095D01*
X044865Y020095D01*
X044940Y020170D01*
X044940Y020245D01*
X044865Y020320D01*
X044790Y020320D01*
X044865Y020320D02*
X044940Y020395D01*
X044940Y020470D01*
X044865Y020545D01*
X044715Y020545D01*
X044640Y020470D01*
X044480Y020470D02*
X044405Y020545D01*
X044255Y020545D01*
X044180Y020470D01*
X045100Y020320D02*
X045401Y020320D01*
X045326Y020545D02*
X045100Y020320D01*
X045326Y020095D02*
X045326Y020545D01*
X046729Y020814D02*
X046804Y020739D01*
X046954Y020739D01*
X047029Y020814D01*
X047190Y020964D02*
X047490Y020964D01*
X047650Y021114D02*
X047725Y021189D01*
X047875Y021189D01*
X047950Y021114D01*
X047950Y021039D01*
X047650Y020739D01*
X047950Y020739D01*
X047415Y020739D02*
X047415Y021189D01*
X047190Y020964D01*
X047029Y021114D02*
X046954Y021189D01*
X046804Y021189D01*
X046729Y021114D01*
X046729Y020814D01*
X055723Y014120D02*
X055723Y013820D01*
X055798Y013745D01*
X055948Y013745D01*
X056023Y013820D01*
X056183Y013745D02*
X056483Y013745D01*
X056333Y013745D02*
X056333Y014195D01*
X056183Y014045D01*
X056023Y014120D02*
X055948Y014195D01*
X055798Y014195D01*
X055723Y014120D01*
X056644Y014120D02*
X056644Y013820D01*
X056944Y014120D01*
X056944Y013820D01*
X056869Y013745D01*
X056719Y013745D01*
X056644Y013820D01*
X056644Y014120D02*
X056719Y014195D01*
X056869Y014195D01*
X056944Y014120D01*
X059123Y012345D02*
X059273Y012345D01*
X059198Y012345D02*
X059198Y011895D01*
X059123Y011895D02*
X059273Y011895D01*
X059430Y011970D02*
X059505Y011895D01*
X059655Y011895D01*
X059730Y011970D01*
X059890Y011895D02*
X060190Y011895D01*
X060040Y011895D02*
X060040Y012345D01*
X059890Y012195D01*
X059730Y012270D02*
X059655Y012345D01*
X059505Y012345D01*
X059430Y012270D01*
X059430Y011970D01*
X059283Y011429D02*
X059913Y011429D01*
X060426Y011895D02*
X060350Y011970D01*
X060651Y012270D01*
X060651Y011970D01*
X060576Y011895D01*
X060426Y011895D01*
X060350Y011970D02*
X060350Y012270D01*
X060426Y012345D01*
X060576Y012345D01*
X060651Y012270D01*
X062202Y012020D02*
X062277Y012095D01*
X062427Y012095D01*
X062502Y012020D01*
X062502Y011945D01*
X062427Y011870D01*
X062502Y011795D01*
X062502Y011720D01*
X062427Y011645D01*
X062277Y011645D01*
X062202Y011720D01*
X062352Y011870D02*
X062427Y011870D01*
X062662Y012020D02*
X062738Y012095D01*
X062888Y012095D01*
X062963Y012020D01*
X062963Y011945D01*
X062662Y011645D01*
X062963Y011645D01*
X059913Y010310D02*
X059283Y010310D01*
X059204Y008939D02*
X059054Y008939D01*
X058979Y008864D01*
X058979Y008564D01*
X059054Y008489D01*
X059204Y008489D01*
X059279Y008564D01*
X059440Y008489D02*
X059740Y008489D01*
X059590Y008489D02*
X059590Y008939D01*
X059440Y008789D01*
X059279Y008864D02*
X059204Y008939D01*
X059900Y008789D02*
X060050Y008939D01*
X060050Y008489D01*
X059900Y008489D02*
X060200Y008489D01*
X057794Y008770D02*
X057494Y008470D01*
X057494Y008395D01*
X057258Y008395D02*
X057258Y008845D01*
X057033Y008620D01*
X057333Y008620D01*
X057494Y008845D02*
X057794Y008845D01*
X057794Y008770D01*
X056873Y008770D02*
X056798Y008845D01*
X056648Y008845D01*
X056573Y008770D01*
X056573Y008470D01*
X056648Y008395D01*
X056798Y008395D01*
X056873Y008470D01*
X062202Y016395D02*
X062502Y016695D01*
X062502Y016770D01*
X062427Y016845D01*
X062277Y016845D01*
X062202Y016770D01*
X062202Y016395D02*
X062502Y016395D01*
X062662Y016395D02*
X062662Y016470D01*
X062963Y016770D01*
X062963Y016845D01*
X062662Y016845D01*
X060740Y017814D02*
X060665Y017739D01*
X060515Y017739D01*
X060440Y017814D01*
X060440Y017889D01*
X060515Y017964D01*
X060665Y017964D01*
X060740Y017889D01*
X060740Y017814D01*
X060665Y017964D02*
X060740Y018039D01*
X060740Y018114D01*
X060665Y018189D01*
X060515Y018189D01*
X060440Y018114D01*
X060440Y018039D01*
X060515Y017964D01*
X060279Y017814D02*
X060204Y017739D01*
X060054Y017739D01*
X059979Y017814D01*
X059979Y018114D01*
X060054Y018189D01*
X060204Y018189D01*
X060279Y018114D01*
X059440Y017420D02*
X059365Y017495D01*
X059215Y017495D01*
X059140Y017420D01*
X059140Y017345D01*
X059215Y017270D01*
X059440Y017270D01*
X059440Y017120D02*
X059440Y017420D01*
X059440Y017120D02*
X059365Y017045D01*
X059215Y017045D01*
X059140Y017120D01*
X058980Y017120D02*
X058905Y017045D01*
X058755Y017045D01*
X058680Y017120D01*
X058680Y017420D01*
X058755Y017495D01*
X058905Y017495D01*
X058980Y017420D01*
X058523Y017495D02*
X058373Y017495D01*
X058448Y017495D02*
X058448Y017045D01*
X058373Y017045D02*
X058523Y017045D01*
X031944Y014870D02*
X031869Y014945D01*
X031719Y014945D01*
X031644Y014870D01*
X031483Y014870D02*
X031483Y014795D01*
X031408Y014720D01*
X031483Y014645D01*
X031483Y014570D01*
X031408Y014495D01*
X031258Y014495D01*
X031183Y014570D01*
X031023Y014570D02*
X030948Y014495D01*
X030798Y014495D01*
X030723Y014570D01*
X030723Y014870D01*
X030798Y014945D01*
X030948Y014945D01*
X031023Y014870D01*
X031183Y014870D02*
X031258Y014945D01*
X031408Y014945D01*
X031483Y014870D01*
X031408Y014720D02*
X031333Y014720D01*
X031644Y014495D02*
X031944Y014795D01*
X031944Y014870D01*
X031944Y014495D02*
X031644Y014495D01*
X031508Y016795D02*
X031358Y016795D01*
X031283Y016870D01*
X031123Y016795D02*
X030973Y016945D01*
X031048Y016945D02*
X030823Y016945D01*
X030823Y016795D02*
X030823Y017245D01*
X031048Y017245D01*
X031123Y017170D01*
X031123Y017020D01*
X031048Y016945D01*
X031283Y017170D02*
X031358Y017245D01*
X031508Y017245D01*
X031583Y017170D01*
X031583Y017095D01*
X031508Y017020D01*
X031583Y016945D01*
X031583Y016870D01*
X031508Y016795D01*
X031508Y017020D02*
X031433Y017020D01*
X018700Y015364D02*
X018700Y015289D01*
X018625Y015214D01*
X018475Y015214D01*
X018400Y015289D01*
X018400Y015364D01*
X018475Y015439D01*
X018625Y015439D01*
X018700Y015364D01*
X018625Y015214D02*
X018700Y015139D01*
X018700Y015064D01*
X018625Y014989D01*
X018475Y014989D01*
X018400Y015064D01*
X018400Y015139D01*
X018475Y015214D01*
X018240Y015214D02*
X017940Y015214D01*
X018165Y015439D01*
X018165Y014989D01*
X017779Y015064D02*
X017704Y014989D01*
X017554Y014989D01*
X017479Y015064D01*
X017479Y015364D01*
X017554Y015439D01*
X017704Y015439D01*
X017779Y015364D01*
X008076Y018895D02*
X008076Y019345D01*
X007850Y019120D01*
X008151Y019120D01*
X007690Y018895D02*
X007390Y018895D01*
X007540Y018895D02*
X007540Y019345D01*
X007390Y019195D01*
X007230Y019270D02*
X007155Y019345D01*
X007005Y019345D01*
X006930Y019270D01*
X006930Y018970D01*
X007005Y018895D01*
X007155Y018895D01*
X007230Y018970D01*
X006773Y018895D02*
X006623Y018895D01*
X006698Y018895D02*
X006698Y019345D01*
X006623Y019345D02*
X006773Y019345D01*
D15*
X012378Y019530D02*
X012380Y019553D01*
X012385Y019576D01*
X012394Y019598D01*
X012407Y019618D01*
X012422Y019636D01*
X012440Y019651D01*
X012460Y019664D01*
X012482Y019673D01*
X012505Y019678D01*
X012528Y019680D01*
X013348Y019680D01*
X014348Y019680D01*
X015168Y019680D01*
X015191Y019678D01*
X015214Y019673D01*
X015236Y019664D01*
X015256Y019651D01*
X015274Y019636D01*
X015289Y019618D01*
X015302Y019598D01*
X015311Y019576D01*
X015316Y019553D01*
X015318Y019530D01*
X014348Y019680D02*
X014346Y019636D01*
X014340Y019593D01*
X014331Y019551D01*
X014318Y019509D01*
X014301Y019469D01*
X014281Y019430D01*
X014258Y019393D01*
X014231Y019359D01*
X014202Y019326D01*
X014169Y019297D01*
X014135Y019270D01*
X014098Y019247D01*
X014059Y019227D01*
X014019Y019210D01*
X013977Y019197D01*
X013935Y019188D01*
X013892Y019182D01*
X013848Y019180D01*
X013804Y019182D01*
X013761Y019188D01*
X013719Y019197D01*
X013677Y019210D01*
X013637Y019227D01*
X013598Y019247D01*
X013561Y019270D01*
X013527Y019297D01*
X013494Y019326D01*
X013465Y019359D01*
X013438Y019393D01*
X013415Y019430D01*
X013395Y019469D01*
X013378Y019509D01*
X013365Y019551D01*
X013356Y019593D01*
X013350Y019636D01*
X013348Y019680D01*
X012528Y021060D02*
X015168Y021060D01*
X015191Y021062D01*
X015214Y021067D01*
X015236Y021076D01*
X015256Y021089D01*
X015274Y021104D01*
X015289Y021122D01*
X015302Y021142D01*
X015311Y021164D01*
X015316Y021187D01*
X015318Y021210D01*
X012528Y021060D02*
X012505Y021062D01*
X012482Y021067D01*
X012460Y021076D01*
X012440Y021089D01*
X012422Y021104D01*
X012407Y021122D01*
X012394Y021142D01*
X012385Y021164D01*
X012380Y021187D01*
X012378Y021210D01*
X012378Y026030D02*
X012380Y026053D01*
X012385Y026076D01*
X012394Y026098D01*
X012407Y026118D01*
X012422Y026136D01*
X012440Y026151D01*
X012460Y026164D01*
X012482Y026173D01*
X012505Y026178D01*
X012528Y026180D01*
X013348Y026180D01*
X014348Y026180D01*
X015168Y026180D01*
X015191Y026178D01*
X015214Y026173D01*
X015236Y026164D01*
X015256Y026151D01*
X015274Y026136D01*
X015289Y026118D01*
X015302Y026098D01*
X015311Y026076D01*
X015316Y026053D01*
X015318Y026030D01*
X014348Y026180D02*
X014346Y026136D01*
X014340Y026093D01*
X014331Y026051D01*
X014318Y026009D01*
X014301Y025969D01*
X014281Y025930D01*
X014258Y025893D01*
X014231Y025859D01*
X014202Y025826D01*
X014169Y025797D01*
X014135Y025770D01*
X014098Y025747D01*
X014059Y025727D01*
X014019Y025710D01*
X013977Y025697D01*
X013935Y025688D01*
X013892Y025682D01*
X013848Y025680D01*
X013804Y025682D01*
X013761Y025688D01*
X013719Y025697D01*
X013677Y025710D01*
X013637Y025727D01*
X013598Y025747D01*
X013561Y025770D01*
X013527Y025797D01*
X013494Y025826D01*
X013465Y025859D01*
X013438Y025893D01*
X013415Y025930D01*
X013395Y025969D01*
X013378Y026009D01*
X013365Y026051D01*
X013356Y026093D01*
X013350Y026136D01*
X013348Y026180D01*
X012528Y027560D02*
X015168Y027560D01*
X015191Y027562D01*
X015214Y027567D01*
X015236Y027576D01*
X015256Y027589D01*
X015274Y027604D01*
X015289Y027622D01*
X015302Y027642D01*
X015311Y027664D01*
X015316Y027687D01*
X015318Y027710D01*
X012528Y027560D02*
X012505Y027562D01*
X012482Y027567D01*
X012460Y027576D01*
X012440Y027589D01*
X012422Y027604D01*
X012407Y027622D01*
X012394Y027642D01*
X012385Y027664D01*
X012380Y027687D01*
X012378Y027710D01*
X012378Y032530D02*
X012380Y032553D01*
X012385Y032576D01*
X012394Y032598D01*
X012407Y032618D01*
X012422Y032636D01*
X012440Y032651D01*
X012460Y032664D01*
X012482Y032673D01*
X012505Y032678D01*
X012528Y032680D01*
X013348Y032680D01*
X014348Y032680D01*
X015168Y032680D01*
X015191Y032678D01*
X015214Y032673D01*
X015236Y032664D01*
X015256Y032651D01*
X015274Y032636D01*
X015289Y032618D01*
X015302Y032598D01*
X015311Y032576D01*
X015316Y032553D01*
X015318Y032530D01*
X014348Y032680D02*
X014346Y032636D01*
X014340Y032593D01*
X014331Y032551D01*
X014318Y032509D01*
X014301Y032469D01*
X014281Y032430D01*
X014258Y032393D01*
X014231Y032359D01*
X014202Y032326D01*
X014169Y032297D01*
X014135Y032270D01*
X014098Y032247D01*
X014059Y032227D01*
X014019Y032210D01*
X013977Y032197D01*
X013935Y032188D01*
X013892Y032182D01*
X013848Y032180D01*
X013804Y032182D01*
X013761Y032188D01*
X013719Y032197D01*
X013677Y032210D01*
X013637Y032227D01*
X013598Y032247D01*
X013561Y032270D01*
X013527Y032297D01*
X013494Y032326D01*
X013465Y032359D01*
X013438Y032393D01*
X013415Y032430D01*
X013395Y032469D01*
X013378Y032509D01*
X013365Y032551D01*
X013356Y032593D01*
X013350Y032636D01*
X013348Y032680D01*
X012528Y034060D02*
X015168Y034060D01*
X015191Y034062D01*
X015214Y034067D01*
X015236Y034076D01*
X015256Y034089D01*
X015274Y034104D01*
X015289Y034122D01*
X015302Y034142D01*
X015311Y034164D01*
X015316Y034187D01*
X015318Y034210D01*
X012528Y034060D02*
X012505Y034062D01*
X012482Y034067D01*
X012460Y034076D01*
X012440Y034089D01*
X012422Y034104D01*
X012407Y034122D01*
X012394Y034142D01*
X012385Y034164D01*
X012380Y034187D01*
X012378Y034210D01*
X012378Y039030D02*
X012380Y039053D01*
X012385Y039076D01*
X012394Y039098D01*
X012407Y039118D01*
X012422Y039136D01*
X012440Y039151D01*
X012460Y039164D01*
X012482Y039173D01*
X012505Y039178D01*
X012528Y039180D01*
X013348Y039180D01*
X014348Y039180D01*
X015168Y039180D01*
X015191Y039178D01*
X015214Y039173D01*
X015236Y039164D01*
X015256Y039151D01*
X015274Y039136D01*
X015289Y039118D01*
X015302Y039098D01*
X015311Y039076D01*
X015316Y039053D01*
X015318Y039030D01*
X014348Y039180D02*
X014346Y039136D01*
X014340Y039093D01*
X014331Y039051D01*
X014318Y039009D01*
X014301Y038969D01*
X014281Y038930D01*
X014258Y038893D01*
X014231Y038859D01*
X014202Y038826D01*
X014169Y038797D01*
X014135Y038770D01*
X014098Y038747D01*
X014059Y038727D01*
X014019Y038710D01*
X013977Y038697D01*
X013935Y038688D01*
X013892Y038682D01*
X013848Y038680D01*
X013804Y038682D01*
X013761Y038688D01*
X013719Y038697D01*
X013677Y038710D01*
X013637Y038727D01*
X013598Y038747D01*
X013561Y038770D01*
X013527Y038797D01*
X013494Y038826D01*
X013465Y038859D01*
X013438Y038893D01*
X013415Y038930D01*
X013395Y038969D01*
X013378Y039009D01*
X013365Y039051D01*
X013356Y039093D01*
X013350Y039136D01*
X013348Y039180D01*
X025278Y039180D02*
X026098Y039180D01*
X027098Y039180D01*
X027918Y039180D01*
X027941Y039178D01*
X027964Y039173D01*
X027986Y039164D01*
X028006Y039151D01*
X028024Y039136D01*
X028039Y039118D01*
X028052Y039098D01*
X028061Y039076D01*
X028066Y039053D01*
X028068Y039030D01*
X027098Y039180D02*
X027096Y039136D01*
X027090Y039093D01*
X027081Y039051D01*
X027068Y039009D01*
X027051Y038969D01*
X027031Y038930D01*
X027008Y038893D01*
X026981Y038859D01*
X026952Y038826D01*
X026919Y038797D01*
X026885Y038770D01*
X026848Y038747D01*
X026809Y038727D01*
X026769Y038710D01*
X026727Y038697D01*
X026685Y038688D01*
X026642Y038682D01*
X026598Y038680D01*
X026554Y038682D01*
X026511Y038688D01*
X026469Y038697D01*
X026427Y038710D01*
X026387Y038727D01*
X026348Y038747D01*
X026311Y038770D01*
X026277Y038797D01*
X026244Y038826D01*
X026215Y038859D01*
X026188Y038893D01*
X026165Y038930D01*
X026145Y038969D01*
X026128Y039009D01*
X026115Y039051D01*
X026106Y039093D01*
X026100Y039136D01*
X026098Y039180D01*
X025278Y039180D02*
X025255Y039178D01*
X025232Y039173D01*
X025210Y039164D01*
X025190Y039151D01*
X025172Y039136D01*
X025157Y039118D01*
X025144Y039098D01*
X025135Y039076D01*
X025130Y039053D01*
X025128Y039030D01*
X025128Y034210D02*
X025130Y034187D01*
X025135Y034164D01*
X025144Y034142D01*
X025157Y034122D01*
X025172Y034104D01*
X025190Y034089D01*
X025210Y034076D01*
X025232Y034067D01*
X025255Y034062D01*
X025278Y034060D01*
X027918Y034060D01*
X027941Y034062D01*
X027964Y034067D01*
X027986Y034076D01*
X028006Y034089D01*
X028024Y034104D01*
X028039Y034122D01*
X028052Y034142D01*
X028061Y034164D01*
X028066Y034187D01*
X028068Y034210D01*
X027918Y032680D02*
X027098Y032680D01*
X026098Y032680D01*
X025278Y032680D01*
X025255Y032678D01*
X025232Y032673D01*
X025210Y032664D01*
X025190Y032651D01*
X025172Y032636D01*
X025157Y032618D01*
X025144Y032598D01*
X025135Y032576D01*
X025130Y032553D01*
X025128Y032530D01*
X026098Y032680D02*
X026100Y032636D01*
X026106Y032593D01*
X026115Y032551D01*
X026128Y032509D01*
X026145Y032469D01*
X026165Y032430D01*
X026188Y032393D01*
X026215Y032359D01*
X026244Y032326D01*
X026277Y032297D01*
X026311Y032270D01*
X026348Y032247D01*
X026387Y032227D01*
X026427Y032210D01*
X026469Y032197D01*
X026511Y032188D01*
X026554Y032182D01*
X026598Y032180D01*
X026642Y032182D01*
X026685Y032188D01*
X026727Y032197D01*
X026769Y032210D01*
X026809Y032227D01*
X026848Y032247D01*
X026885Y032270D01*
X026919Y032297D01*
X026952Y032326D01*
X026981Y032359D01*
X027008Y032393D01*
X027031Y032430D01*
X027051Y032469D01*
X027068Y032509D01*
X027081Y032551D01*
X027090Y032593D01*
X027096Y032636D01*
X027098Y032680D01*
X027918Y032680D02*
X027941Y032678D01*
X027964Y032673D01*
X027986Y032664D01*
X028006Y032651D01*
X028024Y032636D01*
X028039Y032618D01*
X028052Y032598D01*
X028061Y032576D01*
X028066Y032553D01*
X028068Y032530D01*
X028068Y027710D02*
X028066Y027687D01*
X028061Y027664D01*
X028052Y027642D01*
X028039Y027622D01*
X028024Y027604D01*
X028006Y027589D01*
X027986Y027576D01*
X027964Y027567D01*
X027941Y027562D01*
X027918Y027560D01*
X025278Y027560D01*
X025255Y027562D01*
X025232Y027567D01*
X025210Y027576D01*
X025190Y027589D01*
X025172Y027604D01*
X025157Y027622D01*
X025144Y027642D01*
X025135Y027664D01*
X025130Y027687D01*
X025128Y027710D01*
X025278Y026180D02*
X026098Y026180D01*
X027098Y026180D01*
X027918Y026180D01*
X027941Y026178D01*
X027964Y026173D01*
X027986Y026164D01*
X028006Y026151D01*
X028024Y026136D01*
X028039Y026118D01*
X028052Y026098D01*
X028061Y026076D01*
X028066Y026053D01*
X028068Y026030D01*
X027098Y026180D02*
X027096Y026136D01*
X027090Y026093D01*
X027081Y026051D01*
X027068Y026009D01*
X027051Y025969D01*
X027031Y025930D01*
X027008Y025893D01*
X026981Y025859D01*
X026952Y025826D01*
X026919Y025797D01*
X026885Y025770D01*
X026848Y025747D01*
X026809Y025727D01*
X026769Y025710D01*
X026727Y025697D01*
X026685Y025688D01*
X026642Y025682D01*
X026598Y025680D01*
X026554Y025682D01*
X026511Y025688D01*
X026469Y025697D01*
X026427Y025710D01*
X026387Y025727D01*
X026348Y025747D01*
X026311Y025770D01*
X026277Y025797D01*
X026244Y025826D01*
X026215Y025859D01*
X026188Y025893D01*
X026165Y025930D01*
X026145Y025969D01*
X026128Y026009D01*
X026115Y026051D01*
X026106Y026093D01*
X026100Y026136D01*
X026098Y026180D01*
X025278Y026180D02*
X025255Y026178D01*
X025232Y026173D01*
X025210Y026164D01*
X025190Y026151D01*
X025172Y026136D01*
X025157Y026118D01*
X025144Y026098D01*
X025135Y026076D01*
X025130Y026053D01*
X025128Y026030D01*
X025128Y021210D02*
X025130Y021187D01*
X025135Y021164D01*
X025144Y021142D01*
X025157Y021122D01*
X025172Y021104D01*
X025190Y021089D01*
X025210Y021076D01*
X025232Y021067D01*
X025255Y021062D01*
X025278Y021060D01*
X027918Y021060D01*
X027941Y021062D01*
X027964Y021067D01*
X027986Y021076D01*
X028006Y021089D01*
X028024Y021104D01*
X028039Y021122D01*
X028052Y021142D01*
X028061Y021164D01*
X028066Y021187D01*
X028068Y021210D01*
X027918Y019680D02*
X027098Y019680D01*
X026098Y019680D01*
X025278Y019680D01*
X025255Y019678D01*
X025232Y019673D01*
X025210Y019664D01*
X025190Y019651D01*
X025172Y019636D01*
X025157Y019618D01*
X025144Y019598D01*
X025135Y019576D01*
X025130Y019553D01*
X025128Y019530D01*
X026098Y019680D02*
X026100Y019636D01*
X026106Y019593D01*
X026115Y019551D01*
X026128Y019509D01*
X026145Y019469D01*
X026165Y019430D01*
X026188Y019393D01*
X026215Y019359D01*
X026244Y019326D01*
X026277Y019297D01*
X026311Y019270D01*
X026348Y019247D01*
X026387Y019227D01*
X026427Y019210D01*
X026469Y019197D01*
X026511Y019188D01*
X026554Y019182D01*
X026598Y019180D01*
X026642Y019182D01*
X026685Y019188D01*
X026727Y019197D01*
X026769Y019210D01*
X026809Y019227D01*
X026848Y019247D01*
X026885Y019270D01*
X026919Y019297D01*
X026952Y019326D01*
X026981Y019359D01*
X027008Y019393D01*
X027031Y019430D01*
X027051Y019469D01*
X027068Y019509D01*
X027081Y019551D01*
X027090Y019593D01*
X027096Y019636D01*
X027098Y019680D01*
X027918Y019680D02*
X027941Y019678D01*
X027964Y019673D01*
X027986Y019664D01*
X028006Y019651D01*
X028024Y019636D01*
X028039Y019618D01*
X028052Y019598D01*
X028061Y019576D01*
X028066Y019553D01*
X028068Y019530D01*
X028068Y014710D02*
X028066Y014687D01*
X028061Y014664D01*
X028052Y014642D01*
X028039Y014622D01*
X028024Y014604D01*
X028006Y014589D01*
X027986Y014576D01*
X027964Y014567D01*
X027941Y014562D01*
X027918Y014560D01*
X025278Y014560D01*
X025255Y014562D01*
X025232Y014567D01*
X025210Y014576D01*
X025190Y014589D01*
X025172Y014604D01*
X025157Y014622D01*
X025144Y014642D01*
X025135Y014664D01*
X025130Y014687D01*
X025128Y014710D01*
X015318Y014710D02*
X015316Y014687D01*
X015311Y014664D01*
X015302Y014642D01*
X015289Y014622D01*
X015274Y014604D01*
X015256Y014589D01*
X015236Y014576D01*
X015214Y014567D01*
X015191Y014562D01*
X015168Y014560D01*
X012528Y014560D01*
X012505Y014562D01*
X012482Y014567D01*
X012460Y014576D01*
X012440Y014589D01*
X012422Y014604D01*
X012407Y014622D01*
X012394Y014642D01*
X012385Y014664D01*
X012380Y014687D01*
X012378Y014710D01*
X037878Y014710D02*
X037880Y014687D01*
X037885Y014664D01*
X037894Y014642D01*
X037907Y014622D01*
X037922Y014604D01*
X037940Y014589D01*
X037960Y014576D01*
X037982Y014567D01*
X038005Y014562D01*
X038028Y014560D01*
X040668Y014560D01*
X040691Y014562D01*
X040714Y014567D01*
X040736Y014576D01*
X040756Y014589D01*
X040774Y014604D01*
X040789Y014622D01*
X040802Y014642D01*
X040811Y014664D01*
X040816Y014687D01*
X040818Y014710D01*
X044378Y014710D02*
X044380Y014687D01*
X044385Y014664D01*
X044394Y014642D01*
X044407Y014622D01*
X044422Y014604D01*
X044440Y014589D01*
X044460Y014576D01*
X044482Y014567D01*
X044505Y014562D01*
X044528Y014560D01*
X047168Y014560D01*
X047191Y014562D01*
X047214Y014567D01*
X047236Y014576D01*
X047256Y014589D01*
X047274Y014604D01*
X047289Y014622D01*
X047302Y014642D01*
X047311Y014664D01*
X047316Y014687D01*
X047318Y014710D01*
X053028Y018810D02*
X055668Y018810D01*
X055691Y018812D01*
X055714Y018817D01*
X055736Y018826D01*
X055756Y018839D01*
X055774Y018854D01*
X055789Y018872D01*
X055802Y018892D01*
X055811Y018914D01*
X055816Y018937D01*
X055818Y018960D01*
X058378Y018960D02*
X058380Y018937D01*
X058385Y018914D01*
X058394Y018892D01*
X058407Y018872D01*
X058422Y018854D01*
X058440Y018839D01*
X058460Y018826D01*
X058482Y018817D01*
X058505Y018812D01*
X058528Y018810D01*
X061168Y018810D01*
X061191Y018812D01*
X061214Y018817D01*
X061236Y018826D01*
X061256Y018839D01*
X061274Y018854D01*
X061289Y018872D01*
X061302Y018892D01*
X061311Y018914D01*
X061316Y018937D01*
X061318Y018960D01*
X060468Y016620D02*
X060048Y016620D01*
X059648Y016620D01*
X059228Y016620D01*
X059205Y016618D01*
X059182Y016613D01*
X059160Y016604D01*
X059140Y016591D01*
X059122Y016576D01*
X059107Y016558D01*
X059094Y016538D01*
X059085Y016516D01*
X059080Y016493D01*
X059078Y016470D01*
X059648Y016620D02*
X059650Y016593D01*
X059655Y016566D01*
X059665Y016540D01*
X059677Y016516D01*
X059693Y016494D01*
X059711Y016474D01*
X059733Y016457D01*
X059756Y016442D01*
X059781Y016432D01*
X059807Y016424D01*
X059834Y016420D01*
X059862Y016420D01*
X059889Y016424D01*
X059915Y016432D01*
X059940Y016442D01*
X059963Y016457D01*
X059985Y016474D01*
X060003Y016494D01*
X060019Y016516D01*
X060031Y016540D01*
X060041Y016566D01*
X060046Y016593D01*
X060048Y016620D01*
X060468Y016620D02*
X060491Y016618D01*
X060514Y016613D01*
X060536Y016604D01*
X060556Y016591D01*
X060574Y016576D01*
X060589Y016558D01*
X060602Y016538D01*
X060611Y016516D01*
X060616Y016493D01*
X060618Y016470D01*
X060618Y012770D02*
X060616Y012747D01*
X060611Y012724D01*
X060602Y012702D01*
X060589Y012682D01*
X060574Y012664D01*
X060556Y012649D01*
X060536Y012636D01*
X060514Y012627D01*
X060491Y012622D01*
X060468Y012620D01*
X059228Y012620D01*
X059205Y012622D01*
X059182Y012627D01*
X059160Y012636D01*
X059140Y012649D01*
X059122Y012664D01*
X059107Y012682D01*
X059094Y012702D01*
X059085Y012724D01*
X059080Y012747D01*
X059078Y012770D01*
X056898Y010620D02*
X056798Y010620D01*
X056798Y010720D01*
X056798Y010620D02*
X056798Y010520D01*
X056798Y010620D02*
X056698Y010620D01*
X056348Y010120D02*
X056350Y010183D01*
X056356Y010245D01*
X056366Y010307D01*
X056379Y010369D01*
X056397Y010429D01*
X056418Y010488D01*
X056443Y010546D01*
X056472Y010602D01*
X056504Y010656D01*
X056539Y010708D01*
X056577Y010757D01*
X056619Y010805D01*
X056663Y010849D01*
X056711Y010891D01*
X056760Y010929D01*
X056812Y010964D01*
X056866Y010996D01*
X056922Y011025D01*
X056980Y011050D01*
X057039Y011071D01*
X057099Y011089D01*
X057161Y011102D01*
X057223Y011112D01*
X057285Y011118D01*
X057348Y011120D01*
X057411Y011118D01*
X057473Y011112D01*
X057535Y011102D01*
X057597Y011089D01*
X057657Y011071D01*
X057716Y011050D01*
X057774Y011025D01*
X057830Y010996D01*
X057884Y010964D01*
X057936Y010929D01*
X057985Y010891D01*
X058033Y010849D01*
X058077Y010805D01*
X058119Y010757D01*
X058157Y010708D01*
X058192Y010656D01*
X058224Y010602D01*
X058253Y010546D01*
X058278Y010488D01*
X058299Y010429D01*
X058317Y010369D01*
X058330Y010307D01*
X058340Y010245D01*
X058346Y010183D01*
X058348Y010120D01*
X058346Y010057D01*
X058340Y009995D01*
X058330Y009933D01*
X058317Y009871D01*
X058299Y009811D01*
X058278Y009752D01*
X058253Y009694D01*
X058224Y009638D01*
X058192Y009584D01*
X058157Y009532D01*
X058119Y009483D01*
X058077Y009435D01*
X058033Y009391D01*
X057985Y009349D01*
X057936Y009311D01*
X057884Y009276D01*
X057830Y009244D01*
X057774Y009215D01*
X057716Y009190D01*
X057657Y009169D01*
X057597Y009151D01*
X057535Y009138D01*
X057473Y009128D01*
X057411Y009122D01*
X057348Y009120D01*
X057285Y009122D01*
X057223Y009128D01*
X057161Y009138D01*
X057099Y009151D01*
X057039Y009169D01*
X056980Y009190D01*
X056922Y009215D01*
X056866Y009244D01*
X056812Y009276D01*
X056760Y009311D01*
X056711Y009349D01*
X056663Y009391D01*
X056619Y009435D01*
X056577Y009483D01*
X056539Y009532D01*
X056504Y009584D01*
X056472Y009638D01*
X056443Y009694D01*
X056418Y009752D01*
X056397Y009811D01*
X056379Y009871D01*
X056366Y009933D01*
X056356Y009995D01*
X056350Y010057D01*
X056348Y010120D01*
X065848Y010620D02*
X065848Y008620D01*
X067978Y008620D01*
X067978Y009990D01*
X067348Y010620D01*
X066348Y010620D01*
X066348Y011870D01*
X066348Y012870D01*
X066348Y013370D01*
X066348Y014870D01*
X066348Y015370D01*
X066348Y018870D01*
X066348Y019370D01*
X066348Y022870D01*
X066348Y023370D01*
X066348Y026870D01*
X066348Y027370D01*
X066348Y030870D01*
X066348Y031370D01*
X066348Y034870D01*
X066348Y035370D01*
X066348Y038870D01*
X066348Y039370D01*
X066348Y040870D01*
X066348Y041370D01*
X066348Y042370D01*
X066348Y043620D01*
X067478Y043620D01*
X067978Y044120D01*
X067978Y045620D01*
X065848Y045620D01*
X065848Y043620D01*
X066348Y043620D01*
X066348Y044620D02*
X066350Y044664D01*
X066356Y044708D01*
X066366Y044751D01*
X066379Y044793D01*
X066396Y044834D01*
X066417Y044873D01*
X066441Y044910D01*
X066468Y044945D01*
X066498Y044977D01*
X066531Y045007D01*
X066567Y045033D01*
X066604Y045057D01*
X066644Y045076D01*
X066685Y045093D01*
X066728Y045105D01*
X066771Y045114D01*
X066815Y045119D01*
X066859Y045120D01*
X066903Y045117D01*
X066947Y045110D01*
X066990Y045099D01*
X067032Y045085D01*
X067072Y045067D01*
X067111Y045045D01*
X067147Y045021D01*
X067181Y044993D01*
X067213Y044962D01*
X067242Y044928D01*
X067268Y044892D01*
X067290Y044854D01*
X067309Y044814D01*
X067324Y044772D01*
X067336Y044730D01*
X067344Y044686D01*
X067348Y044642D01*
X067348Y044598D01*
X067344Y044554D01*
X067336Y044510D01*
X067324Y044468D01*
X067309Y044426D01*
X067290Y044386D01*
X067268Y044348D01*
X067242Y044312D01*
X067213Y044278D01*
X067181Y044247D01*
X067147Y044219D01*
X067111Y044195D01*
X067072Y044173D01*
X067032Y044155D01*
X066990Y044141D01*
X066947Y044130D01*
X066903Y044123D01*
X066859Y044120D01*
X066815Y044121D01*
X066771Y044126D01*
X066728Y044135D01*
X066685Y044147D01*
X066644Y044164D01*
X066604Y044183D01*
X066567Y044207D01*
X066531Y044233D01*
X066498Y044263D01*
X066468Y044295D01*
X066441Y044330D01*
X066417Y044367D01*
X066396Y044406D01*
X066379Y044447D01*
X066366Y044489D01*
X066356Y044532D01*
X066350Y044576D01*
X066348Y044620D01*
X067978Y045620D02*
X068598Y045620D01*
X068598Y044620D01*
X070848Y044620D01*
X070848Y009620D01*
X068598Y009620D01*
X068598Y008620D01*
X067978Y008620D01*
X066348Y009620D02*
X066350Y009664D01*
X066356Y009708D01*
X066366Y009751D01*
X066379Y009793D01*
X066396Y009834D01*
X066417Y009873D01*
X066441Y009910D01*
X066468Y009945D01*
X066498Y009977D01*
X066531Y010007D01*
X066567Y010033D01*
X066604Y010057D01*
X066644Y010076D01*
X066685Y010093D01*
X066728Y010105D01*
X066771Y010114D01*
X066815Y010119D01*
X066859Y010120D01*
X066903Y010117D01*
X066947Y010110D01*
X066990Y010099D01*
X067032Y010085D01*
X067072Y010067D01*
X067111Y010045D01*
X067147Y010021D01*
X067181Y009993D01*
X067213Y009962D01*
X067242Y009928D01*
X067268Y009892D01*
X067290Y009854D01*
X067309Y009814D01*
X067324Y009772D01*
X067336Y009730D01*
X067344Y009686D01*
X067348Y009642D01*
X067348Y009598D01*
X067344Y009554D01*
X067336Y009510D01*
X067324Y009468D01*
X067309Y009426D01*
X067290Y009386D01*
X067268Y009348D01*
X067242Y009312D01*
X067213Y009278D01*
X067181Y009247D01*
X067147Y009219D01*
X067111Y009195D01*
X067072Y009173D01*
X067032Y009155D01*
X066990Y009141D01*
X066947Y009130D01*
X066903Y009123D01*
X066859Y009120D01*
X066815Y009121D01*
X066771Y009126D01*
X066728Y009135D01*
X066685Y009147D01*
X066644Y009164D01*
X066604Y009183D01*
X066567Y009207D01*
X066531Y009233D01*
X066498Y009263D01*
X066468Y009295D01*
X066441Y009330D01*
X066417Y009367D01*
X066396Y009406D01*
X066379Y009447D01*
X066366Y009489D01*
X066356Y009532D01*
X066350Y009576D01*
X066348Y009620D01*
X066348Y010620D02*
X065848Y010620D01*
X066878Y011223D02*
X066951Y011150D01*
X067098Y011150D01*
X067171Y011223D01*
X067171Y011296D01*
X067098Y011370D01*
X067025Y011370D01*
X067098Y011370D02*
X067171Y011443D01*
X067171Y011516D01*
X067098Y011590D01*
X066951Y011590D01*
X066878Y011516D01*
X067338Y011516D02*
X067412Y011590D01*
X067558Y011590D01*
X067632Y011516D01*
X067632Y011443D01*
X067338Y011150D01*
X067632Y011150D01*
X053028Y018810D02*
X053005Y018812D01*
X052982Y018817D01*
X052960Y018826D01*
X052940Y018839D01*
X052922Y018854D01*
X052907Y018872D01*
X052894Y018892D01*
X052885Y018914D01*
X052880Y018937D01*
X052878Y018960D01*
X047318Y019530D02*
X047316Y019553D01*
X047311Y019576D01*
X047302Y019598D01*
X047289Y019618D01*
X047274Y019636D01*
X047256Y019651D01*
X047236Y019664D01*
X047214Y019673D01*
X047191Y019678D01*
X047168Y019680D01*
X046348Y019680D01*
X045348Y019680D01*
X044528Y019680D01*
X044505Y019678D01*
X044482Y019673D01*
X044460Y019664D01*
X044440Y019651D01*
X044422Y019636D01*
X044407Y019618D01*
X044394Y019598D01*
X044385Y019576D01*
X044380Y019553D01*
X044378Y019530D01*
X045348Y019680D02*
X045350Y019636D01*
X045356Y019593D01*
X045365Y019551D01*
X045378Y019509D01*
X045395Y019469D01*
X045415Y019430D01*
X045438Y019393D01*
X045465Y019359D01*
X045494Y019326D01*
X045527Y019297D01*
X045561Y019270D01*
X045598Y019247D01*
X045637Y019227D01*
X045677Y019210D01*
X045719Y019197D01*
X045761Y019188D01*
X045804Y019182D01*
X045848Y019180D01*
X045892Y019182D01*
X045935Y019188D01*
X045977Y019197D01*
X046019Y019210D01*
X046059Y019227D01*
X046098Y019247D01*
X046135Y019270D01*
X046169Y019297D01*
X046202Y019326D01*
X046231Y019359D01*
X046258Y019393D01*
X046281Y019430D01*
X046301Y019469D01*
X046318Y019509D01*
X046331Y019551D01*
X046340Y019593D01*
X046346Y019636D01*
X046348Y019680D01*
X040668Y019680D02*
X039848Y019680D01*
X038848Y019680D01*
X038028Y019680D01*
X038005Y019678D01*
X037982Y019673D01*
X037960Y019664D01*
X037940Y019651D01*
X037922Y019636D01*
X037907Y019618D01*
X037894Y019598D01*
X037885Y019576D01*
X037880Y019553D01*
X037878Y019530D01*
X038848Y019680D02*
X038850Y019636D01*
X038856Y019593D01*
X038865Y019551D01*
X038878Y019509D01*
X038895Y019469D01*
X038915Y019430D01*
X038938Y019393D01*
X038965Y019359D01*
X038994Y019326D01*
X039027Y019297D01*
X039061Y019270D01*
X039098Y019247D01*
X039137Y019227D01*
X039177Y019210D01*
X039219Y019197D01*
X039261Y019188D01*
X039304Y019182D01*
X039348Y019180D01*
X039392Y019182D01*
X039435Y019188D01*
X039477Y019197D01*
X039519Y019210D01*
X039559Y019227D01*
X039598Y019247D01*
X039635Y019270D01*
X039669Y019297D01*
X039702Y019326D01*
X039731Y019359D01*
X039758Y019393D01*
X039781Y019430D01*
X039801Y019469D01*
X039818Y019509D01*
X039831Y019551D01*
X039840Y019593D01*
X039846Y019636D01*
X039848Y019680D01*
X040668Y019680D02*
X040691Y019678D01*
X040714Y019673D01*
X040736Y019664D01*
X040756Y019651D01*
X040774Y019636D01*
X040789Y019618D01*
X040802Y019598D01*
X040811Y019576D01*
X040816Y019553D01*
X040818Y019530D01*
X040668Y021060D02*
X038028Y021060D01*
X038005Y021062D01*
X037982Y021067D01*
X037960Y021076D01*
X037940Y021089D01*
X037922Y021104D01*
X037907Y021122D01*
X037894Y021142D01*
X037885Y021164D01*
X037880Y021187D01*
X037878Y021210D01*
X040668Y021060D02*
X040691Y021062D01*
X040714Y021067D01*
X040736Y021076D01*
X040756Y021089D01*
X040774Y021104D01*
X040789Y021122D01*
X040802Y021142D01*
X040811Y021164D01*
X040816Y021187D01*
X040818Y021210D01*
X040818Y026030D02*
X040816Y026053D01*
X040811Y026076D01*
X040802Y026098D01*
X040789Y026118D01*
X040774Y026136D01*
X040756Y026151D01*
X040736Y026164D01*
X040714Y026173D01*
X040691Y026178D01*
X040668Y026180D01*
X039848Y026180D01*
X038848Y026180D01*
X038028Y026180D01*
X038005Y026178D01*
X037982Y026173D01*
X037960Y026164D01*
X037940Y026151D01*
X037922Y026136D01*
X037907Y026118D01*
X037894Y026098D01*
X037885Y026076D01*
X037880Y026053D01*
X037878Y026030D01*
X038848Y026180D02*
X038850Y026136D01*
X038856Y026093D01*
X038865Y026051D01*
X038878Y026009D01*
X038895Y025969D01*
X038915Y025930D01*
X038938Y025893D01*
X038965Y025859D01*
X038994Y025826D01*
X039027Y025797D01*
X039061Y025770D01*
X039098Y025747D01*
X039137Y025727D01*
X039177Y025710D01*
X039219Y025697D01*
X039261Y025688D01*
X039304Y025682D01*
X039348Y025680D01*
X039392Y025682D01*
X039435Y025688D01*
X039477Y025697D01*
X039519Y025710D01*
X039559Y025727D01*
X039598Y025747D01*
X039635Y025770D01*
X039669Y025797D01*
X039702Y025826D01*
X039731Y025859D01*
X039758Y025893D01*
X039781Y025930D01*
X039801Y025969D01*
X039818Y026009D01*
X039831Y026051D01*
X039840Y026093D01*
X039846Y026136D01*
X039848Y026180D01*
X040668Y027560D02*
X038028Y027560D01*
X038005Y027562D01*
X037982Y027567D01*
X037960Y027576D01*
X037940Y027589D01*
X037922Y027604D01*
X037907Y027622D01*
X037894Y027642D01*
X037885Y027664D01*
X037880Y027687D01*
X037878Y027710D01*
X040668Y027560D02*
X040691Y027562D01*
X040714Y027567D01*
X040736Y027576D01*
X040756Y027589D01*
X040774Y027604D01*
X040789Y027622D01*
X040802Y027642D01*
X040811Y027664D01*
X040816Y027687D01*
X040818Y027710D01*
X044378Y027710D02*
X044380Y027687D01*
X044385Y027664D01*
X044394Y027642D01*
X044407Y027622D01*
X044422Y027604D01*
X044440Y027589D01*
X044460Y027576D01*
X044482Y027567D01*
X044505Y027562D01*
X044528Y027560D01*
X047168Y027560D01*
X047191Y027562D01*
X047214Y027567D01*
X047236Y027576D01*
X047256Y027589D01*
X047274Y027604D01*
X047289Y027622D01*
X047302Y027642D01*
X047311Y027664D01*
X047316Y027687D01*
X047318Y027710D01*
X047318Y032530D02*
X047316Y032553D01*
X047311Y032576D01*
X047302Y032598D01*
X047289Y032618D01*
X047274Y032636D01*
X047256Y032651D01*
X047236Y032664D01*
X047214Y032673D01*
X047191Y032678D01*
X047168Y032680D01*
X046348Y032680D01*
X045348Y032680D01*
X044528Y032680D01*
X044505Y032678D01*
X044482Y032673D01*
X044460Y032664D01*
X044440Y032651D01*
X044422Y032636D01*
X044407Y032618D01*
X044394Y032598D01*
X044385Y032576D01*
X044380Y032553D01*
X044378Y032530D01*
X045348Y032680D02*
X045350Y032636D01*
X045356Y032593D01*
X045365Y032551D01*
X045378Y032509D01*
X045395Y032469D01*
X045415Y032430D01*
X045438Y032393D01*
X045465Y032359D01*
X045494Y032326D01*
X045527Y032297D01*
X045561Y032270D01*
X045598Y032247D01*
X045637Y032227D01*
X045677Y032210D01*
X045719Y032197D01*
X045761Y032188D01*
X045804Y032182D01*
X045848Y032180D01*
X045892Y032182D01*
X045935Y032188D01*
X045977Y032197D01*
X046019Y032210D01*
X046059Y032227D01*
X046098Y032247D01*
X046135Y032270D01*
X046169Y032297D01*
X046202Y032326D01*
X046231Y032359D01*
X046258Y032393D01*
X046281Y032430D01*
X046301Y032469D01*
X046318Y032509D01*
X046331Y032551D01*
X046340Y032593D01*
X046346Y032636D01*
X046348Y032680D01*
X040668Y032680D02*
X039848Y032680D01*
X038848Y032680D01*
X038028Y032680D01*
X038005Y032678D01*
X037982Y032673D01*
X037960Y032664D01*
X037940Y032651D01*
X037922Y032636D01*
X037907Y032618D01*
X037894Y032598D01*
X037885Y032576D01*
X037880Y032553D01*
X037878Y032530D01*
X038848Y032680D02*
X038850Y032636D01*
X038856Y032593D01*
X038865Y032551D01*
X038878Y032509D01*
X038895Y032469D01*
X038915Y032430D01*
X038938Y032393D01*
X038965Y032359D01*
X038994Y032326D01*
X039027Y032297D01*
X039061Y032270D01*
X039098Y032247D01*
X039137Y032227D01*
X039177Y032210D01*
X039219Y032197D01*
X039261Y032188D01*
X039304Y032182D01*
X039348Y032180D01*
X039392Y032182D01*
X039435Y032188D01*
X039477Y032197D01*
X039519Y032210D01*
X039559Y032227D01*
X039598Y032247D01*
X039635Y032270D01*
X039669Y032297D01*
X039702Y032326D01*
X039731Y032359D01*
X039758Y032393D01*
X039781Y032430D01*
X039801Y032469D01*
X039818Y032509D01*
X039831Y032551D01*
X039840Y032593D01*
X039846Y032636D01*
X039848Y032680D01*
X040668Y032680D02*
X040691Y032678D01*
X040714Y032673D01*
X040736Y032664D01*
X040756Y032651D01*
X040774Y032636D01*
X040789Y032618D01*
X040802Y032598D01*
X040811Y032576D01*
X040816Y032553D01*
X040818Y032530D01*
X040668Y034060D02*
X038028Y034060D01*
X038005Y034062D01*
X037982Y034067D01*
X037960Y034076D01*
X037940Y034089D01*
X037922Y034104D01*
X037907Y034122D01*
X037894Y034142D01*
X037885Y034164D01*
X037880Y034187D01*
X037878Y034210D01*
X040668Y034060D02*
X040691Y034062D01*
X040714Y034067D01*
X040736Y034076D01*
X040756Y034089D01*
X040774Y034104D01*
X040789Y034122D01*
X040802Y034142D01*
X040811Y034164D01*
X040816Y034187D01*
X040818Y034210D01*
X040818Y039030D02*
X040816Y039053D01*
X040811Y039076D01*
X040802Y039098D01*
X040789Y039118D01*
X040774Y039136D01*
X040756Y039151D01*
X040736Y039164D01*
X040714Y039173D01*
X040691Y039178D01*
X040668Y039180D01*
X039848Y039180D01*
X038848Y039180D01*
X038028Y039180D01*
X038005Y039178D01*
X037982Y039173D01*
X037960Y039164D01*
X037940Y039151D01*
X037922Y039136D01*
X037907Y039118D01*
X037894Y039098D01*
X037885Y039076D01*
X037880Y039053D01*
X037878Y039030D01*
X038848Y039180D02*
X038850Y039136D01*
X038856Y039093D01*
X038865Y039051D01*
X038878Y039009D01*
X038895Y038969D01*
X038915Y038930D01*
X038938Y038893D01*
X038965Y038859D01*
X038994Y038826D01*
X039027Y038797D01*
X039061Y038770D01*
X039098Y038747D01*
X039137Y038727D01*
X039177Y038710D01*
X039219Y038697D01*
X039261Y038688D01*
X039304Y038682D01*
X039348Y038680D01*
X039392Y038682D01*
X039435Y038688D01*
X039477Y038697D01*
X039519Y038710D01*
X039559Y038727D01*
X039598Y038747D01*
X039635Y038770D01*
X039669Y038797D01*
X039702Y038826D01*
X039731Y038859D01*
X039758Y038893D01*
X039781Y038930D01*
X039801Y038969D01*
X039818Y039009D01*
X039831Y039051D01*
X039840Y039093D01*
X039846Y039136D01*
X039848Y039180D01*
X052778Y038680D02*
X053598Y038680D01*
X054598Y038680D01*
X055418Y038680D01*
X055441Y038678D01*
X055464Y038673D01*
X055486Y038664D01*
X055506Y038651D01*
X055524Y038636D01*
X055539Y038618D01*
X055552Y038598D01*
X055561Y038576D01*
X055566Y038553D01*
X055568Y038530D01*
X054598Y038680D02*
X054596Y038636D01*
X054590Y038593D01*
X054581Y038551D01*
X054568Y038509D01*
X054551Y038469D01*
X054531Y038430D01*
X054508Y038393D01*
X054481Y038359D01*
X054452Y038326D01*
X054419Y038297D01*
X054385Y038270D01*
X054348Y038247D01*
X054309Y038227D01*
X054269Y038210D01*
X054227Y038197D01*
X054185Y038188D01*
X054142Y038182D01*
X054098Y038180D01*
X054054Y038182D01*
X054011Y038188D01*
X053969Y038197D01*
X053927Y038210D01*
X053887Y038227D01*
X053848Y038247D01*
X053811Y038270D01*
X053777Y038297D01*
X053744Y038326D01*
X053715Y038359D01*
X053688Y038393D01*
X053665Y038430D01*
X053645Y038469D01*
X053628Y038509D01*
X053615Y038551D01*
X053606Y038593D01*
X053600Y038636D01*
X053598Y038680D01*
X052778Y038680D02*
X052755Y038678D01*
X052732Y038673D01*
X052710Y038664D01*
X052690Y038651D01*
X052672Y038636D01*
X052657Y038618D01*
X052644Y038598D01*
X052635Y038576D01*
X052630Y038553D01*
X052628Y038530D01*
X058528Y037930D02*
X059348Y037930D01*
X060348Y037930D01*
X061168Y037930D01*
X061191Y037928D01*
X061214Y037923D01*
X061236Y037914D01*
X061256Y037901D01*
X061274Y037886D01*
X061289Y037868D01*
X061302Y037848D01*
X061311Y037826D01*
X061316Y037803D01*
X061318Y037780D01*
X060348Y037930D02*
X060346Y037886D01*
X060340Y037843D01*
X060331Y037801D01*
X060318Y037759D01*
X060301Y037719D01*
X060281Y037680D01*
X060258Y037643D01*
X060231Y037609D01*
X060202Y037576D01*
X060169Y037547D01*
X060135Y037520D01*
X060098Y037497D01*
X060059Y037477D01*
X060019Y037460D01*
X059977Y037447D01*
X059935Y037438D01*
X059892Y037432D01*
X059848Y037430D01*
X059804Y037432D01*
X059761Y037438D01*
X059719Y037447D01*
X059677Y037460D01*
X059637Y037477D01*
X059598Y037497D01*
X059561Y037520D01*
X059527Y037547D01*
X059494Y037576D01*
X059465Y037609D01*
X059438Y037643D01*
X059415Y037680D01*
X059395Y037719D01*
X059378Y037759D01*
X059365Y037801D01*
X059356Y037843D01*
X059350Y037886D01*
X059348Y037930D01*
X058528Y037930D02*
X058505Y037928D01*
X058482Y037923D01*
X058460Y037914D01*
X058440Y037901D01*
X058422Y037886D01*
X058407Y037868D01*
X058394Y037848D01*
X058385Y037826D01*
X058380Y037803D01*
X058378Y037780D01*
X055568Y033710D02*
X055566Y033687D01*
X055561Y033664D01*
X055552Y033642D01*
X055539Y033622D01*
X055524Y033604D01*
X055506Y033589D01*
X055486Y033576D01*
X055464Y033567D01*
X055441Y033562D01*
X055418Y033560D01*
X052778Y033560D01*
X052755Y033562D01*
X052732Y033567D01*
X052710Y033576D01*
X052690Y033589D01*
X052672Y033604D01*
X052657Y033622D01*
X052644Y033642D01*
X052635Y033664D01*
X052630Y033687D01*
X052628Y033710D01*
X053028Y030680D02*
X053848Y030680D01*
X054848Y030680D01*
X055668Y030680D01*
X055691Y030678D01*
X055714Y030673D01*
X055736Y030664D01*
X055756Y030651D01*
X055774Y030636D01*
X055789Y030618D01*
X055802Y030598D01*
X055811Y030576D01*
X055816Y030553D01*
X055818Y030530D01*
X054848Y030680D02*
X054846Y030636D01*
X054840Y030593D01*
X054831Y030551D01*
X054818Y030509D01*
X054801Y030469D01*
X054781Y030430D01*
X054758Y030393D01*
X054731Y030359D01*
X054702Y030326D01*
X054669Y030297D01*
X054635Y030270D01*
X054598Y030247D01*
X054559Y030227D01*
X054519Y030210D01*
X054477Y030197D01*
X054435Y030188D01*
X054392Y030182D01*
X054348Y030180D01*
X054304Y030182D01*
X054261Y030188D01*
X054219Y030197D01*
X054177Y030210D01*
X054137Y030227D01*
X054098Y030247D01*
X054061Y030270D01*
X054027Y030297D01*
X053994Y030326D01*
X053965Y030359D01*
X053938Y030393D01*
X053915Y030430D01*
X053895Y030469D01*
X053878Y030509D01*
X053865Y030551D01*
X053856Y030593D01*
X053850Y030636D01*
X053848Y030680D01*
X053028Y030680D02*
X053005Y030678D01*
X052982Y030673D01*
X052960Y030664D01*
X052940Y030651D01*
X052922Y030636D01*
X052907Y030618D01*
X052894Y030598D01*
X052885Y030576D01*
X052880Y030553D01*
X052878Y030530D01*
X058528Y032810D02*
X061168Y032810D01*
X061191Y032812D01*
X061214Y032817D01*
X061236Y032826D01*
X061256Y032839D01*
X061274Y032854D01*
X061289Y032872D01*
X061302Y032892D01*
X061311Y032914D01*
X061316Y032937D01*
X061318Y032960D01*
X058528Y032810D02*
X058505Y032812D01*
X058482Y032817D01*
X058460Y032826D01*
X058440Y032839D01*
X058422Y032854D01*
X058407Y032872D01*
X058394Y032892D01*
X058385Y032914D01*
X058380Y032937D01*
X058378Y032960D01*
X055818Y025710D02*
X055816Y025687D01*
X055811Y025664D01*
X055802Y025642D01*
X055789Y025622D01*
X055774Y025604D01*
X055756Y025589D01*
X055736Y025576D01*
X055714Y025567D01*
X055691Y025562D01*
X055668Y025560D01*
X053028Y025560D01*
X053005Y025562D01*
X052982Y025567D01*
X052960Y025576D01*
X052940Y025589D01*
X052922Y025604D01*
X052907Y025622D01*
X052894Y025642D01*
X052885Y025664D01*
X052880Y025687D01*
X052878Y025710D01*
X053028Y023930D02*
X053848Y023930D01*
X054848Y023930D01*
X055668Y023930D01*
X055691Y023928D01*
X055714Y023923D01*
X055736Y023914D01*
X055756Y023901D01*
X055774Y023886D01*
X055789Y023868D01*
X055802Y023848D01*
X055811Y023826D01*
X055816Y023803D01*
X055818Y023780D01*
X054848Y023930D02*
X054846Y023886D01*
X054840Y023843D01*
X054831Y023801D01*
X054818Y023759D01*
X054801Y023719D01*
X054781Y023680D01*
X054758Y023643D01*
X054731Y023609D01*
X054702Y023576D01*
X054669Y023547D01*
X054635Y023520D01*
X054598Y023497D01*
X054559Y023477D01*
X054519Y023460D01*
X054477Y023447D01*
X054435Y023438D01*
X054392Y023432D01*
X054348Y023430D01*
X054304Y023432D01*
X054261Y023438D01*
X054219Y023447D01*
X054177Y023460D01*
X054137Y023477D01*
X054098Y023497D01*
X054061Y023520D01*
X054027Y023547D01*
X053994Y023576D01*
X053965Y023609D01*
X053938Y023643D01*
X053915Y023680D01*
X053895Y023719D01*
X053878Y023759D01*
X053865Y023801D01*
X053856Y023843D01*
X053850Y023886D01*
X053848Y023930D01*
X053028Y023930D02*
X053005Y023928D01*
X052982Y023923D01*
X052960Y023914D01*
X052940Y023901D01*
X052922Y023886D01*
X052907Y023868D01*
X052894Y023848D01*
X052885Y023826D01*
X052880Y023803D01*
X052878Y023780D01*
X058378Y023780D02*
X058380Y023803D01*
X058385Y023826D01*
X058394Y023848D01*
X058407Y023868D01*
X058422Y023886D01*
X058440Y023901D01*
X058460Y023914D01*
X058482Y023923D01*
X058505Y023928D01*
X058528Y023930D01*
X059348Y023930D01*
X060348Y023930D01*
X061168Y023930D01*
X061191Y023928D01*
X061214Y023923D01*
X061236Y023914D01*
X061256Y023901D01*
X061274Y023886D01*
X061289Y023868D01*
X061302Y023848D01*
X061311Y023826D01*
X061316Y023803D01*
X061318Y023780D01*
X060348Y023930D02*
X060346Y023886D01*
X060340Y023843D01*
X060331Y023801D01*
X060318Y023759D01*
X060301Y023719D01*
X060281Y023680D01*
X060258Y023643D01*
X060231Y023609D01*
X060202Y023576D01*
X060169Y023547D01*
X060135Y023520D01*
X060098Y023497D01*
X060059Y023477D01*
X060019Y023460D01*
X059977Y023447D01*
X059935Y023438D01*
X059892Y023432D01*
X059848Y023430D01*
X059804Y023432D01*
X059761Y023438D01*
X059719Y023447D01*
X059677Y023460D01*
X059637Y023477D01*
X059598Y023497D01*
X059561Y023520D01*
X059527Y023547D01*
X059494Y023576D01*
X059465Y023609D01*
X059438Y023643D01*
X059415Y023680D01*
X059395Y023719D01*
X059378Y023759D01*
X059365Y023801D01*
X059356Y023843D01*
X059350Y023886D01*
X059348Y023930D01*
X057848Y043870D02*
X057850Y043933D01*
X057856Y043995D01*
X057866Y044057D01*
X057879Y044119D01*
X057897Y044179D01*
X057918Y044238D01*
X057943Y044296D01*
X057972Y044352D01*
X058004Y044406D01*
X058039Y044458D01*
X058077Y044507D01*
X058119Y044555D01*
X058163Y044599D01*
X058211Y044641D01*
X058260Y044679D01*
X058312Y044714D01*
X058366Y044746D01*
X058422Y044775D01*
X058480Y044800D01*
X058539Y044821D01*
X058599Y044839D01*
X058661Y044852D01*
X058723Y044862D01*
X058785Y044868D01*
X058848Y044870D01*
X058911Y044868D01*
X058973Y044862D01*
X059035Y044852D01*
X059097Y044839D01*
X059157Y044821D01*
X059216Y044800D01*
X059274Y044775D01*
X059330Y044746D01*
X059384Y044714D01*
X059436Y044679D01*
X059485Y044641D01*
X059533Y044599D01*
X059577Y044555D01*
X059619Y044507D01*
X059657Y044458D01*
X059692Y044406D01*
X059724Y044352D01*
X059753Y044296D01*
X059778Y044238D01*
X059799Y044179D01*
X059817Y044119D01*
X059830Y044057D01*
X059840Y043995D01*
X059846Y043933D01*
X059848Y043870D01*
X059846Y043807D01*
X059840Y043745D01*
X059830Y043683D01*
X059817Y043621D01*
X059799Y043561D01*
X059778Y043502D01*
X059753Y043444D01*
X059724Y043388D01*
X059692Y043334D01*
X059657Y043282D01*
X059619Y043233D01*
X059577Y043185D01*
X059533Y043141D01*
X059485Y043099D01*
X059436Y043061D01*
X059384Y043026D01*
X059330Y042994D01*
X059274Y042965D01*
X059216Y042940D01*
X059157Y042919D01*
X059097Y042901D01*
X059035Y042888D01*
X058973Y042878D01*
X058911Y042872D01*
X058848Y042870D01*
X058785Y042872D01*
X058723Y042878D01*
X058661Y042888D01*
X058599Y042901D01*
X058539Y042919D01*
X058480Y042940D01*
X058422Y042965D01*
X058366Y042994D01*
X058312Y043026D01*
X058260Y043061D01*
X058211Y043099D01*
X058163Y043141D01*
X058119Y043185D01*
X058077Y043233D01*
X058039Y043282D01*
X058004Y043334D01*
X057972Y043388D01*
X057943Y043444D01*
X057918Y043502D01*
X057897Y043561D01*
X057879Y043621D01*
X057866Y043683D01*
X057856Y043745D01*
X057850Y043807D01*
X057848Y043870D01*
X058298Y044270D02*
X058298Y044370D01*
X058298Y044470D01*
X058298Y044370D02*
X058398Y044370D01*
X058298Y044370D02*
X058198Y044370D01*
D16*
X052768Y038670D02*
X052768Y033570D01*
X053018Y030670D02*
X053018Y025570D01*
X053018Y023920D02*
X053018Y018820D01*
X058518Y018820D02*
X058518Y023920D01*
X066348Y023370D02*
X067948Y023370D01*
X067948Y026870D01*
X066348Y026870D01*
X066348Y027370D02*
X067948Y027370D01*
X067948Y030870D01*
X066348Y030870D01*
X066348Y031370D02*
X067948Y031370D01*
X067948Y034870D01*
X066348Y034870D01*
X066348Y035370D02*
X067948Y035370D01*
X067948Y038870D01*
X066348Y038870D01*
X066348Y039370D02*
X067948Y039370D01*
X067948Y040870D01*
X066348Y040870D01*
X066348Y041370D02*
X067948Y041370D01*
X067948Y042370D01*
X066348Y042370D01*
X058518Y037920D02*
X058518Y032820D01*
X066348Y022870D02*
X067948Y022870D01*
X067948Y019370D01*
X066348Y019370D01*
X066348Y018870D02*
X067948Y018870D01*
X067948Y015370D01*
X066348Y015370D01*
X066348Y014870D02*
X067948Y014870D01*
X067948Y013370D01*
X066348Y013370D01*
X066348Y012870D02*
X067948Y012870D01*
X067948Y011870D01*
X066348Y011870D01*
X059218Y012620D02*
X059218Y016620D01*
X044518Y014570D02*
X044518Y019670D01*
X038018Y019670D02*
X038018Y014570D01*
X038018Y021070D02*
X038018Y026170D01*
X038018Y027570D02*
X038018Y032670D01*
X038018Y034070D02*
X038018Y039170D01*
X044518Y032670D02*
X044518Y027570D01*
X025268Y027570D02*
X025268Y032670D01*
X025268Y034070D02*
X025268Y039170D01*
X012518Y039170D02*
X012518Y034070D01*
X012518Y032670D02*
X012518Y027570D01*
X012518Y026170D02*
X012518Y021070D01*
X012518Y019670D02*
X012518Y014570D01*
X025268Y014570D02*
X025268Y019670D01*
X025268Y021070D02*
X025268Y026170D01*
D17*
X060106Y010870D02*
X060110Y010870D01*
X061106Y030120D02*
X061110Y030120D01*
D18*
X060858Y029620D02*
X060342Y029620D01*
X060342Y030623D01*
X060858Y030623D01*
X060858Y029620D01*
X059858Y011373D02*
X059342Y011373D01*
X059342Y010370D01*
X059858Y010370D01*
X059858Y011373D01*
D19*
X061418Y010120D02*
X061420Y010189D01*
X061426Y010257D01*
X061436Y010325D01*
X061450Y010392D01*
X061468Y010458D01*
X061489Y010524D01*
X061515Y010587D01*
X061544Y010650D01*
X061576Y010710D01*
X061612Y010768D01*
X061651Y010825D01*
X061694Y010878D01*
X061740Y010930D01*
X061788Y010978D01*
X061840Y011024D01*
X061893Y011067D01*
X061950Y011106D01*
X062008Y011142D01*
X062068Y011174D01*
X062131Y011203D01*
X062194Y011229D01*
X062260Y011250D01*
X062326Y011268D01*
X062393Y011282D01*
X062461Y011292D01*
X062529Y011298D01*
X062598Y011300D01*
X062667Y011298D01*
X062735Y011292D01*
X062803Y011282D01*
X062870Y011268D01*
X062936Y011250D01*
X063002Y011229D01*
X063065Y011203D01*
X063128Y011174D01*
X063188Y011142D01*
X063246Y011106D01*
X063303Y011067D01*
X063356Y011024D01*
X063408Y010978D01*
X063456Y010930D01*
X063502Y010878D01*
X063545Y010825D01*
X063584Y010768D01*
X063620Y010710D01*
X063652Y010650D01*
X063681Y010587D01*
X063707Y010524D01*
X063728Y010458D01*
X063746Y010392D01*
X063760Y010325D01*
X063770Y010257D01*
X063776Y010189D01*
X063778Y010120D01*
X063776Y010051D01*
X063770Y009983D01*
X063760Y009915D01*
X063746Y009848D01*
X063728Y009782D01*
X063707Y009716D01*
X063681Y009653D01*
X063652Y009590D01*
X063620Y009530D01*
X063584Y009472D01*
X063545Y009415D01*
X063502Y009362D01*
X063456Y009310D01*
X063408Y009262D01*
X063356Y009216D01*
X063303Y009173D01*
X063246Y009134D01*
X063188Y009098D01*
X063128Y009066D01*
X063065Y009037D01*
X063002Y009011D01*
X062936Y008990D01*
X062870Y008972D01*
X062803Y008958D01*
X062735Y008948D01*
X062667Y008942D01*
X062598Y008940D01*
X062529Y008942D01*
X062461Y008948D01*
X062393Y008958D01*
X062326Y008972D01*
X062260Y008990D01*
X062194Y009011D01*
X062131Y009037D01*
X062068Y009066D01*
X062008Y009098D01*
X061950Y009134D01*
X061893Y009173D01*
X061840Y009216D01*
X061788Y009262D01*
X061740Y009310D01*
X061694Y009362D01*
X061651Y009415D01*
X061612Y009472D01*
X061576Y009530D01*
X061544Y009590D01*
X061515Y009653D01*
X061489Y009716D01*
X061468Y009782D01*
X061450Y009848D01*
X061436Y009915D01*
X061426Y009983D01*
X061420Y010051D01*
X061418Y010120D01*
X055785Y008759D02*
X055785Y012381D01*
X054390Y012381D01*
X053850Y009824D02*
X054352Y008810D01*
X053348Y008810D01*
X053850Y009824D01*
X053847Y009819D02*
X053853Y009819D01*
X053891Y009740D02*
X053808Y009740D01*
X053769Y009662D02*
X053930Y009662D01*
X053969Y009583D02*
X053730Y009583D01*
X053692Y009505D02*
X054008Y009505D01*
X054047Y009426D02*
X053653Y009426D01*
X053614Y009347D02*
X054086Y009347D01*
X054125Y009269D02*
X053575Y009269D01*
X053536Y009190D02*
X054164Y009190D01*
X054203Y009112D02*
X053497Y009112D01*
X053458Y009033D02*
X054241Y009033D01*
X054280Y008955D02*
X053419Y008955D01*
X053380Y008876D02*
X054319Y008876D01*
X055785Y008759D02*
X052592Y008759D01*
X052592Y009141D01*
X052010Y009141D01*
X052010Y008759D01*
X052592Y008759D01*
X052010Y008759D02*
X045089Y008759D01*
X043607Y008759D01*
X043607Y011541D01*
X045089Y011541D01*
X045089Y008759D01*
X043607Y008759D02*
X035592Y008759D01*
X035592Y009141D01*
X035010Y009141D01*
X035010Y008759D01*
X035592Y008759D01*
X035010Y008759D02*
X032911Y008759D01*
X032911Y012381D01*
X034311Y012381D01*
X034596Y014694D02*
X033100Y014694D01*
X033346Y014714D02*
X033346Y018525D01*
X033100Y018545D02*
X034596Y018545D01*
X034596Y022194D02*
X033100Y022194D01*
X033346Y022214D02*
X033346Y026025D01*
X033100Y026045D02*
X034596Y026045D01*
X034596Y027694D02*
X033100Y027694D01*
X033346Y027714D02*
X033346Y031525D01*
X033100Y031545D02*
X034596Y031545D01*
X034596Y035194D02*
X033100Y035194D01*
X033346Y035214D02*
X033346Y039025D01*
X033100Y039045D02*
X034596Y039045D01*
X034306Y041858D02*
X032911Y041858D01*
X032911Y045480D01*
X036103Y045480D01*
X036103Y045098D01*
X036686Y045098D01*
X036686Y045480D01*
X036103Y045480D01*
X036686Y045480D02*
X043607Y045480D01*
X045089Y045480D01*
X045089Y042698D01*
X043607Y042698D01*
X043607Y045480D01*
X045089Y045480D02*
X053103Y045480D01*
X053103Y045098D01*
X053686Y045098D01*
X053686Y045480D01*
X053103Y045480D01*
X053686Y045480D02*
X055785Y045480D01*
X055785Y041858D01*
X054384Y041858D01*
X046483Y038289D02*
X046490Y038274D01*
X046492Y038258D01*
X046490Y038241D01*
X046483Y038226D01*
X046473Y038213D01*
X046460Y038203D01*
X046445Y038197D01*
X046429Y038195D01*
X046401Y038191D01*
X046374Y038182D01*
X046350Y038167D01*
X046330Y038147D01*
X046315Y038123D01*
X046306Y038097D01*
X046303Y038069D01*
X046366Y037628D01*
X046366Y037565D01*
X046356Y037436D01*
X046326Y037311D01*
X046277Y037193D01*
X046209Y037083D01*
X046126Y036985D01*
X046028Y036902D01*
X045919Y036835D01*
X045800Y036786D01*
X045675Y036756D01*
X045547Y036746D01*
X044917Y036746D01*
X044917Y038321D01*
X045547Y038321D01*
X045547Y036746D01*
X045547Y038321D01*
X046429Y038321D01*
X046445Y038318D01*
X046460Y038312D01*
X046473Y038302D01*
X046483Y038289D01*
X046491Y038251D02*
X045547Y038251D01*
X044917Y038251D01*
X043973Y038251D01*
X043972Y038258D02*
X043974Y038241D01*
X043980Y038226D01*
X043990Y038213D01*
X044003Y038203D01*
X044019Y038197D01*
X044035Y038195D01*
X044063Y038191D01*
X044090Y038182D01*
X044113Y038167D01*
X044133Y038147D01*
X044148Y038123D01*
X044158Y038097D01*
X044161Y038069D01*
X044098Y037628D01*
X044098Y037565D01*
X044108Y037436D01*
X044138Y037311D01*
X044187Y037193D01*
X044254Y037083D01*
X044338Y036985D01*
X044435Y036902D01*
X044545Y036835D01*
X044664Y036786D01*
X044789Y036756D01*
X044917Y036746D01*
X044917Y038321D01*
X044035Y038321D01*
X044019Y038318D01*
X044003Y038312D01*
X043990Y038302D01*
X043980Y038289D01*
X043974Y038274D01*
X043972Y038258D01*
X044104Y038173D02*
X044917Y038173D01*
X045547Y038173D01*
X046360Y038173D01*
X046306Y038094D02*
X045547Y038094D01*
X044917Y038094D01*
X044158Y038094D01*
X044153Y038016D02*
X044917Y038016D01*
X045547Y038016D01*
X046310Y038016D01*
X046322Y037937D02*
X045547Y037937D01*
X044917Y037937D01*
X044142Y037937D01*
X044131Y037859D02*
X044917Y037859D01*
X045547Y037859D01*
X046333Y037859D01*
X046344Y037780D02*
X045547Y037780D01*
X044917Y037780D01*
X044120Y037780D01*
X044108Y037702D02*
X044917Y037702D01*
X045547Y037702D01*
X046355Y037702D01*
X046366Y037623D02*
X045547Y037623D01*
X044917Y037623D01*
X044098Y037623D01*
X044099Y037545D02*
X044917Y037545D01*
X045547Y037545D01*
X046364Y037545D01*
X046358Y037466D02*
X045547Y037466D01*
X044917Y037466D01*
X044106Y037466D01*
X044120Y037387D02*
X044917Y037387D01*
X045547Y037387D01*
X046344Y037387D01*
X046325Y037309D02*
X045547Y037309D01*
X044917Y037309D01*
X044139Y037309D01*
X044172Y037230D02*
X044917Y037230D01*
X045547Y037230D01*
X046292Y037230D01*
X046252Y037152D02*
X045547Y037152D01*
X044917Y037152D01*
X044212Y037152D01*
X044263Y037073D02*
X044917Y037073D01*
X045547Y037073D01*
X046201Y037073D01*
X046134Y036995D02*
X045547Y036995D01*
X044917Y036995D01*
X044330Y036995D01*
X044419Y036916D02*
X044917Y036916D01*
X045547Y036916D01*
X046045Y036916D01*
X045923Y036838D02*
X045547Y036838D01*
X044917Y036838D01*
X044540Y036838D01*
X044774Y036759D02*
X044917Y036759D01*
X045547Y036759D01*
X045690Y036759D01*
X034846Y044415D02*
X034344Y045429D01*
X035348Y045429D01*
X034846Y044415D01*
X034866Y044456D02*
X034825Y044456D01*
X034786Y044535D02*
X034905Y044535D01*
X034944Y044613D02*
X034748Y044613D01*
X034709Y044692D02*
X034983Y044692D01*
X035022Y044771D02*
X034670Y044771D01*
X034631Y044849D02*
X035061Y044849D01*
X035100Y044928D02*
X034592Y044928D01*
X034553Y045006D02*
X035139Y045006D01*
X035178Y045085D02*
X034514Y045085D01*
X034475Y045163D02*
X035216Y045163D01*
X035255Y045242D02*
X034436Y045242D01*
X034398Y045320D02*
X035294Y045320D01*
X035333Y045399D02*
X034359Y045399D01*
X030785Y045480D02*
X028686Y045480D01*
X028686Y045098D01*
X028103Y045098D01*
X028103Y045480D01*
X020089Y045480D01*
X018607Y045480D01*
X011686Y045480D01*
X011686Y045098D01*
X011103Y045098D01*
X011103Y045480D01*
X007911Y045480D01*
X007911Y041858D01*
X009306Y041858D01*
X009846Y044415D02*
X009344Y045429D01*
X010348Y045429D01*
X009846Y044415D01*
X009866Y044456D02*
X009825Y044456D01*
X009786Y044535D02*
X009905Y044535D01*
X009944Y044613D02*
X009748Y044613D01*
X009709Y044692D02*
X009983Y044692D01*
X010022Y044771D02*
X009670Y044771D01*
X009631Y044849D02*
X010061Y044849D01*
X010100Y044928D02*
X009592Y044928D01*
X009553Y045006D02*
X010139Y045006D01*
X010178Y045085D02*
X009514Y045085D01*
X009475Y045163D02*
X010216Y045163D01*
X010255Y045242D02*
X009436Y045242D01*
X009398Y045320D02*
X010294Y045320D01*
X010333Y045399D02*
X009359Y045399D01*
X011103Y045480D02*
X011686Y045480D01*
X005168Y044370D02*
X005170Y044439D01*
X005176Y044507D01*
X005186Y044575D01*
X005200Y044642D01*
X005218Y044708D01*
X005239Y044774D01*
X005265Y044837D01*
X005294Y044900D01*
X005326Y044960D01*
X005362Y045018D01*
X005401Y045075D01*
X005444Y045128D01*
X005490Y045180D01*
X005538Y045228D01*
X005590Y045274D01*
X005643Y045317D01*
X005700Y045356D01*
X005758Y045392D01*
X005818Y045424D01*
X005881Y045453D01*
X005944Y045479D01*
X006010Y045500D01*
X006076Y045518D01*
X006143Y045532D01*
X006211Y045542D01*
X006279Y045548D01*
X006348Y045550D01*
X006417Y045548D01*
X006485Y045542D01*
X006553Y045532D01*
X006620Y045518D01*
X006686Y045500D01*
X006752Y045479D01*
X006815Y045453D01*
X006878Y045424D01*
X006938Y045392D01*
X006996Y045356D01*
X007053Y045317D01*
X007106Y045274D01*
X007158Y045228D01*
X007206Y045180D01*
X007252Y045128D01*
X007295Y045075D01*
X007334Y045018D01*
X007370Y044960D01*
X007402Y044900D01*
X007431Y044837D01*
X007457Y044774D01*
X007478Y044708D01*
X007496Y044642D01*
X007510Y044575D01*
X007520Y044507D01*
X007526Y044439D01*
X007528Y044370D01*
X007526Y044301D01*
X007520Y044233D01*
X007510Y044165D01*
X007496Y044098D01*
X007478Y044032D01*
X007457Y043966D01*
X007431Y043903D01*
X007402Y043840D01*
X007370Y043780D01*
X007334Y043722D01*
X007295Y043665D01*
X007252Y043612D01*
X007206Y043560D01*
X007158Y043512D01*
X007106Y043466D01*
X007053Y043423D01*
X006996Y043384D01*
X006938Y043348D01*
X006878Y043316D01*
X006815Y043287D01*
X006752Y043261D01*
X006686Y043240D01*
X006620Y043222D01*
X006553Y043208D01*
X006485Y043198D01*
X006417Y043192D01*
X006348Y043190D01*
X006279Y043192D01*
X006211Y043198D01*
X006143Y043208D01*
X006076Y043222D01*
X006010Y043240D01*
X005944Y043261D01*
X005881Y043287D01*
X005818Y043316D01*
X005758Y043348D01*
X005700Y043384D01*
X005643Y043423D01*
X005590Y043466D01*
X005538Y043512D01*
X005490Y043560D01*
X005444Y043612D01*
X005401Y043665D01*
X005362Y043722D01*
X005326Y043780D01*
X005294Y043840D01*
X005265Y043903D01*
X005239Y043966D01*
X005218Y044032D01*
X005200Y044098D01*
X005186Y044165D01*
X005176Y044233D01*
X005170Y044301D01*
X005168Y044370D01*
X007600Y039045D02*
X009096Y039045D01*
X007846Y039025D02*
X007846Y035214D01*
X007600Y035194D02*
X009096Y035194D01*
X009096Y031545D02*
X007600Y031545D01*
X007846Y031525D02*
X007846Y027714D01*
X007600Y027694D02*
X009096Y027694D01*
X009096Y026045D02*
X007600Y026045D01*
X007846Y026025D02*
X007846Y022214D01*
X007600Y022194D02*
X009096Y022194D01*
X009096Y018545D02*
X007600Y018545D01*
X007846Y018525D02*
X007846Y014714D01*
X007600Y014694D02*
X009096Y014694D01*
X009311Y012381D02*
X007911Y012381D01*
X007911Y008759D01*
X010010Y008759D01*
X010010Y009141D01*
X010592Y009141D01*
X010592Y008759D01*
X018607Y008759D01*
X020089Y008759D01*
X027010Y008759D01*
X027010Y009141D01*
X027592Y009141D01*
X027592Y008759D01*
X030785Y008759D01*
X030785Y012381D01*
X029390Y012381D01*
X028850Y009824D02*
X029352Y008810D01*
X028348Y008810D01*
X028850Y009824D01*
X028847Y009819D02*
X028853Y009819D01*
X028891Y009740D02*
X028808Y009740D01*
X028769Y009662D02*
X028930Y009662D01*
X028969Y009583D02*
X028730Y009583D01*
X028692Y009505D02*
X029008Y009505D01*
X029047Y009426D02*
X028653Y009426D01*
X028614Y009347D02*
X029086Y009347D01*
X029125Y009269D02*
X028575Y009269D01*
X028536Y009190D02*
X029164Y009190D01*
X029203Y009112D02*
X028497Y009112D01*
X028458Y009033D02*
X029241Y009033D01*
X029280Y008955D02*
X028419Y008955D01*
X028380Y008876D02*
X029319Y008876D01*
X027592Y008759D02*
X027010Y008759D01*
X020089Y008759D02*
X020089Y011541D01*
X018607Y011541D01*
X018607Y008759D01*
X020350Y014694D02*
X021846Y014694D01*
X020596Y014714D02*
X020596Y018525D01*
X020350Y018545D02*
X021846Y018545D01*
X021846Y022194D02*
X020350Y022194D01*
X020596Y022214D02*
X020596Y026025D01*
X020350Y026045D02*
X021846Y026045D01*
X021846Y027694D02*
X020350Y027694D01*
X020596Y027714D02*
X020596Y031525D01*
X020350Y031545D02*
X021846Y031545D01*
X021846Y035194D02*
X020350Y035194D01*
X020596Y035214D02*
X020596Y039025D01*
X020350Y039045D02*
X021846Y039045D01*
X020089Y042698D02*
X018607Y042698D01*
X018607Y045480D01*
X020089Y045480D02*
X020089Y042698D01*
X028103Y045480D02*
X028686Y045480D01*
X030785Y045480D02*
X030785Y041858D01*
X029384Y041858D01*
X061418Y044370D02*
X061420Y044439D01*
X061426Y044507D01*
X061436Y044575D01*
X061450Y044642D01*
X061468Y044708D01*
X061489Y044774D01*
X061515Y044837D01*
X061544Y044900D01*
X061576Y044960D01*
X061612Y045018D01*
X061651Y045075D01*
X061694Y045128D01*
X061740Y045180D01*
X061788Y045228D01*
X061840Y045274D01*
X061893Y045317D01*
X061950Y045356D01*
X062008Y045392D01*
X062068Y045424D01*
X062131Y045453D01*
X062194Y045479D01*
X062260Y045500D01*
X062326Y045518D01*
X062393Y045532D01*
X062461Y045542D01*
X062529Y045548D01*
X062598Y045550D01*
X062667Y045548D01*
X062735Y045542D01*
X062803Y045532D01*
X062870Y045518D01*
X062936Y045500D01*
X063002Y045479D01*
X063065Y045453D01*
X063128Y045424D01*
X063188Y045392D01*
X063246Y045356D01*
X063303Y045317D01*
X063356Y045274D01*
X063408Y045228D01*
X063456Y045180D01*
X063502Y045128D01*
X063545Y045075D01*
X063584Y045018D01*
X063620Y044960D01*
X063652Y044900D01*
X063681Y044837D01*
X063707Y044774D01*
X063728Y044708D01*
X063746Y044642D01*
X063760Y044575D01*
X063770Y044507D01*
X063776Y044439D01*
X063778Y044370D01*
X063776Y044301D01*
X063770Y044233D01*
X063760Y044165D01*
X063746Y044098D01*
X063728Y044032D01*
X063707Y043966D01*
X063681Y043903D01*
X063652Y043840D01*
X063620Y043780D01*
X063584Y043722D01*
X063545Y043665D01*
X063502Y043612D01*
X063456Y043560D01*
X063408Y043512D01*
X063356Y043466D01*
X063303Y043423D01*
X063246Y043384D01*
X063188Y043348D01*
X063128Y043316D01*
X063065Y043287D01*
X063002Y043261D01*
X062936Y043240D01*
X062870Y043222D01*
X062803Y043208D01*
X062735Y043198D01*
X062667Y043192D01*
X062598Y043190D01*
X062529Y043192D01*
X062461Y043198D01*
X062393Y043208D01*
X062326Y043222D01*
X062260Y043240D01*
X062194Y043261D01*
X062131Y043287D01*
X062068Y043316D01*
X062008Y043348D01*
X061950Y043384D01*
X061893Y043423D01*
X061840Y043466D01*
X061788Y043512D01*
X061740Y043560D01*
X061694Y043612D01*
X061651Y043665D01*
X061612Y043722D01*
X061576Y043780D01*
X061544Y043840D01*
X061515Y043903D01*
X061489Y043966D01*
X061468Y044032D01*
X061450Y044098D01*
X061436Y044165D01*
X061426Y044233D01*
X061420Y044301D01*
X061418Y044370D01*
X010592Y008759D02*
X010010Y008759D01*
X005168Y010120D02*
X005170Y010189D01*
X005176Y010257D01*
X005186Y010325D01*
X005200Y010392D01*
X005218Y010458D01*
X005239Y010524D01*
X005265Y010587D01*
X005294Y010650D01*
X005326Y010710D01*
X005362Y010768D01*
X005401Y010825D01*
X005444Y010878D01*
X005490Y010930D01*
X005538Y010978D01*
X005590Y011024D01*
X005643Y011067D01*
X005700Y011106D01*
X005758Y011142D01*
X005818Y011174D01*
X005881Y011203D01*
X005944Y011229D01*
X006010Y011250D01*
X006076Y011268D01*
X006143Y011282D01*
X006211Y011292D01*
X006279Y011298D01*
X006348Y011300D01*
X006417Y011298D01*
X006485Y011292D01*
X006553Y011282D01*
X006620Y011268D01*
X006686Y011250D01*
X006752Y011229D01*
X006815Y011203D01*
X006878Y011174D01*
X006938Y011142D01*
X006996Y011106D01*
X007053Y011067D01*
X007106Y011024D01*
X007158Y010978D01*
X007206Y010930D01*
X007252Y010878D01*
X007295Y010825D01*
X007334Y010768D01*
X007370Y010710D01*
X007402Y010650D01*
X007431Y010587D01*
X007457Y010524D01*
X007478Y010458D01*
X007496Y010392D01*
X007510Y010325D01*
X007520Y010257D01*
X007526Y010189D01*
X007528Y010120D01*
X007526Y010051D01*
X007520Y009983D01*
X007510Y009915D01*
X007496Y009848D01*
X007478Y009782D01*
X007457Y009716D01*
X007431Y009653D01*
X007402Y009590D01*
X007370Y009530D01*
X007334Y009472D01*
X007295Y009415D01*
X007252Y009362D01*
X007206Y009310D01*
X007158Y009262D01*
X007106Y009216D01*
X007053Y009173D01*
X006996Y009134D01*
X006938Y009098D01*
X006878Y009066D01*
X006815Y009037D01*
X006752Y009011D01*
X006686Y008990D01*
X006620Y008972D01*
X006553Y008958D01*
X006485Y008948D01*
X006417Y008942D01*
X006348Y008940D01*
X006279Y008942D01*
X006211Y008948D01*
X006143Y008958D01*
X006076Y008972D01*
X006010Y008990D01*
X005944Y009011D01*
X005881Y009037D01*
X005818Y009066D01*
X005758Y009098D01*
X005700Y009134D01*
X005643Y009173D01*
X005590Y009216D01*
X005538Y009262D01*
X005490Y009310D01*
X005444Y009362D01*
X005401Y009415D01*
X005362Y009472D01*
X005326Y009530D01*
X005294Y009590D01*
X005265Y009653D01*
X005239Y009716D01*
X005218Y009782D01*
X005200Y009848D01*
X005186Y009915D01*
X005176Y009983D01*
X005170Y010051D01*
X005168Y010120D01*
D20*
X004848Y007430D02*
X004848Y046810D01*
X067948Y046810D01*
X067948Y007430D01*
X004848Y007430D01*
X005698Y010120D02*
X005700Y010170D01*
X005706Y010220D01*
X005716Y010270D01*
X005729Y010318D01*
X005746Y010366D01*
X005767Y010412D01*
X005791Y010456D01*
X005819Y010498D01*
X005850Y010538D01*
X005884Y010575D01*
X005921Y010610D01*
X005960Y010641D01*
X006001Y010670D01*
X006045Y010695D01*
X006091Y010717D01*
X006138Y010735D01*
X006186Y010749D01*
X006235Y010760D01*
X006285Y010767D01*
X006335Y010770D01*
X006386Y010769D01*
X006436Y010764D01*
X006486Y010755D01*
X006534Y010743D01*
X006582Y010726D01*
X006628Y010706D01*
X006673Y010683D01*
X006716Y010656D01*
X006756Y010626D01*
X006794Y010593D01*
X006829Y010557D01*
X006862Y010518D01*
X006891Y010477D01*
X006917Y010434D01*
X006940Y010389D01*
X006959Y010342D01*
X006974Y010294D01*
X006986Y010245D01*
X006994Y010195D01*
X006998Y010145D01*
X006998Y010095D01*
X006994Y010045D01*
X006986Y009995D01*
X006974Y009946D01*
X006959Y009898D01*
X006940Y009851D01*
X006917Y009806D01*
X006891Y009763D01*
X006862Y009722D01*
X006829Y009683D01*
X006794Y009647D01*
X006756Y009614D01*
X006716Y009584D01*
X006673Y009557D01*
X006628Y009534D01*
X006582Y009514D01*
X006534Y009497D01*
X006486Y009485D01*
X006436Y009476D01*
X006386Y009471D01*
X006335Y009470D01*
X006285Y009473D01*
X006235Y009480D01*
X006186Y009491D01*
X006138Y009505D01*
X006091Y009523D01*
X006045Y009545D01*
X006001Y009570D01*
X005960Y009599D01*
X005921Y009630D01*
X005884Y009665D01*
X005850Y009702D01*
X005819Y009742D01*
X005791Y009784D01*
X005767Y009828D01*
X005746Y009874D01*
X005729Y009922D01*
X005716Y009970D01*
X005706Y010020D01*
X005700Y010070D01*
X005698Y010120D01*
X005698Y044370D02*
X005700Y044420D01*
X005706Y044470D01*
X005716Y044520D01*
X005729Y044568D01*
X005746Y044616D01*
X005767Y044662D01*
X005791Y044706D01*
X005819Y044748D01*
X005850Y044788D01*
X005884Y044825D01*
X005921Y044860D01*
X005960Y044891D01*
X006001Y044920D01*
X006045Y044945D01*
X006091Y044967D01*
X006138Y044985D01*
X006186Y044999D01*
X006235Y045010D01*
X006285Y045017D01*
X006335Y045020D01*
X006386Y045019D01*
X006436Y045014D01*
X006486Y045005D01*
X006534Y044993D01*
X006582Y044976D01*
X006628Y044956D01*
X006673Y044933D01*
X006716Y044906D01*
X006756Y044876D01*
X006794Y044843D01*
X006829Y044807D01*
X006862Y044768D01*
X006891Y044727D01*
X006917Y044684D01*
X006940Y044639D01*
X006959Y044592D01*
X006974Y044544D01*
X006986Y044495D01*
X006994Y044445D01*
X006998Y044395D01*
X006998Y044345D01*
X006994Y044295D01*
X006986Y044245D01*
X006974Y044196D01*
X006959Y044148D01*
X006940Y044101D01*
X006917Y044056D01*
X006891Y044013D01*
X006862Y043972D01*
X006829Y043933D01*
X006794Y043897D01*
X006756Y043864D01*
X006716Y043834D01*
X006673Y043807D01*
X006628Y043784D01*
X006582Y043764D01*
X006534Y043747D01*
X006486Y043735D01*
X006436Y043726D01*
X006386Y043721D01*
X006335Y043720D01*
X006285Y043723D01*
X006235Y043730D01*
X006186Y043741D01*
X006138Y043755D01*
X006091Y043773D01*
X006045Y043795D01*
X006001Y043820D01*
X005960Y043849D01*
X005921Y043880D01*
X005884Y043915D01*
X005850Y043952D01*
X005819Y043992D01*
X005791Y044034D01*
X005767Y044078D01*
X005746Y044124D01*
X005729Y044172D01*
X005716Y044220D01*
X005706Y044270D01*
X005700Y044320D01*
X005698Y044370D01*
X061948Y044370D02*
X061950Y044420D01*
X061956Y044470D01*
X061966Y044520D01*
X061979Y044568D01*
X061996Y044616D01*
X062017Y044662D01*
X062041Y044706D01*
X062069Y044748D01*
X062100Y044788D01*
X062134Y044825D01*
X062171Y044860D01*
X062210Y044891D01*
X062251Y044920D01*
X062295Y044945D01*
X062341Y044967D01*
X062388Y044985D01*
X062436Y044999D01*
X062485Y045010D01*
X062535Y045017D01*
X062585Y045020D01*
X062636Y045019D01*
X062686Y045014D01*
X062736Y045005D01*
X062784Y044993D01*
X062832Y044976D01*
X062878Y044956D01*
X062923Y044933D01*
X062966Y044906D01*
X063006Y044876D01*
X063044Y044843D01*
X063079Y044807D01*
X063112Y044768D01*
X063141Y044727D01*
X063167Y044684D01*
X063190Y044639D01*
X063209Y044592D01*
X063224Y044544D01*
X063236Y044495D01*
X063244Y044445D01*
X063248Y044395D01*
X063248Y044345D01*
X063244Y044295D01*
X063236Y044245D01*
X063224Y044196D01*
X063209Y044148D01*
X063190Y044101D01*
X063167Y044056D01*
X063141Y044013D01*
X063112Y043972D01*
X063079Y043933D01*
X063044Y043897D01*
X063006Y043864D01*
X062966Y043834D01*
X062923Y043807D01*
X062878Y043784D01*
X062832Y043764D01*
X062784Y043747D01*
X062736Y043735D01*
X062686Y043726D01*
X062636Y043721D01*
X062585Y043720D01*
X062535Y043723D01*
X062485Y043730D01*
X062436Y043741D01*
X062388Y043755D01*
X062341Y043773D01*
X062295Y043795D01*
X062251Y043820D01*
X062210Y043849D01*
X062171Y043880D01*
X062134Y043915D01*
X062100Y043952D01*
X062069Y043992D01*
X062041Y044034D01*
X062017Y044078D01*
X061996Y044124D01*
X061979Y044172D01*
X061966Y044220D01*
X061956Y044270D01*
X061950Y044320D01*
X061948Y044370D01*
X066298Y044620D02*
X066300Y044667D01*
X066306Y044713D01*
X066316Y044759D01*
X066329Y044803D01*
X066347Y044847D01*
X066368Y044888D01*
X066392Y044928D01*
X066420Y044966D01*
X066451Y045001D01*
X066485Y045033D01*
X066521Y045062D01*
X066560Y045088D01*
X066600Y045111D01*
X066643Y045130D01*
X066687Y045146D01*
X066732Y045158D01*
X066778Y045166D01*
X066825Y045170D01*
X066871Y045170D01*
X066918Y045166D01*
X066964Y045158D01*
X067009Y045146D01*
X067053Y045130D01*
X067096Y045111D01*
X067136Y045088D01*
X067175Y045062D01*
X067211Y045033D01*
X067245Y045001D01*
X067276Y044966D01*
X067304Y044928D01*
X067328Y044888D01*
X067349Y044847D01*
X067367Y044803D01*
X067380Y044759D01*
X067390Y044713D01*
X067396Y044667D01*
X067398Y044620D01*
X067396Y044573D01*
X067390Y044527D01*
X067380Y044481D01*
X067367Y044437D01*
X067349Y044393D01*
X067328Y044352D01*
X067304Y044312D01*
X067276Y044274D01*
X067245Y044239D01*
X067211Y044207D01*
X067175Y044178D01*
X067136Y044152D01*
X067096Y044129D01*
X067053Y044110D01*
X067009Y044094D01*
X066964Y044082D01*
X066918Y044074D01*
X066871Y044070D01*
X066825Y044070D01*
X066778Y044074D01*
X066732Y044082D01*
X066687Y044094D01*
X066643Y044110D01*
X066600Y044129D01*
X066560Y044152D01*
X066521Y044178D01*
X066485Y044207D01*
X066451Y044239D01*
X066420Y044274D01*
X066392Y044312D01*
X066368Y044352D01*
X066347Y044393D01*
X066329Y044437D01*
X066316Y044481D01*
X066306Y044527D01*
X066300Y044573D01*
X066298Y044620D01*
X061948Y010120D02*
X061950Y010170D01*
X061956Y010220D01*
X061966Y010270D01*
X061979Y010318D01*
X061996Y010366D01*
X062017Y010412D01*
X062041Y010456D01*
X062069Y010498D01*
X062100Y010538D01*
X062134Y010575D01*
X062171Y010610D01*
X062210Y010641D01*
X062251Y010670D01*
X062295Y010695D01*
X062341Y010717D01*
X062388Y010735D01*
X062436Y010749D01*
X062485Y010760D01*
X062535Y010767D01*
X062585Y010770D01*
X062636Y010769D01*
X062686Y010764D01*
X062736Y010755D01*
X062784Y010743D01*
X062832Y010726D01*
X062878Y010706D01*
X062923Y010683D01*
X062966Y010656D01*
X063006Y010626D01*
X063044Y010593D01*
X063079Y010557D01*
X063112Y010518D01*
X063141Y010477D01*
X063167Y010434D01*
X063190Y010389D01*
X063209Y010342D01*
X063224Y010294D01*
X063236Y010245D01*
X063244Y010195D01*
X063248Y010145D01*
X063248Y010095D01*
X063244Y010045D01*
X063236Y009995D01*
X063224Y009946D01*
X063209Y009898D01*
X063190Y009851D01*
X063167Y009806D01*
X063141Y009763D01*
X063112Y009722D01*
X063079Y009683D01*
X063044Y009647D01*
X063006Y009614D01*
X062966Y009584D01*
X062923Y009557D01*
X062878Y009534D01*
X062832Y009514D01*
X062784Y009497D01*
X062736Y009485D01*
X062686Y009476D01*
X062636Y009471D01*
X062585Y009470D01*
X062535Y009473D01*
X062485Y009480D01*
X062436Y009491D01*
X062388Y009505D01*
X062341Y009523D01*
X062295Y009545D01*
X062251Y009570D01*
X062210Y009599D01*
X062171Y009630D01*
X062134Y009665D01*
X062100Y009702D01*
X062069Y009742D01*
X062041Y009784D01*
X062017Y009828D01*
X061996Y009874D01*
X061979Y009922D01*
X061966Y009970D01*
X061956Y010020D01*
X061950Y010070D01*
X061948Y010120D01*
X066298Y009620D02*
X066300Y009667D01*
X066306Y009713D01*
X066316Y009759D01*
X066329Y009803D01*
X066347Y009847D01*
X066368Y009888D01*
X066392Y009928D01*
X066420Y009966D01*
X066451Y010001D01*
X066485Y010033D01*
X066521Y010062D01*
X066560Y010088D01*
X066600Y010111D01*
X066643Y010130D01*
X066687Y010146D01*
X066732Y010158D01*
X066778Y010166D01*
X066825Y010170D01*
X066871Y010170D01*
X066918Y010166D01*
X066964Y010158D01*
X067009Y010146D01*
X067053Y010130D01*
X067096Y010111D01*
X067136Y010088D01*
X067175Y010062D01*
X067211Y010033D01*
X067245Y010001D01*
X067276Y009966D01*
X067304Y009928D01*
X067328Y009888D01*
X067349Y009847D01*
X067367Y009803D01*
X067380Y009759D01*
X067390Y009713D01*
X067396Y009667D01*
X067398Y009620D01*
X067396Y009573D01*
X067390Y009527D01*
X067380Y009481D01*
X067367Y009437D01*
X067349Y009393D01*
X067328Y009352D01*
X067304Y009312D01*
X067276Y009274D01*
X067245Y009239D01*
X067211Y009207D01*
X067175Y009178D01*
X067136Y009152D01*
X067096Y009129D01*
X067053Y009110D01*
X067009Y009094D01*
X066964Y009082D01*
X066918Y009074D01*
X066871Y009070D01*
X066825Y009070D01*
X066778Y009074D01*
X066732Y009082D01*
X066687Y009094D01*
X066643Y009110D01*
X066600Y009129D01*
X066560Y009152D01*
X066521Y009178D01*
X066485Y009207D01*
X066451Y009239D01*
X066420Y009274D01*
X066392Y009312D01*
X066368Y009352D01*
X066347Y009393D01*
X066329Y009437D01*
X066316Y009481D01*
X066306Y009527D01*
X066300Y009573D01*
X066298Y009620D01*
D21*
X068432Y037655D02*
X068432Y037970D01*
X068537Y038075D01*
X068958Y038075D01*
X069063Y037970D01*
X069063Y037655D01*
X068432Y037655D01*
X068432Y038299D02*
X068432Y038509D01*
X068432Y038404D02*
X069063Y038404D01*
X069063Y038299D02*
X069063Y038509D01*
X069063Y038729D02*
X068432Y038729D01*
X069063Y039149D01*
X068432Y039149D01*
X068748Y040018D02*
X068748Y040438D01*
X068643Y040662D02*
X068432Y040872D01*
X069063Y040872D01*
X069063Y040662D02*
X069063Y041083D01*
X068958Y041307D02*
X068748Y041307D01*
X068748Y041622D01*
X068853Y041727D01*
X068958Y041727D01*
X069063Y041622D01*
X069063Y041412D01*
X068958Y041307D01*
X068748Y041307D02*
X068537Y041517D01*
X068432Y041727D01*
X068643Y041951D02*
X068432Y042162D01*
X069063Y042162D01*
X069063Y042372D02*
X069063Y041951D01*
X069063Y042596D02*
X068643Y043016D01*
X068537Y043016D01*
X068432Y042911D01*
X068432Y042701D01*
X068537Y042596D01*
X069063Y042596D02*
X069063Y043016D01*
X069432Y042804D02*
X069537Y042909D01*
X069432Y042804D02*
X069432Y042594D01*
X069537Y042488D01*
X069958Y042488D01*
X070063Y042594D01*
X070063Y042804D01*
X069958Y042909D01*
X070063Y041620D02*
X069748Y041620D01*
X069643Y041515D01*
X069748Y041410D01*
X070063Y041410D01*
X070063Y041199D02*
X069643Y041199D01*
X069643Y041304D01*
X069748Y041410D01*
X069643Y040978D02*
X069643Y040872D01*
X069853Y040662D01*
X070063Y040662D02*
X069643Y040662D01*
X069748Y040438D02*
X069643Y040333D01*
X069643Y040123D01*
X069748Y040018D01*
X069958Y040018D01*
X070063Y040123D01*
X070063Y040333D01*
X069958Y040438D01*
X069748Y040438D01*
X069748Y039798D02*
X069748Y039588D01*
X069537Y039693D02*
X069432Y039798D01*
X069537Y039693D02*
X070063Y039693D01*
X070063Y039364D02*
X069643Y039364D01*
X070063Y039364D02*
X070063Y039049D01*
X069958Y038944D01*
X069643Y038944D01*
X069748Y038719D02*
X070063Y038719D01*
X070063Y038404D01*
X069958Y038299D01*
X069853Y038404D01*
X069853Y038719D01*
X069748Y038719D02*
X069643Y038614D01*
X069643Y038404D01*
X069643Y038075D02*
X069748Y037970D01*
X069748Y037655D01*
X069748Y037970D02*
X069853Y038075D01*
X069958Y038075D01*
X070063Y037970D01*
X070063Y037655D01*
X069432Y037655D01*
X069432Y037970D01*
X069537Y038075D01*
X069643Y038075D01*
X068748Y040018D02*
X068432Y040333D01*
X069063Y040333D01*
D22*
X066273Y040620D03*
X066273Y039620D03*
X066273Y038620D03*
X066273Y037620D03*
X066273Y036620D03*
X066273Y035620D03*
X066273Y034620D03*
X066273Y033620D03*
X066273Y032620D03*
X066273Y031620D03*
X066273Y030620D03*
X066273Y029620D03*
X066273Y028620D03*
X066273Y027620D03*
X066273Y026620D03*
X066273Y025620D03*
X066273Y024620D03*
X066273Y023620D03*
X066273Y022620D03*
X066273Y021620D03*
X066273Y020620D03*
X066273Y019620D03*
X066273Y018620D03*
X066273Y017620D03*
X066273Y016620D03*
X066273Y015620D03*
X066273Y014620D03*
X066273Y013620D03*
X066273Y012620D03*
X066273Y011620D03*
X066273Y041620D03*
X066273Y042620D03*
D23*
X065348Y042620D03*
X064348Y042620D03*
X064348Y041620D03*
X065348Y041620D03*
X065348Y040620D03*
X065348Y039620D03*
X064348Y039620D03*
X064348Y040620D03*
X064348Y038620D03*
X065348Y038620D03*
X065348Y037620D03*
X064348Y037620D03*
X064348Y036620D03*
X065348Y036620D03*
X065348Y035620D03*
X064348Y035620D03*
X064348Y034620D03*
X065348Y034620D03*
X065348Y033620D03*
X065348Y032620D03*
X064348Y032620D03*
X064348Y033620D03*
X064348Y031620D03*
X065348Y031620D03*
X065348Y030620D03*
X064348Y030620D03*
X064348Y029620D03*
X065348Y029620D03*
X065348Y028620D03*
X064348Y028620D03*
X064348Y027620D03*
X064348Y026620D03*
X065348Y026620D03*
X065348Y027620D03*
X065348Y025620D03*
X064348Y025620D03*
X064348Y024620D03*
X065348Y024620D03*
X065348Y023620D03*
X064348Y023620D03*
X064348Y022620D03*
X065348Y022620D03*
X065348Y021620D03*
X065348Y020620D03*
X064348Y020620D03*
X064348Y021620D03*
X064348Y019620D03*
X065348Y019620D03*
X065348Y018620D03*
X064348Y018620D03*
X064348Y017620D03*
X065348Y017620D03*
X065348Y016620D03*
X064348Y016620D03*
X064348Y015620D03*
X065348Y015620D03*
X065348Y014620D03*
X065348Y013620D03*
X064348Y013620D03*
X064348Y014620D03*
X064348Y012620D03*
X065348Y012620D03*
X065348Y011620D03*
X064348Y011620D03*
D24*
X047716Y022952D02*
X047716Y023287D01*
X047271Y023333D01*
X047242Y023433D01*
X047202Y023530D01*
X047151Y023622D01*
X047434Y023968D01*
X047196Y024205D01*
X046850Y023923D01*
X046758Y023973D01*
X046661Y024013D01*
X046561Y024043D01*
X046516Y024487D01*
X046180Y024487D01*
X046135Y024043D01*
X046034Y024013D01*
X045938Y023973D01*
X045846Y023923D01*
X045500Y024205D01*
X045262Y023968D01*
X045544Y023622D01*
X045494Y023530D01*
X045454Y023433D01*
X045425Y023333D01*
X044980Y023287D01*
X044980Y022952D01*
X045425Y022906D01*
X045454Y022806D01*
X045494Y022709D01*
X045544Y022618D01*
X045262Y022271D01*
X045500Y022034D01*
X045846Y022316D01*
X045914Y022277D01*
X045985Y022244D01*
X046183Y022722D01*
X046119Y022755D01*
X046061Y022798D01*
X046011Y022851D01*
X045971Y022911D01*
X045941Y022977D01*
X045923Y023047D01*
X045917Y023120D01*
X045925Y023200D01*
X045947Y023278D01*
X045984Y023350D01*
X046033Y023413D01*
X046094Y023467D01*
X046163Y023508D01*
X046239Y023536D01*
X046318Y023549D01*
X046399Y023547D01*
X046478Y023530D01*
X046552Y023498D01*
X046620Y023454D01*
X046677Y023397D01*
X046723Y023331D01*
X046756Y023257D01*
X046774Y023178D01*
X046778Y023097D01*
X046766Y023018D01*
X046740Y022941D01*
X046700Y022871D01*
X046647Y022810D01*
X046584Y022759D01*
X046513Y022722D01*
X046710Y022244D01*
X046782Y022277D01*
X046850Y022316D01*
X047196Y022034D01*
X047434Y022271D01*
X047151Y022618D01*
X047202Y022709D01*
X047242Y022806D01*
X047271Y022906D01*
X047716Y022952D01*
X047716Y022998D02*
X046760Y022998D01*
X046772Y023056D02*
X047716Y023056D01*
X047716Y023114D02*
X046777Y023114D01*
X046775Y023171D02*
X047716Y023171D01*
X047716Y023229D02*
X046763Y023229D01*
X046743Y023286D02*
X047716Y023286D01*
X047608Y022941D02*
X046740Y022941D01*
X046707Y022883D02*
X047264Y022883D01*
X047247Y022826D02*
X046661Y022826D01*
X046595Y022768D02*
X047226Y022768D01*
X047202Y022710D02*
X046517Y022710D01*
X046541Y022653D02*
X047171Y022653D01*
X047170Y022595D02*
X046565Y022595D01*
X046589Y022538D02*
X047217Y022538D01*
X047264Y022480D02*
X046613Y022480D01*
X046637Y022422D02*
X047310Y022422D01*
X047357Y022365D02*
X046661Y022365D01*
X046684Y022307D02*
X046834Y022307D01*
X046861Y022307D02*
X047404Y022307D01*
X047412Y022250D02*
X046931Y022250D01*
X047002Y022192D02*
X047354Y022192D01*
X047297Y022134D02*
X047073Y022134D01*
X047143Y022077D02*
X047239Y022077D01*
X046722Y022250D02*
X046708Y022250D01*
X046083Y022480D02*
X045432Y022480D01*
X045385Y022422D02*
X046059Y022422D01*
X046035Y022365D02*
X045338Y022365D01*
X045291Y022307D02*
X045835Y022307D01*
X045862Y022307D02*
X046011Y022307D01*
X045987Y022250D02*
X045974Y022250D01*
X045764Y022250D02*
X045284Y022250D01*
X045341Y022192D02*
X045694Y022192D01*
X045623Y022134D02*
X045399Y022134D01*
X045456Y022077D02*
X045552Y022077D01*
X045479Y022538D02*
X046107Y022538D01*
X046131Y022595D02*
X045526Y022595D01*
X045525Y022653D02*
X046154Y022653D01*
X046178Y022710D02*
X045494Y022710D01*
X045470Y022768D02*
X046102Y022768D01*
X046035Y022826D02*
X045448Y022826D01*
X045432Y022883D02*
X045990Y022883D01*
X045958Y022941D02*
X045087Y022941D01*
X044980Y022998D02*
X045936Y022998D01*
X045923Y023056D02*
X044980Y023056D01*
X044980Y023114D02*
X045918Y023114D01*
X045922Y023171D02*
X044980Y023171D01*
X044980Y023229D02*
X045933Y023229D01*
X045952Y023286D02*
X044980Y023286D01*
X045428Y023344D02*
X045981Y023344D01*
X046024Y023401D02*
X045445Y023401D01*
X045465Y023459D02*
X046085Y023459D01*
X046186Y023517D02*
X045489Y023517D01*
X045518Y023574D02*
X047177Y023574D01*
X047160Y023632D02*
X045536Y023632D01*
X045489Y023689D02*
X047207Y023689D01*
X047254Y023747D02*
X045442Y023747D01*
X045395Y023805D02*
X047301Y023805D01*
X047348Y023862D02*
X045348Y023862D01*
X045301Y023920D02*
X047395Y023920D01*
X047424Y023977D02*
X046917Y023977D01*
X046987Y024035D02*
X047366Y024035D01*
X047309Y024093D02*
X047058Y024093D01*
X047129Y024150D02*
X047251Y024150D01*
X046748Y023977D02*
X045947Y023977D01*
X045779Y023977D02*
X045272Y023977D01*
X045329Y024035D02*
X045708Y024035D01*
X045638Y024093D02*
X045387Y024093D01*
X045444Y024150D02*
X045567Y024150D01*
X046109Y024035D02*
X046587Y024035D01*
X046556Y024093D02*
X046140Y024093D01*
X046146Y024150D02*
X046550Y024150D01*
X046544Y024208D02*
X046152Y024208D01*
X046157Y024265D02*
X046538Y024265D01*
X046532Y024323D02*
X046163Y024323D01*
X046169Y024381D02*
X046527Y024381D01*
X046521Y024438D02*
X046175Y024438D01*
X046509Y023517D02*
X047207Y023517D01*
X047231Y023459D02*
X046611Y023459D01*
X046673Y023401D02*
X047251Y023401D01*
X047268Y023344D02*
X046714Y023344D01*
D25*
X061848Y010120D02*
X061850Y010174D01*
X061856Y010228D01*
X061866Y010281D01*
X061879Y010334D01*
X061896Y010385D01*
X061917Y010435D01*
X061942Y010483D01*
X061970Y010530D01*
X062001Y010574D01*
X062035Y010616D01*
X062072Y010655D01*
X062112Y010692D01*
X062155Y010725D01*
X062200Y010756D01*
X062247Y010783D01*
X062295Y010806D01*
X062346Y010826D01*
X062397Y010843D01*
X062450Y010855D01*
X062503Y010864D01*
X062557Y010869D01*
X062612Y010870D01*
X062666Y010867D01*
X062719Y010860D01*
X062772Y010849D01*
X062825Y010835D01*
X062876Y010817D01*
X062925Y010795D01*
X062973Y010770D01*
X063019Y010741D01*
X063063Y010709D01*
X063104Y010674D01*
X063142Y010636D01*
X063178Y010595D01*
X063211Y010552D01*
X063241Y010507D01*
X063267Y010459D01*
X063290Y010410D01*
X063309Y010359D01*
X063324Y010308D01*
X063336Y010255D01*
X063344Y010201D01*
X063348Y010147D01*
X063348Y010093D01*
X063344Y010039D01*
X063336Y009985D01*
X063324Y009932D01*
X063309Y009881D01*
X063290Y009830D01*
X063267Y009781D01*
X063241Y009733D01*
X063211Y009688D01*
X063178Y009645D01*
X063142Y009604D01*
X063104Y009566D01*
X063063Y009531D01*
X063019Y009499D01*
X062973Y009470D01*
X062925Y009445D01*
X062876Y009423D01*
X062825Y009405D01*
X062772Y009391D01*
X062719Y009380D01*
X062666Y009373D01*
X062612Y009370D01*
X062557Y009371D01*
X062503Y009376D01*
X062450Y009385D01*
X062397Y009397D01*
X062346Y009414D01*
X062295Y009434D01*
X062247Y009457D01*
X062200Y009484D01*
X062155Y009515D01*
X062112Y009548D01*
X062072Y009585D01*
X062035Y009624D01*
X062001Y009666D01*
X061970Y009710D01*
X061942Y009757D01*
X061917Y009805D01*
X061896Y009855D01*
X061879Y009906D01*
X061866Y009959D01*
X061856Y010012D01*
X061850Y010066D01*
X061848Y010120D01*
X061848Y044370D02*
X061850Y044424D01*
X061856Y044478D01*
X061866Y044531D01*
X061879Y044584D01*
X061896Y044635D01*
X061917Y044685D01*
X061942Y044733D01*
X061970Y044780D01*
X062001Y044824D01*
X062035Y044866D01*
X062072Y044905D01*
X062112Y044942D01*
X062155Y044975D01*
X062200Y045006D01*
X062247Y045033D01*
X062295Y045056D01*
X062346Y045076D01*
X062397Y045093D01*
X062450Y045105D01*
X062503Y045114D01*
X062557Y045119D01*
X062612Y045120D01*
X062666Y045117D01*
X062719Y045110D01*
X062772Y045099D01*
X062825Y045085D01*
X062876Y045067D01*
X062925Y045045D01*
X062973Y045020D01*
X063019Y044991D01*
X063063Y044959D01*
X063104Y044924D01*
X063142Y044886D01*
X063178Y044845D01*
X063211Y044802D01*
X063241Y044757D01*
X063267Y044709D01*
X063290Y044660D01*
X063309Y044609D01*
X063324Y044558D01*
X063336Y044505D01*
X063344Y044451D01*
X063348Y044397D01*
X063348Y044343D01*
X063344Y044289D01*
X063336Y044235D01*
X063324Y044182D01*
X063309Y044131D01*
X063290Y044080D01*
X063267Y044031D01*
X063241Y043983D01*
X063211Y043938D01*
X063178Y043895D01*
X063142Y043854D01*
X063104Y043816D01*
X063063Y043781D01*
X063019Y043749D01*
X062973Y043720D01*
X062925Y043695D01*
X062876Y043673D01*
X062825Y043655D01*
X062772Y043641D01*
X062719Y043630D01*
X062666Y043623D01*
X062612Y043620D01*
X062557Y043621D01*
X062503Y043626D01*
X062450Y043635D01*
X062397Y043647D01*
X062346Y043664D01*
X062295Y043684D01*
X062247Y043707D01*
X062200Y043734D01*
X062155Y043765D01*
X062112Y043798D01*
X062072Y043835D01*
X062035Y043874D01*
X062001Y043916D01*
X061970Y043960D01*
X061942Y044007D01*
X061917Y044055D01*
X061896Y044105D01*
X061879Y044156D01*
X061866Y044209D01*
X061856Y044262D01*
X061850Y044316D01*
X061848Y044370D01*
X005598Y044370D02*
X005600Y044424D01*
X005606Y044478D01*
X005616Y044531D01*
X005629Y044584D01*
X005646Y044635D01*
X005667Y044685D01*
X005692Y044733D01*
X005720Y044780D01*
X005751Y044824D01*
X005785Y044866D01*
X005822Y044905D01*
X005862Y044942D01*
X005905Y044975D01*
X005950Y045006D01*
X005997Y045033D01*
X006045Y045056D01*
X006096Y045076D01*
X006147Y045093D01*
X006200Y045105D01*
X006253Y045114D01*
X006307Y045119D01*
X006362Y045120D01*
X006416Y045117D01*
X006469Y045110D01*
X006522Y045099D01*
X006575Y045085D01*
X006626Y045067D01*
X006675Y045045D01*
X006723Y045020D01*
X006769Y044991D01*
X006813Y044959D01*
X006854Y044924D01*
X006892Y044886D01*
X006928Y044845D01*
X006961Y044802D01*
X006991Y044757D01*
X007017Y044709D01*
X007040Y044660D01*
X007059Y044609D01*
X007074Y044558D01*
X007086Y044505D01*
X007094Y044451D01*
X007098Y044397D01*
X007098Y044343D01*
X007094Y044289D01*
X007086Y044235D01*
X007074Y044182D01*
X007059Y044131D01*
X007040Y044080D01*
X007017Y044031D01*
X006991Y043983D01*
X006961Y043938D01*
X006928Y043895D01*
X006892Y043854D01*
X006854Y043816D01*
X006813Y043781D01*
X006769Y043749D01*
X006723Y043720D01*
X006675Y043695D01*
X006626Y043673D01*
X006575Y043655D01*
X006522Y043641D01*
X006469Y043630D01*
X006416Y043623D01*
X006362Y043620D01*
X006307Y043621D01*
X006253Y043626D01*
X006200Y043635D01*
X006147Y043647D01*
X006096Y043664D01*
X006045Y043684D01*
X005997Y043707D01*
X005950Y043734D01*
X005905Y043765D01*
X005862Y043798D01*
X005822Y043835D01*
X005785Y043874D01*
X005751Y043916D01*
X005720Y043960D01*
X005692Y044007D01*
X005667Y044055D01*
X005646Y044105D01*
X005629Y044156D01*
X005616Y044209D01*
X005606Y044262D01*
X005600Y044316D01*
X005598Y044370D01*
X005598Y010120D02*
X005600Y010174D01*
X005606Y010228D01*
X005616Y010281D01*
X005629Y010334D01*
X005646Y010385D01*
X005667Y010435D01*
X005692Y010483D01*
X005720Y010530D01*
X005751Y010574D01*
X005785Y010616D01*
X005822Y010655D01*
X005862Y010692D01*
X005905Y010725D01*
X005950Y010756D01*
X005997Y010783D01*
X006045Y010806D01*
X006096Y010826D01*
X006147Y010843D01*
X006200Y010855D01*
X006253Y010864D01*
X006307Y010869D01*
X006362Y010870D01*
X006416Y010867D01*
X006469Y010860D01*
X006522Y010849D01*
X006575Y010835D01*
X006626Y010817D01*
X006675Y010795D01*
X006723Y010770D01*
X006769Y010741D01*
X006813Y010709D01*
X006854Y010674D01*
X006892Y010636D01*
X006928Y010595D01*
X006961Y010552D01*
X006991Y010507D01*
X007017Y010459D01*
X007040Y010410D01*
X007059Y010359D01*
X007074Y010308D01*
X007086Y010255D01*
X007094Y010201D01*
X007098Y010147D01*
X007098Y010093D01*
X007094Y010039D01*
X007086Y009985D01*
X007074Y009932D01*
X007059Y009881D01*
X007040Y009830D01*
X007017Y009781D01*
X006991Y009733D01*
X006961Y009688D01*
X006928Y009645D01*
X006892Y009604D01*
X006854Y009566D01*
X006813Y009531D01*
X006769Y009499D01*
X006723Y009470D01*
X006675Y009445D01*
X006626Y009423D01*
X006575Y009405D01*
X006522Y009391D01*
X006469Y009380D01*
X006416Y009373D01*
X006362Y009370D01*
X006307Y009371D01*
X006253Y009376D01*
X006200Y009385D01*
X006147Y009397D01*
X006096Y009414D01*
X006045Y009434D01*
X005997Y009457D01*
X005950Y009484D01*
X005905Y009515D01*
X005862Y009548D01*
X005822Y009585D01*
X005785Y009624D01*
X005751Y009666D01*
X005720Y009710D01*
X005692Y009757D01*
X005667Y009805D01*
X005646Y009855D01*
X005629Y009906D01*
X005616Y009959D01*
X005606Y010012D01*
X005600Y010066D01*
X005598Y010120D01*
M02*
