%
M48
M72
T01C0.0120
T02C0.0315
T03C0.0320
T04C0.0360
T05C0.0394
T06C0.0400
T07C0.1100
T08C0.1300
%
T01
X8598Y10120
X8848Y10620
X7598Y11620
X12598Y11370
X16548Y9870
X19348Y10370
X22598Y11370
X21348Y13120
X21148Y14870
X23348Y15620
X22598Y17520
X23848Y18120
X24348Y17870
X24848Y18120
X25348Y17870
X25848Y18120
X26348Y17870
X26848Y18120
X27348Y17870
X27848Y18120
X28348Y17370
X28598Y17120
X28848Y16120
X29098Y15870
X29348Y15620
X28598Y14870
X33098Y18370
X35098Y19620
X35098Y20220
X34598Y20620
X35598Y21120
X35598Y21620
X35098Y21920
X34848Y24120
X32598Y22370
X32348Y22620
X31848Y22870
X31848Y24120
X28598Y23370
X28348Y23870
X28098Y25120
X28598Y26370
X23348Y24370
X23098Y24870
X22848Y25120
X22548Y26720
X20848Y26620
X20098Y26370
X20098Y27370
X20348Y27870
X18598Y28120
X18348Y29370
X16848Y28370
X16348Y27870
X16098Y28370
X15848Y28870
X16098Y29870
X16598Y29870
X18198Y31120
X19098Y32120
X19348Y31870
X18348Y33120
X17848Y33620
X17598Y33120
X17348Y34120
X16098Y32620
X16348Y32370
X15248Y34020
X14098Y35120
X15248Y35520
X15598Y36120
X15848Y36620
X16348Y36120
X16848Y35620
X16298Y35270
X17598Y37120
X16598Y38120
X15598Y38620
X15348Y39370
X15098Y39870
X14598Y38120
X13648Y37120
X11748Y35370
X12698Y34870
X11598Y34620
X12598Y33870
X12598Y32620
X12748Y31120
X12598Y29870
X12598Y29370
X14098Y30370
X14348Y30120
X14348Y29620
X14098Y28370
X14498Y27370
X15098Y26870
X15598Y25370
X15798Y24370
X15798Y23870
X16348Y24120
X16598Y24870
X18098Y24370
X18598Y24870
X20098Y24870
X20348Y24370
X19948Y23870
X20598Y23620
X20598Y22370
X19948Y21870
X20598Y21120
X21598Y20620
X22848Y20620
X23098Y20370
X23348Y20120
X23848Y21620
X24348Y21370
X24848Y21120
X25348Y20870
X25848Y20370
X26348Y20620
X27348Y20120
X26848Y19870
X20848Y17520
X19348Y16370
X18598Y16120
X17848Y16120
X17348Y16120
X16598Y15620
X16098Y16120
X15598Y16620
X15098Y17120
X15598Y17870
X16098Y18120
X16598Y17870
X17098Y18120
X17598Y17870
X18098Y18120
X18598Y17870
X19098Y18120
X19098Y19870
X18598Y20120
X17848Y19870
X15098Y18120
X13848Y17570
X11598Y18870
X10598Y18870
X9598Y18870
X8348Y17070
X6598Y17870
X6598Y19870
X7598Y20370
X6048Y21370
X6598Y22270
X7598Y23620
X9098Y24620
X9598Y24120
X11998Y23120
X12798Y22746
X13598Y22370
X13848Y23120
X13348Y23620
X14048Y23870
X13648Y24370
X14098Y24870
X12348Y25770
X12598Y26820
X12498Y27470
X11598Y28120
X10248Y27370
X9098Y26870
X7298Y27370
X7848Y28870
X8348Y29870
X7348Y29870
X7998Y31120
X7348Y32020
X6448Y33070
X7848Y34120
X9348Y32870
X10298Y32870
X10348Y32370
X9848Y31620
X9848Y30120
X9848Y29370
X11098Y26370
X6148Y25120
X10398Y21870
X12198Y21120
X14298Y21870
X14748Y21370
X18348Y26120
X20098Y30370
X22198Y31120
X22848Y31620
X23098Y31370
X23348Y31120
X22848Y35120
X23348Y35370
X22348Y35870
X21848Y35620
X21348Y36370
X20848Y37120
X20348Y37370
X20098Y37620
X19598Y38370
X19348Y38120
X18848Y39620
X17098Y39620
X17748Y42870
X14348Y44370
X13348Y45120
X11348Y44620
X10348Y44870
X12348Y43370
X9348Y42120
X7098Y40620
X9398Y38120
X9698Y37120
X9698Y36120
X8448Y35370
X7598Y35370
X5998Y36620
X10098Y33520
X21848Y43120
X32848Y44120
X33348Y43870
X33598Y43620
X33098Y43370
X36348Y43120
X38848Y42620
X40348Y42370
X42848Y43870
X43348Y44370
X43848Y44120
X44348Y44620
X45348Y43620
X42348Y44870
X41848Y45120
X41348Y45370
X43598Y39620
X43098Y39370
X42098Y38520
X43098Y37620
X43098Y37120
X43598Y36620
X43348Y36120
X43598Y35620
X43348Y35120
X43598Y34620
X43348Y34120
X43748Y33620
X42598Y32620
X42848Y32370
X43348Y32120
X43648Y31370
X43098Y30120
X43348Y29620
X43598Y29120
X43848Y28620
X44098Y28120
X44348Y27620
X44348Y29620
X45598Y31370
X46448Y31120
X47598Y31120
X49298Y32370
X50948Y33870
X51098Y34370
X51098Y34870
X51098Y35370
X51098Y35870
X51098Y36370
X51098Y36870
X51098Y37370
X47598Y37620
X47098Y38870
X45098Y38120
X38948Y38120
X37848Y39370
X37348Y38620
X36848Y38620
X35598Y37370
X35598Y36870
X35098Y35920
X34498Y36370
X35098Y34370
X34348Y33370
X34098Y33120
X33848Y32870
X33598Y32620
X33348Y32370
X33098Y32120
X34848Y31870
X34348Y30120
X34348Y29620
X34598Y29120
X34348Y28620
X34598Y28120
X34348Y27620
X36098Y27170
X37748Y26120
X38098Y25370
X38848Y25120
X39848Y23870
X39598Y23370
X39048Y22370
X39848Y22120
X39598Y21620
X39348Y21120
X39348Y20620
X39348Y20120
X39348Y19620
X39348Y19120
X39348Y18620
X38948Y17870
X40098Y16870
X40348Y17120
X40598Y17370
X41348Y17870
X43098Y18370
X43098Y18870
X43098Y19370
X43098Y19870
X43098Y20370
X43098Y20870
X41598Y20370
X45098Y20370
X45098Y19870
X45348Y19370
X45098Y18870
X45348Y18370
X44948Y17870
X48848Y15120
X49248Y15870
X49598Y17820
X49598Y18370
X49598Y18870
X49598Y19370
X49598Y19870
X49598Y20370
X49598Y20870
X49598Y21370
X49098Y21870
X47048Y23120
X48348Y24120
X48348Y24870
X48098Y25120
X49348Y26620
X49848Y26620
X50348Y26870
X50348Y28120
X49848Y28620
X49998Y30370
X51848Y29620
X53348Y29370
X53798Y30370
X53798Y31370
X52098Y31120
X51848Y31620
X52098Y32370
X51598Y33320
X55848Y32370
X56948Y33370
X59348Y35120
X61098Y37620
X61398Y38620
X57098Y40120
X55398Y39120
X55598Y37870
X55098Y37870
X57098Y43620
X57598Y31370
X57348Y30120
X57348Y29620
X58098Y28870
X58348Y29120
X58348Y29620
X58348Y28620
X57248Y27620
X55648Y28120
X54348Y26620
X53348Y26620
X54348Y25870
X55598Y25920
X55348Y24620
X56598Y23620
X55598Y23120
X55598Y21870
X55098Y21620
X57598Y22620
X58348Y22620
X58848Y23120
X59248Y22620
X59598Y21370
X58848Y20620
X61098Y20620
X61598Y22120
X62348Y24120
X62348Y24620
X63098Y24870
X61448Y25720
X62248Y26520
X62598Y26120
X62348Y27870
X62848Y28620
X61248Y28120
X60598Y27320
X60298Y25720
X58598Y26070
X57898Y25620
X57048Y25620
X60048Y28870
X60948Y29720
X59898Y30820
X61598Y30920
X62348Y30620
X67098Y30120
X66598Y25370
X57098Y17370
X56598Y16620
X57248Y15870
X56748Y15120
X57948Y14620
X57948Y13620
X56848Y12620
X56748Y11620
X55098Y10870
X53948Y11620
X52748Y11620
X53348Y12520
X55098Y12620
X53948Y14620
X52748Y15120
X53498Y15870
X51598Y17120
X50948Y17870
X51148Y14620
X51398Y13120
X51398Y12120
X49848Y13620
X48898Y13870
X48598Y9370
X49348Y8870
X51348Y8620
X56098Y8620
X57098Y9370
X60348Y8620
X60348Y11370
X62098Y12370
X60598Y12620
X59848Y12870
X59848Y16620
X66598Y15120
X66598Y13620
X67098Y17120
X52498Y23120
X51598Y22370
X50598Y24120
X50598Y24870
X50348Y25120
X51848Y25870
X47848Y29620
X41598Y29870
X41098Y29370
X39348Y30620
X41098Y31870
X40598Y33620
X38948Y33620
X37598Y34870
X37598Y35620
X33098Y34120
X30598Y33620
X30598Y31870
X28098Y31870
X37348Y30370
X39848Y26870
X42348Y24620
X41598Y23620
X45098Y22370
X45348Y20870
X39848Y16620
X39598Y16370
X39348Y16120
X40098Y15370
X36598Y14620
X37098Y12870
X36348Y12370
X36348Y11370
X36848Y10870
X35998Y10370
X36348Y9870
X36848Y8620
X40098Y11870
X35598Y18620
X37598Y19120
X37598Y19870
X55848Y30620
X38848Y39620
X13548Y14870
X12098Y15070
T02
X43848Y14120
X44848Y14120
X44848Y11120
X43848Y11120
T03
X42848Y11120
X45848Y11120
X45848Y14120
X42848Y14120
X58098Y9870
X59098Y9870
X31848Y40370
X31848Y41370
X58348Y43870
X59348Y43870
T04
X63848Y42620
X64848Y42620
X65848Y42620
X65848Y41620
X64848Y41620
X63848Y41620
X63848Y40620
X63848Y39620
X64848Y39620
X64848Y40620
X65848Y40620
X65848Y39620
X65848Y38620
X64848Y38620
X63848Y38620
X63848Y37620
X64848Y37620
X65848Y37620
X65848Y36620
X64848Y36620
X63848Y36620
X63848Y35620
X64848Y35620
X65848Y35620
X65848Y34620
X64848Y34620
X63848Y34620
X63848Y33620
X63848Y32620
X64848Y32620
X64848Y33620
X65848Y33620
X65848Y32620
X65848Y31620
X64848Y31620
X63848Y31620
X63848Y30620
X64848Y30620
X65848Y30620
X65848Y29620
X64848Y29620
X63848Y29620
X63848Y28620
X64848Y28620
X65848Y28620
X65848Y27620
X64848Y27620
X64848Y26620
X65848Y26620
X65848Y25620
X64848Y25620
X63848Y25620
X63848Y26620
X63848Y27620
X63848Y24620
X64848Y24620
X65848Y24620
X65848Y23620
X64848Y23620
X63848Y23620
X63848Y22620
X64848Y22620
X65848Y22620
X65848Y21620
X64848Y21620
X64848Y20620
X65848Y20620
X65848Y19620
X64848Y19620
X63848Y19620
X63848Y20620
X63848Y21620
X63848Y18620
X64848Y18620
X65848Y18620
X65848Y17620
X64848Y17620
X63848Y17620
X63848Y16620
X64848Y16620
X65848Y16620
X65848Y15620
X64848Y15620
X63848Y15620
X63848Y14620
X63848Y13620
X64848Y13620
X64848Y14620
X65848Y14620
X65848Y13620
X65848Y12620
X64848Y12620
X63848Y12620
X63848Y11620
X64848Y11620
X65848Y11620
X46598Y26120
X45598Y26120
X45598Y27120
X45598Y28120
X46598Y28120
X46598Y27120
X46598Y29120
X45598Y29120
X33598Y14370
X32598Y14370
X32598Y13370
X33598Y13370
X33598Y12370
X32598Y12370
X32598Y11370
X32598Y10370
X33598Y10370
X33598Y11370
T05
X28848Y12620
X27848Y12620
X27848Y13620
X28848Y13620
X26848Y13620
X25848Y13620
X24848Y13620
X23848Y13620
X22848Y13620
X21848Y13620
X20848Y13620
X19848Y13620
X18848Y13620
X17848Y13620
X16848Y13620
X15848Y13620
X14848Y13620
X13848Y13620
X12848Y13620
X11848Y13620
X10848Y13620
X9848Y13620
X9848Y12620
X10848Y12620
X11848Y12620
X12848Y12620
X13848Y12620
X14848Y12620
X15848Y12620
X16848Y12620
X17848Y12620
X18848Y12620
X19848Y12620
X20848Y12620
X21848Y12620
X22848Y12620
X23848Y12620
X24848Y12620
X25848Y12620
X26848Y12620
X26848Y40620
X25848Y40620
X24848Y40620
X24848Y41620
X25848Y41620
X26848Y41620
X27848Y41620
X28848Y41620
X28848Y40620
X27848Y40620
X23848Y40620
X22848Y40620
X22848Y41620
X23848Y41620
X21848Y41620
X20848Y41620
X19848Y41620
X18848Y41620
X17848Y41620
X16848Y41620
X15848Y41620
X14848Y41620
X13848Y41620
X12848Y41620
X11848Y41620
X10848Y41620
X9848Y41620
X9848Y40620
X10848Y40620
X11848Y40620
X12848Y40620
X13848Y40620
X14848Y40620
X15848Y40620
X16848Y40620
X17848Y40620
X18848Y40620
X19848Y40620
X20848Y40620
X21848Y40620
X34848Y40620
X35848Y40620
X36848Y40620
X36848Y41620
X35848Y41620
X34848Y41620
X37848Y41620
X38848Y41620
X39848Y41620
X40848Y41620
X41848Y41620
X42848Y41620
X43848Y41620
X44848Y41620
X45848Y41620
X46848Y41620
X47848Y41620
X48848Y41620
X49848Y41620
X50848Y41620
X51848Y41620
X52848Y41620
X53848Y41620
X53848Y40620
X52848Y40620
X51848Y40620
X50848Y40620
X49848Y40620
X48848Y40620
X47848Y40620
X46848Y40620
X45848Y40620
X44848Y40620
X43848Y40620
X42848Y40620
X41848Y40620
X40848Y40620
X39848Y40620
X38848Y40620
X37848Y40620
T06
X7738Y40900
X7148Y42120
X6148Y42120
X5958Y40900
X5958Y38340
X7738Y38340
T07
X66848Y44620
X66848Y9620
T08
X6348Y10120
X6348Y44370
X62598Y44370
X62598Y10120
M30
