G75*
G70*
%OFA0B0*%
%FSLAX24Y24*%
%IPPOS*%
%LPD*%
%AMOC8*
5,1,8,0,0,1.08239X$1,22.5*
%
%ADD10C,0.0150*%
%ADD11C,0.0110*%
%ADD12C,0.0160*%
%ADD13C,0.0060*%
%ADD14C,0.0020*%
%ADD15C,0.0050*%
%ADD16C,0.0000*%
%ADD17C,0.0004*%
%ADD18C,0.0030*%
%ADD19C,0.0059*%
%ADD20C,0.0040*%
D10*
X034055Y028161D02*
X034055Y029012D01*
X033630Y029012D01*
X033488Y028870D01*
X033488Y028586D01*
X033630Y028445D01*
X034055Y028445D01*
X034409Y028445D02*
X034409Y028870D01*
X034551Y029012D01*
X034693Y028870D01*
X034693Y028445D01*
X034976Y028445D02*
X034976Y029012D01*
X034834Y029012D01*
X034693Y028870D01*
X035330Y028870D02*
X035330Y028586D01*
X035471Y028445D01*
X035755Y028445D01*
X035897Y028586D01*
X035897Y028870D01*
X035755Y029012D01*
X035471Y029012D01*
X035330Y028870D01*
X036250Y029012D02*
X036676Y029012D01*
X036818Y028870D01*
X036818Y028586D01*
X036676Y028445D01*
X036250Y028445D01*
X037148Y028445D02*
X037431Y028445D01*
X037290Y028445D02*
X037290Y029012D01*
X037431Y029012D01*
X037290Y029295D02*
X037290Y029437D01*
X037785Y028870D02*
X037785Y028445D01*
X037785Y028870D02*
X037927Y029012D01*
X038352Y029012D01*
X038352Y028445D01*
X038682Y028445D02*
X038966Y028445D01*
X038824Y028445D02*
X038824Y029012D01*
X038966Y029012D01*
X038824Y029295D02*
X038824Y029437D01*
X039320Y029295D02*
X039603Y029012D01*
X039887Y029295D01*
X039887Y028445D01*
X039320Y028445D02*
X039320Y029295D01*
X041161Y029295D02*
X041728Y029295D01*
X041445Y029295D02*
X041445Y028445D01*
X042365Y028870D02*
X042649Y028870D01*
X042649Y029295D02*
X042082Y029295D01*
X042649Y029295D02*
X042649Y028445D01*
X043003Y028586D02*
X043144Y028445D01*
X043428Y028445D01*
X043570Y028586D01*
X043570Y029153D01*
X043428Y029295D01*
X043144Y029295D01*
X043003Y029153D01*
X033135Y029012D02*
X033135Y028586D01*
X032993Y028445D01*
X032567Y028445D01*
X032567Y029012D01*
X032214Y029012D02*
X031930Y029012D01*
X032072Y029153D02*
X032072Y028586D01*
X031930Y028445D01*
X031600Y028586D02*
X031600Y028870D01*
X031458Y029012D01*
X031175Y029012D01*
X031033Y028870D01*
X031033Y028728D01*
X031600Y028728D01*
X031600Y028586D02*
X031458Y028445D01*
X031175Y028445D01*
X030679Y028445D02*
X030679Y029012D01*
X030396Y029012D02*
X030679Y028728D01*
X030396Y029012D02*
X030254Y029012D01*
X028991Y029295D02*
X028991Y028445D01*
X028991Y028728D02*
X028566Y028728D01*
X028424Y028870D01*
X028424Y029153D01*
X028566Y029295D01*
X028991Y029295D01*
X028070Y029012D02*
X028070Y028445D01*
X028070Y028728D02*
X027787Y029012D01*
X027645Y029012D01*
X027303Y028870D02*
X027303Y028586D01*
X027161Y028445D01*
X026878Y028445D01*
X026736Y028586D01*
X026736Y028870D01*
X026878Y029012D01*
X027161Y029012D01*
X027303Y028870D01*
X026382Y028870D02*
X026382Y028586D01*
X026241Y028445D01*
X025815Y028445D01*
X025462Y028586D02*
X025462Y028870D01*
X025320Y029012D01*
X025036Y029012D01*
X024895Y028870D01*
X024895Y028728D01*
X025462Y028728D01*
X025462Y028586D02*
X025320Y028445D01*
X025036Y028445D01*
X024541Y028445D02*
X024116Y028445D01*
X023974Y028586D01*
X024116Y028728D01*
X024399Y028728D01*
X024541Y028870D01*
X024399Y029012D01*
X023974Y029012D01*
X023620Y028870D02*
X023478Y029012D01*
X023053Y029012D01*
X023195Y028728D02*
X023478Y028728D01*
X023620Y028870D01*
X023620Y028445D02*
X023195Y028445D01*
X023053Y028586D01*
X023195Y028728D01*
X022699Y028870D02*
X022699Y028586D01*
X022558Y028445D01*
X022274Y028445D01*
X022132Y028586D01*
X022132Y028870D01*
X022274Y029012D01*
X022558Y029012D01*
X022699Y028870D01*
X021779Y029012D02*
X021779Y028445D01*
X021779Y028728D02*
X021495Y029012D01*
X021353Y029012D01*
X020091Y028870D02*
X019665Y028870D01*
X019524Y028728D01*
X019524Y028586D01*
X019665Y028445D01*
X020091Y028445D01*
X020091Y029295D01*
X019665Y029295D01*
X019524Y029153D01*
X019524Y029012D01*
X019665Y028870D01*
X019170Y028870D02*
X019170Y028586D01*
X019028Y028445D01*
X018745Y028445D01*
X018603Y028586D01*
X018603Y028870D01*
X018745Y029012D01*
X019028Y029012D01*
X019170Y028870D01*
X018249Y028586D02*
X018107Y028728D01*
X017682Y028728D01*
X017682Y028870D02*
X017682Y028445D01*
X018107Y028445D01*
X018249Y028586D01*
X018107Y029012D02*
X017824Y029012D01*
X017682Y028870D01*
X017328Y029012D02*
X017328Y028445D01*
X017328Y028728D02*
X017045Y029012D01*
X016903Y029012D01*
X016561Y028870D02*
X016419Y029012D01*
X015994Y029012D01*
X015994Y029295D02*
X015994Y028445D01*
X016419Y028445D01*
X016561Y028586D01*
X016561Y028870D01*
X014720Y029153D02*
X014578Y029295D01*
X014294Y029295D01*
X014153Y029153D01*
X014153Y029012D01*
X014294Y028870D01*
X014153Y028728D01*
X014153Y028586D01*
X014294Y028445D01*
X014578Y028445D01*
X014720Y028586D01*
X014436Y028870D02*
X014294Y028870D01*
X012878Y028728D02*
X012453Y028728D01*
X012311Y028870D01*
X012311Y029153D01*
X012453Y029295D01*
X012878Y029295D01*
X012878Y028445D01*
X012595Y028728D02*
X012311Y028445D01*
X011957Y028586D02*
X011957Y028870D01*
X011816Y029012D01*
X011532Y029012D01*
X011390Y028870D01*
X011390Y028728D01*
X011957Y028728D01*
X011957Y028586D02*
X011816Y028445D01*
X011532Y028445D01*
X011037Y029012D02*
X010753Y028445D01*
X010470Y029012D01*
X009195Y029153D02*
X009195Y028586D01*
X009053Y028445D01*
X008770Y028445D01*
X008628Y028586D01*
X008628Y029153D02*
X008770Y029295D01*
X009053Y029295D01*
X009195Y029153D01*
X025815Y029012D02*
X026241Y029012D01*
X026382Y028870D01*
D11*
X011621Y043475D02*
X011227Y043475D01*
X011424Y043475D02*
X011424Y044065D01*
X011621Y043868D01*
X010977Y043967D02*
X010878Y044065D01*
X010681Y044065D01*
X010583Y043967D01*
X010583Y043868D01*
X010681Y043770D01*
X010583Y043671D01*
X010583Y043573D01*
X010681Y043475D01*
X010878Y043475D01*
X010977Y043573D01*
X010780Y043770D02*
X010681Y043770D01*
X010332Y043967D02*
X010234Y044065D01*
X010037Y044065D01*
X009938Y043967D01*
X009938Y043868D01*
X010037Y043770D01*
X009938Y043671D01*
X009938Y043573D01*
X010037Y043475D01*
X010234Y043475D01*
X010332Y043573D01*
X010135Y043770D02*
X010037Y043770D01*
X009687Y043573D02*
X009294Y043967D01*
X009294Y044065D01*
X009687Y044065D01*
X009687Y043573D02*
X009687Y043475D01*
D12*
X008748Y043170D02*
X008748Y044370D01*
X011898Y044370D01*
X011898Y043170D01*
X008748Y043170D01*
D13*
X029098Y043250D02*
X029098Y043670D01*
X029098Y044070D01*
X029098Y044490D01*
X029100Y044513D01*
X029105Y044536D01*
X029114Y044558D01*
X029127Y044578D01*
X029142Y044596D01*
X029160Y044611D01*
X029180Y044624D01*
X029202Y044633D01*
X029225Y044638D01*
X029248Y044640D01*
X029098Y044070D02*
X029125Y044068D01*
X029152Y044063D01*
X029178Y044053D01*
X029202Y044041D01*
X029224Y044025D01*
X029244Y044007D01*
X029261Y043985D01*
X029276Y043962D01*
X029286Y043937D01*
X029294Y043911D01*
X029298Y043884D01*
X029298Y043856D01*
X029294Y043829D01*
X029286Y043803D01*
X029276Y043778D01*
X029261Y043755D01*
X029244Y043733D01*
X029224Y043715D01*
X029202Y043699D01*
X029178Y043687D01*
X029152Y043677D01*
X029125Y043672D01*
X029098Y043670D01*
X029098Y043250D02*
X029100Y043227D01*
X029105Y043204D01*
X029114Y043182D01*
X029127Y043162D01*
X029142Y043144D01*
X029160Y043129D01*
X029180Y043116D01*
X029202Y043107D01*
X029225Y043102D01*
X029248Y043100D01*
X032948Y043100D02*
X032971Y043102D01*
X032994Y043107D01*
X033016Y043116D01*
X033036Y043129D01*
X033054Y043144D01*
X033069Y043162D01*
X033082Y043182D01*
X033091Y043204D01*
X033096Y043227D01*
X033098Y043250D01*
X033098Y044490D01*
X033096Y044513D01*
X033091Y044536D01*
X033082Y044558D01*
X033069Y044578D01*
X033054Y044596D01*
X033036Y044611D01*
X033016Y044624D01*
X032994Y044633D01*
X032971Y044638D01*
X032948Y044640D01*
X039038Y036190D02*
X039038Y035370D01*
X039038Y034370D01*
X039038Y033550D01*
X039040Y033527D01*
X039045Y033504D01*
X039054Y033482D01*
X039067Y033462D01*
X039082Y033444D01*
X039100Y033429D01*
X039120Y033416D01*
X039142Y033407D01*
X039165Y033402D01*
X039188Y033400D01*
X039038Y034370D02*
X039082Y034372D01*
X039125Y034378D01*
X039167Y034387D01*
X039209Y034400D01*
X039249Y034417D01*
X039288Y034437D01*
X039325Y034460D01*
X039359Y034487D01*
X039392Y034516D01*
X039421Y034549D01*
X039448Y034583D01*
X039471Y034620D01*
X039491Y034659D01*
X039508Y034699D01*
X039521Y034741D01*
X039530Y034783D01*
X039536Y034826D01*
X039538Y034870D01*
X039536Y034914D01*
X039530Y034957D01*
X039521Y034999D01*
X039508Y035041D01*
X039491Y035081D01*
X039471Y035120D01*
X039448Y035157D01*
X039421Y035191D01*
X039392Y035224D01*
X039359Y035253D01*
X039325Y035280D01*
X039288Y035303D01*
X039249Y035323D01*
X039209Y035340D01*
X039167Y035353D01*
X039125Y035362D01*
X039082Y035368D01*
X039038Y035370D01*
X039038Y036190D02*
X039040Y036213D01*
X039045Y036236D01*
X039054Y036258D01*
X039067Y036278D01*
X039082Y036296D01*
X039100Y036311D01*
X039120Y036324D01*
X039142Y036333D01*
X039165Y036338D01*
X039188Y036340D01*
X044008Y036340D02*
X044031Y036338D01*
X044054Y036333D01*
X044076Y036324D01*
X044096Y036311D01*
X044114Y036296D01*
X044129Y036278D01*
X044142Y036258D01*
X044151Y036236D01*
X044156Y036213D01*
X044158Y036190D01*
X044158Y033550D01*
X044156Y033527D01*
X044151Y033504D01*
X044142Y033482D01*
X044129Y033462D01*
X044114Y033444D01*
X044096Y033429D01*
X044076Y033416D01*
X044054Y033407D01*
X044031Y033402D01*
X044008Y033400D01*
X045038Y033550D02*
X045038Y034370D01*
X045038Y035370D01*
X045038Y036190D01*
X045040Y036213D01*
X045045Y036236D01*
X045054Y036258D01*
X045067Y036278D01*
X045082Y036296D01*
X045100Y036311D01*
X045120Y036324D01*
X045142Y036333D01*
X045165Y036338D01*
X045188Y036340D01*
X045038Y035370D02*
X045082Y035368D01*
X045125Y035362D01*
X045167Y035353D01*
X045209Y035340D01*
X045249Y035323D01*
X045288Y035303D01*
X045325Y035280D01*
X045359Y035253D01*
X045392Y035224D01*
X045421Y035191D01*
X045448Y035157D01*
X045471Y035120D01*
X045491Y035081D01*
X045508Y035041D01*
X045521Y034999D01*
X045530Y034957D01*
X045536Y034914D01*
X045538Y034870D01*
X045536Y034826D01*
X045530Y034783D01*
X045521Y034741D01*
X045508Y034699D01*
X045491Y034659D01*
X045471Y034620D01*
X045448Y034583D01*
X045421Y034549D01*
X045392Y034516D01*
X045359Y034487D01*
X045325Y034460D01*
X045288Y034437D01*
X045249Y034417D01*
X045209Y034400D01*
X045167Y034387D01*
X045125Y034378D01*
X045082Y034372D01*
X045038Y034370D01*
X045038Y033550D02*
X045040Y033527D01*
X045045Y033504D01*
X045054Y033482D01*
X045067Y033462D01*
X045082Y033444D01*
X045100Y033429D01*
X045120Y033416D01*
X045142Y033407D01*
X045165Y033402D01*
X045188Y033400D01*
X050008Y033400D02*
X050031Y033402D01*
X050054Y033407D01*
X050076Y033416D01*
X050096Y033429D01*
X050114Y033444D01*
X050129Y033462D01*
X050142Y033482D01*
X050151Y033504D01*
X050156Y033527D01*
X050158Y033550D01*
X050158Y036190D01*
X050156Y036213D01*
X050151Y036236D01*
X050142Y036258D01*
X050129Y036278D01*
X050114Y036296D01*
X050096Y036311D01*
X050076Y036324D01*
X050054Y036333D01*
X050031Y036338D01*
X050008Y036340D01*
X050448Y043100D02*
X050471Y043102D01*
X050494Y043107D01*
X050516Y043116D01*
X050536Y043129D01*
X050554Y043144D01*
X050569Y043162D01*
X050582Y043182D01*
X050591Y043204D01*
X050596Y043227D01*
X050598Y043250D01*
X050598Y044490D01*
X050596Y044513D01*
X050591Y044536D01*
X050582Y044558D01*
X050569Y044578D01*
X050554Y044596D01*
X050536Y044611D01*
X050516Y044624D01*
X050494Y044633D01*
X050471Y044638D01*
X050448Y044640D01*
X046748Y044640D02*
X046725Y044638D01*
X046702Y044633D01*
X046680Y044624D01*
X046660Y044611D01*
X046642Y044596D01*
X046627Y044578D01*
X046614Y044558D01*
X046605Y044536D01*
X046600Y044513D01*
X046598Y044490D01*
X046598Y044070D01*
X046598Y043670D01*
X046598Y043250D01*
X046600Y043227D01*
X046605Y043204D01*
X046614Y043182D01*
X046627Y043162D01*
X046642Y043144D01*
X046660Y043129D01*
X046680Y043116D01*
X046702Y043107D01*
X046725Y043102D01*
X046748Y043100D01*
X046598Y043670D02*
X046625Y043672D01*
X046652Y043677D01*
X046678Y043687D01*
X046702Y043699D01*
X046724Y043715D01*
X046744Y043733D01*
X046761Y043755D01*
X046776Y043778D01*
X046786Y043803D01*
X046794Y043829D01*
X046798Y043856D01*
X046798Y043884D01*
X046794Y043911D01*
X046786Y043937D01*
X046776Y043962D01*
X046761Y043985D01*
X046744Y044007D01*
X046724Y044025D01*
X046702Y044041D01*
X046678Y044053D01*
X046652Y044063D01*
X046625Y044068D01*
X046598Y044070D01*
X057598Y018990D02*
X057598Y017750D01*
X057600Y017727D01*
X057605Y017704D01*
X057614Y017682D01*
X057627Y017662D01*
X057642Y017644D01*
X057660Y017629D01*
X057680Y017616D01*
X057702Y017607D01*
X057725Y017602D01*
X057748Y017600D01*
X057598Y018990D02*
X057600Y019013D01*
X057605Y019036D01*
X057614Y019058D01*
X057627Y019078D01*
X057642Y019096D01*
X057660Y019111D01*
X057680Y019124D01*
X057702Y019133D01*
X057725Y019138D01*
X057748Y019140D01*
X061448Y019140D02*
X061471Y019138D01*
X061494Y019133D01*
X061516Y019124D01*
X061536Y019111D01*
X061554Y019096D01*
X061569Y019078D01*
X061582Y019058D01*
X061591Y019036D01*
X061596Y019013D01*
X061598Y018990D01*
X061598Y018570D01*
X061598Y018170D01*
X061598Y017750D01*
X061596Y017727D01*
X061591Y017704D01*
X061582Y017682D01*
X061569Y017662D01*
X061554Y017644D01*
X061536Y017629D01*
X061516Y017616D01*
X061494Y017607D01*
X061471Y017602D01*
X061448Y017600D01*
X061598Y018170D02*
X061571Y018172D01*
X061544Y018177D01*
X061518Y018187D01*
X061494Y018199D01*
X061472Y018215D01*
X061452Y018233D01*
X061435Y018255D01*
X061420Y018278D01*
X061410Y018303D01*
X061402Y018329D01*
X061398Y018356D01*
X061398Y018384D01*
X061402Y018411D01*
X061410Y018437D01*
X061420Y018462D01*
X061435Y018485D01*
X061452Y018507D01*
X061472Y018525D01*
X061494Y018541D01*
X061518Y018553D01*
X061544Y018563D01*
X061571Y018568D01*
X061598Y018570D01*
X056658Y016190D02*
X056658Y013550D01*
X056656Y013527D01*
X056651Y013504D01*
X056642Y013482D01*
X056629Y013462D01*
X056614Y013444D01*
X056596Y013429D01*
X056576Y013416D01*
X056554Y013407D01*
X056531Y013402D01*
X056508Y013400D01*
X056658Y016190D02*
X056656Y016213D01*
X056651Y016236D01*
X056642Y016258D01*
X056629Y016278D01*
X056614Y016296D01*
X056596Y016311D01*
X056576Y016324D01*
X056554Y016333D01*
X056531Y016338D01*
X056508Y016340D01*
X051688Y016340D02*
X051665Y016338D01*
X051642Y016333D01*
X051620Y016324D01*
X051600Y016311D01*
X051582Y016296D01*
X051567Y016278D01*
X051554Y016258D01*
X051545Y016236D01*
X051540Y016213D01*
X051538Y016190D01*
X051538Y015370D01*
X051538Y014370D01*
X051538Y013550D01*
X051540Y013527D01*
X051545Y013504D01*
X051554Y013482D01*
X051567Y013462D01*
X051582Y013444D01*
X051600Y013429D01*
X051620Y013416D01*
X051642Y013407D01*
X051665Y013402D01*
X051688Y013400D01*
X051538Y014370D02*
X051582Y014372D01*
X051625Y014378D01*
X051667Y014387D01*
X051709Y014400D01*
X051749Y014417D01*
X051788Y014437D01*
X051825Y014460D01*
X051859Y014487D01*
X051892Y014516D01*
X051921Y014549D01*
X051948Y014583D01*
X051971Y014620D01*
X051991Y014659D01*
X052008Y014699D01*
X052021Y014741D01*
X052030Y014783D01*
X052036Y014826D01*
X052038Y014870D01*
X052036Y014914D01*
X052030Y014957D01*
X052021Y014999D01*
X052008Y015041D01*
X051991Y015081D01*
X051971Y015120D01*
X051948Y015157D01*
X051921Y015191D01*
X051892Y015224D01*
X051859Y015253D01*
X051825Y015280D01*
X051788Y015303D01*
X051749Y015323D01*
X051709Y015340D01*
X051667Y015353D01*
X051625Y015362D01*
X051582Y015368D01*
X051538Y015370D01*
D14*
X051548Y016200D02*
X056648Y016200D01*
X057598Y017740D02*
X061598Y017740D01*
X050148Y036200D02*
X045048Y036200D01*
X044148Y036200D02*
X039048Y036200D01*
X033098Y044500D02*
X029098Y044500D01*
X046598Y044500D02*
X050598Y044500D01*
D15*
X046217Y043764D02*
X046217Y043464D01*
X046142Y043389D01*
X045991Y043389D01*
X045916Y043464D01*
X045756Y043389D02*
X045456Y043389D01*
X045606Y043389D02*
X045606Y043839D01*
X045756Y043689D01*
X045916Y043764D02*
X045991Y043839D01*
X046142Y043839D01*
X046217Y043764D01*
X045296Y043764D02*
X045221Y043839D01*
X045071Y043839D01*
X044996Y043764D01*
X044996Y043689D01*
X045296Y043389D01*
X044996Y043389D01*
X044373Y043445D02*
X044148Y043445D01*
X044073Y043520D01*
X044073Y043670D01*
X044148Y043745D01*
X044373Y043745D01*
X044373Y043295D01*
X044223Y043445D02*
X044073Y043295D01*
X043913Y043370D02*
X043837Y043295D01*
X043687Y043295D01*
X043612Y043370D01*
X043612Y043520D01*
X043687Y043595D01*
X043762Y043595D01*
X043913Y043520D01*
X043913Y043745D01*
X043612Y043745D01*
X043687Y044345D02*
X043612Y044420D01*
X043612Y044495D01*
X043687Y044570D01*
X043913Y044570D01*
X043913Y044420D01*
X043837Y044345D01*
X043687Y044345D01*
X043913Y044570D02*
X043762Y044720D01*
X043612Y044795D01*
X044073Y044720D02*
X044073Y044570D01*
X044148Y044495D01*
X044373Y044495D01*
X044223Y044495D02*
X044073Y044345D01*
X044373Y044345D02*
X044373Y044795D01*
X044148Y044795D01*
X044073Y044720D01*
X044620Y045795D02*
X044620Y046245D01*
X044845Y046020D01*
X044545Y046020D01*
X045005Y045795D02*
X045306Y045795D01*
X045156Y045795D02*
X045156Y046245D01*
X045306Y046095D01*
X045466Y046170D02*
X045541Y046245D01*
X045691Y046245D01*
X045766Y046170D01*
X045766Y045870D01*
X045691Y045795D01*
X045541Y045795D01*
X045466Y045870D01*
X045923Y045795D02*
X046073Y045795D01*
X045998Y045795D02*
X045998Y046245D01*
X046073Y046245D02*
X045923Y046245D01*
X038761Y045345D02*
X038611Y045345D01*
X038686Y045345D02*
X038686Y044895D01*
X038761Y044895D02*
X038611Y044895D01*
X038454Y044970D02*
X038379Y044895D01*
X038229Y044895D01*
X038154Y044970D01*
X037994Y044895D02*
X037693Y044895D01*
X037844Y044895D02*
X037844Y045345D01*
X037994Y045195D01*
X038154Y045270D02*
X038229Y045345D01*
X038379Y045345D01*
X038454Y045270D01*
X038454Y044970D01*
X038413Y044429D02*
X037783Y044429D01*
X037533Y044895D02*
X037233Y045195D01*
X037233Y045270D01*
X037308Y045345D01*
X037458Y045345D01*
X037533Y045270D01*
X037533Y044895D02*
X037233Y044895D01*
X037783Y043310D02*
X038413Y043310D01*
X036567Y042714D02*
X036567Y042414D01*
X036492Y042339D01*
X036341Y042339D01*
X036266Y042414D01*
X036106Y042339D02*
X035806Y042339D01*
X035956Y042339D02*
X035956Y042789D01*
X036106Y042639D01*
X036266Y042714D02*
X036341Y042789D01*
X036492Y042789D01*
X036567Y042714D01*
X035646Y042714D02*
X035571Y042789D01*
X035421Y042789D01*
X035346Y042714D01*
X035646Y042414D01*
X035571Y042339D01*
X035421Y042339D01*
X035346Y042414D01*
X035346Y042714D01*
X035646Y042714D02*
X035646Y042414D01*
X034173Y040245D02*
X033948Y040245D01*
X033873Y040170D01*
X033873Y040020D01*
X033948Y039945D01*
X034173Y039945D01*
X034023Y039945D02*
X033873Y039795D01*
X033713Y040020D02*
X033412Y040020D01*
X033487Y040245D02*
X033713Y040020D01*
X033487Y039795D02*
X033487Y040245D01*
X034173Y040245D02*
X034173Y039795D01*
X032394Y039445D02*
X032394Y038995D01*
X032394Y039145D02*
X032168Y039145D01*
X032093Y039220D01*
X032093Y039370D01*
X032168Y039445D01*
X032394Y039445D01*
X032244Y039145D02*
X032093Y038995D01*
X031933Y039070D02*
X031858Y038995D01*
X031708Y038995D01*
X031633Y039070D01*
X031633Y039145D01*
X031708Y039220D01*
X031783Y039220D01*
X031708Y039220D02*
X031633Y039295D01*
X031633Y039370D01*
X031708Y039445D01*
X031858Y039445D01*
X031933Y039370D01*
X030123Y039795D02*
X030123Y040245D01*
X029898Y040245D01*
X029823Y040170D01*
X029823Y040020D01*
X029898Y039945D01*
X030123Y039945D01*
X029973Y039945D02*
X029823Y039795D01*
X029663Y039795D02*
X029362Y040095D01*
X029362Y040170D01*
X029437Y040245D01*
X029587Y040245D01*
X029663Y040170D01*
X029663Y039795D02*
X029362Y039795D01*
X027692Y042839D02*
X027541Y042839D01*
X027466Y042914D01*
X027306Y042839D02*
X027006Y042839D01*
X027156Y042839D02*
X027156Y043289D01*
X027306Y043139D01*
X027466Y043214D02*
X027541Y043289D01*
X027692Y043289D01*
X027767Y043214D01*
X027767Y042914D01*
X027692Y042839D01*
X026846Y042839D02*
X026546Y042839D01*
X026696Y042839D02*
X026696Y043289D01*
X026846Y043139D01*
X027120Y044045D02*
X027270Y044045D01*
X027345Y044120D01*
X027505Y044045D02*
X027806Y044045D01*
X027656Y044045D02*
X027656Y044495D01*
X027806Y044345D01*
X027966Y044420D02*
X028041Y044495D01*
X028191Y044495D01*
X028266Y044420D01*
X028266Y044120D01*
X028191Y044045D01*
X028041Y044045D01*
X027966Y044120D01*
X028423Y044045D02*
X028573Y044045D01*
X028498Y044045D02*
X028498Y044495D01*
X028573Y044495D02*
X028423Y044495D01*
X027345Y044420D02*
X027270Y044495D01*
X027120Y044495D01*
X027045Y044420D01*
X027045Y044345D01*
X027120Y044270D01*
X027045Y044195D01*
X027045Y044120D01*
X027120Y044045D01*
X027120Y044270D02*
X027195Y044270D01*
X039233Y038070D02*
X039533Y037770D01*
X039458Y037695D01*
X039308Y037695D01*
X039233Y037770D01*
X039233Y038070D01*
X039308Y038145D01*
X039458Y038145D01*
X039533Y038070D01*
X039533Y037770D01*
X039693Y037695D02*
X039994Y037695D01*
X039844Y037695D02*
X039844Y038145D01*
X039994Y037995D01*
X040154Y038070D02*
X040229Y038145D01*
X040379Y038145D01*
X040454Y038070D01*
X040454Y037770D01*
X040379Y037695D01*
X040229Y037695D01*
X040154Y037770D01*
X040611Y037695D02*
X040761Y037695D01*
X040686Y037695D02*
X040686Y038145D01*
X040761Y038145D02*
X040611Y038145D01*
X045233Y037695D02*
X045533Y037695D01*
X045383Y037695D02*
X045383Y038145D01*
X045533Y037995D01*
X045693Y037695D02*
X045994Y037695D01*
X045844Y037695D02*
X045844Y038145D01*
X045994Y037995D01*
X046154Y038070D02*
X046229Y038145D01*
X046379Y038145D01*
X046454Y038070D01*
X046454Y037770D01*
X046379Y037695D01*
X046229Y037695D01*
X046154Y037770D01*
X046611Y037695D02*
X046761Y037695D01*
X046686Y037695D02*
X046686Y038145D01*
X046761Y038145D02*
X046611Y038145D01*
X053089Y034450D02*
X053390Y034450D01*
X053239Y034450D02*
X053239Y034900D01*
X053390Y034750D01*
X053550Y034675D02*
X053850Y034675D01*
X053625Y034900D01*
X053625Y034450D01*
X054010Y034525D02*
X054085Y034450D01*
X054235Y034450D01*
X054310Y034525D01*
X054310Y034825D01*
X054235Y034900D01*
X054085Y034900D01*
X054010Y034825D01*
X056339Y035375D02*
X056414Y035300D01*
X056565Y035300D01*
X056640Y035375D01*
X056640Y035450D01*
X056565Y035525D01*
X056414Y035525D01*
X056339Y035450D01*
X056339Y035375D01*
X056414Y035525D02*
X056339Y035600D01*
X056339Y035675D01*
X056414Y035750D01*
X056565Y035750D01*
X056640Y035675D01*
X056640Y035600D01*
X056565Y035525D01*
X056800Y035450D02*
X056800Y035375D01*
X056875Y035300D01*
X057025Y035300D01*
X057100Y035375D01*
X057260Y035375D02*
X057335Y035300D01*
X057485Y035300D01*
X057560Y035375D01*
X057560Y035675D01*
X057485Y035750D01*
X057335Y035750D01*
X057260Y035675D01*
X057100Y035675D02*
X057025Y035750D01*
X056875Y035750D01*
X056800Y035675D01*
X056800Y035600D01*
X056875Y035525D01*
X056800Y035450D01*
X056875Y035525D02*
X056950Y035525D01*
X057990Y038900D02*
X057990Y038975D01*
X057689Y039275D01*
X057689Y039350D01*
X057990Y039350D01*
X058150Y039275D02*
X058150Y039200D01*
X058225Y039125D01*
X058150Y039050D01*
X058150Y038975D01*
X058225Y038900D01*
X058375Y038900D01*
X058450Y038975D01*
X058610Y038975D02*
X058685Y038900D01*
X058835Y038900D01*
X058910Y038975D01*
X058910Y039275D01*
X058835Y039350D01*
X058685Y039350D01*
X058610Y039275D01*
X058450Y039275D02*
X058375Y039350D01*
X058225Y039350D01*
X058150Y039275D01*
X058225Y039125D02*
X058300Y039125D01*
X054235Y031700D02*
X054310Y031625D01*
X054310Y031325D01*
X054235Y031250D01*
X054085Y031250D01*
X054010Y031325D01*
X053850Y031475D02*
X053550Y031475D01*
X053390Y031325D02*
X053390Y031625D01*
X053315Y031700D01*
X053164Y031700D01*
X053089Y031625D01*
X053390Y031325D01*
X053315Y031250D01*
X053164Y031250D01*
X053089Y031325D01*
X053089Y031625D01*
X053625Y031700D02*
X053625Y031250D01*
X053850Y031475D02*
X053625Y031700D01*
X054010Y031625D02*
X054085Y031700D01*
X054235Y031700D01*
X057795Y029845D02*
X057945Y029770D01*
X058095Y029620D01*
X057870Y029620D01*
X057795Y029545D01*
X057795Y029470D01*
X057870Y029395D01*
X058020Y029395D01*
X058095Y029470D01*
X058095Y029620D01*
X058255Y029695D02*
X058255Y029770D01*
X058330Y029845D01*
X058481Y029845D01*
X058556Y029770D01*
X058716Y029770D02*
X058791Y029845D01*
X058941Y029845D01*
X059016Y029770D01*
X059016Y029470D01*
X058941Y029395D01*
X058791Y029395D01*
X058716Y029470D01*
X058556Y029395D02*
X058255Y029695D01*
X058255Y029395D02*
X058556Y029395D01*
X059173Y029395D02*
X059323Y029395D01*
X059248Y029395D02*
X059248Y029845D01*
X059323Y029845D02*
X059173Y029845D01*
X060283Y029310D02*
X060913Y029310D01*
X060913Y030429D02*
X060283Y030429D01*
X061996Y030764D02*
X062296Y030764D01*
X062071Y030989D01*
X062071Y030539D01*
X062456Y030614D02*
X062531Y030539D01*
X062681Y030539D01*
X062756Y030614D01*
X062916Y030614D02*
X062991Y030539D01*
X063142Y030539D01*
X063217Y030614D01*
X063217Y030914D01*
X063142Y030989D01*
X062991Y030989D01*
X062916Y030914D01*
X062756Y030914D02*
X062681Y030989D01*
X062531Y030989D01*
X062456Y030914D01*
X062456Y030839D01*
X062531Y030764D01*
X062456Y030689D01*
X062456Y030614D01*
X062531Y030764D02*
X062606Y030764D01*
X057892Y025189D02*
X057967Y025114D01*
X057967Y024814D01*
X057892Y024739D01*
X057741Y024739D01*
X057666Y024814D01*
X057506Y024814D02*
X057431Y024739D01*
X057281Y024739D01*
X057206Y024814D01*
X057206Y024889D01*
X057281Y024964D01*
X057356Y024964D01*
X057281Y024964D02*
X057206Y025039D01*
X057206Y025114D01*
X057281Y025189D01*
X057431Y025189D01*
X057506Y025114D01*
X057666Y025114D02*
X057741Y025189D01*
X057892Y025189D01*
X057046Y024964D02*
X057046Y024814D01*
X056971Y024739D01*
X056821Y024739D01*
X056746Y024814D01*
X056746Y024889D01*
X056821Y024964D01*
X057046Y024964D01*
X056896Y025114D01*
X056746Y025189D01*
X054042Y021639D02*
X053891Y021639D01*
X053816Y021564D01*
X053656Y021414D02*
X053356Y021414D01*
X053196Y021264D02*
X053121Y021189D01*
X052971Y021189D01*
X052896Y021264D01*
X052896Y021339D01*
X052971Y021414D01*
X053046Y021414D01*
X052971Y021414D02*
X052896Y021489D01*
X052896Y021564D01*
X052971Y021639D01*
X053121Y021639D01*
X053196Y021564D01*
X053431Y021639D02*
X053656Y021414D01*
X053816Y021264D02*
X053891Y021189D01*
X054042Y021189D01*
X054117Y021264D01*
X054117Y021564D01*
X054042Y021639D01*
X053431Y021639D02*
X053431Y021189D01*
X049173Y023045D02*
X049173Y023495D01*
X048948Y023495D01*
X048873Y023420D01*
X048873Y023270D01*
X048948Y023195D01*
X049173Y023195D01*
X049023Y023195D02*
X048873Y023045D01*
X048713Y023045D02*
X048412Y023045D01*
X048562Y023045D02*
X048562Y023495D01*
X048713Y023345D01*
X041367Y024364D02*
X041292Y024289D01*
X041141Y024289D01*
X041066Y024364D01*
X040906Y024364D02*
X040831Y024289D01*
X040681Y024289D01*
X040606Y024364D01*
X040606Y024439D01*
X040681Y024514D01*
X040756Y024514D01*
X040681Y024514D02*
X040606Y024589D01*
X040606Y024664D01*
X040681Y024739D01*
X040831Y024739D01*
X040906Y024664D01*
X041066Y024664D02*
X041141Y024739D01*
X041292Y024739D01*
X041367Y024664D01*
X041367Y024364D01*
X034967Y024114D02*
X034967Y023814D01*
X034892Y023739D01*
X034741Y023739D01*
X034666Y023814D01*
X034506Y023739D02*
X034206Y024039D01*
X034206Y024114D01*
X034281Y024189D01*
X034431Y024189D01*
X034506Y024114D01*
X034666Y024114D02*
X034741Y024189D01*
X034892Y024189D01*
X034967Y024114D01*
X034506Y023739D02*
X034206Y023739D01*
X034046Y023739D02*
X033746Y024039D01*
X033746Y024114D01*
X033821Y024189D01*
X033971Y024189D01*
X034046Y024114D01*
X034046Y023739D02*
X033746Y023739D01*
X031140Y020189D02*
X030915Y019964D01*
X030915Y020264D01*
X030690Y020189D02*
X031140Y020189D01*
X031065Y019804D02*
X031140Y019729D01*
X031140Y019579D01*
X031065Y019504D01*
X031065Y019344D02*
X031140Y019268D01*
X031140Y019118D01*
X031065Y019043D01*
X030765Y019043D01*
X030690Y019118D01*
X030690Y019268D01*
X030765Y019344D01*
X030690Y019504D02*
X030990Y019804D01*
X031065Y019804D01*
X030690Y019804D02*
X030690Y019504D01*
X030210Y018975D02*
X030210Y018675D01*
X030135Y018600D01*
X029985Y018600D01*
X029910Y018675D01*
X029750Y018600D02*
X029450Y018600D01*
X029600Y018600D02*
X029600Y019050D01*
X029750Y018900D01*
X029910Y018975D02*
X029985Y019050D01*
X030135Y019050D01*
X030210Y018975D01*
X029290Y018975D02*
X029215Y019050D01*
X029064Y019050D01*
X028989Y018975D01*
X028989Y018675D01*
X029064Y018600D01*
X029215Y018600D01*
X029290Y018675D01*
X029215Y018825D02*
X028989Y018825D01*
X029215Y018825D02*
X029290Y018900D01*
X029290Y018975D01*
X022623Y023695D02*
X022623Y024145D01*
X022398Y024145D01*
X022323Y024070D01*
X022323Y023920D01*
X022398Y023845D01*
X022623Y023845D01*
X022473Y023845D02*
X022323Y023695D01*
X022163Y023770D02*
X022163Y023845D01*
X022087Y023920D01*
X021937Y023920D01*
X021862Y023845D01*
X021862Y023770D01*
X021937Y023695D01*
X022087Y023695D01*
X022163Y023770D01*
X022087Y023920D02*
X022163Y023995D01*
X022163Y024070D01*
X022087Y024145D01*
X021937Y024145D01*
X021862Y024070D01*
X021862Y023995D01*
X021937Y023920D01*
X021090Y020364D02*
X021090Y020064D01*
X020865Y020064D01*
X020940Y020214D01*
X020940Y020289D01*
X020865Y020364D01*
X020715Y020364D01*
X020640Y020289D01*
X020640Y020139D01*
X020715Y020064D01*
X020640Y019904D02*
X020640Y019604D01*
X020940Y019904D01*
X021015Y019904D01*
X021090Y019829D01*
X021090Y019679D01*
X021015Y019604D01*
X021015Y019444D02*
X021090Y019368D01*
X021090Y019218D01*
X021015Y019143D01*
X020715Y019143D01*
X020640Y019218D01*
X020640Y019368D01*
X020715Y019444D01*
X020160Y018975D02*
X020160Y018675D01*
X020085Y018600D01*
X019935Y018600D01*
X019860Y018675D01*
X019700Y018600D02*
X019400Y018600D01*
X019550Y018600D02*
X019550Y019050D01*
X019700Y018900D01*
X019860Y018975D02*
X019935Y019050D01*
X020085Y019050D01*
X020160Y018975D01*
X019240Y018975D02*
X019240Y018900D01*
X019165Y018825D01*
X019014Y018825D01*
X018939Y018750D01*
X018939Y018675D01*
X019014Y018600D01*
X019165Y018600D01*
X019240Y018675D01*
X019240Y018750D01*
X019165Y018825D01*
X019014Y018825D02*
X018939Y018900D01*
X018939Y018975D01*
X019014Y019050D01*
X019165Y019050D01*
X019240Y018975D01*
X017694Y014945D02*
X017468Y014945D01*
X017393Y014870D01*
X017393Y014720D01*
X017468Y014645D01*
X017694Y014645D01*
X017694Y014495D02*
X017694Y014945D01*
X017544Y014645D02*
X017393Y014495D01*
X017233Y014495D02*
X017233Y014570D01*
X016933Y014870D01*
X016933Y014945D01*
X017233Y014945D01*
X017140Y010500D02*
X016839Y010500D01*
X016839Y010425D01*
X017140Y010125D01*
X017140Y010050D01*
X017300Y010125D02*
X017375Y010050D01*
X017525Y010050D01*
X017600Y010125D01*
X017600Y010425D01*
X017525Y010500D01*
X017375Y010500D01*
X017300Y010425D01*
X010135Y018600D02*
X009985Y018600D01*
X009910Y018675D01*
X009750Y018600D02*
X009450Y018600D01*
X009600Y018600D02*
X009600Y019050D01*
X009750Y018900D01*
X009910Y018975D02*
X009985Y019050D01*
X010135Y019050D01*
X010210Y018975D01*
X010210Y018675D01*
X010135Y018600D01*
X010640Y019168D02*
X010640Y019318D01*
X010715Y019394D01*
X010640Y019554D02*
X010940Y019854D01*
X011015Y019854D01*
X011090Y019779D01*
X011090Y019629D01*
X011015Y019554D01*
X011015Y019394D02*
X011090Y019318D01*
X011090Y019168D01*
X011015Y019093D01*
X010715Y019093D01*
X010640Y019168D01*
X010640Y019554D02*
X010640Y019854D01*
X010715Y020014D02*
X010640Y020089D01*
X010640Y020239D01*
X010715Y020314D01*
X010790Y020314D01*
X010865Y020239D01*
X010865Y020014D01*
X010715Y020014D01*
X010865Y020014D02*
X011015Y020164D01*
X011090Y020314D01*
X009290Y019050D02*
X008989Y019050D01*
X008989Y018975D01*
X009290Y018675D01*
X009290Y018600D01*
X010792Y032501D02*
X010717Y032576D01*
X010717Y032726D01*
X010792Y032801D01*
X010717Y032961D02*
X011018Y033261D01*
X011093Y033261D01*
X011168Y033186D01*
X011168Y033036D01*
X011093Y032961D01*
X011093Y032801D02*
X011168Y032726D01*
X011168Y032576D01*
X011093Y032501D01*
X010792Y032501D01*
X010717Y032961D02*
X010717Y033261D01*
X010717Y033422D02*
X010792Y033422D01*
X011093Y033722D01*
X011168Y033722D01*
X011168Y033422D01*
X011356Y033435D02*
X011656Y033736D01*
X011731Y033736D01*
X011806Y033660D01*
X011806Y033510D01*
X011731Y033435D01*
X011731Y033275D02*
X011656Y033275D01*
X011581Y033200D01*
X011506Y033275D01*
X011431Y033275D01*
X011356Y033200D01*
X011356Y033050D01*
X011431Y032975D01*
X011431Y032815D02*
X011356Y032740D01*
X011356Y032590D01*
X011431Y032515D01*
X011731Y032515D01*
X011806Y032590D01*
X011806Y032740D01*
X011731Y032815D01*
X011731Y032975D02*
X011806Y033050D01*
X011806Y033200D01*
X011731Y033275D01*
X011581Y033200D02*
X011581Y033125D01*
X011356Y033435D02*
X011356Y033736D01*
X020667Y033597D02*
X020667Y033447D01*
X020742Y033372D01*
X020817Y033372D01*
X020893Y033447D01*
X020893Y033597D01*
X020817Y033672D01*
X020742Y033672D01*
X020667Y033597D01*
X020893Y033597D02*
X020968Y033672D01*
X021043Y033672D01*
X021118Y033597D01*
X021118Y033447D01*
X021043Y033372D01*
X020968Y033372D01*
X020893Y033447D01*
X020968Y033211D02*
X021043Y033211D01*
X021118Y033136D01*
X021118Y032986D01*
X021043Y032911D01*
X021043Y032751D02*
X021118Y032676D01*
X021118Y032526D01*
X021043Y032451D01*
X020742Y032451D01*
X020667Y032526D01*
X020667Y032676D01*
X020742Y032751D01*
X020667Y032911D02*
X020968Y033211D01*
X020667Y033211D02*
X020667Y032911D01*
X021306Y033000D02*
X021306Y033150D01*
X021381Y033225D01*
X021456Y033225D01*
X021531Y033150D01*
X021531Y033075D01*
X021531Y033150D02*
X021606Y033225D01*
X021681Y033225D01*
X021756Y033150D01*
X021756Y033000D01*
X021681Y032925D01*
X021681Y032765D02*
X021756Y032690D01*
X021756Y032540D01*
X021681Y032465D01*
X021381Y032465D01*
X021306Y032540D01*
X021306Y032690D01*
X021381Y032765D01*
X021381Y032925D02*
X021306Y033000D01*
X021306Y033385D02*
X021306Y033686D01*
X021306Y033535D02*
X021756Y033535D01*
X021606Y033385D01*
X030817Y033497D02*
X030817Y033647D01*
X030892Y033722D01*
X031193Y033722D01*
X031268Y033647D01*
X031268Y033497D01*
X031193Y033422D01*
X031118Y033422D01*
X031043Y033497D01*
X031043Y033722D01*
X030817Y033497D02*
X030892Y033422D01*
X030817Y033261D02*
X030817Y032961D01*
X031118Y033261D01*
X031193Y033261D01*
X031268Y033186D01*
X031268Y033036D01*
X031193Y032961D01*
X031193Y032801D02*
X031268Y032726D01*
X031268Y032576D01*
X031193Y032501D01*
X030892Y032501D01*
X030817Y032576D01*
X030817Y032726D01*
X030892Y032801D01*
X031406Y032740D02*
X031481Y032815D01*
X031406Y032740D02*
X031406Y032590D01*
X031481Y032515D01*
X031781Y032515D01*
X031856Y032590D01*
X031856Y032740D01*
X031781Y032815D01*
X031781Y032975D02*
X031856Y033050D01*
X031856Y033200D01*
X031781Y033275D01*
X031706Y033275D01*
X031631Y033200D01*
X031556Y033275D01*
X031481Y033275D01*
X031406Y033200D01*
X031406Y033050D01*
X031481Y032975D01*
X031631Y033125D02*
X031631Y033200D01*
X031481Y033435D02*
X031781Y033736D01*
X031481Y033736D01*
X031406Y033660D01*
X031406Y033510D01*
X031481Y033435D01*
X031781Y033435D01*
X031856Y033510D01*
X031856Y033660D01*
X031781Y033736D01*
X034808Y030245D02*
X034733Y030170D01*
X034733Y030095D01*
X035033Y029795D01*
X034733Y029795D01*
X034808Y030245D02*
X034958Y030245D01*
X035033Y030170D01*
X035344Y030245D02*
X035344Y029795D01*
X035494Y029795D02*
X035193Y029795D01*
X035494Y030095D02*
X035344Y030245D01*
X035654Y030170D02*
X035654Y030020D01*
X035729Y029945D01*
X035954Y029945D01*
X035804Y029945D02*
X035654Y029795D01*
X035954Y029795D02*
X035954Y030245D01*
X035729Y030245D01*
X035654Y030170D01*
X039783Y029945D02*
X040083Y029945D01*
X039933Y029945D02*
X039933Y030395D01*
X040083Y030245D01*
X040243Y030395D02*
X040243Y029945D01*
X040544Y030395D01*
X040544Y029945D01*
X040704Y029945D02*
X040854Y030095D01*
X040779Y030095D02*
X041004Y030095D01*
X041004Y029945D02*
X041004Y030395D01*
X040779Y030395D01*
X040704Y030320D01*
X040704Y030170D01*
X040779Y030095D01*
X041783Y030245D02*
X041783Y030320D01*
X041858Y030395D01*
X042008Y030395D01*
X042083Y030320D01*
X042243Y030395D02*
X042243Y029945D01*
X042544Y030395D01*
X042544Y029945D01*
X042704Y029945D02*
X042854Y030095D01*
X042779Y030095D02*
X043004Y030095D01*
X043004Y029945D02*
X043004Y030395D01*
X042779Y030395D01*
X042704Y030320D01*
X042704Y030170D01*
X042779Y030095D01*
X042083Y029945D02*
X041783Y030245D01*
X041783Y029945D02*
X042083Y029945D01*
X045533Y030020D02*
X045608Y029945D01*
X045758Y029945D01*
X045833Y030020D01*
X045993Y029945D02*
X045993Y030395D01*
X045833Y030320D02*
X045758Y030395D01*
X045608Y030395D01*
X045533Y030320D01*
X045533Y030245D01*
X045608Y030170D01*
X045533Y030095D01*
X045533Y030020D01*
X045608Y030170D02*
X045683Y030170D01*
X045993Y029945D02*
X046294Y030395D01*
X046294Y029945D01*
X046454Y029945D02*
X046604Y030095D01*
X046529Y030095D02*
X046754Y030095D01*
X046754Y029945D02*
X046754Y030395D01*
X046529Y030395D01*
X046454Y030320D01*
X046454Y030170D01*
X046529Y030095D01*
X047783Y030170D02*
X048083Y030170D01*
X047858Y030395D01*
X047858Y029945D01*
X048243Y029945D02*
X048243Y030395D01*
X048544Y030395D02*
X048243Y029945D01*
X048544Y029945D02*
X048544Y030395D01*
X048704Y030320D02*
X048779Y030395D01*
X049004Y030395D01*
X049004Y029945D01*
X049004Y030095D02*
X048779Y030095D01*
X048704Y030170D01*
X048704Y030320D01*
X048854Y030095D02*
X048704Y029945D01*
X041073Y018245D02*
X040848Y018245D01*
X040773Y018170D01*
X040773Y018020D01*
X040848Y017945D01*
X041073Y017945D01*
X040923Y017945D02*
X040773Y017795D01*
X040613Y017795D02*
X040312Y017795D01*
X040462Y017795D02*
X040462Y018245D01*
X040613Y018095D01*
X040152Y018095D02*
X040002Y018245D01*
X040002Y017795D01*
X040152Y017795D02*
X039852Y017795D01*
X041073Y017795D02*
X041073Y018245D01*
X043258Y012445D02*
X043183Y012370D01*
X043483Y012070D01*
X043408Y011995D01*
X043258Y011995D01*
X043183Y012070D01*
X043183Y012370D01*
X043258Y012445D02*
X043408Y012445D01*
X043483Y012370D01*
X043483Y012070D01*
X043643Y011995D02*
X043944Y011995D01*
X043794Y011995D02*
X043794Y012445D01*
X043944Y012295D01*
X044104Y012370D02*
X044104Y012220D01*
X044179Y012145D01*
X044404Y012145D01*
X044254Y012145D02*
X044104Y011995D01*
X044404Y011995D02*
X044404Y012445D01*
X044179Y012445D01*
X044104Y012370D01*
X041923Y011845D02*
X041698Y011845D01*
X041623Y011770D01*
X041623Y011620D01*
X041698Y011545D01*
X041923Y011545D01*
X041773Y011545D02*
X041623Y011395D01*
X041463Y011470D02*
X041387Y011395D01*
X041237Y011395D01*
X041162Y011470D01*
X041162Y011770D01*
X041237Y011845D01*
X041387Y011845D01*
X041463Y011770D01*
X041463Y011695D01*
X041387Y011620D01*
X041162Y011620D01*
X041923Y011395D02*
X041923Y011845D01*
X049545Y014920D02*
X049545Y014995D01*
X049620Y015070D01*
X049845Y015070D01*
X049845Y014920D01*
X049770Y014845D01*
X049620Y014845D01*
X049545Y014920D01*
X049695Y015220D02*
X049545Y015295D01*
X049695Y015220D02*
X049845Y015070D01*
X050005Y015145D02*
X050080Y015070D01*
X050005Y014995D01*
X050005Y014920D01*
X050080Y014845D01*
X050231Y014845D01*
X050306Y014920D01*
X050466Y014920D02*
X050541Y014845D01*
X050691Y014845D01*
X050766Y014920D01*
X050766Y015220D01*
X050691Y015295D01*
X050541Y015295D01*
X050466Y015220D01*
X050306Y015220D02*
X050231Y015295D01*
X050080Y015295D01*
X050005Y015220D01*
X050005Y015145D01*
X050080Y015070D02*
X050156Y015070D01*
X050923Y015295D02*
X051073Y015295D01*
X050998Y015295D02*
X050998Y014845D01*
X051073Y014845D02*
X050923Y014845D01*
X050875Y012250D02*
X051100Y012025D01*
X050800Y012025D01*
X050640Y012025D02*
X050339Y012025D01*
X050414Y011800D02*
X050414Y012250D01*
X050640Y012025D01*
X050875Y011800D02*
X050875Y012250D01*
X051260Y012175D02*
X051335Y012250D01*
X051485Y012250D01*
X051560Y012175D01*
X051560Y011875D01*
X051485Y011800D01*
X051335Y011800D01*
X051260Y011875D01*
X059152Y012870D02*
X059227Y012795D01*
X059377Y012795D01*
X059452Y012870D01*
X059612Y012795D02*
X059913Y012795D01*
X059762Y012795D02*
X059762Y013245D01*
X059913Y013095D01*
X060073Y013170D02*
X060073Y013020D01*
X060148Y012945D01*
X060373Y012945D01*
X060223Y012945D02*
X060073Y012795D01*
X060373Y012795D02*
X060373Y013245D01*
X060148Y013245D01*
X060073Y013170D01*
X059452Y013170D02*
X059377Y013245D01*
X059227Y013245D01*
X059152Y013170D01*
X059152Y013095D01*
X059227Y013020D01*
X059152Y012945D01*
X059152Y012870D01*
X059227Y013020D02*
X059302Y013020D01*
X061620Y016045D02*
X061770Y016045D01*
X061845Y016120D01*
X061845Y016195D01*
X061770Y016270D01*
X061620Y016270D01*
X061545Y016195D01*
X061545Y016120D01*
X061620Y016045D01*
X061620Y016270D02*
X061545Y016345D01*
X061545Y016420D01*
X061620Y016495D01*
X061770Y016495D01*
X061845Y016420D01*
X061845Y016345D01*
X061770Y016270D01*
X062005Y016345D02*
X062005Y016420D01*
X062080Y016495D01*
X062231Y016495D01*
X062306Y016420D01*
X062466Y016420D02*
X062541Y016495D01*
X062691Y016495D01*
X062766Y016420D01*
X062766Y016120D01*
X062691Y016045D01*
X062541Y016045D01*
X062466Y016120D01*
X062306Y016045D02*
X062005Y016345D01*
X062005Y016045D02*
X062306Y016045D01*
X062923Y016045D02*
X063073Y016045D01*
X062998Y016045D02*
X062998Y016495D01*
X063073Y016495D02*
X062923Y016495D01*
D16*
X004848Y007430D02*
X004848Y046810D01*
X067948Y046810D01*
X067948Y007430D01*
X004848Y007430D01*
X005698Y010120D02*
X005700Y010170D01*
X005706Y010220D01*
X005716Y010270D01*
X005729Y010318D01*
X005746Y010366D01*
X005767Y010412D01*
X005791Y010456D01*
X005819Y010498D01*
X005850Y010538D01*
X005884Y010575D01*
X005921Y010610D01*
X005960Y010641D01*
X006001Y010670D01*
X006045Y010695D01*
X006091Y010717D01*
X006138Y010735D01*
X006186Y010749D01*
X006235Y010760D01*
X006285Y010767D01*
X006335Y010770D01*
X006386Y010769D01*
X006436Y010764D01*
X006486Y010755D01*
X006534Y010743D01*
X006582Y010726D01*
X006628Y010706D01*
X006673Y010683D01*
X006716Y010656D01*
X006756Y010626D01*
X006794Y010593D01*
X006829Y010557D01*
X006862Y010518D01*
X006891Y010477D01*
X006917Y010434D01*
X006940Y010389D01*
X006959Y010342D01*
X006974Y010294D01*
X006986Y010245D01*
X006994Y010195D01*
X006998Y010145D01*
X006998Y010095D01*
X006994Y010045D01*
X006986Y009995D01*
X006974Y009946D01*
X006959Y009898D01*
X006940Y009851D01*
X006917Y009806D01*
X006891Y009763D01*
X006862Y009722D01*
X006829Y009683D01*
X006794Y009647D01*
X006756Y009614D01*
X006716Y009584D01*
X006673Y009557D01*
X006628Y009534D01*
X006582Y009514D01*
X006534Y009497D01*
X006486Y009485D01*
X006436Y009476D01*
X006386Y009471D01*
X006335Y009470D01*
X006285Y009473D01*
X006235Y009480D01*
X006186Y009491D01*
X006138Y009505D01*
X006091Y009523D01*
X006045Y009545D01*
X006001Y009570D01*
X005960Y009599D01*
X005921Y009630D01*
X005884Y009665D01*
X005850Y009702D01*
X005819Y009742D01*
X005791Y009784D01*
X005767Y009828D01*
X005746Y009874D01*
X005729Y009922D01*
X005716Y009970D01*
X005706Y010020D01*
X005700Y010070D01*
X005698Y010120D01*
X005698Y044370D02*
X005700Y044420D01*
X005706Y044470D01*
X005716Y044520D01*
X005729Y044568D01*
X005746Y044616D01*
X005767Y044662D01*
X005791Y044706D01*
X005819Y044748D01*
X005850Y044788D01*
X005884Y044825D01*
X005921Y044860D01*
X005960Y044891D01*
X006001Y044920D01*
X006045Y044945D01*
X006091Y044967D01*
X006138Y044985D01*
X006186Y044999D01*
X006235Y045010D01*
X006285Y045017D01*
X006335Y045020D01*
X006386Y045019D01*
X006436Y045014D01*
X006486Y045005D01*
X006534Y044993D01*
X006582Y044976D01*
X006628Y044956D01*
X006673Y044933D01*
X006716Y044906D01*
X006756Y044876D01*
X006794Y044843D01*
X006829Y044807D01*
X006862Y044768D01*
X006891Y044727D01*
X006917Y044684D01*
X006940Y044639D01*
X006959Y044592D01*
X006974Y044544D01*
X006986Y044495D01*
X006994Y044445D01*
X006998Y044395D01*
X006998Y044345D01*
X006994Y044295D01*
X006986Y044245D01*
X006974Y044196D01*
X006959Y044148D01*
X006940Y044101D01*
X006917Y044056D01*
X006891Y044013D01*
X006862Y043972D01*
X006829Y043933D01*
X006794Y043897D01*
X006756Y043864D01*
X006716Y043834D01*
X006673Y043807D01*
X006628Y043784D01*
X006582Y043764D01*
X006534Y043747D01*
X006486Y043735D01*
X006436Y043726D01*
X006386Y043721D01*
X006335Y043720D01*
X006285Y043723D01*
X006235Y043730D01*
X006186Y043741D01*
X006138Y043755D01*
X006091Y043773D01*
X006045Y043795D01*
X006001Y043820D01*
X005960Y043849D01*
X005921Y043880D01*
X005884Y043915D01*
X005850Y043952D01*
X005819Y043992D01*
X005791Y044034D01*
X005767Y044078D01*
X005746Y044124D01*
X005729Y044172D01*
X005716Y044220D01*
X005706Y044270D01*
X005700Y044320D01*
X005698Y044370D01*
X061948Y044370D02*
X061950Y044420D01*
X061956Y044470D01*
X061966Y044520D01*
X061979Y044568D01*
X061996Y044616D01*
X062017Y044662D01*
X062041Y044706D01*
X062069Y044748D01*
X062100Y044788D01*
X062134Y044825D01*
X062171Y044860D01*
X062210Y044891D01*
X062251Y044920D01*
X062295Y044945D01*
X062341Y044967D01*
X062388Y044985D01*
X062436Y044999D01*
X062485Y045010D01*
X062535Y045017D01*
X062585Y045020D01*
X062636Y045019D01*
X062686Y045014D01*
X062736Y045005D01*
X062784Y044993D01*
X062832Y044976D01*
X062878Y044956D01*
X062923Y044933D01*
X062966Y044906D01*
X063006Y044876D01*
X063044Y044843D01*
X063079Y044807D01*
X063112Y044768D01*
X063141Y044727D01*
X063167Y044684D01*
X063190Y044639D01*
X063209Y044592D01*
X063224Y044544D01*
X063236Y044495D01*
X063244Y044445D01*
X063248Y044395D01*
X063248Y044345D01*
X063244Y044295D01*
X063236Y044245D01*
X063224Y044196D01*
X063209Y044148D01*
X063190Y044101D01*
X063167Y044056D01*
X063141Y044013D01*
X063112Y043972D01*
X063079Y043933D01*
X063044Y043897D01*
X063006Y043864D01*
X062966Y043834D01*
X062923Y043807D01*
X062878Y043784D01*
X062832Y043764D01*
X062784Y043747D01*
X062736Y043735D01*
X062686Y043726D01*
X062636Y043721D01*
X062585Y043720D01*
X062535Y043723D01*
X062485Y043730D01*
X062436Y043741D01*
X062388Y043755D01*
X062341Y043773D01*
X062295Y043795D01*
X062251Y043820D01*
X062210Y043849D01*
X062171Y043880D01*
X062134Y043915D01*
X062100Y043952D01*
X062069Y043992D01*
X062041Y044034D01*
X062017Y044078D01*
X061996Y044124D01*
X061979Y044172D01*
X061966Y044220D01*
X061956Y044270D01*
X061950Y044320D01*
X061948Y044370D01*
X066298Y044620D02*
X066300Y044667D01*
X066306Y044713D01*
X066316Y044759D01*
X066329Y044803D01*
X066347Y044847D01*
X066368Y044888D01*
X066392Y044928D01*
X066420Y044966D01*
X066451Y045001D01*
X066485Y045033D01*
X066521Y045062D01*
X066560Y045088D01*
X066600Y045111D01*
X066643Y045130D01*
X066687Y045146D01*
X066732Y045158D01*
X066778Y045166D01*
X066825Y045170D01*
X066871Y045170D01*
X066918Y045166D01*
X066964Y045158D01*
X067009Y045146D01*
X067053Y045130D01*
X067096Y045111D01*
X067136Y045088D01*
X067175Y045062D01*
X067211Y045033D01*
X067245Y045001D01*
X067276Y044966D01*
X067304Y044928D01*
X067328Y044888D01*
X067349Y044847D01*
X067367Y044803D01*
X067380Y044759D01*
X067390Y044713D01*
X067396Y044667D01*
X067398Y044620D01*
X067396Y044573D01*
X067390Y044527D01*
X067380Y044481D01*
X067367Y044437D01*
X067349Y044393D01*
X067328Y044352D01*
X067304Y044312D01*
X067276Y044274D01*
X067245Y044239D01*
X067211Y044207D01*
X067175Y044178D01*
X067136Y044152D01*
X067096Y044129D01*
X067053Y044110D01*
X067009Y044094D01*
X066964Y044082D01*
X066918Y044074D01*
X066871Y044070D01*
X066825Y044070D01*
X066778Y044074D01*
X066732Y044082D01*
X066687Y044094D01*
X066643Y044110D01*
X066600Y044129D01*
X066560Y044152D01*
X066521Y044178D01*
X066485Y044207D01*
X066451Y044239D01*
X066420Y044274D01*
X066392Y044312D01*
X066368Y044352D01*
X066347Y044393D01*
X066329Y044437D01*
X066316Y044481D01*
X066306Y044527D01*
X066300Y044573D01*
X066298Y044620D01*
X061948Y010120D02*
X061950Y010170D01*
X061956Y010220D01*
X061966Y010270D01*
X061979Y010318D01*
X061996Y010366D01*
X062017Y010412D01*
X062041Y010456D01*
X062069Y010498D01*
X062100Y010538D01*
X062134Y010575D01*
X062171Y010610D01*
X062210Y010641D01*
X062251Y010670D01*
X062295Y010695D01*
X062341Y010717D01*
X062388Y010735D01*
X062436Y010749D01*
X062485Y010760D01*
X062535Y010767D01*
X062585Y010770D01*
X062636Y010769D01*
X062686Y010764D01*
X062736Y010755D01*
X062784Y010743D01*
X062832Y010726D01*
X062878Y010706D01*
X062923Y010683D01*
X062966Y010656D01*
X063006Y010626D01*
X063044Y010593D01*
X063079Y010557D01*
X063112Y010518D01*
X063141Y010477D01*
X063167Y010434D01*
X063190Y010389D01*
X063209Y010342D01*
X063224Y010294D01*
X063236Y010245D01*
X063244Y010195D01*
X063248Y010145D01*
X063248Y010095D01*
X063244Y010045D01*
X063236Y009995D01*
X063224Y009946D01*
X063209Y009898D01*
X063190Y009851D01*
X063167Y009806D01*
X063141Y009763D01*
X063112Y009722D01*
X063079Y009683D01*
X063044Y009647D01*
X063006Y009614D01*
X062966Y009584D01*
X062923Y009557D01*
X062878Y009534D01*
X062832Y009514D01*
X062784Y009497D01*
X062736Y009485D01*
X062686Y009476D01*
X062636Y009471D01*
X062585Y009470D01*
X062535Y009473D01*
X062485Y009480D01*
X062436Y009491D01*
X062388Y009505D01*
X062341Y009523D01*
X062295Y009545D01*
X062251Y009570D01*
X062210Y009599D01*
X062171Y009630D01*
X062134Y009665D01*
X062100Y009702D01*
X062069Y009742D01*
X062041Y009784D01*
X062017Y009828D01*
X061996Y009874D01*
X061979Y009922D01*
X061966Y009970D01*
X061956Y010020D01*
X061950Y010070D01*
X061948Y010120D01*
X066298Y009620D02*
X066300Y009667D01*
X066306Y009713D01*
X066316Y009759D01*
X066329Y009803D01*
X066347Y009847D01*
X066368Y009888D01*
X066392Y009928D01*
X066420Y009966D01*
X066451Y010001D01*
X066485Y010033D01*
X066521Y010062D01*
X066560Y010088D01*
X066600Y010111D01*
X066643Y010130D01*
X066687Y010146D01*
X066732Y010158D01*
X066778Y010166D01*
X066825Y010170D01*
X066871Y010170D01*
X066918Y010166D01*
X066964Y010158D01*
X067009Y010146D01*
X067053Y010130D01*
X067096Y010111D01*
X067136Y010088D01*
X067175Y010062D01*
X067211Y010033D01*
X067245Y010001D01*
X067276Y009966D01*
X067304Y009928D01*
X067328Y009888D01*
X067349Y009847D01*
X067367Y009803D01*
X067380Y009759D01*
X067390Y009713D01*
X067396Y009667D01*
X067398Y009620D01*
X067396Y009573D01*
X067390Y009527D01*
X067380Y009481D01*
X067367Y009437D01*
X067349Y009393D01*
X067328Y009352D01*
X067304Y009312D01*
X067276Y009274D01*
X067245Y009239D01*
X067211Y009207D01*
X067175Y009178D01*
X067136Y009152D01*
X067096Y009129D01*
X067053Y009110D01*
X067009Y009094D01*
X066964Y009082D01*
X066918Y009074D01*
X066871Y009070D01*
X066825Y009070D01*
X066778Y009074D01*
X066732Y009082D01*
X066687Y009094D01*
X066643Y009110D01*
X066600Y009129D01*
X066560Y009152D01*
X066521Y009178D01*
X066485Y009207D01*
X066451Y009239D01*
X066420Y009274D01*
X066392Y009312D01*
X066368Y009352D01*
X066347Y009393D01*
X066329Y009437D01*
X066316Y009481D01*
X066306Y009527D01*
X066300Y009573D01*
X066298Y009620D01*
D17*
X060090Y029870D02*
X060086Y029870D01*
X038610Y043870D02*
X038606Y043870D01*
D18*
X038358Y044370D02*
X037842Y044370D01*
X037842Y043366D01*
X038358Y043366D01*
X038358Y044370D01*
X060338Y030373D02*
X060338Y029370D01*
X060854Y029370D01*
X060854Y030373D01*
X060338Y030373D01*
D19*
X033716Y026287D02*
X033716Y025952D01*
X033271Y025906D01*
X033242Y025806D01*
X033202Y025709D01*
X033151Y025618D01*
X033434Y025271D01*
X033196Y025034D01*
X032850Y025316D01*
X032782Y025277D01*
X032710Y025244D01*
X032513Y025722D01*
X032577Y025755D01*
X032635Y025798D01*
X032685Y025851D01*
X032725Y025911D01*
X032754Y025977D01*
X032772Y026047D01*
X032779Y026120D01*
X032771Y026200D01*
X032748Y026278D01*
X032712Y026350D01*
X032663Y026413D01*
X032602Y026467D01*
X032533Y026508D01*
X032457Y026536D01*
X032377Y026549D01*
X032297Y026547D01*
X032218Y026530D01*
X032143Y026498D01*
X032076Y026454D01*
X032019Y026397D01*
X031973Y026331D01*
X031940Y026257D01*
X031921Y026178D01*
X031918Y026097D01*
X031929Y026018D01*
X031956Y025941D01*
X031996Y025871D01*
X032049Y025810D01*
X032112Y025759D01*
X032183Y025722D01*
X031985Y025244D01*
X031914Y025277D01*
X031846Y025316D01*
X031500Y025034D01*
X031262Y025271D01*
X031544Y025618D01*
X031494Y025709D01*
X031454Y025806D01*
X031425Y025906D01*
X030980Y025952D01*
X030980Y026287D01*
X031425Y026333D01*
X031454Y026433D01*
X031494Y026530D01*
X031544Y026622D01*
X031262Y026968D01*
X031500Y027205D01*
X031846Y026923D01*
X031938Y026973D01*
X032034Y027013D01*
X032135Y027043D01*
X032180Y027487D01*
X032516Y027487D01*
X032561Y027043D01*
X032661Y027013D01*
X032758Y026973D01*
X032850Y026923D01*
X033196Y027205D01*
X033434Y026968D01*
X033151Y026622D01*
X033202Y026530D01*
X033242Y026433D01*
X033271Y026333D01*
X033716Y026287D01*
X033716Y026281D02*
X032746Y026281D01*
X032764Y026224D02*
X033716Y026224D01*
X033716Y026166D02*
X032774Y026166D01*
X032778Y026109D02*
X033716Y026109D01*
X033716Y026051D02*
X032773Y026051D01*
X032758Y025993D02*
X033716Y025993D01*
X033560Y025936D02*
X032736Y025936D01*
X032703Y025878D02*
X033263Y025878D01*
X033246Y025821D02*
X032656Y025821D01*
X032588Y025763D02*
X033224Y025763D01*
X033200Y025705D02*
X032519Y025705D01*
X032543Y025648D02*
X033168Y025648D01*
X033174Y025590D02*
X032567Y025590D01*
X032591Y025533D02*
X033220Y025533D01*
X033267Y025475D02*
X032615Y025475D01*
X032639Y025417D02*
X033314Y025417D01*
X033361Y025360D02*
X032663Y025360D01*
X032686Y025302D02*
X032826Y025302D01*
X032867Y025302D02*
X033408Y025302D01*
X033407Y025245D02*
X032938Y025245D01*
X033008Y025187D02*
X033350Y025187D01*
X033292Y025129D02*
X033079Y025129D01*
X033149Y025072D02*
X033234Y025072D01*
X032711Y025245D02*
X032710Y025245D01*
X032081Y025475D02*
X031428Y025475D01*
X031381Y025417D02*
X032057Y025417D01*
X032033Y025360D02*
X031334Y025360D01*
X031287Y025302D02*
X031829Y025302D01*
X031870Y025302D02*
X032009Y025302D01*
X031985Y025245D02*
X031985Y025245D01*
X031758Y025245D02*
X031289Y025245D01*
X031346Y025187D02*
X031688Y025187D01*
X031617Y025129D02*
X031404Y025129D01*
X031461Y025072D02*
X031546Y025072D01*
X031475Y025533D02*
X032105Y025533D01*
X032129Y025590D02*
X031522Y025590D01*
X031528Y025648D02*
X032152Y025648D01*
X032176Y025705D02*
X031496Y025705D01*
X031472Y025763D02*
X032107Y025763D01*
X032039Y025821D02*
X031450Y025821D01*
X031433Y025878D02*
X031992Y025878D01*
X031959Y025936D02*
X031136Y025936D01*
X030980Y025993D02*
X031938Y025993D01*
X031925Y026051D02*
X030980Y026051D01*
X030980Y026109D02*
X031918Y026109D01*
X031921Y026166D02*
X030980Y026166D01*
X030980Y026224D02*
X031932Y026224D01*
X031951Y026281D02*
X030980Y026281D01*
X031427Y026339D02*
X031978Y026339D01*
X032018Y026397D02*
X031443Y026397D01*
X031463Y026454D02*
X032077Y026454D01*
X032175Y026512D02*
X031486Y026512D01*
X031516Y026569D02*
X033180Y026569D01*
X033156Y026627D02*
X031540Y026627D01*
X031493Y026685D02*
X033203Y026685D01*
X033250Y026742D02*
X031446Y026742D01*
X031399Y026800D02*
X033297Y026800D01*
X033344Y026857D02*
X031352Y026857D01*
X031305Y026915D02*
X033391Y026915D01*
X033429Y026973D02*
X032911Y026973D01*
X032981Y027030D02*
X033371Y027030D01*
X033314Y027088D02*
X033052Y027088D01*
X033123Y027145D02*
X033256Y027145D01*
X033199Y027203D02*
X033193Y027203D01*
X032760Y026973D02*
X031936Y026973D01*
X031785Y026973D02*
X031267Y026973D01*
X031324Y027030D02*
X031714Y027030D01*
X031644Y027088D02*
X031382Y027088D01*
X031440Y027145D02*
X031573Y027145D01*
X031502Y027203D02*
X031497Y027203D01*
X032092Y027030D02*
X032604Y027030D01*
X032556Y027088D02*
X032139Y027088D01*
X032145Y027145D02*
X032551Y027145D01*
X032545Y027203D02*
X032151Y027203D01*
X032157Y027261D02*
X032539Y027261D01*
X032533Y027318D02*
X032163Y027318D01*
X032169Y027376D02*
X032527Y027376D01*
X032521Y027433D02*
X032174Y027433D01*
X032524Y026512D02*
X033209Y026512D01*
X033233Y026454D02*
X032617Y026454D01*
X032676Y026397D02*
X033252Y026397D01*
X033269Y026339D02*
X032717Y026339D01*
D20*
X039738Y030824D02*
X039738Y031415D01*
X040958Y031415D02*
X040958Y030824D01*
X041738Y030824D02*
X041738Y031415D01*
X042958Y031415D02*
X042958Y030824D01*
X045488Y030824D02*
X045488Y031415D01*
X046708Y031415D02*
X046708Y030824D01*
X047738Y030824D02*
X047738Y031415D01*
X048958Y031415D02*
X048958Y030824D01*
M02*
