G75*
%MOIN*%
%OFA0B0*%
%FSLAX25Y25*%
%IPPOS*%
%LPD*%
%AMOC8*
5,1,8,0,0,1.08239X$1,22.5*
%
%ADD10C,0.01600*%
%ADD11C,0.01500*%
%ADD12C,0.01000*%
%ADD13C,0.01100*%
%ADD14C,0.00500*%
%ADD15C,0.00800*%
%ADD16C,0.00400*%
%ADD17C,0.00039*%
%ADD18C,0.00295*%
%ADD19C,0.00600*%
%ADD20C,0.00200*%
%ADD21C,0.02559*%
%ADD22C,0.00000*%
%ADD23R,0.02500X0.02500*%
%ADD24R,0.12500X0.02500*%
%ADD25R,0.02500X0.07500*%
%ADD26R,0.05000X0.62500*%
%ADD27R,0.72500X0.05000*%
D10*
X0080333Y0091100D02*
X0080333Y0103100D01*
X0111833Y0103100D01*
X0111833Y0091100D01*
X0080333Y0091100D01*
D11*
X0120331Y0094350D02*
X0126002Y0094350D01*
X0126002Y0102857D01*
X0120331Y0102857D01*
X0123166Y0098604D02*
X0126002Y0098604D01*
X0138746Y0100022D02*
X0141582Y0094350D01*
X0144418Y0100022D01*
X0147954Y0098604D02*
X0147954Y0097186D01*
X0153626Y0097186D01*
X0153626Y0095768D02*
X0153626Y0098604D01*
X0152208Y0100022D01*
X0149372Y0100022D01*
X0147954Y0098604D01*
X0149372Y0094350D02*
X0152208Y0094350D01*
X0153626Y0095768D01*
X0157162Y0094350D02*
X0159998Y0097186D01*
X0158580Y0097186D02*
X0162834Y0097186D01*
X0162834Y0094350D02*
X0162834Y0102857D01*
X0158580Y0102857D01*
X0157162Y0101439D01*
X0157162Y0098604D01*
X0158580Y0097186D01*
X0175344Y0097186D02*
X0175344Y0100022D01*
X0178180Y0102857D01*
X0181600Y0100022D02*
X0183017Y0100022D01*
X0185853Y0097186D01*
X0185853Y0094350D02*
X0185853Y0100022D01*
X0189390Y0098604D02*
X0189390Y0097186D01*
X0195061Y0097186D01*
X0195061Y0095768D02*
X0195061Y0098604D01*
X0193643Y0100022D01*
X0190807Y0100022D01*
X0189390Y0098604D01*
X0190807Y0094350D02*
X0193643Y0094350D01*
X0195061Y0095768D01*
X0198597Y0094350D02*
X0202851Y0094350D01*
X0204269Y0095768D01*
X0204269Y0098604D01*
X0202851Y0100022D01*
X0198597Y0100022D01*
X0207805Y0098604D02*
X0207805Y0094350D01*
X0207805Y0098604D02*
X0209223Y0100022D01*
X0213477Y0100022D01*
X0213477Y0094350D01*
X0217013Y0097186D02*
X0222685Y0097186D01*
X0222685Y0095768D02*
X0222685Y0098604D01*
X0221267Y0100022D01*
X0218431Y0100022D01*
X0217013Y0098604D01*
X0217013Y0097186D01*
X0218431Y0094350D02*
X0221267Y0094350D01*
X0222685Y0095768D01*
X0226221Y0094350D02*
X0226221Y0100022D01*
X0231892Y0100022D02*
X0231892Y0095768D01*
X0230475Y0094350D01*
X0226221Y0094350D01*
X0235429Y0094350D02*
X0239682Y0094350D01*
X0241100Y0095768D01*
X0241100Y0098604D01*
X0239682Y0100022D01*
X0235429Y0100022D01*
X0235429Y0091514D01*
X0244637Y0097186D02*
X0250308Y0097186D01*
X0250308Y0095768D02*
X0250308Y0098604D01*
X0248890Y0100022D01*
X0246055Y0100022D01*
X0244637Y0098604D01*
X0244637Y0097186D01*
X0246055Y0094350D02*
X0248890Y0094350D01*
X0250308Y0095768D01*
X0253845Y0095768D02*
X0255262Y0094350D01*
X0258098Y0094350D01*
X0259516Y0095768D01*
X0258098Y0098604D02*
X0255262Y0098604D01*
X0253845Y0097186D01*
X0253845Y0095768D01*
X0258098Y0098604D02*
X0259516Y0100022D01*
X0259516Y0101439D01*
X0258098Y0102857D01*
X0255262Y0102857D01*
X0253845Y0101439D01*
X0262819Y0102857D02*
X0265655Y0100022D01*
X0265655Y0097186D01*
X0262819Y0094350D01*
X0278399Y0095768D02*
X0279817Y0094350D01*
X0282652Y0094350D01*
X0284070Y0095768D01*
X0278399Y0101439D01*
X0278399Y0095768D01*
X0284070Y0095768D02*
X0284070Y0101439D01*
X0282652Y0102857D01*
X0279817Y0102857D01*
X0278399Y0101439D01*
X0296815Y0100022D02*
X0301068Y0100022D01*
X0302486Y0098604D01*
X0302486Y0095768D01*
X0301068Y0094350D01*
X0296815Y0094350D01*
X0296815Y0102857D01*
X0305906Y0100022D02*
X0307324Y0100022D01*
X0310159Y0097186D01*
X0310159Y0094350D02*
X0310159Y0100022D01*
X0313696Y0098604D02*
X0313696Y0094350D01*
X0317949Y0094350D01*
X0319367Y0095768D01*
X0317949Y0097186D01*
X0313696Y0097186D01*
X0313696Y0098604D02*
X0315114Y0100022D01*
X0317949Y0100022D01*
X0322904Y0098604D02*
X0322904Y0095768D01*
X0324321Y0094350D01*
X0327157Y0094350D01*
X0328575Y0095768D01*
X0328575Y0098604D01*
X0327157Y0100022D01*
X0324321Y0100022D01*
X0322904Y0098604D01*
X0332111Y0100022D02*
X0333529Y0098604D01*
X0337783Y0098604D01*
X0337783Y0102857D02*
X0333529Y0102857D01*
X0332111Y0101439D01*
X0332111Y0100022D01*
X0333529Y0098604D02*
X0332111Y0097186D01*
X0332111Y0095768D01*
X0333529Y0094350D01*
X0337783Y0094350D01*
X0337783Y0102857D01*
X0350410Y0100022D02*
X0351828Y0100022D01*
X0354664Y0097186D01*
X0354664Y0094350D02*
X0354664Y0100022D01*
X0358200Y0098604D02*
X0358200Y0095768D01*
X0359618Y0094350D01*
X0362454Y0094350D01*
X0363872Y0095768D01*
X0363872Y0098604D01*
X0362454Y0100022D01*
X0359618Y0100022D01*
X0358200Y0098604D01*
X0367408Y0100022D02*
X0371662Y0100022D01*
X0373080Y0098604D01*
X0371662Y0097186D01*
X0368826Y0097186D01*
X0367408Y0095768D01*
X0368826Y0094350D01*
X0373080Y0094350D01*
X0376616Y0095768D02*
X0378034Y0097186D01*
X0380870Y0097186D01*
X0382288Y0098604D01*
X0380870Y0100022D01*
X0376616Y0100022D01*
X0376616Y0095768D02*
X0378034Y0094350D01*
X0382288Y0094350D01*
X0385824Y0097186D02*
X0385824Y0098604D01*
X0387242Y0100022D01*
X0390078Y0100022D01*
X0391495Y0098604D01*
X0391495Y0095768D01*
X0390078Y0094350D01*
X0387242Y0094350D01*
X0385824Y0097186D02*
X0391495Y0097186D01*
X0395032Y0100022D02*
X0399285Y0100022D01*
X0400703Y0098604D01*
X0400703Y0095768D01*
X0399285Y0094350D01*
X0395032Y0094350D01*
X0404240Y0095768D02*
X0404240Y0098604D01*
X0405657Y0100022D01*
X0408493Y0100022D01*
X0409911Y0098604D01*
X0409911Y0095768D01*
X0408493Y0094350D01*
X0405657Y0094350D01*
X0404240Y0095768D01*
X0413331Y0100022D02*
X0414749Y0100022D01*
X0417584Y0097186D01*
X0417584Y0094350D02*
X0417584Y0100022D01*
X0421121Y0101439D02*
X0421121Y0098604D01*
X0422539Y0097186D01*
X0426792Y0097186D01*
X0426792Y0094350D02*
X0426792Y0102857D01*
X0422539Y0102857D01*
X0421121Y0101439D01*
X0439420Y0100022D02*
X0440838Y0100022D01*
X0443673Y0097186D01*
X0443673Y0094350D02*
X0443673Y0100022D01*
X0447210Y0098604D02*
X0447210Y0097186D01*
X0452881Y0097186D01*
X0452881Y0095768D02*
X0452881Y0098604D01*
X0451463Y0100022D01*
X0448628Y0100022D01*
X0447210Y0098604D01*
X0448628Y0094350D02*
X0451463Y0094350D01*
X0452881Y0095768D01*
X0456184Y0094350D02*
X0457602Y0095768D01*
X0457602Y0101439D01*
X0459020Y0100022D02*
X0456184Y0100022D01*
X0462556Y0100022D02*
X0462556Y0094350D01*
X0466810Y0094350D01*
X0468228Y0095768D01*
X0468228Y0100022D01*
X0471764Y0098604D02*
X0471764Y0095768D01*
X0473182Y0094350D01*
X0477435Y0094350D01*
X0477435Y0091514D02*
X0477435Y0100022D01*
X0473182Y0100022D01*
X0471764Y0098604D01*
X0480972Y0098604D02*
X0480972Y0094350D01*
X0483808Y0094350D02*
X0483808Y0098604D01*
X0482390Y0100022D01*
X0480972Y0098604D01*
X0483808Y0098604D02*
X0485225Y0100022D01*
X0486643Y0100022D01*
X0486643Y0094350D01*
X0490180Y0095768D02*
X0490180Y0098604D01*
X0491598Y0100022D01*
X0494433Y0100022D01*
X0495851Y0098604D01*
X0495851Y0095768D01*
X0494433Y0094350D01*
X0491598Y0094350D01*
X0490180Y0095768D01*
X0499388Y0094350D02*
X0503641Y0094350D01*
X0505059Y0095768D01*
X0505059Y0098604D01*
X0503641Y0100022D01*
X0499388Y0100022D01*
X0509780Y0100022D02*
X0509780Y0094350D01*
X0511198Y0094350D02*
X0508362Y0094350D01*
X0509780Y0100022D02*
X0511198Y0100022D01*
X0509780Y0102857D02*
X0509780Y0104275D01*
X0514734Y0098604D02*
X0514734Y0094350D01*
X0514734Y0098604D02*
X0516152Y0100022D01*
X0520405Y0100022D01*
X0520405Y0094350D01*
X0523708Y0094350D02*
X0526544Y0094350D01*
X0525126Y0094350D02*
X0525126Y0100022D01*
X0526544Y0100022D01*
X0525126Y0102857D02*
X0525126Y0104275D01*
X0530080Y0102857D02*
X0530080Y0094350D01*
X0535752Y0094350D02*
X0535752Y0102857D01*
X0532916Y0100022D01*
X0530080Y0102857D01*
X0548496Y0102857D02*
X0554168Y0102857D01*
X0551332Y0102857D02*
X0551332Y0094350D01*
X0560540Y0098604D02*
X0563375Y0098604D01*
X0563375Y0102857D02*
X0557704Y0102857D01*
X0563375Y0102857D02*
X0563375Y0094350D01*
X0566912Y0095768D02*
X0568330Y0094350D01*
X0571165Y0094350D01*
X0572583Y0095768D01*
X0572583Y0101439D01*
X0571165Y0102857D01*
X0568330Y0102857D01*
X0566912Y0101439D01*
X0178180Y0094350D02*
X0175344Y0097186D01*
D12*
X0175496Y0197500D02*
X0175496Y0201237D01*
X0173155Y0200302D02*
X0171287Y0200302D01*
X0172221Y0202171D02*
X0172221Y0197500D01*
X0175496Y0197500D02*
X0178298Y0197500D01*
X0179232Y0198434D01*
X0179232Y0201237D01*
X0181573Y0201237D02*
X0182507Y0200302D01*
X0185309Y0200302D01*
X0182507Y0200302D02*
X0181573Y0199368D01*
X0181573Y0198434D01*
X0182507Y0197500D01*
X0185309Y0197500D01*
X0185309Y0203105D01*
X0182507Y0203105D01*
X0181573Y0202171D01*
X0181573Y0201237D01*
X0172221Y0202171D02*
X0171287Y0203105D01*
X0168169Y0202171D02*
X0168169Y0197500D01*
X0169104Y0200302D02*
X0167235Y0200302D01*
X0168169Y0202171D02*
X0167235Y0203105D01*
X0165052Y0200302D02*
X0164118Y0201237D01*
X0162250Y0201237D01*
X0161316Y0200302D01*
X0161316Y0199368D01*
X0165052Y0199368D01*
X0165052Y0198434D02*
X0165052Y0200302D01*
X0165052Y0198434D02*
X0164118Y0197500D01*
X0162250Y0197500D01*
X0158975Y0197500D02*
X0158975Y0201237D01*
X0157107Y0201237D02*
X0156173Y0201237D01*
X0157107Y0201237D02*
X0158975Y0199368D01*
X0153911Y0200302D02*
X0152977Y0201237D01*
X0150174Y0201237D01*
X0151108Y0199368D02*
X0152977Y0199368D01*
X0153911Y0200302D01*
X0153911Y0197500D02*
X0151108Y0197500D01*
X0150174Y0198434D01*
X0151108Y0199368D01*
X0193570Y0197500D02*
X0195438Y0197500D01*
X0194504Y0197500D02*
X0194504Y0203105D01*
X0195438Y0203105D01*
X0197779Y0200302D02*
X0197779Y0199368D01*
X0201515Y0199368D01*
X0201515Y0198434D02*
X0201515Y0200302D01*
X0200581Y0201237D01*
X0198713Y0201237D01*
X0197779Y0200302D01*
X0198713Y0197500D02*
X0200581Y0197500D01*
X0201515Y0198434D01*
X0203856Y0197500D02*
X0203856Y0200302D01*
X0204790Y0201237D01*
X0207592Y0201237D01*
X0207592Y0197500D01*
X0209933Y0197500D02*
X0212736Y0197500D01*
X0213670Y0198434D01*
X0212736Y0199368D01*
X0209933Y0199368D01*
X0209933Y0200302D02*
X0209933Y0197500D01*
X0209933Y0200302D02*
X0210867Y0201237D01*
X0212736Y0201237D01*
X0216010Y0202171D02*
X0216010Y0200302D01*
X0216944Y0199368D01*
X0219747Y0199368D01*
X0219747Y0197500D02*
X0219747Y0203105D01*
X0216944Y0203105D01*
X0216010Y0202171D01*
X0228007Y0201237D02*
X0229875Y0201237D01*
X0228941Y0202171D02*
X0228941Y0198434D01*
X0228007Y0197500D01*
X0232216Y0197500D02*
X0232216Y0200302D01*
X0233150Y0201237D01*
X0235953Y0201237D01*
X0235953Y0197500D01*
X0238293Y0198434D02*
X0238293Y0200302D01*
X0239227Y0201237D01*
X0241096Y0201237D01*
X0242030Y0200302D01*
X0242030Y0198434D01*
X0241096Y0197500D01*
X0239227Y0197500D01*
X0238293Y0198434D01*
X0244292Y0201237D02*
X0245226Y0201237D01*
X0247094Y0199368D01*
X0247094Y0197500D02*
X0247094Y0201237D01*
X0249435Y0203105D02*
X0253171Y0203105D01*
X0253171Y0197500D01*
X0253171Y0200302D02*
X0251303Y0200302D01*
X0390498Y0187837D02*
X0392367Y0187837D01*
X0391433Y0188771D02*
X0391433Y0185034D01*
X0390498Y0184100D01*
X0394550Y0186902D02*
X0396418Y0186902D01*
X0395484Y0188771D02*
X0394550Y0189705D01*
X0395484Y0188771D02*
X0395484Y0184100D01*
X0398759Y0184100D02*
X0401561Y0184100D01*
X0402495Y0185034D01*
X0402495Y0186902D01*
X0401561Y0187837D01*
X0398759Y0187837D01*
X0404836Y0189705D02*
X0408573Y0184100D01*
X0410913Y0184100D02*
X0413716Y0184100D01*
X0414650Y0185034D01*
X0414650Y0186902D01*
X0413716Y0187837D01*
X0410913Y0187837D01*
X0410913Y0183166D01*
X0411847Y0182232D01*
X0412782Y0182232D01*
X0416912Y0187837D02*
X0417846Y0187837D01*
X0419714Y0185968D01*
X0419714Y0184100D02*
X0419714Y0187837D01*
X0422055Y0186902D02*
X0422989Y0187837D01*
X0424857Y0187837D01*
X0425791Y0186902D01*
X0425791Y0185034D01*
X0424857Y0184100D01*
X0422989Y0184100D01*
X0422055Y0185034D01*
X0422055Y0186902D01*
X0427896Y0185034D02*
X0427896Y0184100D01*
X0428830Y0184100D01*
X0428830Y0185034D01*
X0427896Y0185034D01*
X0431171Y0184100D02*
X0431171Y0186902D01*
X0432105Y0187837D01*
X0434907Y0187837D01*
X0434907Y0184100D01*
X0437248Y0184100D02*
X0440050Y0184100D01*
X0440984Y0185034D01*
X0440050Y0185968D01*
X0437248Y0185968D01*
X0437248Y0186902D02*
X0437248Y0184100D01*
X0437248Y0186902D02*
X0438182Y0187837D01*
X0440050Y0187837D01*
X0444102Y0189705D02*
X0444102Y0184100D01*
X0445036Y0184100D02*
X0443167Y0184100D01*
X0447376Y0184100D02*
X0447376Y0186902D01*
X0448311Y0187837D01*
X0449245Y0186902D01*
X0449245Y0184100D01*
X0451113Y0184100D02*
X0451113Y0187837D01*
X0450179Y0187837D01*
X0449245Y0186902D01*
X0453454Y0186902D02*
X0454388Y0187837D01*
X0456256Y0187837D01*
X0457190Y0186902D01*
X0457190Y0185034D01*
X0456256Y0184100D01*
X0454388Y0184100D01*
X0453454Y0185034D01*
X0453454Y0186902D01*
X0459531Y0186902D02*
X0460465Y0187837D01*
X0462333Y0187837D01*
X0463267Y0186902D01*
X0463267Y0185034D01*
X0462333Y0184100D01*
X0460465Y0184100D01*
X0459531Y0185034D01*
X0459531Y0186902D01*
X0465529Y0187837D02*
X0466463Y0187837D01*
X0468332Y0185968D01*
X0468332Y0184100D02*
X0468332Y0187837D01*
X0470672Y0187837D02*
X0473475Y0187837D01*
X0474409Y0186902D01*
X0474409Y0185034D01*
X0473475Y0184100D01*
X0470672Y0184100D01*
X0470672Y0189705D01*
X0476749Y0186902D02*
X0476749Y0185968D01*
X0480486Y0185968D01*
X0480486Y0185034D02*
X0480486Y0186902D01*
X0479552Y0187837D01*
X0477684Y0187837D01*
X0476749Y0186902D01*
X0477684Y0184100D02*
X0479552Y0184100D01*
X0480486Y0185034D01*
X0482827Y0185034D02*
X0483761Y0184100D01*
X0486563Y0184100D01*
X0486563Y0189705D01*
X0486563Y0187837D02*
X0483761Y0187837D01*
X0482827Y0186902D01*
X0482827Y0185034D01*
X0488668Y0185034D02*
X0488668Y0184100D01*
X0489602Y0184100D01*
X0489602Y0185034D01*
X0488668Y0185034D01*
X0491942Y0185034D02*
X0492877Y0184100D01*
X0493811Y0185034D01*
X0494745Y0184100D01*
X0495679Y0185034D01*
X0495679Y0187837D01*
X0498020Y0187837D02*
X0498020Y0185034D01*
X0498954Y0184100D01*
X0499888Y0185034D01*
X0500822Y0184100D01*
X0501756Y0185034D01*
X0501756Y0187837D01*
X0504097Y0187837D02*
X0504097Y0185034D01*
X0505031Y0184100D01*
X0505965Y0185034D01*
X0506899Y0184100D01*
X0507833Y0185034D01*
X0507833Y0187837D01*
X0491942Y0187837D02*
X0491942Y0185034D01*
X0445036Y0189705D02*
X0444102Y0189705D01*
X0548833Y0199100D02*
X0548833Y0201902D01*
X0549767Y0202837D01*
X0550702Y0202837D01*
X0551636Y0201902D01*
X0551636Y0199100D01*
X0554438Y0199100D02*
X0548833Y0199100D01*
X0551636Y0201902D02*
X0552570Y0202837D01*
X0553504Y0202837D01*
X0554438Y0201902D01*
X0554438Y0199100D01*
X0552570Y0205177D02*
X0549767Y0205177D01*
X0548833Y0206111D01*
X0548833Y0208914D01*
X0552570Y0208914D01*
X0551636Y0211254D02*
X0552570Y0212189D01*
X0552570Y0214991D01*
X0550702Y0214057D02*
X0550702Y0212189D01*
X0551636Y0211254D01*
X0548833Y0211254D02*
X0548833Y0214057D01*
X0549767Y0214991D01*
X0550702Y0214057D01*
X0554438Y0223409D02*
X0554438Y0227145D01*
X0554438Y0225277D02*
X0548833Y0225277D01*
X0549767Y0229486D02*
X0551636Y0229486D01*
X0552570Y0230420D01*
X0552570Y0232288D01*
X0551636Y0233222D01*
X0550702Y0233222D01*
X0550702Y0229486D01*
X0549767Y0229486D02*
X0548833Y0230420D01*
X0548833Y0232288D01*
X0548833Y0235563D02*
X0552570Y0235563D01*
X0552570Y0237431D02*
X0552570Y0238366D01*
X0552570Y0237431D02*
X0550702Y0235563D01*
X0552570Y0240627D02*
X0552570Y0241562D01*
X0551636Y0242496D01*
X0552570Y0243430D01*
X0551636Y0244364D01*
X0548833Y0244364D01*
X0548833Y0242496D02*
X0551636Y0242496D01*
X0552570Y0240627D02*
X0548833Y0240627D01*
X0548833Y0246705D02*
X0548833Y0248573D01*
X0548833Y0247639D02*
X0552570Y0247639D01*
X0552570Y0246705D01*
X0554438Y0247639D02*
X0555372Y0247639D01*
X0552570Y0250756D02*
X0552570Y0253558D01*
X0551636Y0254493D01*
X0548833Y0254493D01*
X0549767Y0256833D02*
X0550702Y0257767D01*
X0550702Y0260570D01*
X0551636Y0260570D02*
X0548833Y0260570D01*
X0548833Y0257767D01*
X0549767Y0256833D01*
X0552570Y0257767D02*
X0552570Y0259636D01*
X0551636Y0260570D01*
X0552570Y0262910D02*
X0552570Y0264779D01*
X0553504Y0263845D02*
X0549767Y0263845D01*
X0548833Y0264779D01*
X0548833Y0266962D02*
X0548833Y0268830D01*
X0548833Y0267896D02*
X0552570Y0267896D01*
X0552570Y0266962D01*
X0554438Y0267896D02*
X0555372Y0267896D01*
X0551636Y0271013D02*
X0552570Y0271948D01*
X0552570Y0273816D01*
X0551636Y0274750D01*
X0549767Y0274750D01*
X0548833Y0273816D01*
X0548833Y0271948D01*
X0549767Y0271013D01*
X0551636Y0271013D01*
X0552570Y0277091D02*
X0552570Y0279893D01*
X0551636Y0280827D01*
X0548833Y0280827D01*
X0548833Y0277091D02*
X0552570Y0277091D01*
X0552570Y0289245D02*
X0554438Y0291113D01*
X0554438Y0293296D02*
X0548833Y0293296D01*
X0548833Y0296099D01*
X0549767Y0297033D01*
X0550702Y0297033D01*
X0551636Y0296099D01*
X0551636Y0293296D01*
X0554438Y0293296D02*
X0554438Y0296099D01*
X0553504Y0297033D01*
X0552570Y0297033D01*
X0551636Y0296099D01*
X0552570Y0299374D02*
X0549767Y0299374D01*
X0548833Y0300308D01*
X0548833Y0303110D01*
X0552570Y0303110D01*
X0551636Y0305451D02*
X0552570Y0306385D01*
X0552570Y0309187D01*
X0550702Y0308253D02*
X0549767Y0309187D01*
X0548833Y0308253D01*
X0548833Y0305451D01*
X0550702Y0306385D02*
X0551636Y0305451D01*
X0550702Y0306385D02*
X0550702Y0308253D01*
X0551636Y0317605D02*
X0551636Y0321342D01*
X0551636Y0323682D02*
X0549767Y0323682D01*
X0548833Y0324616D01*
X0548833Y0326485D01*
X0549767Y0327419D01*
X0551636Y0327419D01*
X0552570Y0326485D01*
X0552570Y0324616D01*
X0551636Y0323682D01*
X0554438Y0321342D02*
X0548833Y0321342D01*
X0548833Y0317605D02*
X0554438Y0317605D01*
X0554438Y0329760D02*
X0554438Y0330694D01*
X0548833Y0330694D01*
X0548833Y0329760D02*
X0548833Y0331628D01*
X0549767Y0333811D02*
X0551636Y0333811D01*
X0552570Y0334745D01*
X0552570Y0337548D01*
X0554438Y0337548D02*
X0548833Y0337548D01*
X0548833Y0334745D01*
X0549767Y0333811D01*
X0548833Y0339888D02*
X0550702Y0341756D01*
X0552570Y0341756D01*
X0554438Y0339888D01*
X0548833Y0291113D02*
X0550702Y0289245D01*
X0552570Y0289245D01*
X0552570Y0250756D02*
X0548833Y0250756D01*
X0160695Y0372500D02*
X0160695Y0378105D01*
X0158827Y0376237D01*
X0156959Y0378105D01*
X0156959Y0372500D01*
X0154618Y0372500D02*
X0152750Y0372500D01*
X0153684Y0372500D02*
X0153684Y0376237D01*
X0154618Y0376237D01*
X0153684Y0378105D02*
X0153684Y0379039D01*
X0150567Y0375302D02*
X0150567Y0373434D01*
X0149633Y0372500D01*
X0146830Y0372500D01*
X0144489Y0372500D02*
X0144489Y0376237D01*
X0142621Y0376237D02*
X0141687Y0376237D01*
X0142621Y0376237D02*
X0144489Y0374368D01*
X0146830Y0376237D02*
X0149633Y0376237D01*
X0150567Y0375302D01*
X0139425Y0375302D02*
X0139425Y0373434D01*
X0138491Y0372500D01*
X0136623Y0372500D01*
X0135689Y0373434D01*
X0135689Y0375302D01*
X0136623Y0376237D01*
X0138491Y0376237D01*
X0139425Y0375302D01*
X0133348Y0376237D02*
X0133348Y0370632D01*
X0133348Y0372500D02*
X0130546Y0372500D01*
X0129611Y0373434D01*
X0129611Y0375302D01*
X0130546Y0376237D01*
X0133348Y0376237D01*
X0127271Y0376237D02*
X0127271Y0372500D01*
X0127271Y0374368D02*
X0125403Y0376237D01*
X0124468Y0376237D01*
X0122206Y0375302D02*
X0122206Y0373434D01*
X0121272Y0372500D01*
X0119404Y0372500D01*
X0118470Y0373434D01*
X0118470Y0375302D01*
X0119404Y0376237D01*
X0121272Y0376237D01*
X0122206Y0375302D01*
X0116129Y0375302D02*
X0116129Y0373434D01*
X0115195Y0372500D01*
X0112393Y0372500D01*
X0112393Y0371566D02*
X0112393Y0376237D01*
X0115195Y0376237D01*
X0116129Y0375302D01*
X0114261Y0370632D02*
X0113327Y0370632D01*
X0112393Y0371566D01*
X0110052Y0372500D02*
X0110052Y0376237D01*
X0108184Y0376237D02*
X0107250Y0376237D01*
X0108184Y0376237D02*
X0110052Y0374368D01*
X0104988Y0373434D02*
X0104054Y0374368D01*
X0101251Y0374368D01*
X0101251Y0375302D02*
X0101251Y0372500D01*
X0104054Y0372500D01*
X0104988Y0373434D01*
X0104054Y0376237D02*
X0102185Y0376237D01*
X0101251Y0375302D01*
X0098911Y0376237D02*
X0098911Y0372500D01*
X0097042Y0372500D02*
X0097042Y0375302D01*
X0096108Y0376237D01*
X0095174Y0375302D01*
X0095174Y0372500D01*
X0097042Y0375302D02*
X0097976Y0376237D01*
X0098911Y0376237D01*
X0097898Y0366237D02*
X0097898Y0362500D01*
X0097898Y0364368D02*
X0096029Y0366237D01*
X0095095Y0366237D01*
X0100238Y0365302D02*
X0100238Y0364368D01*
X0103975Y0364368D01*
X0103975Y0363434D02*
X0103975Y0365302D01*
X0103041Y0366237D01*
X0101172Y0366237D01*
X0100238Y0365302D01*
X0101172Y0362500D02*
X0103041Y0362500D01*
X0103975Y0363434D01*
X0106158Y0362500D02*
X0107092Y0363434D01*
X0107092Y0367171D01*
X0108026Y0366237D02*
X0106158Y0366237D01*
X0110367Y0365302D02*
X0110367Y0362500D01*
X0110367Y0365302D02*
X0111301Y0366237D01*
X0114104Y0366237D01*
X0114104Y0362500D01*
X0116444Y0362500D02*
X0116444Y0366237D01*
X0120181Y0366237D02*
X0120181Y0363434D01*
X0119247Y0362500D01*
X0116444Y0362500D01*
X0122521Y0363434D02*
X0122521Y0365302D01*
X0123456Y0366237D01*
X0125324Y0366237D01*
X0126258Y0365302D01*
X0126258Y0363434D01*
X0125324Y0362500D01*
X0123456Y0362500D01*
X0122521Y0363434D01*
X0128599Y0363434D02*
X0129533Y0362500D01*
X0131401Y0362500D01*
X0132335Y0363434D01*
X0132335Y0367171D01*
X0131401Y0368105D01*
X0129533Y0368105D01*
X0128599Y0367171D01*
D13*
X0105815Y0100055D02*
X0105815Y0094150D01*
X0107783Y0094150D02*
X0103847Y0094150D01*
X0101338Y0095134D02*
X0100354Y0094150D01*
X0098385Y0094150D01*
X0097401Y0095134D01*
X0097401Y0096118D01*
X0098385Y0097103D01*
X0099369Y0097103D01*
X0098385Y0097103D02*
X0097401Y0098087D01*
X0097401Y0099071D01*
X0098385Y0100055D01*
X0100354Y0100055D01*
X0101338Y0099071D01*
X0105815Y0100055D02*
X0107783Y0098087D01*
X0094892Y0099071D02*
X0093908Y0100055D01*
X0091940Y0100055D01*
X0090956Y0099071D01*
X0090956Y0098087D01*
X0091940Y0097103D01*
X0090956Y0096118D01*
X0090956Y0095134D01*
X0091940Y0094150D01*
X0093908Y0094150D01*
X0094892Y0095134D01*
X0092924Y0097103D02*
X0091940Y0097103D01*
X0088447Y0098087D02*
X0086478Y0100055D01*
X0086478Y0094150D01*
X0084510Y0094150D02*
X0088447Y0094150D01*
D14*
X0151054Y0190100D02*
X0152556Y0190100D01*
X0153306Y0190851D01*
X0150304Y0193853D01*
X0150304Y0190851D01*
X0151054Y0190100D01*
X0153306Y0190851D02*
X0153306Y0193853D01*
X0152556Y0194604D01*
X0151054Y0194604D01*
X0150304Y0193853D01*
X0154908Y0193853D02*
X0155658Y0194604D01*
X0157159Y0194604D01*
X0157910Y0193853D01*
X0159511Y0193853D02*
X0160262Y0194604D01*
X0161763Y0194604D01*
X0162514Y0193853D01*
X0162514Y0190851D01*
X0161763Y0190100D01*
X0160262Y0190100D01*
X0159511Y0190851D01*
X0157910Y0190100D02*
X0154908Y0193103D01*
X0154908Y0193853D01*
X0154908Y0190100D02*
X0157910Y0190100D01*
X0164082Y0190100D02*
X0165583Y0190100D01*
X0164833Y0190100D02*
X0164833Y0194604D01*
X0165583Y0194604D02*
X0164082Y0194604D01*
X0147395Y0232850D02*
X0147395Y0237354D01*
X0145143Y0237354D01*
X0144393Y0236603D01*
X0144393Y0235102D01*
X0145143Y0234351D01*
X0147395Y0234351D01*
X0145894Y0234351D02*
X0144393Y0232850D01*
X0142791Y0232850D02*
X0142791Y0237354D01*
X0139789Y0232850D01*
X0139789Y0237354D01*
X0138187Y0236603D02*
X0137437Y0237354D01*
X0135935Y0237354D01*
X0135185Y0236603D01*
X0135185Y0235853D01*
X0135935Y0235102D01*
X0135185Y0234351D01*
X0135185Y0233601D01*
X0135935Y0232850D01*
X0137437Y0232850D01*
X0138187Y0233601D01*
X0136686Y0235102D02*
X0135935Y0235102D01*
X0104895Y0242850D02*
X0104895Y0247354D01*
X0102643Y0247354D01*
X0101893Y0246603D01*
X0101893Y0245102D01*
X0102643Y0244351D01*
X0104895Y0244351D01*
X0103394Y0244351D02*
X0101893Y0242850D01*
X0100291Y0242850D02*
X0100291Y0247354D01*
X0097289Y0242850D01*
X0097289Y0247354D01*
X0095687Y0246603D02*
X0094937Y0247354D01*
X0093435Y0247354D01*
X0092685Y0246603D01*
X0092685Y0245853D01*
X0095687Y0242850D01*
X0092685Y0242850D01*
X0122664Y0275795D02*
X0122664Y0280299D01*
X0124916Y0278047D01*
X0121914Y0278047D01*
X0121914Y0281795D02*
X0124916Y0281795D01*
X0121914Y0284797D01*
X0121914Y0285548D01*
X0122664Y0286299D01*
X0124166Y0286299D01*
X0124916Y0285548D01*
X0126518Y0285548D02*
X0127268Y0286299D01*
X0128770Y0286299D01*
X0129520Y0285548D01*
X0129520Y0282546D01*
X0128770Y0281795D01*
X0127268Y0281795D01*
X0126518Y0282546D01*
X0127268Y0280299D02*
X0128770Y0280299D01*
X0129520Y0279548D01*
X0129520Y0276546D01*
X0128770Y0275795D01*
X0127268Y0275795D01*
X0126518Y0276546D01*
X0126518Y0279548D02*
X0127268Y0280299D01*
X0190935Y0247354D02*
X0190935Y0242850D01*
X0190185Y0245102D02*
X0193187Y0245102D01*
X0190935Y0247354D01*
X0194789Y0247354D02*
X0194789Y0242850D01*
X0197791Y0247354D01*
X0197791Y0242850D01*
X0199393Y0242850D02*
X0200894Y0244351D01*
X0200143Y0244351D02*
X0202395Y0244351D01*
X0202395Y0242850D02*
X0202395Y0247354D01*
X0200143Y0247354D01*
X0199393Y0246603D01*
X0199393Y0245102D01*
X0200143Y0244351D01*
X0232685Y0237354D02*
X0235687Y0237354D01*
X0235687Y0235102D01*
X0234186Y0235853D01*
X0233435Y0235853D01*
X0232685Y0235102D01*
X0232685Y0233601D01*
X0233435Y0232850D01*
X0234937Y0232850D01*
X0235687Y0233601D01*
X0237289Y0232850D02*
X0237289Y0237354D01*
X0240291Y0237354D02*
X0237289Y0232850D01*
X0240291Y0232850D02*
X0240291Y0237354D01*
X0241893Y0236603D02*
X0241893Y0235102D01*
X0242643Y0234351D01*
X0244895Y0234351D01*
X0244895Y0232850D02*
X0244895Y0237354D01*
X0242643Y0237354D01*
X0241893Y0236603D01*
X0243394Y0234351D02*
X0241893Y0232850D01*
X0255935Y0242850D02*
X0255935Y0247354D01*
X0258187Y0245102D01*
X0255185Y0245102D01*
X0259789Y0242850D02*
X0262791Y0242850D01*
X0261290Y0242850D02*
X0261290Y0247354D01*
X0262791Y0245853D01*
X0264393Y0246603D02*
X0264393Y0245102D01*
X0265143Y0244351D01*
X0267395Y0244351D01*
X0267395Y0242850D02*
X0267395Y0247354D01*
X0265143Y0247354D01*
X0264393Y0246603D01*
X0265894Y0244351D02*
X0264393Y0242850D01*
X0292685Y0243601D02*
X0292685Y0244351D01*
X0293435Y0245102D01*
X0295687Y0245102D01*
X0295687Y0243601D01*
X0294937Y0242850D01*
X0293435Y0242850D01*
X0292685Y0243601D01*
X0294186Y0246603D02*
X0295687Y0245102D01*
X0294186Y0246603D02*
X0292685Y0247354D01*
X0297289Y0247354D02*
X0297289Y0242850D01*
X0300291Y0247354D01*
X0300291Y0242850D01*
X0301893Y0242850D02*
X0303394Y0244351D01*
X0302643Y0244351D02*
X0304895Y0244351D01*
X0304895Y0242850D02*
X0304895Y0247354D01*
X0302643Y0247354D01*
X0301893Y0246603D01*
X0301893Y0245102D01*
X0302643Y0244351D01*
X0335185Y0237354D02*
X0335185Y0236603D01*
X0338187Y0233601D01*
X0338187Y0232850D01*
X0339789Y0232850D02*
X0339789Y0237354D01*
X0338187Y0237354D02*
X0335185Y0237354D01*
X0339789Y0232850D02*
X0342791Y0237354D01*
X0342791Y0232850D01*
X0344393Y0232850D02*
X0345894Y0234351D01*
X0345143Y0234351D02*
X0347395Y0234351D01*
X0347395Y0232850D02*
X0347395Y0237354D01*
X0345143Y0237354D01*
X0344393Y0236603D01*
X0344393Y0235102D01*
X0345143Y0234351D01*
X0333770Y0275795D02*
X0332268Y0275795D01*
X0331518Y0276546D01*
X0329916Y0275795D02*
X0326914Y0275795D01*
X0328415Y0275795D02*
X0328415Y0280299D01*
X0329916Y0278797D01*
X0331518Y0279548D02*
X0332268Y0280299D01*
X0333770Y0280299D01*
X0334520Y0279548D01*
X0334520Y0276546D01*
X0333770Y0275795D01*
X0333770Y0281795D02*
X0332268Y0281795D01*
X0331518Y0282546D01*
X0329916Y0282546D02*
X0329166Y0281795D01*
X0327664Y0281795D01*
X0326914Y0282546D01*
X0326914Y0285548D01*
X0327664Y0286299D01*
X0329166Y0286299D01*
X0329916Y0285548D01*
X0329916Y0284797D01*
X0329166Y0284047D01*
X0326914Y0284047D01*
X0324562Y0280299D02*
X0323061Y0280299D01*
X0322310Y0279548D01*
X0325312Y0276546D01*
X0324562Y0275795D01*
X0323061Y0275795D01*
X0322310Y0276546D01*
X0322310Y0279548D01*
X0324562Y0280299D02*
X0325312Y0279548D01*
X0325312Y0276546D01*
X0331518Y0285548D02*
X0332268Y0286299D01*
X0333770Y0286299D01*
X0334520Y0285548D01*
X0334520Y0282546D01*
X0333770Y0281795D01*
X0420373Y0309601D02*
X0421124Y0308850D01*
X0422625Y0308850D01*
X0423375Y0309601D01*
X0420373Y0312603D01*
X0420373Y0309601D01*
X0420373Y0312603D02*
X0421124Y0313354D01*
X0422625Y0313354D01*
X0423375Y0312603D01*
X0423375Y0309601D01*
X0424977Y0308850D02*
X0427979Y0308850D01*
X0426478Y0308850D02*
X0426478Y0313354D01*
X0427979Y0311853D01*
X0429581Y0312603D02*
X0429581Y0311102D01*
X0430331Y0310351D01*
X0432583Y0310351D01*
X0431082Y0310351D02*
X0429581Y0308850D01*
X0432583Y0308850D02*
X0432583Y0313354D01*
X0430331Y0313354D01*
X0429581Y0312603D01*
X0446686Y0288854D02*
X0446686Y0284350D01*
X0448187Y0284350D02*
X0445185Y0284350D01*
X0448187Y0287353D02*
X0446686Y0288854D01*
X0451290Y0288854D02*
X0451290Y0284350D01*
X0452791Y0284350D02*
X0449789Y0284350D01*
X0452791Y0287353D02*
X0451290Y0288854D01*
X0454393Y0288103D02*
X0454393Y0286602D01*
X0455143Y0285851D01*
X0457395Y0285851D01*
X0457395Y0284350D02*
X0457395Y0288854D01*
X0455143Y0288854D01*
X0454393Y0288103D01*
X0455894Y0285851D02*
X0454393Y0284350D01*
X0454479Y0257854D02*
X0451477Y0253350D01*
X0451477Y0257854D01*
X0449875Y0256353D02*
X0448374Y0257854D01*
X0448374Y0253350D01*
X0449875Y0253350D02*
X0446873Y0253350D01*
X0445272Y0253350D02*
X0445272Y0254101D01*
X0442269Y0257103D01*
X0442269Y0257854D01*
X0445272Y0257854D01*
X0454479Y0257854D02*
X0454479Y0253350D01*
X0456081Y0253350D02*
X0457582Y0254851D01*
X0456831Y0254851D02*
X0459083Y0254851D01*
X0459083Y0253350D02*
X0459083Y0257854D01*
X0456831Y0257854D01*
X0456081Y0257103D01*
X0456081Y0255602D01*
X0456831Y0254851D01*
X0438924Y0244250D02*
X0438924Y0237950D01*
X0439082Y0228354D02*
X0440583Y0228354D01*
X0439833Y0228354D02*
X0439833Y0223850D01*
X0440583Y0223850D02*
X0439082Y0223850D01*
X0437514Y0224601D02*
X0436763Y0223850D01*
X0435262Y0223850D01*
X0434511Y0224601D01*
X0432910Y0224601D02*
X0432910Y0225351D01*
X0432159Y0226102D01*
X0430658Y0226102D01*
X0429908Y0225351D01*
X0429908Y0224601D01*
X0430658Y0223850D01*
X0432159Y0223850D01*
X0432910Y0224601D01*
X0432159Y0226102D02*
X0432910Y0226853D01*
X0432910Y0227603D01*
X0432159Y0228354D01*
X0430658Y0228354D01*
X0429908Y0227603D01*
X0429908Y0226853D01*
X0430658Y0226102D01*
X0434511Y0227603D02*
X0435262Y0228354D01*
X0436763Y0228354D01*
X0437514Y0227603D01*
X0437514Y0224601D01*
X0427743Y0237950D02*
X0427743Y0244250D01*
X0463435Y0327850D02*
X0464937Y0327850D01*
X0465687Y0328601D01*
X0467289Y0327850D02*
X0470291Y0327850D01*
X0468790Y0327850D02*
X0468790Y0332354D01*
X0470291Y0330853D01*
X0471893Y0332354D02*
X0471893Y0327850D01*
X0474895Y0332354D01*
X0474895Y0327850D01*
X0476497Y0327850D02*
X0477998Y0329351D01*
X0477247Y0329351D02*
X0479499Y0329351D01*
X0479499Y0327850D02*
X0479499Y0332354D01*
X0477247Y0332354D01*
X0476497Y0331603D01*
X0476497Y0330102D01*
X0477247Y0329351D01*
X0482685Y0330102D02*
X0485687Y0330102D01*
X0483435Y0332354D01*
X0483435Y0327850D01*
X0487289Y0327850D02*
X0490291Y0327850D01*
X0488790Y0327850D02*
X0488790Y0332354D01*
X0490291Y0330853D01*
X0491893Y0332354D02*
X0491893Y0327850D01*
X0494895Y0332354D01*
X0494895Y0327850D01*
X0496497Y0327850D02*
X0497998Y0329351D01*
X0497247Y0329351D02*
X0499499Y0329351D01*
X0499499Y0327850D02*
X0499499Y0332354D01*
X0497247Y0332354D01*
X0496497Y0331603D01*
X0496497Y0330102D01*
X0497247Y0329351D01*
X0465687Y0331603D02*
X0464937Y0332354D01*
X0463435Y0332354D01*
X0462685Y0331603D01*
X0462685Y0330853D01*
X0463435Y0330102D01*
X0462685Y0329351D01*
X0462685Y0328601D01*
X0463435Y0327850D01*
X0463435Y0330102D02*
X0464186Y0330102D01*
X0549685Y0380101D02*
X0550435Y0379350D01*
X0551937Y0379350D01*
X0552687Y0380101D01*
X0554289Y0379350D02*
X0557291Y0379350D01*
X0554289Y0382353D01*
X0554289Y0383103D01*
X0555039Y0383854D01*
X0556541Y0383854D01*
X0557291Y0383103D01*
X0558893Y0383103D02*
X0559643Y0383854D01*
X0561145Y0383854D01*
X0561895Y0383103D01*
X0561895Y0380101D01*
X0561145Y0379350D01*
X0559643Y0379350D01*
X0558893Y0380101D01*
X0563463Y0379350D02*
X0564964Y0379350D01*
X0564214Y0379350D02*
X0564214Y0383854D01*
X0564964Y0383854D02*
X0563463Y0383854D01*
X0552687Y0383103D02*
X0551937Y0383854D01*
X0550435Y0383854D01*
X0549685Y0383103D01*
X0549685Y0382353D01*
X0550435Y0381602D01*
X0549685Y0380851D01*
X0549685Y0380101D01*
X0550435Y0381602D02*
X0551186Y0381602D01*
X0541083Y0440350D02*
X0541083Y0444854D01*
X0538831Y0444854D01*
X0538081Y0444103D01*
X0538081Y0442602D01*
X0538831Y0441851D01*
X0541083Y0441851D01*
X0539582Y0441851D02*
X0538081Y0440350D01*
X0536479Y0440350D02*
X0533477Y0440350D01*
X0534978Y0440350D02*
X0534978Y0444854D01*
X0536479Y0443353D01*
X0531875Y0443353D02*
X0531875Y0444103D01*
X0531125Y0444854D01*
X0529624Y0444854D01*
X0528873Y0444103D01*
X0528873Y0443353D01*
X0529624Y0442602D01*
X0531125Y0442602D01*
X0531875Y0443353D01*
X0531125Y0442602D02*
X0531875Y0441851D01*
X0531875Y0441101D01*
X0531125Y0440350D01*
X0529624Y0440350D01*
X0528873Y0441101D01*
X0528873Y0441851D01*
X0529624Y0442602D01*
X0456083Y0441851D02*
X0453831Y0441851D01*
X0453081Y0442602D01*
X0453081Y0444103D01*
X0453831Y0444854D01*
X0456083Y0444854D01*
X0456083Y0440350D01*
X0454582Y0441851D02*
X0453081Y0440350D01*
X0451479Y0440350D02*
X0448477Y0440350D01*
X0449978Y0440350D02*
X0449978Y0444854D01*
X0451479Y0443353D01*
X0446875Y0442602D02*
X0444624Y0442602D01*
X0443873Y0441851D01*
X0443873Y0441101D01*
X0444624Y0440350D01*
X0446125Y0440350D01*
X0446875Y0441101D01*
X0446875Y0442602D01*
X0445374Y0444103D01*
X0443873Y0444854D01*
X0440083Y0444854D02*
X0437831Y0444854D01*
X0437081Y0444103D01*
X0437081Y0442602D01*
X0437831Y0441851D01*
X0440083Y0441851D01*
X0438582Y0441851D02*
X0437081Y0440350D01*
X0435479Y0440350D02*
X0435479Y0444854D01*
X0432477Y0440350D01*
X0432477Y0444854D01*
X0430875Y0443353D02*
X0429374Y0444854D01*
X0429374Y0440350D01*
X0430875Y0440350D02*
X0427873Y0440350D01*
X0426272Y0441101D02*
X0426272Y0441851D01*
X0425521Y0442602D01*
X0424020Y0442602D01*
X0423269Y0441851D01*
X0423269Y0441101D01*
X0424020Y0440350D01*
X0425521Y0440350D01*
X0426272Y0441101D01*
X0425521Y0442602D02*
X0426272Y0443353D01*
X0426272Y0444103D01*
X0425521Y0444854D01*
X0424020Y0444854D01*
X0423269Y0444103D01*
X0423269Y0443353D01*
X0424020Y0442602D01*
X0417083Y0441851D02*
X0414831Y0441851D01*
X0414081Y0442602D01*
X0414081Y0444103D01*
X0414831Y0444854D01*
X0417083Y0444854D01*
X0417083Y0440350D01*
X0415582Y0441851D02*
X0414081Y0440350D01*
X0412479Y0440350D02*
X0412479Y0444854D01*
X0409477Y0440350D01*
X0409477Y0444854D01*
X0407875Y0443353D02*
X0406374Y0444854D01*
X0406374Y0440350D01*
X0407875Y0440350D02*
X0404873Y0440350D01*
X0403272Y0441101D02*
X0402521Y0440350D01*
X0401020Y0440350D01*
X0400269Y0441101D01*
X0400269Y0441851D01*
X0401020Y0442602D01*
X0403272Y0442602D01*
X0403272Y0441101D01*
X0403272Y0442602D02*
X0401770Y0444103D01*
X0400269Y0444854D01*
X0393583Y0444854D02*
X0393583Y0440350D01*
X0393583Y0441851D02*
X0391331Y0441851D01*
X0390581Y0442602D01*
X0390581Y0444103D01*
X0391331Y0444854D01*
X0393583Y0444854D01*
X0392082Y0441851D02*
X0390581Y0440350D01*
X0388979Y0440350D02*
X0385977Y0440350D01*
X0387478Y0440350D02*
X0387478Y0444854D01*
X0388979Y0443353D01*
X0384375Y0443353D02*
X0383625Y0442602D01*
X0381373Y0442602D01*
X0381373Y0444103D02*
X0382124Y0444854D01*
X0383625Y0444854D01*
X0384375Y0444103D01*
X0384375Y0443353D01*
X0384375Y0441101D02*
X0383625Y0440350D01*
X0382124Y0440350D01*
X0381373Y0441101D01*
X0381373Y0444103D01*
X0376083Y0444854D02*
X0373831Y0444854D01*
X0373081Y0444103D01*
X0373081Y0442602D01*
X0373831Y0441851D01*
X0376083Y0441851D01*
X0374582Y0441851D02*
X0373081Y0440350D01*
X0371479Y0440350D02*
X0368477Y0440350D01*
X0369978Y0440350D02*
X0369978Y0444854D01*
X0371479Y0443353D01*
X0366875Y0444854D02*
X0363873Y0444854D01*
X0363873Y0444103D01*
X0366875Y0441101D01*
X0366875Y0440350D01*
X0376083Y0440350D02*
X0376083Y0444854D01*
X0352583Y0444354D02*
X0350331Y0444354D01*
X0349581Y0443603D01*
X0349581Y0442102D01*
X0350331Y0441351D01*
X0352583Y0441351D01*
X0351082Y0441351D02*
X0349581Y0439850D01*
X0347979Y0439850D02*
X0347979Y0444354D01*
X0344977Y0439850D01*
X0344977Y0444354D01*
X0343375Y0442853D02*
X0341874Y0444354D01*
X0341874Y0439850D01*
X0343375Y0439850D02*
X0340373Y0439850D01*
X0338772Y0439850D02*
X0335769Y0442853D01*
X0335769Y0443603D01*
X0336520Y0444354D01*
X0338021Y0444354D01*
X0338772Y0443603D01*
X0338772Y0439850D02*
X0335769Y0439850D01*
X0352583Y0439850D02*
X0352583Y0444354D01*
X0287583Y0444354D02*
X0285331Y0444354D01*
X0284581Y0443603D01*
X0284581Y0442102D01*
X0285331Y0441351D01*
X0287583Y0441351D01*
X0286082Y0441351D02*
X0284581Y0439850D01*
X0282979Y0439850D02*
X0282979Y0444354D01*
X0279977Y0439850D01*
X0279977Y0444354D01*
X0278375Y0442853D02*
X0276874Y0444354D01*
X0276874Y0439850D01*
X0278375Y0439850D02*
X0275373Y0439850D01*
X0273772Y0440601D02*
X0273021Y0439850D01*
X0271520Y0439850D01*
X0270769Y0440601D01*
X0270769Y0443603D01*
X0271520Y0444354D01*
X0273021Y0444354D01*
X0273772Y0443603D01*
X0273772Y0442853D01*
X0273021Y0442102D01*
X0270769Y0442102D01*
X0287583Y0439850D02*
X0287583Y0444354D01*
X0237895Y0387354D02*
X0235643Y0387354D01*
X0234893Y0386603D01*
X0234893Y0385102D01*
X0235643Y0384351D01*
X0237895Y0384351D01*
X0237895Y0382850D02*
X0237895Y0387354D01*
X0236394Y0384351D02*
X0234893Y0382850D01*
X0233291Y0382850D02*
X0230289Y0382850D01*
X0231790Y0382850D02*
X0231790Y0387354D01*
X0233291Y0385853D01*
X0228687Y0385102D02*
X0227186Y0385853D01*
X0226435Y0385853D01*
X0225685Y0385102D01*
X0225685Y0383601D01*
X0226435Y0382850D01*
X0227937Y0382850D01*
X0228687Y0383601D01*
X0228687Y0385102D02*
X0228687Y0387354D01*
X0225685Y0387354D01*
X0136791Y0432350D02*
X0136791Y0436854D01*
X0134539Y0436854D01*
X0133789Y0436103D01*
X0133789Y0434602D01*
X0134539Y0433851D01*
X0136791Y0433851D01*
X0135290Y0433851D02*
X0133789Y0432350D01*
X0132187Y0433101D02*
X0131437Y0432350D01*
X0129935Y0432350D01*
X0129185Y0433101D01*
X0129185Y0436103D01*
X0129935Y0436854D01*
X0131437Y0436854D01*
X0132187Y0436103D01*
X0132187Y0435353D01*
X0131437Y0434602D01*
X0129185Y0434602D01*
X0107583Y0447350D02*
X0107583Y0451854D01*
X0105331Y0451854D01*
X0104581Y0451103D01*
X0104581Y0449602D01*
X0105331Y0448851D01*
X0107583Y0448851D01*
X0106082Y0448851D02*
X0104581Y0447350D01*
X0102979Y0447350D02*
X0102979Y0451854D01*
X0099977Y0447350D01*
X0099977Y0451854D01*
X0098375Y0451103D02*
X0097625Y0451854D01*
X0096124Y0451854D01*
X0095373Y0451103D01*
X0095373Y0450353D01*
X0098375Y0447350D01*
X0095373Y0447350D01*
X0093772Y0447350D02*
X0090769Y0447350D01*
X0092270Y0447350D02*
X0092270Y0451854D01*
X0093772Y0450353D01*
X0071270Y0399299D02*
X0069768Y0399299D01*
X0069018Y0398548D01*
X0067416Y0399299D02*
X0067416Y0397047D01*
X0065915Y0397797D01*
X0065164Y0397797D01*
X0064414Y0397047D01*
X0064414Y0395546D01*
X0065164Y0394795D01*
X0066666Y0394795D01*
X0067416Y0395546D01*
X0069018Y0395546D02*
X0069768Y0394795D01*
X0071270Y0394795D01*
X0072020Y0395546D01*
X0072020Y0398548D01*
X0071270Y0399299D01*
X0067416Y0399299D02*
X0064414Y0399299D01*
X0077408Y0390103D02*
X0077408Y0389353D01*
X0078158Y0388602D01*
X0077408Y0387851D01*
X0077408Y0387101D01*
X0078158Y0386350D01*
X0079659Y0386350D01*
X0080410Y0387101D01*
X0082011Y0387101D02*
X0082762Y0386350D01*
X0084263Y0386350D01*
X0085014Y0387101D01*
X0085014Y0390103D01*
X0084263Y0390854D01*
X0082762Y0390854D01*
X0082011Y0390103D01*
X0080410Y0390103D02*
X0079659Y0390854D01*
X0078158Y0390854D01*
X0077408Y0390103D01*
X0078158Y0388602D02*
X0078909Y0388602D01*
X0086582Y0390854D02*
X0088083Y0390854D01*
X0087333Y0390854D02*
X0087333Y0386350D01*
X0088083Y0386350D02*
X0086582Y0386350D01*
X0224414Y0286299D02*
X0224414Y0285548D01*
X0227416Y0282546D01*
X0227416Y0281795D01*
X0226666Y0280299D02*
X0227416Y0279548D01*
X0227416Y0278797D01*
X0226666Y0278047D01*
X0225164Y0278047D01*
X0224414Y0277296D01*
X0224414Y0276546D01*
X0225164Y0275795D01*
X0226666Y0275795D01*
X0227416Y0276546D01*
X0227416Y0277296D01*
X0226666Y0278047D01*
X0225164Y0278047D02*
X0224414Y0278797D01*
X0224414Y0279548D01*
X0225164Y0280299D01*
X0226666Y0280299D01*
X0229018Y0279548D02*
X0229768Y0280299D01*
X0231270Y0280299D01*
X0232020Y0279548D01*
X0232020Y0276546D01*
X0231270Y0275795D01*
X0229768Y0275795D01*
X0229018Y0276546D01*
X0229768Y0281795D02*
X0229018Y0282546D01*
X0229768Y0281795D02*
X0231270Y0281795D01*
X0232020Y0282546D01*
X0232020Y0285548D01*
X0231270Y0286299D01*
X0229768Y0286299D01*
X0229018Y0285548D01*
X0227416Y0286299D02*
X0224414Y0286299D01*
X0224659Y0194604D02*
X0225410Y0193853D01*
X0224659Y0194604D02*
X0223158Y0194604D01*
X0222408Y0193853D01*
X0222408Y0193103D01*
X0225410Y0190100D01*
X0222408Y0190100D01*
X0220806Y0190100D02*
X0217804Y0190100D01*
X0219305Y0190100D02*
X0219305Y0194604D01*
X0220806Y0193103D01*
X0227011Y0193853D02*
X0227762Y0194604D01*
X0229263Y0194604D01*
X0230014Y0193853D01*
X0230014Y0190851D01*
X0229263Y0190100D01*
X0227762Y0190100D01*
X0227011Y0190851D01*
X0231582Y0190100D02*
X0233083Y0190100D01*
X0232333Y0190100D02*
X0232333Y0194604D01*
X0233083Y0194604D02*
X0231582Y0194604D01*
X0307804Y0183853D02*
X0308554Y0184604D01*
X0310056Y0184604D01*
X0310806Y0183853D01*
X0312408Y0183853D02*
X0313158Y0184604D01*
X0314659Y0184604D01*
X0315410Y0183853D01*
X0317011Y0183853D02*
X0317762Y0184604D01*
X0319263Y0184604D01*
X0320014Y0183853D01*
X0320014Y0180851D01*
X0319263Y0180100D01*
X0317762Y0180100D01*
X0317011Y0180851D01*
X0315410Y0180100D02*
X0312408Y0183103D01*
X0312408Y0183853D01*
X0312408Y0180100D02*
X0315410Y0180100D01*
X0310806Y0180100D02*
X0307804Y0183103D01*
X0307804Y0183853D01*
X0307804Y0180100D02*
X0310806Y0180100D01*
X0321582Y0180100D02*
X0323083Y0180100D01*
X0322333Y0180100D02*
X0322333Y0184604D01*
X0323083Y0184604D02*
X0321582Y0184604D01*
X0560435Y0299350D02*
X0560435Y0303854D01*
X0562687Y0301602D01*
X0559685Y0301602D01*
X0564289Y0302353D02*
X0564289Y0303103D01*
X0565039Y0303854D01*
X0566541Y0303854D01*
X0567291Y0303103D01*
X0568893Y0303103D02*
X0569643Y0303854D01*
X0571145Y0303854D01*
X0571895Y0303103D01*
X0571895Y0300101D01*
X0571145Y0299350D01*
X0569643Y0299350D01*
X0568893Y0300101D01*
X0567291Y0299350D02*
X0564289Y0302353D01*
X0564289Y0299350D02*
X0567291Y0299350D01*
X0573463Y0299350D02*
X0574964Y0299350D01*
X0574214Y0299350D02*
X0574214Y0303854D01*
X0574964Y0303854D02*
X0573463Y0303854D01*
X0585748Y0313656D02*
X0586498Y0312905D01*
X0588000Y0312905D01*
X0588750Y0313656D01*
X0588750Y0314406D01*
X0588000Y0315157D01*
X0586498Y0315157D01*
X0585748Y0314406D01*
X0585748Y0313656D01*
X0586498Y0315157D02*
X0585748Y0315908D01*
X0585748Y0316658D01*
X0586498Y0317409D01*
X0588000Y0317409D01*
X0588750Y0316658D01*
X0588750Y0315908D01*
X0588000Y0315157D01*
X0590352Y0315908D02*
X0593354Y0312905D01*
X0590352Y0312905D01*
X0590352Y0315908D02*
X0590352Y0316658D01*
X0591102Y0317409D01*
X0592604Y0317409D01*
X0593354Y0316658D01*
X0594956Y0316658D02*
X0595706Y0317409D01*
X0597207Y0317409D01*
X0597958Y0316658D01*
X0597958Y0313656D01*
X0597207Y0312905D01*
X0595706Y0312905D01*
X0594956Y0313656D01*
X0595706Y0234909D02*
X0597207Y0234909D01*
X0597958Y0234158D01*
X0597958Y0231156D01*
X0597207Y0230405D01*
X0595706Y0230405D01*
X0594956Y0231156D01*
X0593354Y0230405D02*
X0590352Y0233408D01*
X0590352Y0234158D01*
X0591102Y0234909D01*
X0592604Y0234909D01*
X0593354Y0234158D01*
X0594956Y0234158D02*
X0595706Y0234909D01*
X0593354Y0230405D02*
X0590352Y0230405D01*
X0588750Y0231156D02*
X0588000Y0230405D01*
X0586498Y0230405D01*
X0585748Y0231156D01*
X0585748Y0234158D01*
X0586498Y0234909D01*
X0588000Y0234909D01*
X0588750Y0234158D01*
X0588750Y0233408D01*
X0588000Y0232657D01*
X0585748Y0232657D01*
X0577464Y0228854D02*
X0575963Y0228854D01*
X0576714Y0228854D02*
X0576714Y0224350D01*
X0577464Y0224350D02*
X0575963Y0224350D01*
X0574395Y0225101D02*
X0574395Y0228103D01*
X0573645Y0228854D01*
X0572143Y0228854D01*
X0571393Y0228103D01*
X0569791Y0228103D02*
X0569041Y0228854D01*
X0567539Y0228854D01*
X0566789Y0228103D01*
X0566789Y0227353D01*
X0569791Y0224350D01*
X0566789Y0224350D01*
X0565187Y0225101D02*
X0564437Y0224350D01*
X0562935Y0224350D01*
X0562185Y0225101D01*
X0562185Y0226602D01*
X0562935Y0227353D01*
X0563686Y0227353D01*
X0565187Y0226602D01*
X0565187Y0228854D01*
X0562185Y0228854D01*
X0571393Y0225101D02*
X0572143Y0224350D01*
X0573645Y0224350D01*
X0574395Y0225101D01*
X0581998Y0158909D02*
X0581248Y0158158D01*
X0581248Y0157408D01*
X0581998Y0156657D01*
X0581248Y0155906D01*
X0581248Y0155156D01*
X0581998Y0154405D01*
X0583500Y0154405D01*
X0584250Y0155156D01*
X0585852Y0155156D02*
X0586602Y0154405D01*
X0588104Y0154405D01*
X0588854Y0155156D01*
X0590456Y0155156D02*
X0591206Y0154405D01*
X0592707Y0154405D01*
X0593458Y0155156D01*
X0593458Y0158158D01*
X0592707Y0158909D01*
X0591206Y0158909D01*
X0590456Y0158158D01*
X0588854Y0158158D02*
X0588104Y0158909D01*
X0586602Y0158909D01*
X0585852Y0158158D01*
X0585852Y0157408D01*
X0586602Y0156657D01*
X0585852Y0155906D01*
X0585852Y0155156D01*
X0586602Y0156657D02*
X0587353Y0156657D01*
X0584250Y0158158D02*
X0583500Y0158909D01*
X0581998Y0158909D01*
X0581998Y0156657D02*
X0582749Y0156657D01*
X0440083Y0440350D02*
X0440083Y0444854D01*
D15*
X0080814Y0382852D02*
X0065853Y0382852D01*
X0078353Y0382655D02*
X0078353Y0344545D01*
X0080814Y0344348D02*
X0065853Y0344348D01*
D16*
X0087231Y0259053D02*
X0087231Y0253147D01*
X0099436Y0253147D02*
X0099436Y0259053D01*
X0129731Y0249053D02*
X0129731Y0243147D01*
X0141936Y0243147D02*
X0141936Y0249053D01*
X0189731Y0253147D02*
X0189731Y0259053D01*
X0201936Y0259053D02*
X0201936Y0253147D01*
X0232231Y0249053D02*
X0232231Y0243147D01*
X0244436Y0243147D02*
X0244436Y0249053D01*
X0292231Y0253147D02*
X0292231Y0259053D01*
X0304436Y0259053D02*
X0304436Y0253147D01*
X0334731Y0249053D02*
X0334731Y0243147D01*
X0346936Y0243147D02*
X0346936Y0249053D01*
X0448731Y0266647D02*
X0448731Y0272553D01*
X0460936Y0272553D02*
X0460936Y0266647D01*
X0462231Y0338147D02*
X0462231Y0344053D01*
X0474436Y0344053D02*
X0474436Y0338147D01*
X0482231Y0338147D02*
X0482231Y0344053D01*
X0494436Y0344053D02*
X0494436Y0338147D01*
X0444436Y0428147D02*
X0444436Y0434053D01*
X0432231Y0434053D02*
X0432231Y0428147D01*
X0409436Y0428147D02*
X0409436Y0434053D01*
X0397231Y0434053D02*
X0397231Y0428147D01*
X0359436Y0428147D02*
X0359436Y0434053D01*
X0347231Y0434053D02*
X0347231Y0428147D01*
X0286936Y0428147D02*
X0286936Y0434053D01*
X0274731Y0434053D02*
X0274731Y0428147D01*
X0111936Y0435647D02*
X0111936Y0441553D01*
X0099731Y0441553D02*
X0099731Y0435647D01*
D17*
X0433333Y0236021D02*
X0433333Y0235982D01*
D18*
X0438333Y0238502D02*
X0438333Y0243659D01*
X0428294Y0243659D01*
X0428294Y0238502D01*
X0438333Y0238502D01*
D19*
X0567733Y0257900D02*
X0567733Y0266100D01*
X0567733Y0276100D01*
X0567733Y0284300D01*
X0567735Y0284376D01*
X0567741Y0284452D01*
X0567750Y0284527D01*
X0567764Y0284602D01*
X0567781Y0284676D01*
X0567802Y0284749D01*
X0567826Y0284821D01*
X0567855Y0284892D01*
X0567886Y0284961D01*
X0567921Y0285028D01*
X0567960Y0285093D01*
X0568002Y0285157D01*
X0568047Y0285218D01*
X0568095Y0285277D01*
X0568146Y0285333D01*
X0568200Y0285387D01*
X0568256Y0285438D01*
X0568315Y0285486D01*
X0568376Y0285531D01*
X0568440Y0285573D01*
X0568505Y0285612D01*
X0568572Y0285647D01*
X0568641Y0285678D01*
X0568712Y0285707D01*
X0568784Y0285731D01*
X0568857Y0285752D01*
X0568931Y0285769D01*
X0569006Y0285783D01*
X0569081Y0285792D01*
X0569157Y0285798D01*
X0569233Y0285800D01*
X0567733Y0276100D02*
X0567873Y0276098D01*
X0568013Y0276092D01*
X0568153Y0276082D01*
X0568293Y0276069D01*
X0568432Y0276051D01*
X0568571Y0276029D01*
X0568708Y0276004D01*
X0568846Y0275975D01*
X0568982Y0275942D01*
X0569117Y0275905D01*
X0569251Y0275864D01*
X0569384Y0275819D01*
X0569516Y0275771D01*
X0569646Y0275719D01*
X0569775Y0275664D01*
X0569902Y0275605D01*
X0570028Y0275542D01*
X0570152Y0275476D01*
X0570273Y0275407D01*
X0570393Y0275334D01*
X0570511Y0275257D01*
X0570626Y0275178D01*
X0570740Y0275095D01*
X0570850Y0275009D01*
X0570959Y0274920D01*
X0571065Y0274828D01*
X0571168Y0274733D01*
X0571269Y0274636D01*
X0571366Y0274535D01*
X0571461Y0274432D01*
X0571553Y0274326D01*
X0571642Y0274217D01*
X0571728Y0274107D01*
X0571811Y0273993D01*
X0571890Y0273878D01*
X0571967Y0273760D01*
X0572040Y0273640D01*
X0572109Y0273519D01*
X0572175Y0273395D01*
X0572238Y0273269D01*
X0572297Y0273142D01*
X0572352Y0273013D01*
X0572404Y0272883D01*
X0572452Y0272751D01*
X0572497Y0272618D01*
X0572538Y0272484D01*
X0572575Y0272349D01*
X0572608Y0272213D01*
X0572637Y0272075D01*
X0572662Y0271938D01*
X0572684Y0271799D01*
X0572702Y0271660D01*
X0572715Y0271520D01*
X0572725Y0271380D01*
X0572731Y0271240D01*
X0572733Y0271100D01*
X0572731Y0270960D01*
X0572725Y0270820D01*
X0572715Y0270680D01*
X0572702Y0270540D01*
X0572684Y0270401D01*
X0572662Y0270262D01*
X0572637Y0270125D01*
X0572608Y0269987D01*
X0572575Y0269851D01*
X0572538Y0269716D01*
X0572497Y0269582D01*
X0572452Y0269449D01*
X0572404Y0269317D01*
X0572352Y0269187D01*
X0572297Y0269058D01*
X0572238Y0268931D01*
X0572175Y0268805D01*
X0572109Y0268681D01*
X0572040Y0268560D01*
X0571967Y0268440D01*
X0571890Y0268322D01*
X0571811Y0268207D01*
X0571728Y0268093D01*
X0571642Y0267983D01*
X0571553Y0267874D01*
X0571461Y0267768D01*
X0571366Y0267665D01*
X0571269Y0267564D01*
X0571168Y0267467D01*
X0571065Y0267372D01*
X0570959Y0267280D01*
X0570850Y0267191D01*
X0570740Y0267105D01*
X0570626Y0267022D01*
X0570511Y0266943D01*
X0570393Y0266866D01*
X0570273Y0266793D01*
X0570152Y0266724D01*
X0570028Y0266658D01*
X0569902Y0266595D01*
X0569775Y0266536D01*
X0569646Y0266481D01*
X0569516Y0266429D01*
X0569384Y0266381D01*
X0569251Y0266336D01*
X0569117Y0266295D01*
X0568982Y0266258D01*
X0568846Y0266225D01*
X0568708Y0266196D01*
X0568571Y0266171D01*
X0568432Y0266149D01*
X0568293Y0266131D01*
X0568153Y0266118D01*
X0568013Y0266108D01*
X0567873Y0266102D01*
X0567733Y0266100D01*
X0567733Y0257900D02*
X0567735Y0257824D01*
X0567741Y0257748D01*
X0567750Y0257673D01*
X0567764Y0257598D01*
X0567781Y0257524D01*
X0567802Y0257451D01*
X0567826Y0257379D01*
X0567855Y0257308D01*
X0567886Y0257239D01*
X0567921Y0257172D01*
X0567960Y0257107D01*
X0568002Y0257043D01*
X0568047Y0256982D01*
X0568095Y0256923D01*
X0568146Y0256867D01*
X0568200Y0256813D01*
X0568256Y0256762D01*
X0568315Y0256714D01*
X0568376Y0256669D01*
X0568440Y0256627D01*
X0568505Y0256588D01*
X0568572Y0256553D01*
X0568641Y0256522D01*
X0568712Y0256493D01*
X0568784Y0256469D01*
X0568857Y0256448D01*
X0568931Y0256431D01*
X0569006Y0256417D01*
X0569081Y0256408D01*
X0569157Y0256402D01*
X0569233Y0256400D01*
X0617433Y0256400D02*
X0617509Y0256402D01*
X0617585Y0256408D01*
X0617660Y0256417D01*
X0617735Y0256431D01*
X0617809Y0256448D01*
X0617882Y0256469D01*
X0617954Y0256493D01*
X0618025Y0256522D01*
X0618094Y0256553D01*
X0618161Y0256588D01*
X0618226Y0256627D01*
X0618290Y0256669D01*
X0618351Y0256714D01*
X0618410Y0256762D01*
X0618466Y0256813D01*
X0618520Y0256867D01*
X0618571Y0256923D01*
X0618619Y0256982D01*
X0618664Y0257043D01*
X0618706Y0257107D01*
X0618745Y0257172D01*
X0618780Y0257239D01*
X0618811Y0257308D01*
X0618840Y0257379D01*
X0618864Y0257451D01*
X0618885Y0257524D01*
X0618902Y0257598D01*
X0618916Y0257673D01*
X0618925Y0257748D01*
X0618931Y0257824D01*
X0618933Y0257900D01*
X0618933Y0284300D01*
X0618931Y0284376D01*
X0618925Y0284452D01*
X0618916Y0284527D01*
X0618902Y0284602D01*
X0618885Y0284676D01*
X0618864Y0284749D01*
X0618840Y0284821D01*
X0618811Y0284892D01*
X0618780Y0284961D01*
X0618745Y0285028D01*
X0618706Y0285093D01*
X0618664Y0285157D01*
X0618619Y0285218D01*
X0618571Y0285277D01*
X0618520Y0285333D01*
X0618466Y0285387D01*
X0618410Y0285438D01*
X0618351Y0285486D01*
X0618290Y0285531D01*
X0618226Y0285573D01*
X0618161Y0285612D01*
X0618094Y0285647D01*
X0618025Y0285678D01*
X0617954Y0285707D01*
X0617882Y0285731D01*
X0617809Y0285752D01*
X0617735Y0285769D01*
X0617660Y0285783D01*
X0617585Y0285792D01*
X0617509Y0285798D01*
X0617433Y0285800D01*
X0617433Y0341400D02*
X0617509Y0341402D01*
X0617585Y0341408D01*
X0617660Y0341417D01*
X0617735Y0341431D01*
X0617809Y0341448D01*
X0617882Y0341469D01*
X0617954Y0341493D01*
X0618025Y0341522D01*
X0618094Y0341553D01*
X0618161Y0341588D01*
X0618226Y0341627D01*
X0618290Y0341669D01*
X0618351Y0341714D01*
X0618410Y0341762D01*
X0618466Y0341813D01*
X0618520Y0341867D01*
X0618571Y0341923D01*
X0618619Y0341982D01*
X0618664Y0342043D01*
X0618706Y0342107D01*
X0618745Y0342172D01*
X0618780Y0342239D01*
X0618811Y0342308D01*
X0618840Y0342379D01*
X0618864Y0342451D01*
X0618885Y0342524D01*
X0618902Y0342598D01*
X0618916Y0342673D01*
X0618925Y0342748D01*
X0618931Y0342824D01*
X0618933Y0342900D01*
X0618933Y0369300D01*
X0618931Y0369376D01*
X0618925Y0369452D01*
X0618916Y0369527D01*
X0618902Y0369602D01*
X0618885Y0369676D01*
X0618864Y0369749D01*
X0618840Y0369821D01*
X0618811Y0369892D01*
X0618780Y0369961D01*
X0618745Y0370028D01*
X0618706Y0370093D01*
X0618664Y0370157D01*
X0618619Y0370218D01*
X0618571Y0370277D01*
X0618520Y0370333D01*
X0618466Y0370387D01*
X0618410Y0370438D01*
X0618351Y0370486D01*
X0618290Y0370531D01*
X0618226Y0370573D01*
X0618161Y0370612D01*
X0618094Y0370647D01*
X0618025Y0370678D01*
X0617954Y0370707D01*
X0617882Y0370731D01*
X0617809Y0370752D01*
X0617735Y0370769D01*
X0617660Y0370783D01*
X0617585Y0370792D01*
X0617509Y0370798D01*
X0617433Y0370800D01*
X0569233Y0370800D02*
X0569157Y0370798D01*
X0569081Y0370792D01*
X0569006Y0370783D01*
X0568931Y0370769D01*
X0568857Y0370752D01*
X0568784Y0370731D01*
X0568712Y0370707D01*
X0568641Y0370678D01*
X0568572Y0370647D01*
X0568505Y0370612D01*
X0568440Y0370573D01*
X0568376Y0370531D01*
X0568315Y0370486D01*
X0568256Y0370438D01*
X0568200Y0370387D01*
X0568146Y0370333D01*
X0568095Y0370277D01*
X0568047Y0370218D01*
X0568002Y0370157D01*
X0567960Y0370093D01*
X0567921Y0370028D01*
X0567886Y0369961D01*
X0567855Y0369892D01*
X0567826Y0369821D01*
X0567802Y0369749D01*
X0567781Y0369676D01*
X0567764Y0369602D01*
X0567750Y0369527D01*
X0567741Y0369452D01*
X0567735Y0369376D01*
X0567733Y0369300D01*
X0567733Y0361100D01*
X0567733Y0351100D01*
X0567733Y0342900D01*
X0567735Y0342824D01*
X0567741Y0342748D01*
X0567750Y0342673D01*
X0567764Y0342598D01*
X0567781Y0342524D01*
X0567802Y0342451D01*
X0567826Y0342379D01*
X0567855Y0342308D01*
X0567886Y0342239D01*
X0567921Y0342172D01*
X0567960Y0342107D01*
X0568002Y0342043D01*
X0568047Y0341982D01*
X0568095Y0341923D01*
X0568146Y0341867D01*
X0568200Y0341813D01*
X0568256Y0341762D01*
X0568315Y0341714D01*
X0568376Y0341669D01*
X0568440Y0341627D01*
X0568505Y0341588D01*
X0568572Y0341553D01*
X0568641Y0341522D01*
X0568712Y0341493D01*
X0568784Y0341469D01*
X0568857Y0341448D01*
X0568931Y0341431D01*
X0569006Y0341417D01*
X0569081Y0341408D01*
X0569157Y0341402D01*
X0569233Y0341400D01*
X0567733Y0351100D02*
X0567873Y0351102D01*
X0568013Y0351108D01*
X0568153Y0351118D01*
X0568293Y0351131D01*
X0568432Y0351149D01*
X0568571Y0351171D01*
X0568708Y0351196D01*
X0568846Y0351225D01*
X0568982Y0351258D01*
X0569117Y0351295D01*
X0569251Y0351336D01*
X0569384Y0351381D01*
X0569516Y0351429D01*
X0569646Y0351481D01*
X0569775Y0351536D01*
X0569902Y0351595D01*
X0570028Y0351658D01*
X0570152Y0351724D01*
X0570273Y0351793D01*
X0570393Y0351866D01*
X0570511Y0351943D01*
X0570626Y0352022D01*
X0570740Y0352105D01*
X0570850Y0352191D01*
X0570959Y0352280D01*
X0571065Y0352372D01*
X0571168Y0352467D01*
X0571269Y0352564D01*
X0571366Y0352665D01*
X0571461Y0352768D01*
X0571553Y0352874D01*
X0571642Y0352983D01*
X0571728Y0353093D01*
X0571811Y0353207D01*
X0571890Y0353322D01*
X0571967Y0353440D01*
X0572040Y0353560D01*
X0572109Y0353681D01*
X0572175Y0353805D01*
X0572238Y0353931D01*
X0572297Y0354058D01*
X0572352Y0354187D01*
X0572404Y0354317D01*
X0572452Y0354449D01*
X0572497Y0354582D01*
X0572538Y0354716D01*
X0572575Y0354851D01*
X0572608Y0354987D01*
X0572637Y0355125D01*
X0572662Y0355262D01*
X0572684Y0355401D01*
X0572702Y0355540D01*
X0572715Y0355680D01*
X0572725Y0355820D01*
X0572731Y0355960D01*
X0572733Y0356100D01*
X0572731Y0356240D01*
X0572725Y0356380D01*
X0572715Y0356520D01*
X0572702Y0356660D01*
X0572684Y0356799D01*
X0572662Y0356938D01*
X0572637Y0357075D01*
X0572608Y0357213D01*
X0572575Y0357349D01*
X0572538Y0357484D01*
X0572497Y0357618D01*
X0572452Y0357751D01*
X0572404Y0357883D01*
X0572352Y0358013D01*
X0572297Y0358142D01*
X0572238Y0358269D01*
X0572175Y0358395D01*
X0572109Y0358519D01*
X0572040Y0358640D01*
X0571967Y0358760D01*
X0571890Y0358878D01*
X0571811Y0358993D01*
X0571728Y0359107D01*
X0571642Y0359217D01*
X0571553Y0359326D01*
X0571461Y0359432D01*
X0571366Y0359535D01*
X0571269Y0359636D01*
X0571168Y0359733D01*
X0571065Y0359828D01*
X0570959Y0359920D01*
X0570850Y0360009D01*
X0570740Y0360095D01*
X0570626Y0360178D01*
X0570511Y0360257D01*
X0570393Y0360334D01*
X0570273Y0360407D01*
X0570152Y0360476D01*
X0570028Y0360542D01*
X0569902Y0360605D01*
X0569775Y0360664D01*
X0569646Y0360719D01*
X0569516Y0360771D01*
X0569384Y0360819D01*
X0569251Y0360864D01*
X0569117Y0360905D01*
X0568982Y0360942D01*
X0568846Y0360975D01*
X0568708Y0361004D01*
X0568571Y0361029D01*
X0568432Y0361051D01*
X0568293Y0361069D01*
X0568153Y0361082D01*
X0568013Y0361092D01*
X0567873Y0361098D01*
X0567733Y0361100D01*
X0567733Y0209300D02*
X0567733Y0201100D01*
X0567733Y0191100D01*
X0567733Y0182900D01*
X0567735Y0182824D01*
X0567741Y0182748D01*
X0567750Y0182673D01*
X0567764Y0182598D01*
X0567781Y0182524D01*
X0567802Y0182451D01*
X0567826Y0182379D01*
X0567855Y0182308D01*
X0567886Y0182239D01*
X0567921Y0182172D01*
X0567960Y0182107D01*
X0568002Y0182043D01*
X0568047Y0181982D01*
X0568095Y0181923D01*
X0568146Y0181867D01*
X0568200Y0181813D01*
X0568256Y0181762D01*
X0568315Y0181714D01*
X0568376Y0181669D01*
X0568440Y0181627D01*
X0568505Y0181588D01*
X0568572Y0181553D01*
X0568641Y0181522D01*
X0568712Y0181493D01*
X0568784Y0181469D01*
X0568857Y0181448D01*
X0568931Y0181431D01*
X0569006Y0181417D01*
X0569081Y0181408D01*
X0569157Y0181402D01*
X0569233Y0181400D01*
X0567733Y0191100D02*
X0567873Y0191102D01*
X0568013Y0191108D01*
X0568153Y0191118D01*
X0568293Y0191131D01*
X0568432Y0191149D01*
X0568571Y0191171D01*
X0568708Y0191196D01*
X0568846Y0191225D01*
X0568982Y0191258D01*
X0569117Y0191295D01*
X0569251Y0191336D01*
X0569384Y0191381D01*
X0569516Y0191429D01*
X0569646Y0191481D01*
X0569775Y0191536D01*
X0569902Y0191595D01*
X0570028Y0191658D01*
X0570152Y0191724D01*
X0570273Y0191793D01*
X0570393Y0191866D01*
X0570511Y0191943D01*
X0570626Y0192022D01*
X0570740Y0192105D01*
X0570850Y0192191D01*
X0570959Y0192280D01*
X0571065Y0192372D01*
X0571168Y0192467D01*
X0571269Y0192564D01*
X0571366Y0192665D01*
X0571461Y0192768D01*
X0571553Y0192874D01*
X0571642Y0192983D01*
X0571728Y0193093D01*
X0571811Y0193207D01*
X0571890Y0193322D01*
X0571967Y0193440D01*
X0572040Y0193560D01*
X0572109Y0193681D01*
X0572175Y0193805D01*
X0572238Y0193931D01*
X0572297Y0194058D01*
X0572352Y0194187D01*
X0572404Y0194317D01*
X0572452Y0194449D01*
X0572497Y0194582D01*
X0572538Y0194716D01*
X0572575Y0194851D01*
X0572608Y0194987D01*
X0572637Y0195125D01*
X0572662Y0195262D01*
X0572684Y0195401D01*
X0572702Y0195540D01*
X0572715Y0195680D01*
X0572725Y0195820D01*
X0572731Y0195960D01*
X0572733Y0196100D01*
X0572731Y0196240D01*
X0572725Y0196380D01*
X0572715Y0196520D01*
X0572702Y0196660D01*
X0572684Y0196799D01*
X0572662Y0196938D01*
X0572637Y0197075D01*
X0572608Y0197213D01*
X0572575Y0197349D01*
X0572538Y0197484D01*
X0572497Y0197618D01*
X0572452Y0197751D01*
X0572404Y0197883D01*
X0572352Y0198013D01*
X0572297Y0198142D01*
X0572238Y0198269D01*
X0572175Y0198395D01*
X0572109Y0198519D01*
X0572040Y0198640D01*
X0571967Y0198760D01*
X0571890Y0198878D01*
X0571811Y0198993D01*
X0571728Y0199107D01*
X0571642Y0199217D01*
X0571553Y0199326D01*
X0571461Y0199432D01*
X0571366Y0199535D01*
X0571269Y0199636D01*
X0571168Y0199733D01*
X0571065Y0199828D01*
X0570959Y0199920D01*
X0570850Y0200009D01*
X0570740Y0200095D01*
X0570626Y0200178D01*
X0570511Y0200257D01*
X0570393Y0200334D01*
X0570273Y0200407D01*
X0570152Y0200476D01*
X0570028Y0200542D01*
X0569902Y0200605D01*
X0569775Y0200664D01*
X0569646Y0200719D01*
X0569516Y0200771D01*
X0569384Y0200819D01*
X0569251Y0200864D01*
X0569117Y0200905D01*
X0568982Y0200942D01*
X0568846Y0200975D01*
X0568708Y0201004D01*
X0568571Y0201029D01*
X0568432Y0201051D01*
X0568293Y0201069D01*
X0568153Y0201082D01*
X0568013Y0201092D01*
X0567873Y0201098D01*
X0567733Y0201100D01*
X0567733Y0209300D02*
X0567735Y0209376D01*
X0567741Y0209452D01*
X0567750Y0209527D01*
X0567764Y0209602D01*
X0567781Y0209676D01*
X0567802Y0209749D01*
X0567826Y0209821D01*
X0567855Y0209892D01*
X0567886Y0209961D01*
X0567921Y0210028D01*
X0567960Y0210093D01*
X0568002Y0210157D01*
X0568047Y0210218D01*
X0568095Y0210277D01*
X0568146Y0210333D01*
X0568200Y0210387D01*
X0568256Y0210438D01*
X0568315Y0210486D01*
X0568376Y0210531D01*
X0568440Y0210573D01*
X0568505Y0210612D01*
X0568572Y0210647D01*
X0568641Y0210678D01*
X0568712Y0210707D01*
X0568784Y0210731D01*
X0568857Y0210752D01*
X0568931Y0210769D01*
X0569006Y0210783D01*
X0569081Y0210792D01*
X0569157Y0210798D01*
X0569233Y0210800D01*
X0617433Y0210800D02*
X0617509Y0210798D01*
X0617585Y0210792D01*
X0617660Y0210783D01*
X0617735Y0210769D01*
X0617809Y0210752D01*
X0617882Y0210731D01*
X0617954Y0210707D01*
X0618025Y0210678D01*
X0618094Y0210647D01*
X0618161Y0210612D01*
X0618226Y0210573D01*
X0618290Y0210531D01*
X0618351Y0210486D01*
X0618410Y0210438D01*
X0618466Y0210387D01*
X0618520Y0210333D01*
X0618571Y0210277D01*
X0618619Y0210218D01*
X0618664Y0210157D01*
X0618706Y0210093D01*
X0618745Y0210028D01*
X0618780Y0209961D01*
X0618811Y0209892D01*
X0618840Y0209821D01*
X0618864Y0209749D01*
X0618885Y0209676D01*
X0618902Y0209602D01*
X0618916Y0209527D01*
X0618925Y0209452D01*
X0618931Y0209376D01*
X0618933Y0209300D01*
X0618933Y0182900D01*
X0618931Y0182824D01*
X0618925Y0182748D01*
X0618916Y0182673D01*
X0618902Y0182598D01*
X0618885Y0182524D01*
X0618864Y0182451D01*
X0618840Y0182379D01*
X0618811Y0182308D01*
X0618780Y0182239D01*
X0618745Y0182172D01*
X0618706Y0182107D01*
X0618664Y0182043D01*
X0618619Y0181982D01*
X0618571Y0181923D01*
X0618520Y0181867D01*
X0618466Y0181813D01*
X0618410Y0181762D01*
X0618351Y0181714D01*
X0618290Y0181669D01*
X0618226Y0181627D01*
X0618161Y0181588D01*
X0618094Y0181553D01*
X0618025Y0181522D01*
X0617954Y0181493D01*
X0617882Y0181469D01*
X0617809Y0181448D01*
X0617735Y0181431D01*
X0617660Y0181417D01*
X0617585Y0181408D01*
X0617509Y0181402D01*
X0617433Y0181400D01*
X0301718Y0180336D02*
X0301718Y0156714D01*
X0252899Y0156714D01*
X0252899Y0180336D01*
X0301718Y0180336D01*
X0234218Y0180336D02*
X0234218Y0156714D01*
X0185399Y0156714D01*
X0185399Y0180336D01*
X0234218Y0180336D01*
X0166718Y0180336D02*
X0166718Y0156714D01*
X0117899Y0156714D01*
X0117899Y0180336D01*
X0166718Y0180336D01*
D20*
X0567833Y0209400D02*
X0618833Y0209400D01*
X0618833Y0284400D02*
X0567833Y0284400D01*
X0567833Y0369400D02*
X0618833Y0369400D01*
D21*
X0298962Y0159273D03*
X0231462Y0159273D03*
X0163962Y0159273D03*
D22*
X0048333Y0074200D02*
X0048333Y0468000D01*
X0679333Y0468000D01*
X0679333Y0074200D01*
X0048333Y0074200D01*
X0056833Y0101100D02*
X0056835Y0101261D01*
X0056841Y0101421D01*
X0056851Y0101582D01*
X0056865Y0101742D01*
X0056883Y0101902D01*
X0056904Y0102061D01*
X0056930Y0102220D01*
X0056960Y0102378D01*
X0056993Y0102535D01*
X0057031Y0102692D01*
X0057072Y0102847D01*
X0057117Y0103001D01*
X0057166Y0103154D01*
X0057219Y0103306D01*
X0057275Y0103457D01*
X0057336Y0103606D01*
X0057399Y0103754D01*
X0057467Y0103900D01*
X0057538Y0104044D01*
X0057612Y0104186D01*
X0057690Y0104327D01*
X0057772Y0104465D01*
X0057857Y0104602D01*
X0057945Y0104736D01*
X0058037Y0104868D01*
X0058132Y0104998D01*
X0058230Y0105126D01*
X0058331Y0105251D01*
X0058435Y0105373D01*
X0058542Y0105493D01*
X0058652Y0105610D01*
X0058765Y0105725D01*
X0058881Y0105836D01*
X0059000Y0105945D01*
X0059121Y0106050D01*
X0059245Y0106153D01*
X0059371Y0106253D01*
X0059499Y0106349D01*
X0059630Y0106442D01*
X0059764Y0106532D01*
X0059899Y0106619D01*
X0060037Y0106702D01*
X0060176Y0106782D01*
X0060318Y0106858D01*
X0060461Y0106931D01*
X0060606Y0107000D01*
X0060753Y0107066D01*
X0060901Y0107128D01*
X0061051Y0107186D01*
X0061202Y0107241D01*
X0061355Y0107292D01*
X0061509Y0107339D01*
X0061664Y0107382D01*
X0061820Y0107421D01*
X0061976Y0107457D01*
X0062134Y0107488D01*
X0062292Y0107516D01*
X0062451Y0107540D01*
X0062611Y0107560D01*
X0062771Y0107576D01*
X0062931Y0107588D01*
X0063092Y0107596D01*
X0063253Y0107600D01*
X0063413Y0107600D01*
X0063574Y0107596D01*
X0063735Y0107588D01*
X0063895Y0107576D01*
X0064055Y0107560D01*
X0064215Y0107540D01*
X0064374Y0107516D01*
X0064532Y0107488D01*
X0064690Y0107457D01*
X0064846Y0107421D01*
X0065002Y0107382D01*
X0065157Y0107339D01*
X0065311Y0107292D01*
X0065464Y0107241D01*
X0065615Y0107186D01*
X0065765Y0107128D01*
X0065913Y0107066D01*
X0066060Y0107000D01*
X0066205Y0106931D01*
X0066348Y0106858D01*
X0066490Y0106782D01*
X0066629Y0106702D01*
X0066767Y0106619D01*
X0066902Y0106532D01*
X0067036Y0106442D01*
X0067167Y0106349D01*
X0067295Y0106253D01*
X0067421Y0106153D01*
X0067545Y0106050D01*
X0067666Y0105945D01*
X0067785Y0105836D01*
X0067901Y0105725D01*
X0068014Y0105610D01*
X0068124Y0105493D01*
X0068231Y0105373D01*
X0068335Y0105251D01*
X0068436Y0105126D01*
X0068534Y0104998D01*
X0068629Y0104868D01*
X0068721Y0104736D01*
X0068809Y0104602D01*
X0068894Y0104465D01*
X0068976Y0104327D01*
X0069054Y0104186D01*
X0069128Y0104044D01*
X0069199Y0103900D01*
X0069267Y0103754D01*
X0069330Y0103606D01*
X0069391Y0103457D01*
X0069447Y0103306D01*
X0069500Y0103154D01*
X0069549Y0103001D01*
X0069594Y0102847D01*
X0069635Y0102692D01*
X0069673Y0102535D01*
X0069706Y0102378D01*
X0069736Y0102220D01*
X0069762Y0102061D01*
X0069783Y0101902D01*
X0069801Y0101742D01*
X0069815Y0101582D01*
X0069825Y0101421D01*
X0069831Y0101261D01*
X0069833Y0101100D01*
X0069831Y0100939D01*
X0069825Y0100779D01*
X0069815Y0100618D01*
X0069801Y0100458D01*
X0069783Y0100298D01*
X0069762Y0100139D01*
X0069736Y0099980D01*
X0069706Y0099822D01*
X0069673Y0099665D01*
X0069635Y0099508D01*
X0069594Y0099353D01*
X0069549Y0099199D01*
X0069500Y0099046D01*
X0069447Y0098894D01*
X0069391Y0098743D01*
X0069330Y0098594D01*
X0069267Y0098446D01*
X0069199Y0098300D01*
X0069128Y0098156D01*
X0069054Y0098014D01*
X0068976Y0097873D01*
X0068894Y0097735D01*
X0068809Y0097598D01*
X0068721Y0097464D01*
X0068629Y0097332D01*
X0068534Y0097202D01*
X0068436Y0097074D01*
X0068335Y0096949D01*
X0068231Y0096827D01*
X0068124Y0096707D01*
X0068014Y0096590D01*
X0067901Y0096475D01*
X0067785Y0096364D01*
X0067666Y0096255D01*
X0067545Y0096150D01*
X0067421Y0096047D01*
X0067295Y0095947D01*
X0067167Y0095851D01*
X0067036Y0095758D01*
X0066902Y0095668D01*
X0066767Y0095581D01*
X0066629Y0095498D01*
X0066490Y0095418D01*
X0066348Y0095342D01*
X0066205Y0095269D01*
X0066060Y0095200D01*
X0065913Y0095134D01*
X0065765Y0095072D01*
X0065615Y0095014D01*
X0065464Y0094959D01*
X0065311Y0094908D01*
X0065157Y0094861D01*
X0065002Y0094818D01*
X0064846Y0094779D01*
X0064690Y0094743D01*
X0064532Y0094712D01*
X0064374Y0094684D01*
X0064215Y0094660D01*
X0064055Y0094640D01*
X0063895Y0094624D01*
X0063735Y0094612D01*
X0063574Y0094604D01*
X0063413Y0094600D01*
X0063253Y0094600D01*
X0063092Y0094604D01*
X0062931Y0094612D01*
X0062771Y0094624D01*
X0062611Y0094640D01*
X0062451Y0094660D01*
X0062292Y0094684D01*
X0062134Y0094712D01*
X0061976Y0094743D01*
X0061820Y0094779D01*
X0061664Y0094818D01*
X0061509Y0094861D01*
X0061355Y0094908D01*
X0061202Y0094959D01*
X0061051Y0095014D01*
X0060901Y0095072D01*
X0060753Y0095134D01*
X0060606Y0095200D01*
X0060461Y0095269D01*
X0060318Y0095342D01*
X0060176Y0095418D01*
X0060037Y0095498D01*
X0059899Y0095581D01*
X0059764Y0095668D01*
X0059630Y0095758D01*
X0059499Y0095851D01*
X0059371Y0095947D01*
X0059245Y0096047D01*
X0059121Y0096150D01*
X0059000Y0096255D01*
X0058881Y0096364D01*
X0058765Y0096475D01*
X0058652Y0096590D01*
X0058542Y0096707D01*
X0058435Y0096827D01*
X0058331Y0096949D01*
X0058230Y0097074D01*
X0058132Y0097202D01*
X0058037Y0097332D01*
X0057945Y0097464D01*
X0057857Y0097598D01*
X0057772Y0097735D01*
X0057690Y0097873D01*
X0057612Y0098014D01*
X0057538Y0098156D01*
X0057467Y0098300D01*
X0057399Y0098446D01*
X0057336Y0098594D01*
X0057275Y0098743D01*
X0057219Y0098894D01*
X0057166Y0099046D01*
X0057117Y0099199D01*
X0057072Y0099353D01*
X0057031Y0099508D01*
X0056993Y0099665D01*
X0056960Y0099822D01*
X0056930Y0099980D01*
X0056904Y0100139D01*
X0056883Y0100298D01*
X0056865Y0100458D01*
X0056851Y0100618D01*
X0056841Y0100779D01*
X0056835Y0100939D01*
X0056833Y0101100D01*
X0056833Y0443600D02*
X0056835Y0443761D01*
X0056841Y0443921D01*
X0056851Y0444082D01*
X0056865Y0444242D01*
X0056883Y0444402D01*
X0056904Y0444561D01*
X0056930Y0444720D01*
X0056960Y0444878D01*
X0056993Y0445035D01*
X0057031Y0445192D01*
X0057072Y0445347D01*
X0057117Y0445501D01*
X0057166Y0445654D01*
X0057219Y0445806D01*
X0057275Y0445957D01*
X0057336Y0446106D01*
X0057399Y0446254D01*
X0057467Y0446400D01*
X0057538Y0446544D01*
X0057612Y0446686D01*
X0057690Y0446827D01*
X0057772Y0446965D01*
X0057857Y0447102D01*
X0057945Y0447236D01*
X0058037Y0447368D01*
X0058132Y0447498D01*
X0058230Y0447626D01*
X0058331Y0447751D01*
X0058435Y0447873D01*
X0058542Y0447993D01*
X0058652Y0448110D01*
X0058765Y0448225D01*
X0058881Y0448336D01*
X0059000Y0448445D01*
X0059121Y0448550D01*
X0059245Y0448653D01*
X0059371Y0448753D01*
X0059499Y0448849D01*
X0059630Y0448942D01*
X0059764Y0449032D01*
X0059899Y0449119D01*
X0060037Y0449202D01*
X0060176Y0449282D01*
X0060318Y0449358D01*
X0060461Y0449431D01*
X0060606Y0449500D01*
X0060753Y0449566D01*
X0060901Y0449628D01*
X0061051Y0449686D01*
X0061202Y0449741D01*
X0061355Y0449792D01*
X0061509Y0449839D01*
X0061664Y0449882D01*
X0061820Y0449921D01*
X0061976Y0449957D01*
X0062134Y0449988D01*
X0062292Y0450016D01*
X0062451Y0450040D01*
X0062611Y0450060D01*
X0062771Y0450076D01*
X0062931Y0450088D01*
X0063092Y0450096D01*
X0063253Y0450100D01*
X0063413Y0450100D01*
X0063574Y0450096D01*
X0063735Y0450088D01*
X0063895Y0450076D01*
X0064055Y0450060D01*
X0064215Y0450040D01*
X0064374Y0450016D01*
X0064532Y0449988D01*
X0064690Y0449957D01*
X0064846Y0449921D01*
X0065002Y0449882D01*
X0065157Y0449839D01*
X0065311Y0449792D01*
X0065464Y0449741D01*
X0065615Y0449686D01*
X0065765Y0449628D01*
X0065913Y0449566D01*
X0066060Y0449500D01*
X0066205Y0449431D01*
X0066348Y0449358D01*
X0066490Y0449282D01*
X0066629Y0449202D01*
X0066767Y0449119D01*
X0066902Y0449032D01*
X0067036Y0448942D01*
X0067167Y0448849D01*
X0067295Y0448753D01*
X0067421Y0448653D01*
X0067545Y0448550D01*
X0067666Y0448445D01*
X0067785Y0448336D01*
X0067901Y0448225D01*
X0068014Y0448110D01*
X0068124Y0447993D01*
X0068231Y0447873D01*
X0068335Y0447751D01*
X0068436Y0447626D01*
X0068534Y0447498D01*
X0068629Y0447368D01*
X0068721Y0447236D01*
X0068809Y0447102D01*
X0068894Y0446965D01*
X0068976Y0446827D01*
X0069054Y0446686D01*
X0069128Y0446544D01*
X0069199Y0446400D01*
X0069267Y0446254D01*
X0069330Y0446106D01*
X0069391Y0445957D01*
X0069447Y0445806D01*
X0069500Y0445654D01*
X0069549Y0445501D01*
X0069594Y0445347D01*
X0069635Y0445192D01*
X0069673Y0445035D01*
X0069706Y0444878D01*
X0069736Y0444720D01*
X0069762Y0444561D01*
X0069783Y0444402D01*
X0069801Y0444242D01*
X0069815Y0444082D01*
X0069825Y0443921D01*
X0069831Y0443761D01*
X0069833Y0443600D01*
X0069831Y0443439D01*
X0069825Y0443279D01*
X0069815Y0443118D01*
X0069801Y0442958D01*
X0069783Y0442798D01*
X0069762Y0442639D01*
X0069736Y0442480D01*
X0069706Y0442322D01*
X0069673Y0442165D01*
X0069635Y0442008D01*
X0069594Y0441853D01*
X0069549Y0441699D01*
X0069500Y0441546D01*
X0069447Y0441394D01*
X0069391Y0441243D01*
X0069330Y0441094D01*
X0069267Y0440946D01*
X0069199Y0440800D01*
X0069128Y0440656D01*
X0069054Y0440514D01*
X0068976Y0440373D01*
X0068894Y0440235D01*
X0068809Y0440098D01*
X0068721Y0439964D01*
X0068629Y0439832D01*
X0068534Y0439702D01*
X0068436Y0439574D01*
X0068335Y0439449D01*
X0068231Y0439327D01*
X0068124Y0439207D01*
X0068014Y0439090D01*
X0067901Y0438975D01*
X0067785Y0438864D01*
X0067666Y0438755D01*
X0067545Y0438650D01*
X0067421Y0438547D01*
X0067295Y0438447D01*
X0067167Y0438351D01*
X0067036Y0438258D01*
X0066902Y0438168D01*
X0066767Y0438081D01*
X0066629Y0437998D01*
X0066490Y0437918D01*
X0066348Y0437842D01*
X0066205Y0437769D01*
X0066060Y0437700D01*
X0065913Y0437634D01*
X0065765Y0437572D01*
X0065615Y0437514D01*
X0065464Y0437459D01*
X0065311Y0437408D01*
X0065157Y0437361D01*
X0065002Y0437318D01*
X0064846Y0437279D01*
X0064690Y0437243D01*
X0064532Y0437212D01*
X0064374Y0437184D01*
X0064215Y0437160D01*
X0064055Y0437140D01*
X0063895Y0437124D01*
X0063735Y0437112D01*
X0063574Y0437104D01*
X0063413Y0437100D01*
X0063253Y0437100D01*
X0063092Y0437104D01*
X0062931Y0437112D01*
X0062771Y0437124D01*
X0062611Y0437140D01*
X0062451Y0437160D01*
X0062292Y0437184D01*
X0062134Y0437212D01*
X0061976Y0437243D01*
X0061820Y0437279D01*
X0061664Y0437318D01*
X0061509Y0437361D01*
X0061355Y0437408D01*
X0061202Y0437459D01*
X0061051Y0437514D01*
X0060901Y0437572D01*
X0060753Y0437634D01*
X0060606Y0437700D01*
X0060461Y0437769D01*
X0060318Y0437842D01*
X0060176Y0437918D01*
X0060037Y0437998D01*
X0059899Y0438081D01*
X0059764Y0438168D01*
X0059630Y0438258D01*
X0059499Y0438351D01*
X0059371Y0438447D01*
X0059245Y0438547D01*
X0059121Y0438650D01*
X0059000Y0438755D01*
X0058881Y0438864D01*
X0058765Y0438975D01*
X0058652Y0439090D01*
X0058542Y0439207D01*
X0058435Y0439327D01*
X0058331Y0439449D01*
X0058230Y0439574D01*
X0058132Y0439702D01*
X0058037Y0439832D01*
X0057945Y0439964D01*
X0057857Y0440098D01*
X0057772Y0440235D01*
X0057690Y0440373D01*
X0057612Y0440514D01*
X0057538Y0440656D01*
X0057467Y0440800D01*
X0057399Y0440946D01*
X0057336Y0441094D01*
X0057275Y0441243D01*
X0057219Y0441394D01*
X0057166Y0441546D01*
X0057117Y0441699D01*
X0057072Y0441853D01*
X0057031Y0442008D01*
X0056993Y0442165D01*
X0056960Y0442322D01*
X0056930Y0442480D01*
X0056904Y0442639D01*
X0056883Y0442798D01*
X0056865Y0442958D01*
X0056851Y0443118D01*
X0056841Y0443279D01*
X0056835Y0443439D01*
X0056833Y0443600D01*
X0619333Y0443600D02*
X0619335Y0443761D01*
X0619341Y0443921D01*
X0619351Y0444082D01*
X0619365Y0444242D01*
X0619383Y0444402D01*
X0619404Y0444561D01*
X0619430Y0444720D01*
X0619460Y0444878D01*
X0619493Y0445035D01*
X0619531Y0445192D01*
X0619572Y0445347D01*
X0619617Y0445501D01*
X0619666Y0445654D01*
X0619719Y0445806D01*
X0619775Y0445957D01*
X0619836Y0446106D01*
X0619899Y0446254D01*
X0619967Y0446400D01*
X0620038Y0446544D01*
X0620112Y0446686D01*
X0620190Y0446827D01*
X0620272Y0446965D01*
X0620357Y0447102D01*
X0620445Y0447236D01*
X0620537Y0447368D01*
X0620632Y0447498D01*
X0620730Y0447626D01*
X0620831Y0447751D01*
X0620935Y0447873D01*
X0621042Y0447993D01*
X0621152Y0448110D01*
X0621265Y0448225D01*
X0621381Y0448336D01*
X0621500Y0448445D01*
X0621621Y0448550D01*
X0621745Y0448653D01*
X0621871Y0448753D01*
X0621999Y0448849D01*
X0622130Y0448942D01*
X0622264Y0449032D01*
X0622399Y0449119D01*
X0622537Y0449202D01*
X0622676Y0449282D01*
X0622818Y0449358D01*
X0622961Y0449431D01*
X0623106Y0449500D01*
X0623253Y0449566D01*
X0623401Y0449628D01*
X0623551Y0449686D01*
X0623702Y0449741D01*
X0623855Y0449792D01*
X0624009Y0449839D01*
X0624164Y0449882D01*
X0624320Y0449921D01*
X0624476Y0449957D01*
X0624634Y0449988D01*
X0624792Y0450016D01*
X0624951Y0450040D01*
X0625111Y0450060D01*
X0625271Y0450076D01*
X0625431Y0450088D01*
X0625592Y0450096D01*
X0625753Y0450100D01*
X0625913Y0450100D01*
X0626074Y0450096D01*
X0626235Y0450088D01*
X0626395Y0450076D01*
X0626555Y0450060D01*
X0626715Y0450040D01*
X0626874Y0450016D01*
X0627032Y0449988D01*
X0627190Y0449957D01*
X0627346Y0449921D01*
X0627502Y0449882D01*
X0627657Y0449839D01*
X0627811Y0449792D01*
X0627964Y0449741D01*
X0628115Y0449686D01*
X0628265Y0449628D01*
X0628413Y0449566D01*
X0628560Y0449500D01*
X0628705Y0449431D01*
X0628848Y0449358D01*
X0628990Y0449282D01*
X0629129Y0449202D01*
X0629267Y0449119D01*
X0629402Y0449032D01*
X0629536Y0448942D01*
X0629667Y0448849D01*
X0629795Y0448753D01*
X0629921Y0448653D01*
X0630045Y0448550D01*
X0630166Y0448445D01*
X0630285Y0448336D01*
X0630401Y0448225D01*
X0630514Y0448110D01*
X0630624Y0447993D01*
X0630731Y0447873D01*
X0630835Y0447751D01*
X0630936Y0447626D01*
X0631034Y0447498D01*
X0631129Y0447368D01*
X0631221Y0447236D01*
X0631309Y0447102D01*
X0631394Y0446965D01*
X0631476Y0446827D01*
X0631554Y0446686D01*
X0631628Y0446544D01*
X0631699Y0446400D01*
X0631767Y0446254D01*
X0631830Y0446106D01*
X0631891Y0445957D01*
X0631947Y0445806D01*
X0632000Y0445654D01*
X0632049Y0445501D01*
X0632094Y0445347D01*
X0632135Y0445192D01*
X0632173Y0445035D01*
X0632206Y0444878D01*
X0632236Y0444720D01*
X0632262Y0444561D01*
X0632283Y0444402D01*
X0632301Y0444242D01*
X0632315Y0444082D01*
X0632325Y0443921D01*
X0632331Y0443761D01*
X0632333Y0443600D01*
X0632331Y0443439D01*
X0632325Y0443279D01*
X0632315Y0443118D01*
X0632301Y0442958D01*
X0632283Y0442798D01*
X0632262Y0442639D01*
X0632236Y0442480D01*
X0632206Y0442322D01*
X0632173Y0442165D01*
X0632135Y0442008D01*
X0632094Y0441853D01*
X0632049Y0441699D01*
X0632000Y0441546D01*
X0631947Y0441394D01*
X0631891Y0441243D01*
X0631830Y0441094D01*
X0631767Y0440946D01*
X0631699Y0440800D01*
X0631628Y0440656D01*
X0631554Y0440514D01*
X0631476Y0440373D01*
X0631394Y0440235D01*
X0631309Y0440098D01*
X0631221Y0439964D01*
X0631129Y0439832D01*
X0631034Y0439702D01*
X0630936Y0439574D01*
X0630835Y0439449D01*
X0630731Y0439327D01*
X0630624Y0439207D01*
X0630514Y0439090D01*
X0630401Y0438975D01*
X0630285Y0438864D01*
X0630166Y0438755D01*
X0630045Y0438650D01*
X0629921Y0438547D01*
X0629795Y0438447D01*
X0629667Y0438351D01*
X0629536Y0438258D01*
X0629402Y0438168D01*
X0629267Y0438081D01*
X0629129Y0437998D01*
X0628990Y0437918D01*
X0628848Y0437842D01*
X0628705Y0437769D01*
X0628560Y0437700D01*
X0628413Y0437634D01*
X0628265Y0437572D01*
X0628115Y0437514D01*
X0627964Y0437459D01*
X0627811Y0437408D01*
X0627657Y0437361D01*
X0627502Y0437318D01*
X0627346Y0437279D01*
X0627190Y0437243D01*
X0627032Y0437212D01*
X0626874Y0437184D01*
X0626715Y0437160D01*
X0626555Y0437140D01*
X0626395Y0437124D01*
X0626235Y0437112D01*
X0626074Y0437104D01*
X0625913Y0437100D01*
X0625753Y0437100D01*
X0625592Y0437104D01*
X0625431Y0437112D01*
X0625271Y0437124D01*
X0625111Y0437140D01*
X0624951Y0437160D01*
X0624792Y0437184D01*
X0624634Y0437212D01*
X0624476Y0437243D01*
X0624320Y0437279D01*
X0624164Y0437318D01*
X0624009Y0437361D01*
X0623855Y0437408D01*
X0623702Y0437459D01*
X0623551Y0437514D01*
X0623401Y0437572D01*
X0623253Y0437634D01*
X0623106Y0437700D01*
X0622961Y0437769D01*
X0622818Y0437842D01*
X0622676Y0437918D01*
X0622537Y0437998D01*
X0622399Y0438081D01*
X0622264Y0438168D01*
X0622130Y0438258D01*
X0621999Y0438351D01*
X0621871Y0438447D01*
X0621745Y0438547D01*
X0621621Y0438650D01*
X0621500Y0438755D01*
X0621381Y0438864D01*
X0621265Y0438975D01*
X0621152Y0439090D01*
X0621042Y0439207D01*
X0620935Y0439327D01*
X0620831Y0439449D01*
X0620730Y0439574D01*
X0620632Y0439702D01*
X0620537Y0439832D01*
X0620445Y0439964D01*
X0620357Y0440098D01*
X0620272Y0440235D01*
X0620190Y0440373D01*
X0620112Y0440514D01*
X0620038Y0440656D01*
X0619967Y0440800D01*
X0619899Y0440946D01*
X0619836Y0441094D01*
X0619775Y0441243D01*
X0619719Y0441394D01*
X0619666Y0441546D01*
X0619617Y0441699D01*
X0619572Y0441853D01*
X0619531Y0442008D01*
X0619493Y0442165D01*
X0619460Y0442322D01*
X0619430Y0442480D01*
X0619404Y0442639D01*
X0619383Y0442798D01*
X0619365Y0442958D01*
X0619351Y0443118D01*
X0619341Y0443279D01*
X0619335Y0443439D01*
X0619333Y0443600D01*
X0662833Y0446100D02*
X0662835Y0446248D01*
X0662841Y0446396D01*
X0662851Y0446544D01*
X0662865Y0446692D01*
X0662883Y0446839D01*
X0662905Y0446986D01*
X0662931Y0447132D01*
X0662960Y0447277D01*
X0662994Y0447422D01*
X0663032Y0447565D01*
X0663073Y0447708D01*
X0663118Y0447849D01*
X0663168Y0447989D01*
X0663220Y0448127D01*
X0663277Y0448265D01*
X0663337Y0448400D01*
X0663401Y0448534D01*
X0663468Y0448666D01*
X0663539Y0448796D01*
X0663614Y0448925D01*
X0663692Y0449051D01*
X0663773Y0449175D01*
X0663857Y0449297D01*
X0663945Y0449416D01*
X0664036Y0449533D01*
X0664130Y0449648D01*
X0664228Y0449760D01*
X0664328Y0449869D01*
X0664431Y0449976D01*
X0664537Y0450080D01*
X0664645Y0450181D01*
X0664757Y0450279D01*
X0664871Y0450374D01*
X0664987Y0450465D01*
X0665106Y0450554D01*
X0665227Y0450639D01*
X0665351Y0450721D01*
X0665477Y0450800D01*
X0665604Y0450875D01*
X0665734Y0450947D01*
X0665866Y0451016D01*
X0665999Y0451080D01*
X0666134Y0451141D01*
X0666271Y0451199D01*
X0666409Y0451253D01*
X0666549Y0451303D01*
X0666690Y0451349D01*
X0666832Y0451391D01*
X0666975Y0451430D01*
X0667119Y0451464D01*
X0667265Y0451495D01*
X0667410Y0451522D01*
X0667557Y0451545D01*
X0667704Y0451564D01*
X0667852Y0451579D01*
X0667999Y0451590D01*
X0668148Y0451597D01*
X0668296Y0451600D01*
X0668444Y0451599D01*
X0668592Y0451594D01*
X0668740Y0451585D01*
X0668888Y0451572D01*
X0669036Y0451555D01*
X0669182Y0451534D01*
X0669329Y0451509D01*
X0669474Y0451480D01*
X0669619Y0451448D01*
X0669762Y0451411D01*
X0669905Y0451371D01*
X0670047Y0451326D01*
X0670187Y0451278D01*
X0670326Y0451226D01*
X0670463Y0451171D01*
X0670599Y0451111D01*
X0670734Y0451048D01*
X0670866Y0450982D01*
X0670997Y0450912D01*
X0671126Y0450838D01*
X0671252Y0450761D01*
X0671377Y0450681D01*
X0671499Y0450597D01*
X0671620Y0450510D01*
X0671737Y0450420D01*
X0671853Y0450326D01*
X0671965Y0450230D01*
X0672075Y0450131D01*
X0672183Y0450028D01*
X0672287Y0449923D01*
X0672389Y0449815D01*
X0672487Y0449704D01*
X0672583Y0449591D01*
X0672676Y0449475D01*
X0672765Y0449357D01*
X0672851Y0449236D01*
X0672934Y0449113D01*
X0673014Y0448988D01*
X0673090Y0448861D01*
X0673163Y0448731D01*
X0673232Y0448600D01*
X0673297Y0448467D01*
X0673360Y0448333D01*
X0673418Y0448196D01*
X0673473Y0448058D01*
X0673523Y0447919D01*
X0673571Y0447778D01*
X0673614Y0447637D01*
X0673654Y0447494D01*
X0673689Y0447350D01*
X0673721Y0447205D01*
X0673749Y0447059D01*
X0673773Y0446913D01*
X0673793Y0446766D01*
X0673809Y0446618D01*
X0673821Y0446471D01*
X0673829Y0446322D01*
X0673833Y0446174D01*
X0673833Y0446026D01*
X0673829Y0445878D01*
X0673821Y0445729D01*
X0673809Y0445582D01*
X0673793Y0445434D01*
X0673773Y0445287D01*
X0673749Y0445141D01*
X0673721Y0444995D01*
X0673689Y0444850D01*
X0673654Y0444706D01*
X0673614Y0444563D01*
X0673571Y0444422D01*
X0673523Y0444281D01*
X0673473Y0444142D01*
X0673418Y0444004D01*
X0673360Y0443867D01*
X0673297Y0443733D01*
X0673232Y0443600D01*
X0673163Y0443469D01*
X0673090Y0443339D01*
X0673014Y0443212D01*
X0672934Y0443087D01*
X0672851Y0442964D01*
X0672765Y0442843D01*
X0672676Y0442725D01*
X0672583Y0442609D01*
X0672487Y0442496D01*
X0672389Y0442385D01*
X0672287Y0442277D01*
X0672183Y0442172D01*
X0672075Y0442069D01*
X0671965Y0441970D01*
X0671853Y0441874D01*
X0671737Y0441780D01*
X0671620Y0441690D01*
X0671499Y0441603D01*
X0671377Y0441519D01*
X0671252Y0441439D01*
X0671126Y0441362D01*
X0670997Y0441288D01*
X0670866Y0441218D01*
X0670734Y0441152D01*
X0670599Y0441089D01*
X0670463Y0441029D01*
X0670326Y0440974D01*
X0670187Y0440922D01*
X0670047Y0440874D01*
X0669905Y0440829D01*
X0669762Y0440789D01*
X0669619Y0440752D01*
X0669474Y0440720D01*
X0669329Y0440691D01*
X0669182Y0440666D01*
X0669036Y0440645D01*
X0668888Y0440628D01*
X0668740Y0440615D01*
X0668592Y0440606D01*
X0668444Y0440601D01*
X0668296Y0440600D01*
X0668148Y0440603D01*
X0667999Y0440610D01*
X0667852Y0440621D01*
X0667704Y0440636D01*
X0667557Y0440655D01*
X0667410Y0440678D01*
X0667265Y0440705D01*
X0667119Y0440736D01*
X0666975Y0440770D01*
X0666832Y0440809D01*
X0666690Y0440851D01*
X0666549Y0440897D01*
X0666409Y0440947D01*
X0666271Y0441001D01*
X0666134Y0441059D01*
X0665999Y0441120D01*
X0665866Y0441184D01*
X0665734Y0441253D01*
X0665604Y0441325D01*
X0665477Y0441400D01*
X0665351Y0441479D01*
X0665227Y0441561D01*
X0665106Y0441646D01*
X0664987Y0441735D01*
X0664871Y0441826D01*
X0664757Y0441921D01*
X0664645Y0442019D01*
X0664537Y0442120D01*
X0664431Y0442224D01*
X0664328Y0442331D01*
X0664228Y0442440D01*
X0664130Y0442552D01*
X0664036Y0442667D01*
X0663945Y0442784D01*
X0663857Y0442903D01*
X0663773Y0443025D01*
X0663692Y0443149D01*
X0663614Y0443275D01*
X0663539Y0443404D01*
X0663468Y0443534D01*
X0663401Y0443666D01*
X0663337Y0443800D01*
X0663277Y0443935D01*
X0663220Y0444073D01*
X0663168Y0444211D01*
X0663118Y0444351D01*
X0663073Y0444492D01*
X0663032Y0444635D01*
X0662994Y0444778D01*
X0662960Y0444923D01*
X0662931Y0445068D01*
X0662905Y0445214D01*
X0662883Y0445361D01*
X0662865Y0445508D01*
X0662851Y0445656D01*
X0662841Y0445804D01*
X0662835Y0445952D01*
X0662833Y0446100D01*
X0619333Y0101100D02*
X0619335Y0101261D01*
X0619341Y0101421D01*
X0619351Y0101582D01*
X0619365Y0101742D01*
X0619383Y0101902D01*
X0619404Y0102061D01*
X0619430Y0102220D01*
X0619460Y0102378D01*
X0619493Y0102535D01*
X0619531Y0102692D01*
X0619572Y0102847D01*
X0619617Y0103001D01*
X0619666Y0103154D01*
X0619719Y0103306D01*
X0619775Y0103457D01*
X0619836Y0103606D01*
X0619899Y0103754D01*
X0619967Y0103900D01*
X0620038Y0104044D01*
X0620112Y0104186D01*
X0620190Y0104327D01*
X0620272Y0104465D01*
X0620357Y0104602D01*
X0620445Y0104736D01*
X0620537Y0104868D01*
X0620632Y0104998D01*
X0620730Y0105126D01*
X0620831Y0105251D01*
X0620935Y0105373D01*
X0621042Y0105493D01*
X0621152Y0105610D01*
X0621265Y0105725D01*
X0621381Y0105836D01*
X0621500Y0105945D01*
X0621621Y0106050D01*
X0621745Y0106153D01*
X0621871Y0106253D01*
X0621999Y0106349D01*
X0622130Y0106442D01*
X0622264Y0106532D01*
X0622399Y0106619D01*
X0622537Y0106702D01*
X0622676Y0106782D01*
X0622818Y0106858D01*
X0622961Y0106931D01*
X0623106Y0107000D01*
X0623253Y0107066D01*
X0623401Y0107128D01*
X0623551Y0107186D01*
X0623702Y0107241D01*
X0623855Y0107292D01*
X0624009Y0107339D01*
X0624164Y0107382D01*
X0624320Y0107421D01*
X0624476Y0107457D01*
X0624634Y0107488D01*
X0624792Y0107516D01*
X0624951Y0107540D01*
X0625111Y0107560D01*
X0625271Y0107576D01*
X0625431Y0107588D01*
X0625592Y0107596D01*
X0625753Y0107600D01*
X0625913Y0107600D01*
X0626074Y0107596D01*
X0626235Y0107588D01*
X0626395Y0107576D01*
X0626555Y0107560D01*
X0626715Y0107540D01*
X0626874Y0107516D01*
X0627032Y0107488D01*
X0627190Y0107457D01*
X0627346Y0107421D01*
X0627502Y0107382D01*
X0627657Y0107339D01*
X0627811Y0107292D01*
X0627964Y0107241D01*
X0628115Y0107186D01*
X0628265Y0107128D01*
X0628413Y0107066D01*
X0628560Y0107000D01*
X0628705Y0106931D01*
X0628848Y0106858D01*
X0628990Y0106782D01*
X0629129Y0106702D01*
X0629267Y0106619D01*
X0629402Y0106532D01*
X0629536Y0106442D01*
X0629667Y0106349D01*
X0629795Y0106253D01*
X0629921Y0106153D01*
X0630045Y0106050D01*
X0630166Y0105945D01*
X0630285Y0105836D01*
X0630401Y0105725D01*
X0630514Y0105610D01*
X0630624Y0105493D01*
X0630731Y0105373D01*
X0630835Y0105251D01*
X0630936Y0105126D01*
X0631034Y0104998D01*
X0631129Y0104868D01*
X0631221Y0104736D01*
X0631309Y0104602D01*
X0631394Y0104465D01*
X0631476Y0104327D01*
X0631554Y0104186D01*
X0631628Y0104044D01*
X0631699Y0103900D01*
X0631767Y0103754D01*
X0631830Y0103606D01*
X0631891Y0103457D01*
X0631947Y0103306D01*
X0632000Y0103154D01*
X0632049Y0103001D01*
X0632094Y0102847D01*
X0632135Y0102692D01*
X0632173Y0102535D01*
X0632206Y0102378D01*
X0632236Y0102220D01*
X0632262Y0102061D01*
X0632283Y0101902D01*
X0632301Y0101742D01*
X0632315Y0101582D01*
X0632325Y0101421D01*
X0632331Y0101261D01*
X0632333Y0101100D01*
X0632331Y0100939D01*
X0632325Y0100779D01*
X0632315Y0100618D01*
X0632301Y0100458D01*
X0632283Y0100298D01*
X0632262Y0100139D01*
X0632236Y0099980D01*
X0632206Y0099822D01*
X0632173Y0099665D01*
X0632135Y0099508D01*
X0632094Y0099353D01*
X0632049Y0099199D01*
X0632000Y0099046D01*
X0631947Y0098894D01*
X0631891Y0098743D01*
X0631830Y0098594D01*
X0631767Y0098446D01*
X0631699Y0098300D01*
X0631628Y0098156D01*
X0631554Y0098014D01*
X0631476Y0097873D01*
X0631394Y0097735D01*
X0631309Y0097598D01*
X0631221Y0097464D01*
X0631129Y0097332D01*
X0631034Y0097202D01*
X0630936Y0097074D01*
X0630835Y0096949D01*
X0630731Y0096827D01*
X0630624Y0096707D01*
X0630514Y0096590D01*
X0630401Y0096475D01*
X0630285Y0096364D01*
X0630166Y0096255D01*
X0630045Y0096150D01*
X0629921Y0096047D01*
X0629795Y0095947D01*
X0629667Y0095851D01*
X0629536Y0095758D01*
X0629402Y0095668D01*
X0629267Y0095581D01*
X0629129Y0095498D01*
X0628990Y0095418D01*
X0628848Y0095342D01*
X0628705Y0095269D01*
X0628560Y0095200D01*
X0628413Y0095134D01*
X0628265Y0095072D01*
X0628115Y0095014D01*
X0627964Y0094959D01*
X0627811Y0094908D01*
X0627657Y0094861D01*
X0627502Y0094818D01*
X0627346Y0094779D01*
X0627190Y0094743D01*
X0627032Y0094712D01*
X0626874Y0094684D01*
X0626715Y0094660D01*
X0626555Y0094640D01*
X0626395Y0094624D01*
X0626235Y0094612D01*
X0626074Y0094604D01*
X0625913Y0094600D01*
X0625753Y0094600D01*
X0625592Y0094604D01*
X0625431Y0094612D01*
X0625271Y0094624D01*
X0625111Y0094640D01*
X0624951Y0094660D01*
X0624792Y0094684D01*
X0624634Y0094712D01*
X0624476Y0094743D01*
X0624320Y0094779D01*
X0624164Y0094818D01*
X0624009Y0094861D01*
X0623855Y0094908D01*
X0623702Y0094959D01*
X0623551Y0095014D01*
X0623401Y0095072D01*
X0623253Y0095134D01*
X0623106Y0095200D01*
X0622961Y0095269D01*
X0622818Y0095342D01*
X0622676Y0095418D01*
X0622537Y0095498D01*
X0622399Y0095581D01*
X0622264Y0095668D01*
X0622130Y0095758D01*
X0621999Y0095851D01*
X0621871Y0095947D01*
X0621745Y0096047D01*
X0621621Y0096150D01*
X0621500Y0096255D01*
X0621381Y0096364D01*
X0621265Y0096475D01*
X0621152Y0096590D01*
X0621042Y0096707D01*
X0620935Y0096827D01*
X0620831Y0096949D01*
X0620730Y0097074D01*
X0620632Y0097202D01*
X0620537Y0097332D01*
X0620445Y0097464D01*
X0620357Y0097598D01*
X0620272Y0097735D01*
X0620190Y0097873D01*
X0620112Y0098014D01*
X0620038Y0098156D01*
X0619967Y0098300D01*
X0619899Y0098446D01*
X0619836Y0098594D01*
X0619775Y0098743D01*
X0619719Y0098894D01*
X0619666Y0099046D01*
X0619617Y0099199D01*
X0619572Y0099353D01*
X0619531Y0099508D01*
X0619493Y0099665D01*
X0619460Y0099822D01*
X0619430Y0099980D01*
X0619404Y0100139D01*
X0619383Y0100298D01*
X0619365Y0100458D01*
X0619351Y0100618D01*
X0619341Y0100779D01*
X0619335Y0100939D01*
X0619333Y0101100D01*
X0662833Y0096100D02*
X0662835Y0096248D01*
X0662841Y0096396D01*
X0662851Y0096544D01*
X0662865Y0096692D01*
X0662883Y0096839D01*
X0662905Y0096986D01*
X0662931Y0097132D01*
X0662960Y0097277D01*
X0662994Y0097422D01*
X0663032Y0097565D01*
X0663073Y0097708D01*
X0663118Y0097849D01*
X0663168Y0097989D01*
X0663220Y0098127D01*
X0663277Y0098265D01*
X0663337Y0098400D01*
X0663401Y0098534D01*
X0663468Y0098666D01*
X0663539Y0098796D01*
X0663614Y0098925D01*
X0663692Y0099051D01*
X0663773Y0099175D01*
X0663857Y0099297D01*
X0663945Y0099416D01*
X0664036Y0099533D01*
X0664130Y0099648D01*
X0664228Y0099760D01*
X0664328Y0099869D01*
X0664431Y0099976D01*
X0664537Y0100080D01*
X0664645Y0100181D01*
X0664757Y0100279D01*
X0664871Y0100374D01*
X0664987Y0100465D01*
X0665106Y0100554D01*
X0665227Y0100639D01*
X0665351Y0100721D01*
X0665477Y0100800D01*
X0665604Y0100875D01*
X0665734Y0100947D01*
X0665866Y0101016D01*
X0665999Y0101080D01*
X0666134Y0101141D01*
X0666271Y0101199D01*
X0666409Y0101253D01*
X0666549Y0101303D01*
X0666690Y0101349D01*
X0666832Y0101391D01*
X0666975Y0101430D01*
X0667119Y0101464D01*
X0667265Y0101495D01*
X0667410Y0101522D01*
X0667557Y0101545D01*
X0667704Y0101564D01*
X0667852Y0101579D01*
X0667999Y0101590D01*
X0668148Y0101597D01*
X0668296Y0101600D01*
X0668444Y0101599D01*
X0668592Y0101594D01*
X0668740Y0101585D01*
X0668888Y0101572D01*
X0669036Y0101555D01*
X0669182Y0101534D01*
X0669329Y0101509D01*
X0669474Y0101480D01*
X0669619Y0101448D01*
X0669762Y0101411D01*
X0669905Y0101371D01*
X0670047Y0101326D01*
X0670187Y0101278D01*
X0670326Y0101226D01*
X0670463Y0101171D01*
X0670599Y0101111D01*
X0670734Y0101048D01*
X0670866Y0100982D01*
X0670997Y0100912D01*
X0671126Y0100838D01*
X0671252Y0100761D01*
X0671377Y0100681D01*
X0671499Y0100597D01*
X0671620Y0100510D01*
X0671737Y0100420D01*
X0671853Y0100326D01*
X0671965Y0100230D01*
X0672075Y0100131D01*
X0672183Y0100028D01*
X0672287Y0099923D01*
X0672389Y0099815D01*
X0672487Y0099704D01*
X0672583Y0099591D01*
X0672676Y0099475D01*
X0672765Y0099357D01*
X0672851Y0099236D01*
X0672934Y0099113D01*
X0673014Y0098988D01*
X0673090Y0098861D01*
X0673163Y0098731D01*
X0673232Y0098600D01*
X0673297Y0098467D01*
X0673360Y0098333D01*
X0673418Y0098196D01*
X0673473Y0098058D01*
X0673523Y0097919D01*
X0673571Y0097778D01*
X0673614Y0097637D01*
X0673654Y0097494D01*
X0673689Y0097350D01*
X0673721Y0097205D01*
X0673749Y0097059D01*
X0673773Y0096913D01*
X0673793Y0096766D01*
X0673809Y0096618D01*
X0673821Y0096471D01*
X0673829Y0096322D01*
X0673833Y0096174D01*
X0673833Y0096026D01*
X0673829Y0095878D01*
X0673821Y0095729D01*
X0673809Y0095582D01*
X0673793Y0095434D01*
X0673773Y0095287D01*
X0673749Y0095141D01*
X0673721Y0094995D01*
X0673689Y0094850D01*
X0673654Y0094706D01*
X0673614Y0094563D01*
X0673571Y0094422D01*
X0673523Y0094281D01*
X0673473Y0094142D01*
X0673418Y0094004D01*
X0673360Y0093867D01*
X0673297Y0093733D01*
X0673232Y0093600D01*
X0673163Y0093469D01*
X0673090Y0093339D01*
X0673014Y0093212D01*
X0672934Y0093087D01*
X0672851Y0092964D01*
X0672765Y0092843D01*
X0672676Y0092725D01*
X0672583Y0092609D01*
X0672487Y0092496D01*
X0672389Y0092385D01*
X0672287Y0092277D01*
X0672183Y0092172D01*
X0672075Y0092069D01*
X0671965Y0091970D01*
X0671853Y0091874D01*
X0671737Y0091780D01*
X0671620Y0091690D01*
X0671499Y0091603D01*
X0671377Y0091519D01*
X0671252Y0091439D01*
X0671126Y0091362D01*
X0670997Y0091288D01*
X0670866Y0091218D01*
X0670734Y0091152D01*
X0670599Y0091089D01*
X0670463Y0091029D01*
X0670326Y0090974D01*
X0670187Y0090922D01*
X0670047Y0090874D01*
X0669905Y0090829D01*
X0669762Y0090789D01*
X0669619Y0090752D01*
X0669474Y0090720D01*
X0669329Y0090691D01*
X0669182Y0090666D01*
X0669036Y0090645D01*
X0668888Y0090628D01*
X0668740Y0090615D01*
X0668592Y0090606D01*
X0668444Y0090601D01*
X0668296Y0090600D01*
X0668148Y0090603D01*
X0667999Y0090610D01*
X0667852Y0090621D01*
X0667704Y0090636D01*
X0667557Y0090655D01*
X0667410Y0090678D01*
X0667265Y0090705D01*
X0667119Y0090736D01*
X0666975Y0090770D01*
X0666832Y0090809D01*
X0666690Y0090851D01*
X0666549Y0090897D01*
X0666409Y0090947D01*
X0666271Y0091001D01*
X0666134Y0091059D01*
X0665999Y0091120D01*
X0665866Y0091184D01*
X0665734Y0091253D01*
X0665604Y0091325D01*
X0665477Y0091400D01*
X0665351Y0091479D01*
X0665227Y0091561D01*
X0665106Y0091646D01*
X0664987Y0091735D01*
X0664871Y0091826D01*
X0664757Y0091921D01*
X0664645Y0092019D01*
X0664537Y0092120D01*
X0664431Y0092224D01*
X0664328Y0092331D01*
X0664228Y0092440D01*
X0664130Y0092552D01*
X0664036Y0092667D01*
X0663945Y0092784D01*
X0663857Y0092903D01*
X0663773Y0093025D01*
X0663692Y0093149D01*
X0663614Y0093275D01*
X0663539Y0093404D01*
X0663468Y0093534D01*
X0663401Y0093666D01*
X0663337Y0093800D01*
X0663277Y0093935D01*
X0663220Y0094073D01*
X0663168Y0094211D01*
X0663118Y0094351D01*
X0663073Y0094492D01*
X0663032Y0094635D01*
X0662994Y0094778D01*
X0662960Y0094923D01*
X0662931Y0095068D01*
X0662905Y0095214D01*
X0662883Y0095361D01*
X0662865Y0095508D01*
X0662851Y0095656D01*
X0662841Y0095804D01*
X0662835Y0095952D01*
X0662833Y0096100D01*
D23*
X0512083Y0229850D03*
X0512083Y0232350D03*
X0512083Y0234850D03*
X0509583Y0234850D03*
X0507083Y0234850D03*
X0507083Y0232350D03*
X0504583Y0232350D03*
X0502083Y0232350D03*
X0499583Y0232350D03*
X0497083Y0232350D03*
X0497083Y0234850D03*
X0497083Y0237350D03*
X0499583Y0237350D03*
X0502083Y0237350D03*
X0502083Y0234850D03*
X0502083Y0229850D03*
X0499583Y0229850D03*
X0492083Y0229850D03*
X0489583Y0232350D03*
X0487083Y0232350D03*
X0484583Y0232350D03*
X0484583Y0234850D03*
X0482083Y0237350D03*
X0479583Y0237350D03*
X0479583Y0237350D03*
X0477083Y0234850D03*
X0477083Y0234850D03*
X0477083Y0232350D03*
X0477083Y0232350D03*
X0474583Y0229850D03*
X0474583Y0229850D03*
X0472083Y0229850D03*
X0472083Y0229850D03*
X0467083Y0229850D03*
X0467083Y0229850D03*
X0467083Y0232350D03*
X0467083Y0232350D03*
X0467083Y0234850D03*
X0467083Y0234850D03*
X0467083Y0237350D03*
X0467083Y0237350D03*
X0467083Y0239850D03*
X0467083Y0239850D03*
X0467083Y0242350D03*
X0467083Y0242350D03*
X0467083Y0244850D03*
X0467083Y0244850D03*
X0467083Y0247350D03*
X0467083Y0247350D03*
X0467083Y0249850D03*
X0467083Y0249850D03*
X0467083Y0252350D03*
X0467083Y0254850D03*
X0467083Y0257350D03*
X0467083Y0259850D03*
X0467083Y0262350D03*
X0467083Y0264850D03*
X0467083Y0267350D03*
X0467083Y0269850D03*
X0467083Y0272350D03*
X0469583Y0272350D03*
X0472083Y0272350D03*
X0472083Y0269850D03*
X0474583Y0269850D03*
X0474583Y0272350D03*
X0477083Y0272350D03*
X0477083Y0269850D03*
X0479583Y0269850D03*
X0479583Y0272350D03*
X0482083Y0272350D03*
X0482083Y0269850D03*
X0484583Y0272350D03*
X0487083Y0272350D03*
X0487083Y0274850D03*
X0487083Y0277350D03*
X0487083Y0279850D03*
X0487083Y0282350D03*
X0487083Y0284850D03*
X0487083Y0287350D03*
X0487083Y0289850D03*
X0489583Y0289850D03*
X0492083Y0289850D03*
X0492083Y0287350D03*
X0494583Y0287350D03*
X0497083Y0287350D03*
X0497083Y0289850D03*
X0499583Y0287350D03*
X0502083Y0287350D03*
X0502083Y0284850D03*
X0502083Y0282350D03*
X0504583Y0282350D03*
X0504583Y0279850D03*
X0502083Y0277350D03*
X0502083Y0274850D03*
X0499583Y0272350D03*
X0499583Y0269850D03*
X0502083Y0267350D03*
X0504583Y0267350D03*
X0507083Y0264850D03*
X0509583Y0262350D03*
X0509583Y0257350D03*
X0509583Y0254850D03*
X0509583Y0252350D03*
X0507083Y0252350D03*
X0504583Y0252350D03*
X0504583Y0249850D03*
X0502083Y0249850D03*
X0499583Y0249850D03*
X0497083Y0249850D03*
X0497083Y0252350D03*
X0497083Y0254850D03*
X0494583Y0254850D03*
X0497083Y0257350D03*
X0497083Y0259850D03*
X0494583Y0259850D03*
X0492083Y0262350D03*
X0489583Y0259850D03*
X0489583Y0257350D03*
X0487083Y0257350D03*
X0484583Y0257350D03*
X0482083Y0257350D03*
X0479583Y0259850D03*
X0477083Y0259850D03*
X0474583Y0259850D03*
X0472083Y0259850D03*
X0469583Y0257350D03*
X0474583Y0257350D03*
X0477083Y0257350D03*
X0477083Y0252350D03*
X0477083Y0249850D03*
X0477083Y0249850D03*
X0477083Y0247350D03*
X0477083Y0247350D03*
X0474583Y0247350D03*
X0474583Y0247350D03*
X0474583Y0244850D03*
X0474583Y0244850D03*
X0472083Y0244850D03*
X0472083Y0244850D03*
X0469583Y0247350D03*
X0469583Y0247350D03*
X0469583Y0249850D03*
X0469583Y0249850D03*
X0472083Y0252350D03*
X0482083Y0252350D03*
X0484583Y0252350D03*
X0484583Y0254850D03*
X0487083Y0252350D03*
X0489583Y0252350D03*
X0489583Y0254850D03*
X0492083Y0249850D03*
X0492083Y0247350D03*
X0492083Y0244850D03*
X0492083Y0242350D03*
X0494583Y0244850D03*
X0494583Y0247350D03*
X0497083Y0244850D03*
X0497083Y0242350D03*
X0499583Y0244850D03*
X0502083Y0242350D03*
X0502083Y0239850D03*
X0504583Y0239850D03*
X0509583Y0242350D03*
X0509583Y0244850D03*
X0512083Y0244850D03*
X0512083Y0247350D03*
X0512083Y0249850D03*
X0514583Y0252350D03*
X0517083Y0252350D03*
X0517083Y0249850D03*
X0517083Y0247350D03*
X0514583Y0247350D03*
X0519583Y0247350D03*
X0519583Y0249850D03*
X0519583Y0252350D03*
X0522083Y0249850D03*
X0522083Y0247350D03*
X0524583Y0247350D03*
X0524583Y0249850D03*
X0524583Y0252350D03*
X0527083Y0252350D03*
X0527083Y0249850D03*
X0527083Y0247350D03*
X0529583Y0247350D03*
X0532083Y0247350D03*
X0532083Y0249850D03*
X0532083Y0252350D03*
X0532083Y0254850D03*
X0532083Y0257350D03*
X0532083Y0259850D03*
X0529583Y0259850D03*
X0529583Y0262350D03*
X0532083Y0262350D03*
X0532083Y0264850D03*
X0532083Y0267350D03*
X0532083Y0269850D03*
X0532083Y0272350D03*
X0529583Y0272350D03*
X0527083Y0272350D03*
X0524583Y0272350D03*
X0522083Y0272350D03*
X0519583Y0272350D03*
X0517083Y0272350D03*
X0514583Y0272350D03*
X0512083Y0272350D03*
X0512083Y0274850D03*
X0512083Y0277350D03*
X0509583Y0277350D03*
X0507083Y0277350D03*
X0507083Y0274850D03*
X0507083Y0272350D03*
X0509583Y0269850D03*
X0512083Y0269850D03*
X0512083Y0267350D03*
X0514583Y0267350D03*
X0517083Y0267350D03*
X0517083Y0269850D03*
X0517083Y0264850D03*
X0514583Y0262350D03*
X0514583Y0257350D03*
X0517083Y0257350D03*
X0519583Y0257350D03*
X0519583Y0259850D03*
X0522083Y0259850D03*
X0522083Y0257350D03*
X0522083Y0254850D03*
X0524583Y0257350D03*
X0527083Y0257350D03*
X0524583Y0262350D03*
X0522083Y0262350D03*
X0522083Y0264850D03*
X0524583Y0267350D03*
X0524583Y0269850D03*
X0527083Y0267350D03*
X0527083Y0264850D03*
X0512083Y0254850D03*
X0507083Y0249850D03*
X0499583Y0252350D03*
X0499583Y0257350D03*
X0502083Y0257350D03*
X0504583Y0257350D03*
X0504583Y0259850D03*
X0499583Y0264850D03*
X0497083Y0264850D03*
X0497083Y0262350D03*
X0487083Y0264850D03*
X0484583Y0267350D03*
X0487083Y0269850D03*
X0489583Y0269850D03*
X0489583Y0272350D03*
X0492083Y0274850D03*
X0492083Y0277350D03*
X0489583Y0277350D03*
X0492083Y0279850D03*
X0492083Y0282350D03*
X0494583Y0282350D03*
X0494583Y0279850D03*
X0494583Y0277350D03*
X0497083Y0277350D03*
X0497083Y0279850D03*
X0499583Y0279850D03*
X0497083Y0274850D03*
X0494583Y0272350D03*
X0482083Y0262350D03*
X0474583Y0264850D03*
X0472083Y0264850D03*
X0469583Y0267350D03*
X0482083Y0247350D03*
X0482083Y0244850D03*
X0482083Y0242350D03*
X0484583Y0242350D03*
X0487083Y0242350D03*
X0487083Y0244850D03*
X0487083Y0247350D03*
X0484583Y0247350D03*
X0477083Y0242350D03*
X0474583Y0242350D03*
X0474583Y0242350D03*
X0474583Y0239850D03*
X0474583Y0237350D03*
X0474583Y0237350D03*
X0479583Y0229850D03*
X0479583Y0229850D03*
X0482083Y0229850D03*
X0507083Y0229850D03*
X0512083Y0237350D03*
X0512083Y0239850D03*
X0512083Y0242350D03*
X0512083Y0279850D03*
X0509583Y0279850D03*
X0509583Y0282350D03*
X0507083Y0282350D03*
X0507083Y0284850D03*
X0509583Y0284850D03*
X0509583Y0287350D03*
X0512083Y0287350D03*
X0512083Y0284850D03*
X0512083Y0282350D03*
X0512083Y0289850D03*
X0507083Y0289850D03*
X0504583Y0289850D03*
D24*
X0522083Y0287350D03*
X0522083Y0277350D03*
X0477083Y0277350D03*
X0477083Y0287350D03*
X0522083Y0242350D03*
X0522083Y0232350D03*
D25*
X0517083Y0237350D03*
X0527083Y0237350D03*
X0527083Y0282350D03*
X0517083Y0282350D03*
X0482083Y0282350D03*
X0472083Y0282350D03*
D26*
X0465833Y0259850D03*
X0533333Y0259850D03*
D27*
X0499583Y0226100D03*
X0499583Y0293600D03*
M02*
