G75*
G70*
%OFA0B0*%
%FSLAX24Y24*%
%IPPOS*%
%LPD*%
%AMOC8*
5,1,8,0,0,1.08239X$1,22.5*
%
%ADD10C,0.0000*%
%ADD11C,0.0080*%
%ADD12C,0.0150*%
%ADD13C,0.0100*%
%ADD14R,0.0079X0.0079*%
%ADD15C,0.0050*%
%ADD16C,0.0059*%
%ADD17C,0.0040*%
%ADD18C,0.0160*%
%ADD19C,0.0004*%
%ADD20C,0.0030*%
%ADD21C,0.0060*%
D10*
X004848Y007120D02*
X004848Y046990D01*
X067840Y046990D01*
X067840Y007120D01*
X004848Y007120D01*
X004848Y007430D02*
X004848Y046810D01*
X067948Y046810D01*
X067948Y007430D01*
X004848Y007430D01*
X005698Y010120D02*
X005700Y010170D01*
X005706Y010220D01*
X005716Y010270D01*
X005729Y010318D01*
X005746Y010366D01*
X005767Y010412D01*
X005791Y010456D01*
X005819Y010498D01*
X005850Y010538D01*
X005884Y010575D01*
X005921Y010610D01*
X005960Y010641D01*
X006001Y010670D01*
X006045Y010695D01*
X006091Y010717D01*
X006138Y010735D01*
X006186Y010749D01*
X006235Y010760D01*
X006285Y010767D01*
X006335Y010770D01*
X006386Y010769D01*
X006436Y010764D01*
X006486Y010755D01*
X006534Y010743D01*
X006582Y010726D01*
X006628Y010706D01*
X006673Y010683D01*
X006716Y010656D01*
X006756Y010626D01*
X006794Y010593D01*
X006829Y010557D01*
X006862Y010518D01*
X006891Y010477D01*
X006917Y010434D01*
X006940Y010389D01*
X006959Y010342D01*
X006974Y010294D01*
X006986Y010245D01*
X006994Y010195D01*
X006998Y010145D01*
X006998Y010095D01*
X006994Y010045D01*
X006986Y009995D01*
X006974Y009946D01*
X006959Y009898D01*
X006940Y009851D01*
X006917Y009806D01*
X006891Y009763D01*
X006862Y009722D01*
X006829Y009683D01*
X006794Y009647D01*
X006756Y009614D01*
X006716Y009584D01*
X006673Y009557D01*
X006628Y009534D01*
X006582Y009514D01*
X006534Y009497D01*
X006486Y009485D01*
X006436Y009476D01*
X006386Y009471D01*
X006335Y009470D01*
X006285Y009473D01*
X006235Y009480D01*
X006186Y009491D01*
X006138Y009505D01*
X006091Y009523D01*
X006045Y009545D01*
X006001Y009570D01*
X005960Y009599D01*
X005921Y009630D01*
X005884Y009665D01*
X005850Y009702D01*
X005819Y009742D01*
X005791Y009784D01*
X005767Y009828D01*
X005746Y009874D01*
X005729Y009922D01*
X005716Y009970D01*
X005706Y010020D01*
X005700Y010070D01*
X005698Y010120D01*
X005698Y044370D02*
X005700Y044420D01*
X005706Y044470D01*
X005716Y044520D01*
X005729Y044568D01*
X005746Y044616D01*
X005767Y044662D01*
X005791Y044706D01*
X005819Y044748D01*
X005850Y044788D01*
X005884Y044825D01*
X005921Y044860D01*
X005960Y044891D01*
X006001Y044920D01*
X006045Y044945D01*
X006091Y044967D01*
X006138Y044985D01*
X006186Y044999D01*
X006235Y045010D01*
X006285Y045017D01*
X006335Y045020D01*
X006386Y045019D01*
X006436Y045014D01*
X006486Y045005D01*
X006534Y044993D01*
X006582Y044976D01*
X006628Y044956D01*
X006673Y044933D01*
X006716Y044906D01*
X006756Y044876D01*
X006794Y044843D01*
X006829Y044807D01*
X006862Y044768D01*
X006891Y044727D01*
X006917Y044684D01*
X006940Y044639D01*
X006959Y044592D01*
X006974Y044544D01*
X006986Y044495D01*
X006994Y044445D01*
X006998Y044395D01*
X006998Y044345D01*
X006994Y044295D01*
X006986Y044245D01*
X006974Y044196D01*
X006959Y044148D01*
X006940Y044101D01*
X006917Y044056D01*
X006891Y044013D01*
X006862Y043972D01*
X006829Y043933D01*
X006794Y043897D01*
X006756Y043864D01*
X006716Y043834D01*
X006673Y043807D01*
X006628Y043784D01*
X006582Y043764D01*
X006534Y043747D01*
X006486Y043735D01*
X006436Y043726D01*
X006386Y043721D01*
X006335Y043720D01*
X006285Y043723D01*
X006235Y043730D01*
X006186Y043741D01*
X006138Y043755D01*
X006091Y043773D01*
X006045Y043795D01*
X006001Y043820D01*
X005960Y043849D01*
X005921Y043880D01*
X005884Y043915D01*
X005850Y043952D01*
X005819Y043992D01*
X005791Y044034D01*
X005767Y044078D01*
X005746Y044124D01*
X005729Y044172D01*
X005716Y044220D01*
X005706Y044270D01*
X005700Y044320D01*
X005698Y044370D01*
X061948Y044370D02*
X061950Y044420D01*
X061956Y044470D01*
X061966Y044520D01*
X061979Y044568D01*
X061996Y044616D01*
X062017Y044662D01*
X062041Y044706D01*
X062069Y044748D01*
X062100Y044788D01*
X062134Y044825D01*
X062171Y044860D01*
X062210Y044891D01*
X062251Y044920D01*
X062295Y044945D01*
X062341Y044967D01*
X062388Y044985D01*
X062436Y044999D01*
X062485Y045010D01*
X062535Y045017D01*
X062585Y045020D01*
X062636Y045019D01*
X062686Y045014D01*
X062736Y045005D01*
X062784Y044993D01*
X062832Y044976D01*
X062878Y044956D01*
X062923Y044933D01*
X062966Y044906D01*
X063006Y044876D01*
X063044Y044843D01*
X063079Y044807D01*
X063112Y044768D01*
X063141Y044727D01*
X063167Y044684D01*
X063190Y044639D01*
X063209Y044592D01*
X063224Y044544D01*
X063236Y044495D01*
X063244Y044445D01*
X063248Y044395D01*
X063248Y044345D01*
X063244Y044295D01*
X063236Y044245D01*
X063224Y044196D01*
X063209Y044148D01*
X063190Y044101D01*
X063167Y044056D01*
X063141Y044013D01*
X063112Y043972D01*
X063079Y043933D01*
X063044Y043897D01*
X063006Y043864D01*
X062966Y043834D01*
X062923Y043807D01*
X062878Y043784D01*
X062832Y043764D01*
X062784Y043747D01*
X062736Y043735D01*
X062686Y043726D01*
X062636Y043721D01*
X062585Y043720D01*
X062535Y043723D01*
X062485Y043730D01*
X062436Y043741D01*
X062388Y043755D01*
X062341Y043773D01*
X062295Y043795D01*
X062251Y043820D01*
X062210Y043849D01*
X062171Y043880D01*
X062134Y043915D01*
X062100Y043952D01*
X062069Y043992D01*
X062041Y044034D01*
X062017Y044078D01*
X061996Y044124D01*
X061979Y044172D01*
X061966Y044220D01*
X061956Y044270D01*
X061950Y044320D01*
X061948Y044370D01*
X066298Y044620D02*
X066300Y044667D01*
X066306Y044713D01*
X066316Y044759D01*
X066329Y044803D01*
X066347Y044847D01*
X066368Y044888D01*
X066392Y044928D01*
X066420Y044966D01*
X066451Y045001D01*
X066485Y045033D01*
X066521Y045062D01*
X066560Y045088D01*
X066600Y045111D01*
X066643Y045130D01*
X066687Y045146D01*
X066732Y045158D01*
X066778Y045166D01*
X066825Y045170D01*
X066871Y045170D01*
X066918Y045166D01*
X066964Y045158D01*
X067009Y045146D01*
X067053Y045130D01*
X067096Y045111D01*
X067136Y045088D01*
X067175Y045062D01*
X067211Y045033D01*
X067245Y045001D01*
X067276Y044966D01*
X067304Y044928D01*
X067328Y044888D01*
X067349Y044847D01*
X067367Y044803D01*
X067380Y044759D01*
X067390Y044713D01*
X067396Y044667D01*
X067398Y044620D01*
X067396Y044573D01*
X067390Y044527D01*
X067380Y044481D01*
X067367Y044437D01*
X067349Y044393D01*
X067328Y044352D01*
X067304Y044312D01*
X067276Y044274D01*
X067245Y044239D01*
X067211Y044207D01*
X067175Y044178D01*
X067136Y044152D01*
X067096Y044129D01*
X067053Y044110D01*
X067009Y044094D01*
X066964Y044082D01*
X066918Y044074D01*
X066871Y044070D01*
X066825Y044070D01*
X066778Y044074D01*
X066732Y044082D01*
X066687Y044094D01*
X066643Y044110D01*
X066600Y044129D01*
X066560Y044152D01*
X066521Y044178D01*
X066485Y044207D01*
X066451Y044239D01*
X066420Y044274D01*
X066392Y044312D01*
X066368Y044352D01*
X066347Y044393D01*
X066329Y044437D01*
X066316Y044481D01*
X066306Y044527D01*
X066300Y044573D01*
X066298Y044620D01*
X061948Y010120D02*
X061950Y010170D01*
X061956Y010220D01*
X061966Y010270D01*
X061979Y010318D01*
X061996Y010366D01*
X062017Y010412D01*
X062041Y010456D01*
X062069Y010498D01*
X062100Y010538D01*
X062134Y010575D01*
X062171Y010610D01*
X062210Y010641D01*
X062251Y010670D01*
X062295Y010695D01*
X062341Y010717D01*
X062388Y010735D01*
X062436Y010749D01*
X062485Y010760D01*
X062535Y010767D01*
X062585Y010770D01*
X062636Y010769D01*
X062686Y010764D01*
X062736Y010755D01*
X062784Y010743D01*
X062832Y010726D01*
X062878Y010706D01*
X062923Y010683D01*
X062966Y010656D01*
X063006Y010626D01*
X063044Y010593D01*
X063079Y010557D01*
X063112Y010518D01*
X063141Y010477D01*
X063167Y010434D01*
X063190Y010389D01*
X063209Y010342D01*
X063224Y010294D01*
X063236Y010245D01*
X063244Y010195D01*
X063248Y010145D01*
X063248Y010095D01*
X063244Y010045D01*
X063236Y009995D01*
X063224Y009946D01*
X063209Y009898D01*
X063190Y009851D01*
X063167Y009806D01*
X063141Y009763D01*
X063112Y009722D01*
X063079Y009683D01*
X063044Y009647D01*
X063006Y009614D01*
X062966Y009584D01*
X062923Y009557D01*
X062878Y009534D01*
X062832Y009514D01*
X062784Y009497D01*
X062736Y009485D01*
X062686Y009476D01*
X062636Y009471D01*
X062585Y009470D01*
X062535Y009473D01*
X062485Y009480D01*
X062436Y009491D01*
X062388Y009505D01*
X062341Y009523D01*
X062295Y009545D01*
X062251Y009570D01*
X062210Y009599D01*
X062171Y009630D01*
X062134Y009665D01*
X062100Y009702D01*
X062069Y009742D01*
X062041Y009784D01*
X062017Y009828D01*
X061996Y009874D01*
X061979Y009922D01*
X061966Y009970D01*
X061956Y010020D01*
X061950Y010070D01*
X061948Y010120D01*
X066298Y009620D02*
X066300Y009667D01*
X066306Y009713D01*
X066316Y009759D01*
X066329Y009803D01*
X066347Y009847D01*
X066368Y009888D01*
X066392Y009928D01*
X066420Y009966D01*
X066451Y010001D01*
X066485Y010033D01*
X066521Y010062D01*
X066560Y010088D01*
X066600Y010111D01*
X066643Y010130D01*
X066687Y010146D01*
X066732Y010158D01*
X066778Y010166D01*
X066825Y010170D01*
X066871Y010170D01*
X066918Y010166D01*
X066964Y010158D01*
X067009Y010146D01*
X067053Y010130D01*
X067096Y010111D01*
X067136Y010088D01*
X067175Y010062D01*
X067211Y010033D01*
X067245Y010001D01*
X067276Y009966D01*
X067304Y009928D01*
X067328Y009888D01*
X067349Y009847D01*
X067367Y009803D01*
X067380Y009759D01*
X067390Y009713D01*
X067396Y009667D01*
X067398Y009620D01*
X067396Y009573D01*
X067390Y009527D01*
X067380Y009481D01*
X067367Y009437D01*
X067349Y009393D01*
X067328Y009352D01*
X067304Y009312D01*
X067276Y009274D01*
X067245Y009239D01*
X067211Y009207D01*
X067175Y009178D01*
X067136Y009152D01*
X067096Y009129D01*
X067053Y009110D01*
X067009Y009094D01*
X066964Y009082D01*
X066918Y009074D01*
X066871Y009070D01*
X066825Y009070D01*
X066778Y009074D01*
X066732Y009082D01*
X066687Y009094D01*
X066643Y009110D01*
X066600Y009129D01*
X066560Y009152D01*
X066521Y009178D01*
X066485Y009207D01*
X066451Y009239D01*
X066420Y009274D01*
X066392Y009312D01*
X066368Y009352D01*
X066347Y009393D01*
X066329Y009437D01*
X066316Y009481D01*
X066306Y009527D01*
X066300Y009573D01*
X066298Y009620D01*
D11*
X027715Y030226D02*
X027705Y030213D01*
X027692Y030203D01*
X027677Y030197D01*
X027661Y030195D01*
X027633Y030191D01*
X027606Y030182D01*
X027582Y030167D01*
X027562Y030147D01*
X027547Y030123D01*
X027538Y030097D01*
X027535Y030069D01*
X027598Y029628D01*
X027598Y029565D01*
X027588Y029436D01*
X027558Y029311D01*
X027509Y029193D01*
X027441Y029083D01*
X027358Y028985D01*
X027260Y028902D01*
X027151Y028835D01*
X027032Y028786D01*
X026907Y028756D01*
X026779Y028746D01*
X026779Y030321D01*
X026149Y030321D01*
X026149Y028746D01*
X026779Y028746D01*
X026779Y030321D01*
X027661Y030321D01*
X027677Y030318D01*
X027692Y030312D01*
X027705Y030302D01*
X027715Y030289D01*
X027722Y030274D01*
X027724Y030258D01*
X027722Y030241D01*
X027715Y030226D01*
X027721Y030240D02*
X026779Y030240D01*
X026149Y030240D01*
X025207Y030240D01*
X025206Y030241D02*
X025212Y030226D01*
X025222Y030213D01*
X025235Y030203D01*
X025251Y030197D01*
X025267Y030195D01*
X025295Y030191D01*
X025322Y030182D01*
X025345Y030167D01*
X025365Y030147D01*
X025380Y030123D01*
X025390Y030097D01*
X025393Y030069D01*
X025330Y029628D01*
X025330Y029565D01*
X025340Y029436D01*
X025370Y029311D01*
X025419Y029193D01*
X025486Y029083D01*
X025570Y028985D01*
X025667Y028902D01*
X025777Y028835D01*
X025896Y028786D01*
X026021Y028756D01*
X026149Y028746D01*
X026149Y030321D01*
X025267Y030321D01*
X025251Y030318D01*
X025235Y030312D01*
X025222Y030302D01*
X025212Y030289D01*
X025206Y030274D01*
X025204Y030258D01*
X025206Y030241D01*
X025252Y030319D02*
X026149Y030319D01*
X026779Y030319D01*
X027676Y030319D01*
X027577Y030161D02*
X026779Y030161D01*
X026149Y030161D01*
X025351Y030161D01*
X025391Y030083D02*
X026149Y030083D01*
X026779Y030083D01*
X027536Y030083D01*
X027544Y030004D02*
X026779Y030004D01*
X026149Y030004D01*
X025384Y030004D01*
X025373Y029926D02*
X026149Y029926D01*
X026779Y029926D01*
X027555Y029926D01*
X027566Y029847D02*
X026779Y029847D01*
X026149Y029847D01*
X025361Y029847D01*
X025350Y029769D02*
X026149Y029769D01*
X026779Y029769D01*
X027578Y029769D01*
X027589Y029690D02*
X026779Y029690D01*
X026149Y029690D01*
X025339Y029690D01*
X025330Y029612D02*
X026149Y029612D01*
X026779Y029612D01*
X027598Y029612D01*
X027595Y029533D02*
X026779Y029533D01*
X026149Y029533D01*
X025332Y029533D01*
X025339Y029455D02*
X026149Y029455D01*
X026779Y029455D01*
X027589Y029455D01*
X027573Y029376D02*
X026779Y029376D01*
X026149Y029376D01*
X025354Y029376D01*
X025376Y029297D02*
X026149Y029297D01*
X026779Y029297D01*
X027552Y029297D01*
X027519Y029219D02*
X026779Y029219D01*
X026149Y029219D01*
X025408Y029219D01*
X025451Y029140D02*
X026149Y029140D01*
X026779Y029140D01*
X027477Y029140D01*
X027423Y029062D02*
X026779Y029062D01*
X026149Y029062D01*
X025504Y029062D01*
X025572Y028983D02*
X026149Y028983D01*
X026779Y028983D01*
X027356Y028983D01*
X027264Y028905D02*
X026779Y028905D01*
X026149Y028905D01*
X025664Y028905D01*
X025798Y028826D02*
X026149Y028826D01*
X026779Y028826D01*
X027130Y028826D01*
X026806Y028748D02*
X026779Y028748D01*
X026149Y028748D01*
X026121Y028748D01*
X011808Y029010D02*
X011668Y029010D01*
X011738Y029010D02*
X011738Y029430D01*
X011808Y029430D02*
X011668Y029430D01*
X011501Y029430D02*
X011291Y029430D01*
X011221Y029360D01*
X011221Y029220D01*
X011291Y029150D01*
X011501Y029150D01*
X011361Y029150D02*
X011221Y029010D01*
X011041Y029080D02*
X010971Y029010D01*
X010830Y029010D01*
X010760Y029080D01*
X010760Y029360D01*
X010830Y029430D01*
X010971Y029430D01*
X011041Y029360D01*
X011041Y029080D01*
X010901Y029150D02*
X010760Y029010D01*
X010120Y029010D02*
X010120Y029290D01*
X009980Y029430D01*
X009840Y029290D01*
X009840Y029010D01*
X009660Y029010D02*
X009519Y029010D01*
X009590Y029010D02*
X009590Y029430D01*
X009660Y029430D01*
X009840Y029220D02*
X010120Y029220D01*
X009353Y029430D02*
X009283Y029430D01*
X009283Y029010D01*
X009353Y029010D02*
X009213Y029010D01*
X009046Y029080D02*
X008976Y029010D01*
X008836Y029010D01*
X008766Y029080D01*
X008766Y029220D01*
X008836Y029290D01*
X008976Y029290D01*
X009046Y029220D01*
X009046Y029080D01*
X008585Y029080D02*
X008515Y029010D01*
X008445Y029080D01*
X008375Y029010D01*
X008305Y029080D01*
X008305Y029290D01*
X008125Y029220D02*
X008055Y029290D01*
X007915Y029290D01*
X007845Y029220D01*
X007845Y029150D01*
X008125Y029150D01*
X008125Y029080D02*
X008125Y029220D01*
X008125Y029080D02*
X008055Y029010D01*
X007915Y029010D01*
X007665Y029080D02*
X007665Y029220D01*
X007595Y029290D01*
X007384Y029290D01*
X007384Y029430D02*
X007384Y029010D01*
X007595Y029010D01*
X007665Y029080D01*
X008585Y029080D02*
X008585Y029290D01*
X011501Y029430D02*
X011501Y029010D01*
X010808Y025830D02*
X010668Y025830D01*
X010738Y025830D02*
X010738Y025410D01*
X010808Y025410D02*
X010668Y025410D01*
X010501Y025410D02*
X010501Y025830D01*
X010291Y025830D01*
X010221Y025760D01*
X010221Y025620D01*
X010291Y025550D01*
X010501Y025550D01*
X010361Y025550D02*
X010221Y025410D01*
X010041Y025480D02*
X009971Y025410D01*
X009830Y025410D01*
X009760Y025480D01*
X009760Y025760D01*
X009830Y025830D01*
X009971Y025830D01*
X010041Y025760D01*
X010041Y025480D01*
X009901Y025550D02*
X009760Y025410D01*
X009120Y025480D02*
X009050Y025410D01*
X008910Y025410D01*
X008840Y025480D01*
X008840Y025550D01*
X008910Y025620D01*
X009050Y025620D01*
X009120Y025690D01*
X009120Y025760D01*
X009050Y025830D01*
X008910Y025830D01*
X008840Y025760D01*
X008660Y025620D02*
X008590Y025690D01*
X008449Y025690D01*
X008379Y025620D01*
X008379Y025550D01*
X008660Y025550D01*
X008660Y025480D02*
X008660Y025620D01*
X008660Y025480D02*
X008590Y025410D01*
X008449Y025410D01*
X008199Y025480D02*
X008199Y025620D01*
X008129Y025690D01*
X007989Y025690D01*
X007919Y025620D01*
X007919Y025550D01*
X008199Y025550D01*
X008199Y025480D02*
X008129Y025410D01*
X007989Y025410D01*
X007739Y025410D02*
X007739Y025690D01*
X007529Y025690D01*
X007459Y025620D01*
X007459Y025410D01*
X009120Y023330D02*
X009120Y022910D01*
X009120Y023050D02*
X008910Y023190D01*
X009120Y023050D02*
X008910Y022910D01*
X009300Y022910D02*
X009510Y022910D01*
X009580Y022980D01*
X009580Y023120D01*
X009510Y023190D01*
X009300Y023190D01*
X009760Y023120D02*
X009830Y023190D01*
X009971Y023190D01*
X010041Y023120D01*
X010041Y022980D01*
X009971Y022910D01*
X009830Y022910D01*
X009760Y022980D01*
X009760Y023120D01*
X010207Y022910D02*
X010348Y022910D01*
X010277Y022910D02*
X010277Y023330D01*
X010348Y023330D01*
X010528Y023260D02*
X010598Y023330D01*
X010738Y023330D01*
X010808Y023260D01*
X010808Y022980D01*
X010738Y022910D01*
X010598Y022910D01*
X010528Y022980D01*
X008276Y022980D02*
X008206Y022910D01*
X008066Y022910D01*
X007996Y022980D01*
X007996Y023120D01*
X008066Y023190D01*
X008206Y023190D01*
X008276Y023120D01*
X008276Y022980D01*
X007816Y022910D02*
X007816Y023190D01*
X007605Y023190D01*
X007535Y023120D01*
X007535Y022910D01*
X007662Y021080D02*
X007662Y020660D01*
X007662Y020800D02*
X007382Y021080D01*
X007592Y020870D02*
X007382Y020660D01*
X007842Y020730D02*
X007842Y021010D01*
X007912Y021080D01*
X008052Y021080D01*
X008122Y021010D01*
X008122Y020730D01*
X008052Y020660D01*
X007912Y020660D01*
X007842Y020730D01*
X008756Y020940D02*
X008826Y020940D01*
X008966Y020800D01*
X008966Y020660D02*
X008966Y020940D01*
X009147Y020870D02*
X009147Y020800D01*
X009427Y020800D01*
X009427Y020870D02*
X009357Y020940D01*
X009217Y020940D01*
X009147Y020870D01*
X009217Y020660D02*
X009357Y020660D01*
X009427Y020730D01*
X009427Y020870D01*
X009607Y020940D02*
X009607Y020730D01*
X009677Y020660D01*
X009747Y020730D01*
X009817Y020660D01*
X009887Y020730D01*
X009887Y020940D01*
X010067Y020870D02*
X010137Y020940D01*
X010277Y020940D01*
X010348Y020870D01*
X010348Y020730D01*
X010277Y020660D01*
X010137Y020660D01*
X010067Y020730D01*
X010067Y020870D01*
X010528Y020870D02*
X010598Y020800D01*
X010808Y020800D01*
X010808Y020660D02*
X010808Y021080D01*
X010598Y021080D01*
X010528Y021010D01*
X010528Y020870D01*
D12*
X019626Y038695D02*
X019485Y038836D01*
X019485Y039120D01*
X019768Y039120D01*
X019485Y039403D02*
X019626Y039545D01*
X019910Y039545D01*
X020052Y039403D01*
X020052Y038836D01*
X019910Y038695D01*
X019626Y038695D01*
X021326Y039262D02*
X021610Y038695D01*
X021893Y039262D01*
X022247Y039120D02*
X022247Y038978D01*
X022814Y038978D01*
X022814Y038836D02*
X022814Y039120D01*
X022672Y039262D01*
X022389Y039262D01*
X022247Y039120D01*
X022389Y038695D02*
X022672Y038695D01*
X022814Y038836D01*
X023156Y039262D02*
X023298Y039262D01*
X023581Y038978D01*
X023581Y038695D02*
X023581Y039262D01*
X024856Y038695D02*
X025423Y038695D01*
X025139Y038695D02*
X025139Y039545D01*
X025423Y039262D01*
X026697Y039262D02*
X027123Y039262D01*
X027264Y039120D01*
X027264Y038836D01*
X027123Y038695D01*
X026697Y038695D01*
X026697Y039545D01*
X027606Y039262D02*
X027748Y039262D01*
X028032Y038978D01*
X028032Y038695D02*
X028032Y039262D01*
X028385Y039120D02*
X028385Y038695D01*
X028811Y038695D01*
X028952Y038836D01*
X028811Y038978D01*
X028385Y038978D01*
X028385Y039120D02*
X028527Y039262D01*
X028811Y039262D01*
X029306Y039120D02*
X029306Y038836D01*
X029448Y038695D01*
X029731Y038695D01*
X029873Y038836D01*
X029873Y039120D01*
X029731Y039262D01*
X029448Y039262D01*
X029306Y039120D01*
X030227Y039262D02*
X030369Y039120D01*
X030794Y039120D01*
X030794Y039545D02*
X030369Y039545D01*
X030227Y039403D01*
X030227Y039262D01*
X030369Y039120D02*
X030227Y038978D01*
X030227Y038836D01*
X030369Y038695D01*
X030794Y038695D01*
X030794Y039545D01*
X032057Y039262D02*
X032198Y039262D01*
X032482Y038978D01*
X032482Y038695D02*
X032482Y039262D01*
X032836Y039120D02*
X032836Y038836D01*
X032977Y038695D01*
X033261Y038695D01*
X033403Y038836D01*
X033403Y039120D01*
X033261Y039262D01*
X032977Y039262D01*
X032836Y039120D01*
X033756Y039262D02*
X034182Y039262D01*
X034323Y039120D01*
X034182Y038978D01*
X033898Y038978D01*
X033756Y038836D01*
X033898Y038695D01*
X034323Y038695D01*
X034677Y038836D02*
X034819Y038978D01*
X035102Y038978D01*
X035244Y039120D01*
X035102Y039262D01*
X034677Y039262D01*
X034677Y038836D02*
X034819Y038695D01*
X035244Y038695D01*
X035598Y038978D02*
X035598Y039120D01*
X035740Y039262D01*
X036023Y039262D01*
X036165Y039120D01*
X036165Y038836D01*
X036023Y038695D01*
X035740Y038695D01*
X035598Y038978D02*
X036165Y038978D01*
X036519Y038695D02*
X036944Y038695D01*
X037086Y038836D01*
X037086Y039120D01*
X036944Y039262D01*
X036519Y039262D01*
X037439Y039120D02*
X037439Y038836D01*
X037581Y038695D01*
X037865Y038695D01*
X038006Y038836D01*
X038006Y039120D01*
X037865Y039262D01*
X037581Y039262D01*
X037439Y039120D01*
X038348Y039262D02*
X038490Y039262D01*
X038774Y038978D01*
X038774Y038695D02*
X038774Y039262D01*
X039127Y039403D02*
X039127Y039120D01*
X039269Y038978D01*
X039694Y038978D01*
X039694Y038695D02*
X039694Y039545D01*
X039269Y039545D01*
X039127Y039403D01*
X040957Y039262D02*
X041099Y039262D01*
X041382Y038978D01*
X041382Y038695D02*
X041382Y039262D01*
X041736Y039120D02*
X041736Y038978D01*
X042303Y038978D01*
X042303Y038836D02*
X042303Y039120D01*
X042161Y039262D01*
X041878Y039262D01*
X041736Y039120D01*
X041878Y038695D02*
X042161Y038695D01*
X042303Y038836D01*
X042633Y038695D02*
X042775Y038836D01*
X042775Y039403D01*
X042917Y039262D02*
X042633Y039262D01*
X043271Y039262D02*
X043271Y038695D01*
X043696Y038695D01*
X043838Y038836D01*
X043838Y039262D01*
X044191Y039120D02*
X044191Y038836D01*
X044333Y038695D01*
X044759Y038695D01*
X044759Y038411D02*
X044759Y039262D01*
X044333Y039262D01*
X044191Y039120D01*
X045112Y039120D02*
X045112Y038695D01*
X045396Y038695D02*
X045396Y039120D01*
X045254Y039262D01*
X045112Y039120D01*
X045396Y039120D02*
X045537Y039262D01*
X045679Y039262D01*
X045679Y038695D01*
X046033Y038836D02*
X046033Y039120D01*
X046175Y039262D01*
X046458Y039262D01*
X046600Y039120D01*
X046600Y038836D01*
X046458Y038695D01*
X046175Y038695D01*
X046033Y038836D01*
X046954Y038695D02*
X047379Y038695D01*
X047521Y038836D01*
X047521Y039120D01*
X047379Y039262D01*
X046954Y039262D01*
X047993Y039262D02*
X047993Y038695D01*
X048135Y038695D02*
X047851Y038695D01*
X047993Y039262D02*
X048135Y039262D01*
X047993Y039545D02*
X047993Y039687D01*
X048488Y039120D02*
X048488Y038695D01*
X048488Y039120D02*
X048630Y039262D01*
X049055Y039262D01*
X049055Y038695D01*
X049386Y038695D02*
X049669Y038695D01*
X049527Y038695D02*
X049527Y039262D01*
X049669Y039262D01*
X049527Y039545D02*
X049527Y039687D01*
X050023Y039545D02*
X050023Y038695D01*
X050590Y038695D02*
X050590Y039545D01*
X050306Y039262D01*
X050023Y039545D01*
X051864Y039545D02*
X052431Y039545D01*
X052148Y039545D02*
X052148Y038695D01*
X053069Y039120D02*
X053352Y039120D01*
X053352Y039545D02*
X052785Y039545D01*
X053352Y039545D02*
X053352Y038695D01*
X053706Y038836D02*
X053848Y038695D01*
X054131Y038695D01*
X054273Y038836D01*
X054273Y039403D01*
X054131Y039545D01*
X053848Y039545D01*
X053706Y039403D01*
D13*
X032548Y027793D02*
X032548Y027606D01*
X032361Y027420D01*
X032143Y027513D02*
X032049Y027420D01*
X031769Y027420D01*
X031535Y027420D02*
X031348Y027606D01*
X031348Y027793D01*
X031535Y027980D01*
X031769Y027793D02*
X032049Y027793D01*
X032143Y027700D01*
X032143Y027513D01*
X032548Y027793D02*
X032361Y027980D01*
X030522Y027887D02*
X030429Y027980D01*
X030242Y027980D01*
X030149Y027887D01*
X030149Y027793D01*
X030522Y027420D01*
X030149Y027420D01*
X029914Y027513D02*
X029541Y027887D01*
X029541Y027513D01*
X029634Y027420D01*
X029821Y027420D01*
X029914Y027513D01*
X029914Y027887D01*
X029821Y027980D01*
X029634Y027980D01*
X029541Y027887D01*
X029307Y027793D02*
X029120Y027980D01*
X029120Y027420D01*
X029307Y027420D02*
X028933Y027420D01*
X028699Y027513D02*
X028606Y027420D01*
X028419Y027420D01*
X028325Y027513D01*
X028325Y027606D01*
X028419Y027700D01*
X028512Y027700D01*
X028419Y027700D02*
X028325Y027793D01*
X028325Y027887D01*
X028419Y027980D01*
X028606Y027980D01*
X028699Y027887D01*
X028091Y027700D02*
X027718Y027700D01*
X027484Y027793D02*
X027297Y027980D01*
X027297Y027420D01*
X027484Y027420D02*
X027110Y027420D01*
X026876Y027513D02*
X026783Y027420D01*
X026596Y027420D01*
X026502Y027513D01*
X026502Y027700D01*
X026596Y027793D01*
X026689Y027793D01*
X026876Y027700D01*
X026876Y027980D01*
X026502Y027980D01*
X025660Y027793D02*
X025660Y027420D01*
X025660Y027700D02*
X025287Y027700D01*
X025287Y027793D02*
X025287Y027420D01*
X025053Y027420D02*
X024866Y027420D01*
X024959Y027420D02*
X024959Y027980D01*
X025053Y027980D01*
X025287Y027793D02*
X025474Y027980D01*
X025660Y027793D01*
X024648Y027700D02*
X024648Y027513D01*
X024554Y027420D01*
X024367Y027420D01*
X024274Y027606D02*
X024648Y027606D01*
X024648Y027700D02*
X024554Y027793D01*
X024367Y027793D01*
X024274Y027700D01*
X024274Y027606D01*
X024040Y027420D02*
X023666Y027793D01*
X023432Y027793D02*
X023339Y027793D01*
X023339Y027420D01*
X023432Y027420D02*
X023245Y027420D01*
X023027Y027513D02*
X022934Y027420D01*
X022747Y027420D01*
X022653Y027513D01*
X022653Y027700D01*
X022747Y027793D01*
X022934Y027793D01*
X023027Y027700D01*
X023027Y027513D01*
X023339Y027980D02*
X023339Y028073D01*
X023666Y027420D02*
X024040Y027793D01*
X022419Y027700D02*
X022326Y027606D01*
X022139Y027606D01*
X022046Y027513D01*
X022139Y027420D01*
X022419Y027420D01*
X022419Y027700D02*
X022326Y027793D01*
X022046Y027793D01*
X021812Y027887D02*
X021812Y027513D01*
X021718Y027420D01*
X021531Y027420D01*
X021438Y027513D01*
X021438Y027887D02*
X021531Y027980D01*
X021718Y027980D01*
X021812Y027887D01*
X025675Y009730D02*
X025768Y009637D01*
X025768Y009170D01*
X025861Y009450D02*
X025675Y009450D01*
X025456Y009543D02*
X025270Y009543D01*
X025363Y009637D02*
X025363Y009263D01*
X025270Y009170D01*
X026096Y009170D02*
X026376Y009170D01*
X026469Y009263D01*
X026469Y009450D01*
X026376Y009543D01*
X026096Y009543D01*
X026703Y009730D02*
X027077Y009170D01*
X027311Y009170D02*
X027591Y009170D01*
X027685Y009263D01*
X027685Y009450D01*
X027591Y009543D01*
X027311Y009543D01*
X027311Y009076D01*
X027404Y008983D01*
X027498Y008983D01*
X027911Y009543D02*
X028004Y009543D01*
X028191Y009356D01*
X028191Y009170D02*
X028191Y009543D01*
X028425Y009450D02*
X028519Y009543D01*
X028705Y009543D01*
X028799Y009450D01*
X028799Y009263D01*
X028705Y009170D01*
X028519Y009170D01*
X028425Y009263D01*
X028425Y009450D01*
X029009Y009263D02*
X029009Y009170D01*
X029103Y009170D01*
X029103Y009263D01*
X029009Y009263D01*
X029337Y009170D02*
X029337Y009450D01*
X029430Y009543D01*
X029710Y009543D01*
X029710Y009170D01*
X029944Y009170D02*
X029944Y009450D01*
X030038Y009543D01*
X030225Y009543D01*
X030225Y009356D02*
X029944Y009356D01*
X029944Y009170D02*
X030225Y009170D01*
X030318Y009263D01*
X030225Y009356D01*
X030536Y009170D02*
X030723Y009170D01*
X030630Y009170D02*
X030630Y009730D01*
X030723Y009730D01*
X030957Y009450D02*
X030957Y009170D01*
X031144Y009170D02*
X031144Y009450D01*
X031051Y009543D01*
X030957Y009450D01*
X031144Y009450D02*
X031238Y009543D01*
X031331Y009543D01*
X031331Y009170D01*
X031565Y009263D02*
X031658Y009170D01*
X031845Y009170D01*
X031939Y009263D01*
X031939Y009450D01*
X031845Y009543D01*
X031658Y009543D01*
X031565Y009450D01*
X031565Y009263D01*
X032173Y009263D02*
X032266Y009170D01*
X032453Y009170D01*
X032546Y009263D01*
X032546Y009450D01*
X032453Y009543D01*
X032266Y009543D01*
X032173Y009450D01*
X032173Y009263D01*
X032773Y009543D02*
X032866Y009543D01*
X033053Y009356D01*
X033053Y009170D02*
X033053Y009543D01*
X033287Y009543D02*
X033567Y009543D01*
X033660Y009450D01*
X033660Y009263D01*
X033567Y009170D01*
X033287Y009170D01*
X033287Y009730D01*
X033895Y009450D02*
X033895Y009356D01*
X034268Y009356D01*
X034268Y009263D02*
X034268Y009450D01*
X034175Y009543D01*
X033988Y009543D01*
X033895Y009450D01*
X033988Y009170D02*
X034175Y009170D01*
X034268Y009263D01*
X034502Y009263D02*
X034502Y009450D01*
X034596Y009543D01*
X034876Y009543D01*
X034876Y009730D02*
X034876Y009170D01*
X034596Y009170D01*
X034502Y009263D01*
X035086Y009263D02*
X035086Y009170D01*
X035180Y009170D01*
X035180Y009263D01*
X035086Y009263D01*
X035414Y009263D02*
X035414Y009543D01*
X035414Y009263D02*
X035507Y009170D01*
X035601Y009263D01*
X035694Y009170D01*
X035787Y009263D01*
X035787Y009543D01*
X036022Y009543D02*
X036022Y009263D01*
X036115Y009170D01*
X036208Y009263D01*
X036302Y009170D01*
X036395Y009263D01*
X036395Y009543D01*
X036629Y009543D02*
X036629Y009263D01*
X036723Y009170D01*
X036816Y009263D01*
X036910Y009170D01*
X037003Y009263D01*
X037003Y009543D01*
X037237Y009730D02*
X037611Y009170D01*
X037845Y009730D02*
X038218Y009170D01*
X038429Y009170D02*
X038429Y009263D01*
X038522Y009263D01*
X038522Y009170D01*
X038429Y009170D01*
X038429Y009450D02*
X038522Y009450D01*
X038522Y009543D01*
X038429Y009543D01*
X038429Y009450D01*
X038756Y009450D02*
X038756Y009263D01*
X038850Y009170D01*
X039130Y009170D01*
X039130Y008983D02*
X039130Y009543D01*
X038850Y009543D01*
X038756Y009450D01*
X039348Y009543D02*
X039535Y009543D01*
X039442Y009637D02*
X039442Y009263D01*
X039348Y009170D01*
X039753Y009170D02*
X039847Y009263D01*
X039847Y009637D01*
X039940Y009543D02*
X039753Y009543D01*
X040174Y009450D02*
X040174Y009170D01*
X040174Y009450D02*
X040268Y009543D01*
X040454Y009543D01*
X040548Y009450D01*
X040548Y009730D02*
X040548Y009170D01*
D14*
X006598Y020909D03*
X006598Y023159D03*
X006598Y025409D03*
X006598Y029580D03*
D15*
X007392Y030220D02*
X007467Y030145D01*
X007617Y030145D01*
X007692Y030220D01*
X007852Y030220D02*
X007852Y030520D01*
X007927Y030595D01*
X008152Y030595D01*
X008152Y030145D01*
X007927Y030145D01*
X007852Y030220D01*
X007692Y030520D02*
X007617Y030595D01*
X007467Y030595D01*
X007392Y030520D01*
X007392Y030445D01*
X007467Y030370D01*
X007392Y030295D01*
X007392Y030220D01*
X007467Y030370D02*
X007542Y030370D01*
X008312Y030595D02*
X008613Y030595D01*
X008613Y030145D01*
X008312Y030145D01*
X008462Y030370D02*
X008613Y030370D01*
X008773Y030145D02*
X009073Y030145D01*
X009073Y030595D01*
X008623Y031295D02*
X008623Y031745D01*
X008398Y031745D01*
X008323Y031670D01*
X008323Y031520D01*
X008398Y031445D01*
X008623Y031445D01*
X008473Y031445D02*
X008323Y031295D01*
X008163Y031520D02*
X007862Y031520D01*
X007702Y031595D02*
X007627Y031520D01*
X007402Y031520D01*
X007402Y031670D02*
X007477Y031745D01*
X007627Y031745D01*
X007702Y031670D01*
X007702Y031595D01*
X007702Y031370D02*
X007627Y031295D01*
X007477Y031295D01*
X007402Y031370D01*
X007402Y031670D01*
X007937Y031745D02*
X007937Y031295D01*
X008163Y031520D02*
X007937Y031745D01*
X008307Y034328D02*
X008457Y034328D01*
X008532Y034403D01*
X008532Y034553D02*
X008382Y034628D01*
X008307Y034628D01*
X008232Y034553D01*
X008232Y034403D01*
X008307Y034328D01*
X008532Y034553D02*
X008532Y034778D01*
X008232Y034778D01*
X008692Y034553D02*
X008992Y034553D01*
X008767Y034778D01*
X008767Y034328D01*
X009153Y034403D02*
X009228Y034328D01*
X009378Y034328D01*
X009453Y034403D01*
X009453Y034703D01*
X009378Y034778D01*
X009228Y034778D01*
X009153Y034703D01*
X007301Y035595D02*
X007150Y035595D01*
X007226Y035595D02*
X007226Y036045D01*
X007301Y036045D02*
X007150Y036045D01*
X006994Y035970D02*
X006994Y035670D01*
X006919Y035595D01*
X006769Y035595D01*
X006693Y035670D01*
X006533Y035820D02*
X006233Y035820D01*
X006308Y036045D02*
X006533Y035820D01*
X006693Y035970D02*
X006769Y036045D01*
X006919Y036045D01*
X006994Y035970D01*
X006308Y036045D02*
X006308Y035595D01*
X006289Y036755D02*
X006289Y037384D01*
X007407Y037384D02*
X007407Y036755D01*
X008145Y037313D02*
X008220Y037238D01*
X008371Y037238D01*
X008446Y037313D01*
X008606Y037313D02*
X008606Y037614D01*
X008681Y037689D01*
X008906Y037689D01*
X008906Y037238D01*
X008681Y037238D01*
X008606Y037313D01*
X008446Y037614D02*
X008371Y037689D01*
X008220Y037689D01*
X008145Y037614D01*
X008145Y037538D01*
X008220Y037463D01*
X008145Y037388D01*
X008145Y037313D01*
X008220Y037463D02*
X008295Y037463D01*
X008273Y039195D02*
X008723Y039195D01*
X008723Y039420D01*
X008648Y039495D01*
X008498Y039495D01*
X008423Y039420D01*
X008423Y039195D01*
X008423Y039345D02*
X008273Y039495D01*
X008348Y039655D02*
X008273Y039730D01*
X008273Y039880D01*
X008348Y039955D01*
X008648Y039955D01*
X008723Y039880D01*
X008723Y039730D01*
X008648Y039655D01*
X008573Y039655D01*
X008498Y039730D01*
X008498Y039955D01*
X005918Y040097D02*
X005918Y040247D01*
X005843Y040322D01*
X005768Y040322D01*
X005693Y040247D01*
X005617Y040322D01*
X005542Y040322D01*
X005467Y040247D01*
X005467Y040097D01*
X005542Y040022D01*
X005467Y039861D02*
X005467Y039561D01*
X005467Y039711D02*
X005918Y039711D01*
X005768Y039561D01*
X005843Y039401D02*
X005918Y039326D01*
X005918Y039176D01*
X005843Y039101D01*
X005542Y039101D01*
X005467Y039176D01*
X005467Y039326D01*
X005542Y039401D01*
X005843Y040022D02*
X005918Y040097D01*
X005693Y040172D02*
X005693Y040247D01*
X016396Y043414D02*
X016471Y043339D01*
X016621Y043339D01*
X016696Y043414D01*
X016696Y043564D01*
X016471Y043564D01*
X016396Y043489D01*
X016396Y043414D01*
X016546Y043714D02*
X016696Y043564D01*
X016546Y043714D02*
X016396Y043789D01*
X017006Y043789D02*
X017006Y043339D01*
X017156Y043339D02*
X016856Y043339D01*
X017156Y043639D02*
X017006Y043789D01*
X017316Y043714D02*
X017391Y043789D01*
X017542Y043789D01*
X017617Y043714D01*
X017617Y043414D01*
X017542Y043339D01*
X017391Y043339D01*
X017316Y043414D01*
X018789Y043684D02*
X018789Y043055D01*
X019907Y043055D02*
X019907Y043684D01*
X019829Y044495D02*
X019679Y044495D01*
X019604Y044570D01*
X019444Y044495D02*
X019143Y044495D01*
X019294Y044495D02*
X019294Y044945D01*
X019444Y044795D01*
X019604Y044870D02*
X019679Y044945D01*
X019829Y044945D01*
X019904Y044870D01*
X019904Y044570D01*
X019829Y044495D01*
X020061Y044495D02*
X020211Y044495D01*
X020136Y044495D02*
X020136Y044945D01*
X020211Y044945D02*
X020061Y044945D01*
X018983Y044795D02*
X018833Y044945D01*
X018833Y044495D01*
X018983Y044495D02*
X018683Y044495D01*
X022323Y043065D02*
X022323Y042765D01*
X022323Y042915D02*
X022773Y042915D01*
X022623Y042765D01*
X022323Y042605D02*
X022323Y042305D01*
X022323Y042455D02*
X022773Y042455D01*
X022623Y042305D01*
X022548Y042145D02*
X022473Y042070D01*
X022473Y041845D01*
X022473Y041995D02*
X022323Y042145D01*
X022548Y042145D02*
X022698Y042145D01*
X022773Y042070D01*
X022773Y041845D01*
X022323Y041845D01*
X025960Y031706D02*
X025939Y031704D01*
X025919Y031699D01*
X025900Y031691D01*
X025883Y031679D01*
X025867Y031665D01*
X025855Y031649D01*
X025845Y031631D01*
X025838Y031611D01*
X025834Y031590D01*
X025834Y031570D01*
X025838Y031549D01*
X025845Y031529D01*
X025855Y031511D01*
X025867Y031495D01*
X025883Y031481D01*
X025900Y031469D01*
X025919Y031461D01*
X025939Y031456D01*
X025960Y031454D01*
X025960Y031455D02*
X025981Y031453D01*
X026001Y031448D01*
X026020Y031440D01*
X026037Y031428D01*
X026053Y031414D01*
X026065Y031398D01*
X026075Y031380D01*
X026082Y031360D01*
X026086Y031339D01*
X026086Y031319D01*
X026082Y031298D01*
X026075Y031278D01*
X026065Y031260D01*
X026053Y031244D01*
X026037Y031230D01*
X026020Y031218D01*
X026001Y031210D01*
X025981Y031205D01*
X025960Y031203D01*
X025960Y031202D02*
X025939Y031200D01*
X025919Y031195D01*
X025900Y031187D01*
X025883Y031175D01*
X025867Y031161D01*
X025855Y031145D01*
X025845Y031127D01*
X025838Y031107D01*
X025834Y031086D01*
X025834Y031066D01*
X025838Y031045D01*
X025845Y031025D01*
X025855Y031007D01*
X025867Y030991D01*
X025883Y030977D01*
X025900Y030965D01*
X025919Y030957D01*
X025939Y030952D01*
X025960Y030950D01*
X025981Y030948D01*
X026001Y030943D01*
X026020Y030935D01*
X026037Y030923D01*
X026053Y030909D01*
X026065Y030893D01*
X026075Y030875D01*
X026082Y030855D01*
X026086Y030834D01*
X026086Y030814D01*
X026082Y030793D01*
X026075Y030773D01*
X026065Y030755D01*
X026053Y030739D01*
X026037Y030725D01*
X026020Y030713D01*
X026001Y030705D01*
X025981Y030700D01*
X025960Y030698D01*
X026464Y030824D02*
X026485Y030826D01*
X026505Y030831D01*
X026524Y030839D01*
X026541Y030851D01*
X026557Y030865D01*
X026569Y030881D01*
X026579Y030899D01*
X026586Y030919D01*
X026590Y030940D01*
X026590Y030960D01*
X026586Y030981D01*
X026579Y031001D01*
X026569Y031019D01*
X026557Y031035D01*
X026541Y031049D01*
X026524Y031061D01*
X026505Y031069D01*
X026485Y031074D01*
X026464Y031076D01*
X026443Y031078D01*
X026423Y031083D01*
X026404Y031091D01*
X026387Y031103D01*
X026371Y031117D01*
X026359Y031133D01*
X026349Y031151D01*
X026342Y031171D01*
X026338Y031192D01*
X026338Y031212D01*
X026342Y031233D01*
X026349Y031253D01*
X026359Y031271D01*
X026371Y031287D01*
X026387Y031301D01*
X026404Y031313D01*
X026423Y031321D01*
X026443Y031326D01*
X026464Y031328D01*
X026485Y031330D01*
X026505Y031335D01*
X026524Y031343D01*
X026541Y031355D01*
X026557Y031369D01*
X026569Y031385D01*
X026579Y031403D01*
X026586Y031423D01*
X026590Y031444D01*
X026590Y031464D01*
X026586Y031485D01*
X026579Y031505D01*
X026569Y031523D01*
X026557Y031539D01*
X026541Y031553D01*
X026524Y031565D01*
X026505Y031573D01*
X026485Y031578D01*
X026464Y031580D01*
X026443Y031582D01*
X026423Y031587D01*
X026404Y031595D01*
X026387Y031607D01*
X026371Y031621D01*
X026359Y031637D01*
X026349Y031655D01*
X026342Y031675D01*
X026338Y031696D01*
X026338Y031716D01*
X026342Y031737D01*
X026349Y031757D01*
X026359Y031775D01*
X026371Y031791D01*
X026387Y031805D01*
X026404Y031817D01*
X026423Y031825D01*
X026443Y031830D01*
X026464Y031832D01*
X026968Y031706D02*
X026947Y031704D01*
X026927Y031699D01*
X026908Y031691D01*
X026891Y031679D01*
X026875Y031665D01*
X026863Y031649D01*
X026853Y031631D01*
X026846Y031611D01*
X026842Y031590D01*
X026842Y031570D01*
X026846Y031549D01*
X026853Y031529D01*
X026863Y031511D01*
X026875Y031495D01*
X026891Y031481D01*
X026908Y031469D01*
X026927Y031461D01*
X026947Y031456D01*
X026968Y031454D01*
X026968Y031455D02*
X026989Y031453D01*
X027009Y031448D01*
X027028Y031440D01*
X027045Y031428D01*
X027061Y031414D01*
X027073Y031398D01*
X027083Y031380D01*
X027090Y031360D01*
X027094Y031339D01*
X027094Y031319D01*
X027090Y031298D01*
X027083Y031278D01*
X027073Y031260D01*
X027061Y031244D01*
X027045Y031230D01*
X027028Y031218D01*
X027009Y031210D01*
X026989Y031205D01*
X026968Y031203D01*
X026968Y031202D02*
X026947Y031200D01*
X026927Y031195D01*
X026908Y031187D01*
X026891Y031175D01*
X026875Y031161D01*
X026863Y031145D01*
X026853Y031127D01*
X026846Y031107D01*
X026842Y031086D01*
X026842Y031066D01*
X026846Y031045D01*
X026853Y031025D01*
X026863Y031007D01*
X026875Y030991D01*
X026891Y030977D01*
X026908Y030965D01*
X026927Y030957D01*
X026947Y030952D01*
X026968Y030950D01*
X026989Y030948D01*
X027009Y030943D01*
X027028Y030935D01*
X027045Y030923D01*
X027061Y030909D01*
X027073Y030893D01*
X027083Y030875D01*
X027090Y030855D01*
X027094Y030834D01*
X027094Y030814D01*
X027090Y030793D01*
X027083Y030773D01*
X027073Y030755D01*
X027061Y030739D01*
X027045Y030725D01*
X027028Y030713D01*
X027009Y030705D01*
X026989Y030700D01*
X026968Y030698D01*
X026779Y030321D02*
X027661Y030321D01*
X027724Y030258D02*
X027722Y030244D01*
X027718Y030231D01*
X027710Y030219D01*
X027700Y030209D01*
X027688Y030201D01*
X027675Y030197D01*
X027661Y030195D01*
X027724Y030258D02*
X027722Y030272D01*
X027718Y030285D01*
X027710Y030297D01*
X027700Y030307D01*
X027688Y030315D01*
X027675Y030319D01*
X027661Y030321D01*
X027661Y030195D02*
X027641Y030193D01*
X027622Y030189D01*
X027604Y030181D01*
X027587Y030171D01*
X027572Y030158D01*
X027559Y030143D01*
X027549Y030126D01*
X027541Y030108D01*
X027537Y030089D01*
X027535Y030069D01*
X027535Y030069D01*
X027598Y029627D01*
X027598Y029564D01*
X027596Y029508D01*
X027590Y029452D01*
X027581Y029397D01*
X027568Y029343D01*
X027551Y029290D01*
X027530Y029238D01*
X027506Y029187D01*
X027479Y029138D01*
X027448Y029092D01*
X027414Y029047D01*
X027378Y029005D01*
X027338Y028965D01*
X027296Y028929D01*
X027251Y028895D01*
X027205Y028864D01*
X027156Y028837D01*
X027105Y028813D01*
X027053Y028792D01*
X027000Y028775D01*
X026946Y028762D01*
X026891Y028753D01*
X026835Y028747D01*
X026779Y028745D01*
X026779Y028746D02*
X026779Y030321D01*
X035482Y025053D02*
X035782Y025053D01*
X035557Y025278D01*
X035557Y024828D01*
X035942Y024903D02*
X036017Y024828D01*
X036167Y024828D01*
X036242Y024903D01*
X036403Y024903D02*
X036478Y024828D01*
X036628Y024828D01*
X036703Y024903D01*
X036703Y025203D01*
X036628Y025278D01*
X036478Y025278D01*
X036403Y025203D01*
X036242Y025203D02*
X036167Y025278D01*
X036017Y025278D01*
X035942Y025203D01*
X035942Y025128D01*
X036017Y025053D01*
X035942Y024978D01*
X035942Y024903D01*
X036017Y025053D02*
X036092Y025053D01*
X045933Y024195D02*
X046233Y024195D01*
X046233Y023970D01*
X046083Y024045D01*
X046008Y024045D01*
X045933Y023970D01*
X045933Y023820D01*
X046008Y023745D01*
X046158Y023745D01*
X046233Y023820D01*
X046393Y023745D02*
X046544Y023895D01*
X046468Y023895D02*
X046694Y023895D01*
X046694Y023745D02*
X046694Y024195D01*
X046468Y024195D01*
X046393Y024120D01*
X046393Y023970D01*
X046468Y023895D01*
X047433Y020245D02*
X047433Y019795D01*
X047583Y019795D02*
X047283Y019795D01*
X047583Y020095D02*
X047433Y020245D01*
X047743Y020245D02*
X047743Y019795D01*
X048044Y020245D01*
X048044Y019795D01*
X048204Y019795D02*
X048354Y019945D01*
X048279Y019945D02*
X048504Y019945D01*
X048504Y019795D02*
X048504Y020245D01*
X048279Y020245D01*
X048204Y020170D01*
X048204Y020020D01*
X048279Y019945D01*
X048204Y018495D02*
X048204Y018045D01*
X048504Y018495D01*
X048504Y018045D01*
X048664Y018045D02*
X048814Y018195D01*
X048739Y018195D02*
X048964Y018195D01*
X048964Y018045D02*
X048964Y018495D01*
X048739Y018495D01*
X048664Y018420D01*
X048664Y018270D01*
X048739Y018195D01*
X048044Y018345D02*
X047894Y018495D01*
X047894Y018045D01*
X048044Y018045D02*
X047743Y018045D01*
X047583Y018120D02*
X047508Y018045D01*
X047358Y018045D01*
X047283Y018120D01*
X047283Y018420D01*
X047358Y018495D01*
X047508Y018495D01*
X047583Y018420D01*
X047583Y018345D01*
X047508Y018270D01*
X047283Y018270D01*
X052089Y013425D02*
X052164Y013500D01*
X052315Y013500D01*
X052390Y013425D01*
X052390Y013350D01*
X052315Y013275D01*
X052089Y013275D01*
X052089Y013125D02*
X052089Y013425D01*
X052089Y013125D02*
X052164Y013050D01*
X052315Y013050D01*
X052390Y013125D01*
X052550Y013125D02*
X052625Y013050D01*
X052775Y013050D01*
X052850Y013125D01*
X052850Y013425D01*
X052775Y013500D01*
X052625Y013500D01*
X052550Y013425D01*
X043203Y012853D02*
X043203Y012553D01*
X043128Y012478D01*
X042978Y012478D01*
X042903Y012553D01*
X042742Y012703D02*
X042442Y012703D01*
X042517Y012928D02*
X042742Y012703D01*
X042903Y012853D02*
X042978Y012928D01*
X043128Y012928D01*
X043203Y012853D01*
X042517Y012928D02*
X042517Y012478D01*
X034873Y015045D02*
X034873Y015495D01*
X034648Y015495D01*
X034573Y015420D01*
X034573Y015270D01*
X034648Y015195D01*
X034873Y015195D01*
X034723Y015195D02*
X034573Y015045D01*
X034413Y015270D02*
X034112Y015270D01*
X034187Y015495D02*
X034413Y015270D01*
X034187Y015045D02*
X034187Y015495D01*
X019423Y009634D02*
X018973Y009634D01*
X018973Y009484D02*
X018973Y009784D01*
X019273Y009484D02*
X019423Y009634D01*
X019348Y009324D02*
X019198Y009324D01*
X019123Y009249D01*
X019123Y009024D01*
X019123Y009174D02*
X018973Y009324D01*
X018973Y009024D02*
X019423Y009024D01*
X019423Y009249D01*
X019348Y009324D01*
X018423Y009249D02*
X018423Y009024D01*
X017973Y009024D01*
X018123Y009024D02*
X018123Y009249D01*
X018198Y009324D01*
X018348Y009324D01*
X018423Y009249D01*
X018348Y009484D02*
X018423Y009559D01*
X018423Y009709D01*
X018348Y009784D01*
X018273Y009784D01*
X017973Y009484D01*
X017973Y009784D01*
X017973Y009324D02*
X018123Y009174D01*
X015930Y009267D02*
X015779Y009117D01*
X015854Y008957D02*
X015930Y008882D01*
X015930Y008657D01*
X015479Y008657D01*
X015479Y008882D01*
X015554Y008957D01*
X015854Y008957D01*
X015930Y009267D02*
X015479Y009267D01*
X015479Y009117D02*
X015479Y009417D01*
X014930Y009342D02*
X014930Y009192D01*
X014854Y009117D01*
X014854Y008957D02*
X014930Y008882D01*
X014930Y008657D01*
X014479Y008657D01*
X014479Y008882D01*
X014554Y008957D01*
X014854Y008957D01*
X014930Y009342D02*
X014854Y009417D01*
X014779Y009417D01*
X014479Y009117D01*
X014479Y009417D01*
X014173Y009459D02*
X014098Y009534D01*
X013798Y009234D01*
X013723Y009309D01*
X013723Y009459D01*
X013798Y009534D01*
X014098Y009534D01*
X014173Y009459D02*
X014173Y009309D01*
X014098Y009234D01*
X013798Y009234D01*
X013723Y009074D02*
X013723Y008774D01*
X013723Y008924D02*
X014173Y008924D01*
X014023Y008774D01*
X013948Y008614D02*
X013873Y008539D01*
X013873Y008313D01*
X013723Y008313D02*
X014173Y008313D01*
X014173Y008539D01*
X014098Y008614D01*
X013948Y008614D01*
X013873Y008464D02*
X013723Y008614D01*
X013323Y008724D02*
X013323Y009024D01*
X013323Y008874D02*
X012873Y008874D01*
X012873Y009184D02*
X013173Y009484D01*
X013248Y009484D01*
X013323Y009409D01*
X013323Y009259D01*
X013248Y009184D01*
X012873Y009184D02*
X012873Y009484D01*
X012983Y019895D02*
X012983Y019970D01*
X012683Y020270D01*
X012683Y020345D01*
X012983Y020345D01*
X013143Y020270D02*
X013143Y020120D01*
X013218Y020045D01*
X013444Y020045D01*
X013444Y019895D02*
X013444Y020345D01*
X013218Y020345D01*
X013143Y020270D01*
X013294Y020045D02*
X013143Y019895D01*
X014233Y020720D02*
X014233Y020795D01*
X014308Y020870D01*
X014533Y020870D01*
X014533Y020720D01*
X014458Y020645D01*
X014308Y020645D01*
X014233Y020720D01*
X014383Y021020D02*
X014533Y020870D01*
X014693Y020870D02*
X014768Y020795D01*
X014994Y020795D01*
X014994Y020645D02*
X014994Y021095D01*
X014768Y021095D01*
X014693Y021020D01*
X014693Y020870D01*
X014844Y020795D02*
X014693Y020645D01*
X014383Y021020D02*
X014233Y021095D01*
X009073Y021395D02*
X008773Y021395D01*
X008613Y021395D02*
X008312Y021395D01*
X008152Y021395D02*
X007927Y021395D01*
X007852Y021470D01*
X007852Y021770D01*
X007927Y021845D01*
X008152Y021845D01*
X008152Y021395D01*
X008462Y021620D02*
X008613Y021620D01*
X008613Y021845D02*
X008613Y021395D01*
X008613Y021845D02*
X008312Y021845D01*
X007692Y021770D02*
X007617Y021845D01*
X007467Y021845D01*
X007392Y021770D01*
X007392Y021695D01*
X007692Y021395D01*
X007392Y021395D01*
X009073Y021395D02*
X009073Y021845D01*
X009073Y023895D02*
X008773Y023895D01*
X008613Y023895D02*
X008312Y023895D01*
X008152Y023895D02*
X007927Y023895D01*
X007852Y023970D01*
X007852Y024270D01*
X007927Y024345D01*
X008152Y024345D01*
X008152Y023895D01*
X008462Y024120D02*
X008613Y024120D01*
X008613Y024345D02*
X008613Y023895D01*
X008613Y024345D02*
X008312Y024345D01*
X007692Y024195D02*
X007542Y024345D01*
X007542Y023895D01*
X007692Y023895D02*
X007392Y023895D01*
X009073Y023895D02*
X009073Y024345D01*
X009073Y026145D02*
X008773Y026145D01*
X008613Y026145D02*
X008312Y026145D01*
X008152Y026145D02*
X007927Y026145D01*
X007852Y026220D01*
X007852Y026520D01*
X007927Y026595D01*
X008152Y026595D01*
X008152Y026145D01*
X008462Y026370D02*
X008613Y026370D01*
X008613Y026595D02*
X008613Y026145D01*
X008613Y026595D02*
X008312Y026595D01*
X007692Y026370D02*
X007392Y026370D01*
X007467Y026595D02*
X007692Y026370D01*
X007467Y026145D02*
X007467Y026595D01*
X009073Y026595D02*
X009073Y026145D01*
X040246Y037564D02*
X040321Y037489D01*
X040471Y037489D01*
X040546Y037564D01*
X040546Y037714D02*
X040396Y037789D01*
X040321Y037789D01*
X040246Y037714D01*
X040246Y037564D01*
X040546Y037714D02*
X040546Y037939D01*
X040246Y037939D01*
X040706Y037864D02*
X040706Y037789D01*
X040781Y037714D01*
X040706Y037639D01*
X040706Y037564D01*
X040781Y037489D01*
X040931Y037489D01*
X041006Y037564D01*
X041166Y037564D02*
X041241Y037489D01*
X041392Y037489D01*
X041467Y037564D01*
X041467Y037864D01*
X041392Y037939D01*
X041241Y037939D01*
X041166Y037864D01*
X041006Y037864D02*
X040931Y037939D01*
X040781Y037939D01*
X040706Y037864D01*
X040781Y037714D02*
X040856Y037714D01*
X047839Y031675D02*
X047914Y031750D01*
X048065Y031750D01*
X048140Y031675D01*
X048300Y031750D02*
X048600Y031750D01*
X048600Y031525D01*
X048450Y031600D01*
X048375Y031600D01*
X048300Y031525D01*
X048300Y031375D01*
X048375Y031300D01*
X048525Y031300D01*
X048600Y031375D01*
X048760Y031375D02*
X048835Y031300D01*
X048985Y031300D01*
X049060Y031375D01*
X049060Y031675D01*
X048985Y031750D01*
X048835Y031750D01*
X048760Y031675D01*
X048140Y031300D02*
X047839Y031600D01*
X047839Y031675D01*
X047839Y031300D02*
X048140Y031300D01*
X049557Y032828D02*
X049482Y032903D01*
X049482Y033203D01*
X049557Y033278D01*
X049707Y033278D01*
X049782Y033203D01*
X049782Y033128D01*
X049707Y033053D01*
X049482Y033053D01*
X049557Y032828D02*
X049707Y032828D01*
X049782Y032903D01*
X049942Y032903D02*
X050017Y032828D01*
X050167Y032828D01*
X050242Y032903D01*
X050403Y032903D02*
X050478Y032828D01*
X050628Y032828D01*
X050703Y032903D01*
X050703Y033203D01*
X050628Y033278D01*
X050478Y033278D01*
X050403Y033203D01*
X050242Y033203D02*
X050167Y033278D01*
X050017Y033278D01*
X049942Y033203D01*
X049942Y033128D01*
X050017Y033053D01*
X049942Y032978D01*
X049942Y032903D01*
X050017Y033053D02*
X050092Y033053D01*
X055989Y025250D02*
X056290Y025250D01*
X056290Y025025D01*
X056139Y025100D01*
X056064Y025100D01*
X055989Y025025D01*
X055989Y024875D01*
X056064Y024800D01*
X056215Y024800D01*
X056290Y024875D01*
X056450Y024800D02*
X056750Y024800D01*
X056600Y024800D02*
X056600Y025250D01*
X056750Y025100D01*
X056910Y025175D02*
X056985Y025250D01*
X057135Y025250D01*
X057210Y025175D01*
X057210Y024875D01*
X057135Y024800D01*
X056985Y024800D01*
X056910Y024875D01*
X060589Y026625D02*
X060664Y026550D01*
X060815Y026550D01*
X060890Y026625D01*
X060890Y026700D01*
X060815Y026775D01*
X060664Y026775D01*
X060589Y026700D01*
X060589Y026625D01*
X060664Y026775D02*
X060589Y026850D01*
X060589Y026925D01*
X060664Y027000D01*
X060815Y027000D01*
X060890Y026925D01*
X060890Y026850D01*
X060815Y026775D01*
X061050Y026775D02*
X061350Y026775D01*
X061125Y027000D01*
X061125Y026550D01*
X061510Y026625D02*
X061585Y026550D01*
X061735Y026550D01*
X061810Y026625D01*
X061810Y026925D01*
X061735Y027000D01*
X061585Y027000D01*
X061510Y026925D01*
X061462Y024895D02*
X061763Y024895D01*
X061763Y024670D01*
X061612Y024745D01*
X061537Y024745D01*
X061462Y024670D01*
X061462Y024520D01*
X061537Y024445D01*
X061687Y024445D01*
X061763Y024520D01*
X061923Y024445D02*
X062073Y024595D01*
X061998Y024595D02*
X062223Y024595D01*
X062223Y024445D02*
X062223Y024895D01*
X061998Y024895D01*
X061923Y024820D01*
X061923Y024670D01*
X061998Y024595D01*
X061302Y024745D02*
X061152Y024895D01*
X061152Y024445D01*
X061302Y024445D02*
X061002Y024445D01*
X061012Y021595D02*
X061162Y021595D01*
X061087Y021595D02*
X061087Y021220D01*
X061162Y021145D01*
X061237Y021145D01*
X061313Y021220D01*
X061473Y021220D02*
X061548Y021145D01*
X061698Y021145D01*
X061773Y021220D01*
X061698Y021370D02*
X061773Y021445D01*
X061773Y021520D01*
X061698Y021595D01*
X061548Y021595D01*
X061473Y021520D01*
X061548Y021370D02*
X061473Y021295D01*
X061473Y021220D01*
X061548Y021370D02*
X061698Y021370D01*
X060852Y021445D02*
X060702Y021595D01*
X060702Y021145D01*
X060852Y021145D02*
X060552Y021145D01*
X061346Y031239D02*
X061346Y031314D01*
X061046Y031614D01*
X061046Y031689D01*
X061346Y031689D01*
X061581Y031689D02*
X061806Y031464D01*
X061506Y031464D01*
X061581Y031239D02*
X061581Y031689D01*
X061966Y031614D02*
X062041Y031689D01*
X062192Y031689D01*
X062267Y031614D01*
X062267Y031314D01*
X062192Y031239D01*
X062041Y031239D01*
X061966Y031314D01*
D16*
X033216Y020537D02*
X033216Y020202D01*
X032771Y020156D01*
X032742Y020056D01*
X032702Y019959D01*
X032651Y019868D01*
X032934Y019521D01*
X032696Y019284D01*
X032350Y019566D01*
X032282Y019527D01*
X032210Y019494D01*
X032013Y019972D01*
X032077Y020005D01*
X032135Y020048D01*
X032185Y020101D01*
X032225Y020161D01*
X032254Y020227D01*
X032272Y020297D01*
X032279Y020370D01*
X032271Y020450D01*
X032248Y020528D01*
X032212Y020600D01*
X032163Y020663D01*
X032102Y020717D01*
X032033Y020758D01*
X031957Y020786D01*
X031877Y020799D01*
X031797Y020797D01*
X031718Y020780D01*
X031643Y020748D01*
X031576Y020704D01*
X031519Y020647D01*
X031473Y020581D01*
X031440Y020507D01*
X031421Y020428D01*
X031418Y020347D01*
X031429Y020268D01*
X031456Y020191D01*
X031496Y020121D01*
X031549Y020060D01*
X031612Y020009D01*
X031683Y019972D01*
X031485Y019494D01*
X031414Y019527D01*
X031346Y019566D01*
X031000Y019284D01*
X030762Y019521D01*
X031044Y019868D01*
X030994Y019959D01*
X030954Y020056D01*
X030925Y020156D01*
X030480Y020202D01*
X030480Y020537D01*
X030925Y020583D01*
X030954Y020683D01*
X030994Y020780D01*
X031044Y020872D01*
X030762Y021218D01*
X031000Y021455D01*
X031346Y021173D01*
X031438Y021223D01*
X031534Y021263D01*
X031635Y021293D01*
X031680Y021737D01*
X032016Y021737D01*
X032061Y021293D01*
X032161Y021263D01*
X032258Y021223D01*
X032350Y021173D01*
X032696Y021455D01*
X032934Y021218D01*
X032651Y020872D01*
X032702Y020780D01*
X032742Y020683D01*
X032771Y020583D01*
X033216Y020537D01*
X033216Y020522D02*
X032250Y020522D01*
X032267Y020464D02*
X033216Y020464D01*
X033216Y020406D02*
X032275Y020406D01*
X032277Y020349D02*
X033216Y020349D01*
X033216Y020291D02*
X032271Y020291D01*
X032256Y020234D02*
X033216Y020234D01*
X032963Y020176D02*
X032231Y020176D01*
X032196Y020118D02*
X032760Y020118D01*
X032743Y020061D02*
X032146Y020061D01*
X032074Y020003D02*
X032720Y020003D01*
X032694Y019946D02*
X032024Y019946D01*
X032047Y019888D02*
X032663Y019888D01*
X032682Y019830D02*
X032071Y019830D01*
X032095Y019773D02*
X032729Y019773D01*
X032775Y019715D02*
X032119Y019715D01*
X032143Y019658D02*
X032822Y019658D01*
X032869Y019600D02*
X032167Y019600D01*
X032191Y019542D02*
X032308Y019542D01*
X032379Y019542D02*
X032916Y019542D01*
X032897Y019485D02*
X032450Y019485D01*
X032520Y019427D02*
X032840Y019427D01*
X032782Y019370D02*
X032591Y019370D01*
X032662Y019312D02*
X032725Y019312D01*
X031601Y019773D02*
X030967Y019773D01*
X031014Y019830D02*
X031625Y019830D01*
X031648Y019888D02*
X031033Y019888D01*
X031001Y019946D02*
X031672Y019946D01*
X031624Y020003D02*
X030976Y020003D01*
X030953Y020061D02*
X031548Y020061D01*
X031498Y020118D02*
X030936Y020118D01*
X030732Y020176D02*
X031465Y020176D01*
X031441Y020234D02*
X030480Y020234D01*
X030480Y020291D02*
X031426Y020291D01*
X031418Y020349D02*
X030480Y020349D01*
X030480Y020406D02*
X031420Y020406D01*
X031430Y020464D02*
X030480Y020464D01*
X030480Y020522D02*
X031446Y020522D01*
X031472Y020579D02*
X030891Y020579D01*
X030940Y020637D02*
X031511Y020637D01*
X031567Y020694D02*
X030959Y020694D01*
X030982Y020752D02*
X031652Y020752D01*
X032044Y020752D02*
X032713Y020752D01*
X032737Y020694D02*
X032128Y020694D01*
X032183Y020637D02*
X032755Y020637D01*
X032805Y020579D02*
X032222Y020579D01*
X032685Y020810D02*
X031010Y020810D01*
X031042Y020867D02*
X032654Y020867D01*
X032695Y020925D02*
X031001Y020925D01*
X030954Y020982D02*
X032742Y020982D01*
X032789Y021040D02*
X030907Y021040D01*
X030860Y021098D02*
X032836Y021098D01*
X032883Y021155D02*
X030813Y021155D01*
X030766Y021213D02*
X031297Y021213D01*
X031226Y021270D02*
X030815Y021270D01*
X030872Y021328D02*
X031156Y021328D01*
X031085Y021386D02*
X030930Y021386D01*
X030987Y021443D02*
X031014Y021443D01*
X031418Y021213D02*
X032278Y021213D01*
X032399Y021213D02*
X032930Y021213D01*
X032881Y021270D02*
X032469Y021270D01*
X032540Y021328D02*
X032824Y021328D01*
X032766Y021386D02*
X032611Y021386D01*
X032681Y021443D02*
X032708Y021443D01*
X032138Y021270D02*
X031558Y021270D01*
X031638Y021328D02*
X032057Y021328D01*
X032051Y021386D02*
X031644Y021386D01*
X031650Y021443D02*
X032046Y021443D01*
X032040Y021501D02*
X031656Y021501D01*
X031662Y021558D02*
X032034Y021558D01*
X032028Y021616D02*
X031668Y021616D01*
X031673Y021674D02*
X032022Y021674D01*
X032016Y021731D02*
X031679Y021731D01*
X031577Y019715D02*
X030920Y019715D01*
X030873Y019658D02*
X031553Y019658D01*
X031529Y019600D02*
X030826Y019600D01*
X030779Y019542D02*
X031317Y019542D01*
X031388Y019542D02*
X031505Y019542D01*
X031246Y019485D02*
X030798Y019485D01*
X030856Y019427D02*
X031176Y019427D01*
X031105Y019370D02*
X030914Y019370D01*
X030971Y019312D02*
X031034Y019312D01*
D17*
X036338Y020872D02*
X036338Y020948D01*
X036414Y021025D01*
X036645Y021025D01*
X036645Y020872D01*
X036568Y020795D01*
X036414Y020795D01*
X036338Y020872D01*
X036491Y021179D02*
X036645Y021025D01*
X036798Y021025D02*
X036798Y020872D01*
X036875Y020795D01*
X037028Y020795D01*
X037105Y020872D01*
X037105Y021025D02*
X036952Y021102D01*
X036875Y021102D01*
X036798Y021025D01*
X036798Y021255D02*
X037105Y021255D01*
X037105Y021025D01*
X037258Y020872D02*
X037335Y020795D01*
X037489Y020795D01*
X037565Y020872D01*
X037565Y021179D01*
X037489Y021255D01*
X037335Y021255D01*
X037258Y021179D01*
X036491Y021179D02*
X036338Y021255D01*
X046053Y020730D02*
X046643Y020730D01*
X046643Y019509D02*
X046053Y019509D01*
X046053Y018980D02*
X046643Y018980D01*
X046643Y017759D02*
X046053Y017759D01*
X045745Y012944D02*
X045822Y012868D01*
X045822Y012561D01*
X045745Y012484D01*
X045591Y012484D01*
X045515Y012561D01*
X045361Y012561D02*
X045285Y012484D01*
X045131Y012484D01*
X045054Y012561D01*
X045054Y012637D01*
X045131Y012714D01*
X045361Y012714D01*
X045361Y012561D01*
X045361Y012714D02*
X045208Y012868D01*
X045054Y012944D01*
X045515Y012868D02*
X045591Y012944D01*
X045745Y012944D01*
X022999Y010850D02*
X022692Y010850D01*
X022845Y010850D02*
X022845Y010390D01*
X022538Y010390D02*
X022231Y010390D01*
X022385Y010390D02*
X022385Y010850D01*
X022538Y010696D01*
X020328Y009786D02*
X020328Y009479D01*
X020098Y009479D01*
X020175Y009633D01*
X020175Y009709D01*
X020098Y009786D01*
X019945Y009786D01*
X019868Y009709D01*
X019868Y009556D01*
X019945Y009479D01*
X019868Y009326D02*
X019868Y009019D01*
X019868Y009172D02*
X020328Y009172D01*
X020175Y009019D01*
X020251Y008865D02*
X020098Y008865D01*
X020021Y008789D01*
X020021Y008558D01*
X019868Y008558D02*
X020328Y008558D01*
X020328Y008789D01*
X020251Y008865D01*
X020021Y008712D02*
X019868Y008865D01*
X033471Y034434D02*
X033624Y034434D01*
X033701Y034511D01*
X033701Y034664D02*
X033547Y034741D01*
X033471Y034741D01*
X033394Y034664D01*
X033394Y034511D01*
X033471Y034434D01*
X033701Y034664D02*
X033701Y034894D01*
X033394Y034894D01*
X033854Y034894D02*
X034161Y034894D01*
X034161Y034664D01*
X034008Y034741D01*
X033931Y034741D01*
X033854Y034664D01*
X033854Y034511D01*
X033931Y034434D01*
X034085Y034434D01*
X034161Y034511D01*
X034315Y034511D02*
X034391Y034434D01*
X034545Y034434D01*
X034622Y034511D01*
X034622Y034818D01*
X034545Y034894D01*
X034391Y034894D01*
X034315Y034818D01*
D18*
X025897Y030447D02*
X025393Y030636D01*
X025324Y030660D01*
X025253Y030680D01*
X025182Y030696D01*
X025110Y030709D01*
X025038Y030718D01*
X024965Y030723D01*
X024892Y030725D01*
X024819Y030723D01*
X024746Y030717D01*
X024674Y030707D01*
X024602Y030694D01*
X024531Y030677D01*
X024461Y030656D01*
X024392Y030632D01*
X024324Y030604D01*
X024258Y030573D01*
D19*
X019348Y043877D02*
X019348Y043881D01*
X006848Y037581D02*
X006848Y037577D01*
D20*
X006348Y037329D02*
X006348Y036814D01*
X007352Y036814D01*
X007352Y037329D01*
X006348Y037329D01*
X018848Y043114D02*
X018848Y043629D01*
X019852Y043629D01*
X019852Y043114D01*
X018848Y043114D01*
D21*
X060448Y023970D02*
X060448Y022270D01*
X060450Y022253D01*
X060454Y022236D01*
X060461Y022220D01*
X060471Y022206D01*
X060484Y022193D01*
X060498Y022183D01*
X060514Y022176D01*
X060531Y022172D01*
X060548Y022170D01*
X061148Y022170D01*
X061165Y022172D01*
X061182Y022176D01*
X061198Y022183D01*
X061212Y022193D01*
X061225Y022206D01*
X061235Y022220D01*
X061242Y022236D01*
X061246Y022253D01*
X061248Y022270D01*
X061248Y023970D01*
X061246Y023987D01*
X061242Y024004D01*
X061235Y024020D01*
X061225Y024034D01*
X061212Y024047D01*
X061198Y024057D01*
X061182Y024064D01*
X061165Y024068D01*
X061148Y024070D01*
X060548Y024070D01*
X060531Y024068D01*
X060514Y024064D01*
X060498Y024057D01*
X060484Y024047D01*
X060471Y024034D01*
X060461Y024020D01*
X060454Y024004D01*
X060450Y023987D01*
X060448Y023970D01*
M02*
