G75*
G70*
%OFA0B0*%
%FSLAX24Y24*%
%IPPOS*%
%LPD*%
%AMOC8*
5,1,8,0,0,1.08239X$1,22.5*
%
%ADD10R,0.0300X0.0840*%
%ADD11C,0.0670*%
%ADD12OC8,0.0670*%
%ADD13R,0.0670X0.0552*%
%ADD14R,0.0631X0.0552*%
%ADD15R,0.0552X0.0631*%
%ADD16C,0.0000*%
%ADD17C,0.1140*%
%ADD18R,0.0430X0.0312*%
%ADD19R,0.0552X0.0670*%
%ADD20C,0.0634*%
%ADD21C,0.1340*%
%ADD22R,0.0236X0.0394*%
%ADD23OC8,0.0634*%
D10*
X039348Y032890D03*
X039848Y032890D03*
X040348Y032890D03*
X040848Y032890D03*
X041348Y032890D03*
X041848Y032890D03*
X042348Y032890D03*
X042848Y032890D03*
X043348Y032890D03*
X043848Y032890D03*
X045348Y032890D03*
X045848Y032890D03*
X046348Y032890D03*
X046848Y032890D03*
X047348Y032890D03*
X047848Y032890D03*
X048348Y032890D03*
X048848Y032890D03*
X049348Y032890D03*
X049848Y032890D03*
X049848Y036850D03*
X049348Y036850D03*
X048848Y036850D03*
X048348Y036850D03*
X047848Y036850D03*
X047348Y036850D03*
X046848Y036850D03*
X046348Y036850D03*
X045848Y036850D03*
X045348Y036850D03*
X043848Y036850D03*
X043348Y036850D03*
X042848Y036850D03*
X042348Y036850D03*
X041848Y036850D03*
X041348Y036850D03*
X040848Y036850D03*
X040348Y036850D03*
X039848Y036850D03*
X039348Y036850D03*
X032848Y042660D03*
X032348Y042660D03*
X031848Y042660D03*
X031348Y042660D03*
X030848Y042660D03*
X030348Y042660D03*
X029848Y042660D03*
X029348Y042660D03*
X029348Y045080D03*
X029848Y045080D03*
X030348Y045080D03*
X030848Y045080D03*
X031348Y045080D03*
X031848Y045080D03*
X032348Y045080D03*
X032848Y045080D03*
X046848Y045080D03*
X047348Y045080D03*
X047848Y045080D03*
X048348Y045080D03*
X048848Y045080D03*
X049348Y045080D03*
X049848Y045080D03*
X050348Y045080D03*
X050348Y042660D03*
X049848Y042660D03*
X049348Y042660D03*
X048848Y042660D03*
X048348Y042660D03*
X047848Y042660D03*
X047348Y042660D03*
X046848Y042660D03*
X057848Y019580D03*
X058348Y019580D03*
X058848Y019580D03*
X059348Y019580D03*
X059848Y019580D03*
X060348Y019580D03*
X060848Y019580D03*
X061348Y019580D03*
X061348Y017160D03*
X060848Y017160D03*
X060348Y017160D03*
X059848Y017160D03*
X059348Y017160D03*
X058848Y017160D03*
X058348Y017160D03*
X057848Y017160D03*
X056348Y016850D03*
X055848Y016850D03*
X055348Y016850D03*
X054848Y016850D03*
X054348Y016850D03*
X053848Y016850D03*
X053348Y016850D03*
X052848Y016850D03*
X052348Y016850D03*
X051848Y016850D03*
X051848Y012890D03*
X052348Y012890D03*
X052848Y012890D03*
X053348Y012890D03*
X053848Y012890D03*
X054348Y012890D03*
X054848Y012890D03*
X055348Y012890D03*
X055848Y012890D03*
X056348Y012890D03*
D11*
X061598Y012620D03*
X028348Y020120D03*
X018348Y020120D03*
X008348Y020120D03*
X008348Y033370D03*
X018348Y033370D03*
X028348Y033370D03*
X058098Y043620D03*
X065848Y042620D03*
D12*
X064848Y042620D03*
X063848Y042620D03*
X063848Y041620D03*
X064848Y041620D03*
X065848Y041620D03*
X065848Y040620D03*
X064848Y040620D03*
X064848Y039620D03*
X065848Y039620D03*
X065848Y038620D03*
X064848Y038620D03*
X063848Y038620D03*
X063848Y039620D03*
X063848Y040620D03*
X063848Y037620D03*
X064848Y037620D03*
X065848Y037620D03*
X065848Y036620D03*
X064848Y036620D03*
X063848Y036620D03*
X063848Y035620D03*
X064848Y035620D03*
X065848Y035620D03*
X065848Y034620D03*
X064848Y034620D03*
X063848Y034620D03*
X063848Y033620D03*
X063848Y032620D03*
X064848Y032620D03*
X064848Y033620D03*
X065848Y033620D03*
X065848Y032620D03*
X065848Y031620D03*
X064848Y031620D03*
X063848Y031620D03*
X063848Y030620D03*
X064848Y030620D03*
X065848Y030620D03*
X065848Y029620D03*
X064848Y029620D03*
X063848Y029620D03*
X063848Y028620D03*
X064848Y028620D03*
X065848Y028620D03*
X065848Y027620D03*
X064848Y027620D03*
X064848Y026620D03*
X065848Y026620D03*
X065848Y025620D03*
X064848Y025620D03*
X063848Y025620D03*
X063848Y026620D03*
X063848Y027620D03*
X063848Y024620D03*
X064848Y024620D03*
X065848Y024620D03*
X065848Y023620D03*
X064848Y023620D03*
X063848Y023620D03*
X063848Y022620D03*
X064848Y022620D03*
X065848Y022620D03*
X065848Y021620D03*
X064848Y021620D03*
X064848Y020620D03*
X065848Y020620D03*
X065848Y019620D03*
X064848Y019620D03*
X063848Y019620D03*
X063848Y020620D03*
X063848Y021620D03*
X063848Y018620D03*
X064848Y018620D03*
X065848Y018620D03*
X065848Y017620D03*
X064848Y017620D03*
X063848Y017620D03*
X063848Y016620D03*
X064848Y016620D03*
X065848Y016620D03*
X065848Y015620D03*
X064848Y015620D03*
X063848Y015620D03*
X063848Y014620D03*
X063848Y013620D03*
X064848Y013620D03*
X064848Y014620D03*
X065848Y014620D03*
X065848Y013620D03*
X065848Y012620D03*
X064848Y012620D03*
X063848Y012620D03*
X062598Y012620D03*
X063848Y011620D03*
X064848Y011620D03*
X065848Y011620D03*
X033348Y018120D03*
X032348Y018120D03*
X031348Y018120D03*
X030348Y018120D03*
X029348Y018120D03*
X028348Y018120D03*
X027348Y018120D03*
X027348Y019120D03*
X028348Y019120D03*
X027348Y020120D03*
X027348Y021120D03*
X028348Y021120D03*
X028348Y022120D03*
X029348Y022120D03*
X030348Y022120D03*
X031348Y022120D03*
X032348Y022120D03*
X032348Y021120D03*
X033348Y021120D03*
X033348Y020120D03*
X032348Y020120D03*
X031348Y021120D03*
X030348Y021120D03*
X029348Y021120D03*
X032348Y019120D03*
X033348Y019120D03*
X032348Y017120D03*
X031348Y017120D03*
X030348Y017120D03*
X029348Y017120D03*
X028348Y017120D03*
X023348Y018120D03*
X022348Y018120D03*
X021348Y018120D03*
X020348Y018120D03*
X019348Y018120D03*
X018348Y018120D03*
X017348Y018120D03*
X017348Y019120D03*
X018348Y019120D03*
X017348Y020120D03*
X017348Y021120D03*
X018348Y021120D03*
X018348Y022120D03*
X019348Y022120D03*
X020348Y022120D03*
X021348Y022120D03*
X022348Y022120D03*
X022348Y021120D03*
X023348Y021120D03*
X023348Y020120D03*
X022348Y020120D03*
X021348Y021120D03*
X020348Y021120D03*
X019348Y021120D03*
X022348Y019120D03*
X023348Y019120D03*
X022348Y017120D03*
X021348Y017120D03*
X020348Y017120D03*
X019348Y017120D03*
X018348Y017120D03*
X013348Y018120D03*
X012348Y018120D03*
X012348Y019120D03*
X013348Y019120D03*
X013348Y020120D03*
X013348Y021120D03*
X012348Y021120D03*
X012348Y020120D03*
X011348Y021120D03*
X010348Y021120D03*
X009348Y021120D03*
X009348Y022120D03*
X010348Y022120D03*
X011348Y022120D03*
X012348Y022120D03*
X008348Y022120D03*
X008348Y021120D03*
X007348Y021120D03*
X007348Y020120D03*
X007348Y019120D03*
X008348Y019120D03*
X008348Y018120D03*
X007348Y018120D03*
X008348Y017120D03*
X009348Y017120D03*
X010348Y017120D03*
X011348Y017120D03*
X011348Y018120D03*
X010348Y018120D03*
X009348Y018120D03*
X012348Y017120D03*
X012348Y030370D03*
X012348Y031370D03*
X013348Y031370D03*
X013348Y032370D03*
X012348Y032370D03*
X012348Y033370D03*
X013348Y033370D03*
X013348Y034370D03*
X012348Y034370D03*
X012348Y035370D03*
X011348Y035370D03*
X010348Y035370D03*
X009348Y035370D03*
X008348Y035370D03*
X008348Y034370D03*
X007348Y034370D03*
X007348Y033370D03*
X007348Y032370D03*
X008348Y032370D03*
X008348Y031370D03*
X007348Y031370D03*
X008348Y030370D03*
X009348Y030370D03*
X010348Y030370D03*
X011348Y030370D03*
X011348Y031370D03*
X010348Y031370D03*
X009348Y031370D03*
X009348Y034370D03*
X010348Y034370D03*
X011348Y034370D03*
X017348Y034370D03*
X018348Y034370D03*
X018348Y035370D03*
X019348Y035370D03*
X020348Y035370D03*
X021348Y035370D03*
X022348Y035370D03*
X022348Y034370D03*
X023348Y034370D03*
X023348Y033370D03*
X022348Y033370D03*
X022348Y032370D03*
X023348Y032370D03*
X023348Y031370D03*
X022348Y031370D03*
X021348Y031370D03*
X020348Y031370D03*
X019348Y031370D03*
X018348Y031370D03*
X017348Y031370D03*
X017348Y032370D03*
X018348Y032370D03*
X017348Y033370D03*
X019348Y034370D03*
X020348Y034370D03*
X021348Y034370D03*
X021348Y030370D03*
X022348Y030370D03*
X020348Y030370D03*
X019348Y030370D03*
X018348Y030370D03*
X027348Y031370D03*
X028348Y031370D03*
X028348Y032370D03*
X027348Y032370D03*
X027348Y033370D03*
X027348Y034370D03*
X028348Y034370D03*
X028348Y035370D03*
X029348Y035370D03*
X030348Y035370D03*
X031348Y035370D03*
X032348Y035370D03*
X032348Y034370D03*
X033348Y034370D03*
X033348Y033370D03*
X032348Y033370D03*
X032348Y032370D03*
X033348Y032370D03*
X033348Y031370D03*
X032348Y031370D03*
X031348Y031370D03*
X030348Y031370D03*
X029348Y031370D03*
X029348Y030370D03*
X030348Y030370D03*
X031348Y030370D03*
X032348Y030370D03*
X028348Y030370D03*
X029348Y034370D03*
X030348Y034370D03*
X031348Y034370D03*
X059098Y043620D03*
D13*
X062098Y029813D03*
X062098Y029026D03*
X051098Y013513D03*
X051098Y012726D03*
X034848Y025226D03*
X034848Y026013D03*
X030148Y020213D03*
X029398Y020213D03*
X029398Y019426D03*
X030148Y019426D03*
X020148Y019426D03*
X019398Y019426D03*
X019398Y020213D03*
X020148Y020213D03*
X010148Y020213D03*
X009398Y020213D03*
X009398Y019426D03*
X010148Y019426D03*
X010148Y032676D03*
X009398Y032676D03*
X009398Y033463D03*
X010148Y033463D03*
X019398Y033463D03*
X020148Y033463D03*
X020148Y032676D03*
X019398Y032676D03*
X029398Y032676D03*
X030148Y032676D03*
X030148Y033463D03*
X029398Y033463D03*
X028548Y042476D03*
X028548Y043263D03*
X036298Y043476D03*
X036298Y044263D03*
D14*
X032848Y040704D03*
X032048Y040704D03*
X032048Y040035D03*
X032848Y040035D03*
X030848Y040035D03*
X030848Y040704D03*
X034098Y030304D03*
X034098Y029635D03*
X023348Y024204D03*
X023348Y023535D03*
X017348Y016204D03*
X017348Y015535D03*
X049098Y021585D03*
X049098Y022254D03*
X059848Y012204D03*
X059848Y011535D03*
D15*
X044183Y013620D03*
X043513Y013620D03*
X041533Y012420D03*
X040863Y012420D03*
X040883Y018870D03*
X040213Y018870D03*
X042263Y043620D03*
X042933Y043620D03*
X042933Y044420D03*
X042263Y044420D03*
D16*
X004848Y046810D02*
X004848Y007430D01*
X067948Y007430D01*
X067948Y046810D01*
X004848Y046810D01*
X005698Y044370D02*
X005700Y044420D01*
X005706Y044470D01*
X005716Y044520D01*
X005729Y044568D01*
X005746Y044616D01*
X005767Y044662D01*
X005791Y044706D01*
X005819Y044748D01*
X005850Y044788D01*
X005884Y044825D01*
X005921Y044860D01*
X005960Y044891D01*
X006001Y044920D01*
X006045Y044945D01*
X006091Y044967D01*
X006138Y044985D01*
X006186Y044999D01*
X006235Y045010D01*
X006285Y045017D01*
X006335Y045020D01*
X006386Y045019D01*
X006436Y045014D01*
X006486Y045005D01*
X006534Y044993D01*
X006582Y044976D01*
X006628Y044956D01*
X006673Y044933D01*
X006716Y044906D01*
X006756Y044876D01*
X006794Y044843D01*
X006829Y044807D01*
X006862Y044768D01*
X006891Y044727D01*
X006917Y044684D01*
X006940Y044639D01*
X006959Y044592D01*
X006974Y044544D01*
X006986Y044495D01*
X006994Y044445D01*
X006998Y044395D01*
X006998Y044345D01*
X006994Y044295D01*
X006986Y044245D01*
X006974Y044196D01*
X006959Y044148D01*
X006940Y044101D01*
X006917Y044056D01*
X006891Y044013D01*
X006862Y043972D01*
X006829Y043933D01*
X006794Y043897D01*
X006756Y043864D01*
X006716Y043834D01*
X006673Y043807D01*
X006628Y043784D01*
X006582Y043764D01*
X006534Y043747D01*
X006486Y043735D01*
X006436Y043726D01*
X006386Y043721D01*
X006335Y043720D01*
X006285Y043723D01*
X006235Y043730D01*
X006186Y043741D01*
X006138Y043755D01*
X006091Y043773D01*
X006045Y043795D01*
X006001Y043820D01*
X005960Y043849D01*
X005921Y043880D01*
X005884Y043915D01*
X005850Y043952D01*
X005819Y043992D01*
X005791Y044034D01*
X005767Y044078D01*
X005746Y044124D01*
X005729Y044172D01*
X005716Y044220D01*
X005706Y044270D01*
X005700Y044320D01*
X005698Y044370D01*
X005698Y010120D02*
X005700Y010170D01*
X005706Y010220D01*
X005716Y010270D01*
X005729Y010318D01*
X005746Y010366D01*
X005767Y010412D01*
X005791Y010456D01*
X005819Y010498D01*
X005850Y010538D01*
X005884Y010575D01*
X005921Y010610D01*
X005960Y010641D01*
X006001Y010670D01*
X006045Y010695D01*
X006091Y010717D01*
X006138Y010735D01*
X006186Y010749D01*
X006235Y010760D01*
X006285Y010767D01*
X006335Y010770D01*
X006386Y010769D01*
X006436Y010764D01*
X006486Y010755D01*
X006534Y010743D01*
X006582Y010726D01*
X006628Y010706D01*
X006673Y010683D01*
X006716Y010656D01*
X006756Y010626D01*
X006794Y010593D01*
X006829Y010557D01*
X006862Y010518D01*
X006891Y010477D01*
X006917Y010434D01*
X006940Y010389D01*
X006959Y010342D01*
X006974Y010294D01*
X006986Y010245D01*
X006994Y010195D01*
X006998Y010145D01*
X006998Y010095D01*
X006994Y010045D01*
X006986Y009995D01*
X006974Y009946D01*
X006959Y009898D01*
X006940Y009851D01*
X006917Y009806D01*
X006891Y009763D01*
X006862Y009722D01*
X006829Y009683D01*
X006794Y009647D01*
X006756Y009614D01*
X006716Y009584D01*
X006673Y009557D01*
X006628Y009534D01*
X006582Y009514D01*
X006534Y009497D01*
X006486Y009485D01*
X006436Y009476D01*
X006386Y009471D01*
X006335Y009470D01*
X006285Y009473D01*
X006235Y009480D01*
X006186Y009491D01*
X006138Y009505D01*
X006091Y009523D01*
X006045Y009545D01*
X006001Y009570D01*
X005960Y009599D01*
X005921Y009630D01*
X005884Y009665D01*
X005850Y009702D01*
X005819Y009742D01*
X005791Y009784D01*
X005767Y009828D01*
X005746Y009874D01*
X005729Y009922D01*
X005716Y009970D01*
X005706Y010020D01*
X005700Y010070D01*
X005698Y010120D01*
X061948Y010120D02*
X061950Y010170D01*
X061956Y010220D01*
X061966Y010270D01*
X061979Y010318D01*
X061996Y010366D01*
X062017Y010412D01*
X062041Y010456D01*
X062069Y010498D01*
X062100Y010538D01*
X062134Y010575D01*
X062171Y010610D01*
X062210Y010641D01*
X062251Y010670D01*
X062295Y010695D01*
X062341Y010717D01*
X062388Y010735D01*
X062436Y010749D01*
X062485Y010760D01*
X062535Y010767D01*
X062585Y010770D01*
X062636Y010769D01*
X062686Y010764D01*
X062736Y010755D01*
X062784Y010743D01*
X062832Y010726D01*
X062878Y010706D01*
X062923Y010683D01*
X062966Y010656D01*
X063006Y010626D01*
X063044Y010593D01*
X063079Y010557D01*
X063112Y010518D01*
X063141Y010477D01*
X063167Y010434D01*
X063190Y010389D01*
X063209Y010342D01*
X063224Y010294D01*
X063236Y010245D01*
X063244Y010195D01*
X063248Y010145D01*
X063248Y010095D01*
X063244Y010045D01*
X063236Y009995D01*
X063224Y009946D01*
X063209Y009898D01*
X063190Y009851D01*
X063167Y009806D01*
X063141Y009763D01*
X063112Y009722D01*
X063079Y009683D01*
X063044Y009647D01*
X063006Y009614D01*
X062966Y009584D01*
X062923Y009557D01*
X062878Y009534D01*
X062832Y009514D01*
X062784Y009497D01*
X062736Y009485D01*
X062686Y009476D01*
X062636Y009471D01*
X062585Y009470D01*
X062535Y009473D01*
X062485Y009480D01*
X062436Y009491D01*
X062388Y009505D01*
X062341Y009523D01*
X062295Y009545D01*
X062251Y009570D01*
X062210Y009599D01*
X062171Y009630D01*
X062134Y009665D01*
X062100Y009702D01*
X062069Y009742D01*
X062041Y009784D01*
X062017Y009828D01*
X061996Y009874D01*
X061979Y009922D01*
X061966Y009970D01*
X061956Y010020D01*
X061950Y010070D01*
X061948Y010120D01*
X066298Y009620D02*
X066300Y009667D01*
X066306Y009713D01*
X066316Y009759D01*
X066329Y009803D01*
X066347Y009847D01*
X066368Y009888D01*
X066392Y009928D01*
X066420Y009966D01*
X066451Y010001D01*
X066485Y010033D01*
X066521Y010062D01*
X066560Y010088D01*
X066600Y010111D01*
X066643Y010130D01*
X066687Y010146D01*
X066732Y010158D01*
X066778Y010166D01*
X066825Y010170D01*
X066871Y010170D01*
X066918Y010166D01*
X066964Y010158D01*
X067009Y010146D01*
X067053Y010130D01*
X067096Y010111D01*
X067136Y010088D01*
X067175Y010062D01*
X067211Y010033D01*
X067245Y010001D01*
X067276Y009966D01*
X067304Y009928D01*
X067328Y009888D01*
X067349Y009847D01*
X067367Y009803D01*
X067380Y009759D01*
X067390Y009713D01*
X067396Y009667D01*
X067398Y009620D01*
X067396Y009573D01*
X067390Y009527D01*
X067380Y009481D01*
X067367Y009437D01*
X067349Y009393D01*
X067328Y009352D01*
X067304Y009312D01*
X067276Y009274D01*
X067245Y009239D01*
X067211Y009207D01*
X067175Y009178D01*
X067136Y009152D01*
X067096Y009129D01*
X067053Y009110D01*
X067009Y009094D01*
X066964Y009082D01*
X066918Y009074D01*
X066871Y009070D01*
X066825Y009070D01*
X066778Y009074D01*
X066732Y009082D01*
X066687Y009094D01*
X066643Y009110D01*
X066600Y009129D01*
X066560Y009152D01*
X066521Y009178D01*
X066485Y009207D01*
X066451Y009239D01*
X066420Y009274D01*
X066392Y009312D01*
X066368Y009352D01*
X066347Y009393D01*
X066329Y009437D01*
X066316Y009481D01*
X066306Y009527D01*
X066300Y009573D01*
X066298Y009620D01*
X061948Y044370D02*
X061950Y044420D01*
X061956Y044470D01*
X061966Y044520D01*
X061979Y044568D01*
X061996Y044616D01*
X062017Y044662D01*
X062041Y044706D01*
X062069Y044748D01*
X062100Y044788D01*
X062134Y044825D01*
X062171Y044860D01*
X062210Y044891D01*
X062251Y044920D01*
X062295Y044945D01*
X062341Y044967D01*
X062388Y044985D01*
X062436Y044999D01*
X062485Y045010D01*
X062535Y045017D01*
X062585Y045020D01*
X062636Y045019D01*
X062686Y045014D01*
X062736Y045005D01*
X062784Y044993D01*
X062832Y044976D01*
X062878Y044956D01*
X062923Y044933D01*
X062966Y044906D01*
X063006Y044876D01*
X063044Y044843D01*
X063079Y044807D01*
X063112Y044768D01*
X063141Y044727D01*
X063167Y044684D01*
X063190Y044639D01*
X063209Y044592D01*
X063224Y044544D01*
X063236Y044495D01*
X063244Y044445D01*
X063248Y044395D01*
X063248Y044345D01*
X063244Y044295D01*
X063236Y044245D01*
X063224Y044196D01*
X063209Y044148D01*
X063190Y044101D01*
X063167Y044056D01*
X063141Y044013D01*
X063112Y043972D01*
X063079Y043933D01*
X063044Y043897D01*
X063006Y043864D01*
X062966Y043834D01*
X062923Y043807D01*
X062878Y043784D01*
X062832Y043764D01*
X062784Y043747D01*
X062736Y043735D01*
X062686Y043726D01*
X062636Y043721D01*
X062585Y043720D01*
X062535Y043723D01*
X062485Y043730D01*
X062436Y043741D01*
X062388Y043755D01*
X062341Y043773D01*
X062295Y043795D01*
X062251Y043820D01*
X062210Y043849D01*
X062171Y043880D01*
X062134Y043915D01*
X062100Y043952D01*
X062069Y043992D01*
X062041Y044034D01*
X062017Y044078D01*
X061996Y044124D01*
X061979Y044172D01*
X061966Y044220D01*
X061956Y044270D01*
X061950Y044320D01*
X061948Y044370D01*
X066298Y044620D02*
X066300Y044667D01*
X066306Y044713D01*
X066316Y044759D01*
X066329Y044803D01*
X066347Y044847D01*
X066368Y044888D01*
X066392Y044928D01*
X066420Y044966D01*
X066451Y045001D01*
X066485Y045033D01*
X066521Y045062D01*
X066560Y045088D01*
X066600Y045111D01*
X066643Y045130D01*
X066687Y045146D01*
X066732Y045158D01*
X066778Y045166D01*
X066825Y045170D01*
X066871Y045170D01*
X066918Y045166D01*
X066964Y045158D01*
X067009Y045146D01*
X067053Y045130D01*
X067096Y045111D01*
X067136Y045088D01*
X067175Y045062D01*
X067211Y045033D01*
X067245Y045001D01*
X067276Y044966D01*
X067304Y044928D01*
X067328Y044888D01*
X067349Y044847D01*
X067367Y044803D01*
X067380Y044759D01*
X067390Y044713D01*
X067396Y044667D01*
X067398Y044620D01*
X067396Y044573D01*
X067390Y044527D01*
X067380Y044481D01*
X067367Y044437D01*
X067349Y044393D01*
X067328Y044352D01*
X067304Y044312D01*
X067276Y044274D01*
X067245Y044239D01*
X067211Y044207D01*
X067175Y044178D01*
X067136Y044152D01*
X067096Y044129D01*
X067053Y044110D01*
X067009Y044094D01*
X066964Y044082D01*
X066918Y044074D01*
X066871Y044070D01*
X066825Y044070D01*
X066778Y044074D01*
X066732Y044082D01*
X066687Y044094D01*
X066643Y044110D01*
X066600Y044129D01*
X066560Y044152D01*
X066521Y044178D01*
X066485Y044207D01*
X066451Y044239D01*
X066420Y044274D01*
X066392Y044312D01*
X066368Y044352D01*
X066347Y044393D01*
X066329Y044437D01*
X066316Y044481D01*
X066306Y044527D01*
X066300Y044573D01*
X066298Y044620D01*
D17*
X066848Y044620D03*
X066848Y009620D03*
D18*
X061110Y029496D03*
X061110Y030244D03*
X060090Y030244D03*
X060090Y029870D03*
X060090Y029496D03*
X038606Y043496D03*
X038606Y043870D03*
X038606Y044244D03*
X037586Y044244D03*
X037586Y043496D03*
D19*
X045204Y042620D03*
X045992Y042620D03*
X053204Y035520D03*
X053992Y035520D03*
X057204Y034620D03*
X057992Y034620D03*
X053242Y030320D03*
X052454Y030320D03*
X056704Y024120D03*
X057492Y024120D03*
X053742Y020620D03*
X052954Y020620D03*
X041342Y023570D03*
X040554Y023570D03*
X057804Y039970D03*
X058592Y039970D03*
X017742Y009370D03*
X016954Y009370D03*
D20*
X016848Y040620D03*
X015848Y040620D03*
X015848Y041620D03*
X016848Y041620D03*
X017848Y041620D03*
X018848Y041620D03*
X019848Y041620D03*
X020848Y041620D03*
X021848Y041620D03*
X022848Y041620D03*
X023848Y041620D03*
X024848Y041620D03*
X025848Y041620D03*
X026848Y041620D03*
X027848Y041620D03*
X028848Y041620D03*
X028848Y040620D03*
X027848Y040620D03*
X026848Y040620D03*
X025848Y040620D03*
X024848Y040620D03*
X023848Y040620D03*
X022848Y040620D03*
X021848Y040620D03*
X020848Y040620D03*
X019848Y040620D03*
X018848Y040620D03*
X017848Y040620D03*
X014848Y040620D03*
X013848Y040620D03*
X012848Y040620D03*
X012848Y041620D03*
X013848Y041620D03*
X014848Y041620D03*
X011848Y041620D03*
X010848Y041620D03*
X009848Y041620D03*
X009848Y040620D03*
X010848Y040620D03*
X011848Y040620D03*
X034848Y040620D03*
X035848Y040620D03*
X036848Y040620D03*
X036848Y041620D03*
X035848Y041620D03*
X034848Y041620D03*
X037848Y041620D03*
X038848Y041620D03*
X039848Y041620D03*
X040848Y041620D03*
X041848Y041620D03*
X042848Y041620D03*
X043848Y041620D03*
X044848Y041620D03*
X045848Y041620D03*
X046848Y041620D03*
X047848Y041620D03*
X048848Y041620D03*
X049848Y041620D03*
X050848Y041620D03*
X051848Y041620D03*
X052848Y041620D03*
X053848Y041620D03*
X053848Y040620D03*
X052848Y040620D03*
X051848Y040620D03*
X050848Y040620D03*
X049848Y040620D03*
X048848Y040620D03*
X047848Y040620D03*
X046848Y040620D03*
X045848Y040620D03*
X044848Y040620D03*
X043848Y040620D03*
X042848Y040620D03*
X041848Y040620D03*
X040848Y040620D03*
X039848Y040620D03*
X038848Y040620D03*
X037848Y040620D03*
D21*
X062598Y044370D03*
X062598Y010120D03*
X006348Y010120D03*
X006348Y044370D03*
D22*
X039875Y031434D03*
X040190Y031434D03*
X040505Y031434D03*
X040820Y031434D03*
X040820Y030805D03*
X040505Y030805D03*
X040190Y030805D03*
X039875Y030805D03*
X041875Y030805D03*
X042190Y030805D03*
X042505Y030805D03*
X042820Y030805D03*
X042820Y031434D03*
X042505Y031434D03*
X042190Y031434D03*
X041875Y031434D03*
X045625Y031434D03*
X045940Y031434D03*
X046255Y031434D03*
X046570Y031434D03*
X046570Y030805D03*
X046255Y030805D03*
X045940Y030805D03*
X045625Y030805D03*
X047875Y030805D03*
X048190Y030805D03*
X048505Y030805D03*
X048820Y030805D03*
X048820Y031434D03*
X048505Y031434D03*
X048190Y031434D03*
X047875Y031434D03*
D23*
X049848Y010870D03*
X050848Y010870D03*
X051848Y010870D03*
X052848Y010870D03*
X053848Y010870D03*
X054848Y010870D03*
X055848Y010870D03*
X056848Y010870D03*
X057848Y010870D03*
X058848Y010870D03*
X058848Y009870D03*
X057848Y009870D03*
X056848Y009870D03*
X055848Y009870D03*
X054848Y009870D03*
X053848Y009870D03*
X052848Y009870D03*
X051848Y009870D03*
X050848Y009870D03*
X049848Y009870D03*
M02*
