%
M48
M72
T01C0.01200
T02C0.03200
T03C0.03543
T04C0.03600
T05C0.03937
T06C0.11000
T07C0.13000
%
T01
X110333Y93600
X105833Y98600
X108333Y101100
X110833Y103600
X113333Y106100
X115833Y108600
X118333Y111100
X120833Y113600
X123333Y116100
X125833Y118600
X140833Y123600
X145833Y123600
X150833Y123600
X155833Y123600
X160833Y123600
X165833Y123600
X170833Y123600
X175833Y123600
X183833Y131100
X192833Y131100
X193333Y151100
X198333Y153600
X203333Y156100
X208333Y158600
X213333Y161100
X218333Y163600
X232333Y169600
X248333Y171100
X258333Y166100
X260833Y171100
X263333Y173600
X268333Y163600
X263333Y161100
X273333Y156100
X278333Y158600
X283333Y138600
X288333Y138600
X293333Y138600
X298333Y138600
X303833Y131100
X298333Y123600
X293333Y123600
X288333Y123600
X283333Y123600
X278333Y121100
X273333Y118600
X268333Y116100
X263333Y113600
X270833Y103600
X265833Y101100
X260833Y101100
X250833Y108600
X248333Y111100
X248333Y103600
X235833Y98600
X230833Y98600
X225833Y98600
X220833Y98600
X215833Y98600
X210833Y98600
X205833Y98600
X200833Y98600
X195833Y98600
X184833Y93600
X220333Y84600
X228333Y108600
X229833Y122100
X235833Y122100
X241833Y122100
X243833Y131100
X252833Y131100
X245833Y148600
X248333Y151100
X240833Y153600
X245833Y186100
X255833Y186100
X245833Y203600
X245833Y208600
X233333Y228600
X245833Y236100
X243333Y243600
X248333Y243600
X250833Y246100
X260833Y248600
X263333Y251100
X258333Y253600
X278333Y261100
X283333Y258600
X288333Y266100
X293333Y263600
X303333Y278600
X298333Y281100
X308333Y286100
X313333Y283600
X345833Y288600
X350833Y296100
X360833Y303600
X358333Y306100
X355833Y313600
X353333Y318600
X343333Y331100
X380833Y331100
X380833Y336100
X393333Y336100
X414333Y339600
X418333Y353600
X438333Y338600
X448333Y328600
X453333Y341600
X450833Y351100
X472333Y344600
X481833Y353600
X495833Y358600
X508333Y373600
X522333Y367600
X524833Y365100
X534833Y367600
X538333Y365100
X541333Y362600
X535833Y360100
X543833Y356100
X550833Y354600
X555833Y367600
X550833Y368600
X547333Y368600
X538333Y379600
X548333Y387100
X550833Y384600
X550833Y392100
X555833Y394600
X560833Y389600
X565833Y382100
X570833Y384600
X584333Y376100
X575833Y365100
X580833Y357100
X587333Y346100
X575833Y341100
X575833Y331100
X590833Y336100
X595833Y318600
X600833Y316100
X603333Y306100
X615833Y308600
X615833Y302600
X620833Y302100
X630833Y301100
X632833Y313600
X628833Y323100
X620833Y331100
X620833Y341100
X625833Y357100
X623333Y365100
X631833Y367600
X631833Y376100
X618333Y384600
X613333Y382100
X608333Y389600
X603333Y394600
X598333Y392100
X593333Y387100
X589833Y399600
X580833Y413600
X575833Y418600
X558333Y428600
X550833Y433600
X545833Y438600
X493333Y443600
X485833Y441100
X478333Y443600
X470833Y441100
X463333Y451100
X459833Y431100
X443333Y428600
X433333Y426100
X423333Y423600
X413333Y421100
X408333Y431100
X398333Y428600
X398333Y438600
X392333Y438600
X388333Y428600
X381833Y438600
X370333Y434600
X373333Y423600
X357833Y442600
X343333Y431100
X338333Y416100
X323333Y418600
X318333Y418600
X318333Y433600
X313333Y438600
X305833Y436100
X295833Y441100
X279833Y424600
X268333Y396100
X263333Y398600
X255833Y396100
X253333Y398600
X248333Y391100
X245833Y388600
X240833Y386100
X243333Y383600
X253333Y378600
X258333Y378600
X260833Y381100
X263333Y376100
X258333Y366100
X273333Y358600
X283333Y363600
X288333Y373600
X293333Y378600
X298333Y376100
X303333Y371100
X300833Y366100
X308333Y368600
X313333Y366100
X323333Y366100
X330833Y368600
X345833Y368600
X365833Y378600
X368333Y376100
X370833Y381100
X373333Y383600
X375833Y386100
X378333Y383600
X380833Y376100
X383333Y373600
X375833Y368600
X383333Y353600
X398333Y386100
X403333Y401100
X415833Y398600
X423333Y396100
X433333Y393600
X450833Y391100
X450833Y376100
X498333Y339600
X523333Y336100
X525833Y333600
X536333Y323600
X550833Y318100
X550833Y313600
X548333Y311100
X555833Y316100
X560833Y306100
X570833Y308600
X580833Y302100
X583333Y288600
X595833Y296100
X605833Y286100
X603333Y281100
X600833Y276100
X615833Y283600
X621333Y278600
X623333Y276100
X620833Y271100
X653333Y281100
X663333Y301100
X595833Y354600
X603333Y367600
X598333Y370100
X558333Y341100
X545833Y336100
X525333Y310600
X538333Y305600
X533333Y291100
X533333Y283600
X528333Y281100
X533333Y273600
X535833Y263600
X518333Y268100
X508333Y261100
X498333Y271100
X490833Y278600
X485833Y276100
X480833Y273600
X475833Y283600
X463333Y288600
X460833Y286100
X458333Y283600
X455833Y281100
X443333Y278600
X440833Y276100
X438333Y273600
X425833Y263600
X423333Y266100
X420833Y268600
X418333Y271100
X415833Y273600
X413333Y276100
X410833Y278600
X408333Y281100
X403333Y283600
X398333Y286100
X380833Y288600
X375833Y301100
X363333Y288600
X413333Y311100
X438333Y301100
X440833Y296100
X430833Y288600
X428333Y286100
X425833Y283600
X423333Y281100
X428333Y261100
X430833Y258600
X438333Y253600
X440833Y251100
X443333Y248600
X435833Y243600
X442833Y233600
X438333Y226100
X445833Y223600
X445833Y216100
X445833Y208600
X445833Y201100
X438333Y211100
X425333Y196100
X425833Y188600
X438333Y176100
X453333Y156100
X450833Y141100
X455833Y133600
X473333Y143100
X473333Y149100
X478333Y136100
X480833Y131100
X473333Y123600
X490833Y136100
X493333Y138600
X498333Y141100
X495833Y131100
X506333Y125600
X540833Y153600
X553333Y153600
X565833Y155100
X578333Y143600
X585833Y151100
X593333Y161100
X608333Y161100
X613333Y146100
X619333Y175600
X613333Y188600
X598333Y188600
X593333Y178600
X570833Y183600
X570833Y193600
X573333Y208600
X573333Y218600
X568333Y222600
X563333Y226100
X570833Y231100
X568333Y233600
X563333Y236100
X565833Y246100
X558333Y248600
X553333Y248600
X548333Y248600
X543333Y248600
X538333Y248600
X533333Y248600
X528333Y248600
X509333Y248100
X498333Y247100
X493333Y238600
X485833Y243600
X488333Y246100
X478333Y248600
X465833Y231100
X465833Y221100
X465833Y213600
X465833Y206100
X465833Y198600
X478333Y188600
X468333Y183600
X468333Y178600
X484593Y167340
X488333Y173600
X492833Y182100
X494833Y193600
X488833Y196100
X490833Y211100
X495833Y226100
X510833Y228600
X528333Y223600
X520333Y207600
X525833Y193600
X525833Y181100
X528333Y176100
X523333Y174100
X533333Y174100
X538333Y176100
X543333Y174100
X548333Y176100
X553333Y174100
X558333Y176100
X535833Y181100
X588333Y213600
X595833Y211100
X603333Y214600
X615833Y227600
X615833Y236100
X608333Y233600
X630833Y238600
X630833Y221100
X628333Y215600
X620833Y208600
X630833Y186100
X668333Y211100
X663333Y221100
X585833Y266100
X580833Y266100
X578333Y268600
X575833Y271100
X563333Y271100
X563333Y276100
X558333Y266100
X553333Y278600
X548833Y286100
X560833Y288600
X563333Y283600
X565833Y296100
X525833Y288600
X510833Y286100
X495833Y283600
X474333Y308600
X455833Y251100
X453333Y248600
X420833Y236100
X408333Y228600
X395833Y231100
X385833Y231100
X383333Y226100
X383333Y213600
X380833Y203600
X380833Y196100
X395833Y188600
X398333Y196100
X395833Y203600
X408333Y203600
X406833Y212100
X383333Y238600
X390833Y246100
X358333Y233600
X355833Y236100
X348333Y245600
X333333Y243600
X313333Y233600
X298333Y231100
X293333Y228600
X223333Y261100
X218333Y263600
X203333Y258600
X198333Y268600
X203333Y273600
X198333Y276100
X188333Y271100
X190833Y266100
X183333Y263600
X178333Y266100
X168333Y266100
X163333Y268600
X165833Y271100
X158333Y262100
X160833Y251100
X135833Y243600
X123333Y246100
X118333Y258600
X113333Y276100
X105833Y278600
X103333Y273600
X98333Y281100
X93333Y273600
X88333Y276100
X83333Y268600
X78333Y271100
X65833Y283600
X63333Y281100
X68333Y288600
X63333Y291100
X63333Y313600
X60833Y318600
X65833Y338600
X60833Y363600
X63333Y368600
X73333Y366100
X83333Y371100
X93333Y373600
X103333Y376100
X108333Y381100
X113333Y378600
X118333Y363600
X98333Y386100
X145833Y396100
X148333Y393600
X155833Y396100
X155833Y391100
X158333Y388600
X160833Y396100
X168333Y378600
X170833Y373600
X173333Y366100
X165833Y361100
X158333Y358600
X160833Y376100
X183333Y371100
X188333Y368600
X195833Y376100
X203333Y373600
X213333Y376100
X223333Y378600
X233333Y388600
X228333Y396100
X195833Y386100
X218333Y363600
X240833Y341100
X243333Y331100
X245833Y323600
X253333Y313600
X260833Y313600
X268333Y318600
X258333Y323600
X248333Y306100
X250833Y303600
X253333Y288600
X263333Y288600
X223333Y291100
X218333Y281100
X213333Y278600
X165833Y293600
X163333Y303600
X160833Y313600
X165833Y323600
X165833Y328600
X153333Y328600
X150833Y333600
X148333Y338600
X143333Y318600
X143333Y303600
X143333Y291100
X140833Y288600
X118333Y291100
X113333Y283600
X108333Y286100
X73333Y248600
X83333Y233600
X88333Y231100
X65833Y181100
X63333Y173600
X88333Y156100
X90833Y158600
X60833Y151100
X128333Y151100
X130833Y153600
X133333Y148600
X135833Y143600
X138333Y146100
X132833Y131100
X163333Y141100
X138333Y166100
X135833Y168600
X133333Y163600
X160833Y181100
X165833Y176100
X163333Y171100
X160833Y211100
X188333Y231100
X183333Y233600
X210833Y322600
X273333Y393600
X243333Y436100
X353333Y388600
X355833Y393600
X358333Y391100
X360833Y396100
X410833Y443600
X415833Y446600
X403333Y456100
X610833Y418600
X620833Y413600
X580833Y239600
X580833Y227600
X573333Y226100
X665833Y156100
X598333Y109600
X573333Y91100
X448333Y118600
X433333Y131100
X433333Y151100
X415833Y148600
X405833Y143600
X405833Y133600
X392333Y123600
X405833Y118600
X388333Y101600
X375833Y103600
X373333Y106100
X370833Y108600
X368333Y111100
X365833Y113600
X360833Y116100
X363333Y118600
X358333Y121100
X345833Y138600
X340833Y138600
X335833Y138600
X330833Y138600
X325833Y138600
X313333Y131100
X320833Y123600
X320833Y98600
X315833Y98600
X308333Y95600
X325833Y98600
X330833Y98600
X335833Y98600
X340833Y98600
X345833Y98600
X350833Y98600
X355833Y98600
X375833Y98600
X378333Y91100
X368333Y84600
X414833Y96100
X383333Y141100
X383333Y146100
X380833Y148600
X383333Y151100
X405833Y153600
X410833Y161100
X388333Y171100
X355833Y171100
X338333Y171100
X323333Y161100
X345833Y153600
X353333Y153600
X355833Y143600
X295833Y116100
X290833Y113600
X285833Y111100
X280833Y108600
X275833Y106100
X257333Y84600
X131833Y89600
T02
X580833Y436100
X590833Y436100
X615833Y126100
X625833Y126100
T03
X333333Y181100
X323333Y181100
X313333Y181100
X303333Y181100
X293333Y181100
X283333Y181100
X273333Y181100
X273333Y191100
X283333Y191100
X283333Y201100
X273333Y201100
X273333Y211100
X283333Y211100
X283333Y221100
X293333Y221100
X303333Y221100
X303333Y211100
X293333Y211100
X313333Y211100
X323333Y211100
X323333Y201100
X333333Y201100
X333333Y211100
X323333Y221100
X313333Y221100
X323333Y191100
X333333Y191100
X323333Y171100
X313333Y171100
X303333Y171100
X293333Y171100
X283333Y171100
X233333Y181100
X223333Y181100
X213333Y181100
X203333Y181100
X193333Y181100
X183333Y181100
X173333Y181100
X173333Y191100
X183333Y191100
X183333Y201100
X173333Y201100
X173333Y211100
X183333Y211100
X183333Y221100
X193333Y221100
X203333Y221100
X203333Y211100
X193333Y211100
X213333Y211100
X223333Y211100
X223333Y201100
X233333Y201100
X233333Y211100
X223333Y221100
X213333Y221100
X223333Y191100
X233333Y191100
X223333Y171100
X213333Y171100
X203333Y171100
X193333Y171100
X183333Y171100
X133333Y181100
X123333Y181100
X113333Y181100
X103333Y181100
X93333Y181100
X83333Y181100
X73333Y181100
X73333Y191100
X83333Y191100
X83333Y201100
X73333Y201100
X73333Y211100
X83333Y211100
X83333Y221100
X93333Y221100
X103333Y221100
X113333Y221100
X113333Y211100
X103333Y211100
X93333Y211100
X123333Y211100
X123333Y201100
X133333Y201100
X133333Y211100
X123333Y221100
X123333Y191100
X133333Y191100
X123333Y171100
X113333Y171100
X103333Y171100
X93333Y171100
X83333Y171100
X83333Y303600
X83333Y313600
X73333Y313600
X73333Y323600
X83333Y323600
X83333Y333600
X73333Y333600
X73333Y343600
X83333Y343600
X83333Y353600
X93333Y353600
X103333Y353600
X113333Y353600
X113333Y343600
X103333Y343600
X93333Y343600
X123333Y343600
X133333Y343600
X133333Y333600
X123333Y333600
X123333Y323600
X133333Y323600
X133333Y313600
X123333Y313600
X113333Y313600
X103333Y313600
X93333Y313600
X93333Y303600
X103333Y303600
X113333Y303600
X123333Y303600
X173333Y313600
X183333Y313600
X183333Y303600
X193333Y303600
X203333Y303600
X203333Y313600
X193333Y313600
X183333Y323600
X173333Y323600
X173333Y333600
X183333Y333600
X183333Y343600
X173333Y343600
X183333Y353600
X193333Y353600
X203333Y353600
X203333Y343600
X193333Y343600
X213333Y343600
X223333Y343600
X233333Y343600
X233333Y333600
X223333Y333600
X223333Y323600
X233333Y323600
X233333Y313600
X223333Y313600
X213333Y313600
X213333Y303600
X223333Y303600
X273333Y313600
X283333Y313600
X283333Y303600
X293333Y303600
X303333Y303600
X303333Y313600
X293333Y313600
X283333Y323600
X273333Y323600
X273333Y333600
X283333Y333600
X283333Y343600
X273333Y343600
X283333Y353600
X293333Y353600
X303333Y353600
X303333Y343600
X293333Y343600
X313333Y343600
X323333Y343600
X333333Y343600
X333333Y333600
X323333Y333600
X323333Y323600
X333333Y323600
X333333Y313600
X323333Y313600
X313333Y313600
X313333Y303600
X323333Y303600
X323333Y353600
X313333Y353600
X223333Y353600
X213333Y353600
X123333Y353600
T04
X638333Y356100
X638333Y346100
X638333Y336100
X638333Y326100
X638333Y316100
X638333Y306100
X638333Y296100
X638333Y286100
X638333Y276100
X638333Y266100
X638333Y256100
X638333Y246100
X638333Y236100
X638333Y226100
X638333Y216100
X638333Y206100
X638333Y196100
X638333Y186100
X638333Y176100
X638333Y166100
X638333Y156100
X638333Y146100
X638333Y136100
X638333Y126100
X638333Y116100
X648333Y116100
X658333Y116100
X658333Y126100
X648333Y126100
X648333Y136100
X648333Y146100
X658333Y146100
X658333Y136100
X658333Y156100
X648333Y156100
X648333Y166100
X658333Y166100
X658333Y176100
X648333Y176100
X648333Y186100
X658333Y186100
X658333Y196100
X648333Y196100
X648333Y206100
X648333Y216100
X658333Y216100
X658333Y206100
X658333Y226100
X648333Y226100
X648333Y236100
X658333Y236100
X658333Y246100
X648333Y246100
X648333Y256100
X658333Y256100
X658333Y266100
X648333Y266100
X648333Y276100
X658333Y276100
X658333Y286100
X648333Y286100
X648333Y296100
X658333Y296100
X658333Y306100
X648333Y306100
X648333Y316100
X658333Y316100
X658333Y326100
X648333Y326100
X648333Y336100
X658333Y336100
X658333Y346100
X648333Y346100
X648333Y356100
X658333Y356100
X658333Y366100
X648333Y366100
X638333Y366100
X638333Y376100
X638333Y386100
X638333Y396100
X638333Y406100
X638333Y416100
X638333Y426100
X648333Y426100
X658333Y426100
X658333Y416100
X648333Y416100
X648333Y406100
X648333Y396100
X658333Y396100
X658333Y406100
X658333Y386100
X648333Y386100
X648333Y376100
X658333Y376100
T05
X538333Y406100
X528333Y406100
X518333Y406100
X508333Y406100
X498333Y406100
X488333Y406100
X478333Y406100
X468333Y406100
X458333Y406100
X448333Y406100
X438333Y406100
X428333Y406100
X418333Y406100
X408333Y406100
X398333Y406100
X388333Y406100
X378333Y406100
X368333Y406100
X358333Y406100
X348333Y406100
X348333Y416100
X358333Y416100
X368333Y416100
X378333Y416100
X388333Y416100
X398333Y416100
X408333Y416100
X418333Y416100
X428333Y416100
X438333Y416100
X448333Y416100
X458333Y416100
X468333Y416100
X478333Y416100
X488333Y416100
X498333Y416100
X508333Y416100
X518333Y416100
X528333Y416100
X538333Y416100
X288333Y416100
X278333Y416100
X268333Y416100
X258333Y416100
X248333Y416100
X238333Y416100
X228333Y416100
X218333Y416100
X208333Y416100
X198333Y416100
X188333Y416100
X178333Y416100
X168333Y416100
X158333Y416100
X148333Y416100
X138333Y416100
X128333Y416100
X118333Y416100
X108333Y416100
X98333Y416100
X98333Y406100
X108333Y406100
X118333Y406100
X128333Y406100
X138333Y406100
X148333Y406100
X158333Y406100
X168333Y406100
X178333Y406100
X188333Y406100
X198333Y406100
X208333Y406100
X218333Y406100
X228333Y406100
X238333Y406100
X248333Y406100
X258333Y406100
X268333Y406100
X278333Y406100
X288333Y406100
X498333Y108600
X508333Y108600
X508333Y98600
X498333Y98600
X518333Y98600
X528333Y98600
X538333Y98600
X538333Y108600
X528333Y108600
X518333Y108600
X548333Y108600
X558333Y108600
X558333Y98600
X548333Y98600
X568333Y98600
X578333Y98600
X588333Y98600
X588333Y108600
X578333Y108600
X568333Y108600
T06
X668333Y96100
X668333Y446100
T07
X625833Y443600
X625833Y101100
X63333Y101100
X63333Y443600
M30
