%
M48
M72
T01C0.0120
T02C0.0320
T03C0.0354
T04C0.0360
T05C0.0394
T06C0.1100
T07C0.1300
%
T01
X11048Y9370
X10598Y9870
X10848Y10120
X11098Y10370
X11348Y10620
X11598Y10870
X11848Y11120
X12098Y11370
X12348Y11620
X12598Y11870
X14098Y12370
X14598Y12370
X15098Y12370
X15598Y12370
X16098Y12370
X16598Y12370
X17098Y12370
X17598Y12370
X18398Y13120
X19298Y13120
X19348Y15120
X19848Y15370
X20348Y15620
X20848Y15870
X21348Y16120
X21848Y16370
X23248Y16970
X24848Y17120
X25848Y16620
X26098Y17120
X26348Y17370
X26848Y16370
X26348Y16120
X27348Y15620
X27848Y15870
X28348Y13870
X28848Y13870
X29348Y13870
X29848Y13870
X30398Y13120
X29848Y12370
X29348Y12370
X28848Y12370
X28348Y12370
X27848Y12120
X27348Y11870
X26848Y11620
X26348Y11370
X27098Y10370
X27598Y10620
X28098Y10870
X28598Y11120
X29098Y11370
X29598Y11620
X31348Y13120
X32598Y13870
X33098Y13870
X33598Y13870
X34098Y13870
X34598Y13870
X35598Y14370
X35348Y15370
X34598Y15370
X33848Y17120
X32348Y16120
X35598Y17120
X38848Y17120
X39598Y18870
X39848Y19620
X39598Y20370
X40848Y20370
X40698Y21220
X40848Y22870
X39598Y23120
X38598Y23120
X38348Y22620
X38348Y21370
X38098Y20370
X38098Y19620
X42548Y19620
X42598Y18870
X43848Y17620
X45348Y15620
X45098Y14120
X45598Y13370
X47348Y14320
X47348Y14920
X47848Y13620
X48098Y13120
X47348Y12370
X49098Y13620
X49348Y13870
X49848Y14120
X49598Y13120
X50648Y12570
X54098Y15370
X55348Y15370
X56598Y15520
X57848Y14370
X58598Y15120
X59348Y16120
X60848Y16120
X61348Y14620
X61948Y17570
X61348Y18870
X59848Y18870
X59348Y17870
X57098Y18370
X57098Y19370
X57348Y20870
X57348Y21870
X56848Y22270
X57348Y22620
X57098Y23120
X56848Y23370
X56348Y23620
X56348Y22620
X58098Y22770
X58848Y21370
X59598Y21120
X60348Y21470
X61598Y22770
X61598Y23620
X60848Y23370
X63098Y23870
X63098Y22120
X62848Y21570
X62098Y20870
X63098Y18620
X66848Y21120
X66348Y22120
X62098Y27120
X62348Y27620
X62148Y27870
X61598Y28370
X60598Y28620
X60348Y28120
X60098Y27620
X58598Y26620
X58098Y26620
X57848Y26870
X57598Y27120
X56348Y27120
X56348Y27620
X55848Y26620
X55348Y27870
X54898Y28620
X56098Y28870
X56348Y28370
X56598Y29620
X56098Y30620
X57098Y30870
X58098Y30220
X58348Y28870
X59598Y29620
X60348Y30620
X61598Y30870
X61598Y30270
X62098Y30220
X63098Y30120
X63298Y31370
X62898Y32320
X62098Y33120
X62098Y34120
X62598Y35720
X62348Y36520
X63198Y36770
X63198Y37620
X61848Y38470
X61348Y38220
X60848Y38970
X60348Y39470
X59848Y39220
X59348Y38720
X58998Y39970
X58098Y41370
X57598Y41870
X55848Y42870
X55098Y43370
X54598Y43870
X49348Y44370
X48598Y44120
X47848Y44370
X47098Y44120
X46348Y45120
X45998Y43120
X44348Y42870
X43348Y42620
X42348Y42370
X41348Y42120
X40848Y43120
X39848Y42870
X39848Y43870
X39248Y43870
X38848Y42870
X38198Y43870
X37048Y43470
X37348Y42370
X35798Y44270
X34348Y43120
X33848Y41620
X32348Y41870
X31848Y41870
X31848Y43370
X31348Y43870
X30598Y43620
X29598Y44120
X27998Y42470
X26848Y39620
X26348Y39870
X25598Y39620
X25348Y39870
X24848Y39120
X24598Y38870
X24098Y38620
X24348Y38370
X25348Y37870
X25848Y37870
X26098Y38120
X26348Y37620
X25848Y36620
X27348Y35870
X28348Y36370
X28848Y37370
X29348Y37870
X29848Y37620
X30348Y37120
X30848Y36870
X31348Y36620
X32348Y36620
X33098Y36870
X34598Y36870
X36598Y37870
X36848Y37620
X37098Y38120
X37348Y38370
X37598Y38620
X37848Y38370
X38098Y37620
X38348Y37370
X37598Y36870
X38348Y35370
X38098Y33620
X38098Y33120
X39348Y33620
X41448Y33970
X41848Y35370
X43848Y33870
X44848Y32870
X45348Y34170
X45098Y35120
X47248Y34470
X48198Y35370
X49598Y35870
X50848Y37370
X52248Y36770
X52498Y36520
X53498Y36770
X53848Y36520
X54148Y36270
X53598Y36020
X54398Y35620
X55098Y35470
X55598Y36770
X55098Y36870
X54748Y36870
X53848Y37970
X54848Y38720
X55098Y38470
X55098Y39220
X55598Y39470
X56098Y38970
X56598Y38220
X57098Y38470
X58448Y37620
X57598Y36520
X58098Y35720
X58748Y34620
X57598Y34120
X57598Y33120
X59098Y33620
X59598Y31870
X60098Y31620
X55598Y31620
X55098Y31820
X55098Y31370
X54848Y31120
X53848Y30570
X52548Y31070
X53648Y32370
X52598Y33370
X52348Y33620
X54598Y33620
X55848Y34120
X59598Y35470
X60348Y36770
X59848Y37020
X62098Y41370
X61098Y41870
X49848Y33970
X47448Y30870
X46348Y28870
X46098Y28620
X45848Y28370
X45598Y28120
X44348Y27870
X44098Y27620
X43848Y27370
X42848Y28620
X43098Y28870
X42598Y28370
X42348Y28120
X41598Y27370
X41348Y27620
X41098Y27870
X40848Y28120
X40348Y28370
X39848Y28620
X41848Y27120
X42098Y26870
X42348Y26620
X42598Y26370
X42848Y26120
X43098Y25870
X43848Y25370
X44098Y25120
X44348Y24870
X43598Y24370
X44298Y23370
X43848Y22620
X44598Y22370
X44598Y21620
X44598Y20870
X44598Y20120
X43848Y21120
X46598Y21370
X46598Y22120
X46598Y23120
X47848Y24870
X48598Y24370
X48848Y24620
X49348Y23870
X49848Y24720
X50948Y24820
X50848Y26120
X51848Y26820
X53348Y27370
X52848Y28120
X53348Y28370
X53348Y29120
X52598Y28870
X51098Y28620
X49598Y28370
X49098Y27870
X48598Y27620
X48098Y27370
X47598Y28370
X49848Y27120
X52848Y24870
X53348Y24870
X53848Y24870
X54348Y24870
X54848Y24870
X55348Y24870
X55848Y24870
X56598Y24620
X58098Y23970
X53598Y26370
X51098Y22870
X49598Y22620
X49098Y21120
X48898Y19620
X49498Y19370
X49298Y18220
X48848Y17370
X48474Y16744
X46848Y17870
X46848Y18370
X47848Y18870
X46598Y19870
X46598Y20620
X42098Y23620
X39098Y24620
X38348Y23870
X35848Y23370
X35598Y23620
X34848Y24570
X33348Y24370
X31348Y23370
X29848Y23120
X29348Y22870
X26348Y25120
X26098Y24870
X25848Y25370
X25098Y24620
X24848Y24370
X24348Y24370
X24598Y23620
X23348Y22870
X24598Y20870
X24598Y20370
X24598Y18620
X25598Y18620
X24098Y15370
X24598Y14870
X24848Y15120
X25298Y13120
X24398Y13120
X24198Y12220
X23598Y12220
X22998Y12220
X22848Y10870
X23098Y9870
X23598Y9870
X22598Y9870
X22098Y9870
X21598Y9870
X21098Y9870
X20598Y9870
X20098Y9870
X19598Y9870
X18498Y9370
X22048Y8470
X24848Y10370
X25098Y10870
X24848Y11120
X26098Y10120
X26598Y10120
X25748Y8470
X30848Y9570
X31598Y9870
X32098Y9870
X32598Y9870
X33098Y9870
X33598Y9870
X34098Y9870
X34598Y9870
X35098Y9870
X35598Y9870
X36848Y11120
X36598Y11370
X36348Y11870
X36098Y11620
X35848Y12120
X37098Y10870
X37348Y10620
X37598Y10370
X37598Y9870
X37848Y9120
X36848Y8470
X38848Y10170
X40598Y11870
X39248Y12370
X40598Y13370
X40598Y14370
X41598Y14870
X40598Y15370
X41098Y16120
X38348Y15120
X38098Y14870
X38348Y14620
X38348Y14120
X43348Y15120
X43348Y13120
X44848Y11870
X41498Y9620
X32098Y12370
X18848Y23120
X18348Y23370
X16098Y25120
X15848Y26220
X16348Y26870
X16598Y27120
X16848Y26620
X17848Y26620
X18348Y26370
X19098Y26620
X18848Y27120
X19848Y26870
X20348Y27370
X19848Y27620
X21348Y27870
X21848Y28120
X22348Y29120
X24848Y30620
X25098Y30370
X25348Y31370
X26098Y31370
X26848Y31870
X25848Y32370
X24598Y32370
X24348Y33120
X24098Y34120
X21098Y32270
X16598Y32370
X16598Y32870
X15348Y32870
X15098Y33370
X14848Y33870
X14348Y31870
X16098Y31370
X16348Y30370
X16598Y29370
X14348Y29120
X14098Y28870
X14348Y30370
X11848Y29120
X11348Y28370
X10848Y28620
X10598Y27870
X10348Y27370
X9848Y28120
X9348Y27370
X8848Y27620
X8348Y26870
X7848Y27120
X6598Y28370
X6348Y28120
X6848Y28870
X6348Y29120
X6348Y31370
X6098Y31870
X6598Y33870
X6098Y36370
X6348Y36870
X7348Y36620
X8348Y37120
X9348Y37370
X10348Y37620
X10848Y38120
X11348Y37870
X11848Y36370
X9848Y38620
X14598Y39620
X14848Y39370
X15598Y39620
X16098Y39620
X15598Y39120
X15848Y38870
X16098Y37620
X16848Y37870
X17098Y37370
X17348Y36620
X16598Y36120
X15848Y35870
X18348Y37120
X18848Y36870
X19598Y37620
X20348Y37370
X21348Y37620
X22348Y37870
X23348Y38870
X22848Y39620
X19598Y38620
X21848Y36370
X27348Y39370
X30098Y36620
X34348Y33120
X35348Y31870
X35598Y31370
X35848Y30620
X36098Y30370
X35098Y29620
X34598Y28870
X36348Y28870
X38098Y28870
X37598Y30120
X41348Y31120
X43848Y30120
X44098Y29620
X45598Y25120
X45348Y24870
X52048Y20770
X52598Y19370
X52598Y18120
X52848Y17620
X53348Y17420
X53848Y17620
X54348Y17420
X54848Y17620
X55348Y17420
X55848Y17620
X53598Y18120
X52348Y17420
X52848Y22370
X65348Y28120
X66348Y30120
X66598Y15620
X59848Y10970
X57348Y9120
X31348Y28370
X30848Y28620
X30348Y27870
X29848Y28120
X28848Y26620
X29348Y26370
X28348Y25870
X27848Y26120
X26348Y28870
X25348Y28870
X22348Y26120
X21848Y26370
X20348Y25870
X16098Y21120
X16098Y18120
X16598Y17620
X16348Y17120
X13848Y16620
X13598Y16870
X13348Y16370
X13098Y15370
X12848Y15120
X13348Y14870
X13848Y14620
X13598Y14370
X13298Y13120
X16348Y14120
X13198Y8970
X6098Y15120
X8848Y15620
X9098Y15870
X6348Y17370
X6598Y18120
X8848Y23120
X8348Y23370
X7348Y24870
X11348Y27620
X11848Y25870
X12348Y24620
X13598Y24370
X35348Y38870
X35598Y39370
X35848Y39120
X36098Y39620
X39848Y38620
X40348Y40120
X41598Y39870
X42348Y39620
X43348Y39370
X45098Y39120
X45098Y37620
X41098Y44370
X41598Y44670
X40348Y45620
X24348Y43620
T02
X58098Y43620
X59098Y43620
X61598Y12620
X62598Y12620
T03
X33348Y18120
X32348Y18120
X31348Y18120
X30348Y18120
X29348Y18120
X28348Y18120
X27348Y18120
X27348Y19120
X28348Y19120
X28348Y20120
X28348Y21120
X27348Y21120
X27348Y20120
X28348Y22120
X29348Y22120
X30348Y22120
X31348Y22120
X32348Y22120
X32348Y21120
X33348Y21120
X33348Y20120
X32348Y20120
X31348Y21120
X30348Y21120
X29348Y21120
X32348Y19120
X33348Y19120
X32348Y17120
X31348Y17120
X30348Y17120
X29348Y17120
X28348Y17120
X23348Y18120
X22348Y18120
X21348Y18120
X20348Y18120
X19348Y18120
X18348Y18120
X17348Y18120
X17348Y19120
X18348Y19120
X18348Y20120
X18348Y21120
X17348Y21120
X17348Y20120
X18348Y22120
X19348Y22120
X20348Y22120
X21348Y22120
X22348Y22120
X22348Y21120
X23348Y21120
X23348Y20120
X22348Y20120
X21348Y21120
X20348Y21120
X19348Y21120
X22348Y19120
X23348Y19120
X22348Y17120
X21348Y17120
X20348Y17120
X19348Y17120
X18348Y17120
X13348Y18120
X12348Y18120
X12348Y19120
X13348Y19120
X13348Y20120
X13348Y21120
X12348Y21120
X12348Y20120
X11348Y21120
X10348Y21120
X9348Y21120
X9348Y22120
X10348Y22120
X11348Y22120
X12348Y22120
X8348Y22120
X8348Y21120
X7348Y21120
X7348Y20120
X8348Y20120
X8348Y19120
X7348Y19120
X7348Y18120
X8348Y18120
X9348Y18120
X10348Y18120
X11348Y18120
X11348Y17120
X10348Y17120
X9348Y17120
X8348Y17120
X12348Y17120
X12348Y30370
X12348Y31370
X13348Y31370
X13348Y32370
X12348Y32370
X12348Y33370
X13348Y33370
X13348Y34370
X12348Y34370
X12348Y35370
X11348Y35370
X10348Y35370
X9348Y35370
X8348Y35370
X8348Y34370
X7348Y34370
X7348Y33370
X8348Y33370
X8348Y32370
X7348Y32370
X7348Y31370
X8348Y31370
X9348Y31370
X10348Y31370
X11348Y31370
X11348Y30370
X10348Y30370
X9348Y30370
X8348Y30370
X9348Y34370
X10348Y34370
X11348Y34370
X17348Y34370
X18348Y34370
X18348Y35370
X19348Y35370
X20348Y35370
X21348Y35370
X22348Y35370
X22348Y34370
X23348Y34370
X23348Y33370
X22348Y33370
X22348Y32370
X23348Y32370
X23348Y31370
X22348Y31370
X21348Y31370
X20348Y31370
X19348Y31370
X18348Y31370
X17348Y31370
X17348Y32370
X18348Y32370
X18348Y33370
X17348Y33370
X19348Y34370
X20348Y34370
X21348Y34370
X21348Y30370
X22348Y30370
X20348Y30370
X19348Y30370
X18348Y30370
X27348Y31370
X28348Y31370
X28348Y32370
X27348Y32370
X27348Y33370
X28348Y33370
X28348Y34370
X27348Y34370
X28348Y35370
X29348Y35370
X30348Y35370
X31348Y35370
X32348Y35370
X32348Y34370
X33348Y34370
X33348Y33370
X32348Y33370
X32348Y32370
X33348Y32370
X33348Y31370
X32348Y31370
X31348Y31370
X30348Y31370
X29348Y31370
X29348Y30370
X30348Y30370
X31348Y30370
X32348Y30370
X28348Y30370
X29348Y34370
X30348Y34370
X31348Y34370
T04
X63848Y34620
X63848Y35620
X63848Y36620
X63848Y37620
X63848Y38620
X63848Y39620
X63848Y40620
X63848Y41620
X63848Y42620
X64848Y42620
X65848Y42620
X65848Y41620
X64848Y41620
X64848Y40620
X65848Y40620
X65848Y39620
X64848Y39620
X64848Y38620
X65848Y38620
X65848Y37620
X64848Y37620
X64848Y36620
X65848Y36620
X65848Y35620
X64848Y35620
X64848Y34620
X65848Y34620
X65848Y33620
X64848Y33620
X64848Y32620
X65848Y32620
X65848Y31620
X64848Y31620
X63848Y31620
X63848Y32620
X63848Y33620
X63848Y30620
X64848Y30620
X65848Y30620
X65848Y29620
X64848Y29620
X63848Y29620
X63848Y28620
X64848Y28620
X65848Y28620
X65848Y27620
X64848Y27620
X64848Y26620
X65848Y26620
X65848Y25620
X64848Y25620
X63848Y25620
X63848Y26620
X63848Y27620
X63848Y24620
X64848Y24620
X65848Y24620
X65848Y23620
X64848Y23620
X63848Y23620
X63848Y22620
X64848Y22620
X65848Y22620
X65848Y21620
X64848Y21620
X64848Y20620
X65848Y20620
X65848Y19620
X64848Y19620
X63848Y19620
X63848Y20620
X63848Y21620
X63848Y18620
X64848Y18620
X65848Y18620
X65848Y17620
X64848Y17620
X63848Y17620
X63848Y16620
X64848Y16620
X65848Y16620
X65848Y15620
X64848Y15620
X63848Y15620
X63848Y14620
X63848Y13620
X64848Y13620
X64848Y14620
X65848Y14620
X65848Y13620
X65848Y12620
X64848Y12620
X63848Y12620
X63848Y11620
X64848Y11620
X65848Y11620
T05
X58848Y10870
X57848Y10870
X56848Y10870
X55848Y10870
X54848Y10870
X53848Y10870
X52848Y10870
X51848Y10870
X50848Y10870
X49848Y10870
X49848Y9870
X50848Y9870
X51848Y9870
X52848Y9870
X53848Y9870
X54848Y9870
X55848Y9870
X56848Y9870
X57848Y9870
X58848Y9870
X53848Y40620
X52848Y40620
X51848Y40620
X51848Y41620
X52848Y41620
X53848Y41620
X50848Y41620
X49848Y41620
X48848Y41620
X47848Y41620
X46848Y41620
X45848Y41620
X44848Y41620
X43848Y41620
X42848Y41620
X41848Y41620
X40848Y41620
X39848Y41620
X38848Y41620
X37848Y41620
X36848Y41620
X35848Y41620
X34848Y41620
X34848Y40620
X35848Y40620
X36848Y40620
X37848Y40620
X38848Y40620
X39848Y40620
X40848Y40620
X41848Y40620
X42848Y40620
X43848Y40620
X44848Y40620
X45848Y40620
X46848Y40620
X47848Y40620
X48848Y40620
X49848Y40620
X50848Y40620
X28848Y40620
X27848Y40620
X27848Y41620
X28848Y41620
X26848Y41620
X25848Y41620
X24848Y41620
X23848Y41620
X22848Y41620
X21848Y41620
X20848Y41620
X19848Y41620
X18848Y41620
X17848Y41620
X16848Y41620
X15848Y41620
X14848Y41620
X13848Y41620
X12848Y41620
X11848Y41620
X10848Y41620
X9848Y41620
X9848Y40620
X10848Y40620
X11848Y40620
X12848Y40620
X13848Y40620
X14848Y40620
X15848Y40620
X16848Y40620
X17848Y40620
X18848Y40620
X19848Y40620
X20848Y40620
X21848Y40620
X22848Y40620
X23848Y40620
X24848Y40620
X25848Y40620
X26848Y40620
T06
X66848Y44620
X66848Y9620
T07
X62598Y10120
X62598Y44370
X6348Y44370
X6348Y10120
M30
