%
M48
M72
T01C0.01200
T02C0.03200
T03C0.03543
T04C0.03600
T05C0.03937
T06C0.11000
T07C0.13000
%
T01
X85833Y116100
X130833Y161100
X136833Y167100
X140333Y175600
X131333Y178600
X153333Y178600
X150833Y166100
X153333Y163600
X157333Y164100
X169833Y171600
X182833Y183600
X198333Y178600
X206833Y167100
X212333Y158600
X220833Y158600
X220833Y178600
X236833Y173600
X265833Y178600
X271833Y167100
X267333Y158600
X263333Y158600
X283333Y161100
X288333Y158600
X295833Y159600
X303333Y149100
X295833Y146100
X293333Y143600
X288333Y143600
X315833Y153600
X322333Y148100
X324833Y143100
X327333Y150600
X329833Y153324
X329833Y162100
X322333Y169600
X324833Y172100
X327333Y174600
X308333Y169600
X305833Y172100
X303333Y174600
X298833Y177100
X303333Y188600
X298333Y191100
X293333Y193600
X288333Y196100
X285833Y198600
X280833Y201100
X283833Y213600
X293333Y206100
X297333Y206100
X300833Y203600
X305833Y203600
X288833Y189100
X265833Y208600
X263333Y211100
X260833Y213600
X240833Y206100
X238333Y208600
X235833Y211100
X233333Y213600
X215833Y226100
X210833Y213600
X205833Y208600
X203333Y211100
X200833Y216100
X198333Y218600
X193333Y221100
X190833Y223600
X160833Y216100
X158333Y218600
X138333Y218600
X138333Y226100
X135833Y228600
X133333Y231100
X130833Y233600
X128333Y236100
X125833Y238600
X120833Y241100
X118333Y243600
X95833Y236100
X93333Y238600
X90833Y241100
X88333Y243600
X80833Y218600
X83333Y216100
X78333Y213600
X92833Y175600
X156333Y147100
X160833Y143600
X163333Y118600
X213333Y118600
X198333Y158600
X313333Y113600
X345833Y113600
X346833Y103600
X360833Y121100
X360833Y126100
X370833Y121100
X370833Y143600
X360833Y143600
X384333Y163600
X391833Y178600
X405833Y161100
X405833Y151100
X400833Y151100
X403333Y141100
X410833Y136100
X424333Y136100
X424333Y141100
X424333Y146600
X425833Y156100
X424333Y163600
X433333Y173600
X448333Y173600
X464333Y163600
X468333Y156100
X465833Y146100
X450833Y151100
X450833Y156100
X442333Y136100
X444833Y128600
X440833Y121100
X425833Y123600
X421833Y122100
X425833Y131100
X410833Y113600
X403333Y118600
X400833Y126100
X350833Y170100
X343333Y193600
X340833Y196100
X338333Y198600
X335833Y201100
X368333Y196100
X373333Y193600
X400833Y221100
X398333Y223600
X395833Y226100
X403333Y218600
X405833Y216100
X408333Y213600
X410833Y211100
X413333Y208600
X415833Y206100
X423333Y198600
X433333Y221100
X420833Y238600
X424833Y246100
X423333Y253600
X420833Y263600
X437333Y251600
X448333Y261100
X453333Y261100
X458333Y261100
X468333Y261100
X478333Y261100
X483333Y261100
X463333Y246100
X500833Y238600
X523333Y243600
X540833Y261100
X558333Y253600
X560333Y269100
X558833Y281100
X568333Y278600
X590833Y271100
X599333Y281100
X607333Y297600
X589833Y300100
X582333Y302600
X599333Y326100
X607083Y329850
X623333Y341100
X610833Y366100
X619333Y376100
X588333Y351100
X585833Y346100
X560833Y340600
X565833Y328600
X528833Y321600
X525833Y302600
X528333Y300100
X530833Y297600
X540833Y291100
X515833Y291100
X510833Y303600
X500833Y308600
X493333Y287600
X488333Y287600
X458333Y311100
X453333Y326100
X468333Y326100
X485833Y326100
X490833Y356100
X488333Y358600
X485833Y361100
X483333Y363600
X470833Y358600
X467833Y356100
X463333Y353600
X443333Y356100
X443333Y361100
X440833Y366100
X430833Y373600
X425833Y368600
X430833Y383600
X433333Y386100
X438333Y386100
X440833Y396100
X428333Y398600
X425833Y396100
X415833Y386100
X410833Y383600
X399833Y392600
X403333Y396100
X388333Y386100
X380833Y401100
X360833Y388600
X358333Y393600
X363333Y383600
X368333Y378600
X365833Y376100
X373333Y376100
X355833Y371100
X353333Y368600
X348333Y373600
X328333Y366100
X325833Y368600
X315833Y376100
X300833Y386100
X295833Y381100
X293333Y383600
X288333Y388600
X280833Y391100
X268333Y381100
X263333Y378600
X260833Y383600
X258333Y388600
X248333Y373600
X243333Y371100
X243333Y353600
X253333Y351100
X243333Y343600
X228333Y341100
X223333Y346100
X218333Y348600
X198333Y358600
X193333Y363600
X190833Y361100
X185833Y366100
X188333Y368600
X168333Y381100
X163333Y378600
X160833Y383600
X158333Y388600
X155833Y373600
X150833Y351100
X140833Y343600
X135833Y341100
X130833Y346100
X133333Y348600
X123333Y358600
X115833Y363600
X113333Y361100
X110833Y368600
X105833Y366100
X90833Y353600
X78333Y351100
X68333Y356100
X68333Y361100
X68333Y366100
X68333Y371100
X61833Y393600
X74333Y403600
X98333Y426100
X103333Y429100
X110833Y423600
X118333Y423600
X120833Y426100
X128333Y443600
X138333Y446100
X143333Y448600
X163333Y431100
X173333Y433600
X183333Y451100
X133333Y396100
X125833Y393600
X120833Y391100
X118333Y386100
X118333Y398600
X125833Y376100
X165833Y338600
X180833Y321100
X180833Y286100
X185833Y283600
X188333Y278600
X188333Y271100
X188333Y263600
X165833Y286100
X158333Y276100
X80833Y296100
X80833Y336100
X60833Y341100
X90833Y438600
X98333Y442100
X85833Y446100
X195833Y386100
X203333Y391100
X208333Y393600
X213333Y376100
X265833Y338600
X270833Y341100
X275833Y343600
X293333Y361100
X295833Y363600
X290833Y368600
X288333Y366100
X300833Y358600
X320833Y348600
X325833Y346100
X330833Y341100
X345833Y343600
X355833Y351100
X368333Y338600
X377833Y341100
X378333Y326100
X390833Y323600
X366083Y293850
X375833Y282100
X383333Y265100
X383333Y260100
X390833Y263600
X393333Y260100
X423333Y288100
X428333Y288100
X440833Y282100
X443833Y292100
X438333Y313600
X435833Y316100
X444333Y341600
X405833Y358600
X403333Y361100
X395833Y358600
X448333Y383600
X455833Y391100
X480833Y391100
X483333Y396100
X485833Y393600
X493333Y396100
X503333Y391100
X500833Y372100
X533333Y393600
X543333Y398600
X553333Y398600
X563333Y388600
X563333Y376100
X563333Y368600
X545833Y376100
X543333Y384100
X573333Y396100
X573333Y403600
X604833Y415600
X560833Y443600
X538333Y438600
X503333Y443600
X493333Y443600
X473333Y443600
X463333Y443600
X483333Y426100
X388333Y439100
X363333Y426100
X361333Y434100
X351833Y423600
X344333Y426100
X330833Y426100
X325833Y426100
X323333Y423600
X328333Y398600
X323333Y393600
X310833Y393600
X305833Y391100
X278333Y316100
X280833Y306100
X265833Y283600
X458333Y196100
X470833Y173600
X485833Y151100
X504333Y163600
X508333Y171100
X523333Y181100
X528333Y186100
X525833Y188600
X530833Y183600
X543333Y176100
X542833Y163600
X558333Y156100
X549333Y138600
X550833Y133600
X560833Y136100
X560833Y123600
X585833Y118600
X590833Y133600
X603333Y138600
X603333Y123600
X583833Y151100
X590833Y157100
X600833Y164600
X628333Y161100
X630833Y151100
X668333Y151100
X581833Y202100
X603333Y236100
X599833Y240600
X603333Y259600
X590833Y260100
X630833Y246100
X535833Y141100
X530833Y136100
X525833Y121100
X528333Y118600
X508333Y121100
X483333Y121100
X668333Y421100
T02
X595833Y441100
X585833Y441100
X583333Y101100
X593333Y101100
T03
X355833Y271100
X355833Y281100
X345833Y281100
X345833Y271100
X335833Y271100
X325833Y271100
X315833Y271100
X305833Y271100
X305833Y281100
X315833Y281100
X315833Y291100
X305833Y291100
X305833Y301100
X315833Y301100
X315833Y311100
X305833Y311100
X315833Y321100
X325833Y321100
X325833Y311100
X335833Y311100
X345833Y311100
X345833Y301100
X345833Y291100
X355833Y291100
X355833Y301100
X355833Y311100
X345833Y321100
X335833Y321100
X335833Y261100
X345833Y261100
X325833Y261100
X315833Y261100
X253333Y271100
X243333Y271100
X243333Y281100
X253333Y281100
X253333Y291100
X243333Y291100
X243333Y301100
X253333Y301100
X253333Y311100
X243333Y311100
X233333Y311100
X223333Y311100
X213333Y311100
X203333Y311100
X203333Y301100
X203333Y291100
X203333Y281100
X203333Y271100
X213333Y271100
X213333Y281100
X223333Y271100
X233333Y271100
X233333Y261100
X223333Y261100
X213333Y261100
X243333Y261100
X213333Y291100
X213333Y301100
X213333Y321100
X223333Y321100
X233333Y321100
X243333Y321100
X150833Y311100
X140833Y311100
X130833Y311100
X120833Y311100
X110833Y311100
X100833Y311100
X100833Y301100
X110833Y301100
X110833Y291100
X100833Y291100
X100833Y281100
X100833Y271100
X110833Y271100
X110833Y281100
X120833Y271100
X130833Y271100
X140833Y271100
X140833Y281100
X140833Y291100
X140833Y301100
X150833Y301100
X150833Y291100
X150833Y281100
X150833Y271100
X140833Y261100
X130833Y261100
X120833Y261100
X110833Y261100
X110833Y321100
X120833Y321100
X130833Y321100
X140833Y321100
T04
X638333Y316100
X638333Y306100
X638333Y296100
X638333Y286100
X638333Y276100
X638333Y266100
X638333Y256100
X638333Y246100
X638333Y236100
X638333Y226100
X638333Y216100
X638333Y206100
X638333Y196100
X638333Y186100
X638333Y176100
X638333Y166100
X638333Y156100
X638333Y146100
X638333Y136100
X638333Y126100
X638333Y116100
X648333Y116100
X658333Y116100
X658333Y126100
X648333Y126100
X648333Y136100
X648333Y146100
X658333Y146100
X658333Y136100
X658333Y156100
X648333Y156100
X648333Y166100
X658333Y166100
X658333Y176100
X648333Y176100
X648333Y186100
X658333Y186100
X658333Y196100
X648333Y196100
X648333Y206100
X648333Y216100
X658333Y216100
X658333Y206100
X658333Y226100
X648333Y226100
X648333Y236100
X658333Y236100
X658333Y246100
X648333Y246100
X648333Y256100
X658333Y256100
X658333Y266100
X648333Y266100
X648333Y276100
X658333Y276100
X658333Y286100
X648333Y286100
X648333Y296100
X658333Y296100
X658333Y306100
X648333Y306100
X648333Y316100
X658333Y316100
X658333Y326100
X648333Y326100
X648333Y336100
X658333Y336100
X658333Y346100
X648333Y346100
X638333Y346100
X638333Y336100
X638333Y326100
X638333Y356100
X638333Y366100
X638333Y376100
X638333Y386100
X638333Y396100
X638333Y406100
X638333Y416100
X638333Y426100
X648333Y426100
X658333Y426100
X658333Y416100
X648333Y416100
X648333Y406100
X648333Y396100
X658333Y396100
X658333Y406100
X658333Y386100
X648333Y386100
X648333Y376100
X658333Y376100
X658333Y366100
X648333Y366100
X648333Y356100
X658333Y356100
T05
X538333Y406100
X528333Y406100
X518333Y406100
X508333Y406100
X498333Y406100
X488333Y406100
X478333Y406100
X468333Y406100
X458333Y406100
X448333Y406100
X438333Y406100
X428333Y406100
X418333Y406100
X408333Y406100
X398333Y406100
X388333Y406100
X378333Y406100
X368333Y406100
X358333Y406100
X348333Y406100
X348333Y416100
X358333Y416100
X368333Y416100
X378333Y416100
X388333Y416100
X398333Y416100
X408333Y416100
X418333Y416100
X428333Y416100
X438333Y416100
X448333Y416100
X458333Y416100
X468333Y416100
X478333Y416100
X488333Y416100
X498333Y416100
X508333Y416100
X518333Y416100
X528333Y416100
X538333Y416100
X288333Y416100
X278333Y416100
X268333Y416100
X258333Y416100
X248333Y416100
X238333Y416100
X228333Y416100
X218333Y416100
X208333Y416100
X198333Y416100
X188333Y416100
X178333Y416100
X168333Y416100
X158333Y416100
X148333Y416100
X138333Y416100
X128333Y416100
X118333Y416100
X108333Y416100
X98333Y416100
X98333Y406100
X108333Y406100
X118333Y406100
X128333Y406100
X138333Y406100
X148333Y406100
X158333Y406100
X168333Y406100
X178333Y406100
X188333Y406100
X198333Y406100
X208333Y406100
X218333Y406100
X228333Y406100
X238333Y406100
X248333Y406100
X258333Y406100
X268333Y406100
X278333Y406100
X288333Y406100
X288333Y136100
X278333Y136100
X268333Y136100
X258333Y136100
X248333Y136100
X238333Y136100
X228333Y136100
X218333Y136100
X208333Y136100
X198333Y136100
X188333Y136100
X178333Y136100
X168333Y136100
X158333Y136100
X148333Y136100
X138333Y136100
X128333Y136100
X118333Y136100
X108333Y136100
X98333Y136100
X98333Y126100
X108333Y126100
X118333Y126100
X128333Y126100
X138333Y126100
X148333Y126100
X158333Y126100
X168333Y126100
X178333Y126100
X188333Y126100
X198333Y126100
X208333Y126100
X218333Y126100
X228333Y126100
X238333Y126100
X248333Y126100
X258333Y126100
X268333Y126100
X278333Y126100
X288333Y126100
T06
X668333Y96100
X668333Y446100
T07
X63333Y101100
X63333Y443600
X625833Y443600
X625833Y101100
M30
