%
M48
M72
T01C0.0120
T02C0.0320
T03C0.0360
T04C0.0394
T05C0.1100
T06C0.1300
%
T01
X8848Y11620
X8348Y14870
X6848Y14870
X8098Y16370
X8848Y17370
X10098Y15870
X10598Y15620
X10098Y15120
X11298Y14870
X12598Y15870
X12848Y16370
X12598Y16870
X12848Y17370
X12598Y17870
X12848Y18370
X13098Y18870
X13848Y18370
X14098Y17870
X13848Y17120
X14098Y16620
X14298Y18770
X16598Y18120
X16848Y19120
X17148Y20120
X19598Y21620
X19548Y22370
X19448Y23720
X19098Y24120
X19348Y24470
X18848Y23620
X18348Y24370
X17348Y24120
X17348Y23620
X16598Y22870
X16848Y22370
X14348Y21620
X14098Y22120
X13098Y22120
X11248Y21370
X10598Y21870
X9348Y21870
X8348Y21370
X6798Y22370
X8098Y23370
X8098Y24370
X8848Y24870
X10098Y23370
X10848Y23870
X11098Y24370
X11098Y24870
X11098Y25370
X10848Y26370
X11298Y27870
X10848Y28620
X10098Y28870
X8598Y29370
X7848Y29370
X8848Y30370
X11298Y32370
X9798Y32670
X11198Y34370
X10848Y34870
X11098Y35370
X10848Y35870
X11098Y36370
X10848Y36870
X11098Y37370
X10848Y37870
X11098Y38370
X11248Y38870
X10398Y39620
X8598Y40120
X8848Y37870
X8598Y37370
X8598Y36870
X10098Y36370
X12848Y38120
X13348Y37120
X13498Y35320
X14198Y35320
X13848Y34120
X15898Y33120
X17348Y33870
X16598Y35370
X16798Y37170
X17348Y37620
X16548Y38370
X17348Y38620
X16398Y39470
X15098Y38370
X18948Y38470
X19098Y38870
X19498Y38620
X20348Y39370
X20848Y38870
X21348Y37870
X20598Y37370
X20598Y36870
X19598Y37120
X19098Y37370
X19348Y36120
X20598Y35620
X20998Y35370
X20598Y35120
X21348Y34620
X21848Y34870
X22348Y34370
X21948Y33870
X22348Y33620
X23698Y34370
X23998Y34870
X23998Y35370
X23998Y35870
X23998Y36370
X23998Y36870
X23998Y37370
X23998Y37870
X23998Y38370
X23998Y38870
X23648Y39620
X25848Y38870
X25848Y37620
X27848Y37370
X29198Y38370
X31098Y38620
X31848Y38870
X31848Y37870
X32098Y37370
X31848Y37120
X32098Y36870
X31848Y36120
X30648Y37070
X33348Y35370
X34098Y34370
X33848Y34120
X33548Y32120
X34348Y30370
X36098Y29620
X35598Y28870
X36598Y27870
X37098Y27370
X38098Y28370
X38098Y28870
X38098Y29370
X38098Y29870
X38098Y30370
X38348Y30870
X38598Y31370
X38848Y31870
X40598Y31370
X40598Y30870
X40098Y30370
X40098Y29870
X39348Y29620
X39598Y29120
X38598Y27620
X40598Y25870
X41848Y26620
X42598Y25620
X42098Y25370
X40598Y24370
X38798Y23620
X38348Y24620
X36748Y24870
X36748Y25370
X36748Y24370
X36748Y23870
X36748Y23370
X36748Y22870
X36748Y22370
X36098Y21870
X36098Y21370
X35848Y21120
X36798Y21370
X34598Y21870
X33248Y22370
X31848Y23120
X31598Y22620
X31598Y21620
X31848Y23770
X32098Y24120
X32098Y24520
X31248Y24220
X31248Y25470
X34348Y24870
X35598Y23370
X35898Y26620
X33848Y27620
X33348Y27870
X34098Y28370
X32248Y29120
X31848Y29370
X32248Y29620
X31848Y29870
X30098Y30120
X29598Y30370
X29348Y29870
X30098Y29370
X30098Y28870
X30598Y28370
X30598Y27870
X27848Y30870
X27848Y31370
X29348Y31870
X31198Y32370
X29448Y33120
X27598Y34120
X25848Y31870
X25848Y31370
X25598Y30870
X25348Y30370
X25348Y29870
X25348Y29370
X25348Y28870
X25348Y28370
X25348Y27870
X26348Y28620
X26848Y27370
X26898Y26620
X27098Y25620
X27598Y25120
X27348Y24120
X27848Y23120
X27973Y22745
X27973Y22245
X27973Y21745
X27948Y21370
X27598Y21120
X27798Y20120
X27848Y18870
X26098Y18870
X25848Y18370
X25598Y17870
X25348Y17370
X25348Y16870
X25348Y16370
X25348Y15870
X25348Y15370
X25148Y14870
X23348Y14870
X23098Y15370
X22848Y15870
X21598Y17370
X23098Y17870
X24048Y19370
X22848Y21120
X22598Y21370
X22598Y21870
X23848Y22370
X23848Y22870
X23848Y23370
X23848Y23870
X23848Y24370
X23848Y24870
X23848Y25370
X23848Y25870
X23098Y25370
X22748Y25620
X23598Y26620
X21348Y27370
X20498Y27870
X19348Y27370
X19098Y28520
X19348Y28870
X19348Y29470
X19598Y29870
X17948Y29720
X17848Y29120
X18348Y28520
X17848Y27620
X16848Y28470
X16848Y28870
X15098Y28870
X15098Y29370
X15098Y29870
X15098Y30370
X15098Y30870
X15098Y31370
X15098Y31870
X14098Y30870
X13348Y30870
X12848Y30870
X13098Y31370
X13348Y31870
X12598Y30370
X12598Y29870
X12598Y29370
X12598Y28870
X12598Y28370
X13348Y28370
X13098Y29120
X14498Y29020
X14598Y29620
X15098Y28370
X15098Y27870
X14348Y26120
X13598Y25870
X12848Y26370
X13098Y24870
X13598Y24120
X14348Y24370
X16698Y25370
X16698Y26070
X20848Y25620
X21598Y24870
X22698Y23370
X23948Y21870
X24048Y21370
X26598Y23120
X25598Y24370
X25598Y24870
X21598Y28870
X21348Y29870
X21598Y30370
X21598Y30870
X20998Y32120
X23698Y32370
X22698Y36370
X28998Y39620
X30948Y40020
X32848Y42620
X32098Y42870
X31598Y44370
X31098Y44870
X30598Y44870
X35348Y43870
X36848Y44620
X38348Y43620
X39348Y43370
X40348Y43120
X42148Y39620
X42598Y38620
X41898Y38370
X38598Y38370
X38348Y37870
X38348Y37370
X38098Y36870
X36748Y36370
X36748Y35870
X36748Y35370
X36748Y34870
X36098Y34370
X36748Y32370
X35398Y36370
X35448Y36870
X34348Y37870
X35348Y38620
X35898Y39620
X37348Y39370
X44598Y43120
X45848Y43370
X46348Y43870
X46848Y43870
X51348Y44120
X52098Y44620
X54098Y44370
X56098Y44870
X56598Y40620
X57098Y39120
X58348Y40120
X58598Y37620
X60948Y37770
X57098Y33120
X55098Y33870
X53348Y33620
X52848Y33870
X51348Y34370
X50848Y33620
X51598Y31870
X49098Y30870
X47098Y30620
X46848Y29620
X45098Y28370
X44598Y27870
X43098Y27870
X43098Y28370
X43098Y28870
X43098Y29620
X42098Y31870
X43098Y32370
X42898Y33120
X46098Y31870
X47848Y33870
X48848Y33120
X49348Y35620
X48848Y36120
X48348Y36620
X47848Y37120
X46848Y37620
X53998Y38370
X57148Y31120
X58598Y30620
X59348Y29870
X60998Y30870
X61448Y28870
X59748Y26370
X57248Y24370
X58598Y23620
X60948Y23670
X55598Y25870
X55598Y26870
X53098Y27370
X53098Y28370
X53098Y29370
X55598Y29370
X53098Y25870
X50848Y24620
X51098Y23620
X50848Y23370
X49598Y23120
X49348Y21370
X47598Y21620
X46248Y20120
X47098Y18620
X47098Y17120
X46848Y16620
X45848Y17120
X44848Y17870
X42848Y17870
X42348Y18370
X42848Y18620
X43098Y19370
X41948Y18870
X42098Y17370
X42098Y16870
X42098Y16370
X42098Y15870
X44598Y15870
X45598Y15120
X47198Y14870
X46348Y11620
X45348Y11870
X48348Y11620
X51998Y15620
X53498Y16870
X54348Y17870
X52598Y18620
X52998Y19120
X55098Y19120
X55598Y19620
X57248Y19120
X56598Y17620
X56748Y17020
X57498Y16120
X59348Y14870
X59348Y14370
X60098Y13620
X58098Y12870
X56098Y12470
X57098Y11370
X57598Y10870
X60098Y11620
X60598Y10870
X60598Y9620
X54598Y11370
X61198Y17720
X61848Y18370
X62348Y17870
X62848Y17120
X52998Y23620
X51598Y22120
X51598Y21620
X50098Y19020
X49098Y19120
X44848Y21870
X42198Y20120
X38598Y18870
X38348Y18370
X38098Y17870
X38098Y17370
X38098Y16870
X38098Y16370
X38098Y15870
X36798Y14870
X36348Y15370
X36098Y15120
X35598Y14870
X35598Y15870
X34348Y16370
X34348Y16870
X34348Y17370
X34348Y17870
X33348Y19120
X31598Y18620
X32098Y16870
X32098Y16370
X32348Y14870
X32398Y13870
X30098Y11620
X29598Y11620
X29598Y12120
X28848Y11870
X30098Y11120
X30598Y11120
X30598Y10620
X31098Y10620
X33348Y10620
X36548Y10470
X38848Y11370
X36748Y19370
X44598Y24620
X44598Y25370
X46698Y26120
X47348Y24120
X50598Y27370
X27098Y9370
X24848Y11870
X24348Y11620
X24098Y11370
X23848Y11120
X23598Y10870
X23348Y10620
X23098Y10370
X22848Y10120
X20348Y10620
X19598Y14870
X17848Y15720
X19348Y16370
X19348Y16870
X19598Y18370
X21198Y19620
X11298Y19370
X10848Y19120
X9748Y19620
X10848Y17620
X6448Y19620
X10848Y22870
X11098Y23370
X8048Y26620
X6848Y27870
X6448Y32670
X6798Y35370
X11348Y42220
X11348Y43620
X10848Y43870
X10348Y44120
X9848Y44370
X12848Y43370
X13598Y43620
X14348Y43370
X14848Y43120
X13348Y42170
X18848Y45120
X21098Y42870
X21848Y42620
X21348Y41870
X20348Y41870
X24348Y44120
X16848Y31620
T02
X56848Y10120
X57848Y10120
X58348Y43870
X59348Y43870
T03
X63848Y42620
X64848Y42620
X65848Y42620
X65848Y41620
X64848Y41620
X63848Y41620
X63848Y40620
X63848Y39620
X64848Y39620
X64848Y40620
X65848Y40620
X65848Y39620
X65848Y38620
X64848Y38620
X63848Y38620
X63848Y37620
X64848Y37620
X65848Y37620
X65848Y36620
X64848Y36620
X63848Y36620
X63848Y35620
X64848Y35620
X65848Y35620
X65848Y34620
X64848Y34620
X63848Y34620
X63848Y33620
X63848Y32620
X64848Y32620
X64848Y33620
X65848Y33620
X65848Y32620
X65848Y31620
X64848Y31620
X63848Y31620
X63848Y30620
X64848Y30620
X65848Y30620
X65848Y29620
X64848Y29620
X63848Y29620
X63848Y28620
X64848Y28620
X65848Y28620
X65848Y27620
X64848Y27620
X64848Y26620
X65848Y26620
X65848Y25620
X64848Y25620
X63848Y25620
X63848Y26620
X63848Y27620
X63848Y24620
X64848Y24620
X65848Y24620
X65848Y23620
X64848Y23620
X63848Y23620
X63848Y22620
X64848Y22620
X65848Y22620
X65848Y21620
X64848Y21620
X64848Y20620
X65848Y20620
X65848Y19620
X64848Y19620
X63848Y19620
X63848Y20620
X63848Y21620
X63848Y18620
X64848Y18620
X65848Y18620
X65848Y17620
X64848Y17620
X63848Y17620
X63848Y16620
X64848Y16620
X65848Y16620
X65848Y15620
X64848Y15620
X63848Y15620
X63848Y14620
X63848Y13620
X64848Y13620
X64848Y14620
X65848Y14620
X65848Y13620
X65848Y12620
X64848Y12620
X63848Y12620
X63848Y11620
X64848Y11620
X65848Y11620
T04
X53848Y12620
X52848Y12620
X51848Y12620
X51848Y13620
X52848Y13620
X53848Y13620
X50848Y13620
X49848Y13620
X48848Y13620
X47848Y13620
X46848Y13620
X45848Y13620
X44848Y13620
X43848Y13620
X42848Y13620
X41848Y13620
X40848Y13620
X39848Y13620
X38848Y13620
X37848Y13620
X36848Y13620
X35848Y13620
X34848Y13620
X34848Y12620
X35848Y12620
X36848Y12620
X37848Y12620
X38848Y12620
X39848Y12620
X40848Y12620
X41848Y12620
X42848Y12620
X43848Y12620
X44848Y12620
X45848Y12620
X46848Y12620
X47848Y12620
X48848Y12620
X49848Y12620
X50848Y12620
X28848Y12620
X27848Y12620
X27848Y13620
X28848Y13620
X26848Y13620
X25848Y13620
X24848Y13620
X23848Y13620
X22848Y13620
X21848Y13620
X20848Y13620
X19848Y13620
X18848Y13620
X17848Y13620
X16848Y13620
X15848Y13620
X14848Y13620
X13848Y13620
X12848Y13620
X11848Y13620
X10848Y13620
X9848Y13620
X9848Y12620
X10848Y12620
X11848Y12620
X12848Y12620
X13848Y12620
X14848Y12620
X15848Y12620
X16848Y12620
X17848Y12620
X18848Y12620
X19848Y12620
X20848Y12620
X21848Y12620
X22848Y12620
X23848Y12620
X24848Y12620
X25848Y12620
X26848Y12620
X26848Y40620
X25848Y40620
X24848Y40620
X24848Y41620
X25848Y41620
X26848Y41620
X27848Y41620
X28848Y41620
X28848Y40620
X27848Y40620
X23848Y40620
X22848Y40620
X22848Y41620
X23848Y41620
X21848Y41620
X20848Y41620
X19848Y41620
X18848Y41620
X17848Y41620
X16848Y41620
X15848Y41620
X14848Y41620
X13848Y41620
X12848Y41620
X11848Y41620
X10848Y41620
X9848Y41620
X9848Y40620
X10848Y40620
X11848Y40620
X12848Y40620
X13848Y40620
X14848Y40620
X15848Y40620
X16848Y40620
X17848Y40620
X18848Y40620
X19848Y40620
X20848Y40620
X21848Y40620
X34848Y40620
X35848Y40620
X36848Y40620
X36848Y41620
X35848Y41620
X34848Y41620
X37848Y41620
X38848Y41620
X39848Y41620
X40848Y41620
X41848Y41620
X42848Y41620
X43848Y41620
X44848Y41620
X45848Y41620
X46848Y41620
X47848Y41620
X48848Y41620
X49848Y41620
X50848Y41620
X51848Y41620
X52848Y41620
X53848Y41620
X53848Y40620
X52848Y40620
X51848Y40620
X50848Y40620
X49848Y40620
X48848Y40620
X47848Y40620
X46848Y40620
X45848Y40620
X44848Y40620
X43848Y40620
X42848Y40620
X41848Y40620
X40848Y40620
X39848Y40620
X38848Y40620
X37848Y40620
T05
X66848Y44620
X66848Y9620
T06
X6348Y10120
X6348Y44370
X62598Y44370
X62598Y10120
M30
