%
M48
M72
T01C0.0240
T02C0.0320
T03C0.0354
T04C0.0360
T05C0.0400
T06C0.1100
T07C0.1300
%
T01
X13833Y16860
X19833Y28610
X18583Y28860
X19833Y29860
X20333Y31110
X19333Y31610
X21083Y29360
X15333Y32610
X15333Y34860
X14833Y39610
X14333Y40110
X17833Y40110
X21333Y43110
X22833Y43360
X26333Y43610
X29833Y45610
X32833Y42360
X34333Y40860
X34833Y40360
X35333Y39860
X33833Y38110
X32833Y39610
X30833Y38110
X29333Y39610
X27833Y39610
X26833Y39610
X23833Y40110
X22833Y40110
X29333Y35360
X30333Y35360
X31333Y35110
X32833Y34110
X32833Y33110
X34583Y31610
X35083Y31110
X34833Y29360
X33333Y28610
X31333Y27360
X29333Y26110
X28833Y27110
X32333Y24610
X29833Y22110
X28833Y22110
X32333Y19610
X31333Y15110
X33333Y14610
X38333Y15360
X39333Y15860
X40083Y23860
X39333Y24110
X38583Y24360
X37833Y24610
X37083Y24860
X41083Y23860
X42083Y23860
X43083Y24110
X43333Y29360
X48333Y32360
X53083Y31860
X53083Y33610
X56833Y37110
X57333Y37860
X59583Y37860
X61083Y36610
X62583Y34110
X62083Y33610
X62333Y32360
X60583Y32360
X61583Y30610
X61083Y28610
X58833Y29360
X57583Y30860
X50333Y27360
X52083Y23860
X52083Y22360
X55083Y21610
X55083Y23110
X57083Y21110
X57083Y19610
X57833Y19110
X60333Y18610
X61083Y19610
X62583Y19610
X61833Y24110
X50333Y14860
X57833Y12610
X28833Y33360
X33333Y36110
X40333Y40860
X41333Y39860
X43583Y36110
X42583Y35610
X47333Y38360
X55333Y41610
X56333Y41610
T02
X54333Y41610
X53333Y41610
X52333Y41610
X51333Y41610
X50333Y41610
X49333Y41610
X48333Y41610
X47333Y41610
X44833Y41110
X43833Y41110
X45333Y38360
X46333Y38360
X46333Y37110
X47333Y37110
X48333Y37110
X49333Y37110
X50333Y37110
X50333Y34110
X49333Y34110
X48333Y34110
X47333Y34110
X46333Y34110
X45333Y34110
X44333Y34110
X43333Y34110
X42333Y34110
X41333Y34110
X40333Y34110
X39333Y34110
X38333Y34110
X37333Y34110
X37333Y37110
X38333Y37110
X39333Y37110
X40333Y37110
X41333Y37110
X42333Y37110
X43333Y37110
X44333Y37110
X45333Y37110
X45333Y32860
X44333Y32860
X46333Y32860
X46333Y29860
X46333Y22360
X45333Y22360
X45333Y21110
X44333Y21110
X43333Y21110
X42333Y21110
X41333Y21110
X40333Y21110
X39333Y21110
X38333Y21110
X37333Y21110
X37333Y18110
X38333Y18110
X39333Y18110
X40333Y18110
X41333Y18110
X42333Y18110
X43333Y18110
X44333Y18110
X45333Y18110
X46333Y18110
X47333Y18110
X48333Y18110
X49333Y18110
X50333Y18110
X49333Y16860
X46333Y16860
X45333Y16860
X44333Y16860
X46333Y21110
X47333Y21110
X48333Y21110
X49333Y21110
X50333Y21110
X60833Y12610
X60833Y11610
X34833Y16860
X31833Y16860
X31333Y18110
X30333Y18110
X29333Y18110
X28333Y18110
X27333Y18110
X26333Y18110
X25333Y18110
X24333Y18110
X23333Y18110
X22333Y18110
X21333Y18110
X20333Y18110
X19333Y18110
X18333Y18110
X18333Y16860
X21333Y16860
X25333Y16860
X26333Y16860
X27333Y16860
X30333Y16860
X30333Y21110
X29333Y21110
X28333Y21110
X27333Y21110
X26333Y21110
X25333Y21110
X24333Y21110
X23333Y21110
X22333Y21110
X21333Y21110
X20333Y21110
X19333Y21110
X18333Y21110
X26333Y22360
X27333Y22360
X31333Y21110
X31583Y29860
X30583Y29860
X28783Y30610
X26883Y30610
X25083Y29860
X24083Y29860
X24333Y32860
X25333Y32860
X25333Y34110
X24333Y34110
X23333Y34110
X22333Y34110
X21333Y34110
X20333Y34110
X19333Y34110
X18333Y34110
X18333Y37110
X19333Y37110
X20333Y37110
X21333Y37110
X22333Y37110
X23333Y37110
X24333Y37110
X25333Y37110
X26333Y37110
X27333Y37110
X28333Y37110
X29333Y37110
X30333Y37110
X31333Y37110
X31333Y34110
X30333Y34110
X29333Y34110
X28333Y34110
X27333Y34110
X26333Y34110
X25583Y38360
X24583Y38360
X25333Y41610
X26333Y41610
X27333Y41610
X28333Y41610
X29333Y41610
X30333Y41610
X31333Y41610
X31333Y44610
X30333Y44610
X29333Y44610
X28333Y44610
X27333Y44610
X26333Y44610
X25333Y44610
X24333Y44610
X23333Y44610
X21833Y44610
X20833Y44610
X19833Y44610
X18833Y44610
X17833Y44610
X16833Y44610
X15833Y44610
X14833Y44610
X13833Y44610
X15833Y41610
X16833Y41610
X17833Y41610
X18833Y41610
X19833Y41610
X20833Y41610
X21833Y41610
X12833Y40110
X12833Y37610
X12833Y35110
X12833Y32610
X9833Y32610
X9833Y35110
X9833Y37610
X9833Y40110
X43833Y44110
X44833Y44110
X45333Y45110
X46333Y45110
X47333Y44610
X48333Y44610
X49333Y44610
X50333Y44610
X51333Y44610
X52333Y44610
X53333Y44610
X54333Y44610
X59833Y43110
X59833Y42110
T03
X7833Y40110
X7833Y39110
X7833Y37610
X7833Y36610
X7833Y35110
X7833Y34110
X7833Y32610
X7833Y31610
T04
X63833Y31610
X63833Y30610
X63833Y29610
X63833Y28610
X63833Y27610
X63833Y26610
X63833Y25610
X63833Y24610
X63833Y23610
X63833Y22610
X63833Y21610
X63833Y20610
X63833Y19610
X63833Y18610
X63833Y17610
X63833Y16610
X63833Y15610
X63833Y14610
X63833Y13610
X63833Y12610
X63833Y11610
X64833Y11610
X65833Y11610
X65833Y12610
X64833Y12610
X64833Y13610
X64833Y14610
X65833Y14610
X65833Y13610
X65833Y15610
X64833Y15610
X64833Y16610
X65833Y16610
X65833Y17610
X64833Y17610
X64833Y18610
X65833Y18610
X65833Y19610
X64833Y19610
X64833Y20610
X64833Y21610
X65833Y21610
X65833Y20610
X65833Y22610
X64833Y22610
X64833Y23610
X65833Y23610
X65833Y24610
X64833Y24610
X64833Y25610
X65833Y25610
X65833Y26610
X64833Y26610
X64833Y27610
X65833Y27610
X65833Y28610
X64833Y28610
X64833Y29610
X65833Y29610
X65833Y30610
X64833Y30610
X64833Y31610
X65833Y31610
X65833Y32610
X64833Y32610
X64833Y33610
X65833Y33610
X65833Y34610
X64833Y34610
X63833Y34610
X63833Y33610
X63833Y32610
X63833Y35610
X63833Y36610
X63833Y37610
X63833Y38610
X63833Y39610
X63833Y40610
X63833Y41610
X63833Y42610
X64833Y42610
X65833Y42610
X65833Y41610
X64833Y41610
X64833Y40610
X64833Y39610
X65833Y39610
X65833Y40610
X65833Y38610
X64833Y38610
X64833Y37610
X65833Y37610
X65833Y36610
X64833Y36610
X64833Y35610
X65833Y35610
T05
X61833Y40110
X60833Y40110
X59833Y40110
X59833Y28110
X58833Y28110
X57833Y28110
X56833Y28110
X55833Y28110
X54833Y28110
X53833Y28110
X52833Y28110
X51833Y28110
X56333Y23610
X57333Y23610
X58333Y23610
X59333Y23610
X60333Y23610
X57833Y13610
X56833Y13610
X55833Y13610
X54833Y13610
X53833Y13610
X26833Y26110
X25833Y26110
X24833Y26110
X23833Y26110
X22833Y26110
X21833Y26110
X20833Y26110
X19833Y26110
X19333Y24610
X20333Y24610
X21333Y24610
X22333Y24610
X23333Y24610
X24333Y24610
X25333Y24610
X18333Y24610
X10583Y27110
X10583Y28110
X9223Y28890
X7443Y28890
X7443Y26330
X9223Y26330
X7833Y17860
X7833Y16860
X7833Y15860
X10833Y16860
X10833Y17860
X11833Y17860
X11833Y16860
X12833Y16860
X12833Y17860
X34333Y44610
X35333Y44610
X37333Y44610
X38333Y44610
X39333Y44610
X40333Y44610
X41333Y44610
X42333Y44610
T06
X66833Y44610
X66833Y9610
T07
X6583Y9860
X6583Y44360
X62833Y44360
X62833Y9860
M30
