G75*
%MOIN*%
%OFA0B0*%
%FSLAX25Y25*%
%IPPOS*%
%LPD*%
%AMOC8*
5,1,8,0,0,1.08239X$1,22.5*
%
%ADD10R,0.02600X0.08000*%
%ADD11R,0.06299X0.05118*%
%ADD12R,0.05906X0.05118*%
%ADD13R,0.05118X0.05906*%
%ADD14C,0.00000*%
%ADD15R,0.03898X0.02717*%
%ADD16R,0.05118X0.06299*%
%ADD17R,0.01969X0.03543*%
D10*
X0393333Y0328800D03*
X0398333Y0328800D03*
X0403333Y0328800D03*
X0408333Y0328800D03*
X0413333Y0328800D03*
X0418333Y0328800D03*
X0423333Y0328800D03*
X0428333Y0328800D03*
X0433333Y0328800D03*
X0438333Y0328800D03*
X0453333Y0328800D03*
X0458333Y0328800D03*
X0463333Y0328800D03*
X0468333Y0328800D03*
X0473333Y0328800D03*
X0478333Y0328800D03*
X0483333Y0328800D03*
X0488333Y0328800D03*
X0493333Y0328800D03*
X0498333Y0328800D03*
X0498333Y0368400D03*
X0493333Y0368400D03*
X0488333Y0368400D03*
X0483333Y0368400D03*
X0478333Y0368400D03*
X0473333Y0368400D03*
X0468333Y0368400D03*
X0463333Y0368400D03*
X0458333Y0368400D03*
X0453333Y0368400D03*
X0438333Y0368400D03*
X0433333Y0368400D03*
X0428333Y0368400D03*
X0423333Y0368400D03*
X0418333Y0368400D03*
X0413333Y0368400D03*
X0408333Y0368400D03*
X0403333Y0368400D03*
X0398333Y0368400D03*
X0393333Y0368400D03*
X0328333Y0426500D03*
X0323333Y0426500D03*
X0318333Y0426500D03*
X0313333Y0426500D03*
X0308333Y0426500D03*
X0303333Y0426500D03*
X0298333Y0426500D03*
X0293333Y0426500D03*
X0293333Y0450700D03*
X0298333Y0450700D03*
X0303333Y0450700D03*
X0308333Y0450700D03*
X0313333Y0450700D03*
X0318333Y0450700D03*
X0323333Y0450700D03*
X0328333Y0450700D03*
X0468333Y0450700D03*
X0473333Y0450700D03*
X0478333Y0450700D03*
X0483333Y0450700D03*
X0488333Y0450700D03*
X0493333Y0450700D03*
X0498333Y0450700D03*
X0503333Y0450700D03*
X0503333Y0426500D03*
X0498333Y0426500D03*
X0493333Y0426500D03*
X0488333Y0426500D03*
X0483333Y0426500D03*
X0478333Y0426500D03*
X0473333Y0426500D03*
X0468333Y0426500D03*
X0578333Y0195700D03*
X0583333Y0195700D03*
X0588333Y0195700D03*
X0593333Y0195700D03*
X0598333Y0195700D03*
X0603333Y0195700D03*
X0608333Y0195700D03*
X0613333Y0195700D03*
X0613333Y0171500D03*
X0608333Y0171500D03*
X0603333Y0171500D03*
X0598333Y0171500D03*
X0593333Y0171500D03*
X0588333Y0171500D03*
X0583333Y0171500D03*
X0578333Y0171500D03*
X0563333Y0168400D03*
X0558333Y0168400D03*
X0553333Y0168400D03*
X0548333Y0168400D03*
X0543333Y0168400D03*
X0538333Y0168400D03*
X0533333Y0168400D03*
X0528333Y0168400D03*
X0523333Y0168400D03*
X0518333Y0168400D03*
X0518333Y0128800D03*
X0523333Y0128800D03*
X0528333Y0128800D03*
X0533333Y0128800D03*
X0538333Y0128800D03*
X0543333Y0128800D03*
X0548333Y0128800D03*
X0553333Y0128800D03*
X0558333Y0128800D03*
X0563333Y0128800D03*
D11*
X0510833Y0127163D03*
X0510833Y0135037D03*
X0348333Y0252163D03*
X0348333Y0260037D03*
X0301333Y0202037D03*
X0293833Y0202037D03*
X0293833Y0194163D03*
X0301333Y0194163D03*
X0201333Y0194163D03*
X0193833Y0194163D03*
X0193833Y0202037D03*
X0201333Y0202037D03*
X0101333Y0202037D03*
X0093833Y0202037D03*
X0093833Y0194163D03*
X0101333Y0194163D03*
X0101333Y0326663D03*
X0093833Y0326663D03*
X0093833Y0334537D03*
X0101333Y0334537D03*
X0193833Y0334537D03*
X0201333Y0334537D03*
X0201333Y0326663D03*
X0193833Y0326663D03*
X0293833Y0326663D03*
X0301333Y0326663D03*
X0301333Y0334537D03*
X0293833Y0334537D03*
X0285333Y0424663D03*
X0285333Y0432537D03*
X0362833Y0434663D03*
X0362833Y0442537D03*
X0620833Y0298037D03*
X0620833Y0290163D03*
D12*
X0490833Y0222446D03*
X0490833Y0215754D03*
X0598333Y0121946D03*
X0598333Y0115254D03*
X0340833Y0296254D03*
X0340833Y0302946D03*
X0233333Y0241946D03*
X0233333Y0235254D03*
X0173333Y0161946D03*
X0173333Y0155254D03*
X0308333Y0400254D03*
X0308333Y0406946D03*
X0320333Y0406946D03*
X0328333Y0406946D03*
X0328333Y0400254D03*
X0320333Y0400254D03*
D13*
X0422487Y0436100D03*
X0429180Y0436100D03*
X0429180Y0444100D03*
X0422487Y0444100D03*
X0408680Y0188600D03*
X0401987Y0188600D03*
X0434987Y0136100D03*
X0441680Y0136100D03*
X0415180Y0124100D03*
X0408487Y0124100D03*
D14*
X0048333Y0074200D02*
X0048333Y0468000D01*
X0679333Y0468000D01*
X0679333Y0074200D01*
X0048333Y0074200D01*
X0056833Y0101100D02*
X0056835Y0101261D01*
X0056841Y0101421D01*
X0056851Y0101582D01*
X0056865Y0101742D01*
X0056883Y0101902D01*
X0056904Y0102061D01*
X0056930Y0102220D01*
X0056960Y0102378D01*
X0056993Y0102535D01*
X0057031Y0102692D01*
X0057072Y0102847D01*
X0057117Y0103001D01*
X0057166Y0103154D01*
X0057219Y0103306D01*
X0057275Y0103457D01*
X0057336Y0103606D01*
X0057399Y0103754D01*
X0057467Y0103900D01*
X0057538Y0104044D01*
X0057612Y0104186D01*
X0057690Y0104327D01*
X0057772Y0104465D01*
X0057857Y0104602D01*
X0057945Y0104736D01*
X0058037Y0104868D01*
X0058132Y0104998D01*
X0058230Y0105126D01*
X0058331Y0105251D01*
X0058435Y0105373D01*
X0058542Y0105493D01*
X0058652Y0105610D01*
X0058765Y0105725D01*
X0058881Y0105836D01*
X0059000Y0105945D01*
X0059121Y0106050D01*
X0059245Y0106153D01*
X0059371Y0106253D01*
X0059499Y0106349D01*
X0059630Y0106442D01*
X0059764Y0106532D01*
X0059899Y0106619D01*
X0060037Y0106702D01*
X0060176Y0106782D01*
X0060318Y0106858D01*
X0060461Y0106931D01*
X0060606Y0107000D01*
X0060753Y0107066D01*
X0060901Y0107128D01*
X0061051Y0107186D01*
X0061202Y0107241D01*
X0061355Y0107292D01*
X0061509Y0107339D01*
X0061664Y0107382D01*
X0061820Y0107421D01*
X0061976Y0107457D01*
X0062134Y0107488D01*
X0062292Y0107516D01*
X0062451Y0107540D01*
X0062611Y0107560D01*
X0062771Y0107576D01*
X0062931Y0107588D01*
X0063092Y0107596D01*
X0063253Y0107600D01*
X0063413Y0107600D01*
X0063574Y0107596D01*
X0063735Y0107588D01*
X0063895Y0107576D01*
X0064055Y0107560D01*
X0064215Y0107540D01*
X0064374Y0107516D01*
X0064532Y0107488D01*
X0064690Y0107457D01*
X0064846Y0107421D01*
X0065002Y0107382D01*
X0065157Y0107339D01*
X0065311Y0107292D01*
X0065464Y0107241D01*
X0065615Y0107186D01*
X0065765Y0107128D01*
X0065913Y0107066D01*
X0066060Y0107000D01*
X0066205Y0106931D01*
X0066348Y0106858D01*
X0066490Y0106782D01*
X0066629Y0106702D01*
X0066767Y0106619D01*
X0066902Y0106532D01*
X0067036Y0106442D01*
X0067167Y0106349D01*
X0067295Y0106253D01*
X0067421Y0106153D01*
X0067545Y0106050D01*
X0067666Y0105945D01*
X0067785Y0105836D01*
X0067901Y0105725D01*
X0068014Y0105610D01*
X0068124Y0105493D01*
X0068231Y0105373D01*
X0068335Y0105251D01*
X0068436Y0105126D01*
X0068534Y0104998D01*
X0068629Y0104868D01*
X0068721Y0104736D01*
X0068809Y0104602D01*
X0068894Y0104465D01*
X0068976Y0104327D01*
X0069054Y0104186D01*
X0069128Y0104044D01*
X0069199Y0103900D01*
X0069267Y0103754D01*
X0069330Y0103606D01*
X0069391Y0103457D01*
X0069447Y0103306D01*
X0069500Y0103154D01*
X0069549Y0103001D01*
X0069594Y0102847D01*
X0069635Y0102692D01*
X0069673Y0102535D01*
X0069706Y0102378D01*
X0069736Y0102220D01*
X0069762Y0102061D01*
X0069783Y0101902D01*
X0069801Y0101742D01*
X0069815Y0101582D01*
X0069825Y0101421D01*
X0069831Y0101261D01*
X0069833Y0101100D01*
X0069831Y0100939D01*
X0069825Y0100779D01*
X0069815Y0100618D01*
X0069801Y0100458D01*
X0069783Y0100298D01*
X0069762Y0100139D01*
X0069736Y0099980D01*
X0069706Y0099822D01*
X0069673Y0099665D01*
X0069635Y0099508D01*
X0069594Y0099353D01*
X0069549Y0099199D01*
X0069500Y0099046D01*
X0069447Y0098894D01*
X0069391Y0098743D01*
X0069330Y0098594D01*
X0069267Y0098446D01*
X0069199Y0098300D01*
X0069128Y0098156D01*
X0069054Y0098014D01*
X0068976Y0097873D01*
X0068894Y0097735D01*
X0068809Y0097598D01*
X0068721Y0097464D01*
X0068629Y0097332D01*
X0068534Y0097202D01*
X0068436Y0097074D01*
X0068335Y0096949D01*
X0068231Y0096827D01*
X0068124Y0096707D01*
X0068014Y0096590D01*
X0067901Y0096475D01*
X0067785Y0096364D01*
X0067666Y0096255D01*
X0067545Y0096150D01*
X0067421Y0096047D01*
X0067295Y0095947D01*
X0067167Y0095851D01*
X0067036Y0095758D01*
X0066902Y0095668D01*
X0066767Y0095581D01*
X0066629Y0095498D01*
X0066490Y0095418D01*
X0066348Y0095342D01*
X0066205Y0095269D01*
X0066060Y0095200D01*
X0065913Y0095134D01*
X0065765Y0095072D01*
X0065615Y0095014D01*
X0065464Y0094959D01*
X0065311Y0094908D01*
X0065157Y0094861D01*
X0065002Y0094818D01*
X0064846Y0094779D01*
X0064690Y0094743D01*
X0064532Y0094712D01*
X0064374Y0094684D01*
X0064215Y0094660D01*
X0064055Y0094640D01*
X0063895Y0094624D01*
X0063735Y0094612D01*
X0063574Y0094604D01*
X0063413Y0094600D01*
X0063253Y0094600D01*
X0063092Y0094604D01*
X0062931Y0094612D01*
X0062771Y0094624D01*
X0062611Y0094640D01*
X0062451Y0094660D01*
X0062292Y0094684D01*
X0062134Y0094712D01*
X0061976Y0094743D01*
X0061820Y0094779D01*
X0061664Y0094818D01*
X0061509Y0094861D01*
X0061355Y0094908D01*
X0061202Y0094959D01*
X0061051Y0095014D01*
X0060901Y0095072D01*
X0060753Y0095134D01*
X0060606Y0095200D01*
X0060461Y0095269D01*
X0060318Y0095342D01*
X0060176Y0095418D01*
X0060037Y0095498D01*
X0059899Y0095581D01*
X0059764Y0095668D01*
X0059630Y0095758D01*
X0059499Y0095851D01*
X0059371Y0095947D01*
X0059245Y0096047D01*
X0059121Y0096150D01*
X0059000Y0096255D01*
X0058881Y0096364D01*
X0058765Y0096475D01*
X0058652Y0096590D01*
X0058542Y0096707D01*
X0058435Y0096827D01*
X0058331Y0096949D01*
X0058230Y0097074D01*
X0058132Y0097202D01*
X0058037Y0097332D01*
X0057945Y0097464D01*
X0057857Y0097598D01*
X0057772Y0097735D01*
X0057690Y0097873D01*
X0057612Y0098014D01*
X0057538Y0098156D01*
X0057467Y0098300D01*
X0057399Y0098446D01*
X0057336Y0098594D01*
X0057275Y0098743D01*
X0057219Y0098894D01*
X0057166Y0099046D01*
X0057117Y0099199D01*
X0057072Y0099353D01*
X0057031Y0099508D01*
X0056993Y0099665D01*
X0056960Y0099822D01*
X0056930Y0099980D01*
X0056904Y0100139D01*
X0056883Y0100298D01*
X0056865Y0100458D01*
X0056851Y0100618D01*
X0056841Y0100779D01*
X0056835Y0100939D01*
X0056833Y0101100D01*
X0056833Y0443600D02*
X0056835Y0443761D01*
X0056841Y0443921D01*
X0056851Y0444082D01*
X0056865Y0444242D01*
X0056883Y0444402D01*
X0056904Y0444561D01*
X0056930Y0444720D01*
X0056960Y0444878D01*
X0056993Y0445035D01*
X0057031Y0445192D01*
X0057072Y0445347D01*
X0057117Y0445501D01*
X0057166Y0445654D01*
X0057219Y0445806D01*
X0057275Y0445957D01*
X0057336Y0446106D01*
X0057399Y0446254D01*
X0057467Y0446400D01*
X0057538Y0446544D01*
X0057612Y0446686D01*
X0057690Y0446827D01*
X0057772Y0446965D01*
X0057857Y0447102D01*
X0057945Y0447236D01*
X0058037Y0447368D01*
X0058132Y0447498D01*
X0058230Y0447626D01*
X0058331Y0447751D01*
X0058435Y0447873D01*
X0058542Y0447993D01*
X0058652Y0448110D01*
X0058765Y0448225D01*
X0058881Y0448336D01*
X0059000Y0448445D01*
X0059121Y0448550D01*
X0059245Y0448653D01*
X0059371Y0448753D01*
X0059499Y0448849D01*
X0059630Y0448942D01*
X0059764Y0449032D01*
X0059899Y0449119D01*
X0060037Y0449202D01*
X0060176Y0449282D01*
X0060318Y0449358D01*
X0060461Y0449431D01*
X0060606Y0449500D01*
X0060753Y0449566D01*
X0060901Y0449628D01*
X0061051Y0449686D01*
X0061202Y0449741D01*
X0061355Y0449792D01*
X0061509Y0449839D01*
X0061664Y0449882D01*
X0061820Y0449921D01*
X0061976Y0449957D01*
X0062134Y0449988D01*
X0062292Y0450016D01*
X0062451Y0450040D01*
X0062611Y0450060D01*
X0062771Y0450076D01*
X0062931Y0450088D01*
X0063092Y0450096D01*
X0063253Y0450100D01*
X0063413Y0450100D01*
X0063574Y0450096D01*
X0063735Y0450088D01*
X0063895Y0450076D01*
X0064055Y0450060D01*
X0064215Y0450040D01*
X0064374Y0450016D01*
X0064532Y0449988D01*
X0064690Y0449957D01*
X0064846Y0449921D01*
X0065002Y0449882D01*
X0065157Y0449839D01*
X0065311Y0449792D01*
X0065464Y0449741D01*
X0065615Y0449686D01*
X0065765Y0449628D01*
X0065913Y0449566D01*
X0066060Y0449500D01*
X0066205Y0449431D01*
X0066348Y0449358D01*
X0066490Y0449282D01*
X0066629Y0449202D01*
X0066767Y0449119D01*
X0066902Y0449032D01*
X0067036Y0448942D01*
X0067167Y0448849D01*
X0067295Y0448753D01*
X0067421Y0448653D01*
X0067545Y0448550D01*
X0067666Y0448445D01*
X0067785Y0448336D01*
X0067901Y0448225D01*
X0068014Y0448110D01*
X0068124Y0447993D01*
X0068231Y0447873D01*
X0068335Y0447751D01*
X0068436Y0447626D01*
X0068534Y0447498D01*
X0068629Y0447368D01*
X0068721Y0447236D01*
X0068809Y0447102D01*
X0068894Y0446965D01*
X0068976Y0446827D01*
X0069054Y0446686D01*
X0069128Y0446544D01*
X0069199Y0446400D01*
X0069267Y0446254D01*
X0069330Y0446106D01*
X0069391Y0445957D01*
X0069447Y0445806D01*
X0069500Y0445654D01*
X0069549Y0445501D01*
X0069594Y0445347D01*
X0069635Y0445192D01*
X0069673Y0445035D01*
X0069706Y0444878D01*
X0069736Y0444720D01*
X0069762Y0444561D01*
X0069783Y0444402D01*
X0069801Y0444242D01*
X0069815Y0444082D01*
X0069825Y0443921D01*
X0069831Y0443761D01*
X0069833Y0443600D01*
X0069831Y0443439D01*
X0069825Y0443279D01*
X0069815Y0443118D01*
X0069801Y0442958D01*
X0069783Y0442798D01*
X0069762Y0442639D01*
X0069736Y0442480D01*
X0069706Y0442322D01*
X0069673Y0442165D01*
X0069635Y0442008D01*
X0069594Y0441853D01*
X0069549Y0441699D01*
X0069500Y0441546D01*
X0069447Y0441394D01*
X0069391Y0441243D01*
X0069330Y0441094D01*
X0069267Y0440946D01*
X0069199Y0440800D01*
X0069128Y0440656D01*
X0069054Y0440514D01*
X0068976Y0440373D01*
X0068894Y0440235D01*
X0068809Y0440098D01*
X0068721Y0439964D01*
X0068629Y0439832D01*
X0068534Y0439702D01*
X0068436Y0439574D01*
X0068335Y0439449D01*
X0068231Y0439327D01*
X0068124Y0439207D01*
X0068014Y0439090D01*
X0067901Y0438975D01*
X0067785Y0438864D01*
X0067666Y0438755D01*
X0067545Y0438650D01*
X0067421Y0438547D01*
X0067295Y0438447D01*
X0067167Y0438351D01*
X0067036Y0438258D01*
X0066902Y0438168D01*
X0066767Y0438081D01*
X0066629Y0437998D01*
X0066490Y0437918D01*
X0066348Y0437842D01*
X0066205Y0437769D01*
X0066060Y0437700D01*
X0065913Y0437634D01*
X0065765Y0437572D01*
X0065615Y0437514D01*
X0065464Y0437459D01*
X0065311Y0437408D01*
X0065157Y0437361D01*
X0065002Y0437318D01*
X0064846Y0437279D01*
X0064690Y0437243D01*
X0064532Y0437212D01*
X0064374Y0437184D01*
X0064215Y0437160D01*
X0064055Y0437140D01*
X0063895Y0437124D01*
X0063735Y0437112D01*
X0063574Y0437104D01*
X0063413Y0437100D01*
X0063253Y0437100D01*
X0063092Y0437104D01*
X0062931Y0437112D01*
X0062771Y0437124D01*
X0062611Y0437140D01*
X0062451Y0437160D01*
X0062292Y0437184D01*
X0062134Y0437212D01*
X0061976Y0437243D01*
X0061820Y0437279D01*
X0061664Y0437318D01*
X0061509Y0437361D01*
X0061355Y0437408D01*
X0061202Y0437459D01*
X0061051Y0437514D01*
X0060901Y0437572D01*
X0060753Y0437634D01*
X0060606Y0437700D01*
X0060461Y0437769D01*
X0060318Y0437842D01*
X0060176Y0437918D01*
X0060037Y0437998D01*
X0059899Y0438081D01*
X0059764Y0438168D01*
X0059630Y0438258D01*
X0059499Y0438351D01*
X0059371Y0438447D01*
X0059245Y0438547D01*
X0059121Y0438650D01*
X0059000Y0438755D01*
X0058881Y0438864D01*
X0058765Y0438975D01*
X0058652Y0439090D01*
X0058542Y0439207D01*
X0058435Y0439327D01*
X0058331Y0439449D01*
X0058230Y0439574D01*
X0058132Y0439702D01*
X0058037Y0439832D01*
X0057945Y0439964D01*
X0057857Y0440098D01*
X0057772Y0440235D01*
X0057690Y0440373D01*
X0057612Y0440514D01*
X0057538Y0440656D01*
X0057467Y0440800D01*
X0057399Y0440946D01*
X0057336Y0441094D01*
X0057275Y0441243D01*
X0057219Y0441394D01*
X0057166Y0441546D01*
X0057117Y0441699D01*
X0057072Y0441853D01*
X0057031Y0442008D01*
X0056993Y0442165D01*
X0056960Y0442322D01*
X0056930Y0442480D01*
X0056904Y0442639D01*
X0056883Y0442798D01*
X0056865Y0442958D01*
X0056851Y0443118D01*
X0056841Y0443279D01*
X0056835Y0443439D01*
X0056833Y0443600D01*
X0619333Y0443600D02*
X0619335Y0443761D01*
X0619341Y0443921D01*
X0619351Y0444082D01*
X0619365Y0444242D01*
X0619383Y0444402D01*
X0619404Y0444561D01*
X0619430Y0444720D01*
X0619460Y0444878D01*
X0619493Y0445035D01*
X0619531Y0445192D01*
X0619572Y0445347D01*
X0619617Y0445501D01*
X0619666Y0445654D01*
X0619719Y0445806D01*
X0619775Y0445957D01*
X0619836Y0446106D01*
X0619899Y0446254D01*
X0619967Y0446400D01*
X0620038Y0446544D01*
X0620112Y0446686D01*
X0620190Y0446827D01*
X0620272Y0446965D01*
X0620357Y0447102D01*
X0620445Y0447236D01*
X0620537Y0447368D01*
X0620632Y0447498D01*
X0620730Y0447626D01*
X0620831Y0447751D01*
X0620935Y0447873D01*
X0621042Y0447993D01*
X0621152Y0448110D01*
X0621265Y0448225D01*
X0621381Y0448336D01*
X0621500Y0448445D01*
X0621621Y0448550D01*
X0621745Y0448653D01*
X0621871Y0448753D01*
X0621999Y0448849D01*
X0622130Y0448942D01*
X0622264Y0449032D01*
X0622399Y0449119D01*
X0622537Y0449202D01*
X0622676Y0449282D01*
X0622818Y0449358D01*
X0622961Y0449431D01*
X0623106Y0449500D01*
X0623253Y0449566D01*
X0623401Y0449628D01*
X0623551Y0449686D01*
X0623702Y0449741D01*
X0623855Y0449792D01*
X0624009Y0449839D01*
X0624164Y0449882D01*
X0624320Y0449921D01*
X0624476Y0449957D01*
X0624634Y0449988D01*
X0624792Y0450016D01*
X0624951Y0450040D01*
X0625111Y0450060D01*
X0625271Y0450076D01*
X0625431Y0450088D01*
X0625592Y0450096D01*
X0625753Y0450100D01*
X0625913Y0450100D01*
X0626074Y0450096D01*
X0626235Y0450088D01*
X0626395Y0450076D01*
X0626555Y0450060D01*
X0626715Y0450040D01*
X0626874Y0450016D01*
X0627032Y0449988D01*
X0627190Y0449957D01*
X0627346Y0449921D01*
X0627502Y0449882D01*
X0627657Y0449839D01*
X0627811Y0449792D01*
X0627964Y0449741D01*
X0628115Y0449686D01*
X0628265Y0449628D01*
X0628413Y0449566D01*
X0628560Y0449500D01*
X0628705Y0449431D01*
X0628848Y0449358D01*
X0628990Y0449282D01*
X0629129Y0449202D01*
X0629267Y0449119D01*
X0629402Y0449032D01*
X0629536Y0448942D01*
X0629667Y0448849D01*
X0629795Y0448753D01*
X0629921Y0448653D01*
X0630045Y0448550D01*
X0630166Y0448445D01*
X0630285Y0448336D01*
X0630401Y0448225D01*
X0630514Y0448110D01*
X0630624Y0447993D01*
X0630731Y0447873D01*
X0630835Y0447751D01*
X0630936Y0447626D01*
X0631034Y0447498D01*
X0631129Y0447368D01*
X0631221Y0447236D01*
X0631309Y0447102D01*
X0631394Y0446965D01*
X0631476Y0446827D01*
X0631554Y0446686D01*
X0631628Y0446544D01*
X0631699Y0446400D01*
X0631767Y0446254D01*
X0631830Y0446106D01*
X0631891Y0445957D01*
X0631947Y0445806D01*
X0632000Y0445654D01*
X0632049Y0445501D01*
X0632094Y0445347D01*
X0632135Y0445192D01*
X0632173Y0445035D01*
X0632206Y0444878D01*
X0632236Y0444720D01*
X0632262Y0444561D01*
X0632283Y0444402D01*
X0632301Y0444242D01*
X0632315Y0444082D01*
X0632325Y0443921D01*
X0632331Y0443761D01*
X0632333Y0443600D01*
X0632331Y0443439D01*
X0632325Y0443279D01*
X0632315Y0443118D01*
X0632301Y0442958D01*
X0632283Y0442798D01*
X0632262Y0442639D01*
X0632236Y0442480D01*
X0632206Y0442322D01*
X0632173Y0442165D01*
X0632135Y0442008D01*
X0632094Y0441853D01*
X0632049Y0441699D01*
X0632000Y0441546D01*
X0631947Y0441394D01*
X0631891Y0441243D01*
X0631830Y0441094D01*
X0631767Y0440946D01*
X0631699Y0440800D01*
X0631628Y0440656D01*
X0631554Y0440514D01*
X0631476Y0440373D01*
X0631394Y0440235D01*
X0631309Y0440098D01*
X0631221Y0439964D01*
X0631129Y0439832D01*
X0631034Y0439702D01*
X0630936Y0439574D01*
X0630835Y0439449D01*
X0630731Y0439327D01*
X0630624Y0439207D01*
X0630514Y0439090D01*
X0630401Y0438975D01*
X0630285Y0438864D01*
X0630166Y0438755D01*
X0630045Y0438650D01*
X0629921Y0438547D01*
X0629795Y0438447D01*
X0629667Y0438351D01*
X0629536Y0438258D01*
X0629402Y0438168D01*
X0629267Y0438081D01*
X0629129Y0437998D01*
X0628990Y0437918D01*
X0628848Y0437842D01*
X0628705Y0437769D01*
X0628560Y0437700D01*
X0628413Y0437634D01*
X0628265Y0437572D01*
X0628115Y0437514D01*
X0627964Y0437459D01*
X0627811Y0437408D01*
X0627657Y0437361D01*
X0627502Y0437318D01*
X0627346Y0437279D01*
X0627190Y0437243D01*
X0627032Y0437212D01*
X0626874Y0437184D01*
X0626715Y0437160D01*
X0626555Y0437140D01*
X0626395Y0437124D01*
X0626235Y0437112D01*
X0626074Y0437104D01*
X0625913Y0437100D01*
X0625753Y0437100D01*
X0625592Y0437104D01*
X0625431Y0437112D01*
X0625271Y0437124D01*
X0625111Y0437140D01*
X0624951Y0437160D01*
X0624792Y0437184D01*
X0624634Y0437212D01*
X0624476Y0437243D01*
X0624320Y0437279D01*
X0624164Y0437318D01*
X0624009Y0437361D01*
X0623855Y0437408D01*
X0623702Y0437459D01*
X0623551Y0437514D01*
X0623401Y0437572D01*
X0623253Y0437634D01*
X0623106Y0437700D01*
X0622961Y0437769D01*
X0622818Y0437842D01*
X0622676Y0437918D01*
X0622537Y0437998D01*
X0622399Y0438081D01*
X0622264Y0438168D01*
X0622130Y0438258D01*
X0621999Y0438351D01*
X0621871Y0438447D01*
X0621745Y0438547D01*
X0621621Y0438650D01*
X0621500Y0438755D01*
X0621381Y0438864D01*
X0621265Y0438975D01*
X0621152Y0439090D01*
X0621042Y0439207D01*
X0620935Y0439327D01*
X0620831Y0439449D01*
X0620730Y0439574D01*
X0620632Y0439702D01*
X0620537Y0439832D01*
X0620445Y0439964D01*
X0620357Y0440098D01*
X0620272Y0440235D01*
X0620190Y0440373D01*
X0620112Y0440514D01*
X0620038Y0440656D01*
X0619967Y0440800D01*
X0619899Y0440946D01*
X0619836Y0441094D01*
X0619775Y0441243D01*
X0619719Y0441394D01*
X0619666Y0441546D01*
X0619617Y0441699D01*
X0619572Y0441853D01*
X0619531Y0442008D01*
X0619493Y0442165D01*
X0619460Y0442322D01*
X0619430Y0442480D01*
X0619404Y0442639D01*
X0619383Y0442798D01*
X0619365Y0442958D01*
X0619351Y0443118D01*
X0619341Y0443279D01*
X0619335Y0443439D01*
X0619333Y0443600D01*
X0662833Y0446100D02*
X0662835Y0446248D01*
X0662841Y0446396D01*
X0662851Y0446544D01*
X0662865Y0446692D01*
X0662883Y0446839D01*
X0662905Y0446986D01*
X0662931Y0447132D01*
X0662960Y0447277D01*
X0662994Y0447422D01*
X0663032Y0447565D01*
X0663073Y0447708D01*
X0663118Y0447849D01*
X0663168Y0447989D01*
X0663220Y0448127D01*
X0663277Y0448265D01*
X0663337Y0448400D01*
X0663401Y0448534D01*
X0663468Y0448666D01*
X0663539Y0448796D01*
X0663614Y0448925D01*
X0663692Y0449051D01*
X0663773Y0449175D01*
X0663857Y0449297D01*
X0663945Y0449416D01*
X0664036Y0449533D01*
X0664130Y0449648D01*
X0664228Y0449760D01*
X0664328Y0449869D01*
X0664431Y0449976D01*
X0664537Y0450080D01*
X0664645Y0450181D01*
X0664757Y0450279D01*
X0664871Y0450374D01*
X0664987Y0450465D01*
X0665106Y0450554D01*
X0665227Y0450639D01*
X0665351Y0450721D01*
X0665477Y0450800D01*
X0665604Y0450875D01*
X0665734Y0450947D01*
X0665866Y0451016D01*
X0665999Y0451080D01*
X0666134Y0451141D01*
X0666271Y0451199D01*
X0666409Y0451253D01*
X0666549Y0451303D01*
X0666690Y0451349D01*
X0666832Y0451391D01*
X0666975Y0451430D01*
X0667119Y0451464D01*
X0667265Y0451495D01*
X0667410Y0451522D01*
X0667557Y0451545D01*
X0667704Y0451564D01*
X0667852Y0451579D01*
X0667999Y0451590D01*
X0668148Y0451597D01*
X0668296Y0451600D01*
X0668444Y0451599D01*
X0668592Y0451594D01*
X0668740Y0451585D01*
X0668888Y0451572D01*
X0669036Y0451555D01*
X0669182Y0451534D01*
X0669329Y0451509D01*
X0669474Y0451480D01*
X0669619Y0451448D01*
X0669762Y0451411D01*
X0669905Y0451371D01*
X0670047Y0451326D01*
X0670187Y0451278D01*
X0670326Y0451226D01*
X0670463Y0451171D01*
X0670599Y0451111D01*
X0670734Y0451048D01*
X0670866Y0450982D01*
X0670997Y0450912D01*
X0671126Y0450838D01*
X0671252Y0450761D01*
X0671377Y0450681D01*
X0671499Y0450597D01*
X0671620Y0450510D01*
X0671737Y0450420D01*
X0671853Y0450326D01*
X0671965Y0450230D01*
X0672075Y0450131D01*
X0672183Y0450028D01*
X0672287Y0449923D01*
X0672389Y0449815D01*
X0672487Y0449704D01*
X0672583Y0449591D01*
X0672676Y0449475D01*
X0672765Y0449357D01*
X0672851Y0449236D01*
X0672934Y0449113D01*
X0673014Y0448988D01*
X0673090Y0448861D01*
X0673163Y0448731D01*
X0673232Y0448600D01*
X0673297Y0448467D01*
X0673360Y0448333D01*
X0673418Y0448196D01*
X0673473Y0448058D01*
X0673523Y0447919D01*
X0673571Y0447778D01*
X0673614Y0447637D01*
X0673654Y0447494D01*
X0673689Y0447350D01*
X0673721Y0447205D01*
X0673749Y0447059D01*
X0673773Y0446913D01*
X0673793Y0446766D01*
X0673809Y0446618D01*
X0673821Y0446471D01*
X0673829Y0446322D01*
X0673833Y0446174D01*
X0673833Y0446026D01*
X0673829Y0445878D01*
X0673821Y0445729D01*
X0673809Y0445582D01*
X0673793Y0445434D01*
X0673773Y0445287D01*
X0673749Y0445141D01*
X0673721Y0444995D01*
X0673689Y0444850D01*
X0673654Y0444706D01*
X0673614Y0444563D01*
X0673571Y0444422D01*
X0673523Y0444281D01*
X0673473Y0444142D01*
X0673418Y0444004D01*
X0673360Y0443867D01*
X0673297Y0443733D01*
X0673232Y0443600D01*
X0673163Y0443469D01*
X0673090Y0443339D01*
X0673014Y0443212D01*
X0672934Y0443087D01*
X0672851Y0442964D01*
X0672765Y0442843D01*
X0672676Y0442725D01*
X0672583Y0442609D01*
X0672487Y0442496D01*
X0672389Y0442385D01*
X0672287Y0442277D01*
X0672183Y0442172D01*
X0672075Y0442069D01*
X0671965Y0441970D01*
X0671853Y0441874D01*
X0671737Y0441780D01*
X0671620Y0441690D01*
X0671499Y0441603D01*
X0671377Y0441519D01*
X0671252Y0441439D01*
X0671126Y0441362D01*
X0670997Y0441288D01*
X0670866Y0441218D01*
X0670734Y0441152D01*
X0670599Y0441089D01*
X0670463Y0441029D01*
X0670326Y0440974D01*
X0670187Y0440922D01*
X0670047Y0440874D01*
X0669905Y0440829D01*
X0669762Y0440789D01*
X0669619Y0440752D01*
X0669474Y0440720D01*
X0669329Y0440691D01*
X0669182Y0440666D01*
X0669036Y0440645D01*
X0668888Y0440628D01*
X0668740Y0440615D01*
X0668592Y0440606D01*
X0668444Y0440601D01*
X0668296Y0440600D01*
X0668148Y0440603D01*
X0667999Y0440610D01*
X0667852Y0440621D01*
X0667704Y0440636D01*
X0667557Y0440655D01*
X0667410Y0440678D01*
X0667265Y0440705D01*
X0667119Y0440736D01*
X0666975Y0440770D01*
X0666832Y0440809D01*
X0666690Y0440851D01*
X0666549Y0440897D01*
X0666409Y0440947D01*
X0666271Y0441001D01*
X0666134Y0441059D01*
X0665999Y0441120D01*
X0665866Y0441184D01*
X0665734Y0441253D01*
X0665604Y0441325D01*
X0665477Y0441400D01*
X0665351Y0441479D01*
X0665227Y0441561D01*
X0665106Y0441646D01*
X0664987Y0441735D01*
X0664871Y0441826D01*
X0664757Y0441921D01*
X0664645Y0442019D01*
X0664537Y0442120D01*
X0664431Y0442224D01*
X0664328Y0442331D01*
X0664228Y0442440D01*
X0664130Y0442552D01*
X0664036Y0442667D01*
X0663945Y0442784D01*
X0663857Y0442903D01*
X0663773Y0443025D01*
X0663692Y0443149D01*
X0663614Y0443275D01*
X0663539Y0443404D01*
X0663468Y0443534D01*
X0663401Y0443666D01*
X0663337Y0443800D01*
X0663277Y0443935D01*
X0663220Y0444073D01*
X0663168Y0444211D01*
X0663118Y0444351D01*
X0663073Y0444492D01*
X0663032Y0444635D01*
X0662994Y0444778D01*
X0662960Y0444923D01*
X0662931Y0445068D01*
X0662905Y0445214D01*
X0662883Y0445361D01*
X0662865Y0445508D01*
X0662851Y0445656D01*
X0662841Y0445804D01*
X0662835Y0445952D01*
X0662833Y0446100D01*
X0619333Y0101100D02*
X0619335Y0101261D01*
X0619341Y0101421D01*
X0619351Y0101582D01*
X0619365Y0101742D01*
X0619383Y0101902D01*
X0619404Y0102061D01*
X0619430Y0102220D01*
X0619460Y0102378D01*
X0619493Y0102535D01*
X0619531Y0102692D01*
X0619572Y0102847D01*
X0619617Y0103001D01*
X0619666Y0103154D01*
X0619719Y0103306D01*
X0619775Y0103457D01*
X0619836Y0103606D01*
X0619899Y0103754D01*
X0619967Y0103900D01*
X0620038Y0104044D01*
X0620112Y0104186D01*
X0620190Y0104327D01*
X0620272Y0104465D01*
X0620357Y0104602D01*
X0620445Y0104736D01*
X0620537Y0104868D01*
X0620632Y0104998D01*
X0620730Y0105126D01*
X0620831Y0105251D01*
X0620935Y0105373D01*
X0621042Y0105493D01*
X0621152Y0105610D01*
X0621265Y0105725D01*
X0621381Y0105836D01*
X0621500Y0105945D01*
X0621621Y0106050D01*
X0621745Y0106153D01*
X0621871Y0106253D01*
X0621999Y0106349D01*
X0622130Y0106442D01*
X0622264Y0106532D01*
X0622399Y0106619D01*
X0622537Y0106702D01*
X0622676Y0106782D01*
X0622818Y0106858D01*
X0622961Y0106931D01*
X0623106Y0107000D01*
X0623253Y0107066D01*
X0623401Y0107128D01*
X0623551Y0107186D01*
X0623702Y0107241D01*
X0623855Y0107292D01*
X0624009Y0107339D01*
X0624164Y0107382D01*
X0624320Y0107421D01*
X0624476Y0107457D01*
X0624634Y0107488D01*
X0624792Y0107516D01*
X0624951Y0107540D01*
X0625111Y0107560D01*
X0625271Y0107576D01*
X0625431Y0107588D01*
X0625592Y0107596D01*
X0625753Y0107600D01*
X0625913Y0107600D01*
X0626074Y0107596D01*
X0626235Y0107588D01*
X0626395Y0107576D01*
X0626555Y0107560D01*
X0626715Y0107540D01*
X0626874Y0107516D01*
X0627032Y0107488D01*
X0627190Y0107457D01*
X0627346Y0107421D01*
X0627502Y0107382D01*
X0627657Y0107339D01*
X0627811Y0107292D01*
X0627964Y0107241D01*
X0628115Y0107186D01*
X0628265Y0107128D01*
X0628413Y0107066D01*
X0628560Y0107000D01*
X0628705Y0106931D01*
X0628848Y0106858D01*
X0628990Y0106782D01*
X0629129Y0106702D01*
X0629267Y0106619D01*
X0629402Y0106532D01*
X0629536Y0106442D01*
X0629667Y0106349D01*
X0629795Y0106253D01*
X0629921Y0106153D01*
X0630045Y0106050D01*
X0630166Y0105945D01*
X0630285Y0105836D01*
X0630401Y0105725D01*
X0630514Y0105610D01*
X0630624Y0105493D01*
X0630731Y0105373D01*
X0630835Y0105251D01*
X0630936Y0105126D01*
X0631034Y0104998D01*
X0631129Y0104868D01*
X0631221Y0104736D01*
X0631309Y0104602D01*
X0631394Y0104465D01*
X0631476Y0104327D01*
X0631554Y0104186D01*
X0631628Y0104044D01*
X0631699Y0103900D01*
X0631767Y0103754D01*
X0631830Y0103606D01*
X0631891Y0103457D01*
X0631947Y0103306D01*
X0632000Y0103154D01*
X0632049Y0103001D01*
X0632094Y0102847D01*
X0632135Y0102692D01*
X0632173Y0102535D01*
X0632206Y0102378D01*
X0632236Y0102220D01*
X0632262Y0102061D01*
X0632283Y0101902D01*
X0632301Y0101742D01*
X0632315Y0101582D01*
X0632325Y0101421D01*
X0632331Y0101261D01*
X0632333Y0101100D01*
X0632331Y0100939D01*
X0632325Y0100779D01*
X0632315Y0100618D01*
X0632301Y0100458D01*
X0632283Y0100298D01*
X0632262Y0100139D01*
X0632236Y0099980D01*
X0632206Y0099822D01*
X0632173Y0099665D01*
X0632135Y0099508D01*
X0632094Y0099353D01*
X0632049Y0099199D01*
X0632000Y0099046D01*
X0631947Y0098894D01*
X0631891Y0098743D01*
X0631830Y0098594D01*
X0631767Y0098446D01*
X0631699Y0098300D01*
X0631628Y0098156D01*
X0631554Y0098014D01*
X0631476Y0097873D01*
X0631394Y0097735D01*
X0631309Y0097598D01*
X0631221Y0097464D01*
X0631129Y0097332D01*
X0631034Y0097202D01*
X0630936Y0097074D01*
X0630835Y0096949D01*
X0630731Y0096827D01*
X0630624Y0096707D01*
X0630514Y0096590D01*
X0630401Y0096475D01*
X0630285Y0096364D01*
X0630166Y0096255D01*
X0630045Y0096150D01*
X0629921Y0096047D01*
X0629795Y0095947D01*
X0629667Y0095851D01*
X0629536Y0095758D01*
X0629402Y0095668D01*
X0629267Y0095581D01*
X0629129Y0095498D01*
X0628990Y0095418D01*
X0628848Y0095342D01*
X0628705Y0095269D01*
X0628560Y0095200D01*
X0628413Y0095134D01*
X0628265Y0095072D01*
X0628115Y0095014D01*
X0627964Y0094959D01*
X0627811Y0094908D01*
X0627657Y0094861D01*
X0627502Y0094818D01*
X0627346Y0094779D01*
X0627190Y0094743D01*
X0627032Y0094712D01*
X0626874Y0094684D01*
X0626715Y0094660D01*
X0626555Y0094640D01*
X0626395Y0094624D01*
X0626235Y0094612D01*
X0626074Y0094604D01*
X0625913Y0094600D01*
X0625753Y0094600D01*
X0625592Y0094604D01*
X0625431Y0094612D01*
X0625271Y0094624D01*
X0625111Y0094640D01*
X0624951Y0094660D01*
X0624792Y0094684D01*
X0624634Y0094712D01*
X0624476Y0094743D01*
X0624320Y0094779D01*
X0624164Y0094818D01*
X0624009Y0094861D01*
X0623855Y0094908D01*
X0623702Y0094959D01*
X0623551Y0095014D01*
X0623401Y0095072D01*
X0623253Y0095134D01*
X0623106Y0095200D01*
X0622961Y0095269D01*
X0622818Y0095342D01*
X0622676Y0095418D01*
X0622537Y0095498D01*
X0622399Y0095581D01*
X0622264Y0095668D01*
X0622130Y0095758D01*
X0621999Y0095851D01*
X0621871Y0095947D01*
X0621745Y0096047D01*
X0621621Y0096150D01*
X0621500Y0096255D01*
X0621381Y0096364D01*
X0621265Y0096475D01*
X0621152Y0096590D01*
X0621042Y0096707D01*
X0620935Y0096827D01*
X0620831Y0096949D01*
X0620730Y0097074D01*
X0620632Y0097202D01*
X0620537Y0097332D01*
X0620445Y0097464D01*
X0620357Y0097598D01*
X0620272Y0097735D01*
X0620190Y0097873D01*
X0620112Y0098014D01*
X0620038Y0098156D01*
X0619967Y0098300D01*
X0619899Y0098446D01*
X0619836Y0098594D01*
X0619775Y0098743D01*
X0619719Y0098894D01*
X0619666Y0099046D01*
X0619617Y0099199D01*
X0619572Y0099353D01*
X0619531Y0099508D01*
X0619493Y0099665D01*
X0619460Y0099822D01*
X0619430Y0099980D01*
X0619404Y0100139D01*
X0619383Y0100298D01*
X0619365Y0100458D01*
X0619351Y0100618D01*
X0619341Y0100779D01*
X0619335Y0100939D01*
X0619333Y0101100D01*
X0662833Y0096100D02*
X0662835Y0096248D01*
X0662841Y0096396D01*
X0662851Y0096544D01*
X0662865Y0096692D01*
X0662883Y0096839D01*
X0662905Y0096986D01*
X0662931Y0097132D01*
X0662960Y0097277D01*
X0662994Y0097422D01*
X0663032Y0097565D01*
X0663073Y0097708D01*
X0663118Y0097849D01*
X0663168Y0097989D01*
X0663220Y0098127D01*
X0663277Y0098265D01*
X0663337Y0098400D01*
X0663401Y0098534D01*
X0663468Y0098666D01*
X0663539Y0098796D01*
X0663614Y0098925D01*
X0663692Y0099051D01*
X0663773Y0099175D01*
X0663857Y0099297D01*
X0663945Y0099416D01*
X0664036Y0099533D01*
X0664130Y0099648D01*
X0664228Y0099760D01*
X0664328Y0099869D01*
X0664431Y0099976D01*
X0664537Y0100080D01*
X0664645Y0100181D01*
X0664757Y0100279D01*
X0664871Y0100374D01*
X0664987Y0100465D01*
X0665106Y0100554D01*
X0665227Y0100639D01*
X0665351Y0100721D01*
X0665477Y0100800D01*
X0665604Y0100875D01*
X0665734Y0100947D01*
X0665866Y0101016D01*
X0665999Y0101080D01*
X0666134Y0101141D01*
X0666271Y0101199D01*
X0666409Y0101253D01*
X0666549Y0101303D01*
X0666690Y0101349D01*
X0666832Y0101391D01*
X0666975Y0101430D01*
X0667119Y0101464D01*
X0667265Y0101495D01*
X0667410Y0101522D01*
X0667557Y0101545D01*
X0667704Y0101564D01*
X0667852Y0101579D01*
X0667999Y0101590D01*
X0668148Y0101597D01*
X0668296Y0101600D01*
X0668444Y0101599D01*
X0668592Y0101594D01*
X0668740Y0101585D01*
X0668888Y0101572D01*
X0669036Y0101555D01*
X0669182Y0101534D01*
X0669329Y0101509D01*
X0669474Y0101480D01*
X0669619Y0101448D01*
X0669762Y0101411D01*
X0669905Y0101371D01*
X0670047Y0101326D01*
X0670187Y0101278D01*
X0670326Y0101226D01*
X0670463Y0101171D01*
X0670599Y0101111D01*
X0670734Y0101048D01*
X0670866Y0100982D01*
X0670997Y0100912D01*
X0671126Y0100838D01*
X0671252Y0100761D01*
X0671377Y0100681D01*
X0671499Y0100597D01*
X0671620Y0100510D01*
X0671737Y0100420D01*
X0671853Y0100326D01*
X0671965Y0100230D01*
X0672075Y0100131D01*
X0672183Y0100028D01*
X0672287Y0099923D01*
X0672389Y0099815D01*
X0672487Y0099704D01*
X0672583Y0099591D01*
X0672676Y0099475D01*
X0672765Y0099357D01*
X0672851Y0099236D01*
X0672934Y0099113D01*
X0673014Y0098988D01*
X0673090Y0098861D01*
X0673163Y0098731D01*
X0673232Y0098600D01*
X0673297Y0098467D01*
X0673360Y0098333D01*
X0673418Y0098196D01*
X0673473Y0098058D01*
X0673523Y0097919D01*
X0673571Y0097778D01*
X0673614Y0097637D01*
X0673654Y0097494D01*
X0673689Y0097350D01*
X0673721Y0097205D01*
X0673749Y0097059D01*
X0673773Y0096913D01*
X0673793Y0096766D01*
X0673809Y0096618D01*
X0673821Y0096471D01*
X0673829Y0096322D01*
X0673833Y0096174D01*
X0673833Y0096026D01*
X0673829Y0095878D01*
X0673821Y0095729D01*
X0673809Y0095582D01*
X0673793Y0095434D01*
X0673773Y0095287D01*
X0673749Y0095141D01*
X0673721Y0094995D01*
X0673689Y0094850D01*
X0673654Y0094706D01*
X0673614Y0094563D01*
X0673571Y0094422D01*
X0673523Y0094281D01*
X0673473Y0094142D01*
X0673418Y0094004D01*
X0673360Y0093867D01*
X0673297Y0093733D01*
X0673232Y0093600D01*
X0673163Y0093469D01*
X0673090Y0093339D01*
X0673014Y0093212D01*
X0672934Y0093087D01*
X0672851Y0092964D01*
X0672765Y0092843D01*
X0672676Y0092725D01*
X0672583Y0092609D01*
X0672487Y0092496D01*
X0672389Y0092385D01*
X0672287Y0092277D01*
X0672183Y0092172D01*
X0672075Y0092069D01*
X0671965Y0091970D01*
X0671853Y0091874D01*
X0671737Y0091780D01*
X0671620Y0091690D01*
X0671499Y0091603D01*
X0671377Y0091519D01*
X0671252Y0091439D01*
X0671126Y0091362D01*
X0670997Y0091288D01*
X0670866Y0091218D01*
X0670734Y0091152D01*
X0670599Y0091089D01*
X0670463Y0091029D01*
X0670326Y0090974D01*
X0670187Y0090922D01*
X0670047Y0090874D01*
X0669905Y0090829D01*
X0669762Y0090789D01*
X0669619Y0090752D01*
X0669474Y0090720D01*
X0669329Y0090691D01*
X0669182Y0090666D01*
X0669036Y0090645D01*
X0668888Y0090628D01*
X0668740Y0090615D01*
X0668592Y0090606D01*
X0668444Y0090601D01*
X0668296Y0090600D01*
X0668148Y0090603D01*
X0667999Y0090610D01*
X0667852Y0090621D01*
X0667704Y0090636D01*
X0667557Y0090655D01*
X0667410Y0090678D01*
X0667265Y0090705D01*
X0667119Y0090736D01*
X0666975Y0090770D01*
X0666832Y0090809D01*
X0666690Y0090851D01*
X0666549Y0090897D01*
X0666409Y0090947D01*
X0666271Y0091001D01*
X0666134Y0091059D01*
X0665999Y0091120D01*
X0665866Y0091184D01*
X0665734Y0091253D01*
X0665604Y0091325D01*
X0665477Y0091400D01*
X0665351Y0091479D01*
X0665227Y0091561D01*
X0665106Y0091646D01*
X0664987Y0091735D01*
X0664871Y0091826D01*
X0664757Y0091921D01*
X0664645Y0092019D01*
X0664537Y0092120D01*
X0664431Y0092224D01*
X0664328Y0092331D01*
X0664228Y0092440D01*
X0664130Y0092552D01*
X0664036Y0092667D01*
X0663945Y0092784D01*
X0663857Y0092903D01*
X0663773Y0093025D01*
X0663692Y0093149D01*
X0663614Y0093275D01*
X0663539Y0093404D01*
X0663468Y0093534D01*
X0663401Y0093666D01*
X0663337Y0093800D01*
X0663277Y0093935D01*
X0663220Y0094073D01*
X0663168Y0094211D01*
X0663118Y0094351D01*
X0663073Y0094492D01*
X0663032Y0094635D01*
X0662994Y0094778D01*
X0662960Y0094923D01*
X0662931Y0095068D01*
X0662905Y0095214D01*
X0662883Y0095361D01*
X0662865Y0095508D01*
X0662851Y0095656D01*
X0662841Y0095804D01*
X0662835Y0095952D01*
X0662833Y0096100D01*
D15*
X0610951Y0294860D03*
X0610951Y0302340D03*
X0600755Y0302340D03*
X0600755Y0298600D03*
X0600755Y0294860D03*
X0385912Y0434860D03*
X0385912Y0438600D03*
X0385912Y0442340D03*
X0375715Y0442340D03*
X0375715Y0434860D03*
D16*
X0451896Y0426100D03*
X0459770Y0426100D03*
X0531896Y0355100D03*
X0539770Y0355100D03*
X0571896Y0346100D03*
X0579770Y0346100D03*
X0532270Y0303100D03*
X0524396Y0303100D03*
X0566896Y0241100D03*
X0574770Y0241100D03*
X0537270Y0206100D03*
X0529396Y0206100D03*
X0413270Y0235600D03*
X0405396Y0235600D03*
X0577896Y0399600D03*
X0585770Y0399600D03*
X0177270Y0093600D03*
X0169396Y0093600D03*
D17*
X0398609Y0307950D03*
X0401759Y0307950D03*
X0404908Y0307950D03*
X0408058Y0307950D03*
X0408058Y0314250D03*
X0404908Y0314250D03*
X0401759Y0314250D03*
X0398609Y0314250D03*
X0418609Y0314250D03*
X0421759Y0314250D03*
X0424908Y0314250D03*
X0428058Y0314250D03*
X0428058Y0307950D03*
X0424908Y0307950D03*
X0421759Y0307950D03*
X0418609Y0307950D03*
X0456109Y0307950D03*
X0459259Y0307950D03*
X0462408Y0307950D03*
X0465558Y0307950D03*
X0465558Y0314250D03*
X0462408Y0314250D03*
X0459259Y0314250D03*
X0456109Y0314250D03*
X0478609Y0314250D03*
X0481759Y0314250D03*
X0484908Y0314250D03*
X0488058Y0314250D03*
X0488058Y0307950D03*
X0484908Y0307950D03*
X0481759Y0307950D03*
X0478609Y0307950D03*
M02*
