G75*
G70*
%OFA0B0*%
%FSLAX24Y24*%
%IPPOS*%
%LPD*%
%AMOC8*
5,1,8,0,0,1.08239X$1,22.5*
%
%ADD10R,0.0800X0.0260*%
%ADD11R,0.0260X0.0800*%
%ADD12C,0.0000*%
%ADD13R,0.0272X0.0390*%
%ADD14R,0.0390X0.0272*%
%ADD15R,0.0512X0.0630*%
%ADD16R,0.0630X0.0512*%
%ADD17R,0.0512X0.0591*%
%ADD18R,0.0472X0.0472*%
%ADD19R,0.0500X0.1000*%
D10*
X039888Y011870D03*
X039888Y012370D03*
X039888Y012870D03*
X039888Y013370D03*
X039888Y013870D03*
X039888Y014370D03*
X039888Y014870D03*
X039888Y015370D03*
X042308Y015370D03*
X042308Y014870D03*
X042308Y014370D03*
X042308Y013870D03*
X042308Y013370D03*
X042308Y012870D03*
X042308Y012370D03*
X042308Y011870D03*
X044138Y011870D03*
X044138Y012370D03*
X044138Y012870D03*
X044138Y013370D03*
X044138Y013870D03*
X044138Y014370D03*
X044138Y014870D03*
X046558Y014870D03*
X046558Y014370D03*
X046558Y013870D03*
X046558Y013370D03*
X046558Y012870D03*
X046558Y012370D03*
X046558Y011870D03*
X045558Y019620D03*
X045558Y020120D03*
X045558Y020620D03*
X045558Y021120D03*
X045558Y021620D03*
X045558Y022120D03*
X045558Y022620D03*
X047888Y022620D03*
X047888Y023120D03*
X047888Y022120D03*
X047888Y021620D03*
X047888Y021120D03*
X047888Y020620D03*
X047888Y020120D03*
X047888Y019620D03*
X050308Y019620D03*
X050308Y020120D03*
X050308Y020620D03*
X050308Y021120D03*
X050308Y021620D03*
X050308Y022120D03*
X050308Y022620D03*
X050308Y023120D03*
X051888Y027120D03*
X051888Y027620D03*
X051888Y028120D03*
X051888Y028620D03*
X051888Y029120D03*
X051888Y029620D03*
X051888Y030120D03*
X054308Y030120D03*
X054308Y029620D03*
X054308Y029120D03*
X054308Y028620D03*
X054308Y028120D03*
X054308Y027620D03*
X054308Y027120D03*
X043138Y022620D03*
X043138Y022120D03*
X043138Y021620D03*
X043138Y021120D03*
X043138Y020620D03*
X043138Y020120D03*
X043138Y019620D03*
D11*
X036098Y013100D03*
X035598Y013100D03*
X035098Y013100D03*
X034598Y013100D03*
X034098Y013100D03*
X033598Y013100D03*
X033098Y013100D03*
X032598Y013100D03*
X032098Y013100D03*
X031598Y013100D03*
X030098Y013100D03*
X029598Y013100D03*
X029098Y013100D03*
X028598Y013100D03*
X028098Y013100D03*
X027598Y013100D03*
X027098Y013100D03*
X026598Y013100D03*
X026098Y013100D03*
X025598Y013100D03*
X024098Y013100D03*
X023598Y013100D03*
X023098Y013100D03*
X022598Y013100D03*
X022098Y013100D03*
X021598Y013100D03*
X021098Y013100D03*
X020598Y013100D03*
X020098Y013100D03*
X019598Y013100D03*
X018098Y013100D03*
X017598Y013100D03*
X017098Y013100D03*
X016598Y013100D03*
X016098Y013100D03*
X015598Y013100D03*
X015098Y013100D03*
X014598Y013100D03*
X014098Y013100D03*
X013598Y013100D03*
X013598Y009140D03*
X014098Y009140D03*
X014598Y009140D03*
X015098Y009140D03*
X015598Y009140D03*
X016098Y009140D03*
X016598Y009140D03*
X017098Y009140D03*
X017598Y009140D03*
X018098Y009140D03*
X019598Y009140D03*
X020098Y009140D03*
X020598Y009140D03*
X021098Y009140D03*
X021598Y009140D03*
X022098Y009140D03*
X022598Y009140D03*
X023098Y009140D03*
X023598Y009140D03*
X024098Y009140D03*
X025598Y009140D03*
X026098Y009140D03*
X026598Y009140D03*
X027098Y009140D03*
X027598Y009140D03*
X028098Y009140D03*
X028598Y009140D03*
X029098Y009140D03*
X029598Y009140D03*
X030098Y009140D03*
X031598Y009140D03*
X032098Y009140D03*
X032598Y009140D03*
X033098Y009140D03*
X033598Y009140D03*
X034098Y009140D03*
X034598Y009140D03*
X035098Y009140D03*
X035598Y009140D03*
X036098Y009140D03*
X052098Y016140D03*
X052598Y016140D03*
X053098Y016140D03*
X053598Y016140D03*
X054098Y016140D03*
X054598Y016140D03*
X055098Y016140D03*
X055598Y016140D03*
X056098Y016140D03*
X056598Y016140D03*
X056598Y020100D03*
X056098Y020100D03*
X055598Y020100D03*
X055098Y020100D03*
X054598Y020100D03*
X054098Y020100D03*
X053598Y020100D03*
X053098Y020100D03*
X052598Y020100D03*
X052098Y020100D03*
X052348Y021640D03*
X052848Y021640D03*
X053348Y021640D03*
X053848Y021640D03*
X054348Y021640D03*
X054848Y021640D03*
X055348Y021640D03*
X055848Y021640D03*
X056348Y021640D03*
X056848Y021640D03*
X058098Y022160D03*
X058598Y022160D03*
X059098Y022160D03*
X059598Y022160D03*
X060098Y022160D03*
X060598Y022160D03*
X061098Y022160D03*
X061598Y022160D03*
X061598Y024580D03*
X061098Y024580D03*
X060598Y024580D03*
X060098Y024580D03*
X059598Y024580D03*
X059098Y024580D03*
X058598Y024580D03*
X058098Y024580D03*
X056848Y025600D03*
X056348Y025600D03*
X055848Y025600D03*
X055348Y025600D03*
X054848Y025600D03*
X054348Y025600D03*
X053848Y025600D03*
X053348Y025600D03*
X052848Y025600D03*
X052348Y025600D03*
X052348Y032410D03*
X052848Y032410D03*
X053348Y032410D03*
X054598Y032410D03*
X055098Y032410D03*
X055598Y032410D03*
X056098Y032410D03*
X056598Y032410D03*
X057098Y032410D03*
X057598Y032410D03*
X058098Y032410D03*
X059098Y032410D03*
X059598Y032410D03*
X060098Y032410D03*
X060598Y032410D03*
X061098Y032410D03*
X061598Y032410D03*
X062098Y032410D03*
X062598Y032410D03*
X062598Y034830D03*
X062098Y034830D03*
X061598Y034830D03*
X061098Y034830D03*
X060598Y034830D03*
X060098Y034830D03*
X059598Y034830D03*
X059098Y034830D03*
X058098Y034830D03*
X057598Y034830D03*
X057098Y034830D03*
X056598Y034830D03*
X056098Y034830D03*
X055598Y034830D03*
X055098Y034830D03*
X054598Y034830D03*
X053348Y034830D03*
X052848Y034830D03*
X052348Y034830D03*
X051848Y034830D03*
X051348Y034830D03*
X050848Y034830D03*
X050348Y034830D03*
X049848Y034830D03*
X049848Y032410D03*
X050348Y032410D03*
X050848Y032410D03*
X051348Y032410D03*
X051848Y032410D03*
X054598Y037660D03*
X055098Y037660D03*
X055598Y037660D03*
X056098Y037660D03*
X056598Y037660D03*
X057098Y037660D03*
X057598Y037660D03*
X058098Y037660D03*
X059348Y037660D03*
X059848Y037660D03*
X060348Y037660D03*
X060848Y037660D03*
X061348Y037660D03*
X061848Y037660D03*
X062348Y037660D03*
X062848Y037660D03*
X062848Y040080D03*
X062348Y040080D03*
X061848Y040080D03*
X061348Y040080D03*
X060848Y040080D03*
X060348Y040080D03*
X059848Y040080D03*
X059348Y040080D03*
X058098Y040080D03*
X057598Y040080D03*
X057098Y040080D03*
X056598Y040080D03*
X056098Y040080D03*
X055598Y040080D03*
X055098Y040080D03*
X054598Y040080D03*
D12*
X004848Y046810D02*
X004848Y007430D01*
X067948Y007430D01*
X067948Y046810D01*
X004848Y046810D01*
X005698Y044370D02*
X005700Y044420D01*
X005706Y044470D01*
X005716Y044520D01*
X005729Y044568D01*
X005746Y044616D01*
X005767Y044662D01*
X005791Y044706D01*
X005819Y044748D01*
X005850Y044788D01*
X005884Y044825D01*
X005921Y044860D01*
X005960Y044891D01*
X006001Y044920D01*
X006045Y044945D01*
X006091Y044967D01*
X006138Y044985D01*
X006186Y044999D01*
X006235Y045010D01*
X006285Y045017D01*
X006335Y045020D01*
X006386Y045019D01*
X006436Y045014D01*
X006486Y045005D01*
X006534Y044993D01*
X006582Y044976D01*
X006628Y044956D01*
X006673Y044933D01*
X006716Y044906D01*
X006756Y044876D01*
X006794Y044843D01*
X006829Y044807D01*
X006862Y044768D01*
X006891Y044727D01*
X006917Y044684D01*
X006940Y044639D01*
X006959Y044592D01*
X006974Y044544D01*
X006986Y044495D01*
X006994Y044445D01*
X006998Y044395D01*
X006998Y044345D01*
X006994Y044295D01*
X006986Y044245D01*
X006974Y044196D01*
X006959Y044148D01*
X006940Y044101D01*
X006917Y044056D01*
X006891Y044013D01*
X006862Y043972D01*
X006829Y043933D01*
X006794Y043897D01*
X006756Y043864D01*
X006716Y043834D01*
X006673Y043807D01*
X006628Y043784D01*
X006582Y043764D01*
X006534Y043747D01*
X006486Y043735D01*
X006436Y043726D01*
X006386Y043721D01*
X006335Y043720D01*
X006285Y043723D01*
X006235Y043730D01*
X006186Y043741D01*
X006138Y043755D01*
X006091Y043773D01*
X006045Y043795D01*
X006001Y043820D01*
X005960Y043849D01*
X005921Y043880D01*
X005884Y043915D01*
X005850Y043952D01*
X005819Y043992D01*
X005791Y044034D01*
X005767Y044078D01*
X005746Y044124D01*
X005729Y044172D01*
X005716Y044220D01*
X005706Y044270D01*
X005700Y044320D01*
X005698Y044370D01*
X005698Y010120D02*
X005700Y010170D01*
X005706Y010220D01*
X005716Y010270D01*
X005729Y010318D01*
X005746Y010366D01*
X005767Y010412D01*
X005791Y010456D01*
X005819Y010498D01*
X005850Y010538D01*
X005884Y010575D01*
X005921Y010610D01*
X005960Y010641D01*
X006001Y010670D01*
X006045Y010695D01*
X006091Y010717D01*
X006138Y010735D01*
X006186Y010749D01*
X006235Y010760D01*
X006285Y010767D01*
X006335Y010770D01*
X006386Y010769D01*
X006436Y010764D01*
X006486Y010755D01*
X006534Y010743D01*
X006582Y010726D01*
X006628Y010706D01*
X006673Y010683D01*
X006716Y010656D01*
X006756Y010626D01*
X006794Y010593D01*
X006829Y010557D01*
X006862Y010518D01*
X006891Y010477D01*
X006917Y010434D01*
X006940Y010389D01*
X006959Y010342D01*
X006974Y010294D01*
X006986Y010245D01*
X006994Y010195D01*
X006998Y010145D01*
X006998Y010095D01*
X006994Y010045D01*
X006986Y009995D01*
X006974Y009946D01*
X006959Y009898D01*
X006940Y009851D01*
X006917Y009806D01*
X006891Y009763D01*
X006862Y009722D01*
X006829Y009683D01*
X006794Y009647D01*
X006756Y009614D01*
X006716Y009584D01*
X006673Y009557D01*
X006628Y009534D01*
X006582Y009514D01*
X006534Y009497D01*
X006486Y009485D01*
X006436Y009476D01*
X006386Y009471D01*
X006335Y009470D01*
X006285Y009473D01*
X006235Y009480D01*
X006186Y009491D01*
X006138Y009505D01*
X006091Y009523D01*
X006045Y009545D01*
X006001Y009570D01*
X005960Y009599D01*
X005921Y009630D01*
X005884Y009665D01*
X005850Y009702D01*
X005819Y009742D01*
X005791Y009784D01*
X005767Y009828D01*
X005746Y009874D01*
X005729Y009922D01*
X005716Y009970D01*
X005706Y010020D01*
X005700Y010070D01*
X005698Y010120D01*
X061948Y010120D02*
X061950Y010170D01*
X061956Y010220D01*
X061966Y010270D01*
X061979Y010318D01*
X061996Y010366D01*
X062017Y010412D01*
X062041Y010456D01*
X062069Y010498D01*
X062100Y010538D01*
X062134Y010575D01*
X062171Y010610D01*
X062210Y010641D01*
X062251Y010670D01*
X062295Y010695D01*
X062341Y010717D01*
X062388Y010735D01*
X062436Y010749D01*
X062485Y010760D01*
X062535Y010767D01*
X062585Y010770D01*
X062636Y010769D01*
X062686Y010764D01*
X062736Y010755D01*
X062784Y010743D01*
X062832Y010726D01*
X062878Y010706D01*
X062923Y010683D01*
X062966Y010656D01*
X063006Y010626D01*
X063044Y010593D01*
X063079Y010557D01*
X063112Y010518D01*
X063141Y010477D01*
X063167Y010434D01*
X063190Y010389D01*
X063209Y010342D01*
X063224Y010294D01*
X063236Y010245D01*
X063244Y010195D01*
X063248Y010145D01*
X063248Y010095D01*
X063244Y010045D01*
X063236Y009995D01*
X063224Y009946D01*
X063209Y009898D01*
X063190Y009851D01*
X063167Y009806D01*
X063141Y009763D01*
X063112Y009722D01*
X063079Y009683D01*
X063044Y009647D01*
X063006Y009614D01*
X062966Y009584D01*
X062923Y009557D01*
X062878Y009534D01*
X062832Y009514D01*
X062784Y009497D01*
X062736Y009485D01*
X062686Y009476D01*
X062636Y009471D01*
X062585Y009470D01*
X062535Y009473D01*
X062485Y009480D01*
X062436Y009491D01*
X062388Y009505D01*
X062341Y009523D01*
X062295Y009545D01*
X062251Y009570D01*
X062210Y009599D01*
X062171Y009630D01*
X062134Y009665D01*
X062100Y009702D01*
X062069Y009742D01*
X062041Y009784D01*
X062017Y009828D01*
X061996Y009874D01*
X061979Y009922D01*
X061966Y009970D01*
X061956Y010020D01*
X061950Y010070D01*
X061948Y010120D01*
X066298Y009620D02*
X066300Y009667D01*
X066306Y009713D01*
X066316Y009759D01*
X066329Y009803D01*
X066347Y009847D01*
X066368Y009888D01*
X066392Y009928D01*
X066420Y009966D01*
X066451Y010001D01*
X066485Y010033D01*
X066521Y010062D01*
X066560Y010088D01*
X066600Y010111D01*
X066643Y010130D01*
X066687Y010146D01*
X066732Y010158D01*
X066778Y010166D01*
X066825Y010170D01*
X066871Y010170D01*
X066918Y010166D01*
X066964Y010158D01*
X067009Y010146D01*
X067053Y010130D01*
X067096Y010111D01*
X067136Y010088D01*
X067175Y010062D01*
X067211Y010033D01*
X067245Y010001D01*
X067276Y009966D01*
X067304Y009928D01*
X067328Y009888D01*
X067349Y009847D01*
X067367Y009803D01*
X067380Y009759D01*
X067390Y009713D01*
X067396Y009667D01*
X067398Y009620D01*
X067396Y009573D01*
X067390Y009527D01*
X067380Y009481D01*
X067367Y009437D01*
X067349Y009393D01*
X067328Y009352D01*
X067304Y009312D01*
X067276Y009274D01*
X067245Y009239D01*
X067211Y009207D01*
X067175Y009178D01*
X067136Y009152D01*
X067096Y009129D01*
X067053Y009110D01*
X067009Y009094D01*
X066964Y009082D01*
X066918Y009074D01*
X066871Y009070D01*
X066825Y009070D01*
X066778Y009074D01*
X066732Y009082D01*
X066687Y009094D01*
X066643Y009110D01*
X066600Y009129D01*
X066560Y009152D01*
X066521Y009178D01*
X066485Y009207D01*
X066451Y009239D01*
X066420Y009274D01*
X066392Y009312D01*
X066368Y009352D01*
X066347Y009393D01*
X066329Y009437D01*
X066316Y009481D01*
X066306Y009527D01*
X066300Y009573D01*
X066298Y009620D01*
X061948Y044370D02*
X061950Y044420D01*
X061956Y044470D01*
X061966Y044520D01*
X061979Y044568D01*
X061996Y044616D01*
X062017Y044662D01*
X062041Y044706D01*
X062069Y044748D01*
X062100Y044788D01*
X062134Y044825D01*
X062171Y044860D01*
X062210Y044891D01*
X062251Y044920D01*
X062295Y044945D01*
X062341Y044967D01*
X062388Y044985D01*
X062436Y044999D01*
X062485Y045010D01*
X062535Y045017D01*
X062585Y045020D01*
X062636Y045019D01*
X062686Y045014D01*
X062736Y045005D01*
X062784Y044993D01*
X062832Y044976D01*
X062878Y044956D01*
X062923Y044933D01*
X062966Y044906D01*
X063006Y044876D01*
X063044Y044843D01*
X063079Y044807D01*
X063112Y044768D01*
X063141Y044727D01*
X063167Y044684D01*
X063190Y044639D01*
X063209Y044592D01*
X063224Y044544D01*
X063236Y044495D01*
X063244Y044445D01*
X063248Y044395D01*
X063248Y044345D01*
X063244Y044295D01*
X063236Y044245D01*
X063224Y044196D01*
X063209Y044148D01*
X063190Y044101D01*
X063167Y044056D01*
X063141Y044013D01*
X063112Y043972D01*
X063079Y043933D01*
X063044Y043897D01*
X063006Y043864D01*
X062966Y043834D01*
X062923Y043807D01*
X062878Y043784D01*
X062832Y043764D01*
X062784Y043747D01*
X062736Y043735D01*
X062686Y043726D01*
X062636Y043721D01*
X062585Y043720D01*
X062535Y043723D01*
X062485Y043730D01*
X062436Y043741D01*
X062388Y043755D01*
X062341Y043773D01*
X062295Y043795D01*
X062251Y043820D01*
X062210Y043849D01*
X062171Y043880D01*
X062134Y043915D01*
X062100Y043952D01*
X062069Y043992D01*
X062041Y044034D01*
X062017Y044078D01*
X061996Y044124D01*
X061979Y044172D01*
X061966Y044220D01*
X061956Y044270D01*
X061950Y044320D01*
X061948Y044370D01*
X066298Y044620D02*
X066300Y044667D01*
X066306Y044713D01*
X066316Y044759D01*
X066329Y044803D01*
X066347Y044847D01*
X066368Y044888D01*
X066392Y044928D01*
X066420Y044966D01*
X066451Y045001D01*
X066485Y045033D01*
X066521Y045062D01*
X066560Y045088D01*
X066600Y045111D01*
X066643Y045130D01*
X066687Y045146D01*
X066732Y045158D01*
X066778Y045166D01*
X066825Y045170D01*
X066871Y045170D01*
X066918Y045166D01*
X066964Y045158D01*
X067009Y045146D01*
X067053Y045130D01*
X067096Y045111D01*
X067136Y045088D01*
X067175Y045062D01*
X067211Y045033D01*
X067245Y045001D01*
X067276Y044966D01*
X067304Y044928D01*
X067328Y044888D01*
X067349Y044847D01*
X067367Y044803D01*
X067380Y044759D01*
X067390Y044713D01*
X067396Y044667D01*
X067398Y044620D01*
X067396Y044573D01*
X067390Y044527D01*
X067380Y044481D01*
X067367Y044437D01*
X067349Y044393D01*
X067328Y044352D01*
X067304Y044312D01*
X067276Y044274D01*
X067245Y044239D01*
X067211Y044207D01*
X067175Y044178D01*
X067136Y044152D01*
X067096Y044129D01*
X067053Y044110D01*
X067009Y044094D01*
X066964Y044082D01*
X066918Y044074D01*
X066871Y044070D01*
X066825Y044070D01*
X066778Y044074D01*
X066732Y044082D01*
X066687Y044094D01*
X066643Y044110D01*
X066600Y044129D01*
X066560Y044152D01*
X066521Y044178D01*
X066485Y044207D01*
X066451Y044239D01*
X066420Y044274D01*
X066392Y044312D01*
X066368Y044352D01*
X066347Y044393D01*
X066329Y044437D01*
X066316Y044481D01*
X066306Y044527D01*
X066300Y044573D01*
X066298Y044620D01*
D13*
X049222Y018881D03*
X048474Y018881D03*
X048474Y017862D03*
X048848Y017862D03*
X049222Y017862D03*
D14*
X047360Y017996D03*
X047360Y018370D03*
X047360Y018744D03*
X046340Y018744D03*
X046340Y018370D03*
X046340Y017996D03*
X041360Y019746D03*
X041360Y020494D03*
X041360Y021246D03*
X041360Y021994D03*
X041360Y022746D03*
X041360Y023494D03*
X040340Y023494D03*
X040340Y023120D03*
X040340Y022746D03*
X040340Y021994D03*
X040340Y021620D03*
X040340Y021246D03*
X040340Y020494D03*
X040340Y020120D03*
X040340Y019746D03*
D15*
X040204Y018870D03*
X040992Y018870D03*
X043004Y018870D03*
X043792Y018870D03*
X042342Y016120D03*
X041554Y016120D03*
X045804Y015620D03*
X046592Y015620D03*
X045492Y023370D03*
X044704Y023370D03*
X049754Y023870D03*
X050542Y023870D03*
X040992Y033970D03*
X040204Y033970D03*
X045954Y034470D03*
X046742Y034470D03*
X048204Y034870D03*
X048992Y034870D03*
X012242Y009370D03*
X011454Y009370D03*
X011242Y025870D03*
X010454Y025870D03*
D16*
X024848Y009913D03*
X024848Y009126D03*
X030848Y010226D03*
X030848Y011013D03*
X037098Y009863D03*
X037098Y009076D03*
X038848Y008976D03*
X038848Y009763D03*
X051598Y024826D03*
X051598Y025613D03*
X061948Y018763D03*
X061948Y017976D03*
X053848Y038476D03*
X053848Y039263D03*
D17*
X044183Y009620D03*
X043513Y009620D03*
D18*
X042761Y009620D03*
X041934Y009620D03*
D19*
X045598Y009620D03*
X046598Y009620D03*
M02*
