G75*
G70*
%OFA0B0*%
%FSLAX24Y24*%
%IPPOS*%
%LPD*%
%AMOC8*
5,1,8,0,0,1.08239X$1,22.5*
%
%ADD10R,0.0840X0.0300*%
%ADD11R,0.0552X0.0670*%
%ADD12R,0.0430X0.0312*%
%ADD13R,0.0591X0.0276*%
%ADD14C,0.0634*%
%ADD15C,0.0000*%
%ADD16C,0.0670*%
%ADD17OC8,0.0670*%
%ADD18C,0.1140*%
%ADD19R,0.0670X0.0552*%
%ADD20C,0.1340*%
%ADD21R,0.0631X0.0552*%
D10*
X011868Y014870D03*
X011868Y015370D03*
X011868Y015870D03*
X011868Y016370D03*
X011868Y016870D03*
X011868Y017370D03*
X011868Y017870D03*
X011868Y018370D03*
X011868Y018870D03*
X011868Y019370D03*
X011868Y021370D03*
X011868Y021870D03*
X011868Y022370D03*
X011868Y022870D03*
X011868Y023370D03*
X011868Y023870D03*
X011868Y024370D03*
X011868Y024870D03*
X011868Y025370D03*
X011868Y025870D03*
X011868Y027870D03*
X011868Y028370D03*
X011868Y028870D03*
X011868Y029370D03*
X011868Y029870D03*
X011868Y030370D03*
X011868Y030870D03*
X011868Y031370D03*
X011868Y031870D03*
X011868Y032370D03*
X011868Y034370D03*
X011868Y034870D03*
X011868Y035370D03*
X011868Y035870D03*
X011868Y036370D03*
X011868Y036870D03*
X011868Y037370D03*
X011868Y037870D03*
X011868Y038370D03*
X011868Y038870D03*
X015828Y038870D03*
X015828Y038370D03*
X015828Y037870D03*
X015828Y037370D03*
X015828Y036870D03*
X015828Y036370D03*
X015828Y035870D03*
X015828Y035370D03*
X015828Y034870D03*
X015828Y034370D03*
X015828Y032370D03*
X015828Y031870D03*
X015828Y031370D03*
X015828Y030870D03*
X015828Y030370D03*
X015828Y029870D03*
X015828Y029370D03*
X015828Y028870D03*
X015828Y028370D03*
X015828Y027870D03*
X015828Y025870D03*
X015828Y025370D03*
X015828Y024870D03*
X015828Y024370D03*
X015828Y023870D03*
X015828Y023370D03*
X015828Y022870D03*
X015828Y022370D03*
X015828Y021870D03*
X015828Y021370D03*
X015828Y019370D03*
X015828Y018870D03*
X015828Y018370D03*
X015828Y017870D03*
X015828Y017370D03*
X015828Y016870D03*
X015828Y016370D03*
X015828Y015870D03*
X015828Y015370D03*
X015828Y014870D03*
X024618Y014870D03*
X024618Y015370D03*
X024618Y015870D03*
X024618Y016370D03*
X024618Y016870D03*
X024618Y017370D03*
X024618Y017870D03*
X024618Y018370D03*
X024618Y018870D03*
X024618Y019370D03*
X024618Y021370D03*
X024618Y021870D03*
X024618Y022370D03*
X024618Y022870D03*
X024618Y023370D03*
X024618Y023870D03*
X024618Y024370D03*
X024618Y024870D03*
X024618Y025370D03*
X024618Y025870D03*
X024618Y027870D03*
X024618Y028370D03*
X024618Y028870D03*
X024618Y029370D03*
X024618Y029870D03*
X024618Y030370D03*
X024618Y030870D03*
X024618Y031370D03*
X024618Y031870D03*
X024618Y032370D03*
X024618Y034370D03*
X024618Y034870D03*
X024618Y035370D03*
X024618Y035870D03*
X024618Y036370D03*
X024618Y036870D03*
X024618Y037370D03*
X024618Y037870D03*
X024618Y038370D03*
X024618Y038870D03*
X028578Y038870D03*
X028578Y038370D03*
X028578Y037870D03*
X028578Y037370D03*
X028578Y036870D03*
X028578Y036370D03*
X028578Y035870D03*
X028578Y035370D03*
X028578Y034870D03*
X028578Y034370D03*
X028578Y032370D03*
X028578Y031870D03*
X028578Y031370D03*
X028578Y030870D03*
X028578Y030370D03*
X028578Y029870D03*
X028578Y029370D03*
X028578Y028870D03*
X028578Y028370D03*
X028578Y027870D03*
X028578Y025870D03*
X028578Y025370D03*
X028578Y024870D03*
X028578Y024370D03*
X028578Y023870D03*
X028578Y023370D03*
X028578Y022870D03*
X028578Y022370D03*
X028578Y021870D03*
X028578Y021370D03*
X028578Y019370D03*
X028578Y018870D03*
X028578Y018370D03*
X028578Y017870D03*
X028578Y017370D03*
X028578Y016870D03*
X028578Y016370D03*
X028578Y015870D03*
X028578Y015370D03*
X028578Y014870D03*
X037368Y014870D03*
X037368Y015370D03*
X037368Y015870D03*
X037368Y016370D03*
X037368Y016870D03*
X037368Y017370D03*
X037368Y017870D03*
X037368Y018370D03*
X037368Y018870D03*
X037368Y019370D03*
X037368Y021370D03*
X037368Y021870D03*
X037368Y022370D03*
X037368Y022870D03*
X037368Y023370D03*
X037368Y023870D03*
X037368Y024370D03*
X037368Y024870D03*
X037368Y025370D03*
X037368Y025870D03*
X037368Y027870D03*
X037368Y028370D03*
X037368Y028870D03*
X037368Y029370D03*
X037368Y029870D03*
X037368Y030370D03*
X037368Y030870D03*
X037368Y031370D03*
X037368Y031870D03*
X037368Y032370D03*
X037368Y034370D03*
X037368Y034870D03*
X037368Y035370D03*
X037368Y035870D03*
X037368Y036370D03*
X037368Y036870D03*
X037368Y037370D03*
X037368Y037870D03*
X037368Y038370D03*
X037368Y038870D03*
X041328Y038870D03*
X041328Y038370D03*
X041328Y037870D03*
X041328Y037370D03*
X041328Y036870D03*
X041328Y036370D03*
X041328Y035870D03*
X041328Y035370D03*
X041328Y034870D03*
X041328Y034370D03*
X041328Y032370D03*
X041328Y031870D03*
X041328Y031370D03*
X041328Y030870D03*
X041328Y030370D03*
X041328Y029870D03*
X041328Y029370D03*
X041328Y028870D03*
X041328Y028370D03*
X041328Y027870D03*
X043868Y027870D03*
X043868Y028370D03*
X043868Y028870D03*
X043868Y029370D03*
X043868Y029870D03*
X043868Y030370D03*
X043868Y030870D03*
X043868Y031370D03*
X043868Y031870D03*
X043868Y032370D03*
X047828Y032370D03*
X047828Y031870D03*
X047828Y031370D03*
X047828Y030870D03*
X047828Y030370D03*
X047828Y029870D03*
X047828Y029370D03*
X047828Y028870D03*
X047828Y028370D03*
X047828Y027870D03*
X052368Y027870D03*
X052368Y028370D03*
X052368Y028870D03*
X052368Y029370D03*
X052368Y029870D03*
X052368Y030370D03*
X052368Y027370D03*
X052368Y026870D03*
X052368Y026370D03*
X052368Y025870D03*
X052368Y023620D03*
X052368Y023120D03*
X052368Y022620D03*
X052368Y022120D03*
X052368Y021620D03*
X052368Y021120D03*
X052368Y020620D03*
X052368Y020120D03*
X052368Y019620D03*
X052368Y019120D03*
X056328Y019120D03*
X056328Y019620D03*
X056328Y020120D03*
X056328Y020620D03*
X056328Y021120D03*
X056328Y021620D03*
X056328Y022120D03*
X056328Y022620D03*
X056328Y023120D03*
X056328Y023620D03*
X057868Y023620D03*
X057868Y023120D03*
X057868Y022620D03*
X057868Y022120D03*
X057868Y021620D03*
X057868Y021120D03*
X057868Y020620D03*
X057868Y020120D03*
X057868Y019620D03*
X057868Y019120D03*
X058638Y016370D03*
X058638Y015870D03*
X058638Y015370D03*
X058638Y014870D03*
X058638Y014370D03*
X058638Y013870D03*
X058638Y013370D03*
X058638Y012870D03*
X061058Y012870D03*
X061058Y013370D03*
X061058Y013870D03*
X061058Y014370D03*
X061058Y014870D03*
X061058Y015370D03*
X061058Y015870D03*
X061058Y016370D03*
X061828Y019120D03*
X061828Y019620D03*
X061828Y020120D03*
X061828Y020620D03*
X061828Y021120D03*
X061828Y021620D03*
X061828Y022120D03*
X061828Y022620D03*
X061828Y023120D03*
X061828Y023620D03*
X056328Y025870D03*
X056328Y026370D03*
X056328Y026870D03*
X056328Y027370D03*
X056328Y027870D03*
X056328Y028370D03*
X056328Y028870D03*
X056328Y029370D03*
X056328Y029870D03*
X056328Y030370D03*
X057868Y033120D03*
X057868Y033620D03*
X057868Y034120D03*
X057868Y034620D03*
X057868Y035120D03*
X057868Y035620D03*
X057868Y036120D03*
X057868Y036620D03*
X057868Y037120D03*
X057868Y037620D03*
X056078Y037870D03*
X056078Y038370D03*
X056078Y037370D03*
X056078Y036870D03*
X056078Y036370D03*
X056078Y035870D03*
X056078Y035370D03*
X056078Y034870D03*
X056078Y034370D03*
X056078Y033870D03*
X052118Y033870D03*
X052118Y034370D03*
X052118Y034870D03*
X052118Y035370D03*
X052118Y035870D03*
X052118Y036370D03*
X052118Y036870D03*
X052118Y037370D03*
X052118Y037870D03*
X052118Y038370D03*
X061828Y037620D03*
X061828Y037120D03*
X061828Y036620D03*
X061828Y036120D03*
X061828Y035620D03*
X061828Y035120D03*
X061828Y034620D03*
X061828Y034120D03*
X061828Y033620D03*
X061828Y033120D03*
X047828Y019370D03*
X047828Y018870D03*
X047828Y018370D03*
X047828Y017870D03*
X047828Y017370D03*
X047828Y016870D03*
X047828Y016370D03*
X047828Y015870D03*
X047828Y015370D03*
X047828Y014870D03*
X043868Y014870D03*
X043868Y015370D03*
X043868Y015870D03*
X043868Y016370D03*
X043868Y016870D03*
X043868Y017370D03*
X043868Y017870D03*
X043868Y018370D03*
X043868Y018870D03*
X043868Y019370D03*
X041328Y019370D03*
X041328Y018870D03*
X041328Y018370D03*
X041328Y017870D03*
X041328Y017370D03*
X041328Y016870D03*
X041328Y016370D03*
X041328Y015870D03*
X041328Y015370D03*
X041328Y014870D03*
X041328Y021370D03*
X041328Y021870D03*
X041328Y022370D03*
X041328Y022870D03*
X041328Y023370D03*
X041328Y023870D03*
X041328Y024370D03*
X041328Y024870D03*
X041328Y025370D03*
X041328Y025870D03*
D11*
X042304Y026370D03*
X043092Y026370D03*
X047204Y026120D03*
X047992Y026120D03*
X047492Y020120D03*
X046704Y020120D03*
X041742Y020120D03*
X040954Y020120D03*
X034742Y019120D03*
X033954Y019120D03*
X028992Y020120D03*
X028204Y020120D03*
X021992Y019120D03*
X021204Y019120D03*
X016492Y020120D03*
X015704Y020120D03*
X009742Y019120D03*
X008954Y019120D03*
X007242Y020120D03*
X006454Y020120D03*
X008654Y026620D03*
X009442Y026620D03*
X015704Y026620D03*
X016492Y026620D03*
X022404Y026620D03*
X023192Y026620D03*
X028204Y026620D03*
X028992Y026620D03*
X034704Y026620D03*
X035492Y026620D03*
X034992Y032120D03*
X034204Y032120D03*
X032492Y032370D03*
X031704Y032370D03*
X028992Y033120D03*
X028204Y033120D03*
X022242Y032120D03*
X021454Y032120D03*
X015492Y033120D03*
X014704Y033120D03*
X009992Y032120D03*
X009204Y032120D03*
X007242Y033120D03*
X006454Y033120D03*
X009204Y039620D03*
X009992Y039620D03*
X015204Y039620D03*
X015992Y039620D03*
X022454Y039620D03*
X023242Y039620D03*
X029454Y039620D03*
X030242Y039620D03*
X034704Y039620D03*
X035492Y039620D03*
X040954Y039620D03*
X041742Y039620D03*
X041454Y033120D03*
X042242Y033120D03*
X047454Y033120D03*
X048242Y033120D03*
X055954Y031120D03*
X056742Y031120D03*
X060204Y028870D03*
X060992Y028870D03*
X060992Y026370D03*
X060204Y026370D03*
X060954Y024370D03*
X061742Y024370D03*
X056742Y024370D03*
X055954Y024370D03*
X060454Y017120D03*
X061242Y017120D03*
X059992Y009620D03*
X059204Y009620D03*
X031992Y013870D03*
X031204Y013870D03*
X060954Y038370D03*
X061742Y038370D03*
X056492Y039120D03*
X055704Y039120D03*
D12*
X060086Y030494D03*
X060086Y029746D03*
X061106Y029746D03*
X061106Y030120D03*
X061106Y030494D03*
X060106Y011244D03*
X060106Y010870D03*
X060106Y010496D03*
X059086Y010496D03*
X059086Y011244D03*
D13*
X034917Y014870D03*
X034917Y015370D03*
X034917Y015870D03*
X034917Y016370D03*
X034917Y016870D03*
X034917Y017370D03*
X034917Y017870D03*
X034917Y018370D03*
X032779Y018370D03*
X032779Y017870D03*
X032779Y017370D03*
X032779Y016870D03*
X032779Y016370D03*
X032779Y015870D03*
X032779Y015370D03*
X032779Y014870D03*
X032779Y022370D03*
X032779Y022870D03*
X032779Y023370D03*
X032779Y023870D03*
X032779Y024370D03*
X032779Y024870D03*
X032779Y025370D03*
X032779Y025870D03*
X034917Y025870D03*
X034917Y025370D03*
X034917Y024870D03*
X034917Y024370D03*
X034917Y023870D03*
X034917Y023370D03*
X034917Y022870D03*
X034917Y022370D03*
X034917Y027870D03*
X034917Y028370D03*
X034917Y028870D03*
X034917Y029370D03*
X034917Y029870D03*
X034917Y030370D03*
X034917Y030870D03*
X034917Y031370D03*
X032779Y031370D03*
X032779Y030870D03*
X032779Y030370D03*
X032779Y029870D03*
X032779Y029370D03*
X032779Y028870D03*
X032779Y028370D03*
X032779Y027870D03*
X032779Y035370D03*
X032779Y035870D03*
X032779Y036370D03*
X032779Y036870D03*
X032779Y037370D03*
X032779Y037870D03*
X032779Y038370D03*
X032779Y038870D03*
X034917Y038870D03*
X034917Y038370D03*
X034917Y037870D03*
X034917Y037370D03*
X034917Y036870D03*
X034917Y036370D03*
X034917Y035870D03*
X034917Y035370D03*
X022167Y035370D03*
X022167Y035870D03*
X022167Y036370D03*
X022167Y036870D03*
X022167Y037370D03*
X022167Y037870D03*
X022167Y038370D03*
X022167Y038870D03*
X020029Y038870D03*
X020029Y038370D03*
X020029Y037870D03*
X020029Y037370D03*
X020029Y036870D03*
X020029Y036370D03*
X020029Y035870D03*
X020029Y035370D03*
X020029Y031370D03*
X020029Y030870D03*
X020029Y030370D03*
X020029Y029870D03*
X020029Y029370D03*
X020029Y028870D03*
X020029Y028370D03*
X020029Y027870D03*
X022167Y027870D03*
X022167Y028370D03*
X022167Y028870D03*
X022167Y029370D03*
X022167Y029870D03*
X022167Y030370D03*
X022167Y030870D03*
X022167Y031370D03*
X022167Y025870D03*
X022167Y025370D03*
X022167Y024870D03*
X022167Y024370D03*
X022167Y023870D03*
X022167Y023370D03*
X022167Y022870D03*
X022167Y022370D03*
X020029Y022370D03*
X020029Y022870D03*
X020029Y023370D03*
X020029Y023870D03*
X020029Y024370D03*
X020029Y024870D03*
X020029Y025370D03*
X020029Y025870D03*
X020029Y018370D03*
X020029Y017870D03*
X020029Y017370D03*
X020029Y016870D03*
X020029Y016370D03*
X020029Y015870D03*
X020029Y015370D03*
X020029Y014870D03*
X022167Y014870D03*
X022167Y015370D03*
X022167Y015870D03*
X022167Y016370D03*
X022167Y016870D03*
X022167Y017370D03*
X022167Y017870D03*
X022167Y018370D03*
X009417Y018370D03*
X009417Y017870D03*
X009417Y017370D03*
X009417Y016870D03*
X009417Y016370D03*
X009417Y015870D03*
X009417Y015370D03*
X009417Y014870D03*
X007279Y014870D03*
X007279Y015370D03*
X007279Y015870D03*
X007279Y016370D03*
X007279Y016870D03*
X007279Y017370D03*
X007279Y017870D03*
X007279Y018370D03*
X007279Y022370D03*
X007279Y022870D03*
X007279Y023370D03*
X007279Y023870D03*
X007279Y024370D03*
X007279Y024870D03*
X007279Y025370D03*
X007279Y025870D03*
X009417Y025870D03*
X009417Y025370D03*
X009417Y024870D03*
X009417Y024370D03*
X009417Y023870D03*
X009417Y023370D03*
X009417Y022870D03*
X009417Y022370D03*
X009417Y027870D03*
X009417Y028370D03*
X009417Y028870D03*
X009417Y029370D03*
X009417Y029870D03*
X009417Y030370D03*
X009417Y030870D03*
X009417Y031370D03*
X007279Y031370D03*
X007279Y030870D03*
X007279Y030370D03*
X007279Y029870D03*
X007279Y029370D03*
X007279Y028870D03*
X007279Y028370D03*
X007279Y027870D03*
X007279Y035370D03*
X007279Y035870D03*
X007279Y036370D03*
X007279Y036870D03*
X007279Y037370D03*
X007279Y037870D03*
X007279Y038370D03*
X007279Y038870D03*
X009417Y038870D03*
X009417Y038370D03*
X009417Y037870D03*
X009417Y037370D03*
X009417Y036870D03*
X009417Y036370D03*
X009417Y035870D03*
X009417Y035370D03*
D14*
X009848Y040620D03*
X009848Y041620D03*
X010848Y041620D03*
X011848Y041620D03*
X012848Y041620D03*
X013848Y041620D03*
X014848Y041620D03*
X015848Y041620D03*
X016848Y041620D03*
X017848Y041620D03*
X018848Y041620D03*
X019848Y041620D03*
X020848Y041620D03*
X021848Y041620D03*
X022848Y041620D03*
X023848Y041620D03*
X024848Y041620D03*
X025848Y041620D03*
X026848Y041620D03*
X027848Y041620D03*
X028848Y041620D03*
X028848Y040620D03*
X027848Y040620D03*
X026848Y040620D03*
X025848Y040620D03*
X024848Y040620D03*
X023848Y040620D03*
X022848Y040620D03*
X021848Y040620D03*
X020848Y040620D03*
X019848Y040620D03*
X018848Y040620D03*
X017848Y040620D03*
X016848Y040620D03*
X015848Y040620D03*
X014848Y040620D03*
X013848Y040620D03*
X012848Y040620D03*
X011848Y040620D03*
X010848Y040620D03*
X034848Y040620D03*
X035848Y040620D03*
X036848Y040620D03*
X036848Y041620D03*
X035848Y041620D03*
X034848Y041620D03*
X037848Y041620D03*
X038848Y041620D03*
X039848Y041620D03*
X040848Y041620D03*
X041848Y041620D03*
X042848Y041620D03*
X043848Y041620D03*
X044848Y041620D03*
X045848Y041620D03*
X046848Y041620D03*
X047848Y041620D03*
X048848Y041620D03*
X049848Y041620D03*
X050848Y041620D03*
X051848Y041620D03*
X052848Y041620D03*
X053848Y041620D03*
X053848Y040620D03*
X052848Y040620D03*
X051848Y040620D03*
X050848Y040620D03*
X049848Y040620D03*
X048848Y040620D03*
X047848Y040620D03*
X046848Y040620D03*
X045848Y040620D03*
X044848Y040620D03*
X043848Y040620D03*
X042848Y040620D03*
X041848Y040620D03*
X040848Y040620D03*
X039848Y040620D03*
X038848Y040620D03*
X037848Y040620D03*
X037848Y013620D03*
X038848Y013620D03*
X039848Y013620D03*
X040848Y013620D03*
X041848Y013620D03*
X042848Y013620D03*
X043848Y013620D03*
X044848Y013620D03*
X045848Y013620D03*
X046848Y013620D03*
X047848Y013620D03*
X048848Y013620D03*
X049848Y013620D03*
X050848Y013620D03*
X051848Y013620D03*
X052848Y013620D03*
X053848Y013620D03*
X053848Y012620D03*
X052848Y012620D03*
X051848Y012620D03*
X050848Y012620D03*
X049848Y012620D03*
X048848Y012620D03*
X047848Y012620D03*
X046848Y012620D03*
X045848Y012620D03*
X044848Y012620D03*
X043848Y012620D03*
X042848Y012620D03*
X041848Y012620D03*
X040848Y012620D03*
X039848Y012620D03*
X038848Y012620D03*
X037848Y012620D03*
X036848Y012620D03*
X035848Y012620D03*
X034848Y012620D03*
X034848Y013620D03*
X035848Y013620D03*
X036848Y013620D03*
X028848Y013620D03*
X027848Y013620D03*
X026848Y013620D03*
X025848Y013620D03*
X024848Y013620D03*
X023848Y013620D03*
X022848Y013620D03*
X021848Y013620D03*
X020848Y013620D03*
X019848Y013620D03*
X018848Y013620D03*
X017848Y013620D03*
X016848Y013620D03*
X015848Y013620D03*
X014848Y013620D03*
X013848Y013620D03*
X012848Y013620D03*
X011848Y013620D03*
X010848Y013620D03*
X009848Y013620D03*
X009848Y012620D03*
X010848Y012620D03*
X011848Y012620D03*
X012848Y012620D03*
X013848Y012620D03*
X014848Y012620D03*
X015848Y012620D03*
X016848Y012620D03*
X017848Y012620D03*
X018848Y012620D03*
X019848Y012620D03*
X020848Y012620D03*
X021848Y012620D03*
X022848Y012620D03*
X023848Y012620D03*
X024848Y012620D03*
X025848Y012620D03*
X026848Y012620D03*
X027848Y012620D03*
X028848Y012620D03*
D15*
X004848Y007430D02*
X004848Y046810D01*
X067948Y046810D01*
X067948Y007430D01*
X004848Y007430D01*
X005698Y010120D02*
X005700Y010170D01*
X005706Y010220D01*
X005716Y010270D01*
X005729Y010318D01*
X005746Y010366D01*
X005767Y010412D01*
X005791Y010456D01*
X005819Y010498D01*
X005850Y010538D01*
X005884Y010575D01*
X005921Y010610D01*
X005960Y010641D01*
X006001Y010670D01*
X006045Y010695D01*
X006091Y010717D01*
X006138Y010735D01*
X006186Y010749D01*
X006235Y010760D01*
X006285Y010767D01*
X006335Y010770D01*
X006386Y010769D01*
X006436Y010764D01*
X006486Y010755D01*
X006534Y010743D01*
X006582Y010726D01*
X006628Y010706D01*
X006673Y010683D01*
X006716Y010656D01*
X006756Y010626D01*
X006794Y010593D01*
X006829Y010557D01*
X006862Y010518D01*
X006891Y010477D01*
X006917Y010434D01*
X006940Y010389D01*
X006959Y010342D01*
X006974Y010294D01*
X006986Y010245D01*
X006994Y010195D01*
X006998Y010145D01*
X006998Y010095D01*
X006994Y010045D01*
X006986Y009995D01*
X006974Y009946D01*
X006959Y009898D01*
X006940Y009851D01*
X006917Y009806D01*
X006891Y009763D01*
X006862Y009722D01*
X006829Y009683D01*
X006794Y009647D01*
X006756Y009614D01*
X006716Y009584D01*
X006673Y009557D01*
X006628Y009534D01*
X006582Y009514D01*
X006534Y009497D01*
X006486Y009485D01*
X006436Y009476D01*
X006386Y009471D01*
X006335Y009470D01*
X006285Y009473D01*
X006235Y009480D01*
X006186Y009491D01*
X006138Y009505D01*
X006091Y009523D01*
X006045Y009545D01*
X006001Y009570D01*
X005960Y009599D01*
X005921Y009630D01*
X005884Y009665D01*
X005850Y009702D01*
X005819Y009742D01*
X005791Y009784D01*
X005767Y009828D01*
X005746Y009874D01*
X005729Y009922D01*
X005716Y009970D01*
X005706Y010020D01*
X005700Y010070D01*
X005698Y010120D01*
X005698Y044370D02*
X005700Y044420D01*
X005706Y044470D01*
X005716Y044520D01*
X005729Y044568D01*
X005746Y044616D01*
X005767Y044662D01*
X005791Y044706D01*
X005819Y044748D01*
X005850Y044788D01*
X005884Y044825D01*
X005921Y044860D01*
X005960Y044891D01*
X006001Y044920D01*
X006045Y044945D01*
X006091Y044967D01*
X006138Y044985D01*
X006186Y044999D01*
X006235Y045010D01*
X006285Y045017D01*
X006335Y045020D01*
X006386Y045019D01*
X006436Y045014D01*
X006486Y045005D01*
X006534Y044993D01*
X006582Y044976D01*
X006628Y044956D01*
X006673Y044933D01*
X006716Y044906D01*
X006756Y044876D01*
X006794Y044843D01*
X006829Y044807D01*
X006862Y044768D01*
X006891Y044727D01*
X006917Y044684D01*
X006940Y044639D01*
X006959Y044592D01*
X006974Y044544D01*
X006986Y044495D01*
X006994Y044445D01*
X006998Y044395D01*
X006998Y044345D01*
X006994Y044295D01*
X006986Y044245D01*
X006974Y044196D01*
X006959Y044148D01*
X006940Y044101D01*
X006917Y044056D01*
X006891Y044013D01*
X006862Y043972D01*
X006829Y043933D01*
X006794Y043897D01*
X006756Y043864D01*
X006716Y043834D01*
X006673Y043807D01*
X006628Y043784D01*
X006582Y043764D01*
X006534Y043747D01*
X006486Y043735D01*
X006436Y043726D01*
X006386Y043721D01*
X006335Y043720D01*
X006285Y043723D01*
X006235Y043730D01*
X006186Y043741D01*
X006138Y043755D01*
X006091Y043773D01*
X006045Y043795D01*
X006001Y043820D01*
X005960Y043849D01*
X005921Y043880D01*
X005884Y043915D01*
X005850Y043952D01*
X005819Y043992D01*
X005791Y044034D01*
X005767Y044078D01*
X005746Y044124D01*
X005729Y044172D01*
X005716Y044220D01*
X005706Y044270D01*
X005700Y044320D01*
X005698Y044370D01*
X061948Y044370D02*
X061950Y044420D01*
X061956Y044470D01*
X061966Y044520D01*
X061979Y044568D01*
X061996Y044616D01*
X062017Y044662D01*
X062041Y044706D01*
X062069Y044748D01*
X062100Y044788D01*
X062134Y044825D01*
X062171Y044860D01*
X062210Y044891D01*
X062251Y044920D01*
X062295Y044945D01*
X062341Y044967D01*
X062388Y044985D01*
X062436Y044999D01*
X062485Y045010D01*
X062535Y045017D01*
X062585Y045020D01*
X062636Y045019D01*
X062686Y045014D01*
X062736Y045005D01*
X062784Y044993D01*
X062832Y044976D01*
X062878Y044956D01*
X062923Y044933D01*
X062966Y044906D01*
X063006Y044876D01*
X063044Y044843D01*
X063079Y044807D01*
X063112Y044768D01*
X063141Y044727D01*
X063167Y044684D01*
X063190Y044639D01*
X063209Y044592D01*
X063224Y044544D01*
X063236Y044495D01*
X063244Y044445D01*
X063248Y044395D01*
X063248Y044345D01*
X063244Y044295D01*
X063236Y044245D01*
X063224Y044196D01*
X063209Y044148D01*
X063190Y044101D01*
X063167Y044056D01*
X063141Y044013D01*
X063112Y043972D01*
X063079Y043933D01*
X063044Y043897D01*
X063006Y043864D01*
X062966Y043834D01*
X062923Y043807D01*
X062878Y043784D01*
X062832Y043764D01*
X062784Y043747D01*
X062736Y043735D01*
X062686Y043726D01*
X062636Y043721D01*
X062585Y043720D01*
X062535Y043723D01*
X062485Y043730D01*
X062436Y043741D01*
X062388Y043755D01*
X062341Y043773D01*
X062295Y043795D01*
X062251Y043820D01*
X062210Y043849D01*
X062171Y043880D01*
X062134Y043915D01*
X062100Y043952D01*
X062069Y043992D01*
X062041Y044034D01*
X062017Y044078D01*
X061996Y044124D01*
X061979Y044172D01*
X061966Y044220D01*
X061956Y044270D01*
X061950Y044320D01*
X061948Y044370D01*
X066298Y044620D02*
X066300Y044667D01*
X066306Y044713D01*
X066316Y044759D01*
X066329Y044803D01*
X066347Y044847D01*
X066368Y044888D01*
X066392Y044928D01*
X066420Y044966D01*
X066451Y045001D01*
X066485Y045033D01*
X066521Y045062D01*
X066560Y045088D01*
X066600Y045111D01*
X066643Y045130D01*
X066687Y045146D01*
X066732Y045158D01*
X066778Y045166D01*
X066825Y045170D01*
X066871Y045170D01*
X066918Y045166D01*
X066964Y045158D01*
X067009Y045146D01*
X067053Y045130D01*
X067096Y045111D01*
X067136Y045088D01*
X067175Y045062D01*
X067211Y045033D01*
X067245Y045001D01*
X067276Y044966D01*
X067304Y044928D01*
X067328Y044888D01*
X067349Y044847D01*
X067367Y044803D01*
X067380Y044759D01*
X067390Y044713D01*
X067396Y044667D01*
X067398Y044620D01*
X067396Y044573D01*
X067390Y044527D01*
X067380Y044481D01*
X067367Y044437D01*
X067349Y044393D01*
X067328Y044352D01*
X067304Y044312D01*
X067276Y044274D01*
X067245Y044239D01*
X067211Y044207D01*
X067175Y044178D01*
X067136Y044152D01*
X067096Y044129D01*
X067053Y044110D01*
X067009Y044094D01*
X066964Y044082D01*
X066918Y044074D01*
X066871Y044070D01*
X066825Y044070D01*
X066778Y044074D01*
X066732Y044082D01*
X066687Y044094D01*
X066643Y044110D01*
X066600Y044129D01*
X066560Y044152D01*
X066521Y044178D01*
X066485Y044207D01*
X066451Y044239D01*
X066420Y044274D01*
X066392Y044312D01*
X066368Y044352D01*
X066347Y044393D01*
X066329Y044437D01*
X066316Y044481D01*
X066306Y044527D01*
X066300Y044573D01*
X066298Y044620D01*
X061948Y010120D02*
X061950Y010170D01*
X061956Y010220D01*
X061966Y010270D01*
X061979Y010318D01*
X061996Y010366D01*
X062017Y010412D01*
X062041Y010456D01*
X062069Y010498D01*
X062100Y010538D01*
X062134Y010575D01*
X062171Y010610D01*
X062210Y010641D01*
X062251Y010670D01*
X062295Y010695D01*
X062341Y010717D01*
X062388Y010735D01*
X062436Y010749D01*
X062485Y010760D01*
X062535Y010767D01*
X062585Y010770D01*
X062636Y010769D01*
X062686Y010764D01*
X062736Y010755D01*
X062784Y010743D01*
X062832Y010726D01*
X062878Y010706D01*
X062923Y010683D01*
X062966Y010656D01*
X063006Y010626D01*
X063044Y010593D01*
X063079Y010557D01*
X063112Y010518D01*
X063141Y010477D01*
X063167Y010434D01*
X063190Y010389D01*
X063209Y010342D01*
X063224Y010294D01*
X063236Y010245D01*
X063244Y010195D01*
X063248Y010145D01*
X063248Y010095D01*
X063244Y010045D01*
X063236Y009995D01*
X063224Y009946D01*
X063209Y009898D01*
X063190Y009851D01*
X063167Y009806D01*
X063141Y009763D01*
X063112Y009722D01*
X063079Y009683D01*
X063044Y009647D01*
X063006Y009614D01*
X062966Y009584D01*
X062923Y009557D01*
X062878Y009534D01*
X062832Y009514D01*
X062784Y009497D01*
X062736Y009485D01*
X062686Y009476D01*
X062636Y009471D01*
X062585Y009470D01*
X062535Y009473D01*
X062485Y009480D01*
X062436Y009491D01*
X062388Y009505D01*
X062341Y009523D01*
X062295Y009545D01*
X062251Y009570D01*
X062210Y009599D01*
X062171Y009630D01*
X062134Y009665D01*
X062100Y009702D01*
X062069Y009742D01*
X062041Y009784D01*
X062017Y009828D01*
X061996Y009874D01*
X061979Y009922D01*
X061966Y009970D01*
X061956Y010020D01*
X061950Y010070D01*
X061948Y010120D01*
X066298Y009620D02*
X066300Y009667D01*
X066306Y009713D01*
X066316Y009759D01*
X066329Y009803D01*
X066347Y009847D01*
X066368Y009888D01*
X066392Y009928D01*
X066420Y009966D01*
X066451Y010001D01*
X066485Y010033D01*
X066521Y010062D01*
X066560Y010088D01*
X066600Y010111D01*
X066643Y010130D01*
X066687Y010146D01*
X066732Y010158D01*
X066778Y010166D01*
X066825Y010170D01*
X066871Y010170D01*
X066918Y010166D01*
X066964Y010158D01*
X067009Y010146D01*
X067053Y010130D01*
X067096Y010111D01*
X067136Y010088D01*
X067175Y010062D01*
X067211Y010033D01*
X067245Y010001D01*
X067276Y009966D01*
X067304Y009928D01*
X067328Y009888D01*
X067349Y009847D01*
X067367Y009803D01*
X067380Y009759D01*
X067390Y009713D01*
X067396Y009667D01*
X067398Y009620D01*
X067396Y009573D01*
X067390Y009527D01*
X067380Y009481D01*
X067367Y009437D01*
X067349Y009393D01*
X067328Y009352D01*
X067304Y009312D01*
X067276Y009274D01*
X067245Y009239D01*
X067211Y009207D01*
X067175Y009178D01*
X067136Y009152D01*
X067096Y009129D01*
X067053Y009110D01*
X067009Y009094D01*
X066964Y009082D01*
X066918Y009074D01*
X066871Y009070D01*
X066825Y009070D01*
X066778Y009074D01*
X066732Y009082D01*
X066687Y009094D01*
X066643Y009110D01*
X066600Y009129D01*
X066560Y009152D01*
X066521Y009178D01*
X066485Y009207D01*
X066451Y009239D01*
X066420Y009274D01*
X066392Y009312D01*
X066368Y009352D01*
X066347Y009393D01*
X066329Y009437D01*
X066316Y009481D01*
X066306Y009527D01*
X066300Y009573D01*
X066298Y009620D01*
D16*
X056848Y010120D03*
X065848Y042620D03*
X058348Y043870D03*
D17*
X059348Y043870D03*
X063848Y042620D03*
X064848Y042620D03*
X064848Y041620D03*
X065848Y041620D03*
X065848Y040620D03*
X064848Y040620D03*
X064848Y039620D03*
X065848Y039620D03*
X065848Y038620D03*
X064848Y038620D03*
X063848Y038620D03*
X063848Y039620D03*
X063848Y040620D03*
X063848Y041620D03*
X063848Y037620D03*
X064848Y037620D03*
X065848Y037620D03*
X065848Y036620D03*
X064848Y036620D03*
X063848Y036620D03*
X063848Y035620D03*
X064848Y035620D03*
X065848Y035620D03*
X065848Y034620D03*
X064848Y034620D03*
X063848Y034620D03*
X063848Y033620D03*
X063848Y032620D03*
X064848Y032620D03*
X064848Y033620D03*
X065848Y033620D03*
X065848Y032620D03*
X065848Y031620D03*
X064848Y031620D03*
X063848Y031620D03*
X063848Y030620D03*
X064848Y030620D03*
X065848Y030620D03*
X065848Y029620D03*
X064848Y029620D03*
X063848Y029620D03*
X063848Y028620D03*
X064848Y028620D03*
X065848Y028620D03*
X065848Y027620D03*
X064848Y027620D03*
X064848Y026620D03*
X065848Y026620D03*
X065848Y025620D03*
X064848Y025620D03*
X063848Y025620D03*
X063848Y026620D03*
X063848Y027620D03*
X063848Y024620D03*
X064848Y024620D03*
X065848Y024620D03*
X065848Y023620D03*
X064848Y023620D03*
X063848Y023620D03*
X063848Y022620D03*
X064848Y022620D03*
X065848Y022620D03*
X065848Y021620D03*
X064848Y021620D03*
X064848Y020620D03*
X065848Y020620D03*
X065848Y019620D03*
X064848Y019620D03*
X063848Y019620D03*
X063848Y020620D03*
X063848Y021620D03*
X063848Y018620D03*
X064848Y018620D03*
X065848Y018620D03*
X065848Y017620D03*
X064848Y017620D03*
X063848Y017620D03*
X063848Y016620D03*
X064848Y016620D03*
X065848Y016620D03*
X065848Y015620D03*
X064848Y015620D03*
X063848Y015620D03*
X063848Y014620D03*
X063848Y013620D03*
X064848Y013620D03*
X064848Y014620D03*
X065848Y014620D03*
X065848Y013620D03*
X065848Y012620D03*
X064848Y012620D03*
X063848Y012620D03*
X063848Y011620D03*
X064848Y011620D03*
X065848Y011620D03*
X057848Y010120D03*
D18*
X066848Y009620D03*
X066848Y044620D03*
D19*
X056598Y013263D03*
X056598Y012476D03*
X017848Y016226D03*
X017848Y017013D03*
D20*
X006348Y010120D03*
X006348Y044370D03*
X062598Y044370D03*
X062598Y010120D03*
D21*
X031348Y015535D03*
X031348Y016204D03*
M02*
