G75*
G70*
%OFA0B0*%
%FSLAX24Y24*%
%IPPOS*%
%LPD*%
%AMOC8*
5,1,8,0,0,1.08239X$1,22.5*
%
%ADD10C,0.0100*%
%ADD11C,0.0150*%
%ADD12C,0.0110*%
%ADD13C,0.0160*%
%ADD14C,0.0050*%
%ADD15C,0.0060*%
%ADD16C,0.0020*%
%ADD17C,0.0004*%
%ADD18C,0.0030*%
%ADD19C,0.0000*%
%ADD20R,0.0250X0.0250*%
%ADD21R,0.1250X0.0250*%
%ADD22R,0.0250X0.0750*%
%ADD23R,0.0500X0.6250*%
%ADD24R,0.7250X0.0500*%
%ADD25C,0.0059*%
%ADD26C,0.0040*%
D10*
X050565Y031420D02*
X050658Y031513D01*
X050658Y031887D01*
X050751Y031793D02*
X050565Y031793D01*
X050970Y031700D02*
X051156Y031700D01*
X051063Y031887D02*
X051063Y031420D01*
X051391Y031420D02*
X051671Y031420D01*
X051764Y031513D01*
X051764Y031700D01*
X051671Y031793D01*
X051391Y031793D01*
X051063Y031887D02*
X050970Y031980D01*
X051998Y031980D02*
X052372Y031420D01*
X052606Y031420D02*
X052886Y031420D01*
X052980Y031513D01*
X052980Y031700D01*
X052886Y031793D01*
X052606Y031793D01*
X052606Y031326D01*
X052699Y031233D01*
X052793Y031233D01*
X053206Y031793D02*
X053299Y031793D01*
X053486Y031606D01*
X053486Y031420D02*
X053486Y031793D01*
X053720Y031700D02*
X053814Y031793D01*
X054000Y031793D01*
X054094Y031700D01*
X054094Y031513D01*
X054000Y031420D01*
X053814Y031420D01*
X053720Y031513D01*
X053720Y031700D01*
X054304Y031513D02*
X054304Y031420D01*
X054398Y031420D01*
X054398Y031513D01*
X054304Y031513D01*
X054632Y031420D02*
X054632Y031700D01*
X054725Y031793D01*
X055005Y031793D01*
X055005Y031420D01*
X055239Y031420D02*
X055520Y031420D01*
X055613Y031513D01*
X055520Y031606D01*
X055239Y031606D01*
X055239Y031700D02*
X055239Y031420D01*
X055239Y031700D02*
X055333Y031793D01*
X055520Y031793D01*
X055925Y031980D02*
X055925Y031420D01*
X056018Y031420D02*
X055831Y031420D01*
X056252Y031420D02*
X056252Y031700D01*
X056346Y031793D01*
X056439Y031700D01*
X056439Y031420D01*
X056626Y031420D02*
X056626Y031793D01*
X056532Y031793D01*
X056439Y031700D01*
X056860Y031700D02*
X056953Y031793D01*
X057140Y031793D01*
X057234Y031700D01*
X057234Y031513D01*
X057140Y031420D01*
X056953Y031420D01*
X056860Y031513D01*
X056860Y031700D01*
X057468Y031700D02*
X057561Y031793D01*
X057748Y031793D01*
X057841Y031700D01*
X057841Y031513D01*
X057748Y031420D01*
X057561Y031420D01*
X057468Y031513D01*
X057468Y031700D01*
X058067Y031793D02*
X058161Y031793D01*
X058348Y031606D01*
X058348Y031420D02*
X058348Y031793D01*
X058582Y031793D02*
X058862Y031793D01*
X058955Y031700D01*
X058955Y031513D01*
X058862Y031420D01*
X058582Y031420D01*
X058582Y031980D01*
X059190Y031700D02*
X059190Y031606D01*
X059563Y031606D01*
X059563Y031513D02*
X059563Y031700D01*
X059470Y031793D01*
X059283Y031793D01*
X059190Y031700D01*
X059283Y031420D02*
X059470Y031420D01*
X059563Y031513D01*
X059797Y031513D02*
X059891Y031420D01*
X060171Y031420D01*
X060171Y031980D01*
X060171Y031793D02*
X059891Y031793D01*
X059797Y031700D01*
X059797Y031513D01*
X060381Y031513D02*
X060381Y031420D01*
X060475Y031420D01*
X060475Y031513D01*
X060381Y031513D01*
X060709Y031513D02*
X060709Y031793D01*
X060709Y031513D02*
X060802Y031420D01*
X060896Y031513D01*
X060989Y031420D01*
X061082Y031513D01*
X061082Y031793D01*
X061317Y031793D02*
X061317Y031513D01*
X061410Y031420D01*
X061503Y031513D01*
X061597Y031420D01*
X061690Y031513D01*
X061690Y031793D01*
X061924Y031793D02*
X061924Y031513D01*
X062018Y031420D01*
X062111Y031513D01*
X062204Y031420D01*
X062298Y031513D01*
X062298Y031793D01*
X056018Y031980D02*
X055925Y031980D01*
X053861Y020730D02*
X053674Y020543D01*
X053674Y020170D01*
X053440Y020170D02*
X053253Y020170D01*
X053347Y020170D02*
X053347Y020730D01*
X053440Y020730D02*
X053253Y020730D01*
X053035Y020730D02*
X053035Y020170D01*
X052661Y020170D01*
X053674Y020450D02*
X054048Y020450D01*
X054048Y020543D02*
X053861Y020730D01*
X054048Y020543D02*
X054048Y020170D01*
X042548Y045170D02*
X042268Y045170D01*
X042174Y045263D01*
X042174Y045637D01*
X042268Y045730D01*
X042548Y045730D01*
X042548Y045170D01*
X041940Y045263D02*
X041940Y045450D01*
X041847Y045543D01*
X041660Y045543D01*
X041567Y045450D01*
X041567Y045356D01*
X041940Y045356D01*
X041940Y045263D02*
X041847Y045170D01*
X041660Y045170D01*
X041332Y045263D02*
X041239Y045170D01*
X040959Y045170D01*
X040725Y045170D02*
X040725Y045543D01*
X040725Y045356D02*
X040538Y045543D01*
X040444Y045543D01*
X040218Y045450D02*
X040125Y045543D01*
X039938Y045543D01*
X039845Y045450D01*
X039845Y045356D01*
X040218Y045356D01*
X040218Y045263D02*
X040218Y045450D01*
X040218Y045263D02*
X040125Y045170D01*
X039938Y045170D01*
X039611Y045170D02*
X039611Y045543D01*
X039517Y045543D01*
X039424Y045450D01*
X039330Y045543D01*
X039237Y045450D01*
X039237Y045170D01*
X039424Y045170D02*
X039424Y045450D01*
X039003Y045450D02*
X038909Y045543D01*
X038723Y045543D01*
X038629Y045450D01*
X038629Y045356D01*
X039003Y045356D01*
X039003Y045263D02*
X039003Y045450D01*
X039003Y045263D02*
X038909Y045170D01*
X038723Y045170D01*
X038395Y045170D02*
X038395Y045543D01*
X038115Y045543D01*
X038022Y045450D01*
X038022Y045170D01*
X037694Y045263D02*
X037601Y045170D01*
X037694Y045263D02*
X037694Y045637D01*
X037787Y045543D02*
X037601Y045543D01*
X036775Y045730D02*
X036494Y045730D01*
X036401Y045637D01*
X036401Y045263D01*
X036494Y045170D01*
X036775Y045170D01*
X036775Y045730D01*
X036167Y045450D02*
X036074Y045543D01*
X035887Y045543D01*
X035793Y045450D01*
X035793Y045356D01*
X036167Y045356D01*
X036167Y045263D02*
X036167Y045450D01*
X036167Y045263D02*
X036074Y045170D01*
X035887Y045170D01*
X035559Y045263D02*
X035466Y045170D01*
X035186Y045170D01*
X034951Y045263D02*
X034858Y045170D01*
X034671Y045170D01*
X034578Y045263D01*
X034578Y045450D01*
X034671Y045543D01*
X034858Y045543D01*
X034951Y045450D01*
X034951Y045263D01*
X035186Y045543D02*
X035466Y045543D01*
X035559Y045450D01*
X035559Y045263D01*
X034344Y045263D02*
X034344Y045450D01*
X034250Y045543D01*
X033970Y045543D01*
X033970Y045730D02*
X033970Y045170D01*
X034250Y045170D01*
X034344Y045263D01*
X033736Y045263D02*
X033736Y045450D01*
X033643Y045543D01*
X033456Y045543D01*
X033362Y045450D01*
X033362Y045356D01*
X033736Y045356D01*
X033736Y045263D02*
X033643Y045170D01*
X033456Y045170D01*
X033128Y045170D02*
X033128Y045543D01*
X032941Y045543D02*
X032848Y045543D01*
X032941Y045543D02*
X033128Y045356D01*
X032014Y045356D02*
X032014Y045543D01*
X031827Y045730D01*
X031609Y045730D02*
X031422Y045543D01*
X031235Y045730D01*
X031235Y045170D01*
X031001Y045170D02*
X030815Y045170D01*
X030908Y045170D02*
X030908Y045543D01*
X031001Y045543D01*
X030908Y045730D02*
X030908Y045823D01*
X030596Y045450D02*
X030503Y045543D01*
X030223Y045543D01*
X029989Y045543D02*
X029989Y045170D01*
X029989Y045356D02*
X029802Y045543D01*
X029708Y045543D01*
X029482Y045450D02*
X029482Y045263D01*
X029389Y045170D01*
X029202Y045170D01*
X029108Y045263D01*
X029108Y045450D01*
X029202Y045543D01*
X029389Y045543D01*
X029482Y045450D01*
X028874Y045450D02*
X028874Y045263D01*
X028781Y045170D01*
X028501Y045170D01*
X028267Y045263D02*
X028173Y045170D01*
X027986Y045170D01*
X027893Y045263D01*
X027893Y045450D01*
X027986Y045543D01*
X028173Y045543D01*
X028267Y045450D01*
X028267Y045263D01*
X028501Y045543D02*
X028781Y045543D01*
X028874Y045450D01*
X027659Y045450D02*
X027566Y045543D01*
X027285Y045543D01*
X027285Y045730D02*
X027285Y045170D01*
X027566Y045170D01*
X027659Y045263D01*
X027659Y045450D01*
X027051Y045450D02*
X026958Y045543D01*
X026771Y045543D01*
X026678Y045450D01*
X026678Y045356D01*
X027051Y045356D01*
X027051Y045263D02*
X027051Y045450D01*
X027051Y045263D02*
X026958Y045170D01*
X026771Y045170D01*
X025836Y045543D02*
X025649Y045170D01*
X025462Y045543D01*
X025228Y045450D02*
X025041Y045543D01*
X024948Y045543D01*
X024854Y045450D01*
X024854Y045263D01*
X024948Y045170D01*
X025135Y045170D01*
X025228Y045263D01*
X025228Y045450D02*
X025228Y045730D01*
X024854Y045730D01*
X024620Y045450D02*
X024247Y045450D01*
X024434Y045637D02*
X024434Y045263D01*
X024013Y045170D02*
X023826Y045356D01*
X023826Y045543D01*
X024013Y045730D01*
X030223Y045170D02*
X030503Y045170D01*
X030596Y045263D01*
X030596Y045450D01*
X031609Y045170D02*
X031609Y045730D01*
X032014Y045356D02*
X031827Y045170D01*
X040959Y045543D02*
X041239Y045543D01*
X041332Y045450D01*
X041332Y045263D01*
D11*
X039194Y010045D02*
X038769Y010045D01*
X038627Y009903D01*
X038627Y009620D01*
X038769Y009478D01*
X039194Y009478D01*
X039194Y009195D02*
X039194Y010045D01*
X040457Y009762D02*
X040599Y009762D01*
X040882Y009478D01*
X040882Y009195D02*
X040882Y009762D01*
X041236Y009620D02*
X041236Y009478D01*
X041803Y009478D01*
X041803Y009336D02*
X041803Y009620D01*
X041661Y009762D01*
X041378Y009762D01*
X041236Y009620D01*
X041378Y009195D02*
X041661Y009195D01*
X041803Y009336D01*
X042133Y009195D02*
X042275Y009336D01*
X042275Y009903D01*
X042417Y009762D02*
X042133Y009762D01*
X042771Y009762D02*
X042771Y009195D01*
X043196Y009195D01*
X043338Y009336D01*
X043338Y009762D01*
X043691Y009620D02*
X043691Y009336D01*
X043833Y009195D01*
X044259Y009195D01*
X044259Y008911D02*
X044259Y009762D01*
X043833Y009762D01*
X043691Y009620D01*
X044612Y009620D02*
X044612Y009195D01*
X044896Y009195D02*
X044896Y009620D01*
X044754Y009762D01*
X044612Y009620D01*
X044896Y009620D02*
X045037Y009762D01*
X045179Y009762D01*
X045179Y009195D01*
X045533Y009336D02*
X045533Y009620D01*
X045675Y009762D01*
X045958Y009762D01*
X046100Y009620D01*
X046100Y009336D01*
X045958Y009195D01*
X045675Y009195D01*
X045533Y009336D01*
X046454Y009195D02*
X046879Y009195D01*
X047021Y009336D01*
X047021Y009620D01*
X046879Y009762D01*
X046454Y009762D01*
X047493Y009762D02*
X047493Y009195D01*
X047635Y009195D02*
X047351Y009195D01*
X047493Y009762D02*
X047635Y009762D01*
X047493Y010045D02*
X047493Y010187D01*
X047988Y009620D02*
X047988Y009195D01*
X047988Y009620D02*
X048130Y009762D01*
X048555Y009762D01*
X048555Y009195D01*
X048886Y009195D02*
X049169Y009195D01*
X049027Y009195D02*
X049027Y009762D01*
X049169Y009762D01*
X049027Y010045D02*
X049027Y010187D01*
X049523Y010045D02*
X049523Y009195D01*
X050090Y009195D02*
X050090Y010045D01*
X049806Y009762D01*
X049523Y010045D01*
X051364Y010045D02*
X051931Y010045D01*
X051648Y010045D02*
X051648Y009195D01*
X052569Y009620D02*
X052852Y009620D01*
X052852Y010045D02*
X052285Y010045D01*
X052852Y010045D02*
X052852Y009195D01*
X053206Y009336D02*
X053348Y009195D01*
X053631Y009195D01*
X053773Y009336D01*
X053773Y009903D01*
X053631Y010045D01*
X053348Y010045D01*
X053206Y009903D01*
X038274Y009762D02*
X038274Y009195D01*
X038274Y009478D02*
X037990Y009762D01*
X037848Y009762D01*
X037506Y009620D02*
X037506Y009336D01*
X037365Y009195D01*
X037081Y009195D01*
X036939Y009336D01*
X036939Y009620D01*
X037081Y009762D01*
X037365Y009762D01*
X037506Y009620D01*
X036586Y009620D02*
X036586Y009336D01*
X036444Y009195D01*
X036019Y009195D01*
X035665Y009336D02*
X035523Y009195D01*
X035240Y009195D01*
X035098Y009478D02*
X035665Y009478D01*
X035665Y009336D02*
X035665Y009620D01*
X035523Y009762D01*
X035240Y009762D01*
X035098Y009620D01*
X035098Y009478D01*
X034744Y009620D02*
X034602Y009762D01*
X034177Y009762D01*
X034319Y009478D02*
X034602Y009478D01*
X034744Y009620D01*
X034744Y009195D02*
X034319Y009195D01*
X034177Y009336D01*
X034319Y009478D01*
X033823Y009620D02*
X033682Y009762D01*
X033256Y009762D01*
X033398Y009478D02*
X033256Y009336D01*
X033398Y009195D01*
X033823Y009195D01*
X033682Y009478D02*
X033823Y009620D01*
X033682Y009478D02*
X033398Y009478D01*
X032903Y009336D02*
X032761Y009195D01*
X032477Y009195D01*
X032336Y009336D01*
X032336Y009620D01*
X032477Y009762D01*
X032761Y009762D01*
X032903Y009620D01*
X032903Y009336D01*
X031982Y009195D02*
X031982Y009762D01*
X031698Y009762D02*
X031557Y009762D01*
X031698Y009762D02*
X031982Y009478D01*
X030294Y009620D02*
X029869Y009620D01*
X029727Y009478D01*
X029727Y009336D01*
X029869Y009195D01*
X030294Y009195D01*
X030294Y010045D01*
X029869Y010045D01*
X029727Y009903D01*
X029727Y009762D01*
X029869Y009620D01*
X029373Y009620D02*
X029373Y009336D01*
X029231Y009195D01*
X028948Y009195D01*
X028806Y009336D01*
X028806Y009620D01*
X028948Y009762D01*
X029231Y009762D01*
X029373Y009620D01*
X028452Y009336D02*
X028311Y009478D01*
X027885Y009478D01*
X027885Y009620D02*
X027885Y009195D01*
X028311Y009195D01*
X028452Y009336D01*
X028311Y009762D02*
X028027Y009762D01*
X027885Y009620D01*
X027532Y009762D02*
X027532Y009195D01*
X027532Y009478D02*
X027248Y009762D01*
X027106Y009762D01*
X026764Y009620D02*
X026623Y009762D01*
X026197Y009762D01*
X026197Y010045D02*
X026197Y009195D01*
X026623Y009195D01*
X026764Y009336D01*
X026764Y009620D01*
X024923Y009903D02*
X024781Y010045D01*
X024497Y010045D01*
X024356Y009903D01*
X024356Y009762D01*
X024923Y009195D01*
X024356Y009195D01*
X023081Y009195D02*
X023081Y009762D01*
X022798Y009762D02*
X022656Y009762D01*
X022798Y009762D02*
X023081Y009478D01*
X022314Y009478D02*
X021747Y009478D01*
X021747Y009620D01*
X021889Y009762D01*
X022172Y009762D01*
X022314Y009620D01*
X022314Y009336D01*
X022172Y009195D01*
X021889Y009195D01*
X021393Y009762D02*
X021110Y009195D01*
X020826Y009762D01*
X019552Y010045D02*
X019552Y009195D01*
X019126Y009195D01*
X018985Y009336D01*
X018985Y009903D01*
X019126Y010045D01*
X019552Y010045D01*
X036019Y009762D02*
X036444Y009762D01*
X036586Y009620D01*
D12*
X011371Y009618D02*
X011174Y009815D01*
X011174Y009225D01*
X011371Y009225D02*
X010977Y009225D01*
X010727Y009323D02*
X010628Y009225D01*
X010431Y009225D01*
X010333Y009323D01*
X010333Y009421D01*
X010431Y009520D01*
X010530Y009520D01*
X010431Y009520D02*
X010333Y009618D01*
X010333Y009717D01*
X010431Y009815D01*
X010628Y009815D01*
X010727Y009717D01*
X010082Y009717D02*
X009984Y009815D01*
X009787Y009815D01*
X009688Y009717D01*
X009688Y009618D01*
X009787Y009520D01*
X009688Y009421D01*
X009688Y009323D01*
X009787Y009225D01*
X009984Y009225D01*
X010082Y009323D01*
X009885Y009520D02*
X009787Y009520D01*
X009437Y009520D02*
X009142Y009520D01*
X009044Y009421D01*
X009044Y009323D01*
X009142Y009225D01*
X009339Y009225D01*
X009437Y009323D01*
X009437Y009520D01*
X009241Y009717D01*
X009044Y009815D01*
D13*
X008498Y010120D02*
X008498Y008920D01*
X011648Y008920D01*
X011648Y010120D01*
X008498Y010120D01*
D14*
X032795Y010970D02*
X032795Y011270D01*
X032870Y011345D01*
X033020Y011345D01*
X033095Y011270D01*
X033095Y011195D01*
X033020Y011120D01*
X032795Y011120D01*
X032795Y010970D02*
X032870Y010895D01*
X033020Y010895D01*
X033095Y010970D01*
X033255Y010970D02*
X033330Y010895D01*
X033481Y010895D01*
X033556Y010970D01*
X033716Y010970D02*
X033791Y010895D01*
X033941Y010895D01*
X034016Y010970D01*
X034016Y011270D01*
X033941Y011345D01*
X033791Y011345D01*
X033716Y011270D01*
X033556Y011270D02*
X033481Y011345D01*
X033330Y011345D01*
X033255Y011270D01*
X033255Y011195D01*
X033330Y011120D01*
X033255Y011045D01*
X033255Y010970D01*
X033330Y011120D02*
X033406Y011120D01*
X034173Y011345D02*
X034323Y011345D01*
X034248Y011345D02*
X034248Y010895D01*
X034323Y010895D02*
X034173Y010895D01*
X035283Y011429D02*
X035913Y011429D01*
X035913Y010310D02*
X035283Y010310D01*
X039112Y011045D02*
X039413Y011045D01*
X039262Y011045D02*
X039262Y011495D01*
X039413Y011345D01*
X039573Y011420D02*
X039573Y011270D01*
X039648Y011195D01*
X039873Y011195D01*
X039723Y011195D02*
X039573Y011045D01*
X039873Y011045D02*
X039873Y011495D01*
X039648Y011495D01*
X039573Y011420D01*
X050106Y020564D02*
X050106Y020639D01*
X050181Y020714D01*
X050406Y020714D01*
X050406Y020564D01*
X050331Y020489D01*
X050181Y020489D01*
X050106Y020564D01*
X050256Y020864D02*
X050406Y020714D01*
X050256Y020864D02*
X050106Y020939D01*
X050566Y020864D02*
X050641Y020939D01*
X050792Y020939D01*
X050867Y020864D01*
X050867Y020564D01*
X050792Y020489D01*
X050641Y020489D01*
X050566Y020564D01*
X051580Y019495D02*
X051806Y019270D01*
X051505Y019270D01*
X051580Y019045D02*
X051580Y019495D01*
X051966Y019420D02*
X052041Y019495D01*
X052191Y019495D01*
X052266Y019420D01*
X052266Y019120D01*
X052191Y019045D01*
X052041Y019045D01*
X051966Y019120D01*
X052423Y019045D02*
X052573Y019045D01*
X052498Y019045D02*
X052498Y019495D01*
X052573Y019495D02*
X052423Y019495D01*
X055956Y020364D02*
X056256Y020064D01*
X056256Y019989D01*
X056416Y020064D02*
X056491Y019989D01*
X056642Y019989D01*
X056717Y020064D01*
X056717Y020364D01*
X056642Y020439D01*
X056491Y020439D01*
X056416Y020364D01*
X056256Y020439D02*
X055956Y020439D01*
X055956Y020364D01*
X057677Y021045D02*
X057677Y021495D01*
X057902Y021270D01*
X057602Y021270D01*
X058062Y021045D02*
X058363Y021045D01*
X058212Y021045D02*
X058212Y021495D01*
X058363Y021345D01*
X058523Y021420D02*
X058523Y021270D01*
X058598Y021195D01*
X058823Y021195D01*
X058673Y021195D02*
X058523Y021045D01*
X058823Y021045D02*
X058823Y021495D01*
X058598Y021495D01*
X058523Y021420D01*
X058498Y018745D02*
X058498Y018295D01*
X058573Y018295D02*
X058423Y018295D01*
X058266Y018370D02*
X058191Y018295D01*
X058041Y018295D01*
X057966Y018370D01*
X057806Y018370D02*
X057806Y018295D01*
X057806Y018370D02*
X057505Y018670D01*
X057505Y018745D01*
X057806Y018745D01*
X057966Y018670D02*
X058041Y018745D01*
X058191Y018745D01*
X058266Y018670D01*
X058266Y018370D01*
X058423Y018745D02*
X058573Y018745D01*
X066483Y018845D02*
X066783Y018845D01*
X066783Y018620D01*
X066633Y018695D01*
X066558Y018695D01*
X066483Y018620D01*
X066483Y018470D01*
X066558Y018395D01*
X066708Y018395D01*
X066783Y018470D01*
X066943Y018395D02*
X067244Y018395D01*
X066943Y018695D01*
X066943Y018770D01*
X067018Y018845D01*
X067169Y018845D01*
X067244Y018770D01*
X067244Y023395D02*
X066943Y023695D01*
X066943Y023770D01*
X067018Y023845D01*
X067169Y023845D01*
X067244Y023770D01*
X067244Y023395D02*
X066943Y023395D01*
X066783Y023470D02*
X066483Y023770D01*
X066483Y023470D01*
X066558Y023395D01*
X066708Y023395D01*
X066783Y023470D01*
X066783Y023770D01*
X066708Y023845D01*
X066558Y023845D01*
X066483Y023770D01*
X066558Y028395D02*
X066708Y028395D01*
X066783Y028470D01*
X066783Y028620D02*
X066633Y028695D01*
X066558Y028695D01*
X066483Y028620D01*
X066483Y028470D01*
X066558Y028395D01*
X066783Y028620D02*
X066783Y028845D01*
X066483Y028845D01*
X067094Y028845D02*
X067094Y028395D01*
X067244Y028395D02*
X066943Y028395D01*
X067244Y028695D02*
X067094Y028845D01*
X067094Y033395D02*
X067094Y033845D01*
X067244Y033695D01*
X067244Y033395D02*
X066943Y033395D01*
X066783Y033470D02*
X066483Y033770D01*
X066483Y033470D01*
X066558Y033395D01*
X066708Y033395D01*
X066783Y033470D01*
X066783Y033770D01*
X066708Y033845D01*
X066558Y033845D01*
X066483Y033770D01*
X066558Y038395D02*
X066708Y038395D01*
X066783Y038470D01*
X066783Y038620D02*
X066633Y038695D01*
X066558Y038695D01*
X066483Y038620D01*
X066483Y038470D01*
X066558Y038395D01*
X066783Y038620D02*
X066783Y038845D01*
X066483Y038845D01*
X066733Y042395D02*
X067033Y042395D01*
X066883Y042395D02*
X066883Y042845D01*
X067033Y042695D01*
X066073Y043395D02*
X066073Y043695D01*
X065923Y043845D01*
X065773Y043695D01*
X065773Y043395D01*
X065773Y043620D02*
X066073Y043620D01*
X065223Y043620D02*
X064998Y043620D01*
X064923Y043545D01*
X064923Y043470D01*
X064998Y043395D01*
X065223Y043395D01*
X065223Y043845D01*
X064998Y043845D01*
X064923Y043770D01*
X064923Y043695D01*
X064998Y043620D01*
X064323Y043770D02*
X064323Y043470D01*
X064248Y043395D01*
X064098Y043395D01*
X064023Y043470D01*
X064023Y043770D02*
X064098Y043845D01*
X064248Y043845D01*
X064323Y043770D01*
X053573Y037459D02*
X053573Y037309D01*
X053498Y037234D01*
X053573Y037459D02*
X053498Y037534D01*
X053423Y037534D01*
X053123Y037234D01*
X053123Y037534D01*
X052773Y037384D02*
X052323Y037384D01*
X052323Y037234D02*
X052323Y037534D01*
X051923Y037459D02*
X051848Y037534D01*
X051548Y037234D01*
X051473Y037309D01*
X051473Y037459D01*
X051548Y037534D01*
X051848Y037534D01*
X051923Y037459D02*
X051923Y037309D01*
X051848Y037234D01*
X051548Y037234D01*
X051473Y037074D02*
X051473Y036774D01*
X051473Y036924D02*
X051923Y036924D01*
X051773Y036774D01*
X051698Y036614D02*
X051623Y036539D01*
X051623Y036313D01*
X051473Y036313D02*
X051923Y036313D01*
X051923Y036539D01*
X051848Y036614D01*
X051698Y036614D01*
X051623Y036464D02*
X051473Y036614D01*
X052323Y036614D02*
X052473Y036464D01*
X052473Y036539D02*
X052473Y036313D01*
X052323Y036313D02*
X052773Y036313D01*
X052773Y036539D01*
X052698Y036614D01*
X052548Y036614D01*
X052473Y036539D01*
X052323Y036774D02*
X052323Y037074D01*
X052323Y036924D02*
X052773Y036924D01*
X052623Y036774D01*
X052623Y037234D02*
X052773Y037384D01*
X053123Y037074D02*
X053123Y036774D01*
X053123Y036924D02*
X053573Y036924D01*
X053423Y036774D01*
X053348Y036614D02*
X053273Y036539D01*
X053273Y036313D01*
X053123Y036313D02*
X053573Y036313D01*
X053573Y036539D01*
X053498Y036614D01*
X053348Y036614D01*
X053273Y036464D02*
X053123Y036614D01*
X051023Y037495D02*
X051023Y037945D01*
X050798Y037945D01*
X050723Y037870D01*
X050723Y037720D01*
X050798Y037645D01*
X051023Y037645D01*
X050873Y037645D02*
X050723Y037495D01*
X050563Y037495D02*
X050563Y037945D01*
X050262Y037495D01*
X050262Y037945D01*
X050102Y037870D02*
X050027Y037945D01*
X049877Y037945D01*
X049802Y037870D01*
X049802Y037795D01*
X049877Y037720D01*
X049802Y037645D01*
X049802Y037570D01*
X049877Y037495D01*
X050027Y037495D01*
X050102Y037570D01*
X049952Y037720D02*
X049877Y037720D01*
X049023Y037645D02*
X048798Y037645D01*
X048723Y037720D01*
X048723Y037870D01*
X048798Y037945D01*
X049023Y037945D01*
X049023Y037495D01*
X048873Y037645D02*
X048723Y037495D01*
X048563Y037495D02*
X048563Y037945D01*
X048262Y037495D01*
X048262Y037945D01*
X048102Y037870D02*
X048027Y037945D01*
X047877Y037945D01*
X047802Y037870D01*
X047802Y037795D01*
X048102Y037495D01*
X047802Y037495D01*
X047741Y035939D02*
X047892Y035939D01*
X047967Y035864D01*
X047967Y035564D01*
X047892Y035489D01*
X047741Y035489D01*
X047666Y035564D01*
X047506Y035714D02*
X047281Y035939D01*
X047281Y035489D01*
X047206Y035714D02*
X047506Y035714D01*
X047666Y035864D02*
X047741Y035939D01*
X047046Y035864D02*
X046971Y035939D01*
X046821Y035939D01*
X046746Y035864D01*
X046746Y035789D01*
X046821Y035714D01*
X046746Y035639D01*
X046746Y035564D01*
X046821Y035489D01*
X046971Y035489D01*
X047046Y035564D01*
X046896Y035714D02*
X046821Y035714D01*
X045123Y035845D02*
X045123Y035395D01*
X045123Y035545D02*
X044898Y035545D01*
X044823Y035620D01*
X044823Y035770D01*
X044898Y035845D01*
X045123Y035845D01*
X044973Y035545D02*
X044823Y035395D01*
X044663Y035395D02*
X044362Y035695D01*
X044362Y035770D01*
X044437Y035845D01*
X044587Y035845D01*
X044663Y035770D01*
X044663Y035395D02*
X044362Y035395D01*
X045539Y033684D02*
X045539Y033055D01*
X045073Y033145D02*
X044923Y033145D01*
X044998Y033145D02*
X044998Y033595D01*
X045073Y033595D02*
X044923Y033595D01*
X044766Y033520D02*
X044766Y033220D01*
X044691Y033145D01*
X044541Y033145D01*
X044466Y033220D01*
X044306Y033220D02*
X044231Y033145D01*
X044080Y033145D01*
X044005Y033220D01*
X044005Y033295D01*
X044080Y033370D01*
X044156Y033370D01*
X044080Y033370D02*
X044005Y033445D01*
X044005Y033520D01*
X044080Y033595D01*
X044231Y033595D01*
X044306Y033520D01*
X044466Y033520D02*
X044541Y033595D01*
X044691Y033595D01*
X044766Y033520D01*
X043845Y033370D02*
X043620Y033370D01*
X043545Y033295D01*
X043545Y033220D01*
X043620Y033145D01*
X043770Y033145D01*
X043845Y033220D01*
X043845Y033370D01*
X043695Y033520D01*
X043545Y033595D01*
X046657Y033684D02*
X046657Y033055D01*
X046123Y038545D02*
X046123Y038995D01*
X045898Y038995D01*
X045823Y038920D01*
X045823Y038770D01*
X045898Y038695D01*
X046123Y038695D01*
X045973Y038695D02*
X045823Y038545D01*
X045663Y038620D02*
X045663Y038695D01*
X045587Y038770D01*
X045437Y038770D01*
X045362Y038695D01*
X045362Y038620D01*
X045437Y038545D01*
X045587Y038545D01*
X045663Y038620D01*
X045587Y038770D02*
X045663Y038845D01*
X045663Y038920D01*
X045587Y038995D01*
X045437Y038995D01*
X045362Y038920D01*
X045362Y038845D01*
X045437Y038770D01*
X042623Y042545D02*
X042623Y042995D01*
X042398Y042995D01*
X042323Y042920D01*
X042323Y042770D01*
X042398Y042695D01*
X042623Y042695D01*
X042473Y042695D02*
X042323Y042545D01*
X042163Y042620D02*
X042087Y042545D01*
X041937Y042545D01*
X041862Y042620D01*
X041862Y042695D01*
X041937Y042770D01*
X042163Y042770D01*
X042163Y042620D01*
X042163Y042770D02*
X042012Y042920D01*
X041862Y042995D01*
X043163Y043795D02*
X043163Y043870D01*
X042862Y044170D01*
X042862Y044245D01*
X043163Y044245D01*
X043323Y044170D02*
X043323Y044020D01*
X043398Y043945D01*
X043623Y043945D01*
X043473Y043945D02*
X043323Y043795D01*
X043623Y043795D02*
X043623Y044245D01*
X043398Y044245D01*
X043323Y044170D01*
X048433Y043120D02*
X048433Y042820D01*
X048508Y042745D01*
X048658Y042745D01*
X048733Y042820D01*
X048658Y042970D02*
X048433Y042970D01*
X048433Y043120D02*
X048508Y043195D01*
X048658Y043195D01*
X048733Y043120D01*
X048733Y043045D01*
X048658Y042970D01*
X048893Y042970D02*
X048968Y042895D01*
X049194Y042895D01*
X049194Y042745D02*
X049194Y043195D01*
X048968Y043195D01*
X048893Y043120D01*
X048893Y042970D01*
X049044Y042895D02*
X048893Y042745D01*
X030967Y038364D02*
X030967Y038064D01*
X030892Y037989D01*
X030741Y037989D01*
X030666Y038064D01*
X030506Y037989D02*
X030206Y038289D01*
X030206Y038364D01*
X030281Y038439D01*
X030431Y038439D01*
X030506Y038364D01*
X030666Y038364D02*
X030741Y038439D01*
X030892Y038439D01*
X030967Y038364D01*
X030506Y037989D02*
X030206Y037989D01*
X030046Y037989D02*
X029746Y038289D01*
X029746Y038364D01*
X029821Y038439D01*
X029971Y038439D01*
X030046Y038364D01*
X030046Y037989D02*
X029746Y037989D01*
X029761Y043245D02*
X029611Y043245D01*
X029686Y043245D02*
X029686Y043695D01*
X029761Y043695D02*
X029611Y043695D01*
X029454Y043620D02*
X029454Y043320D01*
X029379Y043245D01*
X029229Y043245D01*
X029154Y043320D01*
X028994Y043245D02*
X028693Y043245D01*
X028844Y043245D02*
X028844Y043695D01*
X028994Y043545D01*
X029154Y043620D02*
X029229Y043695D01*
X029379Y043695D01*
X029454Y043620D01*
X028533Y043620D02*
X028533Y043545D01*
X028458Y043470D01*
X028233Y043470D01*
X028233Y043620D02*
X028308Y043695D01*
X028458Y043695D01*
X028533Y043620D01*
X028233Y043620D02*
X028233Y043320D01*
X028308Y043245D01*
X028458Y043245D01*
X028533Y043320D01*
X016123Y038995D02*
X015898Y038995D01*
X015823Y038920D01*
X015823Y038770D01*
X015898Y038695D01*
X016123Y038695D01*
X015973Y038695D02*
X015823Y038545D01*
X015663Y038620D02*
X015587Y038545D01*
X015437Y038545D01*
X015362Y038620D01*
X015362Y038770D01*
X015437Y038845D01*
X015512Y038845D01*
X015663Y038770D01*
X015663Y038995D01*
X015362Y038995D01*
X014873Y038995D02*
X014648Y038995D01*
X014573Y038920D01*
X014573Y038770D01*
X014648Y038695D01*
X014873Y038695D01*
X014723Y038695D02*
X014573Y038545D01*
X014413Y038770D02*
X014112Y038770D01*
X014187Y038995D02*
X014413Y038770D01*
X014187Y038545D02*
X014187Y038995D01*
X014873Y038995D02*
X014873Y038545D01*
X016123Y038545D02*
X016123Y038995D01*
X017183Y030495D02*
X017183Y030045D01*
X017333Y030045D02*
X017033Y030045D01*
X017333Y030345D02*
X017183Y030495D01*
X017493Y030495D02*
X017493Y030045D01*
X017794Y030495D01*
X017794Y030045D01*
X017954Y030045D02*
X018104Y030195D01*
X018029Y030195D02*
X018254Y030195D01*
X018254Y030045D02*
X018254Y030495D01*
X018029Y030495D01*
X017954Y030420D01*
X017954Y030270D01*
X018029Y030195D01*
X064233Y010770D02*
X064308Y010845D01*
X064458Y010845D01*
X064533Y010770D01*
X064533Y010470D01*
X064458Y010395D01*
X064308Y010395D01*
X064233Y010470D01*
X064833Y010470D02*
X064908Y010395D01*
X065133Y010395D01*
X065133Y010845D01*
X064908Y010845D01*
X064833Y010770D01*
X064833Y010695D01*
X064908Y010620D01*
X065133Y010620D01*
X064908Y010620D02*
X064833Y010545D01*
X064833Y010470D01*
X065483Y010395D02*
X065483Y010695D01*
X065633Y010845D01*
X065783Y010695D01*
X065783Y010395D01*
X065783Y010620D02*
X065483Y010620D01*
X066558Y013395D02*
X066708Y013395D01*
X066783Y013470D01*
X066483Y013770D01*
X066483Y013470D01*
X066558Y013395D01*
X066783Y013470D02*
X066783Y013770D01*
X066708Y013845D01*
X066558Y013845D01*
X066483Y013770D01*
X066943Y013770D02*
X066943Y013695D01*
X067018Y013620D01*
X066943Y013545D01*
X066943Y013470D01*
X067018Y013395D01*
X067169Y013395D01*
X067244Y013470D01*
X067094Y013620D02*
X067018Y013620D01*
X066943Y013770D02*
X067018Y013845D01*
X067169Y013845D01*
X067244Y013770D01*
D15*
X057718Y014370D02*
X056478Y014370D01*
X056455Y014372D01*
X056432Y014377D01*
X056410Y014386D01*
X056390Y014399D01*
X056372Y014414D01*
X056357Y014432D01*
X056344Y014452D01*
X056335Y014474D01*
X056330Y014497D01*
X056328Y014520D01*
X057718Y014370D02*
X057741Y014372D01*
X057764Y014377D01*
X057786Y014386D01*
X057806Y014399D01*
X057824Y014414D01*
X057839Y014432D01*
X057852Y014452D01*
X057861Y014474D01*
X057866Y014497D01*
X057868Y014520D01*
X057868Y017720D02*
X057866Y017743D01*
X057861Y017766D01*
X057852Y017788D01*
X057839Y017808D01*
X057824Y017826D01*
X057806Y017841D01*
X057786Y017854D01*
X057764Y017863D01*
X057741Y017868D01*
X057718Y017870D01*
X057298Y017870D01*
X056898Y017870D01*
X056478Y017870D01*
X056455Y017868D01*
X056432Y017863D01*
X056410Y017854D01*
X056390Y017841D01*
X056372Y017826D01*
X056357Y017808D01*
X056344Y017788D01*
X056335Y017766D01*
X056330Y017743D01*
X056328Y017720D01*
X056898Y017870D02*
X056900Y017843D01*
X056905Y017816D01*
X056915Y017790D01*
X056927Y017766D01*
X056943Y017744D01*
X056961Y017724D01*
X056983Y017707D01*
X057006Y017692D01*
X057031Y017682D01*
X057057Y017674D01*
X057084Y017670D01*
X057112Y017670D01*
X057139Y017674D01*
X057165Y017682D01*
X057190Y017692D01*
X057213Y017707D01*
X057235Y017724D01*
X057253Y017744D01*
X057269Y017766D01*
X057281Y017790D01*
X057291Y017816D01*
X057296Y017843D01*
X057298Y017870D01*
X052118Y018220D02*
X052116Y018243D01*
X052111Y018266D01*
X052102Y018288D01*
X052089Y018308D01*
X052074Y018326D01*
X052056Y018341D01*
X052036Y018354D01*
X052014Y018363D01*
X051991Y018368D01*
X051968Y018370D01*
X051548Y018370D01*
X051148Y018370D01*
X050728Y018370D01*
X050705Y018368D01*
X050682Y018363D01*
X050660Y018354D01*
X050640Y018341D01*
X050622Y018326D01*
X050607Y018308D01*
X050594Y018288D01*
X050585Y018266D01*
X050580Y018243D01*
X050578Y018220D01*
X051148Y018370D02*
X051150Y018343D01*
X051155Y018316D01*
X051165Y018290D01*
X051177Y018266D01*
X051193Y018244D01*
X051211Y018224D01*
X051233Y018207D01*
X051256Y018192D01*
X051281Y018182D01*
X051307Y018174D01*
X051334Y018170D01*
X051362Y018170D01*
X051389Y018174D01*
X051415Y018182D01*
X051440Y018192D01*
X051463Y018207D01*
X051485Y018224D01*
X051503Y018244D01*
X051519Y018266D01*
X051531Y018290D01*
X051541Y018316D01*
X051546Y018343D01*
X051548Y018370D01*
X052118Y014520D02*
X052116Y014497D01*
X052111Y014474D01*
X052102Y014452D01*
X052089Y014432D01*
X052074Y014414D01*
X052056Y014399D01*
X052036Y014386D01*
X052014Y014377D01*
X051991Y014372D01*
X051968Y014370D01*
X050728Y014370D01*
X050705Y014372D01*
X050682Y014377D01*
X050660Y014386D01*
X050640Y014399D01*
X050622Y014414D01*
X050607Y014432D01*
X050594Y014452D01*
X050585Y014474D01*
X050580Y014497D01*
X050578Y014520D01*
X034098Y041750D02*
X034098Y042990D01*
X034096Y043013D01*
X034091Y043036D01*
X034082Y043058D01*
X034069Y043078D01*
X034054Y043096D01*
X034036Y043111D01*
X034016Y043124D01*
X033994Y043133D01*
X033971Y043138D01*
X033948Y043140D01*
X034098Y041750D02*
X034096Y041727D01*
X034091Y041704D01*
X034082Y041682D01*
X034069Y041662D01*
X034054Y041644D01*
X034036Y041629D01*
X034016Y041616D01*
X033994Y041607D01*
X033971Y041602D01*
X033948Y041600D01*
X030248Y041600D02*
X030225Y041602D01*
X030202Y041607D01*
X030180Y041616D01*
X030160Y041629D01*
X030142Y041644D01*
X030127Y041662D01*
X030114Y041682D01*
X030105Y041704D01*
X030100Y041727D01*
X030098Y041750D01*
X030098Y042170D01*
X030098Y042570D01*
X030098Y042990D01*
X030100Y043013D01*
X030105Y043036D01*
X030114Y043058D01*
X030127Y043078D01*
X030142Y043096D01*
X030160Y043111D01*
X030180Y043124D01*
X030202Y043133D01*
X030225Y043138D01*
X030248Y043140D01*
X030098Y042570D02*
X030125Y042568D01*
X030152Y042563D01*
X030178Y042553D01*
X030202Y042541D01*
X030224Y042525D01*
X030244Y042507D01*
X030261Y042485D01*
X030276Y042462D01*
X030286Y042437D01*
X030294Y042411D01*
X030298Y042384D01*
X030298Y042356D01*
X030294Y042329D01*
X030286Y042303D01*
X030276Y042278D01*
X030261Y042255D01*
X030244Y042233D01*
X030224Y042215D01*
X030202Y042199D01*
X030178Y042187D01*
X030152Y042177D01*
X030125Y042172D01*
X030098Y042170D01*
D16*
X030098Y043000D02*
X034098Y043000D01*
X051978Y018370D02*
X051978Y014370D01*
X057728Y014370D02*
X057728Y017870D01*
D17*
X046098Y032858D02*
X046098Y032862D01*
X035090Y010870D02*
X035086Y010870D01*
D18*
X035338Y010370D02*
X035338Y011373D01*
X035854Y011373D01*
X035854Y010370D01*
X035338Y010370D01*
X045594Y033110D02*
X046598Y033110D01*
X046598Y033625D01*
X045594Y033625D01*
X045594Y033110D01*
D19*
X004848Y046810D02*
X004848Y007430D01*
X067948Y007430D01*
X067948Y046810D01*
X004848Y046810D01*
X005698Y044370D02*
X005700Y044420D01*
X005706Y044470D01*
X005716Y044520D01*
X005729Y044568D01*
X005746Y044616D01*
X005767Y044662D01*
X005791Y044706D01*
X005819Y044748D01*
X005850Y044788D01*
X005884Y044825D01*
X005921Y044860D01*
X005960Y044891D01*
X006001Y044920D01*
X006045Y044945D01*
X006091Y044967D01*
X006138Y044985D01*
X006186Y044999D01*
X006235Y045010D01*
X006285Y045017D01*
X006335Y045020D01*
X006386Y045019D01*
X006436Y045014D01*
X006486Y045005D01*
X006534Y044993D01*
X006582Y044976D01*
X006628Y044956D01*
X006673Y044933D01*
X006716Y044906D01*
X006756Y044876D01*
X006794Y044843D01*
X006829Y044807D01*
X006862Y044768D01*
X006891Y044727D01*
X006917Y044684D01*
X006940Y044639D01*
X006959Y044592D01*
X006974Y044544D01*
X006986Y044495D01*
X006994Y044445D01*
X006998Y044395D01*
X006998Y044345D01*
X006994Y044295D01*
X006986Y044245D01*
X006974Y044196D01*
X006959Y044148D01*
X006940Y044101D01*
X006917Y044056D01*
X006891Y044013D01*
X006862Y043972D01*
X006829Y043933D01*
X006794Y043897D01*
X006756Y043864D01*
X006716Y043834D01*
X006673Y043807D01*
X006628Y043784D01*
X006582Y043764D01*
X006534Y043747D01*
X006486Y043735D01*
X006436Y043726D01*
X006386Y043721D01*
X006335Y043720D01*
X006285Y043723D01*
X006235Y043730D01*
X006186Y043741D01*
X006138Y043755D01*
X006091Y043773D01*
X006045Y043795D01*
X006001Y043820D01*
X005960Y043849D01*
X005921Y043880D01*
X005884Y043915D01*
X005850Y043952D01*
X005819Y043992D01*
X005791Y044034D01*
X005767Y044078D01*
X005746Y044124D01*
X005729Y044172D01*
X005716Y044220D01*
X005706Y044270D01*
X005700Y044320D01*
X005698Y044370D01*
X005698Y010120D02*
X005700Y010170D01*
X005706Y010220D01*
X005716Y010270D01*
X005729Y010318D01*
X005746Y010366D01*
X005767Y010412D01*
X005791Y010456D01*
X005819Y010498D01*
X005850Y010538D01*
X005884Y010575D01*
X005921Y010610D01*
X005960Y010641D01*
X006001Y010670D01*
X006045Y010695D01*
X006091Y010717D01*
X006138Y010735D01*
X006186Y010749D01*
X006235Y010760D01*
X006285Y010767D01*
X006335Y010770D01*
X006386Y010769D01*
X006436Y010764D01*
X006486Y010755D01*
X006534Y010743D01*
X006582Y010726D01*
X006628Y010706D01*
X006673Y010683D01*
X006716Y010656D01*
X006756Y010626D01*
X006794Y010593D01*
X006829Y010557D01*
X006862Y010518D01*
X006891Y010477D01*
X006917Y010434D01*
X006940Y010389D01*
X006959Y010342D01*
X006974Y010294D01*
X006986Y010245D01*
X006994Y010195D01*
X006998Y010145D01*
X006998Y010095D01*
X006994Y010045D01*
X006986Y009995D01*
X006974Y009946D01*
X006959Y009898D01*
X006940Y009851D01*
X006917Y009806D01*
X006891Y009763D01*
X006862Y009722D01*
X006829Y009683D01*
X006794Y009647D01*
X006756Y009614D01*
X006716Y009584D01*
X006673Y009557D01*
X006628Y009534D01*
X006582Y009514D01*
X006534Y009497D01*
X006486Y009485D01*
X006436Y009476D01*
X006386Y009471D01*
X006335Y009470D01*
X006285Y009473D01*
X006235Y009480D01*
X006186Y009491D01*
X006138Y009505D01*
X006091Y009523D01*
X006045Y009545D01*
X006001Y009570D01*
X005960Y009599D01*
X005921Y009630D01*
X005884Y009665D01*
X005850Y009702D01*
X005819Y009742D01*
X005791Y009784D01*
X005767Y009828D01*
X005746Y009874D01*
X005729Y009922D01*
X005716Y009970D01*
X005706Y010020D01*
X005700Y010070D01*
X005698Y010120D01*
X061948Y010120D02*
X061950Y010170D01*
X061956Y010220D01*
X061966Y010270D01*
X061979Y010318D01*
X061996Y010366D01*
X062017Y010412D01*
X062041Y010456D01*
X062069Y010498D01*
X062100Y010538D01*
X062134Y010575D01*
X062171Y010610D01*
X062210Y010641D01*
X062251Y010670D01*
X062295Y010695D01*
X062341Y010717D01*
X062388Y010735D01*
X062436Y010749D01*
X062485Y010760D01*
X062535Y010767D01*
X062585Y010770D01*
X062636Y010769D01*
X062686Y010764D01*
X062736Y010755D01*
X062784Y010743D01*
X062832Y010726D01*
X062878Y010706D01*
X062923Y010683D01*
X062966Y010656D01*
X063006Y010626D01*
X063044Y010593D01*
X063079Y010557D01*
X063112Y010518D01*
X063141Y010477D01*
X063167Y010434D01*
X063190Y010389D01*
X063209Y010342D01*
X063224Y010294D01*
X063236Y010245D01*
X063244Y010195D01*
X063248Y010145D01*
X063248Y010095D01*
X063244Y010045D01*
X063236Y009995D01*
X063224Y009946D01*
X063209Y009898D01*
X063190Y009851D01*
X063167Y009806D01*
X063141Y009763D01*
X063112Y009722D01*
X063079Y009683D01*
X063044Y009647D01*
X063006Y009614D01*
X062966Y009584D01*
X062923Y009557D01*
X062878Y009534D01*
X062832Y009514D01*
X062784Y009497D01*
X062736Y009485D01*
X062686Y009476D01*
X062636Y009471D01*
X062585Y009470D01*
X062535Y009473D01*
X062485Y009480D01*
X062436Y009491D01*
X062388Y009505D01*
X062341Y009523D01*
X062295Y009545D01*
X062251Y009570D01*
X062210Y009599D01*
X062171Y009630D01*
X062134Y009665D01*
X062100Y009702D01*
X062069Y009742D01*
X062041Y009784D01*
X062017Y009828D01*
X061996Y009874D01*
X061979Y009922D01*
X061966Y009970D01*
X061956Y010020D01*
X061950Y010070D01*
X061948Y010120D01*
X066298Y009620D02*
X066300Y009667D01*
X066306Y009713D01*
X066316Y009759D01*
X066329Y009803D01*
X066347Y009847D01*
X066368Y009888D01*
X066392Y009928D01*
X066420Y009966D01*
X066451Y010001D01*
X066485Y010033D01*
X066521Y010062D01*
X066560Y010088D01*
X066600Y010111D01*
X066643Y010130D01*
X066687Y010146D01*
X066732Y010158D01*
X066778Y010166D01*
X066825Y010170D01*
X066871Y010170D01*
X066918Y010166D01*
X066964Y010158D01*
X067009Y010146D01*
X067053Y010130D01*
X067096Y010111D01*
X067136Y010088D01*
X067175Y010062D01*
X067211Y010033D01*
X067245Y010001D01*
X067276Y009966D01*
X067304Y009928D01*
X067328Y009888D01*
X067349Y009847D01*
X067367Y009803D01*
X067380Y009759D01*
X067390Y009713D01*
X067396Y009667D01*
X067398Y009620D01*
X067396Y009573D01*
X067390Y009527D01*
X067380Y009481D01*
X067367Y009437D01*
X067349Y009393D01*
X067328Y009352D01*
X067304Y009312D01*
X067276Y009274D01*
X067245Y009239D01*
X067211Y009207D01*
X067175Y009178D01*
X067136Y009152D01*
X067096Y009129D01*
X067053Y009110D01*
X067009Y009094D01*
X066964Y009082D01*
X066918Y009074D01*
X066871Y009070D01*
X066825Y009070D01*
X066778Y009074D01*
X066732Y009082D01*
X066687Y009094D01*
X066643Y009110D01*
X066600Y009129D01*
X066560Y009152D01*
X066521Y009178D01*
X066485Y009207D01*
X066451Y009239D01*
X066420Y009274D01*
X066392Y009312D01*
X066368Y009352D01*
X066347Y009393D01*
X066329Y009437D01*
X066316Y009481D01*
X066306Y009527D01*
X066300Y009573D01*
X066298Y009620D01*
X061948Y044370D02*
X061950Y044420D01*
X061956Y044470D01*
X061966Y044520D01*
X061979Y044568D01*
X061996Y044616D01*
X062017Y044662D01*
X062041Y044706D01*
X062069Y044748D01*
X062100Y044788D01*
X062134Y044825D01*
X062171Y044860D01*
X062210Y044891D01*
X062251Y044920D01*
X062295Y044945D01*
X062341Y044967D01*
X062388Y044985D01*
X062436Y044999D01*
X062485Y045010D01*
X062535Y045017D01*
X062585Y045020D01*
X062636Y045019D01*
X062686Y045014D01*
X062736Y045005D01*
X062784Y044993D01*
X062832Y044976D01*
X062878Y044956D01*
X062923Y044933D01*
X062966Y044906D01*
X063006Y044876D01*
X063044Y044843D01*
X063079Y044807D01*
X063112Y044768D01*
X063141Y044727D01*
X063167Y044684D01*
X063190Y044639D01*
X063209Y044592D01*
X063224Y044544D01*
X063236Y044495D01*
X063244Y044445D01*
X063248Y044395D01*
X063248Y044345D01*
X063244Y044295D01*
X063236Y044245D01*
X063224Y044196D01*
X063209Y044148D01*
X063190Y044101D01*
X063167Y044056D01*
X063141Y044013D01*
X063112Y043972D01*
X063079Y043933D01*
X063044Y043897D01*
X063006Y043864D01*
X062966Y043834D01*
X062923Y043807D01*
X062878Y043784D01*
X062832Y043764D01*
X062784Y043747D01*
X062736Y043735D01*
X062686Y043726D01*
X062636Y043721D01*
X062585Y043720D01*
X062535Y043723D01*
X062485Y043730D01*
X062436Y043741D01*
X062388Y043755D01*
X062341Y043773D01*
X062295Y043795D01*
X062251Y043820D01*
X062210Y043849D01*
X062171Y043880D01*
X062134Y043915D01*
X062100Y043952D01*
X062069Y043992D01*
X062041Y044034D01*
X062017Y044078D01*
X061996Y044124D01*
X061979Y044172D01*
X061966Y044220D01*
X061956Y044270D01*
X061950Y044320D01*
X061948Y044370D01*
X066298Y044620D02*
X066300Y044667D01*
X066306Y044713D01*
X066316Y044759D01*
X066329Y044803D01*
X066347Y044847D01*
X066368Y044888D01*
X066392Y044928D01*
X066420Y044966D01*
X066451Y045001D01*
X066485Y045033D01*
X066521Y045062D01*
X066560Y045088D01*
X066600Y045111D01*
X066643Y045130D01*
X066687Y045146D01*
X066732Y045158D01*
X066778Y045166D01*
X066825Y045170D01*
X066871Y045170D01*
X066918Y045166D01*
X066964Y045158D01*
X067009Y045146D01*
X067053Y045130D01*
X067096Y045111D01*
X067136Y045088D01*
X067175Y045062D01*
X067211Y045033D01*
X067245Y045001D01*
X067276Y044966D01*
X067304Y044928D01*
X067328Y044888D01*
X067349Y044847D01*
X067367Y044803D01*
X067380Y044759D01*
X067390Y044713D01*
X067396Y044667D01*
X067398Y044620D01*
X067396Y044573D01*
X067390Y044527D01*
X067380Y044481D01*
X067367Y044437D01*
X067349Y044393D01*
X067328Y044352D01*
X067304Y044312D01*
X067276Y044274D01*
X067245Y044239D01*
X067211Y044207D01*
X067175Y044178D01*
X067136Y044152D01*
X067096Y044129D01*
X067053Y044110D01*
X067009Y044094D01*
X066964Y044082D01*
X066918Y044074D01*
X066871Y044070D01*
X066825Y044070D01*
X066778Y044074D01*
X066732Y044082D01*
X066687Y044094D01*
X066643Y044110D01*
X066600Y044129D01*
X066560Y044152D01*
X066521Y044178D01*
X066485Y044207D01*
X066451Y044239D01*
X066420Y044274D01*
X066392Y044312D01*
X066368Y044352D01*
X066347Y044393D01*
X066329Y044437D01*
X066316Y044481D01*
X066306Y044527D01*
X066300Y044573D01*
X066298Y044620D01*
D20*
X059973Y038995D03*
X059973Y038745D03*
X059723Y038745D03*
X059723Y038495D03*
X059973Y038495D03*
X059973Y038245D03*
X059723Y038245D03*
X059473Y038245D03*
X059473Y038495D03*
X059223Y038245D03*
X058973Y038245D03*
X058973Y038495D03*
X058973Y038745D03*
X058723Y038745D03*
X058473Y038745D03*
X058473Y038995D03*
X058223Y038745D03*
X057973Y038745D03*
X057973Y038995D03*
X057723Y038995D03*
X057473Y038995D03*
X057473Y038745D03*
X057473Y038495D03*
X057473Y038245D03*
X057473Y037995D03*
X057473Y037745D03*
X057723Y037745D03*
X057973Y037745D03*
X057973Y037995D03*
X057973Y038245D03*
X058223Y038245D03*
X058223Y037995D03*
X058473Y037995D03*
X058723Y037995D03*
X058973Y037745D03*
X058973Y037495D03*
X058723Y037245D03*
X058723Y036995D03*
X058973Y036745D03*
X059223Y036745D03*
X059473Y036495D03*
X059723Y036245D03*
X060223Y036245D03*
X060473Y036495D03*
X060473Y036745D03*
X060473Y036995D03*
X060473Y037245D03*
X060723Y037245D03*
X060973Y037245D03*
X061223Y037245D03*
X061473Y037245D03*
X061723Y037245D03*
X061973Y037245D03*
X061973Y036995D03*
X061973Y036745D03*
X061973Y036495D03*
X061973Y036245D03*
X061723Y036245D03*
X061723Y035995D03*
X061973Y035995D03*
X061973Y035745D03*
X061973Y035495D03*
X061973Y035245D03*
X061973Y034995D03*
X061973Y034745D03*
X061723Y034745D03*
X061473Y034745D03*
X061473Y034995D03*
X061473Y035245D03*
X061223Y035245D03*
X061223Y034995D03*
X060973Y034995D03*
X060723Y034995D03*
X060723Y035245D03*
X060473Y035245D03*
X060223Y035245D03*
X059973Y035495D03*
X059723Y035495D03*
X059723Y035745D03*
X060223Y035745D03*
X060473Y035745D03*
X060723Y035745D03*
X060723Y035995D03*
X060973Y035995D03*
X060973Y036245D03*
X060973Y036495D03*
X061223Y036745D03*
X061223Y036995D03*
X061473Y036745D03*
X061473Y036495D03*
X061223Y036245D03*
X061223Y035745D03*
X061473Y035745D03*
X060973Y035745D03*
X060973Y035495D03*
X060473Y034995D03*
X060473Y034745D03*
X060723Y034745D03*
X060973Y034745D03*
X061223Y034745D03*
X060223Y034745D03*
X059973Y034745D03*
X059973Y034995D03*
X059723Y035245D03*
X059473Y035245D03*
X059223Y035245D03*
X059223Y034995D03*
X059473Y034995D03*
X058973Y034995D03*
X058723Y034995D03*
X058723Y035245D03*
X058473Y035245D03*
X058473Y035495D03*
X058473Y035745D03*
X058473Y035995D03*
X058473Y036245D03*
X058473Y036495D03*
X058723Y036495D03*
X059223Y035995D03*
X059223Y035745D03*
X058973Y035745D03*
X058723Y035745D03*
X058223Y035995D03*
X057973Y036245D03*
X057723Y035995D03*
X057723Y035745D03*
X057473Y035745D03*
X057223Y035745D03*
X056973Y035745D03*
X056723Y035995D03*
X056473Y035995D03*
X056223Y035995D03*
X055973Y035995D03*
X056223Y035745D03*
X056473Y035745D03*
X056473Y035245D03*
X056473Y034995D03*
X056473Y034995D03*
X056473Y034745D03*
X056473Y034745D03*
X056223Y034745D03*
X056223Y034745D03*
X056223Y034495D03*
X056223Y034495D03*
X055973Y034495D03*
X055973Y034495D03*
X055723Y034745D03*
X055723Y034745D03*
X055723Y034995D03*
X055723Y034995D03*
X055473Y034995D03*
X055473Y034995D03*
X055473Y035245D03*
X055473Y035495D03*
X055473Y035745D03*
X055473Y035995D03*
X055473Y036245D03*
X055473Y036495D03*
X055473Y036745D03*
X055473Y036995D03*
X055473Y037245D03*
X055723Y037245D03*
X055973Y037245D03*
X056223Y037245D03*
X056473Y037245D03*
X056723Y037245D03*
X056973Y037245D03*
X057223Y037245D03*
X057473Y037245D03*
X057473Y037495D03*
X057723Y037245D03*
X057723Y036995D03*
X057473Y036995D03*
X057223Y036745D03*
X056973Y036995D03*
X056723Y036995D03*
X056473Y036995D03*
X056223Y036995D03*
X055973Y036995D03*
X055723Y036745D03*
X055973Y036495D03*
X056223Y036495D03*
X056973Y036245D03*
X057473Y036495D03*
X057723Y035495D03*
X057723Y035245D03*
X057473Y035245D03*
X057223Y035245D03*
X057223Y035495D03*
X056973Y035245D03*
X056973Y034745D03*
X057223Y034745D03*
X057473Y034745D03*
X057473Y034495D03*
X057473Y034245D03*
X057223Y034245D03*
X056973Y034245D03*
X056973Y034495D03*
X056473Y034245D03*
X056223Y034245D03*
X056223Y034245D03*
X056223Y033995D03*
X056223Y033745D03*
X056223Y033745D03*
X056473Y033495D03*
X056473Y033495D03*
X056473Y033245D03*
X056473Y033245D03*
X056723Y032995D03*
X056723Y032995D03*
X056973Y032995D03*
X057223Y033245D03*
X057223Y033495D03*
X056973Y033745D03*
X056723Y033745D03*
X056723Y033745D03*
X057473Y033245D03*
X057723Y033245D03*
X057973Y032995D03*
X058473Y033245D03*
X058473Y033495D03*
X058473Y033745D03*
X058723Y033745D03*
X058973Y033745D03*
X058973Y033995D03*
X058973Y034245D03*
X058723Y034495D03*
X058473Y034495D03*
X058223Y034495D03*
X058223Y034745D03*
X057973Y034745D03*
X057973Y034995D03*
X058473Y034995D03*
X058223Y035495D03*
X057973Y034495D03*
X057973Y034245D03*
X058473Y034245D03*
X059223Y033995D03*
X059723Y034245D03*
X059723Y034495D03*
X059973Y034495D03*
X059973Y034245D03*
X059973Y033995D03*
X059973Y033745D03*
X059973Y033495D03*
X059723Y033495D03*
X059473Y033495D03*
X059473Y033245D03*
X059223Y033245D03*
X058973Y033245D03*
X058973Y033495D03*
X058723Y033245D03*
X058723Y032995D03*
X058973Y032995D03*
X059473Y032995D03*
X059973Y032995D03*
X059973Y033245D03*
X056223Y032995D03*
X056223Y032995D03*
X055973Y032995D03*
X055973Y032995D03*
X055473Y032995D03*
X055473Y032995D03*
X055473Y033245D03*
X055473Y033245D03*
X055473Y033495D03*
X055473Y033495D03*
X055473Y033745D03*
X055473Y033745D03*
X055473Y033995D03*
X055473Y033995D03*
X055473Y034245D03*
X055473Y034245D03*
X055473Y034495D03*
X055473Y034495D03*
X055473Y034745D03*
X055473Y034745D03*
X055973Y035245D03*
X055723Y035745D03*
X057973Y037495D03*
X058223Y037745D03*
X058473Y037745D03*
X058473Y037495D03*
X058223Y037245D03*
X059473Y037245D03*
X059473Y037495D03*
X059473Y037745D03*
X059723Y037745D03*
X059723Y037995D03*
X059973Y037995D03*
X059973Y037745D03*
X059973Y037495D03*
X059973Y037245D03*
X060223Y037245D03*
X059973Y036995D03*
X059723Y036995D03*
X059973Y036745D03*
X060223Y036745D03*
X059223Y037995D03*
X059223Y038995D03*
X059473Y038995D03*
D21*
X060973Y038745D03*
X060973Y037745D03*
X060973Y034245D03*
X060973Y033245D03*
X056473Y037745D03*
X056473Y038745D03*
D22*
X056973Y038245D03*
X055973Y038245D03*
X060473Y038245D03*
X061473Y038245D03*
X061473Y033745D03*
X060473Y033745D03*
D23*
X062098Y035995D03*
X055348Y035995D03*
D24*
X058723Y039370D03*
X058723Y032620D03*
D25*
X030966Y034452D02*
X030521Y034406D01*
X030492Y034306D01*
X030452Y034209D01*
X030401Y034118D01*
X030684Y033771D01*
X030446Y033534D01*
X030100Y033816D01*
X030032Y033777D01*
X029960Y033744D01*
X029763Y034222D01*
X029827Y034255D01*
X029885Y034298D01*
X029935Y034351D01*
X029975Y034411D01*
X030004Y034477D01*
X030022Y034547D01*
X030029Y034620D01*
X030021Y034700D01*
X029998Y034778D01*
X029962Y034850D01*
X029913Y034913D01*
X029852Y034967D01*
X029783Y035008D01*
X029707Y035036D01*
X029627Y035049D01*
X029547Y035047D01*
X029468Y035030D01*
X029393Y034998D01*
X029326Y034954D01*
X029269Y034897D01*
X029223Y034831D01*
X029190Y034757D01*
X029171Y034678D01*
X029168Y034597D01*
X029179Y034518D01*
X028230Y034518D01*
X028230Y034576D02*
X029171Y034576D01*
X029169Y034633D02*
X028230Y034633D01*
X028230Y034691D02*
X029174Y034691D01*
X029188Y034748D02*
X028230Y034748D01*
X028230Y034787D02*
X028675Y034833D01*
X028704Y034933D01*
X028744Y035030D01*
X028794Y035122D01*
X028512Y035468D01*
X028750Y035705D01*
X029096Y035423D01*
X029188Y035473D01*
X029284Y035513D01*
X029385Y035543D01*
X029430Y035987D01*
X029766Y035987D01*
X029811Y035543D01*
X029911Y035513D01*
X030008Y035473D01*
X030100Y035423D01*
X030446Y035705D01*
X030684Y035468D01*
X030401Y035122D01*
X030452Y035030D01*
X030492Y034933D01*
X030521Y034833D01*
X030966Y034787D01*
X030966Y034452D01*
X030966Y034460D02*
X029997Y034460D01*
X030015Y034518D02*
X030966Y034518D01*
X030966Y034576D02*
X030025Y034576D01*
X030027Y034633D02*
X030966Y034633D01*
X030966Y034691D02*
X030022Y034691D01*
X030007Y034748D02*
X030966Y034748D01*
X030783Y034806D02*
X029984Y034806D01*
X029951Y034864D02*
X030512Y034864D01*
X030495Y034921D02*
X029904Y034921D01*
X029833Y034979D02*
X030473Y034979D01*
X030448Y035036D02*
X029705Y035036D01*
X029497Y035036D02*
X028748Y035036D01*
X028723Y034979D02*
X029364Y034979D01*
X029293Y034921D02*
X028700Y034921D01*
X028684Y034864D02*
X029245Y034864D01*
X029212Y034806D02*
X028413Y034806D01*
X028230Y034787D02*
X028230Y034452D01*
X028675Y034406D01*
X028704Y034306D01*
X028744Y034209D01*
X028794Y034118D01*
X028512Y033771D01*
X028750Y033534D01*
X029096Y033816D01*
X029164Y033777D01*
X029235Y033744D01*
X029433Y034222D01*
X029362Y034259D01*
X029299Y034310D01*
X029246Y034371D01*
X029206Y034441D01*
X029179Y034518D01*
X029199Y034460D02*
X028230Y034460D01*
X028676Y034403D02*
X029228Y034403D01*
X029268Y034345D02*
X028693Y034345D01*
X028712Y034288D02*
X029326Y034288D01*
X029417Y034230D02*
X028735Y034230D01*
X028764Y034172D02*
X029413Y034172D01*
X029389Y034115D02*
X028792Y034115D01*
X028745Y034057D02*
X029365Y034057D01*
X029341Y034000D02*
X028698Y034000D01*
X028651Y033942D02*
X029317Y033942D01*
X029293Y033884D02*
X028604Y033884D01*
X028557Y033827D02*
X029270Y033827D01*
X029246Y033769D02*
X029182Y033769D01*
X029038Y033769D02*
X028514Y033769D01*
X028572Y033712D02*
X028968Y033712D01*
X028897Y033654D02*
X028629Y033654D01*
X028687Y033596D02*
X028826Y033596D01*
X028756Y033539D02*
X028744Y033539D01*
X029807Y034115D02*
X030404Y034115D01*
X030432Y034172D02*
X029783Y034172D01*
X029779Y034230D02*
X030460Y034230D01*
X030484Y034288D02*
X029870Y034288D01*
X029929Y034345D02*
X030503Y034345D01*
X030520Y034403D02*
X029969Y034403D01*
X029831Y034057D02*
X030450Y034057D01*
X030497Y034000D02*
X029855Y034000D01*
X029879Y033942D02*
X030544Y033942D01*
X030591Y033884D02*
X029902Y033884D01*
X029926Y033827D02*
X030638Y033827D01*
X030682Y033769D02*
X030157Y033769D01*
X030228Y033712D02*
X030624Y033712D01*
X030567Y033654D02*
X030299Y033654D01*
X030369Y033596D02*
X030509Y033596D01*
X030451Y033539D02*
X030440Y033539D01*
X030014Y033769D02*
X029950Y033769D01*
X030416Y035094D02*
X028779Y035094D01*
X028770Y035152D02*
X030426Y035152D01*
X030473Y035209D02*
X028723Y035209D01*
X028676Y035267D02*
X030520Y035267D01*
X030567Y035324D02*
X028629Y035324D01*
X028582Y035382D02*
X030614Y035382D01*
X030661Y035440D02*
X030120Y035440D01*
X030070Y035440D02*
X029126Y035440D01*
X029075Y035440D02*
X028535Y035440D01*
X028541Y035497D02*
X029005Y035497D01*
X028934Y035555D02*
X028599Y035555D01*
X028657Y035612D02*
X028864Y035612D01*
X028793Y035670D02*
X028714Y035670D01*
X029245Y035497D02*
X029951Y035497D01*
X029810Y035555D02*
X029386Y035555D01*
X029392Y035612D02*
X029804Y035612D01*
X029798Y035670D02*
X029398Y035670D01*
X029404Y035728D02*
X029792Y035728D01*
X029786Y035785D02*
X029409Y035785D01*
X029415Y035843D02*
X029780Y035843D01*
X029775Y035900D02*
X029421Y035900D01*
X029427Y035958D02*
X029769Y035958D01*
X030191Y035497D02*
X030654Y035497D01*
X030597Y035555D02*
X030262Y035555D01*
X030332Y035612D02*
X030539Y035612D01*
X030482Y035670D02*
X030403Y035670D01*
D26*
X018458Y031665D02*
X018458Y031074D01*
X017238Y031074D02*
X017238Y031665D01*
X047988Y038574D02*
X047988Y039165D01*
X049208Y039165D02*
X049208Y038574D01*
X049988Y038574D02*
X049988Y039165D01*
X051208Y039165D02*
X051208Y038574D01*
M02*
