%
M48
M72
T01C0.0236
T02C0.0240
T03C0.0315
T04C0.0320
T05C0.0360
T06C0.0400
T07C0.1100
%
T01
X14848Y14370
X15848Y15370
X13348Y15370
X19598Y14620
X22598Y17120
X24598Y17120
X26098Y16620
X26848Y17620
X28848Y16620
X27848Y15120
X30348Y15120
X31348Y15370
X32348Y14870
X34348Y16870
X34598Y17620
X33348Y17370
X36848Y17870
X39348Y17120
X40098Y17870
X40348Y18620
X39848Y19120
X41348Y18870
X42348Y19120
X41598Y21370
X39848Y21370
X38598Y20370
X37848Y20370
X41348Y22870
X40848Y24370
X41098Y25370
X40348Y25370
X40098Y26620
X37348Y25870
X35848Y24120
X32348Y22870
X32848Y20870
X27848Y19870
X27098Y21620
X25348Y22120
X24848Y21620
X25348Y21120
X24848Y20620
X25848Y19870
X22348Y20620
X22098Y21370
X21598Y20870
X19348Y21620
X19098Y20870
X18848Y20120
X18348Y23620
X14348Y22870
X12848Y26870
X9348Y27370
X8848Y26370
X12348Y31870
X11598Y32120
X10848Y33120
X9348Y32120
X8848Y32870
X7848Y32870
X13348Y33370
X14848Y35620
X15848Y37620
X13348Y38620
X13098Y41620
X10348Y44120
X8848Y44120
X7098Y38620
X16848Y45120
X18848Y43870
X19848Y44370
X20848Y44870
X17848Y43370
X17848Y40120
X22098Y40120
X23848Y40870
X24348Y42370
X25598Y41870
X26848Y40870
X27598Y41620
X27098Y40120
X27348Y36370
X26598Y36370
X25348Y36120
X27598Y34620
X26848Y33870
X25848Y33370
X26848Y32870
X26098Y31620
X27348Y31370
X27348Y29620
X27348Y28370
X26848Y27370
X26348Y26870
X26348Y26120
X27098Y26120
X24848Y27120
X24098Y27120
X24598Y26120
X22348Y25370
X25348Y29120
X25598Y29620
X24098Y32870
X20098Y35620
X18848Y35120
X20098Y29870
X17348Y28120
X16848Y26870
X27348Y23620
X31348Y29870
X32348Y31870
X35348Y30120
X36598Y31370
X37098Y30870
X37348Y32120
X37848Y32620
X39348Y32870
X40098Y33120
X41598Y33370
X41348Y35870
X40098Y35870
X39848Y36370
X41098Y37620
X40848Y39370
X39598Y42120
X39598Y43620
X37348Y43870
X34348Y43870
X34348Y40870
X36598Y35370
X39098Y29870
X37098Y28370
X44848Y27370
X46348Y27870
X52348Y32120
X52848Y31370
X55348Y30620
X56348Y30620
X57348Y31370
X58848Y29870
X60348Y30120
X62848Y28870
X61848Y27620
X61098Y27370
X59848Y26620
X58348Y25620
X59848Y24370
X59848Y23620
X61098Y24120
X61098Y23120
X60598Y21120
X59598Y20870
X58348Y19620
X61098Y19620
X57848Y22370
X61098Y25370
X62848Y26620
X56348Y25870
X54848Y26870
X55598Y28370
X53848Y28870
X54348Y33370
X55348Y34370
X56348Y33120
X57848Y33120
X57848Y34870
X58598Y36620
X60098Y35120
X60098Y33870
X61848Y32620
X61848Y35370
X61848Y37120
X61848Y39370
X62598Y39370
X59848Y40620
X59098Y40620
X59098Y39870
X56598Y40370
X55848Y41120
X52848Y41370
X53848Y44370
X48848Y44870
X46348Y44870
X44848Y39870
X49848Y35370
X51348Y34370
X52348Y34620
X53348Y36120
X44848Y34870
X58848Y43120
X45348Y23120
X45348Y21620
X46348Y21620
X47348Y19620
X47848Y19870
X48598Y17870
X45348Y19120
X39098Y15120
X38348Y15120
X38848Y13120
X35848Y12120
X33348Y12370
X31598Y11870
X27098Y12620
X26348Y12120
X26348Y11120
X27098Y10120
X24348Y11620
X23348Y11120
X21848Y11370
X20848Y11120
X20848Y8870
X21848Y8870
X19848Y8870
X25348Y15370
X45348Y13620
X47348Y13620
X53348Y10870
X55348Y13620
X56348Y14370
X58848Y16120
X62348Y13620
X62848Y12620
X63098Y11620
X62348Y10620
X60348Y9620
X59848Y10120
X58848Y10120
X60348Y12370
X62848Y8870
X26598Y43620
X26098Y43870
X25598Y44120
T02
X40348Y39620
X40598Y34620
T03
X42848Y29870
X43848Y29870
X44848Y29870
X45848Y29870
X46848Y29870
X47848Y29870
X48848Y29870
X49848Y29870
X50848Y29870
X51848Y29870
X52848Y29870
X53848Y29870
X54848Y29870
X55848Y29870
X56848Y29870
X57848Y29870
X57848Y43120
X56848Y43120
X55848Y43120
X54848Y43120
X53848Y43120
X52848Y43120
X51848Y43120
X50848Y43120
X49848Y43120
X48848Y43120
X47848Y43120
X46848Y43120
X45848Y43120
X44848Y43120
X43848Y43120
X42848Y43120
X42848Y16120
X43848Y16120
X44848Y16120
X45848Y16120
X46848Y16120
X47848Y16120
X48848Y16120
X49848Y16120
X50848Y16120
X51848Y16120
X52848Y16120
X53848Y16120
X54848Y16120
X55848Y16120
X56848Y16120
X57848Y16120
T04
X57848Y10120
X56848Y10120
X55848Y10120
X54848Y10120
X53848Y10120
X52848Y10120
X51848Y10120
X50848Y10120
X49848Y10120
X48848Y10120
X47848Y10120
X46848Y10120
X45848Y10120
X44848Y10120
X43848Y10120
X42848Y10120
X35848Y10120
X34848Y10120
X33848Y10120
X32848Y10120
X31848Y10120
X30848Y10120
X29848Y10120
X28848Y12120
X28848Y13120
X29848Y13120
X30848Y13120
X31848Y13120
X32848Y13120
X33848Y13120
X34848Y13120
X35848Y13120
X35848Y16120
X36848Y16120
X37848Y16120
X38848Y16120
X34848Y16120
X33848Y16120
X32848Y16120
X31848Y16120
X30848Y16120
X29848Y16120
X28848Y18120
X28848Y19120
X29848Y19120
X30848Y19120
X31848Y19120
X32848Y19120
X33848Y19120
X34848Y19120
X35848Y19120
X36848Y19120
X37848Y19120
X38848Y19120
X38848Y22120
X37848Y22120
X36848Y22120
X35848Y22120
X34848Y22120
X33848Y22120
X32848Y22120
X31848Y22120
X30848Y22120
X29848Y22120
X28848Y24120
X28848Y25120
X29848Y25120
X30848Y25120
X31848Y25120
X32848Y25120
X33848Y25120
X34848Y25120
X35848Y25120
X36848Y25120
X37848Y25120
X38848Y25120
X35848Y28120
X34848Y28120
X33848Y28120
X32848Y28120
X31848Y28120
X30848Y28120
X29848Y28120
X28848Y30120
X28848Y31120
X29848Y31120
X30848Y31120
X31848Y31120
X32848Y31120
X33848Y31120
X34848Y31120
X35848Y31120
X35848Y34120
X36848Y34120
X37848Y34120
X38848Y34120
X34848Y34120
X33848Y34120
X32848Y34120
X31848Y34120
X30848Y34120
X29848Y34120
X28848Y36120
X28848Y37120
X29848Y37120
X30848Y37120
X31848Y37120
X32848Y37120
X33848Y37120
X34848Y37120
X35848Y37120
X36848Y37120
X37848Y37120
X38848Y37120
X38848Y40120
X37848Y40120
X36848Y40120
X35848Y40120
X34848Y40120
X33848Y40120
X32848Y40120
X31848Y40120
X30848Y40120
X29848Y40120
X29848Y43120
X30848Y43120
X31848Y43120
X32848Y43120
X33848Y43120
X34848Y43120
X35848Y43120
X36848Y43120
X37848Y43120
X38848Y43120
X42848Y44120
X43848Y44120
X43848Y37120
X42848Y37120
X44848Y37120
X45848Y37120
X46848Y37120
X47848Y37120
X48848Y37120
X49848Y37120
X50848Y37120
X51848Y37120
X52848Y37120
X53848Y37120
X54848Y37120
X55848Y37120
X56848Y37120
X57848Y37120
X57848Y44370
X56848Y44370
X55848Y44370
X54848Y44370
X63848Y44120
X64848Y44120
X43848Y30870
X42848Y30870
X42848Y23870
X43848Y23870
X44848Y23870
X45848Y23870
X46848Y23870
X47848Y23870
X48848Y23870
X49848Y23870
X50848Y23870
X51848Y23870
X52848Y23870
X53848Y23870
X54848Y23870
X55848Y23870
X56848Y23870
X57848Y23870
X43848Y17120
X42848Y17120
X25348Y13120
X24348Y13120
X23348Y13120
X22348Y13120
X21348Y13120
X20348Y13120
X19348Y13120
X18348Y13120
X17348Y13120
X17348Y12120
X18348Y10120
X19348Y10120
X20348Y10120
X21348Y10120
X22348Y10120
X23348Y10120
X24348Y10120
X25348Y10120
X24348Y16120
X23348Y16120
X22348Y16120
X21348Y16120
X20348Y16120
X19348Y16120
X18348Y16120
X17348Y18120
X17348Y19120
X18348Y19120
X19348Y19120
X20348Y19120
X21348Y19120
X22348Y19120
X23348Y19120
X24348Y19120
X17348Y24120
X17348Y25120
X14848Y25120
X13848Y25120
X12848Y25120
X11848Y25120
X10848Y25120
X9848Y25120
X8848Y25120
X7848Y25120
X6848Y25120
X6848Y24120
X7848Y22120
X8848Y22120
X9848Y22120
X10848Y22120
X11848Y22120
X12848Y22120
X13848Y22120
X14848Y22120
X13848Y20120
X12848Y20120
X11848Y20120
X10848Y20120
X9848Y20120
X8848Y20120
X7848Y20120
X6848Y20120
X6848Y19120
X7848Y17120
X8848Y17120
X9848Y17120
X10848Y17120
X11848Y17120
X12848Y17120
X13848Y17120
X13848Y28120
X14848Y28120
X12848Y28120
X11848Y28120
X10848Y28120
X9848Y28120
X8848Y28120
X7848Y28120
X6848Y30120
X6848Y31120
X7848Y31120
X8848Y31120
X9848Y31120
X10848Y31120
X11848Y31120
X12848Y31120
X13848Y31120
X14848Y31120
X17348Y31120
X18348Y31120
X19348Y31120
X20348Y31120
X21348Y31120
X22348Y31120
X23348Y31120
X24348Y31120
X24348Y34120
X25348Y34120
X23348Y34120
X22348Y34120
X21348Y34120
X20348Y34120
X19348Y34120
X18348Y34120
X17348Y36120
X17348Y37120
X18348Y37120
X19348Y37120
X20348Y37120
X21348Y37120
X22348Y37120
X23348Y37120
X24348Y37120
X25348Y37120
X27848Y43120
X28848Y43120
X14848Y37120
X13848Y37120
X12848Y37120
X11848Y37120
X10848Y37120
X9848Y37120
X8848Y37120
X7848Y37120
X7098Y37120
X7098Y36120
X7848Y34120
X8848Y34120
X9848Y34120
X10848Y34120
X11848Y34120
X12848Y34120
X13848Y34120
X14848Y34120
X17348Y30120
X18348Y28120
X19348Y28120
X20348Y28120
X21348Y28120
X22348Y28120
X23348Y28120
X24348Y28120
X13848Y40120
X12848Y40120
X11848Y40120
X10848Y40120
X9848Y40120
X8848Y40120
X7848Y40120
X6848Y42120
X6848Y43120
X7848Y43120
X8848Y43120
X9848Y43120
X10848Y43120
X11848Y43120
X12848Y43120
X13848Y43120
X63848Y9620
X64848Y9620
T05
X64848Y11620
X65848Y11620
X65848Y12620
X64848Y12620
X64848Y13620
X64848Y14620
X65848Y14620
X65848Y13620
X65848Y15620
X64848Y15620
X64848Y16620
X65848Y16620
X65848Y17620
X64848Y17620
X64848Y18620
X65848Y18620
X65848Y19620
X64848Y19620
X64848Y20620
X64848Y21620
X65848Y21620
X65848Y20620
X65848Y22620
X64848Y22620
X64848Y23620
X65848Y23620
X65848Y24620
X64848Y24620
X64848Y25620
X65848Y25620
X65848Y26620
X65848Y27620
X64848Y27620
X64848Y26620
X63848Y26620
X63848Y27620
X63848Y28620
X63848Y29620
X63848Y30620
X63848Y31620
X63848Y32620
X63848Y33620
X63848Y34620
X63848Y35620
X63848Y36620
X63848Y37620
X63848Y38620
X63848Y39620
X63848Y40620
X63848Y41620
X63848Y42620
X64848Y42620
X65848Y42620
X65848Y41620
X64848Y41620
X64848Y40620
X65848Y40620
X65848Y39620
X64848Y39620
X64848Y38620
X65848Y38620
X65848Y37620
X64848Y37620
X64848Y36620
X65848Y36620
X65848Y35620
X64848Y35620
X64848Y34620
X65848Y34620
X65848Y33620
X64848Y33620
X64848Y32620
X65848Y32620
X65848Y31620
X64848Y31620
X64848Y30620
X65848Y30620
X65848Y29620
X64848Y29620
X64848Y28620
X65848Y28620
X63848Y25620
X63848Y24620
X63848Y23620
X63848Y22620
X63848Y21620
X63848Y20620
X63848Y19620
X63848Y18620
X63848Y17620
X63848Y16620
X63848Y15620
X63848Y14620
X63848Y13620
X63848Y12620
X63848Y11620
T06
X10348Y11120
X9348Y11120
X9348Y12120
X10348Y12120
X10348Y13120
X9348Y13120
X9348Y14120
X9348Y15120
X10348Y15120
X10348Y14120
T07
X6348Y9620
X6348Y44620
X66848Y44620
X66848Y9620
M30
