G75*
G70*
%OFA0B0*%
%FSLAX24Y24*%
%IPPOS*%
%LPD*%
%AMOC8*
5,1,8,0,0,1.08239X$1,22.5*
%
%ADD10C,0.0624*%
%ADD11OC8,0.0624*%
%ADD12C,0.0756*%
%ADD13OC8,0.0756*%
%ADD14C,0.1320*%
%ADD15C,0.0060*%
%ADD16C,0.0712*%
D10*
X008598Y010490D02*
X008598Y010750D01*
X009598Y010750D02*
X009598Y010490D01*
X010598Y010490D02*
X010598Y010750D01*
X011598Y010750D02*
X011598Y010490D01*
X012598Y010490D02*
X012598Y010750D01*
X013598Y010750D02*
X013598Y010490D01*
X014598Y010490D02*
X014598Y010750D01*
X015598Y010750D02*
X015598Y010490D01*
X015598Y013490D02*
X015598Y013750D01*
X014598Y013750D02*
X014598Y013490D01*
X013598Y013490D02*
X013598Y013750D01*
X012598Y013750D02*
X012598Y013490D01*
X011598Y013490D02*
X011598Y013750D01*
X010598Y013750D02*
X010598Y013490D01*
X009598Y013490D02*
X009598Y013750D01*
X008598Y013750D02*
X008598Y013490D01*
X010098Y016740D02*
X010098Y017000D01*
X011098Y017000D02*
X011098Y016740D01*
X012098Y016740D02*
X012098Y017000D01*
X013098Y017000D02*
X013098Y016740D01*
X014098Y016740D02*
X014098Y017000D01*
X015098Y017000D02*
X015098Y016740D01*
X016098Y016740D02*
X016098Y017000D01*
X017098Y017000D02*
X017098Y016740D01*
X018098Y016740D02*
X018098Y017000D01*
X019098Y017000D02*
X019098Y016740D01*
X019098Y013750D02*
X019098Y013490D01*
X020098Y013490D02*
X020098Y013750D01*
X021098Y013750D02*
X021098Y013490D01*
X022098Y013490D02*
X022098Y013750D01*
X023098Y013750D02*
X023098Y013490D01*
X024098Y013490D02*
X024098Y013750D01*
X025098Y013750D02*
X025098Y013490D01*
X026098Y013490D02*
X026098Y013750D01*
X029348Y013750D02*
X029348Y013490D01*
X030348Y013490D02*
X030348Y013750D01*
X031348Y013750D02*
X031348Y013490D01*
X032348Y013490D02*
X032348Y013750D01*
X033348Y013750D02*
X033348Y013490D01*
X034348Y013490D02*
X034348Y013750D01*
X035348Y013750D02*
X035348Y013490D01*
X036348Y013490D02*
X036348Y013750D01*
X036348Y015240D02*
X036348Y015500D01*
X035348Y015500D02*
X035348Y015240D01*
X034348Y015240D02*
X034348Y015500D01*
X033348Y015500D02*
X033348Y015240D01*
X032348Y015240D02*
X032348Y015500D01*
X031348Y015500D02*
X031348Y015240D01*
X030348Y015240D02*
X030348Y015500D01*
X030348Y018240D02*
X030348Y018500D01*
X031348Y018500D02*
X031348Y018240D01*
X032348Y018240D02*
X032348Y018500D01*
X033348Y018500D02*
X033348Y018240D01*
X034348Y018240D02*
X034348Y018500D01*
X035348Y018500D02*
X035348Y018240D01*
X036348Y018240D02*
X036348Y018500D01*
X036348Y020240D02*
X036348Y020500D01*
X035348Y020500D02*
X035348Y020240D01*
X034348Y020240D02*
X034348Y020500D01*
X033348Y020500D02*
X033348Y020240D01*
X032348Y020240D02*
X032348Y020500D01*
X031348Y020500D02*
X031348Y020240D01*
X030348Y020240D02*
X030348Y020500D01*
X027598Y020500D02*
X027598Y020240D01*
X026598Y020240D02*
X026598Y020500D01*
X025598Y020500D02*
X025598Y020240D01*
X024598Y020240D02*
X024598Y020500D01*
X023598Y020500D02*
X023598Y020240D01*
X022598Y020240D02*
X022598Y020500D01*
X021598Y020500D02*
X021598Y020240D01*
X019098Y020000D02*
X019098Y019740D01*
X018098Y019740D02*
X018098Y020000D01*
X017098Y020000D02*
X017098Y019740D01*
X016098Y019740D02*
X016098Y020000D01*
X015098Y020000D02*
X015098Y019740D01*
X014098Y019740D02*
X014098Y020000D01*
X013098Y020000D02*
X013098Y019740D01*
X012098Y019740D02*
X012098Y020000D01*
X011098Y020000D02*
X011098Y019740D01*
X010098Y019740D02*
X010098Y020000D01*
X010098Y021740D02*
X010098Y022000D01*
X011098Y022000D02*
X011098Y021740D01*
X012098Y021740D02*
X012098Y022000D01*
X013098Y022000D02*
X013098Y021740D01*
X014098Y021740D02*
X014098Y022000D01*
X015098Y022000D02*
X015098Y021740D01*
X016098Y021740D02*
X016098Y022000D01*
X016098Y024740D02*
X016098Y025000D01*
X015098Y025000D02*
X015098Y024740D01*
X014098Y024740D02*
X014098Y025000D01*
X013098Y025000D02*
X013098Y024740D01*
X012098Y024740D02*
X012098Y025000D01*
X011098Y025000D02*
X011098Y024740D01*
X010098Y024740D02*
X010098Y025000D01*
X010598Y026990D02*
X010598Y027250D01*
X011598Y027250D02*
X011598Y026990D01*
X012598Y026990D02*
X012598Y027250D01*
X013598Y027250D02*
X013598Y026990D01*
X014598Y026990D02*
X014598Y027250D01*
X015598Y027250D02*
X015598Y026990D01*
X016598Y026990D02*
X016598Y027250D01*
X016598Y029990D02*
X016598Y030250D01*
X015598Y030250D02*
X015598Y029990D01*
X014598Y029990D02*
X014598Y030250D01*
X013598Y030250D02*
X013598Y029990D01*
X012598Y029990D02*
X012598Y030250D01*
X011598Y030250D02*
X011598Y029990D01*
X010598Y029990D02*
X010598Y030250D01*
X007978Y030120D02*
X007718Y030120D01*
X007718Y029120D02*
X007978Y029120D01*
X007978Y028120D02*
X007718Y028120D01*
X007718Y027120D02*
X007978Y027120D01*
X007978Y026120D02*
X007718Y026120D01*
X007718Y025120D02*
X007978Y025120D01*
X007978Y032120D02*
X007718Y032120D01*
X007718Y033120D02*
X007978Y033120D01*
X007978Y034120D02*
X007718Y034120D01*
X007718Y035120D02*
X007978Y035120D01*
X007978Y036120D02*
X007718Y036120D01*
X007718Y037120D02*
X007978Y037120D01*
X007978Y038120D02*
X007718Y038120D01*
X007718Y039120D02*
X007978Y039120D01*
X010848Y039000D02*
X010848Y038740D01*
X011848Y038740D02*
X011848Y039000D01*
X012848Y039000D02*
X012848Y038740D01*
X013848Y038740D02*
X013848Y039000D01*
X014848Y039000D02*
X014848Y038740D01*
X015848Y038740D02*
X015848Y039000D01*
X016848Y039000D02*
X016848Y038740D01*
X016848Y041740D02*
X016848Y042000D01*
X015848Y042000D02*
X015848Y041740D01*
X014848Y041740D02*
X014848Y042000D01*
X013848Y042000D02*
X013848Y041740D01*
X012848Y041740D02*
X012848Y042000D01*
X011848Y042000D02*
X011848Y041740D01*
X010848Y041740D02*
X010848Y042000D01*
X011348Y044990D02*
X011348Y045250D01*
X012348Y045250D02*
X012348Y044990D01*
X013348Y044990D02*
X013348Y045250D01*
X014348Y045250D02*
X014348Y044990D01*
X015348Y044990D02*
X015348Y045250D01*
X016348Y045250D02*
X016348Y044990D01*
X022348Y044990D02*
X022348Y045250D01*
X023348Y045250D02*
X023348Y044990D01*
X024348Y044990D02*
X024348Y045250D01*
X025348Y045250D02*
X025348Y044990D01*
X026348Y044990D02*
X026348Y045250D01*
X027348Y045250D02*
X027348Y044990D01*
X030348Y044250D02*
X030348Y043990D01*
X031348Y043990D02*
X031348Y044250D01*
X032348Y044250D02*
X032348Y043990D01*
X033348Y043990D02*
X033348Y044250D01*
X034348Y044250D02*
X034348Y043990D01*
X035348Y043990D02*
X035348Y044250D01*
X036348Y044250D02*
X036348Y043990D01*
X037348Y043990D02*
X037348Y044250D01*
X040348Y044250D02*
X040348Y043990D01*
X041348Y043990D02*
X041348Y044250D01*
X042348Y044250D02*
X042348Y043990D01*
X043348Y043990D02*
X043348Y044250D01*
X044348Y044250D02*
X044348Y043990D01*
X045348Y043990D02*
X045348Y044250D01*
X046348Y044250D02*
X046348Y043990D01*
X047348Y043990D02*
X047348Y044250D01*
X048348Y044250D02*
X048348Y043990D01*
X049348Y043990D02*
X049348Y044250D01*
X052348Y042750D02*
X052348Y042490D01*
X053348Y042490D02*
X053348Y042750D01*
X054348Y042750D02*
X054348Y042490D01*
X055348Y042490D02*
X055348Y042750D01*
X056348Y042750D02*
X056348Y042490D01*
X057348Y042490D02*
X057348Y042750D01*
X058348Y042750D02*
X058348Y042490D01*
X059348Y042490D02*
X059348Y042750D01*
X060348Y042750D02*
X060348Y042490D01*
X061348Y042490D02*
X061348Y042750D01*
X061348Y044990D02*
X061348Y045250D01*
X060348Y045250D02*
X060348Y044990D01*
X059348Y044990D02*
X059348Y045250D01*
X058348Y045250D02*
X058348Y044990D01*
X057348Y044990D02*
X057348Y045250D01*
X056348Y045250D02*
X056348Y044990D01*
X055348Y044990D02*
X055348Y045250D01*
X054348Y045250D02*
X054348Y044990D01*
X049348Y041250D02*
X049348Y040990D01*
X048348Y040990D02*
X048348Y041250D01*
X047348Y041250D02*
X047348Y040990D01*
X046348Y040990D02*
X046348Y041250D01*
X045348Y041250D02*
X045348Y040990D01*
X044348Y040990D02*
X044348Y041250D01*
X043348Y041250D02*
X043348Y040990D01*
X042348Y040990D02*
X042348Y041250D01*
X041348Y041250D02*
X041348Y040990D01*
X040348Y040990D02*
X040348Y041250D01*
X037348Y041250D02*
X037348Y040990D01*
X036348Y040990D02*
X036348Y041250D01*
X035348Y041250D02*
X035348Y040990D01*
X034348Y040990D02*
X034348Y041250D01*
X033348Y041250D02*
X033348Y040990D01*
X032348Y040990D02*
X032348Y041250D01*
X031348Y041250D02*
X031348Y040990D01*
X030348Y040990D02*
X030348Y041250D01*
X030348Y038500D02*
X030348Y038240D01*
X031348Y038240D02*
X031348Y038500D01*
X032348Y038500D02*
X032348Y038240D01*
X033348Y038240D02*
X033348Y038500D01*
X034348Y038500D02*
X034348Y038240D01*
X035348Y038240D02*
X035348Y038500D01*
X036348Y038500D02*
X036348Y038240D01*
X037348Y038240D02*
X037348Y038500D01*
X040348Y038490D02*
X040348Y038750D01*
X041348Y038750D02*
X041348Y038490D01*
X042348Y038490D02*
X042348Y038750D01*
X043348Y038750D02*
X043348Y038490D01*
X044348Y038490D02*
X044348Y038750D01*
X045348Y038750D02*
X045348Y038490D01*
X046348Y038490D02*
X046348Y038750D01*
X047348Y038750D02*
X047348Y038490D01*
X048348Y038490D02*
X048348Y038750D01*
X049348Y038750D02*
X049348Y038490D01*
X052348Y037750D02*
X052348Y037490D01*
X053348Y037490D02*
X053348Y037750D01*
X054348Y037750D02*
X054348Y037490D01*
X055348Y037490D02*
X055348Y037750D01*
X056348Y037750D02*
X056348Y037490D01*
X057348Y037490D02*
X057348Y037750D01*
X058348Y037750D02*
X058348Y037490D01*
X059348Y037490D02*
X059348Y037750D01*
X060348Y037750D02*
X060348Y037490D01*
X060348Y036250D02*
X060348Y035990D01*
X059348Y035990D02*
X059348Y036250D01*
X058348Y036250D02*
X058348Y035990D01*
X057348Y035990D02*
X057348Y036250D01*
X056348Y036250D02*
X056348Y035990D01*
X055348Y035990D02*
X055348Y036250D01*
X054348Y036250D02*
X054348Y035990D01*
X053348Y035990D02*
X053348Y036250D01*
X053348Y033250D02*
X053348Y032990D01*
X054348Y032990D02*
X054348Y033250D01*
X055348Y033250D02*
X055348Y032990D01*
X056348Y032990D02*
X056348Y033250D01*
X057348Y033250D02*
X057348Y032990D01*
X058348Y032990D02*
X058348Y033250D01*
X059348Y033250D02*
X059348Y032990D01*
X060348Y032990D02*
X060348Y033250D01*
X060348Y028750D02*
X060348Y028490D01*
X061348Y028490D02*
X061348Y028750D01*
X059348Y028750D02*
X059348Y028490D01*
X058348Y028490D02*
X058348Y028750D01*
X057348Y028750D02*
X057348Y028490D01*
X056348Y028490D02*
X056348Y028750D01*
X055348Y028750D02*
X055348Y028490D01*
X054348Y028490D02*
X054348Y028750D01*
X053348Y028750D02*
X053348Y028490D01*
X052348Y028490D02*
X052348Y028750D01*
X049348Y028750D02*
X049348Y028490D01*
X048348Y028490D02*
X048348Y028750D01*
X047348Y028750D02*
X047348Y028490D01*
X046348Y028490D02*
X046348Y028750D01*
X045348Y028750D02*
X045348Y028490D01*
X044348Y028490D02*
X044348Y028750D01*
X043348Y028750D02*
X043348Y028490D01*
X042348Y028490D02*
X042348Y028750D01*
X041348Y028750D02*
X041348Y028490D01*
X040348Y028490D02*
X040348Y028750D01*
X036348Y028750D02*
X036348Y028490D01*
X035348Y028490D02*
X035348Y028750D01*
X034348Y028750D02*
X034348Y028490D01*
X033348Y028490D02*
X033348Y028750D01*
X032348Y028750D02*
X032348Y028490D01*
X031348Y028490D02*
X031348Y028750D01*
X030348Y028750D02*
X030348Y028490D01*
X030348Y030240D02*
X030348Y030500D01*
X031348Y030500D02*
X031348Y030240D01*
X032348Y030240D02*
X032348Y030500D01*
X033348Y030500D02*
X033348Y030240D01*
X034348Y030240D02*
X034348Y030500D01*
X035348Y030500D02*
X035348Y030240D01*
X036348Y030240D02*
X036348Y030500D01*
X036348Y033240D02*
X036348Y033500D01*
X035348Y033500D02*
X035348Y033240D01*
X034348Y033240D02*
X034348Y033500D01*
X033348Y033500D02*
X033348Y033240D01*
X032348Y033240D02*
X032348Y033500D01*
X031348Y033500D02*
X031348Y033240D01*
X030348Y033240D02*
X030348Y033500D01*
X030348Y035240D02*
X030348Y035500D01*
X031348Y035500D02*
X031348Y035240D01*
X032348Y035240D02*
X032348Y035500D01*
X033348Y035500D02*
X033348Y035240D01*
X034348Y035240D02*
X034348Y035500D01*
X035348Y035500D02*
X035348Y035240D01*
X036348Y035240D02*
X036348Y035500D01*
X037348Y035500D02*
X037348Y035240D01*
X040348Y035490D02*
X040348Y035750D01*
X041348Y035750D02*
X041348Y035490D01*
X042348Y035490D02*
X042348Y035750D01*
X043348Y035750D02*
X043348Y035490D01*
X044348Y035490D02*
X044348Y035750D01*
X045348Y035750D02*
X045348Y035490D01*
X046348Y035490D02*
X046348Y035750D01*
X047348Y035750D02*
X047348Y035490D01*
X048348Y035490D02*
X048348Y035750D01*
X049348Y035750D02*
X049348Y035490D01*
X048348Y033750D02*
X048348Y033490D01*
X047348Y033490D02*
X047348Y033750D01*
X046348Y033750D02*
X046348Y033490D01*
X045348Y033490D02*
X045348Y033750D01*
X044348Y033750D02*
X044348Y033490D01*
X043348Y033490D02*
X043348Y033750D01*
X042348Y033750D02*
X042348Y033490D01*
X041348Y033490D02*
X041348Y033750D01*
X040348Y033750D02*
X040348Y033490D01*
X040348Y025750D02*
X040348Y025490D01*
X041348Y025490D02*
X041348Y025750D01*
X042348Y025750D02*
X042348Y025490D01*
X043348Y025490D02*
X043348Y025750D01*
X044348Y025750D02*
X044348Y025490D01*
X045348Y025490D02*
X045348Y025750D01*
X046348Y025750D02*
X046348Y025490D01*
X047348Y025490D02*
X047348Y025750D01*
X048348Y025750D02*
X048348Y025490D01*
X049348Y025490D02*
X049348Y025750D01*
X051348Y023750D02*
X051348Y023490D01*
X052348Y023490D02*
X052348Y023750D01*
X053348Y023750D02*
X053348Y023490D01*
X054348Y023490D02*
X054348Y023750D01*
X055348Y023750D02*
X055348Y023490D01*
X056348Y023490D02*
X056348Y023750D01*
X057348Y023750D02*
X057348Y023490D01*
X058348Y023490D02*
X058348Y023750D01*
X059348Y023750D02*
X059348Y023490D01*
X060348Y023490D02*
X060348Y023750D01*
X060348Y025490D02*
X060348Y025750D01*
X061348Y025750D02*
X061348Y025490D01*
X059348Y025490D02*
X059348Y025750D01*
X058348Y025750D02*
X058348Y025490D01*
X057348Y025490D02*
X057348Y025750D01*
X056348Y025750D02*
X056348Y025490D01*
X055348Y025490D02*
X055348Y025750D01*
X054348Y025750D02*
X054348Y025490D01*
X053348Y025490D02*
X053348Y025750D01*
X052348Y025750D02*
X052348Y025490D01*
X052348Y020750D02*
X052348Y020490D01*
X051348Y020490D02*
X051348Y020750D01*
X053348Y020750D02*
X053348Y020490D01*
X054348Y020490D02*
X054348Y020750D01*
X055348Y020750D02*
X055348Y020490D01*
X056348Y020490D02*
X056348Y020750D01*
X057348Y020750D02*
X057348Y020490D01*
X058348Y020490D02*
X058348Y020750D01*
X059348Y020750D02*
X059348Y020490D01*
X060348Y020490D02*
X060348Y020750D01*
X059348Y018750D02*
X059348Y018490D01*
X058348Y018490D02*
X058348Y018750D01*
X057348Y018750D02*
X057348Y018490D01*
X056348Y018490D02*
X056348Y018750D01*
X055348Y018750D02*
X055348Y018490D01*
X054348Y018490D02*
X054348Y018750D01*
X053348Y018750D02*
X053348Y018490D01*
X052348Y018490D02*
X052348Y018750D01*
X051348Y018750D02*
X051348Y018490D01*
X048348Y016250D02*
X048348Y015990D01*
X047348Y015990D02*
X047348Y016250D01*
X046348Y016250D02*
X046348Y015990D01*
X045348Y015990D02*
X045348Y016250D01*
X044348Y016250D02*
X044348Y015990D01*
X043348Y015990D02*
X043348Y016250D01*
X042348Y016250D02*
X042348Y015990D01*
X041348Y015990D02*
X041348Y016250D01*
X040348Y016250D02*
X040348Y015990D01*
X039348Y015990D02*
X039348Y016250D01*
X039848Y017490D02*
X039848Y017750D01*
X040848Y017750D02*
X040848Y017490D01*
X041848Y017490D02*
X041848Y017750D01*
X042848Y017750D02*
X042848Y017490D01*
X043848Y017490D02*
X043848Y017750D01*
X044848Y017750D02*
X044848Y017490D01*
X045848Y017490D02*
X045848Y017750D01*
X046848Y017750D02*
X046848Y017490D01*
X046848Y020490D02*
X046848Y020750D01*
X045848Y020750D02*
X045848Y020490D01*
X044848Y020490D02*
X044848Y020750D01*
X043848Y020750D02*
X043848Y020490D01*
X042848Y020490D02*
X042848Y020750D01*
X041848Y020750D02*
X041848Y020490D01*
X040848Y020490D02*
X040848Y020750D01*
X039848Y020750D02*
X039848Y020490D01*
X036348Y023240D02*
X036348Y023500D01*
X035348Y023500D02*
X035348Y023240D01*
X034348Y023240D02*
X034348Y023500D01*
X033348Y023500D02*
X033348Y023240D01*
X032348Y023240D02*
X032348Y023500D01*
X031348Y023500D02*
X031348Y023240D01*
X030348Y023240D02*
X030348Y023500D01*
X030348Y025490D02*
X030348Y025750D01*
X031348Y025750D02*
X031348Y025490D01*
X032348Y025490D02*
X032348Y025750D01*
X033348Y025750D02*
X033348Y025490D01*
X034348Y025490D02*
X034348Y025750D01*
X035348Y025750D02*
X035348Y025490D01*
X036348Y025490D02*
X036348Y025750D01*
X027598Y025500D02*
X027598Y025240D01*
X026598Y025240D02*
X026598Y025500D01*
X025598Y025500D02*
X025598Y025240D01*
X024598Y025240D02*
X024598Y025500D01*
X023598Y025500D02*
X023598Y025240D01*
X022598Y025240D02*
X022598Y025500D01*
X021598Y025500D02*
X021598Y025240D01*
X021598Y023500D02*
X021598Y023240D01*
X022598Y023240D02*
X022598Y023500D01*
X023598Y023500D02*
X023598Y023240D01*
X024598Y023240D02*
X024598Y023500D01*
X025598Y023500D02*
X025598Y023240D01*
X026598Y023240D02*
X026598Y023500D01*
X027598Y023500D02*
X027598Y023240D01*
X027598Y028240D02*
X027598Y028500D01*
X026598Y028500D02*
X026598Y028240D01*
X025598Y028240D02*
X025598Y028500D01*
X024598Y028500D02*
X024598Y028240D01*
X023598Y028240D02*
X023598Y028500D01*
X022598Y028500D02*
X022598Y028240D01*
X021598Y028240D02*
X021598Y028500D01*
X021598Y030240D02*
X021598Y030500D01*
X022598Y030500D02*
X022598Y030240D01*
X023598Y030240D02*
X023598Y030500D01*
X024598Y030500D02*
X024598Y030240D01*
X025598Y030240D02*
X025598Y030500D01*
X026598Y030500D02*
X026598Y030240D01*
X027598Y030240D02*
X027598Y030500D01*
X027598Y033240D02*
X027598Y033500D01*
X026598Y033500D02*
X026598Y033240D01*
X025598Y033240D02*
X025598Y033500D01*
X024598Y033500D02*
X024598Y033240D01*
X023598Y033240D02*
X023598Y033500D01*
X022598Y033500D02*
X022598Y033240D01*
X021598Y033240D02*
X021598Y033500D01*
X021598Y035240D02*
X021598Y035500D01*
X022598Y035500D02*
X022598Y035240D01*
X023598Y035240D02*
X023598Y035500D01*
X024598Y035500D02*
X024598Y035240D01*
X025598Y035240D02*
X025598Y035500D01*
X026598Y035500D02*
X026598Y035240D01*
X027598Y035240D02*
X027598Y035500D01*
X027598Y038240D02*
X027598Y038500D01*
X026598Y038500D02*
X026598Y038240D01*
X025598Y038240D02*
X025598Y038500D01*
X024598Y038500D02*
X024598Y038240D01*
X023598Y038240D02*
X023598Y038500D01*
X022598Y038500D02*
X022598Y038240D01*
X021598Y038240D02*
X021598Y038500D01*
X052348Y039490D02*
X052348Y039750D01*
X053348Y039750D02*
X053348Y039490D01*
X054348Y039490D02*
X054348Y039750D01*
X055348Y039750D02*
X055348Y039490D01*
X056348Y039490D02*
X056348Y039750D01*
X057348Y039750D02*
X057348Y039490D01*
X058348Y039490D02*
X058348Y039750D01*
X059348Y039750D02*
X059348Y039490D01*
X060348Y039490D02*
X060348Y039750D01*
X061348Y039750D02*
X061348Y039490D01*
X048348Y013250D02*
X048348Y012990D01*
X047348Y012990D02*
X047348Y013250D01*
X046348Y013250D02*
X046348Y012990D01*
X045348Y012990D02*
X045348Y013250D01*
X044348Y013250D02*
X044348Y012990D01*
X043348Y012990D02*
X043348Y013250D01*
X042348Y013250D02*
X042348Y012990D01*
X041348Y012990D02*
X041348Y013250D01*
X040348Y013250D02*
X040348Y012990D01*
X039348Y012990D02*
X039348Y013250D01*
X039348Y011750D02*
X039348Y011490D01*
X040348Y011490D02*
X040348Y011750D01*
X041348Y011750D02*
X041348Y011490D01*
X042348Y011490D02*
X042348Y011750D01*
X043348Y011750D02*
X043348Y011490D01*
X044348Y011490D02*
X044348Y011750D01*
X045348Y011750D02*
X045348Y011490D01*
X046348Y011490D02*
X046348Y011750D01*
X047348Y011750D02*
X047348Y011490D01*
X047848Y009250D02*
X047848Y008990D01*
X048848Y008990D02*
X048848Y009250D01*
X046848Y009250D02*
X046848Y008990D01*
X045848Y008990D02*
X045848Y009250D01*
X044848Y009250D02*
X044848Y008990D01*
X043848Y008990D02*
X043848Y009250D01*
X042848Y009250D02*
X042848Y008990D01*
X041848Y008990D02*
X041848Y009250D01*
X036348Y010490D02*
X036348Y010750D01*
X035348Y010750D02*
X035348Y010490D01*
X034348Y010490D02*
X034348Y010750D01*
X033348Y010750D02*
X033348Y010490D01*
X032348Y010490D02*
X032348Y010750D01*
X031348Y010750D02*
X031348Y010490D01*
X030348Y010490D02*
X030348Y010750D01*
X029348Y010750D02*
X029348Y010490D01*
X027348Y009250D02*
X027348Y008990D01*
X026348Y008990D02*
X026348Y009250D01*
X025348Y009250D02*
X025348Y008990D01*
X024348Y008990D02*
X024348Y009250D01*
X023348Y009250D02*
X023348Y008990D01*
X022348Y008990D02*
X022348Y009250D01*
X022098Y010490D02*
X022098Y010750D01*
X023098Y010750D02*
X023098Y010490D01*
X024098Y010490D02*
X024098Y010750D01*
X025098Y010750D02*
X025098Y010490D01*
X026098Y010490D02*
X026098Y010750D01*
X021098Y010750D02*
X021098Y010490D01*
X020098Y010490D02*
X020098Y010750D01*
X019098Y010750D02*
X019098Y010490D01*
D11*
X018098Y012620D03*
X018098Y013620D03*
X017348Y014870D03*
X016098Y014870D03*
X015098Y014870D03*
X014098Y014870D03*
X012098Y014870D03*
X010598Y014870D03*
X009598Y014870D03*
X008848Y014870D03*
X007598Y013620D03*
X007598Y012620D03*
X006848Y014870D03*
X009098Y018870D03*
X009098Y019870D03*
X009098Y023870D03*
X009098Y024870D03*
X010598Y031120D03*
X011598Y031120D03*
X020598Y032370D03*
X020598Y033370D03*
X020598Y037370D03*
X020598Y038370D03*
X029348Y038370D03*
X029348Y037370D03*
X029348Y033370D03*
X029348Y032370D03*
X029348Y028620D03*
X029348Y027620D03*
X029348Y024370D03*
X029348Y023370D03*
X029348Y018370D03*
X029348Y017370D03*
X026598Y014870D03*
X025598Y014870D03*
X024848Y014870D03*
X022848Y014870D03*
X021098Y014870D03*
X020098Y014870D03*
X019348Y014870D03*
X028348Y013620D03*
X028348Y012620D03*
X038348Y015120D03*
X038348Y016120D03*
X050348Y022620D03*
X050348Y023620D03*
X051348Y027620D03*
X051348Y028620D03*
X039348Y028620D03*
X039348Y027620D03*
X039348Y037620D03*
X039348Y038620D03*
X039348Y043120D03*
X039348Y044120D03*
X029348Y044120D03*
X029348Y043120D03*
X010848Y042870D03*
X009848Y042870D03*
X020598Y028370D03*
X020598Y027370D03*
X020598Y023370D03*
X020598Y022370D03*
X051348Y042620D03*
X051348Y043620D03*
D12*
X065848Y042620D03*
X063598Y009870D03*
D13*
X064598Y009870D03*
X064848Y011620D03*
X065848Y011620D03*
X065848Y012620D03*
X064848Y012620D03*
X064848Y013620D03*
X064848Y014620D03*
X065848Y014620D03*
X065848Y013620D03*
X065848Y015620D03*
X064848Y015620D03*
X064848Y016620D03*
X065848Y016620D03*
X065848Y017620D03*
X064848Y017620D03*
X064848Y018620D03*
X065848Y018620D03*
X065848Y019620D03*
X064848Y019620D03*
X064848Y020620D03*
X064848Y021620D03*
X065848Y021620D03*
X065848Y020620D03*
X065848Y022620D03*
X064848Y022620D03*
X064848Y023620D03*
X065848Y023620D03*
X065848Y024620D03*
X064848Y024620D03*
X064848Y025620D03*
X065848Y025620D03*
X065848Y026620D03*
X065848Y027620D03*
X064848Y027620D03*
X064848Y026620D03*
X063848Y026620D03*
X063848Y027620D03*
X063848Y028620D03*
X063848Y029620D03*
X063848Y030620D03*
X063848Y031620D03*
X063848Y032620D03*
X063848Y033620D03*
X063848Y034620D03*
X063848Y035620D03*
X063848Y036620D03*
X063848Y037620D03*
X063848Y038620D03*
X063848Y039620D03*
X063848Y040620D03*
X063848Y041620D03*
X063848Y042620D03*
X064848Y042620D03*
X064848Y041620D03*
X065848Y041620D03*
X065848Y040620D03*
X064848Y040620D03*
X064848Y039620D03*
X065848Y039620D03*
X065848Y038620D03*
X064848Y038620D03*
X064848Y037620D03*
X065848Y037620D03*
X065848Y036620D03*
X064848Y036620D03*
X064848Y035620D03*
X065848Y035620D03*
X065848Y034620D03*
X064848Y034620D03*
X064848Y033620D03*
X065848Y033620D03*
X065848Y032620D03*
X064848Y032620D03*
X064848Y031620D03*
X065848Y031620D03*
X065848Y030620D03*
X064848Y030620D03*
X064848Y029620D03*
X065848Y029620D03*
X065848Y028620D03*
X064848Y028620D03*
X063848Y025620D03*
X063848Y024620D03*
X063848Y023620D03*
X063848Y022620D03*
X063848Y021620D03*
X063848Y020620D03*
X063848Y019620D03*
X063848Y018620D03*
X063848Y017620D03*
X063848Y016620D03*
X063848Y015620D03*
X063848Y014620D03*
X063848Y013620D03*
X063848Y012620D03*
X063848Y011620D03*
D14*
X066848Y009620D03*
X066848Y044620D03*
X006348Y044620D03*
X006348Y009620D03*
D15*
X004948Y010430D02*
X004948Y007430D01*
X007948Y007430D01*
X004948Y043810D02*
X004948Y046810D01*
X007948Y046810D01*
X064948Y046810D02*
X067948Y046810D01*
X067948Y043810D01*
X067948Y010430D02*
X067948Y007430D01*
X064948Y007430D01*
D16*
X059348Y016471D02*
X059348Y016768D01*
X058348Y016768D02*
X058348Y016471D01*
X057348Y016471D02*
X057348Y016768D01*
X056348Y016768D02*
X056348Y016471D01*
X055348Y016471D02*
X055348Y016768D01*
X054348Y016768D02*
X054348Y016471D01*
X053348Y016471D02*
X053348Y016768D01*
X052348Y016768D02*
X052348Y016471D01*
X047848Y022471D02*
X047848Y022768D01*
X046848Y022768D02*
X046848Y022471D01*
X045848Y022471D02*
X045848Y022768D01*
X044848Y022768D02*
X044848Y022471D01*
X043848Y022471D02*
X043848Y022768D01*
X042848Y022768D02*
X042848Y022471D01*
X041848Y022471D02*
X041848Y022768D01*
X040848Y022768D02*
X040848Y022471D01*
X041348Y031471D02*
X041348Y031768D01*
X042348Y031768D02*
X042348Y031471D01*
X043348Y031471D02*
X043348Y031768D01*
X044348Y031768D02*
X044348Y031471D01*
X045348Y031471D02*
X045348Y031768D01*
X046348Y031768D02*
X046348Y031471D01*
X047348Y031471D02*
X047348Y031768D01*
X048348Y031768D02*
X048348Y031471D01*
X053348Y031268D02*
X053348Y030971D01*
X054348Y030971D02*
X054348Y031268D01*
X055348Y031268D02*
X055348Y030971D01*
X056348Y030971D02*
X056348Y031268D01*
X057348Y031268D02*
X057348Y030971D01*
X058348Y030971D02*
X058348Y031268D01*
X059348Y031268D02*
X059348Y030971D01*
X060348Y030971D02*
X060348Y031268D01*
X006246Y031120D02*
X005949Y031120D01*
X005949Y032120D02*
X006246Y032120D01*
X006246Y033120D02*
X005949Y033120D01*
X005949Y034120D02*
X006246Y034120D01*
X006246Y035120D02*
X005949Y035120D01*
X005949Y036120D02*
X006246Y036120D01*
X006246Y037120D02*
X005949Y037120D01*
X005949Y038120D02*
X006246Y038120D01*
X006246Y029120D02*
X005949Y029120D01*
X005949Y028120D02*
X006246Y028120D01*
X006246Y027120D02*
X005949Y027120D01*
X005949Y026120D02*
X006246Y026120D01*
X006246Y025120D02*
X005949Y025120D01*
X005949Y024120D02*
X006246Y024120D01*
X006246Y023120D02*
X005949Y023120D01*
X005949Y022120D02*
X006246Y022120D01*
M02*
