G75*
%MOIN*%
%OFA0B0*%
%FSLAX25Y25*%
%IPPOS*%
%LPD*%
%AMOC8*
5,1,8,0,0,1.08239X$1,22.5*
%
%ADD10C,0.00000*%
%ADD11R,0.05118X0.06299*%
%ADD12OC8,0.05543*%
%ADD13OC8,0.05200*%
%ADD14R,0.06299X0.05118*%
%ADD15R,0.08661X0.05906*%
%ADD16C,0.06000*%
%ADD17OC8,0.10000*%
%ADD18C,0.02400*%
%ADD19C,0.01600*%
%ADD20C,0.02000*%
D10*
X0001800Y0001800D02*
X0001800Y0188001D01*
X0446721Y0188001D01*
X0446721Y0001800D01*
X0001800Y0001800D01*
X0072800Y0041800D02*
X0072802Y0041961D01*
X0072808Y0042121D01*
X0072818Y0042282D01*
X0072832Y0042442D01*
X0072850Y0042602D01*
X0072871Y0042761D01*
X0072897Y0042920D01*
X0072927Y0043078D01*
X0072960Y0043235D01*
X0072998Y0043392D01*
X0073039Y0043547D01*
X0073084Y0043701D01*
X0073133Y0043854D01*
X0073186Y0044006D01*
X0073242Y0044157D01*
X0073303Y0044306D01*
X0073366Y0044454D01*
X0073434Y0044600D01*
X0073505Y0044744D01*
X0073579Y0044886D01*
X0073657Y0045027D01*
X0073739Y0045165D01*
X0073824Y0045302D01*
X0073912Y0045436D01*
X0074004Y0045568D01*
X0074099Y0045698D01*
X0074197Y0045826D01*
X0074298Y0045951D01*
X0074402Y0046073D01*
X0074509Y0046193D01*
X0074619Y0046310D01*
X0074732Y0046425D01*
X0074848Y0046536D01*
X0074967Y0046645D01*
X0075088Y0046750D01*
X0075212Y0046853D01*
X0075338Y0046953D01*
X0075466Y0047049D01*
X0075597Y0047142D01*
X0075731Y0047232D01*
X0075866Y0047319D01*
X0076004Y0047402D01*
X0076143Y0047482D01*
X0076285Y0047558D01*
X0076428Y0047631D01*
X0076573Y0047700D01*
X0076720Y0047766D01*
X0076868Y0047828D01*
X0077018Y0047886D01*
X0077169Y0047941D01*
X0077322Y0047992D01*
X0077476Y0048039D01*
X0077631Y0048082D01*
X0077787Y0048121D01*
X0077943Y0048157D01*
X0078101Y0048188D01*
X0078259Y0048216D01*
X0078418Y0048240D01*
X0078578Y0048260D01*
X0078738Y0048276D01*
X0078898Y0048288D01*
X0079059Y0048296D01*
X0079220Y0048300D01*
X0079380Y0048300D01*
X0079541Y0048296D01*
X0079702Y0048288D01*
X0079862Y0048276D01*
X0080022Y0048260D01*
X0080182Y0048240D01*
X0080341Y0048216D01*
X0080499Y0048188D01*
X0080657Y0048157D01*
X0080813Y0048121D01*
X0080969Y0048082D01*
X0081124Y0048039D01*
X0081278Y0047992D01*
X0081431Y0047941D01*
X0081582Y0047886D01*
X0081732Y0047828D01*
X0081880Y0047766D01*
X0082027Y0047700D01*
X0082172Y0047631D01*
X0082315Y0047558D01*
X0082457Y0047482D01*
X0082596Y0047402D01*
X0082734Y0047319D01*
X0082869Y0047232D01*
X0083003Y0047142D01*
X0083134Y0047049D01*
X0083262Y0046953D01*
X0083388Y0046853D01*
X0083512Y0046750D01*
X0083633Y0046645D01*
X0083752Y0046536D01*
X0083868Y0046425D01*
X0083981Y0046310D01*
X0084091Y0046193D01*
X0084198Y0046073D01*
X0084302Y0045951D01*
X0084403Y0045826D01*
X0084501Y0045698D01*
X0084596Y0045568D01*
X0084688Y0045436D01*
X0084776Y0045302D01*
X0084861Y0045165D01*
X0084943Y0045027D01*
X0085021Y0044886D01*
X0085095Y0044744D01*
X0085166Y0044600D01*
X0085234Y0044454D01*
X0085297Y0044306D01*
X0085358Y0044157D01*
X0085414Y0044006D01*
X0085467Y0043854D01*
X0085516Y0043701D01*
X0085561Y0043547D01*
X0085602Y0043392D01*
X0085640Y0043235D01*
X0085673Y0043078D01*
X0085703Y0042920D01*
X0085729Y0042761D01*
X0085750Y0042602D01*
X0085768Y0042442D01*
X0085782Y0042282D01*
X0085792Y0042121D01*
X0085798Y0041961D01*
X0085800Y0041800D01*
X0085798Y0041639D01*
X0085792Y0041479D01*
X0085782Y0041318D01*
X0085768Y0041158D01*
X0085750Y0040998D01*
X0085729Y0040839D01*
X0085703Y0040680D01*
X0085673Y0040522D01*
X0085640Y0040365D01*
X0085602Y0040208D01*
X0085561Y0040053D01*
X0085516Y0039899D01*
X0085467Y0039746D01*
X0085414Y0039594D01*
X0085358Y0039443D01*
X0085297Y0039294D01*
X0085234Y0039146D01*
X0085166Y0039000D01*
X0085095Y0038856D01*
X0085021Y0038714D01*
X0084943Y0038573D01*
X0084861Y0038435D01*
X0084776Y0038298D01*
X0084688Y0038164D01*
X0084596Y0038032D01*
X0084501Y0037902D01*
X0084403Y0037774D01*
X0084302Y0037649D01*
X0084198Y0037527D01*
X0084091Y0037407D01*
X0083981Y0037290D01*
X0083868Y0037175D01*
X0083752Y0037064D01*
X0083633Y0036955D01*
X0083512Y0036850D01*
X0083388Y0036747D01*
X0083262Y0036647D01*
X0083134Y0036551D01*
X0083003Y0036458D01*
X0082869Y0036368D01*
X0082734Y0036281D01*
X0082596Y0036198D01*
X0082457Y0036118D01*
X0082315Y0036042D01*
X0082172Y0035969D01*
X0082027Y0035900D01*
X0081880Y0035834D01*
X0081732Y0035772D01*
X0081582Y0035714D01*
X0081431Y0035659D01*
X0081278Y0035608D01*
X0081124Y0035561D01*
X0080969Y0035518D01*
X0080813Y0035479D01*
X0080657Y0035443D01*
X0080499Y0035412D01*
X0080341Y0035384D01*
X0080182Y0035360D01*
X0080022Y0035340D01*
X0079862Y0035324D01*
X0079702Y0035312D01*
X0079541Y0035304D01*
X0079380Y0035300D01*
X0079220Y0035300D01*
X0079059Y0035304D01*
X0078898Y0035312D01*
X0078738Y0035324D01*
X0078578Y0035340D01*
X0078418Y0035360D01*
X0078259Y0035384D01*
X0078101Y0035412D01*
X0077943Y0035443D01*
X0077787Y0035479D01*
X0077631Y0035518D01*
X0077476Y0035561D01*
X0077322Y0035608D01*
X0077169Y0035659D01*
X0077018Y0035714D01*
X0076868Y0035772D01*
X0076720Y0035834D01*
X0076573Y0035900D01*
X0076428Y0035969D01*
X0076285Y0036042D01*
X0076143Y0036118D01*
X0076004Y0036198D01*
X0075866Y0036281D01*
X0075731Y0036368D01*
X0075597Y0036458D01*
X0075466Y0036551D01*
X0075338Y0036647D01*
X0075212Y0036747D01*
X0075088Y0036850D01*
X0074967Y0036955D01*
X0074848Y0037064D01*
X0074732Y0037175D01*
X0074619Y0037290D01*
X0074509Y0037407D01*
X0074402Y0037527D01*
X0074298Y0037649D01*
X0074197Y0037774D01*
X0074099Y0037902D01*
X0074004Y0038032D01*
X0073912Y0038164D01*
X0073824Y0038298D01*
X0073739Y0038435D01*
X0073657Y0038573D01*
X0073579Y0038714D01*
X0073505Y0038856D01*
X0073434Y0039000D01*
X0073366Y0039146D01*
X0073303Y0039294D01*
X0073242Y0039443D01*
X0073186Y0039594D01*
X0073133Y0039746D01*
X0073084Y0039899D01*
X0073039Y0040053D01*
X0072998Y0040208D01*
X0072960Y0040365D01*
X0072927Y0040522D01*
X0072897Y0040680D01*
X0072871Y0040839D01*
X0072850Y0040998D01*
X0072832Y0041158D01*
X0072818Y0041318D01*
X0072808Y0041479D01*
X0072802Y0041639D01*
X0072800Y0041800D01*
X0072800Y0146800D02*
X0072802Y0146961D01*
X0072808Y0147121D01*
X0072818Y0147282D01*
X0072832Y0147442D01*
X0072850Y0147602D01*
X0072871Y0147761D01*
X0072897Y0147920D01*
X0072927Y0148078D01*
X0072960Y0148235D01*
X0072998Y0148392D01*
X0073039Y0148547D01*
X0073084Y0148701D01*
X0073133Y0148854D01*
X0073186Y0149006D01*
X0073242Y0149157D01*
X0073303Y0149306D01*
X0073366Y0149454D01*
X0073434Y0149600D01*
X0073505Y0149744D01*
X0073579Y0149886D01*
X0073657Y0150027D01*
X0073739Y0150165D01*
X0073824Y0150302D01*
X0073912Y0150436D01*
X0074004Y0150568D01*
X0074099Y0150698D01*
X0074197Y0150826D01*
X0074298Y0150951D01*
X0074402Y0151073D01*
X0074509Y0151193D01*
X0074619Y0151310D01*
X0074732Y0151425D01*
X0074848Y0151536D01*
X0074967Y0151645D01*
X0075088Y0151750D01*
X0075212Y0151853D01*
X0075338Y0151953D01*
X0075466Y0152049D01*
X0075597Y0152142D01*
X0075731Y0152232D01*
X0075866Y0152319D01*
X0076004Y0152402D01*
X0076143Y0152482D01*
X0076285Y0152558D01*
X0076428Y0152631D01*
X0076573Y0152700D01*
X0076720Y0152766D01*
X0076868Y0152828D01*
X0077018Y0152886D01*
X0077169Y0152941D01*
X0077322Y0152992D01*
X0077476Y0153039D01*
X0077631Y0153082D01*
X0077787Y0153121D01*
X0077943Y0153157D01*
X0078101Y0153188D01*
X0078259Y0153216D01*
X0078418Y0153240D01*
X0078578Y0153260D01*
X0078738Y0153276D01*
X0078898Y0153288D01*
X0079059Y0153296D01*
X0079220Y0153300D01*
X0079380Y0153300D01*
X0079541Y0153296D01*
X0079702Y0153288D01*
X0079862Y0153276D01*
X0080022Y0153260D01*
X0080182Y0153240D01*
X0080341Y0153216D01*
X0080499Y0153188D01*
X0080657Y0153157D01*
X0080813Y0153121D01*
X0080969Y0153082D01*
X0081124Y0153039D01*
X0081278Y0152992D01*
X0081431Y0152941D01*
X0081582Y0152886D01*
X0081732Y0152828D01*
X0081880Y0152766D01*
X0082027Y0152700D01*
X0082172Y0152631D01*
X0082315Y0152558D01*
X0082457Y0152482D01*
X0082596Y0152402D01*
X0082734Y0152319D01*
X0082869Y0152232D01*
X0083003Y0152142D01*
X0083134Y0152049D01*
X0083262Y0151953D01*
X0083388Y0151853D01*
X0083512Y0151750D01*
X0083633Y0151645D01*
X0083752Y0151536D01*
X0083868Y0151425D01*
X0083981Y0151310D01*
X0084091Y0151193D01*
X0084198Y0151073D01*
X0084302Y0150951D01*
X0084403Y0150826D01*
X0084501Y0150698D01*
X0084596Y0150568D01*
X0084688Y0150436D01*
X0084776Y0150302D01*
X0084861Y0150165D01*
X0084943Y0150027D01*
X0085021Y0149886D01*
X0085095Y0149744D01*
X0085166Y0149600D01*
X0085234Y0149454D01*
X0085297Y0149306D01*
X0085358Y0149157D01*
X0085414Y0149006D01*
X0085467Y0148854D01*
X0085516Y0148701D01*
X0085561Y0148547D01*
X0085602Y0148392D01*
X0085640Y0148235D01*
X0085673Y0148078D01*
X0085703Y0147920D01*
X0085729Y0147761D01*
X0085750Y0147602D01*
X0085768Y0147442D01*
X0085782Y0147282D01*
X0085792Y0147121D01*
X0085798Y0146961D01*
X0085800Y0146800D01*
X0085798Y0146639D01*
X0085792Y0146479D01*
X0085782Y0146318D01*
X0085768Y0146158D01*
X0085750Y0145998D01*
X0085729Y0145839D01*
X0085703Y0145680D01*
X0085673Y0145522D01*
X0085640Y0145365D01*
X0085602Y0145208D01*
X0085561Y0145053D01*
X0085516Y0144899D01*
X0085467Y0144746D01*
X0085414Y0144594D01*
X0085358Y0144443D01*
X0085297Y0144294D01*
X0085234Y0144146D01*
X0085166Y0144000D01*
X0085095Y0143856D01*
X0085021Y0143714D01*
X0084943Y0143573D01*
X0084861Y0143435D01*
X0084776Y0143298D01*
X0084688Y0143164D01*
X0084596Y0143032D01*
X0084501Y0142902D01*
X0084403Y0142774D01*
X0084302Y0142649D01*
X0084198Y0142527D01*
X0084091Y0142407D01*
X0083981Y0142290D01*
X0083868Y0142175D01*
X0083752Y0142064D01*
X0083633Y0141955D01*
X0083512Y0141850D01*
X0083388Y0141747D01*
X0083262Y0141647D01*
X0083134Y0141551D01*
X0083003Y0141458D01*
X0082869Y0141368D01*
X0082734Y0141281D01*
X0082596Y0141198D01*
X0082457Y0141118D01*
X0082315Y0141042D01*
X0082172Y0140969D01*
X0082027Y0140900D01*
X0081880Y0140834D01*
X0081732Y0140772D01*
X0081582Y0140714D01*
X0081431Y0140659D01*
X0081278Y0140608D01*
X0081124Y0140561D01*
X0080969Y0140518D01*
X0080813Y0140479D01*
X0080657Y0140443D01*
X0080499Y0140412D01*
X0080341Y0140384D01*
X0080182Y0140360D01*
X0080022Y0140340D01*
X0079862Y0140324D01*
X0079702Y0140312D01*
X0079541Y0140304D01*
X0079380Y0140300D01*
X0079220Y0140300D01*
X0079059Y0140304D01*
X0078898Y0140312D01*
X0078738Y0140324D01*
X0078578Y0140340D01*
X0078418Y0140360D01*
X0078259Y0140384D01*
X0078101Y0140412D01*
X0077943Y0140443D01*
X0077787Y0140479D01*
X0077631Y0140518D01*
X0077476Y0140561D01*
X0077322Y0140608D01*
X0077169Y0140659D01*
X0077018Y0140714D01*
X0076868Y0140772D01*
X0076720Y0140834D01*
X0076573Y0140900D01*
X0076428Y0140969D01*
X0076285Y0141042D01*
X0076143Y0141118D01*
X0076004Y0141198D01*
X0075866Y0141281D01*
X0075731Y0141368D01*
X0075597Y0141458D01*
X0075466Y0141551D01*
X0075338Y0141647D01*
X0075212Y0141747D01*
X0075088Y0141850D01*
X0074967Y0141955D01*
X0074848Y0142064D01*
X0074732Y0142175D01*
X0074619Y0142290D01*
X0074509Y0142407D01*
X0074402Y0142527D01*
X0074298Y0142649D01*
X0074197Y0142774D01*
X0074099Y0142902D01*
X0074004Y0143032D01*
X0073912Y0143164D01*
X0073824Y0143298D01*
X0073739Y0143435D01*
X0073657Y0143573D01*
X0073579Y0143714D01*
X0073505Y0143856D01*
X0073434Y0144000D01*
X0073366Y0144146D01*
X0073303Y0144294D01*
X0073242Y0144443D01*
X0073186Y0144594D01*
X0073133Y0144746D01*
X0073084Y0144899D01*
X0073039Y0145053D01*
X0072998Y0145208D01*
X0072960Y0145365D01*
X0072927Y0145522D01*
X0072897Y0145680D01*
X0072871Y0145839D01*
X0072850Y0145998D01*
X0072832Y0146158D01*
X0072818Y0146318D01*
X0072808Y0146479D01*
X0072802Y0146639D01*
X0072800Y0146800D01*
X0362800Y0146800D02*
X0362802Y0146961D01*
X0362808Y0147121D01*
X0362818Y0147282D01*
X0362832Y0147442D01*
X0362850Y0147602D01*
X0362871Y0147761D01*
X0362897Y0147920D01*
X0362927Y0148078D01*
X0362960Y0148235D01*
X0362998Y0148392D01*
X0363039Y0148547D01*
X0363084Y0148701D01*
X0363133Y0148854D01*
X0363186Y0149006D01*
X0363242Y0149157D01*
X0363303Y0149306D01*
X0363366Y0149454D01*
X0363434Y0149600D01*
X0363505Y0149744D01*
X0363579Y0149886D01*
X0363657Y0150027D01*
X0363739Y0150165D01*
X0363824Y0150302D01*
X0363912Y0150436D01*
X0364004Y0150568D01*
X0364099Y0150698D01*
X0364197Y0150826D01*
X0364298Y0150951D01*
X0364402Y0151073D01*
X0364509Y0151193D01*
X0364619Y0151310D01*
X0364732Y0151425D01*
X0364848Y0151536D01*
X0364967Y0151645D01*
X0365088Y0151750D01*
X0365212Y0151853D01*
X0365338Y0151953D01*
X0365466Y0152049D01*
X0365597Y0152142D01*
X0365731Y0152232D01*
X0365866Y0152319D01*
X0366004Y0152402D01*
X0366143Y0152482D01*
X0366285Y0152558D01*
X0366428Y0152631D01*
X0366573Y0152700D01*
X0366720Y0152766D01*
X0366868Y0152828D01*
X0367018Y0152886D01*
X0367169Y0152941D01*
X0367322Y0152992D01*
X0367476Y0153039D01*
X0367631Y0153082D01*
X0367787Y0153121D01*
X0367943Y0153157D01*
X0368101Y0153188D01*
X0368259Y0153216D01*
X0368418Y0153240D01*
X0368578Y0153260D01*
X0368738Y0153276D01*
X0368898Y0153288D01*
X0369059Y0153296D01*
X0369220Y0153300D01*
X0369380Y0153300D01*
X0369541Y0153296D01*
X0369702Y0153288D01*
X0369862Y0153276D01*
X0370022Y0153260D01*
X0370182Y0153240D01*
X0370341Y0153216D01*
X0370499Y0153188D01*
X0370657Y0153157D01*
X0370813Y0153121D01*
X0370969Y0153082D01*
X0371124Y0153039D01*
X0371278Y0152992D01*
X0371431Y0152941D01*
X0371582Y0152886D01*
X0371732Y0152828D01*
X0371880Y0152766D01*
X0372027Y0152700D01*
X0372172Y0152631D01*
X0372315Y0152558D01*
X0372457Y0152482D01*
X0372596Y0152402D01*
X0372734Y0152319D01*
X0372869Y0152232D01*
X0373003Y0152142D01*
X0373134Y0152049D01*
X0373262Y0151953D01*
X0373388Y0151853D01*
X0373512Y0151750D01*
X0373633Y0151645D01*
X0373752Y0151536D01*
X0373868Y0151425D01*
X0373981Y0151310D01*
X0374091Y0151193D01*
X0374198Y0151073D01*
X0374302Y0150951D01*
X0374403Y0150826D01*
X0374501Y0150698D01*
X0374596Y0150568D01*
X0374688Y0150436D01*
X0374776Y0150302D01*
X0374861Y0150165D01*
X0374943Y0150027D01*
X0375021Y0149886D01*
X0375095Y0149744D01*
X0375166Y0149600D01*
X0375234Y0149454D01*
X0375297Y0149306D01*
X0375358Y0149157D01*
X0375414Y0149006D01*
X0375467Y0148854D01*
X0375516Y0148701D01*
X0375561Y0148547D01*
X0375602Y0148392D01*
X0375640Y0148235D01*
X0375673Y0148078D01*
X0375703Y0147920D01*
X0375729Y0147761D01*
X0375750Y0147602D01*
X0375768Y0147442D01*
X0375782Y0147282D01*
X0375792Y0147121D01*
X0375798Y0146961D01*
X0375800Y0146800D01*
X0375798Y0146639D01*
X0375792Y0146479D01*
X0375782Y0146318D01*
X0375768Y0146158D01*
X0375750Y0145998D01*
X0375729Y0145839D01*
X0375703Y0145680D01*
X0375673Y0145522D01*
X0375640Y0145365D01*
X0375602Y0145208D01*
X0375561Y0145053D01*
X0375516Y0144899D01*
X0375467Y0144746D01*
X0375414Y0144594D01*
X0375358Y0144443D01*
X0375297Y0144294D01*
X0375234Y0144146D01*
X0375166Y0144000D01*
X0375095Y0143856D01*
X0375021Y0143714D01*
X0374943Y0143573D01*
X0374861Y0143435D01*
X0374776Y0143298D01*
X0374688Y0143164D01*
X0374596Y0143032D01*
X0374501Y0142902D01*
X0374403Y0142774D01*
X0374302Y0142649D01*
X0374198Y0142527D01*
X0374091Y0142407D01*
X0373981Y0142290D01*
X0373868Y0142175D01*
X0373752Y0142064D01*
X0373633Y0141955D01*
X0373512Y0141850D01*
X0373388Y0141747D01*
X0373262Y0141647D01*
X0373134Y0141551D01*
X0373003Y0141458D01*
X0372869Y0141368D01*
X0372734Y0141281D01*
X0372596Y0141198D01*
X0372457Y0141118D01*
X0372315Y0141042D01*
X0372172Y0140969D01*
X0372027Y0140900D01*
X0371880Y0140834D01*
X0371732Y0140772D01*
X0371582Y0140714D01*
X0371431Y0140659D01*
X0371278Y0140608D01*
X0371124Y0140561D01*
X0370969Y0140518D01*
X0370813Y0140479D01*
X0370657Y0140443D01*
X0370499Y0140412D01*
X0370341Y0140384D01*
X0370182Y0140360D01*
X0370022Y0140340D01*
X0369862Y0140324D01*
X0369702Y0140312D01*
X0369541Y0140304D01*
X0369380Y0140300D01*
X0369220Y0140300D01*
X0369059Y0140304D01*
X0368898Y0140312D01*
X0368738Y0140324D01*
X0368578Y0140340D01*
X0368418Y0140360D01*
X0368259Y0140384D01*
X0368101Y0140412D01*
X0367943Y0140443D01*
X0367787Y0140479D01*
X0367631Y0140518D01*
X0367476Y0140561D01*
X0367322Y0140608D01*
X0367169Y0140659D01*
X0367018Y0140714D01*
X0366868Y0140772D01*
X0366720Y0140834D01*
X0366573Y0140900D01*
X0366428Y0140969D01*
X0366285Y0141042D01*
X0366143Y0141118D01*
X0366004Y0141198D01*
X0365866Y0141281D01*
X0365731Y0141368D01*
X0365597Y0141458D01*
X0365466Y0141551D01*
X0365338Y0141647D01*
X0365212Y0141747D01*
X0365088Y0141850D01*
X0364967Y0141955D01*
X0364848Y0142064D01*
X0364732Y0142175D01*
X0364619Y0142290D01*
X0364509Y0142407D01*
X0364402Y0142527D01*
X0364298Y0142649D01*
X0364197Y0142774D01*
X0364099Y0142902D01*
X0364004Y0143032D01*
X0363912Y0143164D01*
X0363824Y0143298D01*
X0363739Y0143435D01*
X0363657Y0143573D01*
X0363579Y0143714D01*
X0363505Y0143856D01*
X0363434Y0144000D01*
X0363366Y0144146D01*
X0363303Y0144294D01*
X0363242Y0144443D01*
X0363186Y0144594D01*
X0363133Y0144746D01*
X0363084Y0144899D01*
X0363039Y0145053D01*
X0362998Y0145208D01*
X0362960Y0145365D01*
X0362927Y0145522D01*
X0362897Y0145680D01*
X0362871Y0145839D01*
X0362850Y0145998D01*
X0362832Y0146158D01*
X0362818Y0146318D01*
X0362808Y0146479D01*
X0362802Y0146639D01*
X0362800Y0146800D01*
X0362800Y0041800D02*
X0362802Y0041961D01*
X0362808Y0042121D01*
X0362818Y0042282D01*
X0362832Y0042442D01*
X0362850Y0042602D01*
X0362871Y0042761D01*
X0362897Y0042920D01*
X0362927Y0043078D01*
X0362960Y0043235D01*
X0362998Y0043392D01*
X0363039Y0043547D01*
X0363084Y0043701D01*
X0363133Y0043854D01*
X0363186Y0044006D01*
X0363242Y0044157D01*
X0363303Y0044306D01*
X0363366Y0044454D01*
X0363434Y0044600D01*
X0363505Y0044744D01*
X0363579Y0044886D01*
X0363657Y0045027D01*
X0363739Y0045165D01*
X0363824Y0045302D01*
X0363912Y0045436D01*
X0364004Y0045568D01*
X0364099Y0045698D01*
X0364197Y0045826D01*
X0364298Y0045951D01*
X0364402Y0046073D01*
X0364509Y0046193D01*
X0364619Y0046310D01*
X0364732Y0046425D01*
X0364848Y0046536D01*
X0364967Y0046645D01*
X0365088Y0046750D01*
X0365212Y0046853D01*
X0365338Y0046953D01*
X0365466Y0047049D01*
X0365597Y0047142D01*
X0365731Y0047232D01*
X0365866Y0047319D01*
X0366004Y0047402D01*
X0366143Y0047482D01*
X0366285Y0047558D01*
X0366428Y0047631D01*
X0366573Y0047700D01*
X0366720Y0047766D01*
X0366868Y0047828D01*
X0367018Y0047886D01*
X0367169Y0047941D01*
X0367322Y0047992D01*
X0367476Y0048039D01*
X0367631Y0048082D01*
X0367787Y0048121D01*
X0367943Y0048157D01*
X0368101Y0048188D01*
X0368259Y0048216D01*
X0368418Y0048240D01*
X0368578Y0048260D01*
X0368738Y0048276D01*
X0368898Y0048288D01*
X0369059Y0048296D01*
X0369220Y0048300D01*
X0369380Y0048300D01*
X0369541Y0048296D01*
X0369702Y0048288D01*
X0369862Y0048276D01*
X0370022Y0048260D01*
X0370182Y0048240D01*
X0370341Y0048216D01*
X0370499Y0048188D01*
X0370657Y0048157D01*
X0370813Y0048121D01*
X0370969Y0048082D01*
X0371124Y0048039D01*
X0371278Y0047992D01*
X0371431Y0047941D01*
X0371582Y0047886D01*
X0371732Y0047828D01*
X0371880Y0047766D01*
X0372027Y0047700D01*
X0372172Y0047631D01*
X0372315Y0047558D01*
X0372457Y0047482D01*
X0372596Y0047402D01*
X0372734Y0047319D01*
X0372869Y0047232D01*
X0373003Y0047142D01*
X0373134Y0047049D01*
X0373262Y0046953D01*
X0373388Y0046853D01*
X0373512Y0046750D01*
X0373633Y0046645D01*
X0373752Y0046536D01*
X0373868Y0046425D01*
X0373981Y0046310D01*
X0374091Y0046193D01*
X0374198Y0046073D01*
X0374302Y0045951D01*
X0374403Y0045826D01*
X0374501Y0045698D01*
X0374596Y0045568D01*
X0374688Y0045436D01*
X0374776Y0045302D01*
X0374861Y0045165D01*
X0374943Y0045027D01*
X0375021Y0044886D01*
X0375095Y0044744D01*
X0375166Y0044600D01*
X0375234Y0044454D01*
X0375297Y0044306D01*
X0375358Y0044157D01*
X0375414Y0044006D01*
X0375467Y0043854D01*
X0375516Y0043701D01*
X0375561Y0043547D01*
X0375602Y0043392D01*
X0375640Y0043235D01*
X0375673Y0043078D01*
X0375703Y0042920D01*
X0375729Y0042761D01*
X0375750Y0042602D01*
X0375768Y0042442D01*
X0375782Y0042282D01*
X0375792Y0042121D01*
X0375798Y0041961D01*
X0375800Y0041800D01*
X0375798Y0041639D01*
X0375792Y0041479D01*
X0375782Y0041318D01*
X0375768Y0041158D01*
X0375750Y0040998D01*
X0375729Y0040839D01*
X0375703Y0040680D01*
X0375673Y0040522D01*
X0375640Y0040365D01*
X0375602Y0040208D01*
X0375561Y0040053D01*
X0375516Y0039899D01*
X0375467Y0039746D01*
X0375414Y0039594D01*
X0375358Y0039443D01*
X0375297Y0039294D01*
X0375234Y0039146D01*
X0375166Y0039000D01*
X0375095Y0038856D01*
X0375021Y0038714D01*
X0374943Y0038573D01*
X0374861Y0038435D01*
X0374776Y0038298D01*
X0374688Y0038164D01*
X0374596Y0038032D01*
X0374501Y0037902D01*
X0374403Y0037774D01*
X0374302Y0037649D01*
X0374198Y0037527D01*
X0374091Y0037407D01*
X0373981Y0037290D01*
X0373868Y0037175D01*
X0373752Y0037064D01*
X0373633Y0036955D01*
X0373512Y0036850D01*
X0373388Y0036747D01*
X0373262Y0036647D01*
X0373134Y0036551D01*
X0373003Y0036458D01*
X0372869Y0036368D01*
X0372734Y0036281D01*
X0372596Y0036198D01*
X0372457Y0036118D01*
X0372315Y0036042D01*
X0372172Y0035969D01*
X0372027Y0035900D01*
X0371880Y0035834D01*
X0371732Y0035772D01*
X0371582Y0035714D01*
X0371431Y0035659D01*
X0371278Y0035608D01*
X0371124Y0035561D01*
X0370969Y0035518D01*
X0370813Y0035479D01*
X0370657Y0035443D01*
X0370499Y0035412D01*
X0370341Y0035384D01*
X0370182Y0035360D01*
X0370022Y0035340D01*
X0369862Y0035324D01*
X0369702Y0035312D01*
X0369541Y0035304D01*
X0369380Y0035300D01*
X0369220Y0035300D01*
X0369059Y0035304D01*
X0368898Y0035312D01*
X0368738Y0035324D01*
X0368578Y0035340D01*
X0368418Y0035360D01*
X0368259Y0035384D01*
X0368101Y0035412D01*
X0367943Y0035443D01*
X0367787Y0035479D01*
X0367631Y0035518D01*
X0367476Y0035561D01*
X0367322Y0035608D01*
X0367169Y0035659D01*
X0367018Y0035714D01*
X0366868Y0035772D01*
X0366720Y0035834D01*
X0366573Y0035900D01*
X0366428Y0035969D01*
X0366285Y0036042D01*
X0366143Y0036118D01*
X0366004Y0036198D01*
X0365866Y0036281D01*
X0365731Y0036368D01*
X0365597Y0036458D01*
X0365466Y0036551D01*
X0365338Y0036647D01*
X0365212Y0036747D01*
X0365088Y0036850D01*
X0364967Y0036955D01*
X0364848Y0037064D01*
X0364732Y0037175D01*
X0364619Y0037290D01*
X0364509Y0037407D01*
X0364402Y0037527D01*
X0364298Y0037649D01*
X0364197Y0037774D01*
X0364099Y0037902D01*
X0364004Y0038032D01*
X0363912Y0038164D01*
X0363824Y0038298D01*
X0363739Y0038435D01*
X0363657Y0038573D01*
X0363579Y0038714D01*
X0363505Y0038856D01*
X0363434Y0039000D01*
X0363366Y0039146D01*
X0363303Y0039294D01*
X0363242Y0039443D01*
X0363186Y0039594D01*
X0363133Y0039746D01*
X0363084Y0039899D01*
X0363039Y0040053D01*
X0362998Y0040208D01*
X0362960Y0040365D01*
X0362927Y0040522D01*
X0362897Y0040680D01*
X0362871Y0040839D01*
X0362850Y0040998D01*
X0362832Y0041158D01*
X0362818Y0041318D01*
X0362808Y0041479D01*
X0362802Y0041639D01*
X0362800Y0041800D01*
D11*
X0338040Y0036800D03*
X0330560Y0036800D03*
X0328040Y0054300D03*
X0320560Y0054300D03*
X0238040Y0036800D03*
X0230560Y0036800D03*
X0230540Y0051800D03*
X0223060Y0051800D03*
X0138040Y0054300D03*
X0130560Y0054300D03*
X0130560Y0036800D03*
X0138040Y0036800D03*
X0038040Y0036800D03*
X0030560Y0036800D03*
X0030560Y0054300D03*
X0038040Y0054300D03*
X0038040Y0136800D03*
X0030560Y0136800D03*
X0030560Y0154300D03*
X0038040Y0154300D03*
X0130560Y0154300D03*
X0138040Y0154300D03*
X0138040Y0136800D03*
X0130560Y0136800D03*
X0220560Y0154300D03*
X0228040Y0154300D03*
X0230560Y0136800D03*
X0238040Y0136800D03*
X0320560Y0136800D03*
X0328040Y0136800D03*
X0328040Y0154300D03*
X0320560Y0154300D03*
X0413060Y0136800D03*
X0420540Y0136800D03*
X0415540Y0036800D03*
X0408060Y0036800D03*
D12*
X0419300Y0026800D03*
X0419300Y0016800D03*
X0319300Y0016800D03*
X0319300Y0026800D03*
X0319300Y0066800D03*
X0319300Y0076800D03*
X0319300Y0116800D03*
X0319300Y0126800D03*
X0319300Y0166800D03*
X0319300Y0176800D03*
X0419300Y0176800D03*
X0419300Y0166800D03*
X0419300Y0126800D03*
X0419300Y0116800D03*
X0419300Y0076800D03*
X0419300Y0066800D03*
X0219300Y0066800D03*
X0219300Y0076800D03*
X0219300Y0116800D03*
X0219300Y0126800D03*
X0219300Y0166800D03*
X0219300Y0176800D03*
X0119300Y0176800D03*
X0119300Y0166800D03*
X0119300Y0126800D03*
X0119300Y0116800D03*
X0119300Y0076800D03*
X0119300Y0066800D03*
X0119300Y0026800D03*
X0119300Y0016800D03*
X0019300Y0016800D03*
X0019300Y0026800D03*
X0019300Y0066800D03*
X0019300Y0076800D03*
X0019300Y0116800D03*
X0019300Y0126800D03*
X0019300Y0166800D03*
X0019300Y0176800D03*
X0219300Y0026800D03*
X0219300Y0016800D03*
D13*
X0219300Y0036800D03*
X0249300Y0036800D03*
X0241800Y0051800D03*
X0211800Y0051800D03*
X0149300Y0054300D03*
X0119300Y0054300D03*
X0119300Y0036800D03*
X0149300Y0036800D03*
X0049300Y0036800D03*
X0019300Y0036800D03*
X0019300Y0054300D03*
X0049300Y0054300D03*
X0049300Y0136800D03*
X0019300Y0136800D03*
X0019300Y0154300D03*
X0049300Y0154300D03*
X0119300Y0154300D03*
X0149300Y0154300D03*
X0149300Y0136800D03*
X0119300Y0136800D03*
X0209300Y0154300D03*
X0239300Y0154300D03*
X0249300Y0136800D03*
X0219300Y0136800D03*
X0309300Y0136800D03*
X0339300Y0136800D03*
X0339300Y0154300D03*
X0309300Y0154300D03*
X0401800Y0146800D03*
X0401800Y0136800D03*
X0431800Y0136800D03*
X0401800Y0176800D03*
X0404300Y0076800D03*
X0339300Y0054300D03*
X0309300Y0054300D03*
X0319300Y0036800D03*
X0349300Y0036800D03*
X0396800Y0036800D03*
X0404300Y0046800D03*
X0426800Y0036800D03*
D14*
X0404300Y0058060D03*
X0404300Y0065540D03*
X0401800Y0158060D03*
X0401800Y0165540D03*
D15*
X0429300Y0165698D03*
X0429300Y0177902D03*
X0329300Y0177902D03*
X0329300Y0165698D03*
X0329300Y0127902D03*
X0329300Y0115698D03*
X0329300Y0077902D03*
X0329300Y0065698D03*
X0329300Y0027902D03*
X0329300Y0015698D03*
X0229300Y0015698D03*
X0229300Y0027902D03*
X0229300Y0065698D03*
X0229300Y0077902D03*
X0229300Y0115698D03*
X0229300Y0127902D03*
X0229300Y0165698D03*
X0229300Y0177902D03*
X0129300Y0177902D03*
X0129300Y0165698D03*
X0129300Y0127902D03*
X0129300Y0115698D03*
X0129300Y0077902D03*
X0129300Y0065698D03*
X0129300Y0027902D03*
X0129300Y0015698D03*
X0029300Y0015698D03*
X0029300Y0027902D03*
X0029300Y0065698D03*
X0029300Y0077902D03*
X0029300Y0115698D03*
X0029300Y0127902D03*
X0029300Y0165698D03*
X0029300Y0177902D03*
X0429300Y0127902D03*
X0429300Y0115698D03*
X0429300Y0077902D03*
X0429300Y0065698D03*
X0429300Y0027902D03*
X0429300Y0015698D03*
D16*
X0429300Y0093800D02*
X0429300Y0099800D01*
X0419300Y0099800D02*
X0419300Y0093800D01*
X0409300Y0093800D02*
X0409300Y0099800D01*
X0399300Y0099800D02*
X0399300Y0093800D01*
X0389300Y0093800D02*
X0389300Y0099800D01*
X0344300Y0099800D02*
X0344300Y0093800D01*
X0334300Y0093800D02*
X0334300Y0099800D01*
X0324300Y0099800D02*
X0324300Y0093800D01*
X0314300Y0093800D02*
X0314300Y0099800D01*
X0304300Y0099800D02*
X0304300Y0093800D01*
X0244300Y0093800D02*
X0244300Y0099800D01*
X0234300Y0099800D02*
X0234300Y0093800D01*
X0224300Y0093800D02*
X0224300Y0099800D01*
X0214300Y0099800D02*
X0214300Y0093800D01*
X0204300Y0093800D02*
X0204300Y0099800D01*
X0144300Y0099800D02*
X0144300Y0093800D01*
X0134300Y0093800D02*
X0134300Y0099800D01*
X0124300Y0099800D02*
X0124300Y0093800D01*
X0114300Y0093800D02*
X0114300Y0099800D01*
X0104300Y0099800D02*
X0104300Y0093800D01*
X0054300Y0093800D02*
X0054300Y0099800D01*
X0044300Y0099800D02*
X0044300Y0093800D01*
X0034300Y0093800D02*
X0034300Y0099800D01*
X0024300Y0099800D02*
X0024300Y0093800D01*
X0014300Y0093800D02*
X0014300Y0099800D01*
D17*
X0059300Y0179300D03*
X0096800Y0179300D03*
X0256800Y0179300D03*
X0276800Y0179300D03*
X0364300Y0179300D03*
X0364300Y0009300D03*
X0276800Y0009300D03*
X0256800Y0009300D03*
X0096800Y0009300D03*
X0059300Y0009300D03*
D18*
X0029300Y0015698D02*
X0028198Y0016800D01*
X0019300Y0016800D01*
X0014300Y0016800D01*
X0008050Y0023050D01*
X0008050Y0076800D01*
X0014300Y0083050D01*
X0014300Y0096800D01*
X0034300Y0096800D02*
X0034300Y0110698D01*
X0029300Y0115698D01*
X0028198Y0116800D01*
X0019300Y0116800D01*
X0019300Y0126800D02*
X0028198Y0126800D01*
X0029300Y0127902D01*
X0044300Y0104300D02*
X0059300Y0119300D01*
X0059300Y0160698D01*
X0054300Y0165698D01*
X0029300Y0165698D01*
X0028198Y0166800D02*
X0019300Y0166800D01*
X0010550Y0174300D02*
X0010550Y0156800D01*
X0013050Y0154300D01*
X0019300Y0154300D01*
X0030560Y0154300D01*
X0010550Y0174300D02*
X0013050Y0176800D01*
X0019300Y0176800D01*
X0028198Y0176800D01*
X0110550Y0174300D02*
X0110550Y0156800D01*
X0113050Y0154300D01*
X0119300Y0154300D01*
X0130560Y0154300D01*
X0129300Y0165698D02*
X0154300Y0165698D01*
X0159300Y0160698D01*
X0159300Y0129300D01*
X0134300Y0104300D01*
X0134300Y0096800D01*
X0124300Y0096800D02*
X0124300Y0106800D01*
X0129300Y0111800D01*
X0129300Y0115698D01*
X0128198Y0116800D01*
X0119300Y0116800D01*
X0119300Y0126800D02*
X0128198Y0126800D01*
X0129300Y0127902D01*
X0104300Y0096800D02*
X0104300Y0021800D01*
X0109300Y0016800D01*
X0119300Y0016800D01*
X0128198Y0016800D01*
X0129300Y0015698D01*
X0128198Y0026800D02*
X0119300Y0026800D01*
X0119300Y0036800D01*
X0130560Y0036800D02*
X0130560Y0027902D01*
X0129300Y0027902D02*
X0128198Y0026800D01*
X0130560Y0054300D02*
X0119300Y0054300D01*
X0114300Y0054300D01*
X0111800Y0056800D01*
X0111800Y0074300D01*
X0114300Y0076800D01*
X0119300Y0076800D01*
X0128198Y0076800D01*
X0129300Y0077902D01*
X0128198Y0066800D02*
X0119300Y0066800D01*
X0128198Y0066800D02*
X0129300Y0065698D01*
X0204300Y0096800D02*
X0204300Y0021800D01*
X0209300Y0016800D01*
X0219300Y0016800D01*
X0228198Y0016800D01*
X0229300Y0015698D01*
X0228198Y0026800D02*
X0219300Y0026800D01*
X0228198Y0026800D02*
X0229300Y0027902D01*
X0223060Y0051800D02*
X0211800Y0051800D01*
X0211800Y0069300D01*
X0219300Y0076800D01*
X0228198Y0076800D01*
X0229300Y0077902D01*
X0228198Y0066800D02*
X0219300Y0066800D01*
X0228198Y0066800D02*
X0229300Y0065698D01*
X0236800Y0065698D01*
X0234300Y0096800D02*
X0234300Y0104300D01*
X0256800Y0126800D01*
X0256800Y0160698D01*
X0251800Y0165698D01*
X0229300Y0165698D01*
X0228198Y0166800D01*
X0219300Y0166800D01*
X0209300Y0174300D02*
X0211800Y0176800D01*
X0219300Y0176800D01*
X0228198Y0176800D01*
X0229300Y0177902D01*
X0209300Y0174300D02*
X0209300Y0154300D01*
X0220560Y0154300D01*
X0219300Y0126800D02*
X0228198Y0126800D01*
X0229300Y0127902D01*
X0228198Y0116800D02*
X0219300Y0116800D01*
X0228198Y0116800D02*
X0229300Y0115698D01*
X0229300Y0111800D01*
X0224300Y0106800D01*
X0224300Y0096800D01*
X0304300Y0096800D02*
X0304300Y0021800D01*
X0309300Y0016800D01*
X0321800Y0016800D01*
X0328198Y0016800D01*
X0329300Y0015698D01*
X0321800Y0016800D02*
X0319300Y0016800D01*
X0319300Y0026800D02*
X0328198Y0026800D01*
X0329300Y0027902D01*
X0389300Y0021800D02*
X0394300Y0016800D01*
X0421800Y0016800D01*
X0428198Y0016800D01*
X0429300Y0015698D01*
X0421800Y0016800D02*
X0419300Y0016800D01*
X0419300Y0026800D02*
X0419300Y0036800D01*
X0426800Y0036800D01*
X0429300Y0027902D02*
X0428198Y0026800D01*
X0419300Y0026800D01*
X0389300Y0021800D02*
X0389300Y0096800D01*
X0399300Y0096800D02*
X0399300Y0090550D01*
X0404300Y0085550D01*
X0436800Y0085550D01*
X0439300Y0083050D01*
X0439300Y0068198D01*
X0436800Y0065698D01*
X0429300Y0065698D01*
X0428198Y0066800D01*
X0419300Y0066800D01*
X0404300Y0065540D02*
X0404300Y0076800D01*
X0419300Y0076800D01*
X0428198Y0076800D01*
X0429300Y0077902D01*
X0419300Y0096800D02*
X0419300Y0104300D01*
X0421800Y0106800D01*
X0436800Y0106800D01*
X0439300Y0109300D01*
X0439300Y0143198D01*
X0429300Y0153198D01*
X0429300Y0165698D01*
X0428198Y0166800D01*
X0419300Y0166800D01*
X0419300Y0176800D02*
X0429300Y0176800D01*
X0429300Y0177902D01*
X0346800Y0160698D02*
X0346800Y0116800D01*
X0334300Y0104300D01*
X0334300Y0096800D01*
X0324300Y0096800D02*
X0324300Y0106800D01*
X0329300Y0111800D01*
X0329300Y0115698D01*
X0328198Y0116800D01*
X0319300Y0116800D01*
X0319300Y0126800D02*
X0319300Y0135540D01*
X0320560Y0136800D02*
X0309300Y0136800D01*
X0319300Y0126800D02*
X0328198Y0126800D01*
X0329300Y0127902D01*
X0320560Y0154300D02*
X0309300Y0154300D01*
X0309300Y0174300D01*
X0311800Y0176800D01*
X0319300Y0176800D01*
X0328198Y0176800D01*
X0329300Y0177902D01*
X0328198Y0166800D02*
X0319300Y0166800D01*
X0328198Y0166800D02*
X0329300Y0165698D01*
X0341800Y0165698D01*
X0346800Y0160698D01*
X0419300Y0126800D02*
X0428198Y0126800D01*
X0429300Y0127902D01*
X0428198Y0116800D02*
X0419300Y0116800D01*
X0414300Y0116800D01*
X0409300Y0111800D01*
X0409300Y0096800D01*
X0428198Y0116800D02*
X0429300Y0115698D01*
X0339300Y0074300D02*
X0336800Y0076800D01*
X0328198Y0076800D01*
X0329300Y0077902D01*
X0328198Y0076800D02*
X0319300Y0076800D01*
X0314300Y0084300D02*
X0310550Y0080550D01*
X0310550Y0070550D01*
X0314300Y0066800D01*
X0319300Y0066800D01*
X0328198Y0066800D01*
X0329300Y0065698D01*
X0339300Y0069300D02*
X0339300Y0071800D01*
X0339300Y0074300D01*
X0339300Y0069300D02*
X0339300Y0054300D01*
X0328040Y0054300D01*
X0314300Y0084300D02*
X0314300Y0096800D01*
X0128198Y0166800D02*
X0119300Y0166800D01*
X0110550Y0174300D02*
X0113050Y0176800D01*
X0119300Y0176800D01*
X0128198Y0176800D01*
X0044300Y0104300D02*
X0044300Y0096800D01*
X0029300Y0077902D02*
X0028198Y0076800D01*
X0019300Y0076800D02*
X0014300Y0071800D01*
X0014300Y0059300D01*
X0019300Y0054300D01*
X0029300Y0065698D02*
X0028198Y0066800D01*
X0033050Y0039300D02*
X0016800Y0039300D01*
X0016800Y0024300D01*
X0033050Y0024300D01*
X0033050Y0039300D01*
X0033050Y0037778D02*
X0016800Y0037778D01*
X0016800Y0035379D02*
X0033050Y0035379D01*
X0033050Y0032981D02*
X0016800Y0032981D01*
X0016800Y0030582D02*
X0033050Y0030582D01*
X0033050Y0028184D02*
X0016800Y0028184D01*
X0016800Y0025785D02*
X0033050Y0025785D01*
X0029300Y0027902D02*
X0028198Y0026800D01*
X0019300Y0026800D01*
D19*
X0019300Y0036800D01*
X0013800Y0036967D02*
X0011050Y0036967D01*
X0011050Y0035369D02*
X0013800Y0035369D01*
X0013800Y0033770D02*
X0011050Y0033770D01*
X0011050Y0032172D02*
X0013800Y0032172D01*
X0013800Y0030573D02*
X0011050Y0030573D01*
X0011050Y0028975D02*
X0013800Y0028975D01*
X0013800Y0027376D02*
X0011050Y0027376D01*
X0011050Y0025778D02*
X0013800Y0025778D01*
X0013800Y0024179D02*
X0011163Y0024179D01*
X0011050Y0024293D02*
X0011050Y0075557D01*
X0015999Y0080507D01*
X0016843Y0081351D01*
X0017300Y0082453D01*
X0017300Y0090012D01*
X0018369Y0091081D01*
X0019100Y0092845D01*
X0019100Y0100755D01*
X0018369Y0102519D01*
X0017019Y0103869D01*
X0015255Y0104600D01*
X0013345Y0104600D01*
X0011581Y0103869D01*
X0010231Y0102519D01*
X0009500Y0100755D01*
X0009500Y0092845D01*
X0010231Y0091081D01*
X0011300Y0090012D01*
X0011300Y0084293D01*
X0005507Y0078499D01*
X0005050Y0077397D01*
X0005050Y0022453D01*
X0005507Y0021351D01*
X0006351Y0020507D01*
X0012601Y0014257D01*
X0013703Y0013800D01*
X0015835Y0013800D01*
X0017406Y0012228D01*
X0021194Y0012228D01*
X0022765Y0013800D01*
X0023169Y0013800D01*
X0023169Y0011999D01*
X0024224Y0010945D01*
X0034376Y0010945D01*
X0035431Y0011999D01*
X0035431Y0019396D01*
X0034376Y0020450D01*
X0024224Y0020450D01*
X0023573Y0019800D01*
X0022765Y0019800D01*
X0021265Y0021300D01*
X0033647Y0021300D01*
X0034749Y0021757D01*
X0035593Y0022601D01*
X0036050Y0023703D01*
X0036050Y0039897D01*
X0035593Y0040999D01*
X0034749Y0041843D01*
X0033647Y0042300D01*
X0016203Y0042300D01*
X0015101Y0041843D01*
X0014257Y0040999D01*
X0013800Y0039897D01*
X0013800Y0023703D01*
X0014257Y0022601D01*
X0015101Y0021757D01*
X0016203Y0021300D01*
X0017335Y0021300D01*
X0015835Y0019800D01*
X0015543Y0019800D01*
X0011050Y0024293D01*
X0012762Y0022581D02*
X0014277Y0022581D01*
X0014360Y0020982D02*
X0017017Y0020982D01*
X0021583Y0020982D02*
X0085550Y0020982D01*
X0085550Y0019384D02*
X0035431Y0019384D01*
X0035431Y0017785D02*
X0085550Y0017785D01*
X0085550Y0016187D02*
X0035431Y0016187D01*
X0035431Y0014588D02*
X0085550Y0014588D01*
X0085550Y0012990D02*
X0035431Y0012990D01*
X0034822Y0011391D02*
X0085550Y0011391D01*
X0085550Y0009793D02*
X0004600Y0009793D01*
X0004600Y0011391D02*
X0023778Y0011391D01*
X0023169Y0012990D02*
X0021955Y0012990D01*
X0016645Y0012990D02*
X0004600Y0012990D01*
X0004600Y0014588D02*
X0012269Y0014588D01*
X0010671Y0016187D02*
X0004600Y0016187D01*
X0004600Y0017785D02*
X0009072Y0017785D01*
X0007474Y0019384D02*
X0004600Y0019384D01*
X0004600Y0020982D02*
X0005875Y0020982D01*
X0005050Y0022581D02*
X0004600Y0022581D01*
X0004600Y0024179D02*
X0005050Y0024179D01*
X0005050Y0025778D02*
X0004600Y0025778D01*
X0004600Y0027376D02*
X0005050Y0027376D01*
X0005050Y0028975D02*
X0004600Y0028975D01*
X0004600Y0030573D02*
X0005050Y0030573D01*
X0005050Y0032172D02*
X0004600Y0032172D01*
X0004600Y0033770D02*
X0005050Y0033770D01*
X0005050Y0035369D02*
X0004600Y0035369D01*
X0004600Y0036967D02*
X0005050Y0036967D01*
X0005050Y0038566D02*
X0004600Y0038566D01*
X0004600Y0040164D02*
X0005050Y0040164D01*
X0005050Y0041763D02*
X0004600Y0041763D01*
X0004600Y0043361D02*
X0005050Y0043361D01*
X0005050Y0044960D02*
X0004600Y0044960D01*
X0004600Y0046558D02*
X0005050Y0046558D01*
X0005050Y0048157D02*
X0004600Y0048157D01*
X0004600Y0049755D02*
X0005050Y0049755D01*
X0005050Y0051354D02*
X0004600Y0051354D01*
X0004600Y0052952D02*
X0005050Y0052952D01*
X0005050Y0054551D02*
X0004600Y0054551D01*
X0004600Y0056149D02*
X0005050Y0056149D01*
X0005050Y0057748D02*
X0004600Y0057748D01*
X0004600Y0059346D02*
X0005050Y0059346D01*
X0005050Y0060945D02*
X0004600Y0060945D01*
X0004600Y0062543D02*
X0005050Y0062543D01*
X0005050Y0064142D02*
X0004600Y0064142D01*
X0004600Y0065740D02*
X0005050Y0065740D01*
X0005050Y0067339D02*
X0004600Y0067339D01*
X0004600Y0068937D02*
X0005050Y0068937D01*
X0005050Y0070536D02*
X0004600Y0070536D01*
X0004600Y0072134D02*
X0005050Y0072134D01*
X0005050Y0073733D02*
X0004600Y0073733D01*
X0004600Y0075332D02*
X0005050Y0075332D01*
X0005050Y0076930D02*
X0004600Y0076930D01*
X0004600Y0078529D02*
X0005536Y0078529D01*
X0004600Y0080127D02*
X0007134Y0080127D01*
X0008733Y0081726D02*
X0004600Y0081726D01*
X0004600Y0083324D02*
X0010331Y0083324D01*
X0011300Y0084923D02*
X0004600Y0084923D01*
X0004600Y0086521D02*
X0011300Y0086521D01*
X0011300Y0088120D02*
X0004600Y0088120D01*
X0004600Y0089718D02*
X0011300Y0089718D01*
X0010133Y0091317D02*
X0004600Y0091317D01*
X0004600Y0092915D02*
X0009500Y0092915D01*
X0009500Y0094514D02*
X0004600Y0094514D01*
X0004600Y0096112D02*
X0009500Y0096112D01*
X0009500Y0097711D02*
X0004600Y0097711D01*
X0004600Y0099309D02*
X0009500Y0099309D01*
X0009563Y0100908D02*
X0004600Y0100908D01*
X0004600Y0102506D02*
X0010225Y0102506D01*
X0012150Y0104105D02*
X0004600Y0104105D01*
X0004600Y0105703D02*
X0031300Y0105703D01*
X0031300Y0104105D02*
X0026450Y0104105D01*
X0027019Y0103869D02*
X0025255Y0104600D01*
X0023345Y0104600D01*
X0021581Y0103869D01*
X0020231Y0102519D01*
X0019500Y0100755D01*
X0019500Y0092845D01*
X0020231Y0091081D01*
X0021500Y0089812D01*
X0021500Y0087493D01*
X0021926Y0086464D01*
X0022714Y0085676D01*
X0025214Y0083176D01*
X0026243Y0082750D01*
X0035640Y0082750D01*
X0036500Y0081890D01*
X0036500Y0069357D01*
X0035640Y0068498D01*
X0035431Y0068498D01*
X0035431Y0069396D01*
X0034376Y0070450D01*
X0024224Y0070450D01*
X0023373Y0069600D01*
X0022965Y0069600D01*
X0021194Y0071372D01*
X0018114Y0071372D01*
X0018971Y0072228D01*
X0021194Y0072228D01*
X0022965Y0074000D01*
X0023373Y0074000D01*
X0024224Y0073150D01*
X0034376Y0073150D01*
X0035431Y0074204D01*
X0035431Y0081601D01*
X0034376Y0082655D01*
X0024224Y0082655D01*
X0023169Y0081601D01*
X0023169Y0079600D01*
X0022965Y0079600D01*
X0021194Y0081372D01*
X0017406Y0081372D01*
X0014728Y0078694D01*
X0014728Y0076471D01*
X0012601Y0074343D01*
X0011757Y0073499D01*
X0011300Y0072397D01*
X0011300Y0058703D01*
X0011757Y0057601D01*
X0014900Y0054457D01*
X0014900Y0052477D01*
X0017477Y0049900D01*
X0021123Y0049900D01*
X0022723Y0051500D01*
X0026201Y0051500D01*
X0026201Y0050405D01*
X0027255Y0049350D01*
X0033864Y0049350D01*
X0034919Y0050405D01*
X0034919Y0058195D01*
X0033864Y0059250D01*
X0027255Y0059250D01*
X0026201Y0058195D01*
X0026201Y0057100D01*
X0022723Y0057100D01*
X0021123Y0058700D01*
X0019143Y0058700D01*
X0017300Y0060543D01*
X0017300Y0062335D01*
X0017406Y0062228D01*
X0021194Y0062228D01*
X0022965Y0064000D01*
X0023169Y0064000D01*
X0023169Y0061999D01*
X0024224Y0060945D01*
X0034376Y0060945D01*
X0035431Y0061999D01*
X0035431Y0062898D01*
X0037357Y0062898D01*
X0038386Y0063324D01*
X0040886Y0065824D01*
X0041674Y0066612D01*
X0042100Y0067641D01*
X0042100Y0083607D01*
X0041674Y0084636D01*
X0039174Y0087136D01*
X0038386Y0087924D01*
X0037357Y0088350D01*
X0027960Y0088350D01*
X0027100Y0089210D01*
X0027100Y0089812D01*
X0028369Y0091081D01*
X0029100Y0092845D01*
X0029100Y0100755D01*
X0028369Y0102519D01*
X0027019Y0103869D01*
X0028375Y0102506D02*
X0030225Y0102506D01*
X0030231Y0102519D02*
X0029500Y0100755D01*
X0029500Y0092845D01*
X0030231Y0091081D01*
X0031581Y0089731D01*
X0033345Y0089000D01*
X0035255Y0089000D01*
X0037019Y0089731D01*
X0038369Y0091081D01*
X0039100Y0092845D01*
X0039100Y0100755D01*
X0038369Y0102519D01*
X0037300Y0103588D01*
X0037300Y0111294D01*
X0036843Y0112397D01*
X0035999Y0113241D01*
X0035431Y0113810D01*
X0035431Y0119396D01*
X0034376Y0120450D01*
X0024224Y0120450D01*
X0023573Y0119800D01*
X0022765Y0119800D01*
X0021194Y0121372D01*
X0017406Y0121372D01*
X0014728Y0118694D01*
X0014728Y0114906D01*
X0017406Y0112228D01*
X0021194Y0112228D01*
X0022765Y0113800D01*
X0023169Y0113800D01*
X0023169Y0111999D01*
X0024224Y0110945D01*
X0029810Y0110945D01*
X0031300Y0109455D01*
X0031300Y0103588D01*
X0030231Y0102519D01*
X0029563Y0100908D02*
X0029037Y0100908D01*
X0029100Y0099309D02*
X0029500Y0099309D01*
X0029500Y0097711D02*
X0029100Y0097711D01*
X0029100Y0096112D02*
X0029500Y0096112D01*
X0029500Y0094514D02*
X0029100Y0094514D01*
X0029100Y0092915D02*
X0029500Y0092915D01*
X0030133Y0091317D02*
X0028467Y0091317D01*
X0027100Y0089718D02*
X0031612Y0089718D01*
X0036988Y0089718D02*
X0041612Y0089718D01*
X0041581Y0089731D02*
X0043345Y0089000D01*
X0045255Y0089000D01*
X0047019Y0089731D01*
X0048369Y0091081D01*
X0049100Y0092845D01*
X0049100Y0100755D01*
X0048369Y0102519D01*
X0047565Y0103323D01*
X0060999Y0116757D01*
X0060999Y0116757D01*
X0061843Y0117601D01*
X0062300Y0118703D01*
X0062300Y0161294D01*
X0061843Y0162397D01*
X0056843Y0167397D01*
X0055999Y0168241D01*
X0054897Y0168698D01*
X0035431Y0168698D01*
X0035431Y0169396D01*
X0034376Y0170450D01*
X0024224Y0170450D01*
X0023573Y0169800D01*
X0022765Y0169800D01*
X0021194Y0171372D01*
X0017406Y0171372D01*
X0014728Y0168694D01*
X0014728Y0164906D01*
X0017406Y0162228D01*
X0021194Y0162228D01*
X0022765Y0163800D01*
X0023169Y0163800D01*
X0023169Y0161999D01*
X0024224Y0160945D01*
X0034376Y0160945D01*
X0035431Y0161999D01*
X0035431Y0162698D01*
X0053057Y0162698D01*
X0056300Y0159455D01*
X0056300Y0120543D01*
X0041757Y0105999D01*
X0041300Y0104897D01*
X0041300Y0103588D01*
X0040231Y0102519D01*
X0039500Y0100755D01*
X0039500Y0092845D01*
X0040231Y0091081D01*
X0041581Y0089731D01*
X0040133Y0091317D02*
X0038467Y0091317D01*
X0039100Y0092915D02*
X0039500Y0092915D01*
X0039500Y0094514D02*
X0039100Y0094514D01*
X0039100Y0096112D02*
X0039500Y0096112D01*
X0039500Y0097711D02*
X0039100Y0097711D01*
X0039100Y0099309D02*
X0039500Y0099309D01*
X0039563Y0100908D02*
X0039037Y0100908D01*
X0038375Y0102506D02*
X0040225Y0102506D01*
X0041300Y0104105D02*
X0037300Y0104105D01*
X0037300Y0105703D02*
X0041634Y0105703D01*
X0043059Y0107302D02*
X0037300Y0107302D01*
X0037300Y0108900D02*
X0044658Y0108900D01*
X0046256Y0110499D02*
X0037300Y0110499D01*
X0036967Y0112097D02*
X0047855Y0112097D01*
X0049453Y0113696D02*
X0035544Y0113696D01*
X0035431Y0115294D02*
X0051052Y0115294D01*
X0052650Y0116893D02*
X0035431Y0116893D01*
X0035431Y0118491D02*
X0054249Y0118491D01*
X0055847Y0120090D02*
X0034737Y0120090D01*
X0033567Y0121700D02*
X0017317Y0121700D01*
X0016283Y0121700D01*
X0015327Y0122096D01*
X0014596Y0122827D01*
X0014200Y0123783D01*
X0014200Y0139817D01*
X0014596Y0140773D01*
X0015327Y0141504D01*
X0016283Y0141900D01*
X0033567Y0141900D01*
X0034523Y0141504D01*
X0035254Y0140773D01*
X0035650Y0139817D01*
X0035650Y0123783D01*
X0035254Y0122827D01*
X0034523Y0122096D01*
X0033567Y0121700D01*
X0035445Y0123287D02*
X0056300Y0123287D01*
X0056300Y0124885D02*
X0035650Y0124885D01*
X0035650Y0126484D02*
X0056300Y0126484D01*
X0056300Y0128082D02*
X0035650Y0128082D01*
X0035650Y0129681D02*
X0056300Y0129681D01*
X0056300Y0131279D02*
X0035650Y0131279D01*
X0035650Y0132878D02*
X0056300Y0132878D01*
X0056300Y0134476D02*
X0035650Y0134476D01*
X0035650Y0136075D02*
X0056300Y0136075D01*
X0056300Y0137673D02*
X0035650Y0137673D01*
X0035650Y0139272D02*
X0056300Y0139272D01*
X0056300Y0140870D02*
X0035156Y0140870D01*
X0033050Y0139300D02*
X0016800Y0139300D01*
X0016800Y0124300D01*
X0033050Y0124300D01*
X0033050Y0139300D01*
X0033050Y0139272D02*
X0016800Y0139272D01*
X0016800Y0137673D02*
X0033050Y0137673D01*
X0033050Y0136075D02*
X0016800Y0136075D01*
X0016800Y0134476D02*
X0033050Y0134476D01*
X0033050Y0132878D02*
X0016800Y0132878D01*
X0016800Y0131279D02*
X0033050Y0131279D01*
X0033050Y0129681D02*
X0016800Y0129681D01*
X0016800Y0128082D02*
X0033050Y0128082D01*
X0033050Y0126484D02*
X0016800Y0126484D01*
X0016800Y0124885D02*
X0033050Y0124885D01*
X0029300Y0127902D02*
X0029300Y0135540D01*
X0030560Y0136800D01*
X0019300Y0136800D02*
X0019300Y0126800D01*
X0014200Y0126484D02*
X0004600Y0126484D01*
X0004600Y0128082D02*
X0014200Y0128082D01*
X0014200Y0129681D02*
X0004600Y0129681D01*
X0004600Y0131279D02*
X0014200Y0131279D01*
X0014200Y0132878D02*
X0004600Y0132878D01*
X0004600Y0134476D02*
X0014200Y0134476D01*
X0014200Y0136075D02*
X0004600Y0136075D01*
X0004600Y0137673D02*
X0014200Y0137673D01*
X0014200Y0139272D02*
X0004600Y0139272D01*
X0004600Y0140870D02*
X0014694Y0140870D01*
X0004600Y0142469D02*
X0056300Y0142469D01*
X0056300Y0144068D02*
X0004600Y0144068D01*
X0004600Y0145666D02*
X0056300Y0145666D01*
X0056300Y0147265D02*
X0004600Y0147265D01*
X0004600Y0148863D02*
X0056300Y0148863D01*
X0056300Y0150462D02*
X0034919Y0150462D01*
X0034919Y0150405D02*
X0033864Y0149350D01*
X0027255Y0149350D01*
X0026201Y0150405D01*
X0026201Y0151300D01*
X0022523Y0151300D01*
X0021123Y0149900D01*
X0017477Y0149900D01*
X0016077Y0151300D01*
X0012453Y0151300D01*
X0011351Y0151757D01*
X0010507Y0152601D01*
X0008007Y0155101D01*
X0007550Y0156203D01*
X0007550Y0174897D01*
X0008007Y0175999D01*
X0008851Y0176843D01*
X0011351Y0179343D01*
X0012453Y0179800D01*
X0015835Y0179800D01*
X0017406Y0181372D01*
X0021194Y0181372D01*
X0022765Y0179800D01*
X0023169Y0179800D01*
X0023169Y0181601D01*
X0024224Y0182655D01*
X0034376Y0182655D01*
X0035431Y0181601D01*
X0035431Y0174204D01*
X0034376Y0173150D01*
X0024224Y0173150D01*
X0023573Y0173800D01*
X0022765Y0173800D01*
X0021194Y0172228D01*
X0017406Y0172228D01*
X0015835Y0173800D01*
X0014293Y0173800D01*
X0013550Y0173057D01*
X0013550Y0158043D01*
X0014293Y0157300D01*
X0016077Y0157300D01*
X0017477Y0158700D01*
X0021123Y0158700D01*
X0022523Y0157300D01*
X0026201Y0157300D01*
X0026201Y0158195D01*
X0027255Y0159250D01*
X0033864Y0159250D01*
X0034919Y0158195D01*
X0034919Y0150405D01*
X0034919Y0152060D02*
X0056300Y0152060D01*
X0056300Y0153659D02*
X0034919Y0153659D01*
X0034919Y0155257D02*
X0056300Y0155257D01*
X0056300Y0156856D02*
X0034919Y0156856D01*
X0034660Y0158454D02*
X0056300Y0158454D01*
X0055702Y0160053D02*
X0013550Y0160053D01*
X0013550Y0161651D02*
X0023517Y0161651D01*
X0023169Y0163250D02*
X0022215Y0163250D01*
X0016385Y0163250D02*
X0013550Y0163250D01*
X0013550Y0164848D02*
X0014787Y0164848D01*
X0014728Y0166447D02*
X0013550Y0166447D01*
X0013550Y0168045D02*
X0014728Y0168045D01*
X0015678Y0169644D02*
X0013550Y0169644D01*
X0013550Y0171242D02*
X0017277Y0171242D01*
X0016794Y0172841D02*
X0013550Y0172841D01*
X0021323Y0171242D02*
X0085550Y0171242D01*
X0085550Y0169644D02*
X0035183Y0169644D01*
X0029300Y0165698D02*
X0028198Y0166800D01*
X0035083Y0161651D02*
X0054104Y0161651D01*
X0060991Y0163250D02*
X0085550Y0163250D01*
X0085550Y0164848D02*
X0059392Y0164848D01*
X0057794Y0166447D02*
X0085550Y0166447D01*
X0085550Y0168045D02*
X0056195Y0168045D01*
X0062152Y0161651D02*
X0085550Y0161651D01*
X0085550Y0160053D02*
X0083420Y0160053D01*
X0084944Y0159667D02*
X0080460Y0160802D01*
X0075851Y0160420D01*
X0071615Y0158562D01*
X0068213Y0155430D01*
X0066011Y0151362D01*
X0065250Y0146800D01*
X0066011Y0142238D01*
X0068213Y0138170D01*
X0071615Y0135038D01*
X0075851Y0133180D01*
X0080460Y0132798D01*
X0084944Y0133933D01*
X0085550Y0134329D01*
X0085550Y0054271D01*
X0084944Y0054667D01*
X0080460Y0055802D01*
X0075851Y0055420D01*
X0071615Y0053562D01*
X0068213Y0050430D01*
X0066011Y0046362D01*
X0065250Y0041800D01*
X0066011Y0037238D01*
X0068213Y0033170D01*
X0071615Y0030038D01*
X0075851Y0028180D01*
X0080460Y0027798D01*
X0084944Y0028933D01*
X0085550Y0029329D01*
X0085550Y0004600D01*
X0004600Y0004600D01*
X0004600Y0185201D01*
X0085550Y0185201D01*
X0085550Y0159271D01*
X0084944Y0159667D01*
X0089300Y0160053D02*
X0107550Y0160053D01*
X0107550Y0161651D02*
X0089300Y0161651D01*
X0089300Y0163250D02*
X0107550Y0163250D01*
X0107550Y0164848D02*
X0089300Y0164848D01*
X0089300Y0166447D02*
X0107550Y0166447D01*
X0107550Y0168045D02*
X0089300Y0168045D01*
X0089300Y0169644D02*
X0107550Y0169644D01*
X0107550Y0171242D02*
X0089300Y0171242D01*
X0089300Y0172841D02*
X0107550Y0172841D01*
X0107550Y0174439D02*
X0089300Y0174439D01*
X0089300Y0176038D02*
X0108045Y0176038D01*
X0108007Y0175999D02*
X0107550Y0174897D01*
X0107550Y0156203D01*
X0108007Y0155101D01*
X0108851Y0154257D01*
X0111351Y0151757D01*
X0112453Y0151300D01*
X0116077Y0151300D01*
X0117477Y0149900D01*
X0121123Y0149900D01*
X0122523Y0151300D01*
X0126201Y0151300D01*
X0126201Y0150405D01*
X0127255Y0149350D01*
X0133864Y0149350D01*
X0134919Y0150405D01*
X0134919Y0158195D01*
X0133864Y0159250D01*
X0127255Y0159250D01*
X0126201Y0158195D01*
X0126201Y0157300D01*
X0122523Y0157300D01*
X0121123Y0158700D01*
X0117477Y0158700D01*
X0116077Y0157300D01*
X0114293Y0157300D01*
X0113550Y0158043D01*
X0113550Y0173057D01*
X0114293Y0173800D01*
X0115835Y0173800D01*
X0117406Y0172228D01*
X0121194Y0172228D01*
X0122765Y0173800D01*
X0123573Y0173800D01*
X0124224Y0173150D01*
X0134376Y0173150D01*
X0135431Y0174204D01*
X0135431Y0181601D01*
X0134376Y0182655D01*
X0124224Y0182655D01*
X0123169Y0181601D01*
X0123169Y0179800D01*
X0122765Y0179800D01*
X0121194Y0181372D01*
X0117406Y0181372D01*
X0115835Y0179800D01*
X0112453Y0179800D01*
X0111351Y0179343D01*
X0110507Y0178499D01*
X0108007Y0175999D01*
X0109644Y0177636D02*
X0089300Y0177636D01*
X0089300Y0179235D02*
X0111242Y0179235D01*
X0116868Y0180833D02*
X0089300Y0180833D01*
X0089300Y0182432D02*
X0124000Y0182432D01*
X0123169Y0180833D02*
X0121732Y0180833D01*
X0128198Y0176800D02*
X0129300Y0177902D01*
X0135431Y0177636D02*
X0173050Y0177636D01*
X0173050Y0176038D02*
X0135431Y0176038D01*
X0135431Y0174439D02*
X0173050Y0174439D01*
X0173050Y0172841D02*
X0121806Y0172841D01*
X0121194Y0171372D02*
X0117406Y0171372D01*
X0114728Y0168694D01*
X0114728Y0164906D01*
X0117406Y0162228D01*
X0121194Y0162228D01*
X0122765Y0163800D01*
X0123169Y0163800D01*
X0123169Y0161999D01*
X0124224Y0160945D01*
X0134376Y0160945D01*
X0135431Y0161999D01*
X0135431Y0162698D01*
X0153057Y0162698D01*
X0156300Y0159455D01*
X0156300Y0130543D01*
X0131757Y0105999D01*
X0131300Y0104897D01*
X0131300Y0103588D01*
X0130231Y0102519D01*
X0129500Y0100755D01*
X0129500Y0092845D01*
X0130231Y0091081D01*
X0131581Y0089731D01*
X0133345Y0089000D01*
X0135255Y0089000D01*
X0137019Y0089731D01*
X0138369Y0091081D01*
X0139100Y0092845D01*
X0139100Y0100755D01*
X0138369Y0102519D01*
X0137565Y0103323D01*
X0161843Y0127601D01*
X0162300Y0128703D01*
X0162300Y0161294D01*
X0161843Y0162397D01*
X0156843Y0167397D01*
X0155999Y0168241D01*
X0154897Y0168698D01*
X0135431Y0168698D01*
X0135431Y0169396D01*
X0134376Y0170450D01*
X0124224Y0170450D01*
X0123573Y0169800D01*
X0122765Y0169800D01*
X0121194Y0171372D01*
X0121323Y0171242D02*
X0173050Y0171242D01*
X0173050Y0169644D02*
X0135183Y0169644D01*
X0129300Y0165698D02*
X0128198Y0166800D01*
X0123169Y0163250D02*
X0122215Y0163250D01*
X0123517Y0161651D02*
X0113550Y0161651D01*
X0113550Y0160053D02*
X0155702Y0160053D01*
X0156300Y0158454D02*
X0134660Y0158454D01*
X0134919Y0156856D02*
X0156300Y0156856D01*
X0156300Y0155257D02*
X0134919Y0155257D01*
X0134919Y0153659D02*
X0156300Y0153659D01*
X0156300Y0152060D02*
X0134919Y0152060D01*
X0134919Y0150462D02*
X0156300Y0150462D01*
X0156300Y0148863D02*
X0093158Y0148863D01*
X0093158Y0149113D02*
X0091657Y0153487D01*
X0089300Y0156515D01*
X0089300Y0185201D01*
X0173050Y0185201D01*
X0173050Y0004600D01*
X0089300Y0004600D01*
X0089300Y0032085D01*
X0091657Y0035113D01*
X0093158Y0039487D01*
X0093158Y0044113D01*
X0091657Y0048487D01*
X0089300Y0051515D01*
X0089300Y0137085D01*
X0091657Y0140113D01*
X0093158Y0144487D01*
X0093158Y0149113D01*
X0092695Y0150462D02*
X0116916Y0150462D01*
X0121684Y0150462D02*
X0126201Y0150462D01*
X0126460Y0158454D02*
X0121368Y0158454D01*
X0117232Y0158454D02*
X0113550Y0158454D01*
X0107942Y0155257D02*
X0090279Y0155257D01*
X0089300Y0156856D02*
X0107550Y0156856D01*
X0107550Y0158454D02*
X0089300Y0158454D01*
X0091523Y0153659D02*
X0109449Y0153659D01*
X0111047Y0152060D02*
X0092146Y0152060D01*
X0093158Y0147265D02*
X0156300Y0147265D01*
X0156300Y0145666D02*
X0093158Y0145666D01*
X0093014Y0144068D02*
X0156300Y0144068D01*
X0156300Y0142469D02*
X0092465Y0142469D01*
X0091917Y0140870D02*
X0114694Y0140870D01*
X0114596Y0140773D02*
X0114200Y0139817D01*
X0114200Y0123783D01*
X0114596Y0122827D01*
X0115327Y0122096D01*
X0116283Y0121700D01*
X0117317Y0121700D01*
X0133567Y0121700D01*
X0134523Y0122096D01*
X0135254Y0122827D01*
X0135650Y0123783D01*
X0135650Y0139817D01*
X0135254Y0140773D01*
X0134523Y0141504D01*
X0133567Y0141900D01*
X0116283Y0141900D01*
X0115327Y0141504D01*
X0114596Y0140773D01*
X0114200Y0139272D02*
X0091002Y0139272D01*
X0089758Y0137673D02*
X0114200Y0137673D01*
X0114200Y0136075D02*
X0089300Y0136075D01*
X0089300Y0134476D02*
X0114200Y0134476D01*
X0114200Y0132878D02*
X0089300Y0132878D01*
X0089300Y0131279D02*
X0114200Y0131279D01*
X0114200Y0129681D02*
X0089300Y0129681D01*
X0089300Y0128082D02*
X0114200Y0128082D01*
X0114200Y0126484D02*
X0089300Y0126484D01*
X0089300Y0124885D02*
X0114200Y0124885D01*
X0114405Y0123287D02*
X0089300Y0123287D01*
X0089300Y0121688D02*
X0147446Y0121688D01*
X0145847Y0120090D02*
X0134737Y0120090D01*
X0134376Y0120450D02*
X0135431Y0119396D01*
X0135431Y0111999D01*
X0134376Y0110945D01*
X0132193Y0110945D01*
X0131843Y0110101D01*
X0130999Y0109257D01*
X0127300Y0105557D01*
X0127300Y0103588D01*
X0128369Y0102519D01*
X0129100Y0100755D01*
X0129100Y0092845D01*
X0128369Y0091081D01*
X0127019Y0089731D01*
X0125255Y0089000D01*
X0123345Y0089000D01*
X0121581Y0089731D01*
X0120231Y0091081D01*
X0119500Y0092845D01*
X0119500Y0100755D01*
X0120231Y0102519D01*
X0121300Y0103588D01*
X0121300Y0107397D01*
X0121757Y0108499D01*
X0124213Y0110956D01*
X0123169Y0111999D01*
X0123169Y0113800D01*
X0122765Y0113800D01*
X0121194Y0112228D01*
X0117406Y0112228D01*
X0114728Y0114906D01*
X0114728Y0118694D01*
X0117406Y0121372D01*
X0121194Y0121372D01*
X0122765Y0119800D01*
X0123573Y0119800D01*
X0124224Y0120450D01*
X0134376Y0120450D01*
X0135431Y0118491D02*
X0144249Y0118491D01*
X0142650Y0116893D02*
X0135431Y0116893D01*
X0135431Y0115294D02*
X0141052Y0115294D01*
X0139453Y0113696D02*
X0135431Y0113696D01*
X0135431Y0112097D02*
X0137855Y0112097D01*
X0136256Y0110499D02*
X0132008Y0110499D01*
X0130643Y0108900D02*
X0134658Y0108900D01*
X0133059Y0107302D02*
X0129044Y0107302D01*
X0127446Y0105703D02*
X0131634Y0105703D01*
X0131300Y0104105D02*
X0127300Y0104105D01*
X0128375Y0102506D02*
X0130225Y0102506D01*
X0129563Y0100908D02*
X0129037Y0100908D01*
X0129100Y0099309D02*
X0129500Y0099309D01*
X0129500Y0097711D02*
X0129100Y0097711D01*
X0129100Y0096112D02*
X0129500Y0096112D01*
X0129500Y0094514D02*
X0129100Y0094514D01*
X0129100Y0092915D02*
X0129500Y0092915D01*
X0130133Y0091317D02*
X0128467Y0091317D01*
X0126988Y0089718D02*
X0131612Y0089718D01*
X0136988Y0089718D02*
X0173050Y0089718D01*
X0173050Y0088120D02*
X0137913Y0088120D01*
X0138386Y0087924D02*
X0137357Y0088350D01*
X0117960Y0088350D01*
X0117100Y0089210D01*
X0117100Y0089812D01*
X0118369Y0091081D01*
X0119100Y0092845D01*
X0119100Y0100755D01*
X0118369Y0102519D01*
X0117019Y0103869D01*
X0115255Y0104600D01*
X0113345Y0104600D01*
X0111581Y0103869D01*
X0110231Y0102519D01*
X0109500Y0100755D01*
X0109500Y0092845D01*
X0110231Y0091081D01*
X0111500Y0089812D01*
X0111500Y0087493D01*
X0111926Y0086464D01*
X0112714Y0085676D01*
X0115214Y0083176D01*
X0116243Y0082750D01*
X0135640Y0082750D01*
X0136500Y0081890D01*
X0136500Y0070460D01*
X0135640Y0069600D01*
X0135227Y0069600D01*
X0134376Y0070450D01*
X0124224Y0070450D01*
X0123573Y0069800D01*
X0122765Y0069800D01*
X0121194Y0071372D01*
X0117406Y0071372D01*
X0114800Y0068765D01*
X0114800Y0073057D01*
X0115543Y0073800D01*
X0115835Y0073800D01*
X0117406Y0072228D01*
X0121194Y0072228D01*
X0122765Y0073800D01*
X0123573Y0073800D01*
X0124224Y0073150D01*
X0134376Y0073150D01*
X0135431Y0074204D01*
X0135431Y0081601D01*
X0134376Y0082655D01*
X0124224Y0082655D01*
X0123169Y0081601D01*
X0123169Y0079800D01*
X0122765Y0079800D01*
X0121194Y0081372D01*
X0117406Y0081372D01*
X0115835Y0079800D01*
X0113703Y0079800D01*
X0112601Y0079343D01*
X0111757Y0078499D01*
X0110101Y0076843D01*
X0109257Y0075999D01*
X0108800Y0074897D01*
X0108800Y0056203D01*
X0109257Y0055101D01*
X0111757Y0052601D01*
X0112601Y0051757D01*
X0113703Y0051300D01*
X0116077Y0051300D01*
X0117477Y0049900D01*
X0121123Y0049900D01*
X0122523Y0051300D01*
X0126201Y0051300D01*
X0126201Y0050405D01*
X0127255Y0049350D01*
X0133864Y0049350D01*
X0134919Y0050405D01*
X0134919Y0058195D01*
X0133864Y0059250D01*
X0127255Y0059250D01*
X0126201Y0058195D01*
X0126201Y0057300D01*
X0122523Y0057300D01*
X0121123Y0058700D01*
X0117477Y0058700D01*
X0116077Y0057300D01*
X0115543Y0057300D01*
X0114800Y0058043D01*
X0114800Y0064835D01*
X0117406Y0062228D01*
X0121194Y0062228D01*
X0122765Y0063800D01*
X0123169Y0063800D01*
X0123169Y0061999D01*
X0124224Y0060945D01*
X0134376Y0060945D01*
X0135431Y0061999D01*
X0135431Y0064000D01*
X0137357Y0064000D01*
X0138386Y0064426D01*
X0140886Y0066926D01*
X0141674Y0067714D01*
X0142100Y0068743D01*
X0142100Y0083607D01*
X0141674Y0084636D01*
X0139174Y0087136D01*
X0138386Y0087924D01*
X0139789Y0086521D02*
X0173050Y0086521D01*
X0173050Y0084923D02*
X0141387Y0084923D01*
X0142100Y0083324D02*
X0173050Y0083324D01*
X0173050Y0081726D02*
X0142100Y0081726D01*
X0142100Y0080127D02*
X0173050Y0080127D01*
X0173050Y0078529D02*
X0142100Y0078529D01*
X0142100Y0076930D02*
X0173050Y0076930D01*
X0173050Y0075332D02*
X0142100Y0075332D01*
X0142100Y0073733D02*
X0173050Y0073733D01*
X0173050Y0072134D02*
X0142100Y0072134D01*
X0142100Y0070536D02*
X0173050Y0070536D01*
X0173050Y0068937D02*
X0142100Y0068937D01*
X0141299Y0067339D02*
X0173050Y0067339D01*
X0173050Y0065740D02*
X0139700Y0065740D01*
X0137700Y0064142D02*
X0173050Y0064142D01*
X0173050Y0062543D02*
X0135431Y0062543D01*
X0134376Y0060945D02*
X0173050Y0060945D01*
X0173050Y0059346D02*
X0114800Y0059346D01*
X0114800Y0060945D02*
X0124224Y0060945D01*
X0123169Y0062543D02*
X0121509Y0062543D01*
X0117091Y0062543D02*
X0114800Y0062543D01*
X0114800Y0064142D02*
X0115493Y0064142D01*
X0108800Y0064142D02*
X0107300Y0064142D01*
X0107300Y0065740D02*
X0108800Y0065740D01*
X0108800Y0067339D02*
X0107300Y0067339D01*
X0107300Y0068937D02*
X0108800Y0068937D01*
X0108800Y0070536D02*
X0107300Y0070536D01*
X0107300Y0072134D02*
X0108800Y0072134D01*
X0108800Y0073733D02*
X0107300Y0073733D01*
X0107300Y0075332D02*
X0108980Y0075332D01*
X0110187Y0076930D02*
X0107300Y0076930D01*
X0107300Y0078529D02*
X0111786Y0078529D01*
X0116162Y0080127D02*
X0107300Y0080127D01*
X0107300Y0081726D02*
X0123294Y0081726D01*
X0123169Y0080127D02*
X0122438Y0080127D01*
X0115066Y0083324D02*
X0107300Y0083324D01*
X0107300Y0084923D02*
X0113468Y0084923D01*
X0111903Y0086521D02*
X0107300Y0086521D01*
X0107300Y0088120D02*
X0111500Y0088120D01*
X0111500Y0089718D02*
X0107300Y0089718D01*
X0107300Y0090012D02*
X0108369Y0091081D01*
X0109100Y0092845D01*
X0109100Y0100755D01*
X0108369Y0102519D01*
X0107019Y0103869D01*
X0105255Y0104600D01*
X0103345Y0104600D01*
X0101581Y0103869D01*
X0100231Y0102519D01*
X0099500Y0100755D01*
X0099500Y0092845D01*
X0100231Y0091081D01*
X0101300Y0090012D01*
X0101300Y0021203D01*
X0101757Y0020101D01*
X0106757Y0015101D01*
X0107601Y0014257D01*
X0108703Y0013800D01*
X0115835Y0013800D01*
X0117406Y0012228D01*
X0121194Y0012228D01*
X0122765Y0013800D01*
X0123169Y0013800D01*
X0123169Y0011999D01*
X0124224Y0010945D01*
X0134376Y0010945D01*
X0135431Y0011999D01*
X0135431Y0019396D01*
X0134376Y0020450D01*
X0124224Y0020450D01*
X0123573Y0019800D01*
X0122765Y0019800D01*
X0121194Y0021372D01*
X0117406Y0021372D01*
X0115835Y0019800D01*
X0110543Y0019800D01*
X0107300Y0023043D01*
X0107300Y0090012D01*
X0108467Y0091317D02*
X0110133Y0091317D01*
X0109500Y0092915D02*
X0109100Y0092915D01*
X0109100Y0094514D02*
X0109500Y0094514D01*
X0109500Y0096112D02*
X0109100Y0096112D01*
X0109100Y0097711D02*
X0109500Y0097711D01*
X0109500Y0099309D02*
X0109100Y0099309D01*
X0109037Y0100908D02*
X0109563Y0100908D01*
X0110225Y0102506D02*
X0108375Y0102506D01*
X0106450Y0104105D02*
X0112150Y0104105D01*
X0116450Y0104105D02*
X0121300Y0104105D01*
X0121300Y0105703D02*
X0089300Y0105703D01*
X0089300Y0104105D02*
X0102150Y0104105D01*
X0100225Y0102506D02*
X0089300Y0102506D01*
X0089300Y0100908D02*
X0099563Y0100908D01*
X0099500Y0099309D02*
X0089300Y0099309D01*
X0089300Y0097711D02*
X0099500Y0097711D01*
X0099500Y0096112D02*
X0089300Y0096112D01*
X0089300Y0094514D02*
X0099500Y0094514D01*
X0099500Y0092915D02*
X0089300Y0092915D01*
X0089300Y0091317D02*
X0100133Y0091317D01*
X0101300Y0089718D02*
X0089300Y0089718D01*
X0089300Y0088120D02*
X0101300Y0088120D01*
X0101300Y0086521D02*
X0089300Y0086521D01*
X0089300Y0084923D02*
X0101300Y0084923D01*
X0101300Y0083324D02*
X0089300Y0083324D01*
X0089300Y0081726D02*
X0101300Y0081726D01*
X0101300Y0080127D02*
X0089300Y0080127D01*
X0089300Y0078529D02*
X0101300Y0078529D01*
X0101300Y0076930D02*
X0089300Y0076930D01*
X0089300Y0075332D02*
X0101300Y0075332D01*
X0101300Y0073733D02*
X0089300Y0073733D01*
X0089300Y0072134D02*
X0101300Y0072134D01*
X0101300Y0070536D02*
X0089300Y0070536D01*
X0089300Y0068937D02*
X0101300Y0068937D01*
X0101300Y0067339D02*
X0089300Y0067339D01*
X0089300Y0065740D02*
X0101300Y0065740D01*
X0101300Y0064142D02*
X0089300Y0064142D01*
X0089300Y0062543D02*
X0101300Y0062543D01*
X0101300Y0060945D02*
X0089300Y0060945D01*
X0089300Y0059346D02*
X0101300Y0059346D01*
X0101300Y0057748D02*
X0089300Y0057748D01*
X0089300Y0056149D02*
X0101300Y0056149D01*
X0101300Y0054551D02*
X0089300Y0054551D01*
X0089300Y0052952D02*
X0101300Y0052952D01*
X0101300Y0051354D02*
X0089425Y0051354D01*
X0090669Y0049755D02*
X0101300Y0049755D01*
X0101300Y0048157D02*
X0091770Y0048157D01*
X0092319Y0046558D02*
X0101300Y0046558D01*
X0101300Y0044960D02*
X0092868Y0044960D01*
X0093158Y0043361D02*
X0101300Y0043361D01*
X0101300Y0041763D02*
X0093158Y0041763D01*
X0093158Y0040164D02*
X0101300Y0040164D01*
X0101300Y0038566D02*
X0092842Y0038566D01*
X0092293Y0036967D02*
X0101300Y0036967D01*
X0101300Y0035369D02*
X0091744Y0035369D01*
X0090612Y0033770D02*
X0101300Y0033770D01*
X0101300Y0032172D02*
X0089367Y0032172D01*
X0089300Y0030573D02*
X0101300Y0030573D01*
X0101300Y0028975D02*
X0089300Y0028975D01*
X0089300Y0027376D02*
X0101300Y0027376D01*
X0101300Y0025778D02*
X0089300Y0025778D01*
X0089300Y0024179D02*
X0101300Y0024179D01*
X0101300Y0022581D02*
X0089300Y0022581D01*
X0089300Y0020982D02*
X0101392Y0020982D01*
X0102474Y0019384D02*
X0089300Y0019384D01*
X0089300Y0017785D02*
X0104072Y0017785D01*
X0105671Y0016187D02*
X0089300Y0016187D01*
X0089300Y0014588D02*
X0107269Y0014588D01*
X0116645Y0012990D02*
X0089300Y0012990D01*
X0089300Y0011391D02*
X0123778Y0011391D01*
X0123169Y0012990D02*
X0121955Y0012990D01*
X0134822Y0011391D02*
X0173050Y0011391D01*
X0173050Y0009793D02*
X0089300Y0009793D01*
X0089300Y0008194D02*
X0173050Y0008194D01*
X0173050Y0006596D02*
X0089300Y0006596D01*
X0089300Y0004997D02*
X0173050Y0004997D01*
X0176800Y0004997D02*
X0265550Y0004997D01*
X0265550Y0004600D02*
X0265550Y0185201D01*
X0176800Y0185201D01*
X0176800Y0004600D01*
X0265550Y0004600D01*
X0265550Y0006596D02*
X0176800Y0006596D01*
X0176800Y0008194D02*
X0265550Y0008194D01*
X0265550Y0009793D02*
X0176800Y0009793D01*
X0176800Y0011391D02*
X0223778Y0011391D01*
X0224224Y0010945D02*
X0223169Y0011999D01*
X0223169Y0013800D01*
X0222765Y0013800D01*
X0221194Y0012228D01*
X0217406Y0012228D01*
X0215835Y0013800D01*
X0208703Y0013800D01*
X0207601Y0014257D01*
X0206757Y0015101D01*
X0206757Y0015101D01*
X0201757Y0020101D01*
X0201300Y0021203D01*
X0201300Y0090012D01*
X0200231Y0091081D01*
X0199500Y0092845D01*
X0199500Y0100755D01*
X0200231Y0102519D01*
X0201581Y0103869D01*
X0203345Y0104600D01*
X0205255Y0104600D01*
X0207019Y0103869D01*
X0208369Y0102519D01*
X0209100Y0100755D01*
X0209100Y0092845D01*
X0208369Y0091081D01*
X0207300Y0090012D01*
X0207300Y0023043D01*
X0210543Y0019800D01*
X0215835Y0019800D01*
X0217406Y0021372D01*
X0221194Y0021372D01*
X0222765Y0019800D01*
X0223573Y0019800D01*
X0224224Y0020450D01*
X0234376Y0020450D01*
X0235431Y0019396D01*
X0235431Y0011999D01*
X0234376Y0010945D01*
X0224224Y0010945D01*
X0223169Y0012990D02*
X0221955Y0012990D01*
X0216645Y0012990D02*
X0176800Y0012990D01*
X0176800Y0014588D02*
X0207269Y0014588D01*
X0205671Y0016187D02*
X0176800Y0016187D01*
X0176800Y0017785D02*
X0204072Y0017785D01*
X0202474Y0019384D02*
X0176800Y0019384D01*
X0176800Y0020982D02*
X0201392Y0020982D01*
X0201300Y0022581D02*
X0176800Y0022581D01*
X0176800Y0024179D02*
X0201300Y0024179D01*
X0201300Y0025778D02*
X0176800Y0025778D01*
X0176800Y0027376D02*
X0201300Y0027376D01*
X0201300Y0028975D02*
X0176800Y0028975D01*
X0176800Y0030573D02*
X0201300Y0030573D01*
X0201300Y0032172D02*
X0176800Y0032172D01*
X0176800Y0033770D02*
X0201300Y0033770D01*
X0201300Y0035369D02*
X0176800Y0035369D01*
X0176800Y0036967D02*
X0201300Y0036967D01*
X0201300Y0038566D02*
X0176800Y0038566D01*
X0176800Y0040164D02*
X0201300Y0040164D01*
X0201300Y0041763D02*
X0176800Y0041763D01*
X0176800Y0043361D02*
X0201300Y0043361D01*
X0201300Y0044960D02*
X0176800Y0044960D01*
X0176800Y0046558D02*
X0201300Y0046558D01*
X0201300Y0048157D02*
X0176800Y0048157D01*
X0176800Y0049755D02*
X0201300Y0049755D01*
X0201300Y0051354D02*
X0176800Y0051354D01*
X0176800Y0052952D02*
X0201300Y0052952D01*
X0201300Y0054551D02*
X0176800Y0054551D01*
X0176800Y0056149D02*
X0201300Y0056149D01*
X0201300Y0057748D02*
X0176800Y0057748D01*
X0176800Y0059346D02*
X0201300Y0059346D01*
X0201300Y0060945D02*
X0176800Y0060945D01*
X0176800Y0062543D02*
X0201300Y0062543D01*
X0201300Y0064142D02*
X0176800Y0064142D01*
X0176800Y0065740D02*
X0201300Y0065740D01*
X0201300Y0067339D02*
X0176800Y0067339D01*
X0176800Y0068937D02*
X0201300Y0068937D01*
X0201300Y0070536D02*
X0176800Y0070536D01*
X0176800Y0072134D02*
X0201300Y0072134D01*
X0201300Y0073733D02*
X0176800Y0073733D01*
X0176800Y0075332D02*
X0201300Y0075332D01*
X0201300Y0076930D02*
X0176800Y0076930D01*
X0176800Y0078529D02*
X0201300Y0078529D01*
X0201300Y0080127D02*
X0176800Y0080127D01*
X0176800Y0081726D02*
X0201300Y0081726D01*
X0201300Y0083324D02*
X0176800Y0083324D01*
X0176800Y0084923D02*
X0201300Y0084923D01*
X0201300Y0086521D02*
X0176800Y0086521D01*
X0176800Y0088120D02*
X0201300Y0088120D01*
X0201300Y0089718D02*
X0176800Y0089718D01*
X0176800Y0091317D02*
X0200133Y0091317D01*
X0199500Y0092915D02*
X0176800Y0092915D01*
X0176800Y0094514D02*
X0199500Y0094514D01*
X0199500Y0096112D02*
X0176800Y0096112D01*
X0176800Y0097711D02*
X0199500Y0097711D01*
X0199500Y0099309D02*
X0176800Y0099309D01*
X0176800Y0100908D02*
X0199563Y0100908D01*
X0200225Y0102506D02*
X0176800Y0102506D01*
X0176800Y0104105D02*
X0202150Y0104105D01*
X0206450Y0104105D02*
X0212150Y0104105D01*
X0211581Y0103869D02*
X0213345Y0104600D01*
X0215255Y0104600D01*
X0217019Y0103869D01*
X0218369Y0102519D01*
X0219100Y0100755D01*
X0219100Y0092845D01*
X0218369Y0091081D01*
X0217100Y0089812D01*
X0217100Y0089210D01*
X0217960Y0088350D01*
X0237357Y0088350D01*
X0238386Y0087924D01*
X0239174Y0087136D01*
X0240886Y0085424D01*
X0240886Y0085424D01*
X0241674Y0084636D01*
X0242100Y0083607D01*
X0242100Y0067641D01*
X0241674Y0066612D01*
X0240886Y0065824D01*
X0239543Y0064481D01*
X0239343Y0063998D01*
X0238499Y0063154D01*
X0237397Y0062698D01*
X0235431Y0062698D01*
X0235431Y0061999D01*
X0234376Y0060945D01*
X0224224Y0060945D01*
X0223169Y0061999D01*
X0223169Y0063800D01*
X0222765Y0063800D01*
X0221194Y0062228D01*
X0217406Y0062228D01*
X0214800Y0064835D01*
X0214800Y0055023D01*
X0215023Y0054800D01*
X0218701Y0054800D01*
X0218701Y0055695D01*
X0219755Y0056750D01*
X0226364Y0056750D01*
X0227419Y0055695D01*
X0227419Y0047905D01*
X0226364Y0046850D01*
X0219755Y0046850D01*
X0218701Y0047905D01*
X0218701Y0048800D01*
X0215023Y0048800D01*
X0213623Y0047400D01*
X0209977Y0047400D01*
X0207400Y0049977D01*
X0207400Y0053623D01*
X0208800Y0055023D01*
X0208800Y0069897D01*
X0209257Y0070999D01*
X0210101Y0071843D01*
X0214728Y0076471D01*
X0214728Y0078694D01*
X0217406Y0081372D01*
X0221194Y0081372D01*
X0222765Y0079800D01*
X0223169Y0079800D01*
X0223169Y0081601D01*
X0224224Y0082655D01*
X0234376Y0082655D01*
X0235431Y0081601D01*
X0235431Y0074204D01*
X0234376Y0073150D01*
X0224224Y0073150D01*
X0223573Y0073800D01*
X0222765Y0073800D01*
X0221194Y0072228D01*
X0218971Y0072228D01*
X0218114Y0071372D01*
X0221194Y0071372D01*
X0222765Y0069800D01*
X0223573Y0069800D01*
X0224224Y0070450D01*
X0234376Y0070450D01*
X0235431Y0069396D01*
X0235431Y0068698D01*
X0235840Y0068698D01*
X0236500Y0069357D01*
X0236500Y0081890D01*
X0235640Y0082750D01*
X0216243Y0082750D01*
X0215214Y0083176D01*
X0212714Y0085676D01*
X0211926Y0086464D01*
X0211500Y0087493D01*
X0211500Y0089812D01*
X0210231Y0091081D01*
X0209500Y0092845D01*
X0209500Y0100755D01*
X0210231Y0102519D01*
X0211581Y0103869D01*
X0210225Y0102506D02*
X0208375Y0102506D01*
X0209037Y0100908D02*
X0209563Y0100908D01*
X0209500Y0099309D02*
X0209100Y0099309D01*
X0209100Y0097711D02*
X0209500Y0097711D01*
X0209500Y0096112D02*
X0209100Y0096112D01*
X0209100Y0094514D02*
X0209500Y0094514D01*
X0209500Y0092915D02*
X0209100Y0092915D01*
X0208467Y0091317D02*
X0210133Y0091317D01*
X0211500Y0089718D02*
X0207300Y0089718D01*
X0207300Y0088120D02*
X0211500Y0088120D01*
X0211903Y0086521D02*
X0207300Y0086521D01*
X0207300Y0084923D02*
X0213468Y0084923D01*
X0215066Y0083324D02*
X0207300Y0083324D01*
X0207300Y0081726D02*
X0223294Y0081726D01*
X0223169Y0080127D02*
X0222438Y0080127D01*
X0216162Y0080127D02*
X0207300Y0080127D01*
X0207300Y0078529D02*
X0214728Y0078529D01*
X0214728Y0076930D02*
X0207300Y0076930D01*
X0207300Y0075332D02*
X0213589Y0075332D01*
X0211990Y0073733D02*
X0207300Y0073733D01*
X0207300Y0072134D02*
X0210392Y0072134D01*
X0209065Y0070536D02*
X0207300Y0070536D01*
X0207300Y0068937D02*
X0208800Y0068937D01*
X0208800Y0067339D02*
X0207300Y0067339D01*
X0207300Y0065740D02*
X0208800Y0065740D01*
X0208800Y0064142D02*
X0207300Y0064142D01*
X0207300Y0062543D02*
X0208800Y0062543D01*
X0208800Y0060945D02*
X0207300Y0060945D01*
X0207300Y0059346D02*
X0208800Y0059346D01*
X0208800Y0057748D02*
X0207300Y0057748D01*
X0207300Y0056149D02*
X0208800Y0056149D01*
X0208328Y0054551D02*
X0207300Y0054551D01*
X0207300Y0052952D02*
X0207400Y0052952D01*
X0207400Y0051354D02*
X0207300Y0051354D01*
X0207300Y0049755D02*
X0207622Y0049755D01*
X0207300Y0048157D02*
X0209221Y0048157D01*
X0207300Y0046558D02*
X0265550Y0046558D01*
X0265550Y0044960D02*
X0207300Y0044960D01*
X0207300Y0043361D02*
X0265550Y0043361D01*
X0265550Y0041763D02*
X0233898Y0041763D01*
X0233567Y0041900D02*
X0216283Y0041900D01*
X0215327Y0041504D01*
X0214596Y0040773D01*
X0214200Y0039817D01*
X0214200Y0023783D01*
X0214596Y0022827D01*
X0215327Y0022096D01*
X0216283Y0021700D01*
X0217317Y0021700D01*
X0233567Y0021700D01*
X0234523Y0022096D01*
X0235254Y0022827D01*
X0235650Y0023783D01*
X0235650Y0039817D01*
X0235254Y0040773D01*
X0234523Y0041504D01*
X0233567Y0041900D01*
X0235506Y0040164D02*
X0265550Y0040164D01*
X0265550Y0038566D02*
X0235650Y0038566D01*
X0235650Y0036967D02*
X0265550Y0036967D01*
X0265550Y0035369D02*
X0235650Y0035369D01*
X0235650Y0033770D02*
X0265550Y0033770D01*
X0265550Y0032172D02*
X0235650Y0032172D01*
X0235650Y0030573D02*
X0265550Y0030573D01*
X0265550Y0028975D02*
X0235650Y0028975D01*
X0235650Y0027376D02*
X0265550Y0027376D01*
X0265550Y0025778D02*
X0235650Y0025778D01*
X0235650Y0024179D02*
X0265550Y0024179D01*
X0265550Y0022581D02*
X0235008Y0022581D01*
X0233050Y0024300D02*
X0216800Y0024300D01*
X0216800Y0039300D01*
X0233050Y0039300D01*
X0233050Y0024300D01*
X0233050Y0025778D02*
X0216800Y0025778D01*
X0216800Y0027376D02*
X0233050Y0027376D01*
X0233050Y0028975D02*
X0216800Y0028975D01*
X0216800Y0030573D02*
X0233050Y0030573D01*
X0233050Y0032172D02*
X0216800Y0032172D01*
X0216800Y0033770D02*
X0233050Y0033770D01*
X0233050Y0035369D02*
X0216800Y0035369D01*
X0216800Y0036967D02*
X0233050Y0036967D01*
X0233050Y0038566D02*
X0216800Y0038566D01*
X0214200Y0038566D02*
X0207300Y0038566D01*
X0207300Y0040164D02*
X0214344Y0040164D01*
X0215952Y0041763D02*
X0207300Y0041763D01*
X0207300Y0036967D02*
X0214200Y0036967D01*
X0214200Y0035369D02*
X0207300Y0035369D01*
X0207300Y0033770D02*
X0214200Y0033770D01*
X0214200Y0032172D02*
X0207300Y0032172D01*
X0207300Y0030573D02*
X0214200Y0030573D01*
X0214200Y0028975D02*
X0207300Y0028975D01*
X0207300Y0027376D02*
X0214200Y0027376D01*
X0214200Y0025778D02*
X0207300Y0025778D01*
X0207300Y0024179D02*
X0214200Y0024179D01*
X0214842Y0022581D02*
X0207762Y0022581D01*
X0209360Y0020982D02*
X0217017Y0020982D01*
X0221583Y0020982D02*
X0265550Y0020982D01*
X0265550Y0019384D02*
X0235431Y0019384D01*
X0235431Y0017785D02*
X0265550Y0017785D01*
X0265550Y0016187D02*
X0235431Y0016187D01*
X0235431Y0014588D02*
X0265550Y0014588D01*
X0265550Y0012990D02*
X0235431Y0012990D01*
X0234822Y0011391D02*
X0265550Y0011391D01*
X0269300Y0011391D02*
X0323778Y0011391D01*
X0324224Y0010945D02*
X0323169Y0011999D01*
X0323169Y0013800D01*
X0322765Y0013800D01*
X0321194Y0012228D01*
X0317406Y0012228D01*
X0315835Y0013800D01*
X0308703Y0013800D01*
X0307601Y0014257D01*
X0306757Y0015101D01*
X0301757Y0020101D01*
X0301300Y0021203D01*
X0301300Y0090012D01*
X0300231Y0091081D01*
X0299500Y0092845D01*
X0299500Y0100755D01*
X0300231Y0102519D01*
X0301581Y0103869D01*
X0303345Y0104600D01*
X0305255Y0104600D01*
X0307019Y0103869D01*
X0308369Y0102519D01*
X0309100Y0100755D01*
X0309100Y0092845D01*
X0308369Y0091081D01*
X0307300Y0090012D01*
X0307300Y0023043D01*
X0310543Y0019800D01*
X0315835Y0019800D01*
X0317406Y0021372D01*
X0321194Y0021372D01*
X0322765Y0019800D01*
X0323573Y0019800D01*
X0324224Y0020450D01*
X0334376Y0020450D01*
X0335431Y0019396D01*
X0335431Y0011999D01*
X0334376Y0010945D01*
X0324224Y0010945D01*
X0323169Y0012990D02*
X0321955Y0012990D01*
X0316645Y0012990D02*
X0269300Y0012990D01*
X0269300Y0014588D02*
X0307269Y0014588D01*
X0305671Y0016187D02*
X0269300Y0016187D01*
X0269300Y0017785D02*
X0304072Y0017785D01*
X0302474Y0019384D02*
X0269300Y0019384D01*
X0269300Y0020982D02*
X0301392Y0020982D01*
X0301300Y0022581D02*
X0269300Y0022581D01*
X0269300Y0024179D02*
X0301300Y0024179D01*
X0301300Y0025778D02*
X0269300Y0025778D01*
X0269300Y0027376D02*
X0301300Y0027376D01*
X0301300Y0028975D02*
X0269300Y0028975D01*
X0269300Y0030573D02*
X0301300Y0030573D01*
X0301300Y0032172D02*
X0269300Y0032172D01*
X0269300Y0033770D02*
X0301300Y0033770D01*
X0301300Y0035369D02*
X0269300Y0035369D01*
X0269300Y0036967D02*
X0301300Y0036967D01*
X0301300Y0038566D02*
X0269300Y0038566D01*
X0269300Y0040164D02*
X0301300Y0040164D01*
X0301300Y0041763D02*
X0269300Y0041763D01*
X0269300Y0043361D02*
X0301300Y0043361D01*
X0301300Y0044960D02*
X0269300Y0044960D01*
X0269300Y0046558D02*
X0301300Y0046558D01*
X0301300Y0048157D02*
X0269300Y0048157D01*
X0269300Y0049755D02*
X0301300Y0049755D01*
X0301300Y0051354D02*
X0269300Y0051354D01*
X0269300Y0052952D02*
X0301300Y0052952D01*
X0301300Y0054551D02*
X0269300Y0054551D01*
X0269300Y0056149D02*
X0301300Y0056149D01*
X0301300Y0057748D02*
X0269300Y0057748D01*
X0269300Y0059346D02*
X0301300Y0059346D01*
X0301300Y0060945D02*
X0269300Y0060945D01*
X0269300Y0062543D02*
X0301300Y0062543D01*
X0301300Y0064142D02*
X0269300Y0064142D01*
X0269300Y0065740D02*
X0301300Y0065740D01*
X0301300Y0067339D02*
X0269300Y0067339D01*
X0269300Y0068937D02*
X0301300Y0068937D01*
X0301300Y0070536D02*
X0269300Y0070536D01*
X0269300Y0072134D02*
X0301300Y0072134D01*
X0301300Y0073733D02*
X0269300Y0073733D01*
X0269300Y0075332D02*
X0301300Y0075332D01*
X0301300Y0076930D02*
X0269300Y0076930D01*
X0269300Y0078529D02*
X0301300Y0078529D01*
X0301300Y0080127D02*
X0269300Y0080127D01*
X0269300Y0081726D02*
X0301300Y0081726D01*
X0301300Y0083324D02*
X0269300Y0083324D01*
X0269300Y0084923D02*
X0301300Y0084923D01*
X0301300Y0086521D02*
X0269300Y0086521D01*
X0269300Y0088120D02*
X0301300Y0088120D01*
X0301300Y0089718D02*
X0269300Y0089718D01*
X0269300Y0091317D02*
X0300133Y0091317D01*
X0299500Y0092915D02*
X0269300Y0092915D01*
X0269300Y0094514D02*
X0299500Y0094514D01*
X0299500Y0096112D02*
X0269300Y0096112D01*
X0269300Y0097711D02*
X0299500Y0097711D01*
X0299500Y0099309D02*
X0269300Y0099309D01*
X0269300Y0100908D02*
X0299563Y0100908D01*
X0300225Y0102506D02*
X0269300Y0102506D01*
X0269300Y0104105D02*
X0302150Y0104105D01*
X0306450Y0104105D02*
X0312150Y0104105D01*
X0311581Y0103869D02*
X0313345Y0104600D01*
X0315255Y0104600D01*
X0317019Y0103869D01*
X0318369Y0102519D01*
X0319100Y0100755D01*
X0319100Y0092845D01*
X0318369Y0091081D01*
X0317300Y0090012D01*
X0317300Y0083703D01*
X0316843Y0082601D01*
X0313550Y0079307D01*
X0313550Y0071793D01*
X0315543Y0069800D01*
X0315835Y0069800D01*
X0317406Y0071372D01*
X0321194Y0071372D01*
X0322765Y0069800D01*
X0323573Y0069800D01*
X0324224Y0070450D01*
X0334376Y0070450D01*
X0335431Y0069396D01*
X0335431Y0061999D01*
X0334376Y0060945D01*
X0324224Y0060945D01*
X0323169Y0061999D01*
X0323169Y0063800D01*
X0322765Y0063800D01*
X0321194Y0062228D01*
X0317406Y0062228D01*
X0315835Y0063800D01*
X0313703Y0063800D01*
X0312601Y0064257D01*
X0311757Y0065101D01*
X0311757Y0065101D01*
X0308851Y0068007D01*
X0308851Y0068007D01*
X0308007Y0068851D01*
X0307550Y0069953D01*
X0307550Y0081147D01*
X0308007Y0082249D01*
X0311300Y0085543D01*
X0311300Y0090012D01*
X0310231Y0091081D01*
X0309500Y0092845D01*
X0309500Y0100755D01*
X0310231Y0102519D01*
X0311581Y0103869D01*
X0310225Y0102506D02*
X0308375Y0102506D01*
X0309037Y0100908D02*
X0309563Y0100908D01*
X0309500Y0099309D02*
X0309100Y0099309D01*
X0309100Y0097711D02*
X0309500Y0097711D01*
X0309500Y0096112D02*
X0309100Y0096112D01*
X0309100Y0094514D02*
X0309500Y0094514D01*
X0309500Y0092915D02*
X0309100Y0092915D01*
X0308467Y0091317D02*
X0310133Y0091317D01*
X0311300Y0089718D02*
X0307300Y0089718D01*
X0307300Y0088120D02*
X0311300Y0088120D01*
X0311300Y0086521D02*
X0307300Y0086521D01*
X0307300Y0084923D02*
X0310680Y0084923D01*
X0309081Y0083324D02*
X0307300Y0083324D01*
X0307300Y0081726D02*
X0307790Y0081726D01*
X0307550Y0080127D02*
X0307300Y0080127D01*
X0307300Y0078529D02*
X0307550Y0078529D01*
X0307550Y0076930D02*
X0307300Y0076930D01*
X0307300Y0075332D02*
X0307550Y0075332D01*
X0307550Y0073733D02*
X0307300Y0073733D01*
X0307300Y0072134D02*
X0307550Y0072134D01*
X0307550Y0070536D02*
X0307300Y0070536D01*
X0307300Y0068937D02*
X0307971Y0068937D01*
X0307300Y0067339D02*
X0309518Y0067339D01*
X0311117Y0065740D02*
X0307300Y0065740D01*
X0307300Y0064142D02*
X0312878Y0064142D01*
X0317091Y0062543D02*
X0307300Y0062543D01*
X0307300Y0060945D02*
X0324224Y0060945D01*
X0324736Y0059250D02*
X0323681Y0058195D01*
X0323681Y0050405D01*
X0324736Y0049350D01*
X0331345Y0049350D01*
X0332399Y0050405D01*
X0332399Y0051300D01*
X0336077Y0051300D01*
X0337477Y0049900D01*
X0341123Y0049900D01*
X0343700Y0052477D01*
X0343700Y0056123D01*
X0342300Y0057523D01*
X0342300Y0074897D01*
X0341843Y0075999D01*
X0340999Y0076843D01*
X0338499Y0079343D01*
X0337397Y0079800D01*
X0335431Y0079800D01*
X0335431Y0081601D01*
X0334376Y0082655D01*
X0324224Y0082655D01*
X0323169Y0081601D01*
X0323169Y0079800D01*
X0322765Y0079800D01*
X0321194Y0081372D01*
X0317406Y0081372D01*
X0314728Y0078694D01*
X0314728Y0074906D01*
X0317406Y0072228D01*
X0321194Y0072228D01*
X0322765Y0073800D01*
X0323573Y0073800D01*
X0324224Y0073150D01*
X0334376Y0073150D01*
X0335027Y0073800D01*
X0335557Y0073800D01*
X0336300Y0073057D01*
X0336300Y0057523D01*
X0336077Y0057300D01*
X0332399Y0057300D01*
X0332399Y0058195D01*
X0331345Y0059250D01*
X0324736Y0059250D01*
X0323681Y0057748D02*
X0307300Y0057748D01*
X0307300Y0059346D02*
X0336300Y0059346D01*
X0336300Y0057748D02*
X0332399Y0057748D01*
X0334376Y0060945D02*
X0336300Y0060945D01*
X0336300Y0062543D02*
X0335431Y0062543D01*
X0335431Y0064142D02*
X0336300Y0064142D01*
X0336300Y0065740D02*
X0335431Y0065740D01*
X0335431Y0067339D02*
X0336300Y0067339D01*
X0336300Y0068937D02*
X0335431Y0068937D01*
X0336300Y0070536D02*
X0322029Y0070536D01*
X0316571Y0070536D02*
X0314807Y0070536D01*
X0313550Y0072134D02*
X0336300Y0072134D01*
X0335624Y0073733D02*
X0334960Y0073733D01*
X0340913Y0076930D02*
X0354300Y0076930D01*
X0354300Y0075332D02*
X0342120Y0075332D01*
X0342300Y0073733D02*
X0354300Y0073733D01*
X0354300Y0072134D02*
X0342300Y0072134D01*
X0342300Y0070536D02*
X0354300Y0070536D01*
X0354300Y0068937D02*
X0342300Y0068937D01*
X0342300Y0067339D02*
X0354300Y0067339D01*
X0354300Y0065740D02*
X0342300Y0065740D01*
X0342300Y0064142D02*
X0354300Y0064142D01*
X0354300Y0062543D02*
X0342300Y0062543D01*
X0342300Y0060945D02*
X0354300Y0060945D01*
X0354300Y0059346D02*
X0342300Y0059346D01*
X0342300Y0057748D02*
X0354300Y0057748D01*
X0354300Y0056149D02*
X0343673Y0056149D01*
X0343700Y0054551D02*
X0354300Y0054551D01*
X0354300Y0052952D02*
X0343700Y0052952D01*
X0342576Y0051354D02*
X0354300Y0051354D01*
X0354300Y0049755D02*
X0331750Y0049755D01*
X0324331Y0049755D02*
X0307300Y0049755D01*
X0307300Y0048157D02*
X0354300Y0048157D01*
X0354300Y0046558D02*
X0307300Y0046558D01*
X0307300Y0044960D02*
X0354300Y0044960D01*
X0354300Y0043361D02*
X0307300Y0043361D01*
X0307300Y0041763D02*
X0315952Y0041763D01*
X0316283Y0041900D02*
X0315327Y0041504D01*
X0314596Y0040773D01*
X0314200Y0039817D01*
X0314200Y0023783D01*
X0314596Y0022827D01*
X0315327Y0022096D01*
X0316283Y0021700D01*
X0317317Y0021700D01*
X0333567Y0021700D01*
X0334523Y0022096D01*
X0335254Y0022827D01*
X0335650Y0023783D01*
X0335650Y0039817D01*
X0335254Y0040773D01*
X0334523Y0041504D01*
X0333567Y0041900D01*
X0316283Y0041900D01*
X0314344Y0040164D02*
X0307300Y0040164D01*
X0307300Y0038566D02*
X0314200Y0038566D01*
X0314200Y0036967D02*
X0307300Y0036967D01*
X0307300Y0035369D02*
X0314200Y0035369D01*
X0314200Y0033770D02*
X0307300Y0033770D01*
X0307300Y0032172D02*
X0314200Y0032172D01*
X0314200Y0030573D02*
X0307300Y0030573D01*
X0307300Y0028975D02*
X0314200Y0028975D01*
X0314200Y0027376D02*
X0307300Y0027376D01*
X0307300Y0025778D02*
X0314200Y0025778D01*
X0314200Y0024179D02*
X0307300Y0024179D01*
X0307762Y0022581D02*
X0314842Y0022581D01*
X0316800Y0024300D02*
X0316800Y0039300D01*
X0333050Y0039300D01*
X0333050Y0024300D01*
X0316800Y0024300D01*
X0316800Y0025778D02*
X0333050Y0025778D01*
X0333050Y0027376D02*
X0316800Y0027376D01*
X0316800Y0028975D02*
X0333050Y0028975D01*
X0333050Y0030573D02*
X0316800Y0030573D01*
X0316800Y0032172D02*
X0333050Y0032172D01*
X0333050Y0033770D02*
X0316800Y0033770D01*
X0316800Y0035369D02*
X0333050Y0035369D01*
X0333050Y0036967D02*
X0316800Y0036967D01*
X0316800Y0038566D02*
X0333050Y0038566D01*
X0335650Y0038566D02*
X0354300Y0038566D01*
X0354300Y0040164D02*
X0335506Y0040164D01*
X0333898Y0041763D02*
X0354300Y0041763D01*
X0354300Y0036967D02*
X0335650Y0036967D01*
X0335650Y0035369D02*
X0354300Y0035369D01*
X0354300Y0033770D02*
X0335650Y0033770D01*
X0335650Y0032172D02*
X0354300Y0032172D01*
X0354300Y0030573D02*
X0335650Y0030573D01*
X0335650Y0028975D02*
X0354300Y0028975D01*
X0354300Y0027376D02*
X0335650Y0027376D01*
X0335650Y0025778D02*
X0354300Y0025778D01*
X0354300Y0024179D02*
X0335650Y0024179D01*
X0335008Y0022581D02*
X0354300Y0022581D01*
X0354300Y0020982D02*
X0321583Y0020982D01*
X0317017Y0020982D02*
X0309360Y0020982D01*
X0319300Y0026800D02*
X0319300Y0036800D01*
X0330560Y0036800D02*
X0330560Y0027902D01*
X0329300Y0027902D01*
X0335431Y0019384D02*
X0354300Y0019384D01*
X0354300Y0017785D02*
X0335431Y0017785D01*
X0335431Y0016187D02*
X0354300Y0016187D01*
X0354300Y0014588D02*
X0335431Y0014588D01*
X0335431Y0012990D02*
X0354300Y0012990D01*
X0354300Y0011391D02*
X0334822Y0011391D01*
X0354300Y0009793D02*
X0269300Y0009793D01*
X0269300Y0008194D02*
X0354300Y0008194D01*
X0354300Y0006596D02*
X0269300Y0006596D01*
X0269300Y0004997D02*
X0354300Y0004997D01*
X0354300Y0004600D02*
X0354300Y0185201D01*
X0269300Y0185201D01*
X0269300Y0004600D01*
X0354300Y0004600D01*
X0358050Y0004600D02*
X0358050Y0033471D01*
X0358213Y0033170D01*
X0361615Y0030038D01*
X0365851Y0028180D01*
X0370460Y0027798D01*
X0374944Y0028933D01*
X0378816Y0031463D01*
X0381657Y0035113D01*
X0383158Y0039487D01*
X0383158Y0044113D01*
X0381657Y0048487D01*
X0378816Y0052137D01*
X0374944Y0054667D01*
X0370460Y0055802D01*
X0365851Y0055420D01*
X0361615Y0053562D01*
X0358213Y0050430D01*
X0358050Y0050129D01*
X0358050Y0138471D01*
X0358213Y0138170D01*
X0361615Y0135038D01*
X0365851Y0133180D01*
X0370460Y0132798D01*
X0374944Y0133933D01*
X0378816Y0136463D01*
X0381657Y0140113D01*
X0383158Y0144487D01*
X0383158Y0149113D01*
X0381657Y0153487D01*
X0378816Y0157137D01*
X0374944Y0159667D01*
X0370460Y0160802D01*
X0365851Y0160420D01*
X0361615Y0158562D01*
X0358213Y0155430D01*
X0358050Y0155129D01*
X0358050Y0185201D01*
X0443921Y0185201D01*
X0443921Y0004600D01*
X0358050Y0004600D01*
X0358050Y0004997D02*
X0443921Y0004997D01*
X0443921Y0006596D02*
X0358050Y0006596D01*
X0358050Y0008194D02*
X0443921Y0008194D01*
X0443921Y0009793D02*
X0358050Y0009793D01*
X0358050Y0011391D02*
X0423778Y0011391D01*
X0424224Y0010945D02*
X0423169Y0011999D01*
X0423169Y0013800D01*
X0422765Y0013800D01*
X0421194Y0012228D01*
X0417406Y0012228D01*
X0415835Y0013800D01*
X0393703Y0013800D01*
X0392601Y0014257D01*
X0391757Y0015101D01*
X0386757Y0020101D01*
X0386300Y0021203D01*
X0386300Y0090012D01*
X0385231Y0091081D01*
X0384500Y0092845D01*
X0384500Y0100755D01*
X0385231Y0102519D01*
X0386581Y0103869D01*
X0388345Y0104600D01*
X0390255Y0104600D01*
X0392019Y0103869D01*
X0393369Y0102519D01*
X0394100Y0100755D01*
X0394100Y0092845D01*
X0393369Y0091081D01*
X0392300Y0090012D01*
X0392300Y0023043D01*
X0395543Y0019800D01*
X0415835Y0019800D01*
X0417406Y0021372D01*
X0421194Y0021372D01*
X0422765Y0019800D01*
X0423573Y0019800D01*
X0424224Y0020450D01*
X0434376Y0020450D01*
X0435431Y0019396D01*
X0435431Y0011999D01*
X0434376Y0010945D01*
X0424224Y0010945D01*
X0423169Y0012990D02*
X0421955Y0012990D01*
X0416645Y0012990D02*
X0358050Y0012990D01*
X0358050Y0014588D02*
X0392269Y0014588D01*
X0390671Y0016187D02*
X0358050Y0016187D01*
X0358050Y0017785D02*
X0389072Y0017785D01*
X0387474Y0019384D02*
X0358050Y0019384D01*
X0358050Y0020982D02*
X0386392Y0020982D01*
X0386300Y0022581D02*
X0358050Y0022581D01*
X0358050Y0024179D02*
X0386300Y0024179D01*
X0386300Y0025778D02*
X0358050Y0025778D01*
X0358050Y0027376D02*
X0386300Y0027376D01*
X0386300Y0028975D02*
X0375007Y0028975D01*
X0377454Y0030573D02*
X0386300Y0030573D01*
X0386300Y0032172D02*
X0379367Y0032172D01*
X0380612Y0033770D02*
X0386300Y0033770D01*
X0386300Y0035369D02*
X0381744Y0035369D01*
X0382293Y0036967D02*
X0386300Y0036967D01*
X0386300Y0038566D02*
X0382842Y0038566D01*
X0383158Y0040164D02*
X0386300Y0040164D01*
X0386300Y0041763D02*
X0383158Y0041763D01*
X0383158Y0043361D02*
X0386300Y0043361D01*
X0386300Y0044960D02*
X0382868Y0044960D01*
X0382319Y0046558D02*
X0386300Y0046558D01*
X0386300Y0048157D02*
X0381770Y0048157D01*
X0380669Y0049755D02*
X0386300Y0049755D01*
X0386300Y0051354D02*
X0379425Y0051354D01*
X0377568Y0052952D02*
X0386300Y0052952D01*
X0386300Y0054551D02*
X0375121Y0054551D01*
X0363869Y0054551D02*
X0358050Y0054551D01*
X0358050Y0056149D02*
X0386300Y0056149D01*
X0386300Y0057748D02*
X0358050Y0057748D01*
X0358050Y0059346D02*
X0386300Y0059346D01*
X0386300Y0060945D02*
X0358050Y0060945D01*
X0358050Y0062543D02*
X0386300Y0062543D01*
X0386300Y0064142D02*
X0358050Y0064142D01*
X0358050Y0065740D02*
X0386300Y0065740D01*
X0386300Y0067339D02*
X0358050Y0067339D01*
X0358050Y0068937D02*
X0386300Y0068937D01*
X0386300Y0070536D02*
X0358050Y0070536D01*
X0358050Y0072134D02*
X0386300Y0072134D01*
X0386300Y0073733D02*
X0358050Y0073733D01*
X0358050Y0075332D02*
X0386300Y0075332D01*
X0386300Y0076930D02*
X0358050Y0076930D01*
X0358050Y0078529D02*
X0386300Y0078529D01*
X0386300Y0080127D02*
X0358050Y0080127D01*
X0358050Y0081726D02*
X0386300Y0081726D01*
X0386300Y0083324D02*
X0358050Y0083324D01*
X0358050Y0084923D02*
X0386300Y0084923D01*
X0386300Y0086521D02*
X0358050Y0086521D01*
X0358050Y0088120D02*
X0386300Y0088120D01*
X0386300Y0089718D02*
X0358050Y0089718D01*
X0358050Y0091317D02*
X0385133Y0091317D01*
X0384500Y0092915D02*
X0358050Y0092915D01*
X0358050Y0094514D02*
X0384500Y0094514D01*
X0384500Y0096112D02*
X0358050Y0096112D01*
X0358050Y0097711D02*
X0384500Y0097711D01*
X0384500Y0099309D02*
X0358050Y0099309D01*
X0358050Y0100908D02*
X0384563Y0100908D01*
X0385225Y0102506D02*
X0358050Y0102506D01*
X0358050Y0104105D02*
X0387150Y0104105D01*
X0391450Y0104105D02*
X0397150Y0104105D01*
X0396581Y0103869D02*
X0398345Y0104600D01*
X0400255Y0104600D01*
X0402019Y0103869D01*
X0403369Y0102519D01*
X0404100Y0100755D01*
X0404100Y0092845D01*
X0403369Y0091081D01*
X0403190Y0090902D01*
X0405543Y0088550D01*
X0437397Y0088550D01*
X0438499Y0088093D01*
X0439343Y0087249D01*
X0440999Y0085593D01*
X0441843Y0084749D01*
X0442300Y0083647D01*
X0442300Y0067601D01*
X0441843Y0066498D01*
X0439343Y0063998D01*
X0438499Y0063154D01*
X0437397Y0062698D01*
X0435431Y0062698D01*
X0435431Y0061999D01*
X0434376Y0060945D01*
X0424224Y0060945D01*
X0423169Y0061999D01*
X0423169Y0063800D01*
X0422765Y0063800D01*
X0421194Y0062228D01*
X0417406Y0062228D01*
X0414728Y0064906D01*
X0414728Y0068694D01*
X0417406Y0071372D01*
X0421194Y0071372D01*
X0422765Y0069800D01*
X0423573Y0069800D01*
X0424224Y0070450D01*
X0434376Y0070450D01*
X0435431Y0069396D01*
X0435431Y0068698D01*
X0435557Y0068698D01*
X0436300Y0069440D01*
X0436300Y0081807D01*
X0435557Y0082550D01*
X0434481Y0082550D01*
X0435431Y0081601D01*
X0435431Y0074204D01*
X0434376Y0073150D01*
X0424224Y0073150D01*
X0423573Y0073800D01*
X0422765Y0073800D01*
X0421194Y0072228D01*
X0417406Y0072228D01*
X0415835Y0073800D01*
X0407523Y0073800D01*
X0407300Y0073577D01*
X0407300Y0069899D01*
X0408195Y0069899D01*
X0409250Y0068845D01*
X0409250Y0062236D01*
X0408195Y0061181D01*
X0400405Y0061181D01*
X0399350Y0062236D01*
X0399350Y0068845D01*
X0400405Y0069899D01*
X0401300Y0069899D01*
X0401300Y0073577D01*
X0399900Y0074977D01*
X0399900Y0078623D01*
X0402477Y0081200D01*
X0406123Y0081200D01*
X0407523Y0079800D01*
X0415835Y0079800D01*
X0417406Y0081372D01*
X0421194Y0081372D01*
X0422765Y0079800D01*
X0423169Y0079800D01*
X0423169Y0081601D01*
X0424119Y0082550D01*
X0403703Y0082550D01*
X0402601Y0083007D01*
X0397601Y0088007D01*
X0396757Y0088851D01*
X0396300Y0089953D01*
X0396300Y0090012D01*
X0395231Y0091081D01*
X0394500Y0092845D01*
X0394500Y0100755D01*
X0395231Y0102519D01*
X0396581Y0103869D01*
X0395225Y0102506D02*
X0393375Y0102506D01*
X0394037Y0100908D02*
X0394563Y0100908D01*
X0394500Y0099309D02*
X0394100Y0099309D01*
X0394100Y0097711D02*
X0394500Y0097711D01*
X0394500Y0096112D02*
X0394100Y0096112D01*
X0394100Y0094514D02*
X0394500Y0094514D01*
X0394500Y0092915D02*
X0394100Y0092915D01*
X0393467Y0091317D02*
X0395133Y0091317D01*
X0396397Y0089718D02*
X0392300Y0089718D01*
X0392300Y0088120D02*
X0397488Y0088120D01*
X0399086Y0086521D02*
X0392300Y0086521D01*
X0392300Y0084923D02*
X0400685Y0084923D01*
X0402283Y0083324D02*
X0392300Y0083324D01*
X0392300Y0081726D02*
X0423294Y0081726D01*
X0423169Y0080127D02*
X0422438Y0080127D01*
X0416162Y0080127D02*
X0407195Y0080127D01*
X0401405Y0080127D02*
X0392300Y0080127D01*
X0392300Y0078529D02*
X0399900Y0078529D01*
X0399900Y0076930D02*
X0392300Y0076930D01*
X0392300Y0075332D02*
X0399900Y0075332D01*
X0401144Y0073733D02*
X0392300Y0073733D01*
X0392300Y0072134D02*
X0401300Y0072134D01*
X0401300Y0070536D02*
X0392300Y0070536D01*
X0392300Y0068937D02*
X0399443Y0068937D01*
X0399350Y0067339D02*
X0392300Y0067339D01*
X0392300Y0065740D02*
X0399350Y0065740D01*
X0399350Y0064142D02*
X0392300Y0064142D01*
X0392300Y0062543D02*
X0399350Y0062543D01*
X0404300Y0065540D02*
X0404300Y0066800D01*
X0409250Y0067339D02*
X0414728Y0067339D01*
X0414728Y0065740D02*
X0409250Y0065740D01*
X0409250Y0064142D02*
X0415493Y0064142D01*
X0417091Y0062543D02*
X0409250Y0062543D01*
X0421509Y0062543D02*
X0423169Y0062543D01*
X0424224Y0060945D02*
X0392300Y0060945D01*
X0392300Y0059346D02*
X0443921Y0059346D01*
X0443921Y0057748D02*
X0392300Y0057748D01*
X0392300Y0056149D02*
X0443921Y0056149D01*
X0443921Y0054551D02*
X0392300Y0054551D01*
X0392300Y0052952D02*
X0443921Y0052952D01*
X0443921Y0051354D02*
X0392300Y0051354D01*
X0392300Y0049755D02*
X0443921Y0049755D01*
X0443921Y0048157D02*
X0392300Y0048157D01*
X0392300Y0046558D02*
X0443921Y0046558D01*
X0443921Y0044960D02*
X0392300Y0044960D01*
X0392300Y0043361D02*
X0443921Y0043361D01*
X0443921Y0041763D02*
X0433898Y0041763D01*
X0433567Y0041900D02*
X0412533Y0041900D01*
X0411577Y0041504D01*
X0410846Y0040773D01*
X0410450Y0039817D01*
X0410450Y0023783D01*
X0410846Y0022827D01*
X0411577Y0022096D01*
X0412533Y0021700D01*
X0413567Y0021700D01*
X0433567Y0021700D01*
X0434523Y0022096D01*
X0435254Y0022827D01*
X0435650Y0023783D01*
X0435650Y0039817D01*
X0435254Y0040773D01*
X0434523Y0041504D01*
X0433567Y0041900D01*
X0435506Y0040164D02*
X0443921Y0040164D01*
X0443921Y0038566D02*
X0435650Y0038566D01*
X0435650Y0036967D02*
X0443921Y0036967D01*
X0443921Y0035369D02*
X0435650Y0035369D01*
X0435650Y0033770D02*
X0443921Y0033770D01*
X0443921Y0032172D02*
X0435650Y0032172D01*
X0435650Y0030573D02*
X0443921Y0030573D01*
X0443921Y0028975D02*
X0435650Y0028975D01*
X0435650Y0027376D02*
X0443921Y0027376D01*
X0443921Y0025778D02*
X0435650Y0025778D01*
X0435650Y0024179D02*
X0443921Y0024179D01*
X0443921Y0022581D02*
X0435008Y0022581D01*
X0433050Y0024300D02*
X0413050Y0024300D01*
X0413050Y0039300D01*
X0433050Y0039300D01*
X0433050Y0024300D01*
X0433050Y0025778D02*
X0413050Y0025778D01*
X0413050Y0027376D02*
X0433050Y0027376D01*
X0433050Y0028975D02*
X0413050Y0028975D01*
X0413050Y0030573D02*
X0433050Y0030573D01*
X0433050Y0032172D02*
X0413050Y0032172D01*
X0413050Y0033770D02*
X0433050Y0033770D01*
X0433050Y0035369D02*
X0413050Y0035369D01*
X0413050Y0036967D02*
X0433050Y0036967D01*
X0433050Y0038566D02*
X0413050Y0038566D01*
X0410450Y0038566D02*
X0392300Y0038566D01*
X0392300Y0040164D02*
X0410594Y0040164D01*
X0412202Y0041763D02*
X0392300Y0041763D01*
X0392300Y0036967D02*
X0410450Y0036967D01*
X0410450Y0035369D02*
X0392300Y0035369D01*
X0392300Y0033770D02*
X0410450Y0033770D01*
X0410450Y0032172D02*
X0392300Y0032172D01*
X0392300Y0030573D02*
X0410450Y0030573D01*
X0410450Y0028975D02*
X0392300Y0028975D01*
X0392300Y0027376D02*
X0410450Y0027376D01*
X0410450Y0025778D02*
X0392300Y0025778D01*
X0392300Y0024179D02*
X0410450Y0024179D01*
X0411092Y0022581D02*
X0392762Y0022581D01*
X0394360Y0020982D02*
X0417017Y0020982D01*
X0421583Y0020982D02*
X0443921Y0020982D01*
X0443921Y0019384D02*
X0435431Y0019384D01*
X0435431Y0017785D02*
X0443921Y0017785D01*
X0443921Y0016187D02*
X0435431Y0016187D01*
X0435431Y0014588D02*
X0443921Y0014588D01*
X0443921Y0012990D02*
X0435431Y0012990D01*
X0434822Y0011391D02*
X0443921Y0011391D01*
X0426800Y0036800D02*
X0415540Y0036800D01*
X0364039Y0028975D02*
X0358050Y0028975D01*
X0358050Y0030573D02*
X0361034Y0030573D01*
X0359297Y0032172D02*
X0358050Y0032172D01*
X0358050Y0051354D02*
X0359216Y0051354D01*
X0358050Y0052952D02*
X0360953Y0052952D01*
X0323681Y0052952D02*
X0307300Y0052952D01*
X0307300Y0051354D02*
X0323681Y0051354D01*
X0323681Y0054551D02*
X0307300Y0054551D01*
X0307300Y0056149D02*
X0323681Y0056149D01*
X0323169Y0062543D02*
X0321509Y0062543D01*
X0322698Y0073733D02*
X0323640Y0073733D01*
X0315902Y0073733D02*
X0313550Y0073733D01*
X0313550Y0075332D02*
X0314728Y0075332D01*
X0314728Y0076930D02*
X0313550Y0076930D01*
X0313550Y0078529D02*
X0314728Y0078529D01*
X0314370Y0080127D02*
X0316162Y0080127D01*
X0315968Y0081726D02*
X0323294Y0081726D01*
X0323169Y0080127D02*
X0322438Y0080127D01*
X0317143Y0083324D02*
X0354300Y0083324D01*
X0354300Y0081726D02*
X0335306Y0081726D01*
X0335431Y0080127D02*
X0354300Y0080127D01*
X0354300Y0078529D02*
X0339314Y0078529D01*
X0354300Y0084923D02*
X0317300Y0084923D01*
X0317300Y0086521D02*
X0354300Y0086521D01*
X0354300Y0088120D02*
X0317300Y0088120D01*
X0317300Y0089718D02*
X0321612Y0089718D01*
X0321581Y0089731D02*
X0323345Y0089000D01*
X0325255Y0089000D01*
X0327019Y0089731D01*
X0328369Y0091081D01*
X0329100Y0092845D01*
X0329100Y0100755D01*
X0328369Y0102519D01*
X0327300Y0103588D01*
X0327300Y0105557D01*
X0331843Y0110101D01*
X0332193Y0110945D01*
X0334376Y0110945D01*
X0335431Y0111999D01*
X0335431Y0119396D01*
X0334376Y0120450D01*
X0324224Y0120450D01*
X0323573Y0119800D01*
X0322765Y0119800D01*
X0321194Y0121372D01*
X0317406Y0121372D01*
X0314728Y0118694D01*
X0314728Y0114906D01*
X0317406Y0112228D01*
X0321194Y0112228D01*
X0322765Y0113800D01*
X0323169Y0113800D01*
X0323169Y0111999D01*
X0324213Y0110956D01*
X0322601Y0109343D01*
X0321757Y0108499D01*
X0321300Y0107397D01*
X0321300Y0103588D01*
X0320231Y0102519D01*
X0319500Y0100755D01*
X0319500Y0092845D01*
X0320231Y0091081D01*
X0321581Y0089731D01*
X0320133Y0091317D02*
X0318467Y0091317D01*
X0319100Y0092915D02*
X0319500Y0092915D01*
X0319500Y0094514D02*
X0319100Y0094514D01*
X0319100Y0096112D02*
X0319500Y0096112D01*
X0319500Y0097711D02*
X0319100Y0097711D01*
X0319100Y0099309D02*
X0319500Y0099309D01*
X0319563Y0100908D02*
X0319037Y0100908D01*
X0318375Y0102506D02*
X0320225Y0102506D01*
X0321300Y0104105D02*
X0316450Y0104105D01*
X0321300Y0105703D02*
X0269300Y0105703D01*
X0269300Y0107302D02*
X0321300Y0107302D01*
X0322158Y0108900D02*
X0269300Y0108900D01*
X0269300Y0110499D02*
X0323756Y0110499D01*
X0323169Y0112097D02*
X0269300Y0112097D01*
X0269300Y0113696D02*
X0315939Y0113696D01*
X0314728Y0115294D02*
X0269300Y0115294D01*
X0269300Y0116893D02*
X0314728Y0116893D01*
X0314728Y0118491D02*
X0269300Y0118491D01*
X0269300Y0120090D02*
X0316125Y0120090D01*
X0322475Y0120090D02*
X0323863Y0120090D01*
X0333567Y0121700D02*
X0307317Y0121700D01*
X0306283Y0121700D01*
X0305327Y0122096D01*
X0304596Y0122827D01*
X0304200Y0123783D01*
X0304200Y0139817D01*
X0304596Y0140773D01*
X0305327Y0141504D01*
X0306283Y0141900D01*
X0323567Y0141900D01*
X0324523Y0141504D01*
X0325254Y0140773D01*
X0325650Y0139817D01*
X0325650Y0133150D01*
X0333567Y0133150D01*
X0334523Y0132754D01*
X0335254Y0132023D01*
X0335428Y0131604D01*
X0335431Y0131601D01*
X0335431Y0131597D01*
X0335650Y0131067D01*
X0335650Y0123783D01*
X0335254Y0122827D01*
X0334523Y0122096D01*
X0333567Y0121700D01*
X0334737Y0120090D02*
X0343800Y0120090D01*
X0343800Y0121688D02*
X0269300Y0121688D01*
X0269300Y0123287D02*
X0304405Y0123287D01*
X0304200Y0124885D02*
X0269300Y0124885D01*
X0269300Y0126484D02*
X0304200Y0126484D01*
X0304200Y0128082D02*
X0269300Y0128082D01*
X0269300Y0129681D02*
X0304200Y0129681D01*
X0304200Y0131279D02*
X0269300Y0131279D01*
X0269300Y0132878D02*
X0304200Y0132878D01*
X0304200Y0134476D02*
X0269300Y0134476D01*
X0269300Y0136075D02*
X0304200Y0136075D01*
X0304200Y0137673D02*
X0269300Y0137673D01*
X0269300Y0139272D02*
X0304200Y0139272D01*
X0304694Y0140870D02*
X0269300Y0140870D01*
X0269300Y0142469D02*
X0343800Y0142469D01*
X0343800Y0140870D02*
X0325156Y0140870D01*
X0325650Y0139272D02*
X0343800Y0139272D01*
X0343800Y0137673D02*
X0325650Y0137673D01*
X0325650Y0136075D02*
X0343800Y0136075D01*
X0343800Y0134476D02*
X0325650Y0134476D01*
X0323050Y0134476D02*
X0306800Y0134476D01*
X0306800Y0132878D02*
X0323050Y0132878D01*
X0323050Y0131800D02*
X0324300Y0130550D01*
X0333050Y0130550D01*
X0333050Y0124300D01*
X0306800Y0124300D01*
X0306800Y0139300D01*
X0323050Y0139300D01*
X0323050Y0131800D01*
X0323571Y0131279D02*
X0306800Y0131279D01*
X0306800Y0129681D02*
X0333050Y0129681D01*
X0333050Y0128082D02*
X0306800Y0128082D01*
X0306800Y0126484D02*
X0333050Y0126484D01*
X0333050Y0124885D02*
X0306800Y0124885D01*
X0306800Y0136075D02*
X0323050Y0136075D01*
X0323050Y0137673D02*
X0306800Y0137673D01*
X0306800Y0139272D02*
X0323050Y0139272D01*
X0320560Y0136800D02*
X0319300Y0135540D01*
X0334224Y0132878D02*
X0343800Y0132878D01*
X0343800Y0131279D02*
X0335562Y0131279D01*
X0335650Y0129681D02*
X0343800Y0129681D01*
X0343800Y0128082D02*
X0335650Y0128082D01*
X0335650Y0126484D02*
X0343800Y0126484D01*
X0343800Y0124885D02*
X0335650Y0124885D01*
X0335445Y0123287D02*
X0343800Y0123287D01*
X0349800Y0123287D02*
X0354300Y0123287D01*
X0354300Y0124885D02*
X0349800Y0124885D01*
X0349800Y0126484D02*
X0354300Y0126484D01*
X0354300Y0128082D02*
X0349800Y0128082D01*
X0349800Y0129681D02*
X0354300Y0129681D01*
X0354300Y0131279D02*
X0349800Y0131279D01*
X0349800Y0132878D02*
X0354300Y0132878D01*
X0354300Y0134476D02*
X0349800Y0134476D01*
X0349800Y0136075D02*
X0354300Y0136075D01*
X0354300Y0137673D02*
X0349800Y0137673D01*
X0349800Y0139272D02*
X0354300Y0139272D01*
X0354300Y0140870D02*
X0349800Y0140870D01*
X0349800Y0142469D02*
X0354300Y0142469D01*
X0354300Y0144068D02*
X0349800Y0144068D01*
X0349800Y0145666D02*
X0354300Y0145666D01*
X0354300Y0147265D02*
X0349800Y0147265D01*
X0349800Y0148863D02*
X0354300Y0148863D01*
X0354300Y0150462D02*
X0349800Y0150462D01*
X0349800Y0152060D02*
X0354300Y0152060D01*
X0354300Y0153659D02*
X0349800Y0153659D01*
X0349800Y0155257D02*
X0354300Y0155257D01*
X0354300Y0156856D02*
X0349800Y0156856D01*
X0349800Y0158454D02*
X0354300Y0158454D01*
X0354300Y0160053D02*
X0349800Y0160053D01*
X0349800Y0161294D02*
X0349343Y0162397D01*
X0348499Y0163241D01*
X0344343Y0167397D01*
X0343499Y0168241D01*
X0342397Y0168698D01*
X0335431Y0168698D01*
X0335431Y0169396D01*
X0334376Y0170450D01*
X0324224Y0170450D01*
X0323573Y0169800D01*
X0322765Y0169800D01*
X0321194Y0171372D01*
X0317406Y0171372D01*
X0314728Y0168694D01*
X0314728Y0164906D01*
X0317406Y0162228D01*
X0321194Y0162228D01*
X0322765Y0163800D01*
X0323169Y0163800D01*
X0323169Y0161999D01*
X0324224Y0160945D01*
X0334376Y0160945D01*
X0335431Y0161999D01*
X0335431Y0162698D01*
X0340557Y0162698D01*
X0343800Y0159455D01*
X0343800Y0118043D01*
X0331757Y0105999D01*
X0331300Y0104897D01*
X0331300Y0103588D01*
X0330231Y0102519D01*
X0329500Y0100755D01*
X0329500Y0092845D01*
X0330231Y0091081D01*
X0331581Y0089731D01*
X0333345Y0089000D01*
X0335255Y0089000D01*
X0337019Y0089731D01*
X0338369Y0091081D01*
X0339100Y0092845D01*
X0339100Y0100755D01*
X0338369Y0102519D01*
X0337565Y0103323D01*
X0348499Y0114257D01*
X0349343Y0115101D01*
X0349800Y0116203D01*
X0349800Y0161294D01*
X0349652Y0161651D02*
X0354300Y0161651D01*
X0354300Y0163250D02*
X0348491Y0163250D01*
X0346892Y0164848D02*
X0354300Y0164848D01*
X0354300Y0166447D02*
X0345294Y0166447D01*
X0343695Y0168045D02*
X0354300Y0168045D01*
X0354300Y0169644D02*
X0335183Y0169644D01*
X0334376Y0173150D02*
X0324224Y0173150D01*
X0323573Y0173800D01*
X0322765Y0173800D01*
X0321194Y0172228D01*
X0317406Y0172228D01*
X0315835Y0173800D01*
X0313043Y0173800D01*
X0312300Y0173057D01*
X0312300Y0157523D01*
X0312523Y0157300D01*
X0316201Y0157300D01*
X0316201Y0158195D01*
X0317255Y0159250D01*
X0323864Y0159250D01*
X0324919Y0158195D01*
X0324919Y0150405D01*
X0323864Y0149350D01*
X0317255Y0149350D01*
X0316201Y0150405D01*
X0316201Y0151300D01*
X0312523Y0151300D01*
X0311123Y0149900D01*
X0307477Y0149900D01*
X0304900Y0152477D01*
X0304900Y0156123D01*
X0306300Y0157523D01*
X0306300Y0174897D01*
X0306757Y0175999D01*
X0309257Y0178499D01*
X0310101Y0179343D01*
X0311203Y0179800D01*
X0315835Y0179800D01*
X0317406Y0181372D01*
X0321194Y0181372D01*
X0322765Y0179800D01*
X0323169Y0179800D01*
X0323169Y0181601D01*
X0324224Y0182655D01*
X0334376Y0182655D01*
X0335431Y0181601D01*
X0335431Y0174204D01*
X0334376Y0173150D01*
X0335431Y0174439D02*
X0354300Y0174439D01*
X0354300Y0172841D02*
X0321806Y0172841D01*
X0321323Y0171242D02*
X0354300Y0171242D01*
X0358050Y0171242D02*
X0396700Y0171242D01*
X0396700Y0169644D02*
X0358050Y0169644D01*
X0358050Y0168045D02*
X0396700Y0168045D01*
X0396700Y0166447D02*
X0358050Y0166447D01*
X0358050Y0164848D02*
X0396700Y0164848D01*
X0396700Y0163783D02*
X0396850Y0163420D01*
X0396850Y0162236D01*
X0397905Y0161181D01*
X0405695Y0161181D01*
X0406750Y0162236D01*
X0406750Y0163420D01*
X0406900Y0163783D01*
X0406900Y0171700D01*
X0433567Y0171700D01*
X0434523Y0172096D01*
X0435254Y0172827D01*
X0435650Y0173783D01*
X0435650Y0181067D01*
X0435431Y0181597D01*
X0435431Y0181601D01*
X0435428Y0181604D01*
X0435254Y0182023D01*
X0434523Y0182754D01*
X0433567Y0183150D01*
X0398783Y0183150D01*
X0397827Y0182754D01*
X0397096Y0182023D01*
X0396700Y0181067D01*
X0396700Y0163783D01*
X0396850Y0163250D02*
X0358050Y0163250D01*
X0358050Y0161651D02*
X0397435Y0161651D01*
X0399300Y0164300D02*
X0399300Y0180550D01*
X0433050Y0180550D01*
X0433050Y0174300D01*
X0405550Y0174300D01*
X0404300Y0173050D01*
X0404300Y0164300D01*
X0399300Y0164300D01*
X0399300Y0164848D02*
X0404300Y0164848D01*
X0404300Y0166447D02*
X0399300Y0166447D01*
X0399300Y0168045D02*
X0404300Y0168045D01*
X0404300Y0169644D02*
X0399300Y0169644D01*
X0399300Y0171242D02*
X0404300Y0171242D01*
X0404300Y0172841D02*
X0399300Y0172841D01*
X0399300Y0174439D02*
X0433050Y0174439D01*
X0433050Y0176038D02*
X0399300Y0176038D01*
X0399300Y0177636D02*
X0433050Y0177636D01*
X0433050Y0179235D02*
X0399300Y0179235D01*
X0396700Y0179235D02*
X0358050Y0179235D01*
X0358050Y0180833D02*
X0396700Y0180833D01*
X0397505Y0182432D02*
X0358050Y0182432D01*
X0358050Y0184030D02*
X0443921Y0184030D01*
X0443921Y0182432D02*
X0434845Y0182432D01*
X0435650Y0180833D02*
X0443921Y0180833D01*
X0443921Y0179235D02*
X0435650Y0179235D01*
X0435650Y0177636D02*
X0443921Y0177636D01*
X0443921Y0176038D02*
X0435650Y0176038D01*
X0435650Y0174439D02*
X0443921Y0174439D01*
X0443921Y0172841D02*
X0435260Y0172841D01*
X0434376Y0170450D02*
X0424224Y0170450D01*
X0423573Y0169800D01*
X0422765Y0169800D01*
X0421194Y0171372D01*
X0417406Y0171372D01*
X0414728Y0168694D01*
X0414728Y0164906D01*
X0417406Y0162228D01*
X0421194Y0162228D01*
X0422765Y0163800D01*
X0423169Y0163800D01*
X0423169Y0161999D01*
X0424224Y0160945D01*
X0426300Y0160945D01*
X0426300Y0152601D01*
X0426757Y0151498D01*
X0427601Y0150654D01*
X0436300Y0141955D01*
X0436300Y0110543D01*
X0435557Y0109800D01*
X0421203Y0109800D01*
X0420101Y0109343D01*
X0419257Y0108499D01*
X0416757Y0105999D01*
X0416300Y0104897D01*
X0416300Y0103588D01*
X0415231Y0102519D01*
X0414500Y0100755D01*
X0414500Y0092845D01*
X0415231Y0091081D01*
X0416581Y0089731D01*
X0418345Y0089000D01*
X0420255Y0089000D01*
X0422019Y0089731D01*
X0423369Y0091081D01*
X0424100Y0092845D01*
X0424100Y0100755D01*
X0423369Y0102519D01*
X0422565Y0103323D01*
X0423043Y0103800D01*
X0437397Y0103800D01*
X0438499Y0104257D01*
X0440999Y0106757D01*
X0441843Y0107601D01*
X0442300Y0108703D01*
X0442300Y0143794D01*
X0441843Y0144897D01*
X0432300Y0154440D01*
X0432300Y0160945D01*
X0434376Y0160945D01*
X0435431Y0161999D01*
X0435431Y0169396D01*
X0434376Y0170450D01*
X0435183Y0169644D02*
X0443921Y0169644D01*
X0443921Y0171242D02*
X0421323Y0171242D01*
X0417277Y0171242D02*
X0406900Y0171242D01*
X0406900Y0169644D02*
X0415678Y0169644D01*
X0414728Y0168045D02*
X0406900Y0168045D01*
X0406900Y0166447D02*
X0414728Y0166447D01*
X0414787Y0164848D02*
X0406900Y0164848D01*
X0406750Y0163250D02*
X0416385Y0163250D01*
X0422215Y0163250D02*
X0423169Y0163250D01*
X0423517Y0161651D02*
X0406165Y0161651D01*
X0401800Y0158060D02*
X0401800Y0146800D01*
X0398783Y0141900D02*
X0397827Y0141504D01*
X0397096Y0140773D01*
X0396700Y0139817D01*
X0396700Y0123783D01*
X0397096Y0122827D01*
X0397827Y0122096D01*
X0398783Y0121700D01*
X0433567Y0121700D01*
X0434523Y0122096D01*
X0435254Y0122827D01*
X0435650Y0123783D01*
X0435650Y0131067D01*
X0435431Y0131597D01*
X0435431Y0131601D01*
X0435428Y0131604D01*
X0435254Y0132023D01*
X0434523Y0132754D01*
X0433567Y0133150D01*
X0418150Y0133150D01*
X0418150Y0139817D01*
X0417754Y0140773D01*
X0417023Y0141504D01*
X0416067Y0141900D01*
X0398783Y0141900D01*
X0397194Y0140870D02*
X0381917Y0140870D01*
X0382465Y0142469D02*
X0435786Y0142469D01*
X0436300Y0140870D02*
X0417656Y0140870D01*
X0418150Y0139272D02*
X0436300Y0139272D01*
X0436300Y0137673D02*
X0418150Y0137673D01*
X0418150Y0136075D02*
X0436300Y0136075D01*
X0436300Y0134476D02*
X0418150Y0134476D01*
X0415550Y0134476D02*
X0399300Y0134476D01*
X0399300Y0132878D02*
X0415550Y0132878D01*
X0415550Y0131800D02*
X0416800Y0130550D01*
X0433050Y0130550D01*
X0433050Y0124300D01*
X0399300Y0124300D01*
X0399300Y0139300D01*
X0415550Y0139300D01*
X0415550Y0131800D01*
X0416071Y0131279D02*
X0399300Y0131279D01*
X0399300Y0129681D02*
X0433050Y0129681D01*
X0433050Y0128082D02*
X0399300Y0128082D01*
X0399300Y0126484D02*
X0433050Y0126484D01*
X0433050Y0124885D02*
X0399300Y0124885D01*
X0396700Y0124885D02*
X0358050Y0124885D01*
X0358050Y0123287D02*
X0396905Y0123287D01*
X0396700Y0126484D02*
X0358050Y0126484D01*
X0358050Y0128082D02*
X0396700Y0128082D01*
X0396700Y0129681D02*
X0358050Y0129681D01*
X0358050Y0131279D02*
X0396700Y0131279D01*
X0396700Y0132878D02*
X0370776Y0132878D01*
X0369495Y0132878D02*
X0358050Y0132878D01*
X0358050Y0134476D02*
X0362895Y0134476D01*
X0360489Y0136075D02*
X0358050Y0136075D01*
X0358050Y0137673D02*
X0358752Y0137673D01*
X0343800Y0144068D02*
X0269300Y0144068D01*
X0269300Y0145666D02*
X0343800Y0145666D01*
X0343800Y0147265D02*
X0269300Y0147265D01*
X0269300Y0148863D02*
X0343800Y0148863D01*
X0343800Y0150462D02*
X0324919Y0150462D01*
X0324919Y0152060D02*
X0343800Y0152060D01*
X0343800Y0153659D02*
X0324919Y0153659D01*
X0324919Y0155257D02*
X0343800Y0155257D01*
X0343800Y0156856D02*
X0324919Y0156856D01*
X0324660Y0158454D02*
X0343800Y0158454D01*
X0343202Y0160053D02*
X0312300Y0160053D01*
X0312300Y0161651D02*
X0323517Y0161651D01*
X0323169Y0163250D02*
X0322215Y0163250D01*
X0316385Y0163250D02*
X0312300Y0163250D01*
X0312300Y0164848D02*
X0314787Y0164848D01*
X0314728Y0166447D02*
X0312300Y0166447D01*
X0312300Y0168045D02*
X0314728Y0168045D01*
X0315678Y0169644D02*
X0312300Y0169644D01*
X0312300Y0171242D02*
X0317277Y0171242D01*
X0316794Y0172841D02*
X0312300Y0172841D01*
X0306300Y0172841D02*
X0269300Y0172841D01*
X0269300Y0174439D02*
X0306300Y0174439D01*
X0306795Y0176038D02*
X0269300Y0176038D01*
X0269300Y0177636D02*
X0308394Y0177636D01*
X0309992Y0179235D02*
X0269300Y0179235D01*
X0269300Y0180833D02*
X0316868Y0180833D01*
X0321732Y0180833D02*
X0323169Y0180833D01*
X0324000Y0182432D02*
X0269300Y0182432D01*
X0269300Y0184030D02*
X0354300Y0184030D01*
X0354300Y0182432D02*
X0334600Y0182432D01*
X0335431Y0180833D02*
X0354300Y0180833D01*
X0354300Y0179235D02*
X0335431Y0179235D01*
X0335431Y0177636D02*
X0354300Y0177636D01*
X0354300Y0176038D02*
X0335431Y0176038D01*
X0358050Y0176038D02*
X0396700Y0176038D01*
X0396700Y0177636D02*
X0358050Y0177636D01*
X0358050Y0174439D02*
X0396700Y0174439D01*
X0396700Y0172841D02*
X0358050Y0172841D01*
X0341604Y0161651D02*
X0335083Y0161651D01*
X0316460Y0158454D02*
X0312300Y0158454D01*
X0306300Y0158454D02*
X0269300Y0158454D01*
X0269300Y0156856D02*
X0305633Y0156856D01*
X0304900Y0155257D02*
X0269300Y0155257D01*
X0269300Y0153659D02*
X0304900Y0153659D01*
X0305317Y0152060D02*
X0269300Y0152060D01*
X0269300Y0150462D02*
X0306916Y0150462D01*
X0311684Y0150462D02*
X0316201Y0150462D01*
X0306300Y0160053D02*
X0269300Y0160053D01*
X0269300Y0161651D02*
X0306300Y0161651D01*
X0306300Y0163250D02*
X0269300Y0163250D01*
X0269300Y0164848D02*
X0306300Y0164848D01*
X0306300Y0166447D02*
X0269300Y0166447D01*
X0269300Y0168045D02*
X0306300Y0168045D01*
X0306300Y0169644D02*
X0269300Y0169644D01*
X0269300Y0171242D02*
X0306300Y0171242D01*
X0265550Y0171242D02*
X0221323Y0171242D01*
X0221194Y0171372D02*
X0217406Y0171372D01*
X0214728Y0168694D01*
X0214728Y0164906D01*
X0217406Y0162228D01*
X0221194Y0162228D01*
X0222765Y0163800D01*
X0223169Y0163800D01*
X0223169Y0161999D01*
X0224224Y0160945D01*
X0234376Y0160945D01*
X0235431Y0161999D01*
X0235431Y0162698D01*
X0250557Y0162698D01*
X0253800Y0159455D01*
X0253800Y0128043D01*
X0231757Y0105999D01*
X0231300Y0104897D01*
X0231300Y0103588D01*
X0230231Y0102519D01*
X0229500Y0100755D01*
X0229500Y0092845D01*
X0230231Y0091081D01*
X0231581Y0089731D01*
X0233345Y0089000D01*
X0235255Y0089000D01*
X0237019Y0089731D01*
X0238369Y0091081D01*
X0239100Y0092845D01*
X0239100Y0100755D01*
X0238369Y0102519D01*
X0237565Y0103323D01*
X0258499Y0124257D01*
X0259343Y0125101D01*
X0259800Y0126203D01*
X0259800Y0161294D01*
X0259343Y0162397D01*
X0258499Y0163241D01*
X0254343Y0167397D01*
X0253499Y0168241D01*
X0252397Y0168698D01*
X0235431Y0168698D01*
X0235431Y0169396D01*
X0234376Y0170450D01*
X0224224Y0170450D01*
X0223573Y0169800D01*
X0222765Y0169800D01*
X0221194Y0171372D01*
X0221194Y0172228D02*
X0217406Y0172228D01*
X0215835Y0173800D01*
X0213043Y0173800D01*
X0212300Y0173057D01*
X0212300Y0157523D01*
X0212523Y0157300D01*
X0216201Y0157300D01*
X0216201Y0158195D01*
X0217255Y0159250D01*
X0223864Y0159250D01*
X0224919Y0158195D01*
X0224919Y0150405D01*
X0223864Y0149350D01*
X0217255Y0149350D01*
X0216201Y0150405D01*
X0216201Y0151300D01*
X0212523Y0151300D01*
X0211123Y0149900D01*
X0207477Y0149900D01*
X0204900Y0152477D01*
X0204900Y0156123D01*
X0206300Y0157523D01*
X0206300Y0174897D01*
X0206757Y0175999D01*
X0207601Y0176843D01*
X0207601Y0176843D01*
X0209257Y0178499D01*
X0209257Y0178499D01*
X0210101Y0179343D01*
X0211203Y0179800D01*
X0215835Y0179800D01*
X0217406Y0181372D01*
X0221194Y0181372D01*
X0222765Y0179800D01*
X0223169Y0179800D01*
X0223169Y0181601D01*
X0224224Y0182655D01*
X0234376Y0182655D01*
X0235431Y0181601D01*
X0235431Y0174204D01*
X0234376Y0173150D01*
X0224224Y0173150D01*
X0223573Y0173800D01*
X0222765Y0173800D01*
X0221194Y0172228D01*
X0221806Y0172841D02*
X0265550Y0172841D01*
X0265550Y0174439D02*
X0235431Y0174439D01*
X0235431Y0176038D02*
X0265550Y0176038D01*
X0265550Y0177636D02*
X0235431Y0177636D01*
X0235431Y0179235D02*
X0265550Y0179235D01*
X0265550Y0180833D02*
X0235431Y0180833D01*
X0234600Y0182432D02*
X0265550Y0182432D01*
X0265550Y0184030D02*
X0176800Y0184030D01*
X0176800Y0182432D02*
X0224000Y0182432D01*
X0223169Y0180833D02*
X0221732Y0180833D01*
X0216868Y0180833D02*
X0176800Y0180833D01*
X0176800Y0179235D02*
X0209992Y0179235D01*
X0208394Y0177636D02*
X0176800Y0177636D01*
X0176800Y0176038D02*
X0206795Y0176038D01*
X0206300Y0174439D02*
X0176800Y0174439D01*
X0176800Y0172841D02*
X0206300Y0172841D01*
X0206300Y0171242D02*
X0176800Y0171242D01*
X0176800Y0169644D02*
X0206300Y0169644D01*
X0206300Y0168045D02*
X0176800Y0168045D01*
X0176800Y0166447D02*
X0206300Y0166447D01*
X0206300Y0164848D02*
X0176800Y0164848D01*
X0176800Y0163250D02*
X0206300Y0163250D01*
X0206300Y0161651D02*
X0176800Y0161651D01*
X0176800Y0160053D02*
X0206300Y0160053D01*
X0206300Y0158454D02*
X0176800Y0158454D01*
X0176800Y0156856D02*
X0205633Y0156856D01*
X0204900Y0155257D02*
X0176800Y0155257D01*
X0176800Y0153659D02*
X0204900Y0153659D01*
X0205317Y0152060D02*
X0176800Y0152060D01*
X0176800Y0150462D02*
X0206916Y0150462D01*
X0211684Y0150462D02*
X0216201Y0150462D01*
X0224919Y0150462D02*
X0253800Y0150462D01*
X0253800Y0152060D02*
X0224919Y0152060D01*
X0224919Y0153659D02*
X0253800Y0153659D01*
X0253800Y0155257D02*
X0224919Y0155257D01*
X0224919Y0156856D02*
X0253800Y0156856D01*
X0253800Y0158454D02*
X0224660Y0158454D01*
X0223517Y0161651D02*
X0212300Y0161651D01*
X0212300Y0160053D02*
X0253202Y0160053D01*
X0251604Y0161651D02*
X0235083Y0161651D01*
X0223169Y0163250D02*
X0222215Y0163250D01*
X0216385Y0163250D02*
X0212300Y0163250D01*
X0212300Y0164848D02*
X0214787Y0164848D01*
X0214728Y0166447D02*
X0212300Y0166447D01*
X0212300Y0168045D02*
X0214728Y0168045D01*
X0215678Y0169644D02*
X0212300Y0169644D01*
X0212300Y0171242D02*
X0217277Y0171242D01*
X0216794Y0172841D02*
X0212300Y0172841D01*
X0235183Y0169644D02*
X0265550Y0169644D01*
X0265550Y0168045D02*
X0253695Y0168045D01*
X0255294Y0166447D02*
X0265550Y0166447D01*
X0265550Y0164848D02*
X0256892Y0164848D01*
X0258491Y0163250D02*
X0265550Y0163250D01*
X0265550Y0161651D02*
X0259652Y0161651D01*
X0259800Y0160053D02*
X0265550Y0160053D01*
X0265550Y0158454D02*
X0259800Y0158454D01*
X0259800Y0156856D02*
X0265550Y0156856D01*
X0265550Y0155257D02*
X0259800Y0155257D01*
X0259800Y0153659D02*
X0265550Y0153659D01*
X0265550Y0152060D02*
X0259800Y0152060D01*
X0259800Y0150462D02*
X0265550Y0150462D01*
X0265550Y0148863D02*
X0259800Y0148863D01*
X0259800Y0147265D02*
X0265550Y0147265D01*
X0265550Y0145666D02*
X0259800Y0145666D01*
X0259800Y0144068D02*
X0265550Y0144068D01*
X0265550Y0142469D02*
X0259800Y0142469D01*
X0259800Y0140870D02*
X0265550Y0140870D01*
X0265550Y0139272D02*
X0259800Y0139272D01*
X0259800Y0137673D02*
X0265550Y0137673D01*
X0265550Y0136075D02*
X0259800Y0136075D01*
X0259800Y0134476D02*
X0265550Y0134476D01*
X0265550Y0132878D02*
X0259800Y0132878D01*
X0259800Y0131279D02*
X0265550Y0131279D01*
X0265550Y0129681D02*
X0259800Y0129681D01*
X0259800Y0128082D02*
X0265550Y0128082D01*
X0265550Y0126484D02*
X0259800Y0126484D01*
X0259128Y0124885D02*
X0265550Y0124885D01*
X0265550Y0123287D02*
X0257529Y0123287D01*
X0255931Y0121688D02*
X0265550Y0121688D01*
X0265550Y0120090D02*
X0254332Y0120090D01*
X0252734Y0118491D02*
X0265550Y0118491D01*
X0265550Y0116893D02*
X0251135Y0116893D01*
X0249537Y0115294D02*
X0265550Y0115294D01*
X0265550Y0113696D02*
X0247938Y0113696D01*
X0246340Y0112097D02*
X0265550Y0112097D01*
X0265550Y0110499D02*
X0244741Y0110499D01*
X0243143Y0108900D02*
X0265550Y0108900D01*
X0265550Y0107302D02*
X0241544Y0107302D01*
X0239946Y0105703D02*
X0265550Y0105703D01*
X0265550Y0104105D02*
X0238347Y0104105D01*
X0238375Y0102506D02*
X0265550Y0102506D01*
X0265550Y0100908D02*
X0239037Y0100908D01*
X0239100Y0099309D02*
X0265550Y0099309D01*
X0265550Y0097711D02*
X0239100Y0097711D01*
X0239100Y0096112D02*
X0265550Y0096112D01*
X0265550Y0094514D02*
X0239100Y0094514D01*
X0239100Y0092915D02*
X0265550Y0092915D01*
X0265550Y0091317D02*
X0238467Y0091317D01*
X0236988Y0089718D02*
X0265550Y0089718D01*
X0265550Y0088120D02*
X0237913Y0088120D01*
X0239789Y0086521D02*
X0265550Y0086521D01*
X0265550Y0084923D02*
X0241387Y0084923D01*
X0242100Y0083324D02*
X0265550Y0083324D01*
X0265550Y0081726D02*
X0242100Y0081726D01*
X0242100Y0080127D02*
X0265550Y0080127D01*
X0265550Y0078529D02*
X0242100Y0078529D01*
X0242100Y0076930D02*
X0265550Y0076930D01*
X0265550Y0075332D02*
X0242100Y0075332D01*
X0242100Y0073733D02*
X0265550Y0073733D01*
X0265550Y0072134D02*
X0242100Y0072134D01*
X0242100Y0070536D02*
X0265550Y0070536D01*
X0265550Y0068937D02*
X0242100Y0068937D01*
X0241975Y0067339D02*
X0265550Y0067339D01*
X0265550Y0065740D02*
X0240803Y0065740D01*
X0239403Y0064142D02*
X0265550Y0064142D01*
X0265550Y0062543D02*
X0235431Y0062543D01*
X0234376Y0060945D02*
X0265550Y0060945D01*
X0265550Y0059346D02*
X0214800Y0059346D01*
X0214800Y0057748D02*
X0265550Y0057748D01*
X0265550Y0056149D02*
X0226965Y0056149D01*
X0227419Y0054551D02*
X0265550Y0054551D01*
X0265550Y0052952D02*
X0227419Y0052952D01*
X0227419Y0051354D02*
X0265550Y0051354D01*
X0265550Y0049755D02*
X0227419Y0049755D01*
X0227419Y0048157D02*
X0265550Y0048157D01*
X0249300Y0036800D02*
X0238040Y0036800D01*
X0241800Y0040560D01*
X0241800Y0051800D01*
X0230540Y0051800D01*
X0219155Y0056149D02*
X0214800Y0056149D01*
X0214800Y0060945D02*
X0224224Y0060945D01*
X0223169Y0062543D02*
X0221509Y0062543D01*
X0217091Y0062543D02*
X0214800Y0062543D01*
X0214800Y0064142D02*
X0215493Y0064142D01*
X0222029Y0070536D02*
X0236500Y0070536D01*
X0236500Y0072134D02*
X0218877Y0072134D01*
X0222698Y0073733D02*
X0223640Y0073733D01*
X0234960Y0073733D02*
X0236500Y0073733D01*
X0236500Y0075332D02*
X0235431Y0075332D01*
X0235431Y0076930D02*
X0236500Y0076930D01*
X0236500Y0078529D02*
X0235431Y0078529D01*
X0235431Y0080127D02*
X0236500Y0080127D01*
X0236500Y0081726D02*
X0235306Y0081726D01*
X0231612Y0089718D02*
X0226988Y0089718D01*
X0227019Y0089731D02*
X0228369Y0091081D01*
X0229100Y0092845D01*
X0229100Y0100755D01*
X0228369Y0102519D01*
X0227300Y0103588D01*
X0227300Y0105557D01*
X0230999Y0109257D01*
X0231843Y0110101D01*
X0232193Y0110945D01*
X0234376Y0110945D01*
X0235431Y0111999D01*
X0235431Y0119396D01*
X0234376Y0120450D01*
X0224224Y0120450D01*
X0223573Y0119800D01*
X0222765Y0119800D01*
X0221194Y0121372D01*
X0217406Y0121372D01*
X0214728Y0118694D01*
X0214728Y0114906D01*
X0217406Y0112228D01*
X0221194Y0112228D01*
X0222765Y0113800D01*
X0223169Y0113800D01*
X0223169Y0111999D01*
X0224213Y0110956D01*
X0221757Y0108499D01*
X0221300Y0107397D01*
X0221300Y0103588D01*
X0220231Y0102519D01*
X0219500Y0100755D01*
X0219500Y0092845D01*
X0220231Y0091081D01*
X0221581Y0089731D01*
X0223345Y0089000D01*
X0225255Y0089000D01*
X0227019Y0089731D01*
X0228467Y0091317D02*
X0230133Y0091317D01*
X0229500Y0092915D02*
X0229100Y0092915D01*
X0229100Y0094514D02*
X0229500Y0094514D01*
X0229500Y0096112D02*
X0229100Y0096112D01*
X0229100Y0097711D02*
X0229500Y0097711D01*
X0229500Y0099309D02*
X0229100Y0099309D01*
X0229037Y0100908D02*
X0229563Y0100908D01*
X0230225Y0102506D02*
X0228375Y0102506D01*
X0227300Y0104105D02*
X0231300Y0104105D01*
X0231634Y0105703D02*
X0227446Y0105703D01*
X0229044Y0107302D02*
X0233059Y0107302D01*
X0234658Y0108900D02*
X0230643Y0108900D01*
X0232008Y0110499D02*
X0236256Y0110499D01*
X0235431Y0112097D02*
X0237855Y0112097D01*
X0239453Y0113696D02*
X0235431Y0113696D01*
X0235431Y0115294D02*
X0241052Y0115294D01*
X0242650Y0116893D02*
X0235431Y0116893D01*
X0235431Y0118491D02*
X0244249Y0118491D01*
X0245847Y0120090D02*
X0234737Y0120090D01*
X0233567Y0121700D02*
X0217317Y0121700D01*
X0216283Y0121700D01*
X0215327Y0122096D01*
X0214596Y0122827D01*
X0214200Y0123783D01*
X0214200Y0139817D01*
X0214596Y0140773D01*
X0215327Y0141504D01*
X0216283Y0141900D01*
X0233567Y0141900D01*
X0234523Y0141504D01*
X0235254Y0140773D01*
X0235650Y0139817D01*
X0235650Y0123783D01*
X0235254Y0122827D01*
X0234523Y0122096D01*
X0233567Y0121700D01*
X0235445Y0123287D02*
X0249044Y0123287D01*
X0247446Y0121688D02*
X0176800Y0121688D01*
X0176800Y0120090D02*
X0216125Y0120090D01*
X0214728Y0118491D02*
X0176800Y0118491D01*
X0176800Y0116893D02*
X0214728Y0116893D01*
X0214728Y0115294D02*
X0176800Y0115294D01*
X0176800Y0113696D02*
X0215939Y0113696D01*
X0222661Y0113696D02*
X0223169Y0113696D01*
X0223169Y0112097D02*
X0176800Y0112097D01*
X0176800Y0110499D02*
X0223756Y0110499D01*
X0222158Y0108900D02*
X0176800Y0108900D01*
X0176800Y0107302D02*
X0221300Y0107302D01*
X0221300Y0105703D02*
X0176800Y0105703D01*
X0173050Y0105703D02*
X0139946Y0105703D01*
X0138347Y0104105D02*
X0173050Y0104105D01*
X0173050Y0102506D02*
X0138375Y0102506D01*
X0139037Y0100908D02*
X0173050Y0100908D01*
X0173050Y0099309D02*
X0139100Y0099309D01*
X0139100Y0097711D02*
X0173050Y0097711D01*
X0173050Y0096112D02*
X0139100Y0096112D01*
X0139100Y0094514D02*
X0173050Y0094514D01*
X0173050Y0092915D02*
X0139100Y0092915D01*
X0138467Y0091317D02*
X0173050Y0091317D01*
X0173050Y0107302D02*
X0141544Y0107302D01*
X0143143Y0108900D02*
X0173050Y0108900D01*
X0173050Y0110499D02*
X0144741Y0110499D01*
X0146340Y0112097D02*
X0173050Y0112097D01*
X0173050Y0113696D02*
X0147938Y0113696D01*
X0149537Y0115294D02*
X0173050Y0115294D01*
X0173050Y0116893D02*
X0151135Y0116893D01*
X0152734Y0118491D02*
X0173050Y0118491D01*
X0173050Y0120090D02*
X0154332Y0120090D01*
X0155931Y0121688D02*
X0173050Y0121688D01*
X0173050Y0123287D02*
X0157529Y0123287D01*
X0159128Y0124885D02*
X0173050Y0124885D01*
X0173050Y0126484D02*
X0160727Y0126484D01*
X0162043Y0128082D02*
X0173050Y0128082D01*
X0173050Y0129681D02*
X0162300Y0129681D01*
X0162300Y0131279D02*
X0173050Y0131279D01*
X0173050Y0132878D02*
X0162300Y0132878D01*
X0162300Y0134476D02*
X0173050Y0134476D01*
X0173050Y0136075D02*
X0162300Y0136075D01*
X0162300Y0137673D02*
X0173050Y0137673D01*
X0173050Y0139272D02*
X0162300Y0139272D01*
X0162300Y0140870D02*
X0173050Y0140870D01*
X0173050Y0142469D02*
X0162300Y0142469D01*
X0162300Y0144068D02*
X0173050Y0144068D01*
X0173050Y0145666D02*
X0162300Y0145666D01*
X0162300Y0147265D02*
X0173050Y0147265D01*
X0173050Y0148863D02*
X0162300Y0148863D01*
X0162300Y0150462D02*
X0173050Y0150462D01*
X0173050Y0152060D02*
X0162300Y0152060D01*
X0162300Y0153659D02*
X0173050Y0153659D01*
X0173050Y0155257D02*
X0162300Y0155257D01*
X0162300Y0156856D02*
X0173050Y0156856D01*
X0173050Y0158454D02*
X0162300Y0158454D01*
X0162300Y0160053D02*
X0173050Y0160053D01*
X0173050Y0161651D02*
X0162152Y0161651D01*
X0160991Y0163250D02*
X0173050Y0163250D01*
X0173050Y0164848D02*
X0159392Y0164848D01*
X0157794Y0166447D02*
X0173050Y0166447D01*
X0173050Y0168045D02*
X0156195Y0168045D01*
X0154104Y0161651D02*
X0135083Y0161651D01*
X0116385Y0163250D02*
X0113550Y0163250D01*
X0113550Y0164848D02*
X0114787Y0164848D01*
X0114728Y0166447D02*
X0113550Y0166447D01*
X0113550Y0168045D02*
X0114728Y0168045D01*
X0115678Y0169644D02*
X0113550Y0169644D01*
X0113550Y0171242D02*
X0117277Y0171242D01*
X0116794Y0172841D02*
X0113550Y0172841D01*
X0135431Y0179235D02*
X0173050Y0179235D01*
X0173050Y0180833D02*
X0135431Y0180833D01*
X0134600Y0182432D02*
X0173050Y0182432D01*
X0173050Y0184030D02*
X0089300Y0184030D01*
X0085550Y0184030D02*
X0004600Y0184030D01*
X0004600Y0182432D02*
X0024000Y0182432D01*
X0023169Y0180833D02*
X0021732Y0180833D01*
X0016868Y0180833D02*
X0004600Y0180833D01*
X0004600Y0179235D02*
X0011242Y0179235D01*
X0009644Y0177636D02*
X0004600Y0177636D01*
X0004600Y0176038D02*
X0008045Y0176038D01*
X0007550Y0174439D02*
X0004600Y0174439D01*
X0004600Y0172841D02*
X0007550Y0172841D01*
X0007550Y0171242D02*
X0004600Y0171242D01*
X0004600Y0169644D02*
X0007550Y0169644D01*
X0007550Y0168045D02*
X0004600Y0168045D01*
X0004600Y0166447D02*
X0007550Y0166447D01*
X0007550Y0164848D02*
X0004600Y0164848D01*
X0004600Y0163250D02*
X0007550Y0163250D01*
X0007550Y0161651D02*
X0004600Y0161651D01*
X0004600Y0160053D02*
X0007550Y0160053D01*
X0007550Y0158454D02*
X0004600Y0158454D01*
X0004600Y0156856D02*
X0007550Y0156856D01*
X0007942Y0155257D02*
X0004600Y0155257D01*
X0004600Y0153659D02*
X0009449Y0153659D01*
X0011047Y0152060D02*
X0004600Y0152060D01*
X0004600Y0150462D02*
X0016916Y0150462D01*
X0021684Y0150462D02*
X0026201Y0150462D01*
X0026460Y0158454D02*
X0021368Y0158454D01*
X0017232Y0158454D02*
X0013550Y0158454D01*
X0021806Y0172841D02*
X0085550Y0172841D01*
X0085550Y0174439D02*
X0035431Y0174439D01*
X0035431Y0176038D02*
X0085550Y0176038D01*
X0085550Y0177636D02*
X0035431Y0177636D01*
X0035431Y0179235D02*
X0085550Y0179235D01*
X0085550Y0180833D02*
X0035431Y0180833D01*
X0034600Y0182432D02*
X0085550Y0182432D01*
X0075013Y0160053D02*
X0062300Y0160053D01*
X0062300Y0158454D02*
X0071498Y0158454D01*
X0069762Y0156856D02*
X0062300Y0156856D01*
X0062300Y0155257D02*
X0068119Y0155257D01*
X0067254Y0153659D02*
X0062300Y0153659D01*
X0062300Y0152060D02*
X0066389Y0152060D01*
X0065861Y0150462D02*
X0062300Y0150462D01*
X0062300Y0148863D02*
X0065594Y0148863D01*
X0065328Y0147265D02*
X0062300Y0147265D01*
X0062300Y0145666D02*
X0065439Y0145666D01*
X0065706Y0144068D02*
X0062300Y0144068D01*
X0062300Y0142469D02*
X0065973Y0142469D01*
X0066751Y0140870D02*
X0062300Y0140870D01*
X0062300Y0139272D02*
X0067616Y0139272D01*
X0068752Y0137673D02*
X0062300Y0137673D01*
X0062300Y0136075D02*
X0070489Y0136075D01*
X0072895Y0134476D02*
X0062300Y0134476D01*
X0062300Y0132878D02*
X0079495Y0132878D01*
X0080776Y0132878D02*
X0085550Y0132878D01*
X0085550Y0131279D02*
X0062300Y0131279D01*
X0062300Y0129681D02*
X0085550Y0129681D01*
X0085550Y0128082D02*
X0062300Y0128082D01*
X0062300Y0126484D02*
X0085550Y0126484D01*
X0085550Y0124885D02*
X0062300Y0124885D01*
X0062300Y0123287D02*
X0085550Y0123287D01*
X0085550Y0121688D02*
X0062300Y0121688D01*
X0062300Y0120090D02*
X0085550Y0120090D01*
X0085550Y0118491D02*
X0062212Y0118491D01*
X0061135Y0116893D02*
X0085550Y0116893D01*
X0085550Y0115294D02*
X0059537Y0115294D01*
X0057938Y0113696D02*
X0085550Y0113696D01*
X0085550Y0112097D02*
X0056340Y0112097D01*
X0054741Y0110499D02*
X0085550Y0110499D01*
X0085550Y0108900D02*
X0053143Y0108900D01*
X0051544Y0107302D02*
X0085550Y0107302D01*
X0085550Y0105703D02*
X0049946Y0105703D01*
X0048347Y0104105D02*
X0085550Y0104105D01*
X0085550Y0102506D02*
X0048375Y0102506D01*
X0049037Y0100908D02*
X0085550Y0100908D01*
X0085550Y0099309D02*
X0049100Y0099309D01*
X0049100Y0097711D02*
X0085550Y0097711D01*
X0085550Y0096112D02*
X0049100Y0096112D01*
X0049100Y0094514D02*
X0085550Y0094514D01*
X0085550Y0092915D02*
X0049100Y0092915D01*
X0048467Y0091317D02*
X0085550Y0091317D01*
X0085550Y0089718D02*
X0046988Y0089718D01*
X0039789Y0086521D02*
X0085550Y0086521D01*
X0085550Y0084923D02*
X0041387Y0084923D01*
X0042100Y0083324D02*
X0085550Y0083324D01*
X0085550Y0081726D02*
X0042100Y0081726D01*
X0042100Y0080127D02*
X0085550Y0080127D01*
X0085550Y0078529D02*
X0042100Y0078529D01*
X0042100Y0076930D02*
X0085550Y0076930D01*
X0085550Y0075332D02*
X0042100Y0075332D01*
X0042100Y0073733D02*
X0085550Y0073733D01*
X0085550Y0072134D02*
X0042100Y0072134D01*
X0042100Y0070536D02*
X0085550Y0070536D01*
X0085550Y0068937D02*
X0042100Y0068937D01*
X0041975Y0067339D02*
X0085550Y0067339D01*
X0085550Y0065740D02*
X0040803Y0065740D01*
X0039204Y0064142D02*
X0085550Y0064142D01*
X0085550Y0062543D02*
X0035431Y0062543D01*
X0034376Y0060945D02*
X0085550Y0060945D01*
X0085550Y0059346D02*
X0018496Y0059346D01*
X0017300Y0060945D02*
X0024224Y0060945D01*
X0023169Y0062543D02*
X0021509Y0062543D01*
X0011300Y0062543D02*
X0011050Y0062543D01*
X0011050Y0060945D02*
X0011300Y0060945D01*
X0011300Y0059346D02*
X0011050Y0059346D01*
X0011050Y0057748D02*
X0011696Y0057748D01*
X0011050Y0056149D02*
X0013208Y0056149D01*
X0014806Y0054551D02*
X0011050Y0054551D01*
X0011050Y0052952D02*
X0014900Y0052952D01*
X0016024Y0051354D02*
X0011050Y0051354D01*
X0011050Y0049755D02*
X0026850Y0049755D01*
X0026201Y0051354D02*
X0022576Y0051354D01*
X0034269Y0049755D02*
X0067848Y0049755D01*
X0066983Y0048157D02*
X0011050Y0048157D01*
X0011050Y0046558D02*
X0066118Y0046558D01*
X0065777Y0044960D02*
X0011050Y0044960D01*
X0011050Y0043361D02*
X0065511Y0043361D01*
X0065256Y0041763D02*
X0034830Y0041763D01*
X0035939Y0040164D02*
X0065523Y0040164D01*
X0065790Y0038566D02*
X0036050Y0038566D01*
X0036050Y0036967D02*
X0066158Y0036967D01*
X0067023Y0035369D02*
X0036050Y0035369D01*
X0036050Y0033770D02*
X0067888Y0033770D01*
X0069297Y0032172D02*
X0036050Y0032172D01*
X0036050Y0030573D02*
X0071034Y0030573D01*
X0074039Y0028975D02*
X0036050Y0028975D01*
X0036050Y0027376D02*
X0085550Y0027376D01*
X0085550Y0025778D02*
X0036050Y0025778D01*
X0036050Y0024179D02*
X0085550Y0024179D01*
X0085550Y0022581D02*
X0035573Y0022581D01*
X0029300Y0027902D02*
X0029300Y0035540D01*
X0030560Y0036800D01*
X0015020Y0041763D02*
X0011050Y0041763D01*
X0011050Y0040164D02*
X0013911Y0040164D01*
X0013800Y0038566D02*
X0011050Y0038566D01*
X0034919Y0051354D02*
X0069216Y0051354D01*
X0070953Y0052952D02*
X0034919Y0052952D01*
X0034919Y0054551D02*
X0073869Y0054551D01*
X0085121Y0054551D02*
X0085550Y0054551D01*
X0085550Y0056149D02*
X0034919Y0056149D01*
X0034919Y0057748D02*
X0085550Y0057748D01*
X0107300Y0057748D02*
X0108800Y0057748D01*
X0108800Y0059346D02*
X0107300Y0059346D01*
X0107300Y0060945D02*
X0108800Y0060945D01*
X0108800Y0062543D02*
X0107300Y0062543D01*
X0115095Y0057748D02*
X0116525Y0057748D01*
X0108822Y0056149D02*
X0107300Y0056149D01*
X0107300Y0054551D02*
X0109806Y0054551D01*
X0111405Y0052952D02*
X0107300Y0052952D01*
X0107300Y0051354D02*
X0113573Y0051354D01*
X0107300Y0049755D02*
X0126850Y0049755D01*
X0134269Y0049755D02*
X0173050Y0049755D01*
X0173050Y0048157D02*
X0107300Y0048157D01*
X0107300Y0046558D02*
X0173050Y0046558D01*
X0173050Y0044960D02*
X0107300Y0044960D01*
X0107300Y0043361D02*
X0173050Y0043361D01*
X0173050Y0041763D02*
X0133898Y0041763D01*
X0133567Y0041900D02*
X0116283Y0041900D01*
X0115327Y0041504D01*
X0114596Y0040773D01*
X0114200Y0039817D01*
X0114200Y0023783D01*
X0114596Y0022827D01*
X0115327Y0022096D01*
X0116283Y0021700D01*
X0117317Y0021700D01*
X0133567Y0021700D01*
X0134523Y0022096D01*
X0135254Y0022827D01*
X0135650Y0023783D01*
X0135650Y0039817D01*
X0135254Y0040773D01*
X0134523Y0041504D01*
X0133567Y0041900D01*
X0135506Y0040164D02*
X0173050Y0040164D01*
X0173050Y0038566D02*
X0135650Y0038566D01*
X0135650Y0036967D02*
X0173050Y0036967D01*
X0173050Y0035369D02*
X0135650Y0035369D01*
X0135650Y0033770D02*
X0173050Y0033770D01*
X0173050Y0032172D02*
X0135650Y0032172D01*
X0135650Y0030573D02*
X0173050Y0030573D01*
X0173050Y0028975D02*
X0135650Y0028975D01*
X0135650Y0027376D02*
X0173050Y0027376D01*
X0173050Y0025778D02*
X0135650Y0025778D01*
X0135650Y0024179D02*
X0173050Y0024179D01*
X0173050Y0022581D02*
X0135008Y0022581D01*
X0133050Y0024300D02*
X0116800Y0024300D01*
X0116800Y0039300D01*
X0133050Y0039300D01*
X0133050Y0024300D01*
X0133050Y0025778D02*
X0116800Y0025778D01*
X0116800Y0027376D02*
X0133050Y0027376D01*
X0133050Y0028975D02*
X0116800Y0028975D01*
X0116800Y0030573D02*
X0133050Y0030573D01*
X0133050Y0032172D02*
X0116800Y0032172D01*
X0116800Y0033770D02*
X0133050Y0033770D01*
X0133050Y0035369D02*
X0116800Y0035369D01*
X0116800Y0036967D02*
X0133050Y0036967D01*
X0133050Y0038566D02*
X0116800Y0038566D01*
X0114200Y0038566D02*
X0107300Y0038566D01*
X0107300Y0040164D02*
X0114344Y0040164D01*
X0115952Y0041763D02*
X0107300Y0041763D01*
X0107300Y0036967D02*
X0114200Y0036967D01*
X0114200Y0035369D02*
X0107300Y0035369D01*
X0107300Y0033770D02*
X0114200Y0033770D01*
X0114200Y0032172D02*
X0107300Y0032172D01*
X0107300Y0030573D02*
X0114200Y0030573D01*
X0114200Y0028975D02*
X0107300Y0028975D01*
X0107300Y0027376D02*
X0114200Y0027376D01*
X0114200Y0025778D02*
X0107300Y0025778D01*
X0107300Y0024179D02*
X0114200Y0024179D01*
X0114842Y0022581D02*
X0107762Y0022581D01*
X0109360Y0020982D02*
X0117017Y0020982D01*
X0121583Y0020982D02*
X0173050Y0020982D01*
X0173050Y0019384D02*
X0135431Y0019384D01*
X0135431Y0017785D02*
X0173050Y0017785D01*
X0173050Y0016187D02*
X0135431Y0016187D01*
X0135431Y0014588D02*
X0173050Y0014588D01*
X0173050Y0012990D02*
X0135431Y0012990D01*
X0130560Y0027902D02*
X0129300Y0027902D01*
X0085550Y0028975D02*
X0085007Y0028975D01*
X0085550Y0008194D02*
X0004600Y0008194D01*
X0004600Y0006596D02*
X0085550Y0006596D01*
X0085550Y0004997D02*
X0004600Y0004997D01*
X0022075Y0057748D02*
X0026201Y0057748D01*
X0011300Y0064142D02*
X0011050Y0064142D01*
X0011050Y0065740D02*
X0011300Y0065740D01*
X0011300Y0067339D02*
X0011050Y0067339D01*
X0011050Y0068937D02*
X0011300Y0068937D01*
X0011300Y0070536D02*
X0011050Y0070536D01*
X0011050Y0072134D02*
X0011300Y0072134D01*
X0011050Y0073733D02*
X0011990Y0073733D01*
X0011050Y0075332D02*
X0013589Y0075332D01*
X0014728Y0076930D02*
X0012423Y0076930D01*
X0014021Y0078529D02*
X0014728Y0078529D01*
X0015620Y0080127D02*
X0016162Y0080127D01*
X0016999Y0081726D02*
X0023294Y0081726D01*
X0023169Y0080127D02*
X0022438Y0080127D01*
X0025066Y0083324D02*
X0017300Y0083324D01*
X0017300Y0084923D02*
X0023468Y0084923D01*
X0021903Y0086521D02*
X0017300Y0086521D01*
X0017300Y0088120D02*
X0021500Y0088120D01*
X0021500Y0089718D02*
X0017300Y0089718D01*
X0018467Y0091317D02*
X0020133Y0091317D01*
X0019500Y0092915D02*
X0019100Y0092915D01*
X0019100Y0094514D02*
X0019500Y0094514D01*
X0019500Y0096112D02*
X0019100Y0096112D01*
X0019100Y0097711D02*
X0019500Y0097711D01*
X0019500Y0099309D02*
X0019100Y0099309D01*
X0019037Y0100908D02*
X0019563Y0100908D01*
X0020225Y0102506D02*
X0018375Y0102506D01*
X0016450Y0104105D02*
X0022150Y0104105D01*
X0031300Y0107302D02*
X0004600Y0107302D01*
X0004600Y0108900D02*
X0031300Y0108900D01*
X0030256Y0110499D02*
X0004600Y0110499D01*
X0004600Y0112097D02*
X0023169Y0112097D01*
X0023169Y0113696D02*
X0022661Y0113696D01*
X0015939Y0113696D02*
X0004600Y0113696D01*
X0004600Y0115294D02*
X0014728Y0115294D01*
X0014728Y0116893D02*
X0004600Y0116893D01*
X0004600Y0118491D02*
X0014728Y0118491D01*
X0016125Y0120090D02*
X0004600Y0120090D01*
X0004600Y0121688D02*
X0056300Y0121688D01*
X0023863Y0120090D02*
X0022475Y0120090D01*
X0014405Y0123287D02*
X0004600Y0123287D01*
X0004600Y0124885D02*
X0014200Y0124885D01*
X0089300Y0120090D02*
X0116125Y0120090D01*
X0114728Y0118491D02*
X0089300Y0118491D01*
X0089300Y0116893D02*
X0114728Y0116893D01*
X0114728Y0115294D02*
X0089300Y0115294D01*
X0089300Y0113696D02*
X0115939Y0113696D01*
X0122661Y0113696D02*
X0123169Y0113696D01*
X0123169Y0112097D02*
X0089300Y0112097D01*
X0089300Y0110499D02*
X0123756Y0110499D01*
X0122158Y0108900D02*
X0089300Y0108900D01*
X0089300Y0107302D02*
X0121300Y0107302D01*
X0120225Y0102506D02*
X0118375Y0102506D01*
X0119037Y0100908D02*
X0119563Y0100908D01*
X0119500Y0099309D02*
X0119100Y0099309D01*
X0119100Y0097711D02*
X0119500Y0097711D01*
X0119500Y0096112D02*
X0119100Y0096112D01*
X0119100Y0094514D02*
X0119500Y0094514D01*
X0119500Y0092915D02*
X0119100Y0092915D01*
X0118467Y0091317D02*
X0120133Y0091317D01*
X0121612Y0089718D02*
X0117100Y0089718D01*
X0135306Y0081726D02*
X0136500Y0081726D01*
X0136500Y0080127D02*
X0135431Y0080127D01*
X0135431Y0078529D02*
X0136500Y0078529D01*
X0136500Y0076930D02*
X0135431Y0076930D01*
X0135431Y0075332D02*
X0136500Y0075332D01*
X0136500Y0073733D02*
X0134960Y0073733D01*
X0136500Y0072134D02*
X0114800Y0072134D01*
X0114800Y0070536D02*
X0116571Y0070536D01*
X0114972Y0068937D02*
X0114800Y0068937D01*
X0122029Y0070536D02*
X0136500Y0070536D01*
X0123640Y0073733D02*
X0122698Y0073733D01*
X0115902Y0073733D02*
X0115476Y0073733D01*
X0085550Y0088120D02*
X0037913Y0088120D01*
X0036500Y0081726D02*
X0035306Y0081726D01*
X0035431Y0080127D02*
X0036500Y0080127D01*
X0036500Y0078529D02*
X0035431Y0078529D01*
X0035431Y0076930D02*
X0036500Y0076930D01*
X0036500Y0075332D02*
X0035431Y0075332D01*
X0034960Y0073733D02*
X0036500Y0073733D01*
X0036500Y0072134D02*
X0018877Y0072134D01*
X0022029Y0070536D02*
X0036500Y0070536D01*
X0036080Y0068937D02*
X0035431Y0068937D01*
X0023640Y0073733D02*
X0022698Y0073733D01*
X0122075Y0057748D02*
X0126201Y0057748D01*
X0134919Y0057748D02*
X0173050Y0057748D01*
X0173050Y0056149D02*
X0134919Y0056149D01*
X0134919Y0054551D02*
X0173050Y0054551D01*
X0173050Y0052952D02*
X0134919Y0052952D01*
X0134919Y0051354D02*
X0173050Y0051354D01*
X0214379Y0048157D02*
X0218701Y0048157D01*
X0219300Y0036800D02*
X0219300Y0026800D01*
X0229300Y0027902D02*
X0230560Y0029162D01*
X0230560Y0036800D01*
X0235431Y0068937D02*
X0236080Y0068937D01*
X0221612Y0089718D02*
X0217100Y0089718D01*
X0218467Y0091317D02*
X0220133Y0091317D01*
X0219500Y0092915D02*
X0219100Y0092915D01*
X0219100Y0094514D02*
X0219500Y0094514D01*
X0219500Y0096112D02*
X0219100Y0096112D01*
X0219100Y0097711D02*
X0219500Y0097711D01*
X0219500Y0099309D02*
X0219100Y0099309D01*
X0219037Y0100908D02*
X0219563Y0100908D01*
X0220225Y0102506D02*
X0218375Y0102506D01*
X0216450Y0104105D02*
X0221300Y0104105D01*
X0222475Y0120090D02*
X0223863Y0120090D01*
X0216800Y0124300D02*
X0216800Y0139300D01*
X0233050Y0139300D01*
X0233050Y0124300D01*
X0216800Y0124300D01*
X0216800Y0124885D02*
X0233050Y0124885D01*
X0233050Y0126484D02*
X0216800Y0126484D01*
X0216800Y0128082D02*
X0233050Y0128082D01*
X0233050Y0129681D02*
X0216800Y0129681D01*
X0216800Y0131279D02*
X0233050Y0131279D01*
X0233050Y0132878D02*
X0216800Y0132878D01*
X0216800Y0134476D02*
X0233050Y0134476D01*
X0233050Y0136075D02*
X0216800Y0136075D01*
X0216800Y0137673D02*
X0233050Y0137673D01*
X0233050Y0139272D02*
X0216800Y0139272D01*
X0214200Y0139272D02*
X0176800Y0139272D01*
X0176800Y0140870D02*
X0214694Y0140870D01*
X0214200Y0137673D02*
X0176800Y0137673D01*
X0176800Y0136075D02*
X0214200Y0136075D01*
X0214200Y0134476D02*
X0176800Y0134476D01*
X0176800Y0132878D02*
X0214200Y0132878D01*
X0214200Y0131279D02*
X0176800Y0131279D01*
X0176800Y0129681D02*
X0214200Y0129681D01*
X0214200Y0128082D02*
X0176800Y0128082D01*
X0176800Y0126484D02*
X0214200Y0126484D01*
X0214200Y0124885D02*
X0176800Y0124885D01*
X0176800Y0123287D02*
X0214405Y0123287D01*
X0219300Y0126800D02*
X0219300Y0136800D01*
X0229300Y0135540D02*
X0229300Y0127902D01*
X0235650Y0128082D02*
X0253800Y0128082D01*
X0253800Y0129681D02*
X0235650Y0129681D01*
X0235650Y0131279D02*
X0253800Y0131279D01*
X0253800Y0132878D02*
X0235650Y0132878D01*
X0235650Y0134476D02*
X0253800Y0134476D01*
X0253800Y0136075D02*
X0235650Y0136075D01*
X0235650Y0137673D02*
X0253800Y0137673D01*
X0253800Y0139272D02*
X0235650Y0139272D01*
X0235156Y0140870D02*
X0253800Y0140870D01*
X0253800Y0142469D02*
X0176800Y0142469D01*
X0176800Y0144068D02*
X0253800Y0144068D01*
X0253800Y0145666D02*
X0176800Y0145666D01*
X0176800Y0147265D02*
X0253800Y0147265D01*
X0253800Y0148863D02*
X0176800Y0148863D01*
X0156300Y0140870D02*
X0135156Y0140870D01*
X0135650Y0139272D02*
X0156300Y0139272D01*
X0156300Y0137673D02*
X0135650Y0137673D01*
X0135650Y0136075D02*
X0156300Y0136075D01*
X0156300Y0134476D02*
X0135650Y0134476D01*
X0135650Y0132878D02*
X0156300Y0132878D01*
X0156300Y0131279D02*
X0135650Y0131279D01*
X0135650Y0129681D02*
X0155438Y0129681D01*
X0153840Y0128082D02*
X0135650Y0128082D01*
X0135650Y0126484D02*
X0152241Y0126484D01*
X0150643Y0124885D02*
X0135650Y0124885D01*
X0135445Y0123287D02*
X0149044Y0123287D01*
X0133050Y0124300D02*
X0116800Y0124300D01*
X0116800Y0139300D01*
X0133050Y0139300D01*
X0133050Y0124300D01*
X0133050Y0124885D02*
X0116800Y0124885D01*
X0116800Y0126484D02*
X0133050Y0126484D01*
X0133050Y0128082D02*
X0116800Y0128082D01*
X0116800Y0129681D02*
X0133050Y0129681D01*
X0133050Y0131279D02*
X0116800Y0131279D01*
X0116800Y0132878D02*
X0133050Y0132878D01*
X0133050Y0134476D02*
X0116800Y0134476D01*
X0116800Y0136075D02*
X0133050Y0136075D01*
X0133050Y0137673D02*
X0116800Y0137673D01*
X0116800Y0139272D02*
X0133050Y0139272D01*
X0130560Y0136800D02*
X0130560Y0129162D01*
X0129300Y0127902D01*
X0119300Y0126800D02*
X0119300Y0136800D01*
X0122475Y0120090D02*
X0123863Y0120090D01*
X0212300Y0158454D02*
X0216460Y0158454D01*
X0228040Y0154300D02*
X0239300Y0154300D01*
X0239300Y0138060D01*
X0238040Y0136800D01*
X0249300Y0136800D01*
X0230560Y0136800D02*
X0229300Y0135540D01*
X0235650Y0126484D02*
X0252241Y0126484D01*
X0250643Y0124885D02*
X0235650Y0124885D01*
X0322661Y0113696D02*
X0323169Y0113696D01*
X0332008Y0110499D02*
X0336256Y0110499D01*
X0335431Y0112097D02*
X0337855Y0112097D01*
X0339453Y0113696D02*
X0335431Y0113696D01*
X0335431Y0115294D02*
X0341052Y0115294D01*
X0342650Y0116893D02*
X0335431Y0116893D01*
X0335431Y0118491D02*
X0343800Y0118491D01*
X0349800Y0118491D02*
X0354300Y0118491D01*
X0354300Y0116893D02*
X0349800Y0116893D01*
X0349423Y0115294D02*
X0354300Y0115294D01*
X0354300Y0113696D02*
X0347938Y0113696D01*
X0346340Y0112097D02*
X0354300Y0112097D01*
X0354300Y0110499D02*
X0344741Y0110499D01*
X0343143Y0108900D02*
X0354300Y0108900D01*
X0354300Y0107302D02*
X0341544Y0107302D01*
X0339946Y0105703D02*
X0354300Y0105703D01*
X0354300Y0104105D02*
X0338347Y0104105D01*
X0338375Y0102506D02*
X0354300Y0102506D01*
X0354300Y0100908D02*
X0339037Y0100908D01*
X0339100Y0099309D02*
X0354300Y0099309D01*
X0354300Y0097711D02*
X0339100Y0097711D01*
X0339100Y0096112D02*
X0354300Y0096112D01*
X0354300Y0094514D02*
X0339100Y0094514D01*
X0339100Y0092915D02*
X0354300Y0092915D01*
X0354300Y0091317D02*
X0338467Y0091317D01*
X0336988Y0089718D02*
X0354300Y0089718D01*
X0331612Y0089718D02*
X0326988Y0089718D01*
X0328467Y0091317D02*
X0330133Y0091317D01*
X0329500Y0092915D02*
X0329100Y0092915D01*
X0329100Y0094514D02*
X0329500Y0094514D01*
X0329500Y0096112D02*
X0329100Y0096112D01*
X0329100Y0097711D02*
X0329500Y0097711D01*
X0329500Y0099309D02*
X0329100Y0099309D01*
X0329037Y0100908D02*
X0329563Y0100908D01*
X0330225Y0102506D02*
X0328375Y0102506D01*
X0327300Y0104105D02*
X0331300Y0104105D01*
X0331634Y0105703D02*
X0327446Y0105703D01*
X0329044Y0107302D02*
X0333059Y0107302D01*
X0334658Y0108900D02*
X0330643Y0108900D01*
X0349800Y0120090D02*
X0354300Y0120090D01*
X0354300Y0121688D02*
X0349800Y0121688D01*
X0358050Y0121688D02*
X0436300Y0121688D01*
X0436300Y0120090D02*
X0434737Y0120090D01*
X0434376Y0120450D02*
X0424224Y0120450D01*
X0423573Y0119800D01*
X0422765Y0119800D01*
X0421194Y0121372D01*
X0417406Y0121372D01*
X0415835Y0119800D01*
X0413703Y0119800D01*
X0412601Y0119343D01*
X0411757Y0118499D01*
X0406757Y0113499D01*
X0406300Y0112397D01*
X0406300Y0103588D01*
X0405231Y0102519D01*
X0404500Y0100755D01*
X0404500Y0092845D01*
X0405231Y0091081D01*
X0406581Y0089731D01*
X0408345Y0089000D01*
X0410255Y0089000D01*
X0412019Y0089731D01*
X0413369Y0091081D01*
X0414100Y0092845D01*
X0414100Y0100755D01*
X0413369Y0102519D01*
X0412300Y0103588D01*
X0412300Y0110557D01*
X0415543Y0113800D01*
X0415835Y0113800D01*
X0417406Y0112228D01*
X0421194Y0112228D01*
X0422765Y0113800D01*
X0423169Y0113800D01*
X0423169Y0111999D01*
X0424224Y0110945D01*
X0434376Y0110945D01*
X0435431Y0111999D01*
X0435431Y0119396D01*
X0434376Y0120450D01*
X0435431Y0118491D02*
X0436300Y0118491D01*
X0436300Y0116893D02*
X0435431Y0116893D01*
X0435431Y0115294D02*
X0436300Y0115294D01*
X0436300Y0113696D02*
X0435431Y0113696D01*
X0435431Y0112097D02*
X0436300Y0112097D01*
X0436256Y0110499D02*
X0412300Y0110499D01*
X0412300Y0108900D02*
X0419658Y0108900D01*
X0418059Y0107302D02*
X0412300Y0107302D01*
X0412300Y0105703D02*
X0416634Y0105703D01*
X0416300Y0104105D02*
X0412300Y0104105D01*
X0413375Y0102506D02*
X0415225Y0102506D01*
X0414563Y0100908D02*
X0414037Y0100908D01*
X0414100Y0099309D02*
X0414500Y0099309D01*
X0414500Y0097711D02*
X0414100Y0097711D01*
X0414100Y0096112D02*
X0414500Y0096112D01*
X0414500Y0094514D02*
X0414100Y0094514D01*
X0414100Y0092915D02*
X0414500Y0092915D01*
X0415133Y0091317D02*
X0413467Y0091317D01*
X0411988Y0089718D02*
X0416612Y0089718D01*
X0421988Y0089718D02*
X0443921Y0089718D01*
X0443921Y0088120D02*
X0438436Y0088120D01*
X0440072Y0086521D02*
X0443921Y0086521D01*
X0443921Y0084923D02*
X0441670Y0084923D01*
X0442300Y0083324D02*
X0443921Y0083324D01*
X0443921Y0081726D02*
X0442300Y0081726D01*
X0442300Y0080127D02*
X0443921Y0080127D01*
X0443921Y0078529D02*
X0442300Y0078529D01*
X0442300Y0076930D02*
X0443921Y0076930D01*
X0443921Y0075332D02*
X0442300Y0075332D01*
X0442300Y0073733D02*
X0443921Y0073733D01*
X0443921Y0072134D02*
X0442300Y0072134D01*
X0442300Y0070536D02*
X0443921Y0070536D01*
X0443921Y0068937D02*
X0442300Y0068937D01*
X0442191Y0067339D02*
X0443921Y0067339D01*
X0443921Y0065740D02*
X0441085Y0065740D01*
X0439487Y0064142D02*
X0443921Y0064142D01*
X0443921Y0062543D02*
X0435431Y0062543D01*
X0434376Y0060945D02*
X0443921Y0060945D01*
X0435797Y0068937D02*
X0435431Y0068937D01*
X0436300Y0070536D02*
X0422029Y0070536D01*
X0422698Y0073733D02*
X0423640Y0073733D01*
X0415902Y0073733D02*
X0407456Y0073733D01*
X0407300Y0072134D02*
X0436300Y0072134D01*
X0436300Y0073733D02*
X0434960Y0073733D01*
X0435431Y0075332D02*
X0436300Y0075332D01*
X0436300Y0076930D02*
X0435431Y0076930D01*
X0435431Y0078529D02*
X0436300Y0078529D01*
X0436300Y0080127D02*
X0435431Y0080127D01*
X0435306Y0081726D02*
X0436300Y0081726D01*
X0443921Y0091317D02*
X0423467Y0091317D01*
X0424100Y0092915D02*
X0443921Y0092915D01*
X0443921Y0094514D02*
X0424100Y0094514D01*
X0424100Y0096112D02*
X0443921Y0096112D01*
X0443921Y0097711D02*
X0424100Y0097711D01*
X0424100Y0099309D02*
X0443921Y0099309D01*
X0443921Y0100908D02*
X0424037Y0100908D01*
X0423375Y0102506D02*
X0443921Y0102506D01*
X0443921Y0104105D02*
X0438132Y0104105D01*
X0439946Y0105703D02*
X0443921Y0105703D01*
X0443921Y0107302D02*
X0441544Y0107302D01*
X0442300Y0108900D02*
X0443921Y0108900D01*
X0443921Y0110499D02*
X0442300Y0110499D01*
X0442300Y0112097D02*
X0443921Y0112097D01*
X0443921Y0113696D02*
X0442300Y0113696D01*
X0442300Y0115294D02*
X0443921Y0115294D01*
X0443921Y0116893D02*
X0442300Y0116893D01*
X0442300Y0118491D02*
X0443921Y0118491D01*
X0443921Y0120090D02*
X0442300Y0120090D01*
X0442300Y0121688D02*
X0443921Y0121688D01*
X0443921Y0123287D02*
X0442300Y0123287D01*
X0442300Y0124885D02*
X0443921Y0124885D01*
X0443921Y0126484D02*
X0442300Y0126484D01*
X0442300Y0128082D02*
X0443921Y0128082D01*
X0443921Y0129681D02*
X0442300Y0129681D01*
X0442300Y0131279D02*
X0443921Y0131279D01*
X0443921Y0132878D02*
X0442300Y0132878D01*
X0442300Y0134476D02*
X0443921Y0134476D01*
X0443921Y0136075D02*
X0442300Y0136075D01*
X0442300Y0137673D02*
X0443921Y0137673D01*
X0443921Y0139272D02*
X0442300Y0139272D01*
X0442300Y0140870D02*
X0443921Y0140870D01*
X0443921Y0142469D02*
X0442300Y0142469D01*
X0442187Y0144068D02*
X0443921Y0144068D01*
X0443921Y0145666D02*
X0441074Y0145666D01*
X0439476Y0147265D02*
X0443921Y0147265D01*
X0443921Y0148863D02*
X0437877Y0148863D01*
X0436279Y0150462D02*
X0443921Y0150462D01*
X0443921Y0152060D02*
X0434680Y0152060D01*
X0433082Y0153659D02*
X0443921Y0153659D01*
X0443921Y0155257D02*
X0432300Y0155257D01*
X0432300Y0156856D02*
X0443921Y0156856D01*
X0443921Y0158454D02*
X0432300Y0158454D01*
X0432300Y0160053D02*
X0443921Y0160053D01*
X0443921Y0161651D02*
X0435083Y0161651D01*
X0435431Y0163250D02*
X0443921Y0163250D01*
X0443921Y0164848D02*
X0435431Y0164848D01*
X0435431Y0166447D02*
X0443921Y0166447D01*
X0443921Y0168045D02*
X0435431Y0168045D01*
X0426300Y0160053D02*
X0373420Y0160053D01*
X0376800Y0158454D02*
X0426300Y0158454D01*
X0426300Y0156856D02*
X0379035Y0156856D01*
X0380279Y0155257D02*
X0426300Y0155257D01*
X0426300Y0153659D02*
X0381523Y0153659D01*
X0382146Y0152060D02*
X0426524Y0152060D01*
X0427793Y0150462D02*
X0382695Y0150462D01*
X0383158Y0148863D02*
X0429392Y0148863D01*
X0430990Y0147265D02*
X0383158Y0147265D01*
X0383158Y0145666D02*
X0432589Y0145666D01*
X0434187Y0144068D02*
X0383014Y0144068D01*
X0381002Y0139272D02*
X0396700Y0139272D01*
X0396700Y0137673D02*
X0379758Y0137673D01*
X0378222Y0136075D02*
X0396700Y0136075D01*
X0396700Y0134476D02*
X0375775Y0134476D01*
X0399300Y0136075D02*
X0415550Y0136075D01*
X0415550Y0137673D02*
X0399300Y0137673D01*
X0399300Y0139272D02*
X0415550Y0139272D01*
X0413060Y0136800D02*
X0413060Y0129300D01*
X0415560Y0126800D01*
X0419300Y0126800D01*
X0434224Y0132878D02*
X0436300Y0132878D01*
X0436300Y0131279D02*
X0435562Y0131279D01*
X0435650Y0129681D02*
X0436300Y0129681D01*
X0436300Y0128082D02*
X0435650Y0128082D01*
X0435650Y0126484D02*
X0436300Y0126484D01*
X0436300Y0124885D02*
X0435650Y0124885D01*
X0435445Y0123287D02*
X0436300Y0123287D01*
X0423863Y0120090D02*
X0422475Y0120090D01*
X0416125Y0120090D02*
X0358050Y0120090D01*
X0358050Y0118491D02*
X0411749Y0118491D01*
X0410150Y0116893D02*
X0358050Y0116893D01*
X0358050Y0115294D02*
X0408552Y0115294D01*
X0406953Y0113696D02*
X0358050Y0113696D01*
X0358050Y0112097D02*
X0406300Y0112097D01*
X0406300Y0110499D02*
X0358050Y0110499D01*
X0358050Y0108900D02*
X0406300Y0108900D01*
X0406300Y0107302D02*
X0358050Y0107302D01*
X0358050Y0105703D02*
X0406300Y0105703D01*
X0406300Y0104105D02*
X0401450Y0104105D01*
X0403375Y0102506D02*
X0405225Y0102506D01*
X0404563Y0100908D02*
X0404037Y0100908D01*
X0404100Y0099309D02*
X0404500Y0099309D01*
X0404500Y0097711D02*
X0404100Y0097711D01*
X0404100Y0096112D02*
X0404500Y0096112D01*
X0404500Y0094514D02*
X0404100Y0094514D01*
X0404100Y0092915D02*
X0404500Y0092915D01*
X0405133Y0091317D02*
X0403467Y0091317D01*
X0404375Y0089718D02*
X0406612Y0089718D01*
X0407300Y0070536D02*
X0416571Y0070536D01*
X0414972Y0068937D02*
X0409157Y0068937D01*
X0413840Y0112097D02*
X0423169Y0112097D01*
X0423169Y0113696D02*
X0422661Y0113696D01*
X0415939Y0113696D02*
X0415438Y0113696D01*
X0413060Y0136800D02*
X0401800Y0136800D01*
X0420540Y0136800D02*
X0431800Y0136800D01*
X0401800Y0165540D02*
X0401800Y0176800D01*
X0419300Y0176800D01*
X0365013Y0160053D02*
X0358050Y0160053D01*
X0358050Y0158454D02*
X0361498Y0158454D01*
X0359762Y0156856D02*
X0358050Y0156856D01*
X0358050Y0155257D02*
X0358119Y0155257D01*
X0258499Y0163241D02*
X0258499Y0163241D01*
X0029300Y0177902D02*
X0028198Y0176800D01*
D20*
X0024300Y0096800D02*
X0024300Y0088050D01*
X0026800Y0085550D01*
X0036800Y0085550D01*
X0039300Y0083050D01*
X0039300Y0068198D01*
X0036800Y0065698D01*
X0029300Y0065698D01*
X0028198Y0066800D02*
X0019300Y0066800D01*
X0019300Y0076800D02*
X0028198Y0076800D01*
X0030560Y0054300D02*
X0019300Y0054300D01*
X0114300Y0088050D02*
X0114300Y0096800D01*
X0114300Y0088050D02*
X0116800Y0085550D01*
X0136800Y0085550D01*
X0139300Y0083050D01*
X0139300Y0069300D01*
X0136800Y0066800D01*
X0119300Y0066800D01*
X0214300Y0088050D02*
X0214300Y0096800D01*
X0214300Y0088050D02*
X0216800Y0085550D01*
X0236800Y0085550D01*
X0239300Y0083050D01*
X0239300Y0068198D01*
X0236800Y0065698D01*
M02*
