G75*
G70*
%OFA0B0*%
%FSLAX24Y24*%
%IPPOS*%
%LPD*%
%AMOC8*
5,1,8,0,0,1.08239X$1,22.5*
%
%ADD10C,0.0000*%
%ADD11R,0.0800X0.0260*%
%ADD12OC8,0.0750*%
%ADD13C,0.0560*%
%ADD14C,0.0520*%
%ADD15C,0.0705*%
%ADD16C,0.0594*%
%ADD17C,0.0240*%
%ADD18C,0.0476*%
%ADD19C,0.0400*%
%ADD20C,0.0320*%
%ADD21C,0.0120*%
%ADD22C,0.0160*%
D10*
X000161Y000161D02*
X000161Y011661D01*
X060403Y011661D01*
X060403Y000161D01*
X000161Y000161D01*
X005011Y002661D02*
X005013Y002711D01*
X005019Y002761D01*
X005029Y002811D01*
X005042Y002859D01*
X005059Y002907D01*
X005080Y002953D01*
X005104Y002997D01*
X005132Y003039D01*
X005163Y003079D01*
X005197Y003116D01*
X005234Y003151D01*
X005273Y003182D01*
X005314Y003211D01*
X005358Y003236D01*
X005404Y003258D01*
X005451Y003276D01*
X005499Y003290D01*
X005548Y003301D01*
X005598Y003308D01*
X005648Y003311D01*
X005699Y003310D01*
X005749Y003305D01*
X005799Y003296D01*
X005847Y003284D01*
X005895Y003267D01*
X005941Y003247D01*
X005986Y003224D01*
X006029Y003197D01*
X006069Y003167D01*
X006107Y003134D01*
X006142Y003098D01*
X006175Y003059D01*
X006204Y003018D01*
X006230Y002975D01*
X006253Y002930D01*
X006272Y002883D01*
X006287Y002835D01*
X006299Y002786D01*
X006307Y002736D01*
X006311Y002686D01*
X006311Y002636D01*
X006307Y002586D01*
X006299Y002536D01*
X006287Y002487D01*
X006272Y002439D01*
X006253Y002392D01*
X006230Y002347D01*
X006204Y002304D01*
X006175Y002263D01*
X006142Y002224D01*
X006107Y002188D01*
X006069Y002155D01*
X006029Y002125D01*
X005986Y002098D01*
X005941Y002075D01*
X005895Y002055D01*
X005847Y002038D01*
X005799Y002026D01*
X005749Y002017D01*
X005699Y002012D01*
X005648Y002011D01*
X005598Y002014D01*
X005548Y002021D01*
X005499Y002032D01*
X005451Y002046D01*
X005404Y002064D01*
X005358Y002086D01*
X005314Y002111D01*
X005273Y002140D01*
X005234Y002171D01*
X005197Y002206D01*
X005163Y002243D01*
X005132Y002283D01*
X005104Y002325D01*
X005080Y002369D01*
X005059Y002415D01*
X005042Y002463D01*
X005029Y002511D01*
X005019Y002561D01*
X005013Y002611D01*
X005011Y002661D01*
X005011Y009161D02*
X005013Y009211D01*
X005019Y009261D01*
X005029Y009311D01*
X005042Y009359D01*
X005059Y009407D01*
X005080Y009453D01*
X005104Y009497D01*
X005132Y009539D01*
X005163Y009579D01*
X005197Y009616D01*
X005234Y009651D01*
X005273Y009682D01*
X005314Y009711D01*
X005358Y009736D01*
X005404Y009758D01*
X005451Y009776D01*
X005499Y009790D01*
X005548Y009801D01*
X005598Y009808D01*
X005648Y009811D01*
X005699Y009810D01*
X005749Y009805D01*
X005799Y009796D01*
X005847Y009784D01*
X005895Y009767D01*
X005941Y009747D01*
X005986Y009724D01*
X006029Y009697D01*
X006069Y009667D01*
X006107Y009634D01*
X006142Y009598D01*
X006175Y009559D01*
X006204Y009518D01*
X006230Y009475D01*
X006253Y009430D01*
X006272Y009383D01*
X006287Y009335D01*
X006299Y009286D01*
X006307Y009236D01*
X006311Y009186D01*
X006311Y009136D01*
X006307Y009086D01*
X006299Y009036D01*
X006287Y008987D01*
X006272Y008939D01*
X006253Y008892D01*
X006230Y008847D01*
X006204Y008804D01*
X006175Y008763D01*
X006142Y008724D01*
X006107Y008688D01*
X006069Y008655D01*
X006029Y008625D01*
X005986Y008598D01*
X005941Y008575D01*
X005895Y008555D01*
X005847Y008538D01*
X005799Y008526D01*
X005749Y008517D01*
X005699Y008512D01*
X005648Y008511D01*
X005598Y008514D01*
X005548Y008521D01*
X005499Y008532D01*
X005451Y008546D01*
X005404Y008564D01*
X005358Y008586D01*
X005314Y008611D01*
X005273Y008640D01*
X005234Y008671D01*
X005197Y008706D01*
X005163Y008743D01*
X005132Y008783D01*
X005104Y008825D01*
X005080Y008869D01*
X005059Y008915D01*
X005042Y008963D01*
X005029Y009011D01*
X005019Y009061D01*
X005013Y009111D01*
X005011Y009161D01*
X048261Y009161D02*
X048263Y009211D01*
X048269Y009261D01*
X048279Y009311D01*
X048292Y009359D01*
X048309Y009407D01*
X048330Y009453D01*
X048354Y009497D01*
X048382Y009539D01*
X048413Y009579D01*
X048447Y009616D01*
X048484Y009651D01*
X048523Y009682D01*
X048564Y009711D01*
X048608Y009736D01*
X048654Y009758D01*
X048701Y009776D01*
X048749Y009790D01*
X048798Y009801D01*
X048848Y009808D01*
X048898Y009811D01*
X048949Y009810D01*
X048999Y009805D01*
X049049Y009796D01*
X049097Y009784D01*
X049145Y009767D01*
X049191Y009747D01*
X049236Y009724D01*
X049279Y009697D01*
X049319Y009667D01*
X049357Y009634D01*
X049392Y009598D01*
X049425Y009559D01*
X049454Y009518D01*
X049480Y009475D01*
X049503Y009430D01*
X049522Y009383D01*
X049537Y009335D01*
X049549Y009286D01*
X049557Y009236D01*
X049561Y009186D01*
X049561Y009136D01*
X049557Y009086D01*
X049549Y009036D01*
X049537Y008987D01*
X049522Y008939D01*
X049503Y008892D01*
X049480Y008847D01*
X049454Y008804D01*
X049425Y008763D01*
X049392Y008724D01*
X049357Y008688D01*
X049319Y008655D01*
X049279Y008625D01*
X049236Y008598D01*
X049191Y008575D01*
X049145Y008555D01*
X049097Y008538D01*
X049049Y008526D01*
X048999Y008517D01*
X048949Y008512D01*
X048898Y008511D01*
X048848Y008514D01*
X048798Y008521D01*
X048749Y008532D01*
X048701Y008546D01*
X048654Y008564D01*
X048608Y008586D01*
X048564Y008611D01*
X048523Y008640D01*
X048484Y008671D01*
X048447Y008706D01*
X048413Y008743D01*
X048382Y008783D01*
X048354Y008825D01*
X048330Y008869D01*
X048309Y008915D01*
X048292Y008963D01*
X048279Y009011D01*
X048269Y009061D01*
X048263Y009111D01*
X048261Y009161D01*
X048261Y002661D02*
X048263Y002711D01*
X048269Y002761D01*
X048279Y002811D01*
X048292Y002859D01*
X048309Y002907D01*
X048330Y002953D01*
X048354Y002997D01*
X048382Y003039D01*
X048413Y003079D01*
X048447Y003116D01*
X048484Y003151D01*
X048523Y003182D01*
X048564Y003211D01*
X048608Y003236D01*
X048654Y003258D01*
X048701Y003276D01*
X048749Y003290D01*
X048798Y003301D01*
X048848Y003308D01*
X048898Y003311D01*
X048949Y003310D01*
X048999Y003305D01*
X049049Y003296D01*
X049097Y003284D01*
X049145Y003267D01*
X049191Y003247D01*
X049236Y003224D01*
X049279Y003197D01*
X049319Y003167D01*
X049357Y003134D01*
X049392Y003098D01*
X049425Y003059D01*
X049454Y003018D01*
X049480Y002975D01*
X049503Y002930D01*
X049522Y002883D01*
X049537Y002835D01*
X049549Y002786D01*
X049557Y002736D01*
X049561Y002686D01*
X049561Y002636D01*
X049557Y002586D01*
X049549Y002536D01*
X049537Y002487D01*
X049522Y002439D01*
X049503Y002392D01*
X049480Y002347D01*
X049454Y002304D01*
X049425Y002263D01*
X049392Y002224D01*
X049357Y002188D01*
X049319Y002155D01*
X049279Y002125D01*
X049236Y002098D01*
X049191Y002075D01*
X049145Y002055D01*
X049097Y002038D01*
X049049Y002026D01*
X048999Y002017D01*
X048949Y002012D01*
X048898Y002011D01*
X048848Y002014D01*
X048798Y002021D01*
X048749Y002032D01*
X048701Y002046D01*
X048654Y002064D01*
X048608Y002086D01*
X048564Y002111D01*
X048523Y002140D01*
X048484Y002171D01*
X048447Y002206D01*
X048413Y002243D01*
X048382Y002283D01*
X048354Y002325D01*
X048330Y002369D01*
X048309Y002415D01*
X048292Y002463D01*
X048279Y002511D01*
X048269Y002561D01*
X048263Y002611D01*
X048261Y002661D01*
D11*
X039141Y005411D03*
X039141Y005911D03*
X039141Y006411D03*
X039141Y006911D03*
X039141Y007411D03*
X039141Y007911D03*
X039141Y008411D03*
X039141Y008911D03*
X039141Y009411D03*
X039141Y009911D03*
X035181Y009911D03*
X035181Y009411D03*
X035181Y008911D03*
X035181Y008411D03*
X035181Y007911D03*
X035181Y007411D03*
X035181Y006911D03*
X035181Y006411D03*
X035181Y005911D03*
X035181Y005411D03*
D12*
X030411Y003911D03*
X030411Y002911D03*
X030411Y001911D03*
X036661Y001661D03*
X036661Y002661D03*
X036661Y003661D03*
X045161Y003661D03*
X045161Y002661D03*
X045161Y001661D03*
X055911Y001661D03*
X058911Y001661D03*
X058911Y002661D03*
X055911Y002661D03*
X055911Y003661D03*
X058911Y003661D03*
X021661Y003661D03*
X021661Y002661D03*
X015661Y002661D03*
X013161Y002661D03*
X013161Y003661D03*
X015661Y003661D03*
X021661Y004661D03*
X015661Y001661D03*
X013161Y001661D03*
X001661Y001661D03*
X001661Y002661D03*
X001661Y003661D03*
D13*
X033271Y003911D02*
X033551Y003911D01*
X033551Y002911D02*
X033271Y002911D01*
X033271Y004911D02*
X033551Y004911D01*
D14*
X043531Y004661D02*
X043791Y004661D01*
X043791Y005661D02*
X043531Y005661D01*
X043531Y006661D02*
X043791Y006661D01*
X043791Y007661D02*
X043531Y007661D01*
X043531Y008661D02*
X043791Y008661D01*
X043791Y009661D02*
X043531Y009661D01*
X043531Y010661D02*
X043791Y010661D01*
X043791Y003661D02*
X043531Y003661D01*
X043531Y002661D02*
X043791Y002661D01*
D15*
X028130Y002080D02*
X028130Y001727D01*
X026161Y001727D02*
X026161Y002080D01*
X024193Y002080D02*
X024193Y001727D01*
D16*
X041763Y002661D02*
X042060Y002661D01*
X042060Y003661D02*
X041763Y003661D01*
X041763Y004661D02*
X042060Y004661D01*
X042060Y005661D02*
X041763Y005661D01*
X041763Y006661D02*
X042060Y006661D01*
X042060Y007661D02*
X041763Y007661D01*
X041763Y008661D02*
X042060Y008661D01*
X042060Y009661D02*
X041763Y009661D01*
X041763Y010661D02*
X042060Y010661D01*
D17*
X039141Y009911D02*
X038661Y009911D01*
X037911Y009161D01*
X037911Y006161D01*
X037411Y005411D02*
X036911Y005911D01*
X035181Y005911D01*
X033911Y005911D01*
X033411Y005411D01*
X033411Y004911D01*
X035411Y004411D02*
X038661Y004411D01*
X039411Y003661D01*
X039411Y001661D01*
X040161Y000911D01*
X051411Y000911D01*
X052161Y001661D01*
X052161Y004911D01*
X045911Y005661D02*
X058911Y005661D01*
X045911Y005661D02*
X045411Y006161D01*
X044161Y006161D01*
X039141Y005411D02*
X037411Y005411D01*
X035181Y006411D02*
X005661Y006411D01*
X004911Y007161D01*
X011661Y007161D02*
X011911Y006911D01*
X035181Y006911D01*
X035181Y007411D02*
X018911Y007411D01*
X018661Y007661D01*
X025661Y008161D02*
X025911Y007911D01*
X035181Y007911D01*
X035181Y008411D02*
X033411Y008411D01*
X032661Y009161D01*
X032661Y010161D02*
X033911Y008911D01*
X035181Y008911D01*
X035181Y009911D02*
X034161Y009911D01*
X032661Y010161D02*
X032661Y010661D01*
D18*
X032661Y010661D03*
X034161Y009911D03*
X032661Y009161D03*
X025661Y008161D03*
X018661Y007661D03*
X011661Y007161D03*
X004911Y007161D03*
X035411Y004411D03*
X037911Y006161D03*
X046161Y004911D03*
X052161Y004911D03*
X058911Y005661D03*
X046161Y001661D03*
X039911Y010411D03*
X047161Y010661D03*
D19*
X043661Y010661D01*
X046161Y004911D02*
X046161Y001661D01*
X033411Y003911D02*
X032161Y003911D01*
X031161Y004911D01*
X027161Y004911D01*
X026161Y003911D01*
X026161Y001903D01*
D20*
X034661Y002661D02*
X035661Y001661D01*
X036661Y001661D01*
X034661Y002661D02*
X034661Y005411D01*
X035181Y005411D01*
D21*
X034722Y005481D02*
X035641Y005481D01*
X035665Y005491D01*
X036737Y005491D01*
X037055Y005173D01*
X037173Y005055D01*
X037328Y004991D01*
X038657Y004991D01*
X038682Y004981D01*
X039551Y004981D01*
X039551Y004115D01*
X038899Y004767D01*
X038745Y004831D01*
X038578Y004831D01*
X035752Y004831D01*
X035716Y004867D01*
X035518Y004949D01*
X035304Y004949D01*
X035106Y004867D01*
X034955Y004716D01*
X034873Y004518D01*
X034873Y004304D01*
X034955Y004106D01*
X035106Y003955D01*
X035304Y003873D01*
X035518Y003873D01*
X035716Y003955D01*
X035752Y003991D01*
X036037Y003991D01*
X035986Y003941D01*
X035986Y003382D01*
X036207Y003161D01*
X035986Y002941D01*
X035986Y002382D01*
X036382Y001986D01*
X036941Y001986D01*
X037336Y002382D01*
X037336Y002941D01*
X037116Y003161D01*
X037336Y003382D01*
X037336Y003941D01*
X037286Y003991D01*
X038487Y003991D01*
X038991Y003487D01*
X038991Y001745D01*
X038991Y001578D01*
X039055Y001423D01*
X039805Y000673D01*
X039857Y000621D01*
X000621Y000621D01*
X000621Y011201D01*
X041507Y011201D01*
X041425Y011167D01*
X041257Y010999D01*
X041166Y010780D01*
X041166Y010543D01*
X041257Y010323D01*
X041419Y010161D01*
X041257Y009999D01*
X041251Y009984D01*
X041207Y009966D01*
X041106Y009865D01*
X041012Y009771D01*
X039841Y009771D01*
X039841Y009873D01*
X040018Y009873D01*
X040216Y009955D01*
X040367Y010106D01*
X040449Y010304D01*
X040449Y010518D01*
X040367Y010716D01*
X040216Y010867D01*
X040018Y010949D01*
X039804Y010949D01*
X039606Y010867D01*
X039530Y010791D01*
X038336Y010791D01*
X038196Y010733D01*
X038089Y010626D01*
X037254Y009791D01*
X035881Y009791D01*
X035881Y010101D01*
X035836Y010211D01*
X035751Y010296D01*
X035641Y010341D01*
X034722Y010341D01*
X034697Y010331D01*
X034502Y010331D01*
X034466Y010367D01*
X034268Y010449D01*
X034054Y010449D01*
X033856Y010367D01*
X033705Y010216D01*
X033623Y010018D01*
X033623Y009804D01*
X033631Y009785D01*
X033089Y010328D01*
X033117Y010356D01*
X033845Y010356D01*
X033726Y010237D02*
X033179Y010237D01*
X033117Y010356D02*
X033199Y010554D01*
X033199Y010768D01*
X033117Y010966D01*
X032966Y011117D01*
X032768Y011199D01*
X032554Y011199D01*
X032356Y011117D01*
X032205Y010966D01*
X032123Y010768D01*
X032123Y010554D01*
X032205Y010356D01*
X032241Y010320D01*
X032241Y010078D01*
X032305Y009923D01*
X032423Y009805D01*
X032537Y009692D01*
X032356Y009617D01*
X032205Y009466D01*
X032123Y009268D01*
X032123Y009054D01*
X032205Y008856D01*
X032356Y008705D01*
X032554Y008623D01*
X032605Y008623D01*
X032897Y008331D01*
X026173Y008331D01*
X026117Y008466D01*
X025966Y008617D01*
X025768Y008699D01*
X025554Y008699D01*
X025356Y008617D01*
X025205Y008466D01*
X025123Y008268D01*
X025123Y008054D01*
X025205Y007856D01*
X025230Y007831D01*
X019173Y007831D01*
X019117Y007966D01*
X018966Y008117D01*
X018768Y008199D01*
X018554Y008199D01*
X018356Y008117D01*
X018205Y007966D01*
X018123Y007768D01*
X018123Y007554D01*
X018205Y007356D01*
X018230Y007331D01*
X012173Y007331D01*
X012117Y007466D01*
X011966Y007617D01*
X011768Y007699D01*
X011554Y007699D01*
X011356Y007617D01*
X011205Y007466D01*
X011123Y007268D01*
X011123Y007054D01*
X011205Y006856D01*
X011230Y006831D01*
X005835Y006831D01*
X005449Y007217D01*
X005449Y007268D01*
X005367Y007466D01*
X005216Y007617D01*
X005018Y007699D01*
X004804Y007699D01*
X004606Y007617D01*
X004455Y007466D01*
X004373Y007268D01*
X004373Y007054D01*
X004455Y006856D01*
X004606Y006705D01*
X004804Y006623D01*
X004855Y006623D01*
X005423Y006055D01*
X005578Y005991D01*
X005745Y005991D01*
X033397Y005991D01*
X033173Y005767D01*
X033055Y005649D01*
X032991Y005495D01*
X032991Y005423D01*
X032943Y005403D01*
X032780Y005240D01*
X032691Y005027D01*
X032691Y004796D01*
X032780Y004583D01*
X032943Y004420D01*
X032963Y004411D01*
X032963Y004411D01*
X032368Y004411D01*
X031444Y005335D01*
X031261Y005411D01*
X031062Y005411D01*
X027062Y005411D01*
X026878Y005335D01*
X026737Y005194D01*
X025737Y004194D01*
X025661Y004011D01*
X025661Y003812D01*
X025661Y002502D01*
X025608Y002449D01*
X025509Y002209D01*
X025509Y001597D01*
X025608Y001357D01*
X025792Y001174D01*
X026031Y001075D01*
X026291Y001075D01*
X026531Y001174D01*
X026714Y001357D01*
X026814Y001597D01*
X026814Y002209D01*
X026714Y002449D01*
X026661Y002502D01*
X026661Y003704D01*
X027368Y004411D01*
X029957Y004411D01*
X029736Y004191D01*
X029736Y003632D01*
X029957Y003411D01*
X029736Y003191D01*
X029736Y002632D01*
X030132Y002236D01*
X030691Y002236D01*
X031086Y002632D01*
X031086Y003191D01*
X030866Y003411D01*
X031086Y003632D01*
X031086Y004191D01*
X030866Y004411D01*
X030954Y004411D01*
X031737Y003628D01*
X031878Y003487D01*
X032062Y003411D01*
X032963Y003411D01*
X032943Y003403D01*
X032780Y003240D01*
X032691Y003027D01*
X032691Y002796D01*
X032780Y002583D01*
X032943Y002420D01*
X033156Y002331D01*
X033667Y002331D01*
X033880Y002420D01*
X034043Y002583D01*
X034131Y002796D01*
X034131Y003027D01*
X034043Y003240D01*
X033880Y003403D01*
X033860Y003411D01*
X033880Y003420D01*
X034043Y003583D01*
X034131Y003796D01*
X034131Y004027D01*
X034043Y004240D01*
X033880Y004403D01*
X033860Y004411D01*
X033880Y004420D01*
X034043Y004583D01*
X034131Y004796D01*
X034131Y005027D01*
X034043Y005240D01*
X033938Y005344D01*
X034085Y005491D01*
X034697Y005491D01*
X034722Y005481D01*
X034024Y005259D02*
X036970Y005259D01*
X036851Y005377D02*
X033971Y005377D01*
X032992Y005496D02*
X000621Y005496D01*
X000621Y005614D02*
X033041Y005614D01*
X033139Y005733D02*
X000621Y005733D01*
X000621Y005851D02*
X033257Y005851D01*
X033376Y005970D02*
X000621Y005970D01*
X000621Y006088D02*
X005390Y006088D01*
X005272Y006207D02*
X000621Y006207D01*
X000621Y006326D02*
X005153Y006326D01*
X005034Y006444D02*
X000621Y006444D01*
X000621Y006563D02*
X004916Y006563D01*
X004664Y006681D02*
X000621Y006681D01*
X000621Y006800D02*
X004512Y006800D01*
X004429Y006918D02*
X000621Y006918D01*
X000621Y007037D02*
X004380Y007037D01*
X004373Y007155D02*
X000621Y007155D01*
X000621Y007274D02*
X004375Y007274D01*
X004425Y007392D02*
X000621Y007392D01*
X000621Y007511D02*
X004500Y007511D01*
X004636Y007629D02*
X000621Y007629D01*
X000621Y007748D02*
X005117Y007748D01*
X005190Y007711D02*
X004765Y007928D01*
X004428Y008265D01*
X004211Y008690D01*
X004136Y009161D01*
X004211Y009632D01*
X004428Y010058D01*
X004765Y010395D01*
X005190Y010612D01*
X005661Y010686D01*
X006132Y010612D01*
X006558Y010395D01*
X006895Y010058D01*
X007112Y009632D01*
X007186Y009161D01*
X007112Y008690D01*
X006895Y008265D01*
X006558Y007928D01*
X006132Y007711D01*
X005661Y007636D01*
X005190Y007711D01*
X005187Y007629D02*
X011386Y007629D01*
X011250Y007511D02*
X005323Y007511D01*
X005398Y007392D02*
X011175Y007392D01*
X011125Y007274D02*
X005447Y007274D01*
X005511Y007155D02*
X011123Y007155D01*
X011130Y007037D02*
X005630Y007037D01*
X005748Y006918D02*
X011179Y006918D01*
X012148Y007392D02*
X018190Y007392D01*
X018141Y007511D02*
X012073Y007511D01*
X011937Y007629D02*
X018123Y007629D01*
X018123Y007748D02*
X006205Y007748D01*
X006438Y007867D02*
X018164Y007867D01*
X018224Y007985D02*
X006615Y007985D01*
X006734Y008104D02*
X018343Y008104D01*
X018980Y008104D02*
X025123Y008104D01*
X025123Y008222D02*
X006852Y008222D01*
X006934Y008341D02*
X025153Y008341D01*
X025202Y008459D02*
X006994Y008459D01*
X007054Y008578D02*
X025317Y008578D01*
X025547Y008696D02*
X007113Y008696D01*
X007131Y008815D02*
X032247Y008815D01*
X032173Y008933D02*
X007150Y008933D01*
X007169Y009052D02*
X032124Y009052D01*
X032123Y009171D02*
X007185Y009171D01*
X007166Y009289D02*
X032132Y009289D01*
X032181Y009408D02*
X007147Y009408D01*
X007128Y009526D02*
X032265Y009526D01*
X032422Y009645D02*
X007105Y009645D01*
X007045Y009763D02*
X032465Y009763D01*
X032347Y009882D02*
X006985Y009882D01*
X006924Y010000D02*
X032273Y010000D01*
X032241Y010119D02*
X006834Y010119D01*
X006715Y010237D02*
X032241Y010237D01*
X032206Y010356D02*
X006597Y010356D01*
X006401Y010475D02*
X032156Y010475D01*
X032123Y010593D02*
X006169Y010593D01*
X005154Y010593D02*
X000621Y010593D01*
X000621Y010475D02*
X004921Y010475D01*
X004726Y010356D02*
X000621Y010356D01*
X000621Y010237D02*
X004607Y010237D01*
X004489Y010119D02*
X000621Y010119D01*
X000621Y010000D02*
X004398Y010000D01*
X004338Y009882D02*
X000621Y009882D01*
X000621Y009763D02*
X004278Y009763D01*
X004217Y009645D02*
X000621Y009645D01*
X000621Y009526D02*
X004194Y009526D01*
X004175Y009408D02*
X000621Y009408D01*
X000621Y009289D02*
X004157Y009289D01*
X004138Y009171D02*
X000621Y009171D01*
X000621Y009052D02*
X004154Y009052D01*
X004172Y008933D02*
X000621Y008933D01*
X000621Y008815D02*
X004191Y008815D01*
X004210Y008696D02*
X000621Y008696D01*
X000621Y008578D02*
X004268Y008578D01*
X004328Y008459D02*
X000621Y008459D01*
X000621Y008341D02*
X004389Y008341D01*
X004470Y008222D02*
X000621Y008222D01*
X000621Y008104D02*
X004589Y008104D01*
X004707Y007985D02*
X000621Y007985D01*
X000621Y007867D02*
X004884Y007867D01*
X000621Y005377D02*
X026980Y005377D01*
X026802Y005259D02*
X022018Y005259D01*
X021941Y005336D02*
X021382Y005336D01*
X020986Y004941D01*
X020986Y004382D01*
X021207Y004161D01*
X020986Y003941D01*
X020986Y003382D01*
X021382Y002986D01*
X021941Y002986D01*
X022336Y003382D01*
X022336Y003941D01*
X022116Y004161D01*
X022336Y004382D01*
X022336Y004941D01*
X021941Y005336D01*
X022137Y005140D02*
X026683Y005140D01*
X026564Y005022D02*
X022256Y005022D01*
X022336Y004903D02*
X026446Y004903D01*
X026327Y004784D02*
X022336Y004784D01*
X022336Y004666D02*
X026209Y004666D01*
X026090Y004547D02*
X022336Y004547D01*
X022336Y004429D02*
X025972Y004429D01*
X025853Y004310D02*
X022265Y004310D01*
X022146Y004192D02*
X025736Y004192D01*
X025687Y004073D02*
X022204Y004073D01*
X022322Y003955D02*
X025661Y003955D01*
X025661Y003836D02*
X022336Y003836D01*
X022336Y003718D02*
X025661Y003718D01*
X025661Y003599D02*
X022336Y003599D01*
X022336Y003480D02*
X025661Y003480D01*
X025661Y003362D02*
X022316Y003362D01*
X022198Y003243D02*
X025661Y003243D01*
X025661Y003125D02*
X022079Y003125D01*
X021961Y003006D02*
X025661Y003006D01*
X025661Y002888D02*
X016336Y002888D01*
X016336Y002941D02*
X016116Y003161D01*
X016336Y003382D01*
X016336Y003941D01*
X015941Y004336D01*
X015382Y004336D01*
X014986Y003941D01*
X014986Y003382D01*
X015207Y003161D01*
X014986Y002941D01*
X014986Y002382D01*
X015382Y001986D01*
X015941Y001986D01*
X016336Y002382D01*
X016336Y002941D01*
X016271Y003006D02*
X021362Y003006D01*
X021243Y003125D02*
X016152Y003125D01*
X016198Y003243D02*
X021125Y003243D01*
X021006Y003362D02*
X016316Y003362D01*
X016336Y003480D02*
X020986Y003480D01*
X020986Y003599D02*
X016336Y003599D01*
X016336Y003718D02*
X020986Y003718D01*
X020986Y003836D02*
X016336Y003836D01*
X016322Y003955D02*
X021000Y003955D01*
X021119Y004073D02*
X016204Y004073D01*
X016085Y004192D02*
X021176Y004192D01*
X021058Y004310D02*
X015967Y004310D01*
X015356Y004310D02*
X013467Y004310D01*
X013441Y004336D02*
X012882Y004336D01*
X012486Y003941D01*
X012486Y003382D01*
X012707Y003161D01*
X012486Y002941D01*
X012486Y002382D01*
X012882Y001986D01*
X013441Y001986D01*
X013836Y002382D01*
X013836Y002941D01*
X013616Y003161D01*
X013836Y003382D01*
X013836Y003941D01*
X013441Y004336D01*
X013585Y004192D02*
X015237Y004192D01*
X015119Y004073D02*
X013704Y004073D01*
X013822Y003955D02*
X015000Y003955D01*
X014986Y003836D02*
X013836Y003836D01*
X013836Y003718D02*
X014986Y003718D01*
X014986Y003599D02*
X013836Y003599D01*
X013836Y003480D02*
X014986Y003480D01*
X015006Y003362D02*
X013816Y003362D01*
X013698Y003243D02*
X015125Y003243D01*
X015170Y003125D02*
X013652Y003125D01*
X013771Y003006D02*
X015052Y003006D01*
X014986Y002888D02*
X013836Y002888D01*
X013836Y002769D02*
X014986Y002769D01*
X014986Y002651D02*
X013836Y002651D01*
X013836Y002532D02*
X014986Y002532D01*
X014986Y002414D02*
X013836Y002414D01*
X013750Y002295D02*
X015073Y002295D01*
X015191Y002176D02*
X013631Y002176D01*
X013513Y002058D02*
X015310Y002058D01*
X016013Y002058D02*
X025509Y002058D01*
X025509Y002176D02*
X016131Y002176D01*
X016250Y002295D02*
X025544Y002295D01*
X025593Y002414D02*
X016336Y002414D01*
X016336Y002532D02*
X025661Y002532D01*
X025661Y002651D02*
X016336Y002651D01*
X016336Y002769D02*
X025661Y002769D01*
X026661Y002769D02*
X029736Y002769D01*
X029736Y002651D02*
X028456Y002651D01*
X028499Y002633D02*
X028260Y002732D01*
X028000Y002732D01*
X027760Y002633D01*
X027577Y002449D01*
X027477Y002209D01*
X027477Y001597D01*
X027577Y001357D01*
X027760Y001174D01*
X028000Y001075D01*
X028260Y001075D01*
X028499Y001174D01*
X028683Y001357D01*
X028782Y001597D01*
X028782Y002209D01*
X028683Y002449D01*
X028499Y002633D01*
X028600Y002532D02*
X029836Y002532D01*
X029954Y002414D02*
X028698Y002414D01*
X028747Y002295D02*
X030073Y002295D01*
X030750Y002295D02*
X036073Y002295D01*
X035986Y002414D02*
X033865Y002414D01*
X033992Y002532D02*
X035986Y002532D01*
X035986Y002651D02*
X034071Y002651D01*
X034120Y002769D02*
X035986Y002769D01*
X035986Y002888D02*
X034131Y002888D01*
X034131Y003006D02*
X036052Y003006D01*
X036170Y003125D02*
X034091Y003125D01*
X034039Y003243D02*
X036125Y003243D01*
X036006Y003362D02*
X033921Y003362D01*
X033941Y003480D02*
X035986Y003480D01*
X035986Y003599D02*
X034050Y003599D01*
X034099Y003718D02*
X035986Y003718D01*
X035986Y003836D02*
X034131Y003836D01*
X034131Y003955D02*
X035107Y003955D01*
X034988Y004073D02*
X034112Y004073D01*
X034063Y004192D02*
X034920Y004192D01*
X034873Y004310D02*
X033972Y004310D01*
X033889Y004429D02*
X034873Y004429D01*
X034885Y004547D02*
X034008Y004547D01*
X034077Y004666D02*
X034934Y004666D01*
X035023Y004784D02*
X034126Y004784D01*
X034131Y004903D02*
X035192Y004903D01*
X035630Y004903D02*
X039551Y004903D01*
X039551Y004784D02*
X038858Y004784D01*
X039001Y004666D02*
X039551Y004666D01*
X039551Y004547D02*
X039119Y004547D01*
X039238Y004429D02*
X039551Y004429D01*
X039551Y004310D02*
X039356Y004310D01*
X039475Y004192D02*
X039551Y004192D01*
X040521Y004192D02*
X041388Y004192D01*
X041419Y004161D02*
X041279Y004021D01*
X040560Y004021D01*
X040521Y004060D01*
X040521Y004330D01*
X040590Y004301D01*
X041279Y004301D01*
X041419Y004161D01*
X041331Y004073D02*
X040521Y004073D01*
X040521Y004310D02*
X040568Y004310D01*
X040661Y004661D02*
X041911Y004661D01*
X043661Y004661D01*
X044108Y005136D02*
X044266Y004978D01*
X044351Y004773D01*
X044351Y004550D01*
X044266Y004344D01*
X044108Y004186D01*
X044047Y004161D01*
X044108Y004136D01*
X044266Y003978D01*
X044351Y003773D01*
X044351Y003550D01*
X044266Y003344D01*
X044108Y003186D01*
X044047Y003161D01*
X044108Y003136D01*
X044266Y002978D01*
X044351Y002773D01*
X044351Y002550D01*
X044266Y002344D01*
X044108Y002186D01*
X043903Y002101D01*
X043420Y002101D01*
X043214Y002186D01*
X043099Y002301D01*
X042544Y002301D01*
X042398Y002155D01*
X042178Y002064D01*
X041644Y002064D01*
X041425Y002155D01*
X041279Y002301D01*
X040090Y002301D01*
X039957Y002356D01*
X039856Y002457D01*
X039856Y002457D01*
X039831Y002482D01*
X039831Y001835D01*
X040335Y001331D01*
X048204Y001331D01*
X048015Y001428D01*
X047678Y001765D01*
X047461Y002190D01*
X047386Y002661D01*
X047461Y003132D01*
X047678Y003558D01*
X048015Y003895D01*
X048440Y004112D01*
X048911Y004186D01*
X049382Y004112D01*
X049808Y003895D01*
X050145Y003558D01*
X050362Y003132D01*
X050436Y002661D01*
X050362Y002190D01*
X050145Y001765D01*
X049808Y001428D01*
X049619Y001331D01*
X051237Y001331D01*
X051741Y001835D01*
X051741Y004570D01*
X051705Y004606D01*
X051623Y004804D01*
X051623Y005018D01*
X051705Y005216D01*
X051730Y005241D01*
X045828Y005241D01*
X045673Y005305D01*
X045555Y005423D01*
X045237Y005741D01*
X044351Y005741D01*
X044351Y005550D01*
X044266Y005344D01*
X044108Y005186D01*
X044047Y005161D01*
X044108Y005136D01*
X044099Y005140D02*
X051674Y005140D01*
X051624Y005022D02*
X044223Y005022D01*
X044297Y004903D02*
X051623Y004903D01*
X051631Y004784D02*
X044346Y004784D01*
X044351Y004666D02*
X051680Y004666D01*
X051741Y004547D02*
X044350Y004547D01*
X044301Y004429D02*
X051741Y004429D01*
X051741Y004310D02*
X045467Y004310D01*
X045441Y004336D02*
X044882Y004336D01*
X044486Y003941D01*
X044486Y003382D01*
X044707Y003161D01*
X044486Y002941D01*
X044486Y002382D01*
X044882Y001986D01*
X045441Y001986D01*
X045836Y002382D01*
X045836Y002941D01*
X045616Y003161D01*
X045836Y003382D01*
X045836Y003941D01*
X045441Y004336D01*
X045585Y004192D02*
X051741Y004192D01*
X051741Y004073D02*
X049458Y004073D01*
X049690Y003955D02*
X051741Y003955D01*
X051741Y003836D02*
X049866Y003836D01*
X049985Y003718D02*
X051741Y003718D01*
X051741Y003599D02*
X050104Y003599D01*
X050184Y003480D02*
X051741Y003480D01*
X051741Y003362D02*
X050245Y003362D01*
X050305Y003243D02*
X051741Y003243D01*
X051741Y003125D02*
X050363Y003125D01*
X050382Y003006D02*
X051741Y003006D01*
X051741Y002888D02*
X050400Y002888D01*
X050419Y002769D02*
X051741Y002769D01*
X051741Y002651D02*
X050435Y002651D01*
X050416Y002532D02*
X051741Y002532D01*
X051741Y002414D02*
X050397Y002414D01*
X050378Y002295D02*
X051741Y002295D01*
X051741Y002176D02*
X050355Y002176D01*
X050294Y002058D02*
X051741Y002058D01*
X051741Y001939D02*
X050234Y001939D01*
X050173Y001821D02*
X051727Y001821D01*
X051608Y001702D02*
X050082Y001702D01*
X049964Y001584D02*
X051490Y001584D01*
X051371Y001465D02*
X049845Y001465D01*
X049649Y001347D02*
X051253Y001347D01*
X051715Y000621D02*
X052517Y001423D01*
X052581Y001578D01*
X052581Y001745D01*
X052581Y004570D01*
X052617Y004606D01*
X052699Y004804D01*
X052699Y005018D01*
X052617Y005216D01*
X052592Y005241D01*
X058570Y005241D01*
X058606Y005205D01*
X058804Y005123D01*
X059018Y005123D01*
X059216Y005205D01*
X059367Y005356D01*
X059449Y005554D01*
X059449Y005768D01*
X059367Y005966D01*
X059216Y006117D01*
X059018Y006199D01*
X058804Y006199D01*
X058606Y006117D01*
X058570Y006081D01*
X046085Y006081D01*
X045649Y006517D01*
X045495Y006581D01*
X045328Y006581D01*
X044351Y006581D01*
X044351Y006773D01*
X044266Y006978D01*
X044108Y007136D01*
X044047Y007161D01*
X044108Y007186D01*
X044266Y007344D01*
X044351Y007550D01*
X044351Y007773D01*
X044266Y007978D01*
X044108Y008136D01*
X044047Y008161D01*
X044108Y008186D01*
X044266Y008344D01*
X044351Y008550D01*
X044351Y008773D01*
X044266Y008978D01*
X044108Y009136D01*
X044047Y009161D01*
X044108Y009186D01*
X044266Y009344D01*
X044351Y009550D01*
X044351Y009773D01*
X044266Y009978D01*
X044108Y010136D01*
X043903Y010221D01*
X043420Y010221D01*
X043214Y010136D01*
X043056Y009978D01*
X043041Y009941D01*
X043041Y010336D01*
X043041Y010487D01*
X042983Y010626D01*
X042733Y010876D01*
X042626Y010983D01*
X042550Y011015D01*
X042398Y011167D01*
X042315Y011201D01*
X059943Y011201D01*
X059943Y000621D01*
X051715Y000621D01*
X051729Y000635D02*
X059943Y000635D01*
X059943Y000754D02*
X051848Y000754D01*
X051966Y000873D02*
X059943Y000873D01*
X059943Y000991D02*
X052085Y000991D01*
X052204Y001110D02*
X059943Y001110D01*
X059943Y001228D02*
X052322Y001228D01*
X052441Y001347D02*
X059943Y001347D01*
X059943Y001465D02*
X052535Y001465D01*
X052581Y001584D02*
X059943Y001584D01*
X059943Y001702D02*
X052581Y001702D01*
X052581Y001821D02*
X059943Y001821D01*
X059943Y001939D02*
X052581Y001939D01*
X052581Y002058D02*
X055560Y002058D01*
X055632Y001986D02*
X056191Y001986D01*
X056586Y002382D01*
X056586Y002941D01*
X056366Y003161D01*
X056586Y003382D01*
X056586Y003941D01*
X056191Y004336D01*
X055632Y004336D01*
X055236Y003941D01*
X055236Y003382D01*
X055457Y003161D01*
X055236Y002941D01*
X055236Y002382D01*
X055632Y001986D01*
X056263Y002058D02*
X058560Y002058D01*
X058632Y001986D02*
X059191Y001986D01*
X059586Y002382D01*
X059586Y002941D01*
X059366Y003161D01*
X059586Y003382D01*
X059586Y003941D01*
X059191Y004336D01*
X058632Y004336D01*
X058236Y003941D01*
X058236Y003382D01*
X058457Y003161D01*
X058236Y002941D01*
X058236Y002382D01*
X058632Y001986D01*
X059263Y002058D02*
X059943Y002058D01*
X059943Y002176D02*
X059381Y002176D01*
X059500Y002295D02*
X059943Y002295D01*
X059943Y002414D02*
X059586Y002414D01*
X059586Y002532D02*
X059943Y002532D01*
X059943Y002651D02*
X059586Y002651D01*
X059586Y002769D02*
X059943Y002769D01*
X059943Y002888D02*
X059586Y002888D01*
X059521Y003006D02*
X059943Y003006D01*
X059943Y003125D02*
X059402Y003125D01*
X059448Y003243D02*
X059943Y003243D01*
X059943Y003362D02*
X059566Y003362D01*
X059586Y003480D02*
X059943Y003480D01*
X059943Y003599D02*
X059586Y003599D01*
X059586Y003718D02*
X059943Y003718D01*
X059943Y003836D02*
X059586Y003836D01*
X059572Y003955D02*
X059943Y003955D01*
X059943Y004073D02*
X059454Y004073D01*
X059335Y004192D02*
X059943Y004192D01*
X059943Y004310D02*
X059217Y004310D01*
X058606Y004310D02*
X056217Y004310D01*
X056335Y004192D02*
X058487Y004192D01*
X058369Y004073D02*
X056454Y004073D01*
X056572Y003955D02*
X058250Y003955D01*
X058236Y003836D02*
X056586Y003836D01*
X056586Y003718D02*
X058236Y003718D01*
X058236Y003599D02*
X056586Y003599D01*
X056586Y003480D02*
X058236Y003480D01*
X058256Y003362D02*
X056566Y003362D01*
X056448Y003243D02*
X058375Y003243D01*
X058420Y003125D02*
X056402Y003125D01*
X056521Y003006D02*
X058302Y003006D01*
X058236Y002888D02*
X056586Y002888D01*
X056586Y002769D02*
X058236Y002769D01*
X058236Y002651D02*
X056586Y002651D01*
X056586Y002532D02*
X058236Y002532D01*
X058236Y002414D02*
X056586Y002414D01*
X056500Y002295D02*
X058323Y002295D01*
X058441Y002176D02*
X056381Y002176D01*
X055441Y002176D02*
X052581Y002176D01*
X052581Y002295D02*
X055323Y002295D01*
X055236Y002414D02*
X052581Y002414D01*
X052581Y002532D02*
X055236Y002532D01*
X055236Y002651D02*
X052581Y002651D01*
X052581Y002769D02*
X055236Y002769D01*
X055236Y002888D02*
X052581Y002888D01*
X052581Y003006D02*
X055302Y003006D01*
X055420Y003125D02*
X052581Y003125D01*
X052581Y003243D02*
X055375Y003243D01*
X055256Y003362D02*
X052581Y003362D01*
X052581Y003480D02*
X055236Y003480D01*
X055236Y003599D02*
X052581Y003599D01*
X052581Y003718D02*
X055236Y003718D01*
X055236Y003836D02*
X052581Y003836D01*
X052581Y003955D02*
X055250Y003955D01*
X055369Y004073D02*
X052581Y004073D01*
X052581Y004192D02*
X055487Y004192D01*
X055606Y004310D02*
X052581Y004310D01*
X052581Y004429D02*
X059943Y004429D01*
X059943Y004547D02*
X052581Y004547D01*
X052642Y004666D02*
X059943Y004666D01*
X059943Y004784D02*
X052691Y004784D01*
X052699Y004903D02*
X059943Y004903D01*
X059943Y005022D02*
X052698Y005022D01*
X052649Y005140D02*
X058763Y005140D01*
X059059Y005140D02*
X059943Y005140D01*
X059943Y005259D02*
X059270Y005259D01*
X059376Y005377D02*
X059943Y005377D01*
X059943Y005496D02*
X059425Y005496D01*
X059449Y005614D02*
X059943Y005614D01*
X059943Y005733D02*
X059449Y005733D01*
X059415Y005851D02*
X059943Y005851D01*
X059943Y005970D02*
X059364Y005970D01*
X059245Y006088D02*
X059943Y006088D01*
X059943Y006207D02*
X045959Y006207D01*
X045841Y006326D02*
X059943Y006326D01*
X059943Y006444D02*
X045722Y006444D01*
X045540Y006563D02*
X059943Y006563D01*
X059943Y006681D02*
X044351Y006681D01*
X044340Y006800D02*
X059943Y006800D01*
X059943Y006918D02*
X044291Y006918D01*
X044208Y007037D02*
X059943Y007037D01*
X059943Y007155D02*
X044062Y007155D01*
X044196Y007274D02*
X059943Y007274D01*
X059943Y007392D02*
X044286Y007392D01*
X044335Y007511D02*
X059943Y007511D01*
X059943Y007629D02*
X044351Y007629D01*
X044351Y007748D02*
X048367Y007748D01*
X048440Y007711D02*
X048911Y007636D01*
X049382Y007711D01*
X049808Y007928D01*
X050145Y008265D01*
X050362Y008690D01*
X050436Y009161D01*
X050362Y009632D01*
X050145Y010058D01*
X049808Y010395D01*
X049382Y010612D01*
X048911Y010686D01*
X048440Y010612D01*
X048015Y010395D01*
X047678Y010058D01*
X047461Y009632D01*
X047386Y009161D01*
X047461Y008690D01*
X047678Y008265D01*
X048015Y007928D01*
X048440Y007711D01*
X048134Y007867D02*
X044312Y007867D01*
X044259Y007985D02*
X047957Y007985D01*
X047839Y008104D02*
X044141Y008104D01*
X044144Y008222D02*
X047720Y008222D01*
X047639Y008341D02*
X044263Y008341D01*
X044314Y008459D02*
X047578Y008459D01*
X047518Y008578D02*
X044351Y008578D01*
X044351Y008696D02*
X047460Y008696D01*
X047441Y008815D02*
X044334Y008815D01*
X044285Y008933D02*
X047422Y008933D01*
X047404Y009052D02*
X044192Y009052D01*
X044070Y009171D02*
X047388Y009171D01*
X047407Y009289D02*
X044211Y009289D01*
X044292Y009408D02*
X047425Y009408D01*
X047444Y009526D02*
X044341Y009526D01*
X044351Y009645D02*
X047467Y009645D01*
X047528Y009763D02*
X044351Y009763D01*
X044306Y009882D02*
X047588Y009882D01*
X047648Y010000D02*
X044244Y010000D01*
X044126Y010119D02*
X047739Y010119D01*
X047857Y010237D02*
X043041Y010237D01*
X043041Y010119D02*
X043197Y010119D01*
X043078Y010000D02*
X043041Y010000D01*
X041376Y010119D02*
X040373Y010119D01*
X040422Y010237D02*
X041343Y010237D01*
X041243Y010356D02*
X040449Y010356D01*
X040449Y010475D02*
X041194Y010475D01*
X041166Y010593D02*
X040418Y010593D01*
X040369Y010712D02*
X041166Y010712D01*
X041187Y010830D02*
X040253Y010830D01*
X040020Y010949D02*
X041236Y010949D01*
X041325Y011067D02*
X033016Y011067D01*
X033125Y010949D02*
X039803Y010949D01*
X039569Y010830D02*
X033174Y010830D01*
X033199Y010712D02*
X038174Y010712D01*
X038056Y010593D02*
X033199Y010593D01*
X033166Y010475D02*
X037937Y010475D01*
X037819Y010356D02*
X034477Y010356D01*
X033665Y010119D02*
X033297Y010119D01*
X033416Y010000D02*
X033623Y010000D01*
X033623Y009882D02*
X033535Y009882D01*
X035809Y010237D02*
X037700Y010237D01*
X037581Y010119D02*
X035874Y010119D01*
X035881Y010000D02*
X037463Y010000D01*
X037344Y009882D02*
X035881Y009882D01*
X034481Y009470D02*
X034481Y009331D01*
X034085Y009331D01*
X034035Y009381D01*
X034054Y009373D01*
X034268Y009373D01*
X034466Y009455D01*
X034481Y009470D01*
X034481Y009408D02*
X034352Y009408D01*
X035881Y009031D02*
X037336Y009031D01*
X037487Y009031D01*
X037491Y009033D01*
X037491Y006502D01*
X037455Y006466D01*
X037373Y006268D01*
X037373Y006054D01*
X037381Y006035D01*
X037149Y006267D01*
X036995Y006331D01*
X036828Y006331D01*
X035881Y006331D01*
X035881Y006601D01*
X035856Y006661D01*
X035881Y006722D01*
X035881Y007101D01*
X035856Y007161D01*
X035881Y007222D01*
X035881Y007601D01*
X035856Y007661D01*
X035881Y007722D01*
X035881Y008101D01*
X035856Y008161D01*
X035881Y008222D01*
X037491Y008222D01*
X037491Y008104D02*
X035880Y008104D01*
X035881Y008222D02*
X035881Y008601D01*
X035856Y008661D01*
X035881Y008722D01*
X035881Y009031D01*
X035881Y008933D02*
X037491Y008933D01*
X037491Y008815D02*
X035881Y008815D01*
X035871Y008696D02*
X037491Y008696D01*
X037491Y008578D02*
X035881Y008578D01*
X035881Y008459D02*
X037491Y008459D01*
X037491Y008341D02*
X035881Y008341D01*
X035881Y007985D02*
X037491Y007985D01*
X037491Y007867D02*
X035881Y007867D01*
X035881Y007748D02*
X037491Y007748D01*
X037491Y007629D02*
X035869Y007629D01*
X035881Y007511D02*
X037491Y007511D01*
X037491Y007392D02*
X035881Y007392D01*
X035881Y007274D02*
X037491Y007274D01*
X037491Y007155D02*
X035859Y007155D01*
X035881Y007037D02*
X037491Y007037D01*
X037491Y006918D02*
X035881Y006918D01*
X035881Y006800D02*
X037491Y006800D01*
X037491Y006681D02*
X035864Y006681D01*
X035881Y006563D02*
X037491Y006563D01*
X037446Y006444D02*
X035881Y006444D01*
X037009Y006326D02*
X037397Y006326D01*
X037373Y006207D02*
X037209Y006207D01*
X037328Y006088D02*
X037373Y006088D01*
X038342Y005831D02*
X038367Y005856D01*
X038441Y006035D01*
X038441Y005831D01*
X038342Y005831D01*
X038362Y005851D02*
X038441Y005851D01*
X038441Y005970D02*
X038414Y005970D01*
X038449Y006120D02*
X038449Y006202D01*
X038466Y006161D01*
X038449Y006120D01*
X038441Y006288D02*
X038367Y006466D01*
X038331Y006502D01*
X038331Y008987D01*
X038441Y009097D01*
X038441Y008722D01*
X038466Y008661D01*
X038441Y008601D01*
X038441Y008222D01*
X038331Y008222D01*
X038441Y008222D02*
X038466Y008161D01*
X038441Y008101D01*
X038441Y007722D01*
X038466Y007661D01*
X038441Y007601D01*
X038441Y007222D01*
X038466Y007161D01*
X038441Y007101D01*
X038441Y006722D01*
X038466Y006661D01*
X038441Y006601D01*
X038441Y006288D01*
X038441Y006326D02*
X038426Y006326D01*
X038441Y006444D02*
X038377Y006444D01*
X038331Y006563D02*
X038441Y006563D01*
X038458Y006681D02*
X038331Y006681D01*
X038331Y006800D02*
X038441Y006800D01*
X038441Y006918D02*
X038331Y006918D01*
X038331Y007037D02*
X038441Y007037D01*
X038464Y007155D02*
X038331Y007155D01*
X038331Y007274D02*
X038441Y007274D01*
X038441Y007392D02*
X038331Y007392D01*
X038331Y007511D02*
X038441Y007511D01*
X038453Y007629D02*
X038331Y007629D01*
X038331Y007748D02*
X038441Y007748D01*
X038441Y007867D02*
X038331Y007867D01*
X038331Y007985D02*
X038441Y007985D01*
X038442Y008104D02*
X038331Y008104D01*
X038331Y008341D02*
X038441Y008341D01*
X038441Y008459D02*
X038331Y008459D01*
X038331Y008578D02*
X038441Y008578D01*
X038452Y008696D02*
X038331Y008696D01*
X038331Y008815D02*
X038441Y008815D01*
X038441Y008933D02*
X038331Y008933D01*
X038396Y009052D02*
X038441Y009052D01*
X039141Y008911D02*
X041161Y008911D01*
X041411Y008661D01*
X041911Y008661D01*
X041161Y008161D02*
X040911Y008411D01*
X039141Y008411D01*
X041161Y008161D02*
X041161Y007911D01*
X041411Y007661D01*
X041911Y007661D01*
X040911Y007661D02*
X040911Y006911D01*
X041161Y006661D01*
X041911Y006661D01*
X043041Y006941D02*
X043041Y007381D01*
X043056Y007344D01*
X043214Y007186D01*
X043275Y007161D01*
X043214Y007136D01*
X043056Y006978D01*
X043041Y006941D01*
X043041Y007037D02*
X043115Y007037D01*
X043041Y007155D02*
X043261Y007155D01*
X043127Y007274D02*
X043041Y007274D01*
X041419Y007161D02*
X041295Y007037D01*
X041271Y007060D01*
X041271Y007309D01*
X041419Y007161D01*
X041413Y007155D02*
X041271Y007155D01*
X041271Y007274D02*
X041306Y007274D01*
X040661Y007161D02*
X040661Y005911D01*
X040911Y005661D01*
X041911Y005661D01*
X043661Y005661D01*
X044280Y005377D02*
X045601Y005377D01*
X045483Y005496D02*
X044329Y005496D01*
X044351Y005614D02*
X045364Y005614D01*
X045246Y005733D02*
X044351Y005733D01*
X042764Y006021D02*
X042544Y006021D01*
X042404Y006161D01*
X042514Y006271D01*
X042764Y006021D01*
X042697Y006088D02*
X042477Y006088D01*
X042449Y006207D02*
X042578Y006207D01*
X041419Y006161D02*
X041279Y006301D01*
X041090Y006301D01*
X041021Y006330D01*
X041021Y006060D01*
X041060Y006021D01*
X041279Y006021D01*
X041419Y006161D01*
X041373Y006207D02*
X041021Y006207D01*
X041021Y006326D02*
X041031Y006326D01*
X041021Y006088D02*
X041346Y006088D01*
X040161Y006161D02*
X039911Y006411D01*
X039141Y006411D01*
X040161Y006911D02*
X040411Y006661D01*
X040411Y004911D01*
X040661Y004661D01*
X040810Y005021D02*
X040771Y005060D01*
X040771Y005330D01*
X040840Y005301D01*
X041279Y005301D01*
X041419Y005161D01*
X041279Y005021D01*
X040810Y005021D01*
X040810Y005022D02*
X041279Y005022D01*
X041398Y005140D02*
X040771Y005140D01*
X040771Y005259D02*
X041321Y005259D01*
X042404Y005161D02*
X042544Y005301D01*
X043099Y005301D01*
X043214Y005186D01*
X043275Y005161D01*
X043214Y005136D01*
X043099Y005021D01*
X042544Y005021D01*
X042404Y005161D01*
X042425Y005140D02*
X043224Y005140D01*
X043142Y005259D02*
X042501Y005259D01*
X042543Y005022D02*
X043100Y005022D01*
X044181Y005259D02*
X045786Y005259D01*
X046078Y006088D02*
X058577Y006088D01*
X059943Y007748D02*
X049455Y007748D01*
X049688Y007867D02*
X059943Y007867D01*
X059943Y007985D02*
X049865Y007985D01*
X049984Y008104D02*
X059943Y008104D01*
X059943Y008222D02*
X050102Y008222D01*
X050184Y008341D02*
X059943Y008341D01*
X059943Y008459D02*
X050244Y008459D01*
X050304Y008578D02*
X059943Y008578D01*
X059943Y008696D02*
X050363Y008696D01*
X050381Y008815D02*
X059943Y008815D01*
X059943Y008933D02*
X050400Y008933D01*
X050419Y009052D02*
X059943Y009052D01*
X059943Y009171D02*
X050435Y009171D01*
X050416Y009289D02*
X059943Y009289D01*
X059943Y009408D02*
X050397Y009408D01*
X050378Y009526D02*
X059943Y009526D01*
X059943Y009645D02*
X050355Y009645D01*
X050295Y009763D02*
X059943Y009763D01*
X059943Y009882D02*
X050235Y009882D01*
X050174Y010000D02*
X059943Y010000D01*
X059943Y010119D02*
X050084Y010119D01*
X049965Y010237D02*
X059943Y010237D01*
X059943Y010356D02*
X049847Y010356D01*
X049651Y010475D02*
X059943Y010475D01*
X059943Y010593D02*
X049419Y010593D01*
X048404Y010593D02*
X042997Y010593D01*
X043041Y010475D02*
X048171Y010475D01*
X047976Y010356D02*
X043041Y010356D01*
X042898Y010712D02*
X059943Y010712D01*
X059943Y010830D02*
X042780Y010830D01*
X042661Y010949D02*
X059943Y010949D01*
X059943Y011067D02*
X042498Y011067D01*
X042353Y011186D02*
X059943Y011186D01*
X043275Y009161D02*
X043214Y009136D01*
X043056Y008978D01*
X043041Y008941D01*
X043041Y009381D01*
X043056Y009344D01*
X043214Y009186D01*
X043275Y009161D01*
X043253Y009171D02*
X043041Y009171D01*
X043041Y009289D02*
X043111Y009289D01*
X043130Y009052D02*
X043041Y009052D01*
X041411Y009661D02*
X041161Y009411D01*
X039141Y009411D01*
X040039Y009882D02*
X041123Y009882D01*
X041106Y009865D02*
X041106Y009865D01*
X041258Y010000D02*
X040261Y010000D01*
X041411Y009661D02*
X041911Y009661D01*
X043041Y008381D02*
X043056Y008344D01*
X043214Y008186D01*
X043275Y008161D01*
X043214Y008136D01*
X043056Y007978D01*
X043041Y007941D01*
X043041Y008381D01*
X043041Y008341D02*
X043060Y008341D01*
X043041Y008222D02*
X043178Y008222D01*
X043182Y008104D02*
X043041Y008104D01*
X043041Y007985D02*
X043063Y007985D01*
X040911Y007661D02*
X040661Y007911D01*
X039141Y007911D01*
X039141Y007411D02*
X040411Y007411D01*
X040661Y007161D01*
X040161Y006911D02*
X039141Y006911D01*
X040161Y006161D02*
X040161Y003911D01*
X040411Y003661D01*
X041911Y003661D01*
X043661Y003661D01*
X044273Y003362D02*
X044506Y003362D01*
X044486Y003480D02*
X044322Y003480D01*
X044351Y003599D02*
X044486Y003599D01*
X044486Y003718D02*
X044351Y003718D01*
X044325Y003836D02*
X044486Y003836D01*
X044500Y003955D02*
X044276Y003955D01*
X044171Y004073D02*
X044619Y004073D01*
X044737Y004192D02*
X044114Y004192D01*
X044232Y004310D02*
X044856Y004310D01*
X045704Y004073D02*
X048365Y004073D01*
X048132Y003955D02*
X045822Y003955D01*
X045836Y003836D02*
X047956Y003836D01*
X047837Y003718D02*
X045836Y003718D01*
X045836Y003599D02*
X047719Y003599D01*
X047638Y003480D02*
X045836Y003480D01*
X045816Y003362D02*
X047578Y003362D01*
X047517Y003243D02*
X045698Y003243D01*
X045652Y003125D02*
X047460Y003125D01*
X047441Y003006D02*
X045771Y003006D01*
X045836Y002888D02*
X047422Y002888D01*
X047403Y002769D02*
X045836Y002769D01*
X045836Y002651D02*
X047388Y002651D01*
X047407Y002532D02*
X045836Y002532D01*
X045836Y002414D02*
X047425Y002414D01*
X047444Y002295D02*
X045750Y002295D01*
X045631Y002176D02*
X047468Y002176D01*
X047528Y002058D02*
X045513Y002058D01*
X044810Y002058D02*
X039831Y002058D01*
X039831Y002176D02*
X041404Y002176D01*
X041285Y002295D02*
X039831Y002295D01*
X039831Y002414D02*
X039900Y002414D01*
X038991Y002414D02*
X037336Y002414D01*
X037336Y002532D02*
X038991Y002532D01*
X038991Y002651D02*
X037336Y002651D01*
X037336Y002769D02*
X038991Y002769D01*
X038991Y002888D02*
X037336Y002888D01*
X037271Y003006D02*
X038991Y003006D01*
X038991Y003125D02*
X037152Y003125D01*
X037198Y003243D02*
X038991Y003243D01*
X038991Y003362D02*
X037316Y003362D01*
X037336Y003480D02*
X038991Y003480D01*
X038880Y003599D02*
X037336Y003599D01*
X037336Y003718D02*
X038761Y003718D01*
X038642Y003836D02*
X037336Y003836D01*
X037322Y003955D02*
X038524Y003955D01*
X036000Y003955D02*
X035715Y003955D01*
X032933Y004429D02*
X032351Y004429D01*
X032232Y004547D02*
X032815Y004547D01*
X032745Y004666D02*
X032114Y004666D01*
X031995Y004784D02*
X032696Y004784D01*
X032691Y004903D02*
X031877Y004903D01*
X031758Y005022D02*
X032691Y005022D01*
X032738Y005140D02*
X031639Y005140D01*
X031521Y005259D02*
X032798Y005259D01*
X032917Y005377D02*
X031343Y005377D01*
X034084Y005140D02*
X037088Y005140D01*
X037255Y005022D02*
X034131Y005022D01*
X031055Y004310D02*
X030967Y004310D01*
X031085Y004192D02*
X031174Y004192D01*
X031086Y004073D02*
X031292Y004073D01*
X031411Y003955D02*
X031086Y003955D01*
X031086Y003836D02*
X031529Y003836D01*
X031648Y003718D02*
X031086Y003718D01*
X031054Y003599D02*
X031766Y003599D01*
X031895Y003480D02*
X030935Y003480D01*
X030915Y003362D02*
X032902Y003362D01*
X032963Y003411D02*
X032963Y003411D01*
X032783Y003243D02*
X031034Y003243D01*
X031086Y003125D02*
X032732Y003125D01*
X032691Y003006D02*
X031086Y003006D01*
X031086Y002888D02*
X032691Y002888D01*
X032702Y002769D02*
X031086Y002769D01*
X031086Y002651D02*
X032751Y002651D01*
X032830Y002532D02*
X030987Y002532D01*
X030868Y002414D02*
X032957Y002414D01*
X036191Y002176D02*
X028782Y002176D01*
X028782Y002058D02*
X036310Y002058D01*
X037013Y002058D02*
X038991Y002058D01*
X038991Y002176D02*
X037131Y002176D01*
X037250Y002295D02*
X038991Y002295D01*
X038991Y001939D02*
X028782Y001939D01*
X028782Y001821D02*
X038991Y001821D01*
X038991Y001702D02*
X028782Y001702D01*
X028777Y001584D02*
X038991Y001584D01*
X039038Y001465D02*
X028728Y001465D01*
X028672Y001347D02*
X039132Y001347D01*
X039250Y001228D02*
X028554Y001228D01*
X028344Y001110D02*
X039369Y001110D01*
X039487Y000991D02*
X000621Y000991D01*
X000621Y000873D02*
X039606Y000873D01*
X039725Y000754D02*
X000621Y000754D01*
X000621Y000635D02*
X039843Y000635D01*
X040320Y001347D02*
X048174Y001347D01*
X047977Y001465D02*
X040201Y001465D01*
X040083Y001584D02*
X047859Y001584D01*
X047740Y001702D02*
X039964Y001702D01*
X039846Y001821D02*
X047649Y001821D01*
X047589Y001939D02*
X039831Y001939D01*
X042419Y002176D02*
X043238Y002176D01*
X043105Y002295D02*
X042538Y002295D01*
X044084Y002176D02*
X044691Y002176D01*
X044573Y002295D02*
X044217Y002295D01*
X044295Y002414D02*
X044486Y002414D01*
X044486Y002532D02*
X044344Y002532D01*
X044351Y002651D02*
X044486Y002651D01*
X044486Y002769D02*
X044351Y002769D01*
X044304Y002888D02*
X044486Y002888D01*
X044552Y003006D02*
X044238Y003006D01*
X044120Y003125D02*
X044670Y003125D01*
X044625Y003243D02*
X044165Y003243D01*
X043275Y003161D02*
X043214Y003136D01*
X043099Y003021D01*
X042544Y003021D01*
X042404Y003161D01*
X042544Y003301D01*
X043099Y003301D01*
X043214Y003186D01*
X043275Y003161D01*
X043203Y003125D02*
X042440Y003125D01*
X042486Y003243D02*
X043157Y003243D01*
X041419Y003161D02*
X041279Y003021D01*
X040310Y003021D01*
X040271Y003060D01*
X040271Y003330D01*
X040340Y003301D01*
X041279Y003301D01*
X041419Y003161D01*
X041382Y003125D02*
X040271Y003125D01*
X040271Y003243D02*
X041337Y003243D01*
X040161Y002661D02*
X039911Y002911D01*
X039911Y005661D01*
X039661Y005911D01*
X039141Y005911D01*
X042404Y004161D02*
X042544Y004301D01*
X043099Y004301D01*
X043214Y004186D01*
X043275Y004161D01*
X043214Y004136D01*
X043099Y004021D01*
X042544Y004021D01*
X042404Y004161D01*
X042434Y004192D02*
X043209Y004192D01*
X043151Y004073D02*
X042492Y004073D01*
X041911Y002661D02*
X040161Y002661D01*
X041911Y002661D02*
X043661Y002661D01*
X029907Y003362D02*
X026661Y003362D01*
X026661Y003480D02*
X029887Y003480D01*
X029769Y003599D02*
X026661Y003599D01*
X026675Y003718D02*
X029736Y003718D01*
X029736Y003836D02*
X026793Y003836D01*
X026912Y003955D02*
X029736Y003955D01*
X029736Y004073D02*
X027030Y004073D01*
X027149Y004192D02*
X029737Y004192D01*
X029856Y004310D02*
X027267Y004310D01*
X026661Y003243D02*
X029789Y003243D01*
X029736Y003125D02*
X026661Y003125D01*
X026661Y003006D02*
X029736Y003006D01*
X029736Y002888D02*
X026661Y002888D01*
X026661Y002651D02*
X027803Y002651D01*
X027659Y002532D02*
X026661Y002532D01*
X026729Y002414D02*
X027562Y002414D01*
X027513Y002295D02*
X026778Y002295D01*
X026814Y002176D02*
X027477Y002176D01*
X027477Y002058D02*
X026814Y002058D01*
X026814Y001939D02*
X027477Y001939D01*
X027477Y001821D02*
X026814Y001821D01*
X026814Y001702D02*
X027477Y001702D01*
X027483Y001584D02*
X026808Y001584D01*
X026759Y001465D02*
X027532Y001465D01*
X027587Y001347D02*
X026704Y001347D01*
X026585Y001228D02*
X027706Y001228D01*
X027915Y001110D02*
X026376Y001110D01*
X025947Y001110D02*
X000621Y001110D01*
X000621Y001228D02*
X005156Y001228D01*
X005190Y001211D02*
X005661Y001136D01*
X006132Y001211D01*
X006558Y001428D01*
X006895Y001765D01*
X007112Y002190D01*
X007186Y002661D01*
X007112Y003132D01*
X006895Y003558D01*
X006558Y003895D01*
X006132Y004112D01*
X005661Y004186D01*
X005190Y004112D01*
X004765Y003895D01*
X004428Y003558D01*
X004211Y003132D01*
X004136Y002661D01*
X004211Y002190D01*
X004428Y001765D01*
X004765Y001428D01*
X005190Y001211D01*
X004924Y001347D02*
X000621Y001347D01*
X000621Y001465D02*
X004727Y001465D01*
X004609Y001584D02*
X000621Y001584D01*
X000621Y001702D02*
X004490Y001702D01*
X004399Y001821D02*
X000621Y001821D01*
X000621Y001939D02*
X004339Y001939D01*
X004278Y002058D02*
X002013Y002058D01*
X001941Y001986D02*
X001382Y001986D01*
X000986Y002382D01*
X000986Y002941D01*
X001207Y003161D01*
X000986Y003382D01*
X000986Y003941D01*
X001382Y004336D01*
X001941Y004336D01*
X002336Y003941D01*
X002336Y003382D01*
X002116Y003161D01*
X002336Y002941D01*
X002336Y002382D01*
X001941Y001986D01*
X001310Y002058D02*
X000621Y002058D01*
X000621Y002176D02*
X001191Y002176D01*
X001073Y002295D02*
X000621Y002295D01*
X000621Y002414D02*
X000986Y002414D01*
X000986Y002532D02*
X000621Y002532D01*
X000621Y002651D02*
X000986Y002651D01*
X000986Y002769D02*
X000621Y002769D01*
X000621Y002888D02*
X000986Y002888D01*
X001052Y003006D02*
X000621Y003006D01*
X000621Y003125D02*
X001170Y003125D01*
X001125Y003243D02*
X000621Y003243D01*
X000621Y003362D02*
X001006Y003362D01*
X000986Y003480D02*
X000621Y003480D01*
X000621Y003599D02*
X000986Y003599D01*
X000986Y003718D02*
X000621Y003718D01*
X000621Y003836D02*
X000986Y003836D01*
X001000Y003955D02*
X000621Y003955D01*
X000621Y004073D02*
X001119Y004073D01*
X001237Y004192D02*
X000621Y004192D01*
X000621Y004310D02*
X001356Y004310D01*
X001967Y004310D02*
X012856Y004310D01*
X012737Y004192D02*
X002085Y004192D01*
X002204Y004073D02*
X005115Y004073D01*
X004882Y003955D02*
X002322Y003955D01*
X002336Y003836D02*
X004706Y003836D01*
X004587Y003718D02*
X002336Y003718D01*
X002336Y003599D02*
X004469Y003599D01*
X004388Y003480D02*
X002336Y003480D01*
X002316Y003362D02*
X004328Y003362D01*
X004267Y003243D02*
X002198Y003243D01*
X002152Y003125D02*
X004210Y003125D01*
X004191Y003006D02*
X002271Y003006D01*
X002336Y002888D02*
X004172Y002888D01*
X004153Y002769D02*
X002336Y002769D01*
X002336Y002651D02*
X004138Y002651D01*
X004157Y002532D02*
X002336Y002532D01*
X002336Y002414D02*
X004175Y002414D01*
X004194Y002295D02*
X002250Y002295D01*
X002131Y002176D02*
X004218Y002176D01*
X006714Y001584D02*
X025514Y001584D01*
X025509Y001702D02*
X006832Y001702D01*
X006923Y001821D02*
X025509Y001821D01*
X025509Y001939D02*
X006984Y001939D01*
X007044Y002058D02*
X012810Y002058D01*
X012691Y002176D02*
X007105Y002176D01*
X007128Y002295D02*
X012573Y002295D01*
X012486Y002414D02*
X007147Y002414D01*
X007166Y002532D02*
X012486Y002532D01*
X012486Y002651D02*
X007185Y002651D01*
X007169Y002769D02*
X012486Y002769D01*
X012486Y002888D02*
X007150Y002888D01*
X007132Y003006D02*
X012552Y003006D01*
X012670Y003125D02*
X007113Y003125D01*
X007055Y003243D02*
X012625Y003243D01*
X012506Y003362D02*
X006995Y003362D01*
X006934Y003480D02*
X012486Y003480D01*
X012486Y003599D02*
X006854Y003599D01*
X006735Y003718D02*
X012486Y003718D01*
X012486Y003836D02*
X006616Y003836D01*
X006440Y003955D02*
X012500Y003955D01*
X012619Y004073D02*
X006208Y004073D01*
X000621Y004429D02*
X020986Y004429D01*
X020986Y004547D02*
X000621Y004547D01*
X000621Y004666D02*
X020986Y004666D01*
X020986Y004784D02*
X000621Y004784D01*
X000621Y004903D02*
X020986Y004903D01*
X021067Y005022D02*
X000621Y005022D01*
X000621Y005140D02*
X021186Y005140D01*
X021304Y005259D02*
X000621Y005259D01*
X019098Y007985D02*
X025152Y007985D01*
X025201Y007867D02*
X019159Y007867D01*
X025775Y008696D02*
X032377Y008696D01*
X032651Y008578D02*
X026006Y008578D01*
X026120Y008459D02*
X032769Y008459D01*
X032888Y008341D02*
X026169Y008341D01*
X032123Y010712D02*
X000621Y010712D01*
X000621Y010830D02*
X032149Y010830D01*
X032198Y010949D02*
X000621Y010949D01*
X000621Y011067D02*
X032306Y011067D01*
X032521Y011186D02*
X000621Y011186D01*
X032801Y011186D02*
X041470Y011186D01*
X025563Y001465D02*
X006595Y001465D01*
X006399Y001347D02*
X025619Y001347D01*
X025737Y001228D02*
X006166Y001228D01*
D22*
X042661Y006661D02*
X042661Y010411D01*
X042411Y010661D01*
X041911Y010661D01*
X039911Y010411D02*
X038411Y010411D01*
X037411Y009411D01*
X035181Y009411D01*
X042661Y006661D02*
X043161Y006161D01*
X044161Y006161D01*
M02*
