G75*
G70*
%OFA0B0*%
%FSLAX24Y24*%
%IPPOS*%
%LPD*%
%AMOC8*
5,1,8,0,0,1.08239X$1,22.5*
%
%ADD10C,0.0000*%
%ADD11R,0.1575X0.1575*%
%ADD12R,0.0630X0.0512*%
%ADD13OC8,0.0750*%
%ADD14C,0.0560*%
%ADD15C,0.0520*%
%ADD16C,0.0705*%
%ADD17C,0.0594*%
%ADD18C,0.0120*%
%ADD19C,0.0476*%
%ADD20C,0.0700*%
%ADD21C,0.0400*%
%ADD22C,0.0240*%
%ADD23C,0.0160*%
D10*
X000161Y000161D02*
X000161Y011661D01*
X060403Y011661D01*
X060403Y000161D01*
X000161Y000161D01*
X005011Y002661D02*
X005013Y002711D01*
X005019Y002761D01*
X005029Y002811D01*
X005042Y002859D01*
X005059Y002907D01*
X005080Y002953D01*
X005104Y002997D01*
X005132Y003039D01*
X005163Y003079D01*
X005197Y003116D01*
X005234Y003151D01*
X005273Y003182D01*
X005314Y003211D01*
X005358Y003236D01*
X005404Y003258D01*
X005451Y003276D01*
X005499Y003290D01*
X005548Y003301D01*
X005598Y003308D01*
X005648Y003311D01*
X005699Y003310D01*
X005749Y003305D01*
X005799Y003296D01*
X005847Y003284D01*
X005895Y003267D01*
X005941Y003247D01*
X005986Y003224D01*
X006029Y003197D01*
X006069Y003167D01*
X006107Y003134D01*
X006142Y003098D01*
X006175Y003059D01*
X006204Y003018D01*
X006230Y002975D01*
X006253Y002930D01*
X006272Y002883D01*
X006287Y002835D01*
X006299Y002786D01*
X006307Y002736D01*
X006311Y002686D01*
X006311Y002636D01*
X006307Y002586D01*
X006299Y002536D01*
X006287Y002487D01*
X006272Y002439D01*
X006253Y002392D01*
X006230Y002347D01*
X006204Y002304D01*
X006175Y002263D01*
X006142Y002224D01*
X006107Y002188D01*
X006069Y002155D01*
X006029Y002125D01*
X005986Y002098D01*
X005941Y002075D01*
X005895Y002055D01*
X005847Y002038D01*
X005799Y002026D01*
X005749Y002017D01*
X005699Y002012D01*
X005648Y002011D01*
X005598Y002014D01*
X005548Y002021D01*
X005499Y002032D01*
X005451Y002046D01*
X005404Y002064D01*
X005358Y002086D01*
X005314Y002111D01*
X005273Y002140D01*
X005234Y002171D01*
X005197Y002206D01*
X005163Y002243D01*
X005132Y002283D01*
X005104Y002325D01*
X005080Y002369D01*
X005059Y002415D01*
X005042Y002463D01*
X005029Y002511D01*
X005019Y002561D01*
X005013Y002611D01*
X005011Y002661D01*
X005011Y009161D02*
X005013Y009211D01*
X005019Y009261D01*
X005029Y009311D01*
X005042Y009359D01*
X005059Y009407D01*
X005080Y009453D01*
X005104Y009497D01*
X005132Y009539D01*
X005163Y009579D01*
X005197Y009616D01*
X005234Y009651D01*
X005273Y009682D01*
X005314Y009711D01*
X005358Y009736D01*
X005404Y009758D01*
X005451Y009776D01*
X005499Y009790D01*
X005548Y009801D01*
X005598Y009808D01*
X005648Y009811D01*
X005699Y009810D01*
X005749Y009805D01*
X005799Y009796D01*
X005847Y009784D01*
X005895Y009767D01*
X005941Y009747D01*
X005986Y009724D01*
X006029Y009697D01*
X006069Y009667D01*
X006107Y009634D01*
X006142Y009598D01*
X006175Y009559D01*
X006204Y009518D01*
X006230Y009475D01*
X006253Y009430D01*
X006272Y009383D01*
X006287Y009335D01*
X006299Y009286D01*
X006307Y009236D01*
X006311Y009186D01*
X006311Y009136D01*
X006307Y009086D01*
X006299Y009036D01*
X006287Y008987D01*
X006272Y008939D01*
X006253Y008892D01*
X006230Y008847D01*
X006204Y008804D01*
X006175Y008763D01*
X006142Y008724D01*
X006107Y008688D01*
X006069Y008655D01*
X006029Y008625D01*
X005986Y008598D01*
X005941Y008575D01*
X005895Y008555D01*
X005847Y008538D01*
X005799Y008526D01*
X005749Y008517D01*
X005699Y008512D01*
X005648Y008511D01*
X005598Y008514D01*
X005548Y008521D01*
X005499Y008532D01*
X005451Y008546D01*
X005404Y008564D01*
X005358Y008586D01*
X005314Y008611D01*
X005273Y008640D01*
X005234Y008671D01*
X005197Y008706D01*
X005163Y008743D01*
X005132Y008783D01*
X005104Y008825D01*
X005080Y008869D01*
X005059Y008915D01*
X005042Y008963D01*
X005029Y009011D01*
X005019Y009061D01*
X005013Y009111D01*
X005011Y009161D01*
X048261Y009161D02*
X048263Y009211D01*
X048269Y009261D01*
X048279Y009311D01*
X048292Y009359D01*
X048309Y009407D01*
X048330Y009453D01*
X048354Y009497D01*
X048382Y009539D01*
X048413Y009579D01*
X048447Y009616D01*
X048484Y009651D01*
X048523Y009682D01*
X048564Y009711D01*
X048608Y009736D01*
X048654Y009758D01*
X048701Y009776D01*
X048749Y009790D01*
X048798Y009801D01*
X048848Y009808D01*
X048898Y009811D01*
X048949Y009810D01*
X048999Y009805D01*
X049049Y009796D01*
X049097Y009784D01*
X049145Y009767D01*
X049191Y009747D01*
X049236Y009724D01*
X049279Y009697D01*
X049319Y009667D01*
X049357Y009634D01*
X049392Y009598D01*
X049425Y009559D01*
X049454Y009518D01*
X049480Y009475D01*
X049503Y009430D01*
X049522Y009383D01*
X049537Y009335D01*
X049549Y009286D01*
X049557Y009236D01*
X049561Y009186D01*
X049561Y009136D01*
X049557Y009086D01*
X049549Y009036D01*
X049537Y008987D01*
X049522Y008939D01*
X049503Y008892D01*
X049480Y008847D01*
X049454Y008804D01*
X049425Y008763D01*
X049392Y008724D01*
X049357Y008688D01*
X049319Y008655D01*
X049279Y008625D01*
X049236Y008598D01*
X049191Y008575D01*
X049145Y008555D01*
X049097Y008538D01*
X049049Y008526D01*
X048999Y008517D01*
X048949Y008512D01*
X048898Y008511D01*
X048848Y008514D01*
X048798Y008521D01*
X048749Y008532D01*
X048701Y008546D01*
X048654Y008564D01*
X048608Y008586D01*
X048564Y008611D01*
X048523Y008640D01*
X048484Y008671D01*
X048447Y008706D01*
X048413Y008743D01*
X048382Y008783D01*
X048354Y008825D01*
X048330Y008869D01*
X048309Y008915D01*
X048292Y008963D01*
X048279Y009011D01*
X048269Y009061D01*
X048263Y009111D01*
X048261Y009161D01*
X048261Y002661D02*
X048263Y002711D01*
X048269Y002761D01*
X048279Y002811D01*
X048292Y002859D01*
X048309Y002907D01*
X048330Y002953D01*
X048354Y002997D01*
X048382Y003039D01*
X048413Y003079D01*
X048447Y003116D01*
X048484Y003151D01*
X048523Y003182D01*
X048564Y003211D01*
X048608Y003236D01*
X048654Y003258D01*
X048701Y003276D01*
X048749Y003290D01*
X048798Y003301D01*
X048848Y003308D01*
X048898Y003311D01*
X048949Y003310D01*
X048999Y003305D01*
X049049Y003296D01*
X049097Y003284D01*
X049145Y003267D01*
X049191Y003247D01*
X049236Y003224D01*
X049279Y003197D01*
X049319Y003167D01*
X049357Y003134D01*
X049392Y003098D01*
X049425Y003059D01*
X049454Y003018D01*
X049480Y002975D01*
X049503Y002930D01*
X049522Y002883D01*
X049537Y002835D01*
X049549Y002786D01*
X049557Y002736D01*
X049561Y002686D01*
X049561Y002636D01*
X049557Y002586D01*
X049549Y002536D01*
X049537Y002487D01*
X049522Y002439D01*
X049503Y002392D01*
X049480Y002347D01*
X049454Y002304D01*
X049425Y002263D01*
X049392Y002224D01*
X049357Y002188D01*
X049319Y002155D01*
X049279Y002125D01*
X049236Y002098D01*
X049191Y002075D01*
X049145Y002055D01*
X049097Y002038D01*
X049049Y002026D01*
X048999Y002017D01*
X048949Y002012D01*
X048898Y002011D01*
X048848Y002014D01*
X048798Y002021D01*
X048749Y002032D01*
X048701Y002046D01*
X048654Y002064D01*
X048608Y002086D01*
X048564Y002111D01*
X048523Y002140D01*
X048484Y002171D01*
X048447Y002206D01*
X048413Y002243D01*
X048382Y002283D01*
X048354Y002325D01*
X048330Y002369D01*
X048309Y002415D01*
X048292Y002463D01*
X048279Y002511D01*
X048269Y002561D01*
X048263Y002611D01*
X048261Y002661D01*
D11*
X045161Y007579D03*
X052161Y007579D03*
X058911Y007579D03*
X058911Y009744D03*
X052161Y009744D03*
X045161Y009744D03*
X038161Y009744D03*
X031161Y009744D03*
X024161Y009744D03*
X017161Y009744D03*
X010161Y009744D03*
X003161Y009744D03*
X003161Y007579D03*
X010161Y007579D03*
X017161Y007579D03*
X024161Y007579D03*
X031161Y007579D03*
X038161Y007579D03*
D12*
X036661Y009287D03*
X036661Y010035D03*
X029661Y010035D03*
X029661Y009287D03*
X022661Y009287D03*
X022661Y010035D03*
X015661Y010035D03*
X013161Y010035D03*
X013161Y009287D03*
X015661Y009287D03*
X001661Y009287D03*
X001661Y010035D03*
X045161Y005785D03*
X045161Y005037D03*
X053661Y009287D03*
X053661Y010035D03*
X057411Y010035D03*
X057411Y009287D03*
D13*
X030411Y003911D03*
X030411Y002911D03*
X030411Y001911D03*
X036661Y001661D03*
X036661Y002661D03*
X036661Y003661D03*
X045161Y003661D03*
X045161Y002661D03*
X045161Y001661D03*
X055911Y001661D03*
X058911Y001661D03*
X058911Y002661D03*
X055911Y002661D03*
X055911Y003661D03*
X058911Y003661D03*
X021661Y003661D03*
X021661Y002661D03*
X015661Y002661D03*
X013161Y002661D03*
X013161Y003661D03*
X015661Y003661D03*
X021661Y004661D03*
X015661Y001661D03*
X013161Y001661D03*
X001661Y001661D03*
X001661Y002661D03*
X001661Y003661D03*
D14*
X033271Y003911D02*
X033551Y003911D01*
X033551Y002911D02*
X033271Y002911D01*
X033271Y004911D02*
X033551Y004911D01*
D15*
X043531Y004661D02*
X043791Y004661D01*
X043791Y005661D02*
X043531Y005661D01*
X043531Y006661D02*
X043791Y006661D01*
X043791Y007661D02*
X043531Y007661D01*
X043531Y008661D02*
X043791Y008661D01*
X043791Y009661D02*
X043531Y009661D01*
X043531Y010661D02*
X043791Y010661D01*
X043791Y003661D02*
X043531Y003661D01*
X043531Y002661D02*
X043791Y002661D01*
D16*
X028130Y002080D02*
X028130Y001727D01*
X026161Y001727D02*
X026161Y002080D01*
X024193Y002080D02*
X024193Y001727D01*
D17*
X041763Y002661D02*
X042060Y002661D01*
X042060Y003661D02*
X041763Y003661D01*
X041763Y004661D02*
X042060Y004661D01*
X042060Y005661D02*
X041763Y005661D01*
X041763Y006661D02*
X042060Y006661D01*
X042060Y007661D02*
X041763Y007661D01*
X041763Y008661D02*
X042060Y008661D01*
X042060Y009661D02*
X041763Y009661D01*
X041763Y010661D02*
X042060Y010661D01*
D18*
X042628Y010475D02*
X043002Y010475D01*
X042971Y010550D02*
X043056Y010344D01*
X043214Y010186D01*
X043275Y010161D01*
X043214Y010136D01*
X043099Y010021D01*
X042544Y010021D01*
X042404Y010161D01*
X042566Y010323D01*
X042656Y010543D01*
X042656Y010780D01*
X042566Y010999D01*
X042398Y011167D01*
X042315Y011201D01*
X043372Y011201D01*
X043214Y011136D01*
X043056Y010978D01*
X042971Y010773D01*
X042971Y010550D01*
X042971Y010593D02*
X042656Y010593D01*
X042656Y010712D02*
X042971Y010712D01*
X042995Y010830D02*
X042636Y010830D01*
X042587Y010949D02*
X043044Y010949D01*
X043145Y011067D02*
X042498Y011067D01*
X042353Y011186D02*
X043334Y011186D01*
X043951Y011201D02*
X044108Y011136D01*
X044266Y010978D01*
X044327Y010831D01*
X046008Y010831D01*
X046119Y010786D01*
X046203Y010701D01*
X046249Y010591D01*
X046249Y010580D01*
X046399Y010517D01*
X046517Y010399D01*
X046649Y010267D01*
X046661Y010255D01*
X046661Y010462D01*
X046623Y010554D01*
X046623Y010768D01*
X046705Y010966D01*
X046856Y011117D01*
X047054Y011199D01*
X047268Y011199D01*
X047466Y011117D01*
X047617Y010966D01*
X047699Y010768D01*
X047699Y010554D01*
X047661Y010462D01*
X047661Y010026D01*
X047678Y010058D01*
X048015Y010395D01*
X048440Y010612D01*
X048911Y010686D01*
X049382Y010612D01*
X049808Y010395D01*
X050145Y010058D01*
X050362Y009632D01*
X050436Y009161D01*
X050362Y008690D01*
X050145Y008265D01*
X049808Y007928D01*
X049382Y007711D01*
X048911Y007636D01*
X048440Y007711D01*
X048015Y007928D01*
X047678Y008265D01*
X047661Y008297D01*
X047661Y006011D01*
X047661Y005812D01*
X047585Y005628D01*
X046656Y004698D01*
X046617Y004606D01*
X046466Y004455D01*
X046268Y004373D01*
X046054Y004373D01*
X045856Y004455D01*
X045715Y004596D01*
X045661Y004542D01*
X045661Y004116D01*
X045836Y003941D01*
X045836Y003382D01*
X045441Y002986D01*
X044882Y002986D01*
X044486Y003382D01*
X044486Y003941D01*
X044661Y004116D01*
X044661Y004542D01*
X044592Y004611D01*
X044546Y004722D01*
X044546Y005353D01*
X044571Y005411D01*
X044546Y005470D01*
X044546Y006101D01*
X044592Y006211D01*
X044676Y006295D01*
X044780Y006338D01*
X044805Y006399D01*
X044897Y006491D01*
X044327Y006491D01*
X044266Y006344D01*
X044108Y006186D01*
X044047Y006161D01*
X044108Y006136D01*
X044266Y005978D01*
X044351Y005773D01*
X044351Y005550D01*
X044266Y005344D01*
X044108Y005186D01*
X044047Y005161D01*
X044108Y005136D01*
X044266Y004978D01*
X044351Y004773D01*
X044351Y004550D01*
X044266Y004344D01*
X044108Y004186D01*
X044047Y004161D01*
X044108Y004136D01*
X044266Y003978D01*
X044351Y003773D01*
X044351Y003550D01*
X044266Y003344D01*
X044108Y003186D01*
X044047Y003161D01*
X044108Y003136D01*
X044266Y002978D01*
X044351Y002773D01*
X044351Y002550D01*
X044266Y002344D01*
X044108Y002186D01*
X043903Y002101D01*
X043420Y002101D01*
X043214Y002186D01*
X043056Y002344D01*
X042971Y002550D01*
X042971Y002773D01*
X043056Y002978D01*
X043214Y003136D01*
X043275Y003161D01*
X043214Y003186D01*
X043056Y003344D01*
X042971Y003550D01*
X042971Y003773D01*
X043056Y003978D01*
X043214Y004136D01*
X043275Y004161D01*
X043214Y004186D01*
X043056Y004344D01*
X042971Y004550D01*
X042971Y004773D01*
X043056Y004978D01*
X043214Y005136D01*
X043275Y005161D01*
X043214Y005186D01*
X043056Y005344D01*
X042971Y005550D01*
X042971Y005773D01*
X043056Y005978D01*
X043214Y006136D01*
X043275Y006161D01*
X043214Y006186D01*
X043099Y006301D01*
X042544Y006301D01*
X042404Y006161D01*
X042566Y005999D01*
X042656Y005780D01*
X042656Y005543D01*
X042566Y005323D01*
X042404Y005161D01*
X042566Y004999D01*
X042656Y004780D01*
X042656Y004543D01*
X042566Y004323D01*
X042404Y004161D01*
X042566Y003999D01*
X042656Y003780D01*
X042656Y003543D01*
X042566Y003323D01*
X042404Y003161D01*
X042566Y002999D01*
X042656Y002780D01*
X042656Y002543D01*
X042566Y002323D01*
X042398Y002155D01*
X042178Y002064D01*
X041644Y002064D01*
X041425Y002155D01*
X041257Y002323D01*
X041166Y002543D01*
X041166Y002780D01*
X041257Y002999D01*
X041419Y003161D01*
X041257Y003323D01*
X041166Y003543D01*
X041166Y003780D01*
X041257Y003999D01*
X041419Y004161D01*
X041257Y004323D01*
X041166Y004543D01*
X041166Y004780D01*
X041257Y004999D01*
X041419Y005161D01*
X041257Y005323D01*
X041166Y005543D01*
X041166Y005780D01*
X041257Y005999D01*
X041419Y006161D01*
X041257Y006323D01*
X041166Y006543D01*
X041166Y006780D01*
X041167Y006781D01*
X040336Y006781D01*
X040196Y006839D01*
X040089Y006946D01*
X039589Y007446D01*
X039559Y007518D01*
X039495Y007491D01*
X039249Y007491D01*
X039249Y006731D01*
X039203Y006621D01*
X039119Y006537D01*
X039008Y006491D01*
X037314Y006491D01*
X037204Y006537D01*
X037161Y006580D01*
X037161Y004116D01*
X037336Y003941D01*
X037336Y003382D01*
X036941Y002986D01*
X036382Y002986D01*
X035986Y003382D01*
X035986Y003941D01*
X036161Y004116D01*
X036161Y008792D01*
X036092Y008861D01*
X036046Y008972D01*
X036046Y009603D01*
X036071Y009661D01*
X036046Y009720D01*
X036046Y010351D01*
X036092Y010461D01*
X036122Y010491D01*
X033173Y010491D01*
X033117Y010356D01*
X033845Y010356D01*
X033856Y010367D02*
X033705Y010216D01*
X033623Y010018D01*
X033623Y009804D01*
X033705Y009606D01*
X033856Y009455D01*
X034054Y009373D01*
X034105Y009373D01*
X034241Y009237D01*
X034241Y005245D01*
X034241Y005078D01*
X034305Y004923D01*
X034873Y004355D01*
X034873Y004304D01*
X034955Y004106D01*
X035106Y003955D01*
X035304Y003873D01*
X035518Y003873D01*
X035716Y003955D01*
X035867Y004106D01*
X035949Y004304D01*
X035949Y004518D01*
X035867Y004716D01*
X035716Y004867D01*
X035518Y004949D01*
X035467Y004949D01*
X035081Y005335D01*
X035081Y009495D01*
X035017Y009649D01*
X034899Y009767D01*
X034699Y009967D01*
X034699Y010018D01*
X034617Y010216D01*
X034466Y010367D01*
X034268Y010449D01*
X034054Y010449D01*
X033856Y010367D01*
X033726Y010237D02*
X032998Y010237D01*
X032966Y010205D02*
X032768Y010123D01*
X032554Y010123D01*
X032356Y010205D01*
X032249Y010313D01*
X032249Y009510D01*
X032356Y009617D01*
X032554Y009699D01*
X032768Y009699D01*
X032966Y009617D01*
X033117Y009466D01*
X033199Y009268D01*
X033199Y009054D01*
X033117Y008856D01*
X033081Y008820D01*
X033081Y008328D01*
X033017Y008173D01*
X032899Y008055D01*
X032649Y007805D01*
X032495Y007741D01*
X032328Y007741D01*
X032249Y007741D01*
X032249Y006731D01*
X032203Y006621D01*
X032119Y006537D01*
X032008Y006491D01*
X030314Y006491D01*
X030204Y006537D01*
X030161Y006580D01*
X030161Y004868D01*
X030443Y004586D01*
X030691Y004586D01*
X031086Y004191D01*
X031086Y003632D01*
X030691Y003236D01*
X030132Y003236D01*
X029736Y003632D01*
X029736Y003879D01*
X029378Y004237D01*
X029237Y004378D01*
X029161Y004562D01*
X029161Y008792D01*
X029092Y008861D01*
X029046Y008972D01*
X029046Y009603D01*
X029071Y009661D01*
X029046Y009720D01*
X029046Y010351D01*
X029092Y010461D01*
X029176Y010545D01*
X029287Y010591D01*
X030036Y010591D01*
X030060Y010581D01*
X030074Y010581D01*
X030074Y010591D01*
X030120Y010701D01*
X030204Y010786D01*
X030314Y010831D01*
X032008Y010831D01*
X032119Y010786D01*
X032127Y010777D01*
X032205Y010966D01*
X032356Y011117D01*
X032554Y011199D01*
X032605Y011199D01*
X032607Y011201D01*
X000621Y011201D01*
X000621Y002271D01*
X001317Y002271D01*
X001382Y002336D01*
X001941Y002336D01*
X001966Y002311D01*
X002041Y002311D01*
X002137Y002271D01*
X004198Y002271D01*
X004136Y002661D01*
X004211Y003132D01*
X004428Y003558D01*
X004765Y003895D01*
X005190Y004112D01*
X005661Y004186D01*
X006132Y004112D01*
X006558Y003895D01*
X006895Y003558D01*
X007112Y003132D01*
X007186Y002661D01*
X007124Y002271D01*
X012817Y002271D01*
X012882Y002336D01*
X013441Y002336D01*
X013506Y002271D01*
X015317Y002271D01*
X015382Y002336D01*
X015941Y002336D01*
X016006Y002271D01*
X019512Y002271D01*
X020356Y003115D01*
X020457Y003216D01*
X020590Y003271D01*
X021317Y003271D01*
X021382Y003336D01*
X021941Y003336D01*
X022006Y003271D01*
X026840Y003271D01*
X026983Y003271D01*
X027115Y003216D01*
X027810Y002521D01*
X030067Y002521D01*
X030132Y002586D01*
X030691Y002586D01*
X030756Y002521D01*
X035840Y002521D01*
X035983Y002521D01*
X036115Y002466D01*
X036310Y002271D01*
X036317Y002271D01*
X036382Y002336D01*
X036941Y002336D01*
X037006Y002271D01*
X040090Y002271D01*
X040233Y002271D01*
X040365Y002216D01*
X040810Y001771D01*
X044012Y001771D01*
X044356Y002115D01*
X044457Y002216D01*
X044590Y002271D01*
X044817Y002271D01*
X044882Y002336D01*
X045441Y002336D01*
X045506Y002271D01*
X047448Y002271D01*
X047386Y002661D01*
X047461Y003132D01*
X047678Y003558D01*
X048015Y003895D01*
X048440Y004112D01*
X048911Y004186D01*
X049382Y004112D01*
X049808Y003895D01*
X050145Y003558D01*
X050362Y003132D01*
X050436Y002661D01*
X050374Y002271D01*
X055567Y002271D01*
X055632Y002336D01*
X056191Y002336D01*
X056256Y002271D01*
X058567Y002271D01*
X058632Y002336D01*
X059191Y002336D01*
X059256Y002271D01*
X059943Y002271D01*
X059943Y006612D01*
X059869Y006537D01*
X059758Y006491D01*
X059331Y006491D01*
X059331Y006002D01*
X059367Y005966D01*
X059449Y005768D01*
X059449Y005554D01*
X059367Y005356D01*
X059216Y005205D01*
X059018Y005123D01*
X058906Y005123D01*
X059335Y004694D01*
X059411Y004511D01*
X059411Y004312D01*
X059411Y004116D01*
X059586Y003941D01*
X059586Y003382D01*
X059191Y002986D01*
X058632Y002986D01*
X058236Y003382D01*
X058236Y003941D01*
X058411Y004116D01*
X058411Y004204D01*
X057128Y005487D01*
X056987Y005628D01*
X056911Y005812D01*
X056911Y008792D01*
X056842Y008861D01*
X056796Y008972D01*
X056796Y009603D01*
X056821Y009661D01*
X056796Y009720D01*
X056796Y010351D01*
X056842Y010461D01*
X056926Y010545D01*
X057037Y010591D01*
X057786Y010591D01*
X057810Y010581D01*
X057824Y010581D01*
X057824Y010591D01*
X057870Y010701D01*
X057954Y010786D01*
X058064Y010831D01*
X059758Y010831D01*
X059869Y010786D01*
X059943Y010711D01*
X059943Y011201D01*
X043951Y011201D01*
X043988Y011186D02*
X047021Y011186D01*
X046806Y011067D02*
X044177Y011067D01*
X044278Y010949D02*
X046698Y010949D01*
X046649Y010830D02*
X046011Y010830D01*
X046193Y010712D02*
X046623Y010712D01*
X046623Y010593D02*
X046248Y010593D01*
X046442Y010475D02*
X046656Y010475D01*
X046661Y010356D02*
X046560Y010356D01*
X047661Y010356D02*
X047976Y010356D01*
X047857Y010237D02*
X047661Y010237D01*
X047661Y010119D02*
X047739Y010119D01*
X047666Y010475D02*
X048171Y010475D01*
X048404Y010593D02*
X047699Y010593D01*
X047699Y010712D02*
X051130Y010712D01*
X051120Y010701D02*
X051074Y010591D01*
X051074Y008897D01*
X051120Y008787D01*
X051204Y008702D01*
X051303Y008661D01*
X051204Y008620D01*
X051120Y008536D01*
X051074Y008426D01*
X051074Y006731D01*
X051120Y006621D01*
X051204Y006537D01*
X051314Y006491D01*
X051741Y006491D01*
X051741Y005252D01*
X051705Y005216D01*
X051623Y005018D01*
X051623Y004804D01*
X051705Y004606D01*
X051856Y004455D01*
X052054Y004373D01*
X052268Y004373D01*
X052466Y004455D01*
X052617Y004606D01*
X052699Y004804D01*
X052699Y005018D01*
X052617Y005216D01*
X052581Y005252D01*
X052581Y006491D01*
X053008Y006491D01*
X053119Y006537D01*
X053161Y006580D01*
X053161Y006562D01*
X053237Y006378D01*
X055411Y004204D01*
X055411Y004116D01*
X055236Y003941D01*
X055236Y003382D01*
X055632Y002986D01*
X056191Y002986D01*
X056586Y003382D01*
X056586Y003941D01*
X056411Y004116D01*
X056411Y004312D01*
X056411Y004511D01*
X056335Y004694D01*
X054161Y006868D01*
X054161Y008792D01*
X054231Y008861D01*
X054276Y008972D01*
X054276Y009603D01*
X054252Y009661D01*
X054276Y009720D01*
X054276Y010351D01*
X054231Y010461D01*
X054146Y010545D01*
X054036Y010591D01*
X053287Y010591D01*
X053263Y010581D01*
X053249Y010581D01*
X053249Y010591D01*
X053203Y010701D01*
X053119Y010786D01*
X053008Y010831D01*
X051314Y010831D01*
X051204Y010786D01*
X051120Y010701D01*
X051075Y010593D02*
X049419Y010593D01*
X049651Y010475D02*
X051074Y010475D01*
X051074Y010356D02*
X049847Y010356D01*
X049965Y010237D02*
X051074Y010237D01*
X051074Y010119D02*
X050084Y010119D01*
X050174Y010000D02*
X051074Y010000D01*
X051074Y009882D02*
X050235Y009882D01*
X050295Y009763D02*
X051074Y009763D01*
X051074Y009645D02*
X050355Y009645D01*
X050378Y009526D02*
X051074Y009526D01*
X051074Y009408D02*
X050397Y009408D01*
X050416Y009289D02*
X051074Y009289D01*
X051074Y009171D02*
X050435Y009171D01*
X050419Y009052D02*
X051074Y009052D01*
X051074Y008933D02*
X050400Y008933D01*
X050381Y008815D02*
X051108Y008815D01*
X051218Y008696D02*
X050363Y008696D01*
X050304Y008578D02*
X051161Y008578D01*
X051088Y008459D02*
X050244Y008459D01*
X050184Y008341D02*
X051074Y008341D01*
X051074Y008222D02*
X050102Y008222D01*
X049984Y008104D02*
X051074Y008104D01*
X051074Y007985D02*
X049865Y007985D01*
X049688Y007867D02*
X051074Y007867D01*
X051074Y007748D02*
X049455Y007748D01*
X048367Y007748D02*
X047661Y007748D01*
X047661Y007629D02*
X051074Y007629D01*
X051074Y007511D02*
X047661Y007511D01*
X047661Y007392D02*
X051074Y007392D01*
X051074Y007274D02*
X047661Y007274D01*
X047661Y007155D02*
X051074Y007155D01*
X051074Y007037D02*
X047661Y007037D01*
X047661Y006918D02*
X051074Y006918D01*
X051074Y006800D02*
X047661Y006800D01*
X047661Y006681D02*
X051095Y006681D01*
X051178Y006563D02*
X047661Y006563D01*
X047661Y006444D02*
X051741Y006444D01*
X051741Y006326D02*
X047661Y006326D01*
X047661Y006207D02*
X051741Y006207D01*
X051741Y006088D02*
X047661Y006088D01*
X047661Y005970D02*
X051741Y005970D01*
X051741Y005851D02*
X047661Y005851D01*
X047629Y005733D02*
X051741Y005733D01*
X051741Y005614D02*
X047571Y005614D01*
X047453Y005496D02*
X051741Y005496D01*
X051741Y005377D02*
X047334Y005377D01*
X047216Y005259D02*
X051741Y005259D01*
X051674Y005140D02*
X047097Y005140D01*
X046979Y005022D02*
X051624Y005022D01*
X051623Y004903D02*
X046860Y004903D01*
X046742Y004784D02*
X051631Y004784D01*
X051680Y004666D02*
X046642Y004666D01*
X046558Y004547D02*
X051764Y004547D01*
X051920Y004429D02*
X046403Y004429D01*
X045920Y004429D02*
X045661Y004429D01*
X045666Y004547D02*
X045764Y004547D01*
X045661Y004310D02*
X055305Y004310D01*
X055411Y004192D02*
X045661Y004192D01*
X045704Y004073D02*
X048365Y004073D01*
X048132Y003955D02*
X045822Y003955D01*
X045836Y003836D02*
X047956Y003836D01*
X047837Y003718D02*
X045836Y003718D01*
X045836Y003599D02*
X047719Y003599D01*
X047638Y003480D02*
X045836Y003480D01*
X045816Y003362D02*
X047578Y003362D01*
X047517Y003243D02*
X045698Y003243D01*
X045579Y003125D02*
X047460Y003125D01*
X047441Y003006D02*
X045461Y003006D01*
X044862Y003006D02*
X044238Y003006D01*
X044304Y002888D02*
X047422Y002888D01*
X047403Y002769D02*
X044351Y002769D01*
X044351Y002651D02*
X047388Y002651D01*
X047407Y002532D02*
X044344Y002532D01*
X044295Y002414D02*
X047425Y002414D01*
X047444Y002295D02*
X045482Y002295D01*
X044841Y002295D02*
X044217Y002295D01*
X044084Y002176D02*
X044417Y002176D01*
X044299Y002058D02*
X040524Y002058D01*
X040642Y001939D02*
X044180Y001939D01*
X044062Y001821D02*
X040761Y001821D01*
X040370Y001702D02*
X028782Y001702D01*
X028782Y001597D02*
X028782Y002161D01*
X035911Y002161D01*
X036161Y001911D01*
X040161Y001911D01*
X040661Y001411D01*
X044161Y001411D01*
X044661Y001911D01*
X047603Y001911D01*
X047678Y001765D01*
X048015Y001428D01*
X048440Y001211D01*
X048911Y001136D01*
X049382Y001211D01*
X049808Y001428D01*
X050145Y001765D01*
X050220Y001911D01*
X059943Y001911D01*
X059943Y000621D01*
X000621Y000621D01*
X000621Y001911D01*
X004353Y001911D01*
X004428Y001765D01*
X004765Y001428D01*
X005190Y001211D01*
X005661Y001136D01*
X006132Y001211D01*
X006558Y001428D01*
X006895Y001765D01*
X006970Y001911D01*
X019661Y001911D01*
X020661Y002911D01*
X026911Y002911D01*
X027480Y002343D01*
X027480Y002216D01*
X027477Y002209D01*
X027477Y001597D01*
X027577Y001357D01*
X027760Y001174D01*
X028000Y001075D01*
X028260Y001075D01*
X028499Y001174D01*
X028683Y001357D01*
X028782Y001597D01*
X028777Y001584D02*
X040489Y001584D01*
X040607Y001465D02*
X028728Y001465D01*
X028672Y001347D02*
X048174Y001347D01*
X047977Y001465D02*
X044215Y001465D01*
X044334Y001584D02*
X047859Y001584D01*
X047740Y001702D02*
X044452Y001702D01*
X044571Y001821D02*
X047649Y001821D01*
X049649Y001347D02*
X059943Y001347D01*
X059943Y001465D02*
X049845Y001465D01*
X049964Y001584D02*
X059943Y001584D01*
X059943Y001702D02*
X050082Y001702D01*
X050173Y001821D02*
X059943Y001821D01*
X059943Y002295D02*
X059232Y002295D01*
X058591Y002295D02*
X056232Y002295D01*
X055591Y002295D02*
X050378Y002295D01*
X050397Y002414D02*
X059943Y002414D01*
X059943Y002532D02*
X050416Y002532D01*
X050435Y002651D02*
X059943Y002651D01*
X059943Y002769D02*
X050419Y002769D01*
X050400Y002888D02*
X059943Y002888D01*
X059943Y003006D02*
X059211Y003006D01*
X059329Y003125D02*
X059943Y003125D01*
X059943Y003243D02*
X059448Y003243D01*
X059566Y003362D02*
X059943Y003362D01*
X059943Y003480D02*
X059586Y003480D01*
X059586Y003599D02*
X059943Y003599D01*
X059943Y003718D02*
X059586Y003718D01*
X059586Y003836D02*
X059943Y003836D01*
X059943Y003955D02*
X059572Y003955D01*
X059454Y004073D02*
X059943Y004073D01*
X059943Y004192D02*
X059411Y004192D01*
X059411Y004310D02*
X059943Y004310D01*
X059943Y004429D02*
X059411Y004429D01*
X059396Y004547D02*
X059943Y004547D01*
X059943Y004666D02*
X059347Y004666D01*
X059245Y004784D02*
X059943Y004784D01*
X059943Y004903D02*
X059127Y004903D01*
X059008Y005022D02*
X059943Y005022D01*
X059943Y005140D02*
X059059Y005140D01*
X059270Y005259D02*
X059943Y005259D01*
X059943Y005377D02*
X059376Y005377D01*
X059425Y005496D02*
X059943Y005496D01*
X059943Y005614D02*
X059449Y005614D01*
X059449Y005733D02*
X059943Y005733D01*
X059943Y005851D02*
X059415Y005851D01*
X059364Y005970D02*
X059943Y005970D01*
X059943Y006088D02*
X059331Y006088D01*
X059331Y006207D02*
X059943Y006207D01*
X059943Y006326D02*
X059331Y006326D01*
X059331Y006444D02*
X059943Y006444D01*
X059943Y006563D02*
X059894Y006563D01*
X058491Y006491D02*
X058491Y006002D01*
X058455Y005966D01*
X058373Y005768D01*
X058373Y005656D01*
X057911Y006118D01*
X057911Y006580D01*
X057954Y006537D01*
X058064Y006491D01*
X058491Y006491D01*
X058491Y006444D02*
X057911Y006444D01*
X057911Y006326D02*
X058491Y006326D01*
X058491Y006207D02*
X057911Y006207D01*
X057941Y006088D02*
X058491Y006088D01*
X058459Y005970D02*
X058060Y005970D01*
X058178Y005851D02*
X058408Y005851D01*
X058373Y005733D02*
X058297Y005733D01*
X057120Y005496D02*
X055534Y005496D01*
X055415Y005614D02*
X057001Y005614D01*
X056944Y005733D02*
X055297Y005733D01*
X055178Y005851D02*
X056911Y005851D01*
X056911Y005970D02*
X055060Y005970D01*
X054941Y006088D02*
X056911Y006088D01*
X056911Y006207D02*
X054823Y006207D01*
X054704Y006326D02*
X056911Y006326D01*
X056911Y006444D02*
X054586Y006444D01*
X054467Y006563D02*
X056911Y006563D01*
X056911Y006681D02*
X054348Y006681D01*
X054230Y006800D02*
X056911Y006800D01*
X056911Y006918D02*
X054161Y006918D01*
X054161Y007037D02*
X056911Y007037D01*
X056911Y007155D02*
X054161Y007155D01*
X054161Y007274D02*
X056911Y007274D01*
X056911Y007392D02*
X054161Y007392D01*
X054161Y007511D02*
X056911Y007511D01*
X056911Y007629D02*
X054161Y007629D01*
X054161Y007748D02*
X056911Y007748D01*
X056911Y007867D02*
X054161Y007867D01*
X054161Y007985D02*
X056911Y007985D01*
X056911Y008104D02*
X054161Y008104D01*
X054161Y008222D02*
X056911Y008222D01*
X056911Y008341D02*
X054161Y008341D01*
X054161Y008459D02*
X056911Y008459D01*
X056911Y008578D02*
X054161Y008578D01*
X054161Y008696D02*
X056911Y008696D01*
X056888Y008815D02*
X054184Y008815D01*
X054260Y008933D02*
X056812Y008933D01*
X056796Y009052D02*
X054276Y009052D01*
X054276Y009171D02*
X056796Y009171D01*
X056796Y009289D02*
X054276Y009289D01*
X054276Y009408D02*
X056796Y009408D01*
X056796Y009526D02*
X054276Y009526D01*
X054259Y009645D02*
X056814Y009645D01*
X056796Y009763D02*
X054276Y009763D01*
X054276Y009882D02*
X056796Y009882D01*
X056796Y010000D02*
X054276Y010000D01*
X054276Y010119D02*
X056796Y010119D01*
X056796Y010237D02*
X054276Y010237D01*
X054274Y010356D02*
X056798Y010356D01*
X056855Y010475D02*
X054217Y010475D01*
X053248Y010593D02*
X057825Y010593D01*
X057880Y010712D02*
X053193Y010712D01*
X053011Y010830D02*
X058061Y010830D01*
X059761Y010830D02*
X059943Y010830D01*
X059943Y010712D02*
X059943Y010712D01*
X059943Y010949D02*
X047625Y010949D01*
X047674Y010830D02*
X051311Y010830D01*
X047516Y011067D02*
X059943Y011067D01*
X059943Y011186D02*
X047301Y011186D01*
X043052Y010356D02*
X042579Y010356D01*
X042480Y010237D02*
X043163Y010237D01*
X043197Y010119D02*
X042446Y010119D01*
X041419Y010161D02*
X041257Y009999D01*
X041166Y009780D01*
X041166Y009543D01*
X041257Y009323D01*
X041419Y009161D01*
X041257Y008999D01*
X041166Y008780D01*
X041166Y008543D01*
X041257Y008323D01*
X041419Y008161D01*
X041257Y007999D01*
X041166Y007780D01*
X041166Y007543D01*
X041167Y007541D01*
X040569Y007541D01*
X040291Y007819D01*
X040291Y010030D01*
X040367Y010106D01*
X040449Y010304D01*
X040449Y010518D01*
X040367Y010716D01*
X040216Y010867D01*
X040018Y010949D01*
X039831Y010949D01*
X039831Y010995D01*
X039767Y011149D01*
X039715Y011201D01*
X041507Y011201D01*
X041425Y011167D01*
X041257Y010999D01*
X041166Y010780D01*
X041166Y010543D01*
X041257Y010323D01*
X041419Y010161D01*
X041376Y010119D02*
X040373Y010119D01*
X040422Y010237D02*
X041343Y010237D01*
X041243Y010356D02*
X040449Y010356D01*
X040449Y010475D02*
X041194Y010475D01*
X041166Y010593D02*
X040418Y010593D01*
X040369Y010712D02*
X041166Y010712D01*
X041187Y010830D02*
X040253Y010830D01*
X040020Y010949D02*
X041236Y010949D01*
X041325Y011067D02*
X039801Y011067D01*
X039731Y011186D02*
X041470Y011186D01*
X044047Y010161D02*
X044074Y010172D01*
X044074Y010150D01*
X044047Y010161D01*
X043661Y009661D02*
X041911Y009661D01*
X041222Y009408D02*
X040291Y009408D01*
X040291Y009526D02*
X041173Y009526D01*
X041166Y009645D02*
X040291Y009645D01*
X040291Y009763D02*
X041166Y009763D01*
X041208Y009882D02*
X040291Y009882D01*
X040291Y010000D02*
X041258Y010000D01*
X041291Y009289D02*
X040291Y009289D01*
X040291Y009171D02*
X041409Y009171D01*
X041310Y009052D02*
X040291Y009052D01*
X040291Y008933D02*
X041230Y008933D01*
X041180Y008815D02*
X040291Y008815D01*
X040291Y008696D02*
X041166Y008696D01*
X041166Y008578D02*
X040291Y008578D01*
X040291Y008459D02*
X041200Y008459D01*
X041250Y008341D02*
X040291Y008341D01*
X040291Y008222D02*
X041358Y008222D01*
X041361Y008104D02*
X040291Y008104D01*
X040291Y007985D02*
X041251Y007985D01*
X041202Y007867D02*
X040291Y007867D01*
X040362Y007748D02*
X041166Y007748D01*
X041166Y007629D02*
X040480Y007629D01*
X039562Y007511D02*
X039542Y007511D01*
X039643Y007392D02*
X039249Y007392D01*
X039249Y007274D02*
X039761Y007274D01*
X039880Y007155D02*
X039249Y007155D01*
X039249Y007037D02*
X039998Y007037D01*
X040117Y006918D02*
X039249Y006918D01*
X039249Y006800D02*
X040291Y006800D01*
X041166Y006681D02*
X039228Y006681D01*
X039144Y006563D02*
X041166Y006563D01*
X041207Y006444D02*
X037161Y006444D01*
X037161Y006326D02*
X041256Y006326D01*
X041373Y006207D02*
X037161Y006207D01*
X037161Y006088D02*
X041346Y006088D01*
X041245Y005970D02*
X037161Y005970D01*
X037161Y005851D02*
X041196Y005851D01*
X041166Y005733D02*
X037161Y005733D01*
X037161Y005614D02*
X041166Y005614D01*
X041185Y005496D02*
X037161Y005496D01*
X037161Y005377D02*
X041234Y005377D01*
X041321Y005259D02*
X037161Y005259D01*
X037161Y005140D02*
X041398Y005140D01*
X041279Y005022D02*
X037161Y005022D01*
X037161Y004903D02*
X041217Y004903D01*
X041168Y004784D02*
X037161Y004784D01*
X037161Y004666D02*
X041166Y004666D01*
X041166Y004547D02*
X037161Y004547D01*
X037161Y004429D02*
X041213Y004429D01*
X041270Y004310D02*
X037161Y004310D01*
X037161Y004192D02*
X041388Y004192D01*
X041331Y004073D02*
X037204Y004073D01*
X037322Y003955D02*
X041238Y003955D01*
X041189Y003836D02*
X037336Y003836D01*
X037336Y003718D02*
X041166Y003718D01*
X041166Y003599D02*
X037336Y003599D01*
X037336Y003480D02*
X041192Y003480D01*
X041241Y003362D02*
X037316Y003362D01*
X037198Y003243D02*
X041337Y003243D01*
X041382Y003125D02*
X037079Y003125D01*
X036961Y003006D02*
X041264Y003006D01*
X041211Y002888D02*
X027444Y002888D01*
X027325Y003006D02*
X036362Y003006D01*
X036243Y003125D02*
X027207Y003125D01*
X027050Y003243D02*
X030125Y003243D01*
X030006Y003362D02*
X016316Y003362D01*
X016336Y003382D02*
X016336Y003941D01*
X016161Y004116D01*
X016161Y006580D01*
X016204Y006537D01*
X016314Y006491D01*
X018008Y006491D01*
X018119Y006537D01*
X018203Y006621D01*
X018249Y006731D01*
X018249Y007313D01*
X018356Y007205D01*
X018554Y007123D01*
X018768Y007123D01*
X018966Y007205D01*
X019117Y007356D01*
X019199Y007554D01*
X019199Y007768D01*
X019117Y007966D01*
X018966Y008117D01*
X018768Y008199D01*
X018717Y008199D01*
X018649Y008267D01*
X018495Y008331D01*
X018249Y008331D01*
X018249Y008426D01*
X018203Y008536D01*
X018119Y008620D01*
X018020Y008661D01*
X018119Y008702D01*
X018203Y008787D01*
X018249Y008897D01*
X018249Y010591D01*
X018203Y010701D01*
X018119Y010786D01*
X018008Y010831D01*
X016314Y010831D01*
X016204Y010786D01*
X016120Y010701D01*
X016074Y010591D01*
X016074Y010581D01*
X016060Y010581D01*
X016036Y010591D01*
X015287Y010591D01*
X015176Y010545D01*
X015092Y010461D01*
X015046Y010351D01*
X015046Y009720D01*
X015071Y009661D01*
X015046Y009603D01*
X015046Y008972D01*
X015092Y008861D01*
X015161Y008792D01*
X015161Y004116D01*
X014986Y003941D01*
X014986Y003382D01*
X015382Y002986D01*
X015941Y002986D01*
X016336Y003382D01*
X016336Y003480D02*
X029887Y003480D01*
X029769Y003599D02*
X016336Y003599D01*
X016336Y003718D02*
X029736Y003718D01*
X029736Y003836D02*
X016336Y003836D01*
X016322Y003955D02*
X029661Y003955D01*
X029542Y004073D02*
X022028Y004073D01*
X021941Y003986D02*
X021382Y003986D01*
X020986Y004382D01*
X020986Y004941D01*
X021382Y005336D01*
X021629Y005336D01*
X022161Y005868D01*
X022161Y008792D01*
X022092Y008861D01*
X022046Y008972D01*
X022046Y009603D01*
X022071Y009661D01*
X022046Y009720D01*
X022046Y010351D01*
X022092Y010461D01*
X022176Y010545D01*
X022287Y010591D01*
X023036Y010591D01*
X023060Y010581D01*
X023074Y010581D01*
X023074Y010591D01*
X023120Y010701D01*
X023204Y010786D01*
X023314Y010831D01*
X025008Y010831D01*
X025119Y010786D01*
X025203Y010701D01*
X025249Y010591D01*
X025249Y008897D01*
X025203Y008787D01*
X025119Y008702D01*
X025020Y008661D01*
X025119Y008620D01*
X025203Y008536D01*
X025224Y008485D01*
X025356Y008617D01*
X025554Y008699D01*
X025768Y008699D01*
X025966Y008617D01*
X026117Y008466D01*
X026199Y008268D01*
X026199Y008054D01*
X026117Y007856D01*
X025966Y007705D01*
X025768Y007623D01*
X025717Y007623D01*
X025649Y007555D01*
X025495Y007491D01*
X025249Y007491D01*
X025249Y006731D01*
X025203Y006621D01*
X025119Y006537D01*
X025008Y006491D01*
X023314Y006491D01*
X023204Y006537D01*
X023161Y006580D01*
X023161Y005562D01*
X023085Y005378D01*
X022944Y005237D01*
X022336Y004629D01*
X022336Y004382D01*
X021941Y003986D01*
X021295Y004073D02*
X016204Y004073D01*
X016161Y004192D02*
X021176Y004192D01*
X021058Y004310D02*
X016161Y004310D01*
X016161Y004429D02*
X020986Y004429D01*
X020986Y004547D02*
X016161Y004547D01*
X016161Y004666D02*
X020986Y004666D01*
X020986Y004784D02*
X016161Y004784D01*
X016161Y004903D02*
X020986Y004903D01*
X021067Y005022D02*
X016161Y005022D01*
X016161Y005140D02*
X021186Y005140D01*
X021304Y005259D02*
X016161Y005259D01*
X016161Y005377D02*
X021670Y005377D01*
X021789Y005496D02*
X016161Y005496D01*
X016161Y005614D02*
X021907Y005614D01*
X022026Y005733D02*
X016161Y005733D01*
X016161Y005851D02*
X022144Y005851D01*
X022161Y005970D02*
X016161Y005970D01*
X016161Y006088D02*
X022161Y006088D01*
X022161Y006207D02*
X016161Y006207D01*
X016161Y006326D02*
X022161Y006326D01*
X022161Y006444D02*
X016161Y006444D01*
X016161Y006563D02*
X016178Y006563D01*
X015161Y006563D02*
X013661Y006563D01*
X013661Y006681D02*
X015161Y006681D01*
X015161Y006800D02*
X013661Y006800D01*
X013661Y006918D02*
X015161Y006918D01*
X015161Y007037D02*
X013661Y007037D01*
X013661Y007155D02*
X015161Y007155D01*
X015161Y007274D02*
X013661Y007274D01*
X013661Y007392D02*
X015161Y007392D01*
X015161Y007511D02*
X013661Y007511D01*
X013661Y007629D02*
X015161Y007629D01*
X015161Y007748D02*
X013661Y007748D01*
X013661Y007867D02*
X015161Y007867D01*
X015161Y007985D02*
X013661Y007985D01*
X013661Y008104D02*
X015161Y008104D01*
X015161Y008222D02*
X013661Y008222D01*
X013661Y008341D02*
X015161Y008341D01*
X015161Y008459D02*
X013661Y008459D01*
X013661Y008578D02*
X015161Y008578D01*
X015161Y008696D02*
X013661Y008696D01*
X013661Y008792D02*
X013731Y008861D01*
X013776Y008972D01*
X013776Y009603D01*
X013752Y009661D01*
X013776Y009720D01*
X013776Y010351D01*
X013731Y010461D01*
X013646Y010545D01*
X013536Y010591D01*
X012787Y010591D01*
X012763Y010581D01*
X011249Y010581D01*
X011249Y010591D01*
X011203Y010701D01*
X011119Y010786D01*
X011008Y010831D01*
X009314Y010831D01*
X009204Y010786D01*
X009120Y010701D01*
X009074Y010591D01*
X009074Y008897D01*
X009120Y008787D01*
X009204Y008702D01*
X009303Y008661D01*
X009204Y008620D01*
X009120Y008536D01*
X009074Y008426D01*
X009074Y006731D01*
X009120Y006621D01*
X009204Y006537D01*
X009314Y006491D01*
X011008Y006491D01*
X011119Y006537D01*
X011203Y006621D01*
X011249Y006731D01*
X011249Y006813D01*
X011356Y006705D01*
X011554Y006623D01*
X011768Y006623D01*
X011966Y006705D01*
X012117Y006856D01*
X012199Y007054D01*
X012199Y007268D01*
X012117Y007466D01*
X012081Y007502D01*
X012081Y007745D01*
X012017Y007899D01*
X011899Y008017D01*
X011767Y008149D01*
X011649Y008267D01*
X011495Y008331D01*
X011249Y008331D01*
X011249Y008426D01*
X011203Y008536D01*
X011119Y008620D01*
X011020Y008661D01*
X011119Y008702D01*
X011203Y008787D01*
X011249Y008897D01*
X011249Y009741D01*
X012546Y009741D01*
X012546Y009720D01*
X012571Y009661D01*
X012546Y009603D01*
X012546Y008972D01*
X012592Y008861D01*
X012661Y008792D01*
X012661Y004116D01*
X012486Y003941D01*
X012486Y003382D01*
X012882Y002986D01*
X013441Y002986D01*
X013836Y003382D01*
X013836Y003941D01*
X013661Y004116D01*
X013661Y008792D01*
X013684Y008815D02*
X015138Y008815D01*
X015062Y008933D02*
X013760Y008933D01*
X013776Y009052D02*
X015046Y009052D01*
X015046Y009171D02*
X013776Y009171D01*
X013776Y009289D02*
X015046Y009289D01*
X015046Y009408D02*
X013776Y009408D01*
X013776Y009526D02*
X015046Y009526D01*
X015064Y009645D02*
X013759Y009645D01*
X013776Y009763D02*
X015046Y009763D01*
X015046Y009882D02*
X013776Y009882D01*
X013776Y010000D02*
X015046Y010000D01*
X015046Y010119D02*
X013776Y010119D01*
X013776Y010237D02*
X015046Y010237D01*
X015048Y010356D02*
X013774Y010356D01*
X013717Y010475D02*
X015105Y010475D01*
X016075Y010593D02*
X011248Y010593D01*
X011193Y010712D02*
X016130Y010712D01*
X016311Y010830D02*
X011011Y010830D01*
X009311Y010830D02*
X004011Y010830D01*
X004008Y010831D02*
X002314Y010831D01*
X002204Y010786D01*
X002120Y010701D01*
X002074Y010591D01*
X002074Y010581D01*
X002060Y010581D01*
X002036Y010591D01*
X001287Y010591D01*
X001176Y010545D01*
X001092Y010461D01*
X001046Y010351D01*
X001046Y009720D01*
X001071Y009661D01*
X001046Y009603D01*
X001046Y008972D01*
X001092Y008861D01*
X001161Y008792D01*
X001161Y004116D01*
X000986Y003941D01*
X000986Y003382D01*
X001382Y002986D01*
X001941Y002986D01*
X002336Y003382D01*
X002336Y003941D01*
X002161Y004116D01*
X002161Y006580D01*
X002204Y006537D01*
X002314Y006491D01*
X004008Y006491D01*
X004119Y006537D01*
X004203Y006621D01*
X004249Y006731D01*
X004249Y006741D01*
X004570Y006741D01*
X004606Y006705D01*
X004804Y006623D01*
X005018Y006623D01*
X005216Y006705D01*
X005367Y006856D01*
X005449Y007054D01*
X005449Y007268D01*
X005367Y007466D01*
X005216Y007617D01*
X005018Y007699D01*
X004804Y007699D01*
X004606Y007617D01*
X004570Y007581D01*
X004249Y007581D01*
X004249Y008426D01*
X004203Y008536D01*
X004119Y008620D01*
X004020Y008661D01*
X004119Y008702D01*
X004197Y008780D01*
X004211Y008690D01*
X004428Y008265D01*
X004765Y007928D01*
X005190Y007711D01*
X005661Y007636D01*
X006132Y007711D01*
X006558Y007928D01*
X006895Y008265D01*
X007112Y008690D01*
X007186Y009161D01*
X007112Y009632D01*
X006895Y010058D01*
X006558Y010395D01*
X006132Y010612D01*
X005661Y010686D01*
X005190Y010612D01*
X004765Y010395D01*
X004428Y010058D01*
X004249Y009706D01*
X004249Y010591D01*
X004203Y010701D01*
X004119Y010786D01*
X004008Y010831D01*
X004193Y010712D02*
X009130Y010712D01*
X009075Y010593D02*
X006169Y010593D01*
X006401Y010475D02*
X009074Y010475D01*
X009074Y010356D02*
X006597Y010356D01*
X006715Y010237D02*
X009074Y010237D01*
X009074Y010119D02*
X006834Y010119D01*
X006924Y010000D02*
X009074Y010000D01*
X009074Y009882D02*
X006985Y009882D01*
X007045Y009763D02*
X009074Y009763D01*
X009074Y009645D02*
X007105Y009645D01*
X007128Y009526D02*
X009074Y009526D01*
X009074Y009408D02*
X007147Y009408D01*
X007166Y009289D02*
X009074Y009289D01*
X009074Y009171D02*
X007185Y009171D01*
X007169Y009052D02*
X009074Y009052D01*
X009074Y008933D02*
X007150Y008933D01*
X007131Y008815D02*
X009108Y008815D01*
X009218Y008696D02*
X007113Y008696D01*
X007054Y008578D02*
X009161Y008578D01*
X009088Y008459D02*
X006994Y008459D01*
X006934Y008341D02*
X009074Y008341D01*
X009074Y008222D02*
X006852Y008222D01*
X006734Y008104D02*
X009074Y008104D01*
X009074Y007985D02*
X006615Y007985D01*
X006438Y007867D02*
X009074Y007867D01*
X009074Y007748D02*
X006205Y007748D01*
X005323Y007511D02*
X009074Y007511D01*
X009074Y007629D02*
X005187Y007629D01*
X005117Y007748D02*
X004249Y007748D01*
X004249Y007629D02*
X004636Y007629D01*
X004884Y007867D02*
X004249Y007867D01*
X004249Y007985D02*
X004707Y007985D01*
X004589Y008104D02*
X004249Y008104D01*
X004249Y008222D02*
X004470Y008222D01*
X004389Y008341D02*
X004249Y008341D01*
X004235Y008459D02*
X004328Y008459D01*
X004268Y008578D02*
X004161Y008578D01*
X004210Y008696D02*
X004104Y008696D01*
X002303Y008661D02*
X002204Y008620D01*
X002161Y008578D01*
X002161Y008578D01*
X002161Y008745D01*
X002204Y008702D01*
X002303Y008661D01*
X002218Y008696D02*
X002161Y008696D01*
X001161Y008696D02*
X000621Y008696D01*
X000621Y008578D02*
X001161Y008578D01*
X001161Y008459D02*
X000621Y008459D01*
X000621Y008341D02*
X001161Y008341D01*
X001161Y008222D02*
X000621Y008222D01*
X000621Y008104D02*
X001161Y008104D01*
X001161Y007985D02*
X000621Y007985D01*
X000621Y007867D02*
X001161Y007867D01*
X001161Y007748D02*
X000621Y007748D01*
X000621Y007629D02*
X001161Y007629D01*
X001161Y007511D02*
X000621Y007511D01*
X000621Y007392D02*
X001161Y007392D01*
X001161Y007274D02*
X000621Y007274D01*
X000621Y007155D02*
X001161Y007155D01*
X001161Y007037D02*
X000621Y007037D01*
X000621Y006918D02*
X001161Y006918D01*
X001161Y006800D02*
X000621Y006800D01*
X000621Y006681D02*
X001161Y006681D01*
X001161Y006563D02*
X000621Y006563D01*
X000621Y006444D02*
X001161Y006444D01*
X001161Y006326D02*
X000621Y006326D01*
X000621Y006207D02*
X001161Y006207D01*
X001161Y006088D02*
X000621Y006088D01*
X000621Y005970D02*
X001161Y005970D01*
X001161Y005851D02*
X000621Y005851D01*
X000621Y005733D02*
X001161Y005733D01*
X001161Y005614D02*
X000621Y005614D01*
X000621Y005496D02*
X001161Y005496D01*
X001161Y005377D02*
X000621Y005377D01*
X000621Y005259D02*
X001161Y005259D01*
X001161Y005140D02*
X000621Y005140D01*
X000621Y005022D02*
X001161Y005022D01*
X001161Y004903D02*
X000621Y004903D01*
X000621Y004784D02*
X001161Y004784D01*
X001161Y004666D02*
X000621Y004666D01*
X000621Y004547D02*
X001161Y004547D01*
X001161Y004429D02*
X000621Y004429D01*
X000621Y004310D02*
X001161Y004310D01*
X001161Y004192D02*
X000621Y004192D01*
X000621Y004073D02*
X001119Y004073D01*
X001000Y003955D02*
X000621Y003955D01*
X000621Y003836D02*
X000986Y003836D01*
X000986Y003718D02*
X000621Y003718D01*
X000621Y003599D02*
X000986Y003599D01*
X000986Y003480D02*
X000621Y003480D01*
X000621Y003362D02*
X001006Y003362D01*
X001125Y003243D02*
X000621Y003243D01*
X000621Y003125D02*
X001243Y003125D01*
X001362Y003006D02*
X000621Y003006D01*
X000621Y002888D02*
X004172Y002888D01*
X004191Y003006D02*
X001961Y003006D01*
X002079Y003125D02*
X004210Y003125D01*
X004267Y003243D02*
X002198Y003243D01*
X002316Y003362D02*
X004328Y003362D01*
X004388Y003480D02*
X002336Y003480D01*
X002336Y003599D02*
X004469Y003599D01*
X004587Y003718D02*
X002336Y003718D01*
X002336Y003836D02*
X004706Y003836D01*
X004882Y003955D02*
X002322Y003955D01*
X002204Y004073D02*
X005115Y004073D01*
X006208Y004073D02*
X012619Y004073D01*
X012661Y004192D02*
X002161Y004192D01*
X002161Y004310D02*
X012661Y004310D01*
X012661Y004429D02*
X002161Y004429D01*
X002161Y004547D02*
X012661Y004547D01*
X012661Y004666D02*
X002161Y004666D01*
X002161Y004784D02*
X012661Y004784D01*
X012661Y004903D02*
X002161Y004903D01*
X002161Y005022D02*
X012661Y005022D01*
X012661Y005140D02*
X002161Y005140D01*
X002161Y005259D02*
X012661Y005259D01*
X012661Y005377D02*
X002161Y005377D01*
X002161Y005496D02*
X012661Y005496D01*
X012661Y005614D02*
X002161Y005614D01*
X002161Y005733D02*
X012661Y005733D01*
X012661Y005851D02*
X002161Y005851D01*
X002161Y005970D02*
X012661Y005970D01*
X012661Y006088D02*
X002161Y006088D01*
X002161Y006207D02*
X012661Y006207D01*
X012661Y006326D02*
X002161Y006326D01*
X002161Y006444D02*
X012661Y006444D01*
X012661Y006563D02*
X011144Y006563D01*
X011228Y006681D02*
X011414Y006681D01*
X011262Y006800D02*
X011249Y006800D01*
X011908Y006681D02*
X012661Y006681D01*
X012661Y006800D02*
X012061Y006800D01*
X012143Y006918D02*
X012661Y006918D01*
X012661Y007037D02*
X012192Y007037D01*
X012199Y007155D02*
X012661Y007155D01*
X012661Y007274D02*
X012197Y007274D01*
X012148Y007392D02*
X012661Y007392D01*
X012661Y007511D02*
X012081Y007511D01*
X012081Y007629D02*
X012661Y007629D01*
X012661Y007748D02*
X012080Y007748D01*
X012031Y007867D02*
X012661Y007867D01*
X012661Y007985D02*
X011931Y007985D01*
X011899Y008017D02*
X011899Y008017D01*
X011813Y008104D02*
X012661Y008104D01*
X012661Y008222D02*
X011694Y008222D01*
X011767Y008149D02*
X011767Y008149D01*
X011249Y008341D02*
X012661Y008341D01*
X012661Y008459D02*
X011235Y008459D01*
X011161Y008578D02*
X012661Y008578D01*
X012661Y008696D02*
X011104Y008696D01*
X011215Y008815D02*
X012638Y008815D01*
X012562Y008933D02*
X011249Y008933D01*
X011249Y009052D02*
X012546Y009052D01*
X012546Y009171D02*
X011249Y009171D01*
X011249Y009289D02*
X012546Y009289D01*
X012546Y009408D02*
X011249Y009408D01*
X011249Y009526D02*
X012546Y009526D01*
X012564Y009645D02*
X011249Y009645D01*
X016161Y008745D02*
X016204Y008702D01*
X016303Y008661D01*
X016204Y008620D01*
X016161Y008578D01*
X016161Y008578D01*
X016161Y008745D01*
X016161Y008696D02*
X016218Y008696D01*
X018104Y008696D02*
X022161Y008696D01*
X022161Y008578D02*
X018161Y008578D01*
X018235Y008459D02*
X022161Y008459D01*
X022161Y008341D02*
X018249Y008341D01*
X018694Y008222D02*
X022161Y008222D01*
X022161Y008104D02*
X018980Y008104D01*
X019098Y007985D02*
X022161Y007985D01*
X022161Y007867D02*
X019159Y007867D01*
X019199Y007748D02*
X022161Y007748D01*
X022161Y007629D02*
X019199Y007629D01*
X019181Y007511D02*
X022161Y007511D01*
X022161Y007392D02*
X019132Y007392D01*
X019035Y007274D02*
X022161Y007274D01*
X022161Y007155D02*
X018846Y007155D01*
X018476Y007155D02*
X018249Y007155D01*
X018249Y007037D02*
X022161Y007037D01*
X022161Y006918D02*
X018249Y006918D01*
X018249Y006800D02*
X022161Y006800D01*
X022161Y006681D02*
X018228Y006681D01*
X018144Y006563D02*
X022161Y006563D01*
X023161Y006563D02*
X023178Y006563D01*
X023161Y006444D02*
X029161Y006444D01*
X029161Y006326D02*
X023161Y006326D01*
X023161Y006207D02*
X029161Y006207D01*
X029161Y006088D02*
X023161Y006088D01*
X023161Y005970D02*
X029161Y005970D01*
X029161Y005851D02*
X023161Y005851D01*
X023161Y005733D02*
X029161Y005733D01*
X029161Y005614D02*
X023161Y005614D01*
X023134Y005496D02*
X029161Y005496D01*
X029161Y005377D02*
X023084Y005377D01*
X022966Y005259D02*
X029161Y005259D01*
X029161Y005140D02*
X022847Y005140D01*
X022729Y005022D02*
X029161Y005022D01*
X029161Y004903D02*
X022610Y004903D01*
X022492Y004784D02*
X029161Y004784D01*
X029161Y004666D02*
X022373Y004666D01*
X022336Y004547D02*
X029167Y004547D01*
X029216Y004429D02*
X022336Y004429D01*
X022265Y004310D02*
X029305Y004310D01*
X029424Y004192D02*
X022146Y004192D01*
X020522Y003243D02*
X016198Y003243D01*
X016079Y003125D02*
X020366Y003125D01*
X020247Y003006D02*
X015961Y003006D01*
X015362Y003006D02*
X013461Y003006D01*
X013579Y003125D02*
X015243Y003125D01*
X015125Y003243D02*
X013698Y003243D01*
X013816Y003362D02*
X015006Y003362D01*
X014986Y003480D02*
X013836Y003480D01*
X013836Y003599D02*
X014986Y003599D01*
X014986Y003718D02*
X013836Y003718D01*
X013836Y003836D02*
X014986Y003836D01*
X015000Y003955D02*
X013822Y003955D01*
X013704Y004073D02*
X015119Y004073D01*
X015161Y004192D02*
X013661Y004192D01*
X013661Y004310D02*
X015161Y004310D01*
X015161Y004429D02*
X013661Y004429D01*
X013661Y004547D02*
X015161Y004547D01*
X015161Y004666D02*
X013661Y004666D01*
X013661Y004784D02*
X015161Y004784D01*
X015161Y004903D02*
X013661Y004903D01*
X013661Y005022D02*
X015161Y005022D01*
X015161Y005140D02*
X013661Y005140D01*
X013661Y005259D02*
X015161Y005259D01*
X015161Y005377D02*
X013661Y005377D01*
X013661Y005496D02*
X015161Y005496D01*
X015161Y005614D02*
X013661Y005614D01*
X013661Y005733D02*
X015161Y005733D01*
X015161Y005851D02*
X013661Y005851D01*
X013661Y005970D02*
X015161Y005970D01*
X015161Y006088D02*
X013661Y006088D01*
X013661Y006207D02*
X015161Y006207D01*
X015161Y006326D02*
X013661Y006326D01*
X013661Y006444D02*
X015161Y006444D01*
X018249Y007274D02*
X018288Y007274D01*
X023161Y008578D02*
X023161Y008745D01*
X023204Y008702D01*
X023303Y008661D01*
X023204Y008620D01*
X023161Y008578D01*
X023161Y008578D01*
X023161Y008696D02*
X023218Y008696D01*
X022138Y008815D02*
X018215Y008815D01*
X018249Y008933D02*
X022062Y008933D01*
X022046Y009052D02*
X018249Y009052D01*
X018249Y009171D02*
X022046Y009171D01*
X022046Y009289D02*
X018249Y009289D01*
X018249Y009408D02*
X022046Y009408D01*
X022046Y009526D02*
X018249Y009526D01*
X018249Y009645D02*
X022064Y009645D01*
X022046Y009763D02*
X018249Y009763D01*
X018249Y009882D02*
X022046Y009882D01*
X022046Y010000D02*
X018249Y010000D01*
X018249Y010119D02*
X022046Y010119D01*
X022046Y010237D02*
X018249Y010237D01*
X018249Y010356D02*
X022048Y010356D01*
X022105Y010475D02*
X018249Y010475D01*
X018248Y010593D02*
X023075Y010593D01*
X023130Y010712D02*
X018193Y010712D01*
X018011Y010830D02*
X023311Y010830D01*
X025011Y010830D02*
X030311Y010830D01*
X030130Y010712D02*
X025193Y010712D01*
X025248Y010593D02*
X030075Y010593D01*
X029105Y010475D02*
X025249Y010475D01*
X025249Y010356D02*
X029048Y010356D01*
X029046Y010237D02*
X025249Y010237D01*
X025249Y010119D02*
X029046Y010119D01*
X029046Y010000D02*
X025249Y010000D01*
X025249Y009882D02*
X029046Y009882D01*
X029046Y009763D02*
X025249Y009763D01*
X025249Y009645D02*
X029064Y009645D01*
X029046Y009526D02*
X025249Y009526D01*
X025249Y009408D02*
X029046Y009408D01*
X029046Y009289D02*
X025249Y009289D01*
X025249Y009171D02*
X029046Y009171D01*
X029046Y009052D02*
X025249Y009052D01*
X025249Y008933D02*
X029062Y008933D01*
X029138Y008815D02*
X025215Y008815D01*
X025104Y008696D02*
X025547Y008696D01*
X025775Y008696D02*
X029161Y008696D01*
X029161Y008578D02*
X026006Y008578D01*
X026120Y008459D02*
X029161Y008459D01*
X029161Y008341D02*
X026169Y008341D01*
X026199Y008222D02*
X029161Y008222D01*
X029161Y008104D02*
X026199Y008104D01*
X026171Y007985D02*
X029161Y007985D01*
X029161Y007867D02*
X026122Y007867D01*
X026009Y007748D02*
X029161Y007748D01*
X029161Y007629D02*
X025784Y007629D01*
X025542Y007511D02*
X029161Y007511D01*
X029161Y007392D02*
X025249Y007392D01*
X025249Y007274D02*
X029161Y007274D01*
X029161Y007155D02*
X025249Y007155D01*
X025249Y007037D02*
X029161Y007037D01*
X029161Y006918D02*
X025249Y006918D01*
X025249Y006800D02*
X029161Y006800D01*
X029161Y006681D02*
X025228Y006681D01*
X025144Y006563D02*
X029161Y006563D01*
X030161Y006563D02*
X030178Y006563D01*
X030161Y006444D02*
X034241Y006444D01*
X034241Y006326D02*
X030161Y006326D01*
X030161Y006207D02*
X034241Y006207D01*
X034241Y006088D02*
X030161Y006088D01*
X030161Y005970D02*
X034241Y005970D01*
X034241Y005851D02*
X030161Y005851D01*
X030161Y005733D02*
X034241Y005733D01*
X034241Y005614D02*
X030161Y005614D01*
X030161Y005496D02*
X034241Y005496D01*
X034241Y005377D02*
X033906Y005377D01*
X033880Y005403D02*
X033667Y005491D01*
X033156Y005491D01*
X032943Y005403D01*
X032780Y005240D01*
X032691Y005027D01*
X032691Y004796D01*
X032780Y004583D01*
X032943Y004420D01*
X032963Y004411D01*
X032943Y004403D01*
X032780Y004240D01*
X032691Y004027D01*
X032691Y003796D01*
X032780Y003583D01*
X032943Y003420D01*
X033156Y003331D01*
X033667Y003331D01*
X033880Y003420D01*
X034043Y003583D01*
X034131Y003796D01*
X034131Y004027D01*
X034043Y004240D01*
X033880Y004403D01*
X033860Y004411D01*
X033880Y004420D01*
X034043Y004583D01*
X034131Y004796D01*
X034131Y005027D01*
X034043Y005240D01*
X033880Y005403D01*
X034024Y005259D02*
X034241Y005259D01*
X034241Y005140D02*
X034084Y005140D01*
X034131Y005022D02*
X034264Y005022D01*
X034326Y004903D02*
X034131Y004903D01*
X034126Y004784D02*
X034444Y004784D01*
X034563Y004666D02*
X034077Y004666D01*
X034008Y004547D02*
X034681Y004547D01*
X034800Y004429D02*
X033889Y004429D01*
X033972Y004310D02*
X034873Y004310D01*
X034920Y004192D02*
X034063Y004192D01*
X034112Y004073D02*
X034988Y004073D01*
X035107Y003955D02*
X034131Y003955D01*
X034131Y003836D02*
X035986Y003836D01*
X035986Y003718D02*
X034099Y003718D01*
X034050Y003599D02*
X035986Y003599D01*
X035986Y003480D02*
X033941Y003480D01*
X033741Y003362D02*
X036006Y003362D01*
X036125Y003243D02*
X030698Y003243D01*
X030816Y003362D02*
X033082Y003362D01*
X032882Y003480D02*
X030935Y003480D01*
X031054Y003599D02*
X032773Y003599D01*
X032724Y003718D02*
X031086Y003718D01*
X031086Y003836D02*
X032691Y003836D01*
X032691Y003955D02*
X031086Y003955D01*
X031086Y004073D02*
X032711Y004073D01*
X032760Y004192D02*
X031085Y004192D01*
X030967Y004310D02*
X032850Y004310D01*
X032933Y004429D02*
X030848Y004429D01*
X030730Y004547D02*
X032815Y004547D01*
X032745Y004666D02*
X030364Y004666D01*
X030245Y004784D02*
X032696Y004784D01*
X032691Y004903D02*
X030161Y004903D01*
X030161Y005022D02*
X032691Y005022D01*
X032738Y005140D02*
X030161Y005140D01*
X030161Y005259D02*
X032798Y005259D01*
X032917Y005377D02*
X030161Y005377D01*
X035081Y005377D02*
X036161Y005377D01*
X036161Y005259D02*
X035158Y005259D01*
X035276Y005140D02*
X036161Y005140D01*
X036161Y005022D02*
X035395Y005022D01*
X035630Y004903D02*
X036161Y004903D01*
X036161Y004784D02*
X035799Y004784D01*
X035888Y004666D02*
X036161Y004666D01*
X036161Y004547D02*
X035937Y004547D01*
X035949Y004429D02*
X036161Y004429D01*
X036161Y004310D02*
X035949Y004310D01*
X035903Y004192D02*
X036161Y004192D01*
X036119Y004073D02*
X035834Y004073D01*
X035715Y003955D02*
X036000Y003955D01*
X041166Y002769D02*
X027562Y002769D01*
X027681Y002651D02*
X041166Y002651D01*
X041170Y002532D02*
X030745Y002532D01*
X030078Y002532D02*
X027799Y002532D01*
X027409Y002414D02*
X026729Y002414D01*
X026714Y002449D02*
X026531Y002633D01*
X026291Y002732D01*
X026031Y002732D01*
X025792Y002633D01*
X025608Y002449D01*
X025509Y002209D01*
X025509Y001597D01*
X025608Y001357D01*
X025792Y001174D01*
X026031Y001075D01*
X026291Y001075D01*
X026531Y001174D01*
X026714Y001357D01*
X026814Y001597D01*
X026814Y002209D01*
X026714Y002449D01*
X026632Y002532D02*
X027290Y002532D01*
X027172Y002651D02*
X026488Y002651D01*
X027053Y002769D02*
X020519Y002769D01*
X020401Y002651D02*
X025835Y002651D01*
X025691Y002532D02*
X020282Y002532D01*
X020164Y002414D02*
X025593Y002414D01*
X025544Y002295D02*
X020045Y002295D01*
X019926Y002176D02*
X025509Y002176D01*
X025509Y002058D02*
X019808Y002058D01*
X019689Y001939D02*
X025509Y001939D01*
X025509Y001821D02*
X006923Y001821D01*
X006832Y001702D02*
X025509Y001702D01*
X025514Y001584D02*
X006714Y001584D01*
X006595Y001465D02*
X025563Y001465D01*
X025619Y001347D02*
X006399Y001347D01*
X006166Y001228D02*
X025737Y001228D01*
X025947Y001110D02*
X000621Y001110D01*
X000621Y001228D02*
X005156Y001228D01*
X004924Y001347D02*
X000621Y001347D01*
X000621Y001465D02*
X004727Y001465D01*
X004609Y001584D02*
X000621Y001584D01*
X000621Y001702D02*
X004490Y001702D01*
X004399Y001821D02*
X000621Y001821D01*
X000621Y002295D02*
X001340Y002295D01*
X000621Y002414D02*
X004175Y002414D01*
X004157Y002532D02*
X000621Y002532D01*
X000621Y002651D02*
X004138Y002651D01*
X004153Y002769D02*
X000621Y002769D01*
X002080Y002295D02*
X004194Y002295D01*
X007128Y002295D02*
X012841Y002295D01*
X013482Y002295D02*
X015341Y002295D01*
X015982Y002295D02*
X019536Y002295D01*
X019654Y002414D02*
X007147Y002414D01*
X007166Y002532D02*
X019773Y002532D01*
X019892Y002651D02*
X007185Y002651D01*
X007169Y002769D02*
X020010Y002769D01*
X020129Y002888D02*
X007150Y002888D01*
X007132Y003006D02*
X012862Y003006D01*
X012743Y003125D02*
X007113Y003125D01*
X007055Y003243D02*
X012625Y003243D01*
X012506Y003362D02*
X006995Y003362D01*
X006934Y003480D02*
X012486Y003480D01*
X012486Y003599D02*
X006854Y003599D01*
X006735Y003718D02*
X012486Y003718D01*
X012486Y003836D02*
X006616Y003836D01*
X006440Y003955D02*
X012500Y003955D01*
X020638Y002888D02*
X026935Y002888D01*
X026778Y002295D02*
X027480Y002295D01*
X027477Y002176D02*
X026814Y002176D01*
X026814Y002058D02*
X027477Y002058D01*
X027477Y001939D02*
X026814Y001939D01*
X026814Y001821D02*
X027477Y001821D01*
X027477Y001702D02*
X026814Y001702D01*
X026808Y001584D02*
X027483Y001584D01*
X027532Y001465D02*
X026759Y001465D01*
X026704Y001347D02*
X027587Y001347D01*
X027706Y001228D02*
X026585Y001228D01*
X026376Y001110D02*
X027915Y001110D01*
X028344Y001110D02*
X059943Y001110D01*
X059943Y001228D02*
X049416Y001228D01*
X048406Y001228D02*
X028554Y001228D01*
X028782Y001821D02*
X040252Y001821D01*
X040405Y002176D02*
X041404Y002176D01*
X041285Y002295D02*
X036982Y002295D01*
X036341Y002295D02*
X036287Y002295D01*
X036168Y002414D02*
X041219Y002414D01*
X042419Y002176D02*
X043238Y002176D01*
X043105Y002295D02*
X042538Y002295D01*
X042603Y002414D02*
X043028Y002414D01*
X042979Y002532D02*
X042652Y002532D01*
X042656Y002651D02*
X042971Y002651D01*
X042971Y002769D02*
X042656Y002769D01*
X042612Y002888D02*
X043019Y002888D01*
X043084Y003006D02*
X042559Y003006D01*
X042440Y003125D02*
X043203Y003125D01*
X043157Y003243D02*
X042486Y003243D01*
X042582Y003362D02*
X043049Y003362D01*
X043000Y003480D02*
X042631Y003480D01*
X042656Y003599D02*
X042971Y003599D01*
X042971Y003718D02*
X042656Y003718D01*
X042633Y003836D02*
X042998Y003836D01*
X043047Y003955D02*
X042584Y003955D01*
X042492Y004073D02*
X043151Y004073D01*
X043209Y004192D02*
X042434Y004192D01*
X042553Y004310D02*
X043090Y004310D01*
X043021Y004429D02*
X042609Y004429D01*
X042656Y004547D02*
X042972Y004547D01*
X042971Y004666D02*
X042656Y004666D01*
X042655Y004784D02*
X042976Y004784D01*
X043025Y004903D02*
X042606Y004903D01*
X042543Y005022D02*
X043100Y005022D01*
X043224Y005140D02*
X042425Y005140D01*
X042501Y005259D02*
X043142Y005259D01*
X043043Y005377D02*
X042588Y005377D01*
X042637Y005496D02*
X042994Y005496D01*
X042971Y005614D02*
X042656Y005614D01*
X042656Y005733D02*
X042971Y005733D01*
X043004Y005851D02*
X042627Y005851D01*
X042578Y005970D02*
X043053Y005970D01*
X043166Y006088D02*
X042477Y006088D01*
X042449Y006207D02*
X043194Y006207D01*
X044129Y006207D02*
X044590Y006207D01*
X044546Y006088D02*
X044156Y006088D01*
X044270Y005970D02*
X044546Y005970D01*
X044546Y005851D02*
X044319Y005851D01*
X044351Y005733D02*
X044546Y005733D01*
X044546Y005614D02*
X044351Y005614D01*
X044329Y005496D02*
X044546Y005496D01*
X044556Y005377D02*
X044280Y005377D01*
X044181Y005259D02*
X044546Y005259D01*
X044546Y005140D02*
X044099Y005140D01*
X044223Y005022D02*
X044546Y005022D01*
X044546Y004903D02*
X044297Y004903D01*
X044346Y004784D02*
X044546Y004784D01*
X044569Y004666D02*
X044351Y004666D01*
X044350Y004547D02*
X044656Y004547D01*
X044661Y004429D02*
X044301Y004429D01*
X044232Y004310D02*
X044661Y004310D01*
X044661Y004192D02*
X044114Y004192D01*
X044171Y004073D02*
X044619Y004073D01*
X044500Y003955D02*
X044276Y003955D01*
X044325Y003836D02*
X044486Y003836D01*
X044486Y003718D02*
X044351Y003718D01*
X044351Y003599D02*
X044486Y003599D01*
X044486Y003480D02*
X044322Y003480D01*
X044273Y003362D02*
X044506Y003362D01*
X044625Y003243D02*
X044165Y003243D01*
X044120Y003125D02*
X044743Y003125D01*
X049458Y004073D02*
X055369Y004073D01*
X055250Y003955D02*
X049690Y003955D01*
X049866Y003836D02*
X055236Y003836D01*
X055236Y003718D02*
X049985Y003718D01*
X050104Y003599D02*
X055236Y003599D01*
X055236Y003480D02*
X050184Y003480D01*
X050245Y003362D02*
X055256Y003362D01*
X055375Y003243D02*
X050305Y003243D01*
X050363Y003125D02*
X055493Y003125D01*
X055612Y003006D02*
X050382Y003006D01*
X056211Y003006D02*
X058612Y003006D01*
X058493Y003125D02*
X056329Y003125D01*
X056448Y003243D02*
X058375Y003243D01*
X058256Y003362D02*
X056566Y003362D01*
X056586Y003480D02*
X058236Y003480D01*
X058236Y003599D02*
X056586Y003599D01*
X056586Y003718D02*
X058236Y003718D01*
X058236Y003836D02*
X056586Y003836D01*
X056572Y003955D02*
X058250Y003955D01*
X058369Y004073D02*
X056454Y004073D01*
X056411Y004192D02*
X058411Y004192D01*
X058305Y004310D02*
X056411Y004310D01*
X056411Y004429D02*
X058187Y004429D01*
X058068Y004547D02*
X056396Y004547D01*
X056347Y004666D02*
X057949Y004666D01*
X057831Y004784D02*
X056245Y004784D01*
X056127Y004903D02*
X057712Y004903D01*
X057594Y005022D02*
X056008Y005022D01*
X055889Y005140D02*
X057475Y005140D01*
X057357Y005259D02*
X055771Y005259D01*
X055652Y005377D02*
X057238Y005377D01*
X054712Y004903D02*
X052699Y004903D01*
X052698Y005022D02*
X054594Y005022D01*
X054475Y005140D02*
X052649Y005140D01*
X052581Y005259D02*
X054357Y005259D01*
X054238Y005377D02*
X052581Y005377D01*
X052581Y005496D02*
X054120Y005496D01*
X054001Y005614D02*
X052581Y005614D01*
X052581Y005733D02*
X053883Y005733D01*
X053764Y005851D02*
X052581Y005851D01*
X052581Y005970D02*
X053646Y005970D01*
X053527Y006088D02*
X052581Y006088D01*
X052581Y006207D02*
X053408Y006207D01*
X053290Y006326D02*
X052581Y006326D01*
X052581Y006444D02*
X053210Y006444D01*
X053161Y006563D02*
X053144Y006563D01*
X052161Y007161D02*
X052161Y007579D01*
X048134Y007867D02*
X047661Y007867D01*
X047661Y007985D02*
X047957Y007985D01*
X047839Y008104D02*
X047661Y008104D01*
X047661Y008222D02*
X047720Y008222D01*
X044074Y008172D02*
X044047Y008161D01*
X044074Y008150D01*
X044074Y008172D01*
X043275Y008161D02*
X043214Y008136D01*
X043099Y008021D01*
X042544Y008021D01*
X042404Y008161D01*
X042544Y008301D01*
X043099Y008301D01*
X043214Y008186D01*
X043275Y008161D01*
X043182Y008104D02*
X042461Y008104D01*
X042465Y008222D02*
X043178Y008222D01*
X043661Y008661D02*
X041911Y008661D01*
X042404Y009161D02*
X042544Y009021D01*
X043099Y009021D01*
X043214Y009136D01*
X043275Y009161D01*
X043214Y009186D01*
X043099Y009301D01*
X042544Y009301D01*
X042404Y009161D01*
X042413Y009171D02*
X043253Y009171D01*
X043130Y009052D02*
X042513Y009052D01*
X042532Y009289D02*
X043111Y009289D01*
X044047Y009161D02*
X044074Y009172D01*
X044074Y009150D01*
X044047Y009161D01*
X044070Y009171D02*
X044074Y009171D01*
X037303Y008661D02*
X037204Y008620D01*
X037161Y008578D01*
X037161Y008578D01*
X037161Y008745D01*
X037204Y008702D01*
X037303Y008661D01*
X037218Y008696D02*
X037161Y008696D01*
X036161Y008696D02*
X035081Y008696D01*
X035081Y008578D02*
X036161Y008578D01*
X036161Y008459D02*
X035081Y008459D01*
X035081Y008341D02*
X036161Y008341D01*
X036161Y008222D02*
X035081Y008222D01*
X035081Y008104D02*
X036161Y008104D01*
X036161Y007985D02*
X035081Y007985D01*
X035081Y007867D02*
X036161Y007867D01*
X036161Y007748D02*
X035081Y007748D01*
X035081Y007629D02*
X036161Y007629D01*
X036161Y007511D02*
X035081Y007511D01*
X035081Y007392D02*
X036161Y007392D01*
X036161Y007274D02*
X035081Y007274D01*
X035081Y007155D02*
X036161Y007155D01*
X036161Y007037D02*
X035081Y007037D01*
X035081Y006918D02*
X036161Y006918D01*
X036161Y006800D02*
X035081Y006800D01*
X035081Y006681D02*
X036161Y006681D01*
X036161Y006563D02*
X035081Y006563D01*
X035081Y006444D02*
X036161Y006444D01*
X036161Y006326D02*
X035081Y006326D01*
X035081Y006207D02*
X036161Y006207D01*
X036161Y006088D02*
X035081Y006088D01*
X035081Y005970D02*
X036161Y005970D01*
X036161Y005851D02*
X035081Y005851D01*
X035081Y005733D02*
X036161Y005733D01*
X036161Y005614D02*
X035081Y005614D01*
X035081Y005496D02*
X036161Y005496D01*
X037161Y006563D02*
X037178Y006563D01*
X034241Y006563D02*
X032144Y006563D01*
X032228Y006681D02*
X034241Y006681D01*
X034241Y006800D02*
X032249Y006800D01*
X032249Y006918D02*
X034241Y006918D01*
X034241Y007037D02*
X032249Y007037D01*
X032249Y007155D02*
X034241Y007155D01*
X034241Y007274D02*
X032249Y007274D01*
X032249Y007392D02*
X034241Y007392D01*
X034241Y007511D02*
X032249Y007511D01*
X032249Y007629D02*
X034241Y007629D01*
X034241Y007748D02*
X032511Y007748D01*
X032711Y007867D02*
X034241Y007867D01*
X034241Y007985D02*
X032829Y007985D01*
X032948Y008104D02*
X034241Y008104D01*
X034241Y008222D02*
X033038Y008222D01*
X033081Y008341D02*
X034241Y008341D01*
X034241Y008459D02*
X033081Y008459D01*
X033081Y008578D02*
X034241Y008578D01*
X034241Y008696D02*
X033081Y008696D01*
X033081Y008815D02*
X034241Y008815D01*
X034241Y008933D02*
X033149Y008933D01*
X033198Y009052D02*
X034241Y009052D01*
X034241Y009171D02*
X033199Y009171D01*
X033191Y009289D02*
X034189Y009289D01*
X033971Y009408D02*
X033142Y009408D01*
X033057Y009526D02*
X033785Y009526D01*
X033689Y009645D02*
X032900Y009645D01*
X032422Y009645D02*
X032249Y009645D01*
X032249Y009763D02*
X033640Y009763D01*
X033623Y009882D02*
X032249Y009882D01*
X032249Y010000D02*
X033623Y010000D01*
X033665Y010119D02*
X032249Y010119D01*
X032249Y010237D02*
X032324Y010237D01*
X032966Y010205D02*
X033117Y010356D01*
X033166Y010475D02*
X036105Y010475D01*
X036048Y010356D02*
X034477Y010356D01*
X034596Y010237D02*
X036046Y010237D01*
X036046Y010119D02*
X034658Y010119D01*
X034699Y010000D02*
X036046Y010000D01*
X036046Y009882D02*
X034785Y009882D01*
X034903Y009763D02*
X036046Y009763D01*
X036064Y009645D02*
X035019Y009645D01*
X035068Y009526D02*
X036046Y009526D01*
X036046Y009408D02*
X035081Y009408D01*
X035081Y009289D02*
X036046Y009289D01*
X036046Y009171D02*
X035081Y009171D01*
X035081Y009052D02*
X036046Y009052D01*
X036062Y008933D02*
X035081Y008933D01*
X035081Y008815D02*
X036138Y008815D01*
X032241Y008820D02*
X032241Y008585D01*
X032237Y008581D01*
X032158Y008581D01*
X032119Y008620D01*
X032020Y008661D01*
X032119Y008702D01*
X032203Y008787D01*
X032224Y008838D01*
X032241Y008820D01*
X032241Y008815D02*
X032215Y008815D01*
X032241Y008696D02*
X032104Y008696D01*
X030303Y008661D02*
X030204Y008620D01*
X030161Y008578D01*
X030161Y008578D01*
X030161Y008745D01*
X030204Y008702D01*
X030303Y008661D01*
X030218Y008696D02*
X030161Y008696D01*
X032249Y009526D02*
X032265Y009526D01*
X032149Y010830D02*
X032011Y010830D01*
X032198Y010949D02*
X000621Y010949D01*
X000621Y011067D02*
X032306Y011067D01*
X032521Y011186D02*
X000621Y011186D01*
X000621Y010830D02*
X002311Y010830D01*
X002130Y010712D02*
X000621Y010712D01*
X000621Y010593D02*
X002075Y010593D01*
X001105Y010475D02*
X000621Y010475D01*
X000621Y010356D02*
X001048Y010356D01*
X001046Y010237D02*
X000621Y010237D01*
X000621Y010119D02*
X001046Y010119D01*
X001046Y010000D02*
X000621Y010000D01*
X000621Y009882D02*
X001046Y009882D01*
X001046Y009763D02*
X000621Y009763D01*
X000621Y009645D02*
X001064Y009645D01*
X001046Y009526D02*
X000621Y009526D01*
X000621Y009408D02*
X001046Y009408D01*
X001046Y009289D02*
X000621Y009289D01*
X000621Y009171D02*
X001046Y009171D01*
X001046Y009052D02*
X000621Y009052D01*
X000621Y008933D02*
X001062Y008933D01*
X001138Y008815D02*
X000621Y008815D01*
X004249Y009763D02*
X004278Y009763D01*
X004249Y009882D02*
X004338Y009882D01*
X004398Y010000D02*
X004249Y010000D01*
X004249Y010119D02*
X004489Y010119D01*
X004607Y010237D02*
X004249Y010237D01*
X004249Y010356D02*
X004726Y010356D01*
X004921Y010475D02*
X004249Y010475D01*
X004248Y010593D02*
X005154Y010593D01*
X005398Y007392D02*
X009074Y007392D01*
X009074Y007274D02*
X005447Y007274D01*
X005449Y007155D02*
X009074Y007155D01*
X009074Y007037D02*
X005442Y007037D01*
X005393Y006918D02*
X009074Y006918D01*
X009074Y006800D02*
X005311Y006800D01*
X005158Y006681D02*
X009095Y006681D01*
X009178Y006563D02*
X004144Y006563D01*
X004228Y006681D02*
X004664Y006681D01*
X002178Y006563D02*
X002161Y006563D01*
X025161Y008578D02*
X025317Y008578D01*
X041911Y007661D02*
X043661Y007661D01*
X044911Y007161D02*
X045161Y007411D01*
X043661Y006661D02*
X041911Y006661D01*
X044247Y006326D02*
X044749Y006326D01*
X044850Y006444D02*
X044307Y006444D01*
X045776Y005741D02*
X046078Y005741D01*
X046245Y005741D01*
X046312Y005769D01*
X045948Y005406D01*
X045856Y005367D01*
X045776Y005287D01*
X045776Y005353D01*
X045752Y005411D01*
X045776Y005470D01*
X045776Y005741D01*
X045776Y005733D02*
X046276Y005733D01*
X046157Y005614D02*
X045776Y005614D01*
X045776Y005496D02*
X046039Y005496D01*
X045880Y005377D02*
X045766Y005377D01*
X052403Y004429D02*
X055187Y004429D01*
X055068Y004547D02*
X052558Y004547D01*
X052642Y004666D02*
X054949Y004666D01*
X054831Y004784D02*
X052691Y004784D01*
X057911Y006563D02*
X057928Y006563D01*
X059943Y008545D02*
X059869Y008620D01*
X059770Y008661D01*
X059869Y008702D01*
X059943Y008777D01*
X059943Y008545D01*
X059943Y008578D02*
X059911Y008578D01*
X059943Y008696D02*
X059854Y008696D01*
X058053Y008661D02*
X057954Y008620D01*
X057911Y008578D01*
X057911Y008578D01*
X057911Y008745D01*
X057954Y008702D01*
X058053Y008661D01*
X057968Y008696D02*
X057911Y008696D01*
X053161Y008696D02*
X053104Y008696D01*
X053119Y008702D02*
X053161Y008745D01*
X053161Y008578D01*
X053161Y008578D01*
X053119Y008620D01*
X053020Y008661D01*
X053119Y008702D01*
X036015Y002058D02*
X028782Y002058D01*
X028782Y001939D02*
X036133Y001939D01*
X059943Y000991D02*
X000621Y000991D01*
X000621Y000873D02*
X059943Y000873D01*
X059943Y000754D02*
X000621Y000754D01*
X000621Y000635D02*
X059943Y000635D01*
D19*
X046161Y001661D03*
X035411Y004411D03*
X037911Y006161D03*
X046161Y004911D03*
X052161Y004911D03*
X058911Y005661D03*
X039911Y010411D03*
X034161Y009911D03*
X032661Y009161D03*
X025661Y008161D03*
X018661Y007661D03*
X011661Y007161D03*
X004911Y007161D03*
X032661Y010661D03*
X047161Y010661D03*
D20*
X028161Y003161D02*
X028130Y003130D01*
X028130Y001903D01*
X002411Y001161D02*
X001911Y001661D01*
X001661Y001661D01*
D21*
X001661Y003661D02*
X001661Y009287D01*
X013161Y009287D02*
X013161Y003661D01*
X015661Y003661D02*
X015661Y009287D01*
X022661Y009287D02*
X022661Y005661D01*
X021661Y004661D01*
X029661Y004661D02*
X029661Y009287D01*
X036661Y009287D02*
X036661Y003661D01*
X030411Y003911D02*
X029661Y004661D01*
X024193Y001903D02*
X024169Y001903D01*
X045161Y003661D02*
X045161Y005037D01*
X046161Y004911D02*
X047161Y005911D01*
X047161Y010661D01*
X053661Y009287D02*
X053661Y006661D01*
X055911Y004411D01*
X055911Y003661D01*
X058911Y003661D02*
X058911Y004411D01*
X057411Y005911D01*
X057411Y009287D01*
X045161Y007579D02*
X045161Y007411D01*
D22*
X046161Y006161D02*
X046411Y006411D01*
X046411Y009911D01*
X046161Y010161D01*
X045161Y010161D01*
X045161Y009744D01*
X039411Y010911D02*
X039411Y007911D01*
X038161Y007911D01*
X038161Y007579D01*
X032661Y008411D02*
X032411Y008161D01*
X031411Y008161D01*
X031161Y007911D01*
X031161Y007579D01*
X032661Y008411D02*
X032661Y009161D01*
X034161Y009911D02*
X034661Y009411D01*
X034661Y005161D01*
X035411Y004411D01*
X045161Y005785D02*
X045161Y006161D01*
X046161Y006161D01*
X052161Y007161D02*
X052161Y004911D01*
X058911Y005661D02*
X058911Y007579D01*
X058911Y009744D02*
X058911Y010161D01*
X057537Y010161D01*
X057411Y010035D01*
X053661Y010035D02*
X053661Y010161D01*
X052161Y010161D01*
X052161Y009744D01*
X052161Y010161D02*
X051787Y010161D01*
X039411Y010911D02*
X032911Y010911D01*
X032661Y010661D01*
X031161Y010161D02*
X029787Y010161D01*
X029661Y010035D01*
X031161Y010161D02*
X031161Y009744D01*
X036661Y010035D02*
X036787Y010161D01*
X038161Y010161D01*
X038161Y009744D01*
X025661Y008161D02*
X025411Y007911D01*
X024161Y007911D01*
X024161Y007579D01*
X018661Y007661D02*
X018411Y007911D01*
X017161Y007911D01*
X017161Y007579D01*
X011661Y007661D02*
X011661Y007161D01*
X010161Y007579D02*
X010161Y007911D01*
X011411Y007911D01*
X011661Y007661D01*
X004911Y007161D02*
X003579Y007161D01*
X003161Y007579D01*
X003161Y009661D02*
X003161Y009744D01*
X003161Y010161D01*
X001787Y010161D01*
X001661Y010035D01*
X010161Y010161D02*
X010161Y009744D01*
X010161Y009661D01*
X010161Y010161D02*
X013161Y010161D01*
X013161Y010035D01*
X015661Y010035D02*
X015787Y010161D01*
X017161Y010161D01*
X017161Y009744D01*
X022661Y010035D02*
X022787Y010161D01*
X024161Y010161D01*
X024161Y009744D01*
D23*
X039911Y010411D02*
X039911Y007661D01*
X040411Y007161D01*
X044911Y007161D01*
M02*
