%
M48
M72
T01C0.0320
T02C0.0354
T03C0.0400
T04C0.0440
T05C0.1300
%
T01
X1930Y3680
X4930Y3680
X4930Y5430
X1930Y5430
X11930Y5430
X14930Y5430
X14930Y3680
X11930Y3680
X21180Y5180
X24180Y5180
X24930Y3680
X21930Y3680
X30930Y5430
X33930Y5430
X34930Y3680
X31930Y3680
X39680Y3680
X40430Y4680
X42680Y3680
X40430Y7680
X40180Y13680
X40180Y14680
X43180Y13680
X40180Y17680
X33930Y15430
X30930Y15430
X30930Y13680
X33930Y13680
X24930Y13680
X21930Y13680
X20930Y15430
X23930Y15430
X14930Y15430
X11930Y15430
X11930Y13680
X14930Y13680
X4930Y13680
X1930Y13680
X1930Y15430
X4930Y15430
T02
X1930Y1680
X1930Y2680
X1930Y6680
X1930Y7680
X1930Y11680
X1930Y12680
X1930Y16680
X1930Y17680
X11930Y17680
X11930Y16680
X11930Y12680
X11930Y11680
X11930Y7680
X11930Y6680
X11930Y2680
X11930Y1680
X21930Y1680
X21930Y2680
X21930Y6680
X21930Y7680
X21930Y11680
X21930Y12680
X21930Y16680
X21930Y17680
X31930Y17680
X31930Y16680
X31930Y12680
X31930Y11680
X31930Y7680
X31930Y6680
X31930Y2680
X31930Y1680
X41930Y1680
X41930Y2680
X41930Y6680
X41930Y7680
X41930Y11680
X41930Y12680
X41930Y16680
X41930Y17680
T03
X41930Y9680
X40930Y9680
X39930Y9680
X38930Y9680
X42930Y9680
X34430Y9680
X33430Y9680
X32430Y9680
X31430Y9680
X30430Y9680
X24430Y9680
X23430Y9680
X22430Y9680
X21430Y9680
X20430Y9680
X14430Y9680
X13430Y9680
X12430Y9680
X11430Y9680
X10430Y9680
X5430Y9680
X4430Y9680
X3430Y9680
X2430Y9680
X1430Y9680
T04
X5930Y17930
X9680Y17930
X25680Y17930
X27680Y17930
X36430Y17930
X36430Y930
X27680Y930
X25680Y930
X9680Y930
X5930Y930
T05
X7930Y4180
X7930Y14680
X36930Y14680
X36930Y4180
M30
