G75*
G70*
%OFA0B0*%
%FSLAX24Y24*%
%IPPOS*%
%LPD*%
%AMOC8*
5,1,8,0,0,1.08239X$1,22.5*
%
%ADD10C,0.0000*%
%ADD11R,0.0880X0.0340*%
%ADD12OC8,0.0900*%
%ADD13C,0.0672*%
%ADD14C,0.1560*%
%ADD15C,0.0624*%
%ADD16C,0.0846*%
%ADD17C,0.0712*%
D10*
X000161Y000161D02*
X000161Y011661D01*
X060403Y011661D01*
X060403Y000161D01*
X000161Y000161D01*
X005011Y002661D02*
X005013Y002711D01*
X005019Y002761D01*
X005029Y002811D01*
X005042Y002859D01*
X005059Y002907D01*
X005080Y002953D01*
X005104Y002997D01*
X005132Y003039D01*
X005163Y003079D01*
X005197Y003116D01*
X005234Y003151D01*
X005273Y003182D01*
X005314Y003211D01*
X005358Y003236D01*
X005404Y003258D01*
X005451Y003276D01*
X005499Y003290D01*
X005548Y003301D01*
X005598Y003308D01*
X005648Y003311D01*
X005699Y003310D01*
X005749Y003305D01*
X005799Y003296D01*
X005847Y003284D01*
X005895Y003267D01*
X005941Y003247D01*
X005986Y003224D01*
X006029Y003197D01*
X006069Y003167D01*
X006107Y003134D01*
X006142Y003098D01*
X006175Y003059D01*
X006204Y003018D01*
X006230Y002975D01*
X006253Y002930D01*
X006272Y002883D01*
X006287Y002835D01*
X006299Y002786D01*
X006307Y002736D01*
X006311Y002686D01*
X006311Y002636D01*
X006307Y002586D01*
X006299Y002536D01*
X006287Y002487D01*
X006272Y002439D01*
X006253Y002392D01*
X006230Y002347D01*
X006204Y002304D01*
X006175Y002263D01*
X006142Y002224D01*
X006107Y002188D01*
X006069Y002155D01*
X006029Y002125D01*
X005986Y002098D01*
X005941Y002075D01*
X005895Y002055D01*
X005847Y002038D01*
X005799Y002026D01*
X005749Y002017D01*
X005699Y002012D01*
X005648Y002011D01*
X005598Y002014D01*
X005548Y002021D01*
X005499Y002032D01*
X005451Y002046D01*
X005404Y002064D01*
X005358Y002086D01*
X005314Y002111D01*
X005273Y002140D01*
X005234Y002171D01*
X005197Y002206D01*
X005163Y002243D01*
X005132Y002283D01*
X005104Y002325D01*
X005080Y002369D01*
X005059Y002415D01*
X005042Y002463D01*
X005029Y002511D01*
X005019Y002561D01*
X005013Y002611D01*
X005011Y002661D01*
X005011Y009161D02*
X005013Y009211D01*
X005019Y009261D01*
X005029Y009311D01*
X005042Y009359D01*
X005059Y009407D01*
X005080Y009453D01*
X005104Y009497D01*
X005132Y009539D01*
X005163Y009579D01*
X005197Y009616D01*
X005234Y009651D01*
X005273Y009682D01*
X005314Y009711D01*
X005358Y009736D01*
X005404Y009758D01*
X005451Y009776D01*
X005499Y009790D01*
X005548Y009801D01*
X005598Y009808D01*
X005648Y009811D01*
X005699Y009810D01*
X005749Y009805D01*
X005799Y009796D01*
X005847Y009784D01*
X005895Y009767D01*
X005941Y009747D01*
X005986Y009724D01*
X006029Y009697D01*
X006069Y009667D01*
X006107Y009634D01*
X006142Y009598D01*
X006175Y009559D01*
X006204Y009518D01*
X006230Y009475D01*
X006253Y009430D01*
X006272Y009383D01*
X006287Y009335D01*
X006299Y009286D01*
X006307Y009236D01*
X006311Y009186D01*
X006311Y009136D01*
X006307Y009086D01*
X006299Y009036D01*
X006287Y008987D01*
X006272Y008939D01*
X006253Y008892D01*
X006230Y008847D01*
X006204Y008804D01*
X006175Y008763D01*
X006142Y008724D01*
X006107Y008688D01*
X006069Y008655D01*
X006029Y008625D01*
X005986Y008598D01*
X005941Y008575D01*
X005895Y008555D01*
X005847Y008538D01*
X005799Y008526D01*
X005749Y008517D01*
X005699Y008512D01*
X005648Y008511D01*
X005598Y008514D01*
X005548Y008521D01*
X005499Y008532D01*
X005451Y008546D01*
X005404Y008564D01*
X005358Y008586D01*
X005314Y008611D01*
X005273Y008640D01*
X005234Y008671D01*
X005197Y008706D01*
X005163Y008743D01*
X005132Y008783D01*
X005104Y008825D01*
X005080Y008869D01*
X005059Y008915D01*
X005042Y008963D01*
X005029Y009011D01*
X005019Y009061D01*
X005013Y009111D01*
X005011Y009161D01*
X048261Y009161D02*
X048263Y009211D01*
X048269Y009261D01*
X048279Y009311D01*
X048292Y009359D01*
X048309Y009407D01*
X048330Y009453D01*
X048354Y009497D01*
X048382Y009539D01*
X048413Y009579D01*
X048447Y009616D01*
X048484Y009651D01*
X048523Y009682D01*
X048564Y009711D01*
X048608Y009736D01*
X048654Y009758D01*
X048701Y009776D01*
X048749Y009790D01*
X048798Y009801D01*
X048848Y009808D01*
X048898Y009811D01*
X048949Y009810D01*
X048999Y009805D01*
X049049Y009796D01*
X049097Y009784D01*
X049145Y009767D01*
X049191Y009747D01*
X049236Y009724D01*
X049279Y009697D01*
X049319Y009667D01*
X049357Y009634D01*
X049392Y009598D01*
X049425Y009559D01*
X049454Y009518D01*
X049480Y009475D01*
X049503Y009430D01*
X049522Y009383D01*
X049537Y009335D01*
X049549Y009286D01*
X049557Y009236D01*
X049561Y009186D01*
X049561Y009136D01*
X049557Y009086D01*
X049549Y009036D01*
X049537Y008987D01*
X049522Y008939D01*
X049503Y008892D01*
X049480Y008847D01*
X049454Y008804D01*
X049425Y008763D01*
X049392Y008724D01*
X049357Y008688D01*
X049319Y008655D01*
X049279Y008625D01*
X049236Y008598D01*
X049191Y008575D01*
X049145Y008555D01*
X049097Y008538D01*
X049049Y008526D01*
X048999Y008517D01*
X048949Y008512D01*
X048898Y008511D01*
X048848Y008514D01*
X048798Y008521D01*
X048749Y008532D01*
X048701Y008546D01*
X048654Y008564D01*
X048608Y008586D01*
X048564Y008611D01*
X048523Y008640D01*
X048484Y008671D01*
X048447Y008706D01*
X048413Y008743D01*
X048382Y008783D01*
X048354Y008825D01*
X048330Y008869D01*
X048309Y008915D01*
X048292Y008963D01*
X048279Y009011D01*
X048269Y009061D01*
X048263Y009111D01*
X048261Y009161D01*
X048261Y002661D02*
X048263Y002711D01*
X048269Y002761D01*
X048279Y002811D01*
X048292Y002859D01*
X048309Y002907D01*
X048330Y002953D01*
X048354Y002997D01*
X048382Y003039D01*
X048413Y003079D01*
X048447Y003116D01*
X048484Y003151D01*
X048523Y003182D01*
X048564Y003211D01*
X048608Y003236D01*
X048654Y003258D01*
X048701Y003276D01*
X048749Y003290D01*
X048798Y003301D01*
X048848Y003308D01*
X048898Y003311D01*
X048949Y003310D01*
X048999Y003305D01*
X049049Y003296D01*
X049097Y003284D01*
X049145Y003267D01*
X049191Y003247D01*
X049236Y003224D01*
X049279Y003197D01*
X049319Y003167D01*
X049357Y003134D01*
X049392Y003098D01*
X049425Y003059D01*
X049454Y003018D01*
X049480Y002975D01*
X049503Y002930D01*
X049522Y002883D01*
X049537Y002835D01*
X049549Y002786D01*
X049557Y002736D01*
X049561Y002686D01*
X049561Y002636D01*
X049557Y002586D01*
X049549Y002536D01*
X049537Y002487D01*
X049522Y002439D01*
X049503Y002392D01*
X049480Y002347D01*
X049454Y002304D01*
X049425Y002263D01*
X049392Y002224D01*
X049357Y002188D01*
X049319Y002155D01*
X049279Y002125D01*
X049236Y002098D01*
X049191Y002075D01*
X049145Y002055D01*
X049097Y002038D01*
X049049Y002026D01*
X048999Y002017D01*
X048949Y002012D01*
X048898Y002011D01*
X048848Y002014D01*
X048798Y002021D01*
X048749Y002032D01*
X048701Y002046D01*
X048654Y002064D01*
X048608Y002086D01*
X048564Y002111D01*
X048523Y002140D01*
X048484Y002171D01*
X048447Y002206D01*
X048413Y002243D01*
X048382Y002283D01*
X048354Y002325D01*
X048330Y002369D01*
X048309Y002415D01*
X048292Y002463D01*
X048279Y002511D01*
X048269Y002561D01*
X048263Y002611D01*
X048261Y002661D01*
D11*
X039141Y005411D03*
X039141Y005911D03*
X039141Y006411D03*
X039141Y006911D03*
X039141Y007411D03*
X039141Y007911D03*
X039141Y008411D03*
X039141Y008911D03*
X039141Y009411D03*
X039141Y009911D03*
X035181Y009911D03*
X035181Y009411D03*
X035181Y008911D03*
X035181Y008411D03*
X035181Y007911D03*
X035181Y007411D03*
X035181Y006911D03*
X035181Y006411D03*
X035181Y005911D03*
X035181Y005411D03*
D12*
X030411Y003911D03*
X030411Y002911D03*
X030411Y001911D03*
X036661Y001661D03*
X036661Y002661D03*
X036661Y003661D03*
X045161Y003661D03*
X045161Y002661D03*
X045161Y001661D03*
X055911Y001661D03*
X058911Y001661D03*
X058911Y002661D03*
X055911Y002661D03*
X055911Y003661D03*
X058911Y003661D03*
X021661Y003661D03*
X021661Y002661D03*
X015661Y002661D03*
X013161Y002661D03*
X013161Y003661D03*
X015661Y003661D03*
X021661Y004661D03*
X015661Y001661D03*
X013161Y001661D03*
X001661Y001661D03*
X001661Y002661D03*
X001661Y003661D03*
D13*
X033271Y003911D02*
X033551Y003911D01*
X033551Y002911D02*
X033271Y002911D01*
X033271Y004911D02*
X033551Y004911D01*
D14*
X048911Y002661D03*
X048911Y009161D03*
X005661Y009161D03*
X005661Y002661D03*
D15*
X043531Y002661D02*
X043791Y002661D01*
X043791Y003661D02*
X043531Y003661D01*
X043531Y004661D02*
X043791Y004661D01*
X043791Y005661D02*
X043531Y005661D01*
X043531Y006661D02*
X043791Y006661D01*
X043791Y007661D02*
X043531Y007661D01*
X043531Y008661D02*
X043791Y008661D01*
X043791Y009661D02*
X043531Y009661D01*
X043531Y010661D02*
X043791Y010661D01*
D16*
X028130Y002080D02*
X028130Y001727D01*
X026161Y001727D02*
X026161Y002080D01*
X024193Y002080D02*
X024193Y001727D01*
D17*
X041763Y002661D02*
X042060Y002661D01*
X042060Y003661D02*
X041763Y003661D01*
X041763Y004661D02*
X042060Y004661D01*
X042060Y005661D02*
X041763Y005661D01*
X041763Y006661D02*
X042060Y006661D01*
X042060Y007661D02*
X041763Y007661D01*
X041763Y008661D02*
X042060Y008661D01*
X042060Y009661D02*
X041763Y009661D01*
X041763Y010661D02*
X042060Y010661D01*
M02*
