G75*
G70*
%OFA0B0*%
%FSLAX24Y24*%
%IPPOS*%
%LPD*%
%AMOC8*
5,1,8,0,0,1.08239X$1,22.5*
%
%ADD10C,0.0000*%
%ADD11C,0.0070*%
%ADD12C,0.0110*%
%ADD13C,0.0080*%
%ADD14R,0.1000X0.1500*%
%ADD15C,0.0060*%
%ADD16C,0.0020*%
%ADD17C,0.0050*%
%ADD18C,0.0240*%
%ADD19C,0.0090*%
%ADD20C,0.0100*%
%ADD21C,0.0040*%
%ADD22C,0.0160*%
D10*
X000161Y000161D02*
X000161Y011661D01*
X060403Y011661D01*
X060403Y000161D01*
X000161Y000161D01*
X005011Y002661D02*
X005013Y002711D01*
X005019Y002761D01*
X005029Y002811D01*
X005042Y002859D01*
X005059Y002907D01*
X005080Y002953D01*
X005104Y002997D01*
X005132Y003039D01*
X005163Y003079D01*
X005197Y003116D01*
X005234Y003151D01*
X005273Y003182D01*
X005314Y003211D01*
X005358Y003236D01*
X005404Y003258D01*
X005451Y003276D01*
X005499Y003290D01*
X005548Y003301D01*
X005598Y003308D01*
X005648Y003311D01*
X005699Y003310D01*
X005749Y003305D01*
X005799Y003296D01*
X005847Y003284D01*
X005895Y003267D01*
X005941Y003247D01*
X005986Y003224D01*
X006029Y003197D01*
X006069Y003167D01*
X006107Y003134D01*
X006142Y003098D01*
X006175Y003059D01*
X006204Y003018D01*
X006230Y002975D01*
X006253Y002930D01*
X006272Y002883D01*
X006287Y002835D01*
X006299Y002786D01*
X006307Y002736D01*
X006311Y002686D01*
X006311Y002636D01*
X006307Y002586D01*
X006299Y002536D01*
X006287Y002487D01*
X006272Y002439D01*
X006253Y002392D01*
X006230Y002347D01*
X006204Y002304D01*
X006175Y002263D01*
X006142Y002224D01*
X006107Y002188D01*
X006069Y002155D01*
X006029Y002125D01*
X005986Y002098D01*
X005941Y002075D01*
X005895Y002055D01*
X005847Y002038D01*
X005799Y002026D01*
X005749Y002017D01*
X005699Y002012D01*
X005648Y002011D01*
X005598Y002014D01*
X005548Y002021D01*
X005499Y002032D01*
X005451Y002046D01*
X005404Y002064D01*
X005358Y002086D01*
X005314Y002111D01*
X005273Y002140D01*
X005234Y002171D01*
X005197Y002206D01*
X005163Y002243D01*
X005132Y002283D01*
X005104Y002325D01*
X005080Y002369D01*
X005059Y002415D01*
X005042Y002463D01*
X005029Y002511D01*
X005019Y002561D01*
X005013Y002611D01*
X005011Y002661D01*
X005011Y009161D02*
X005013Y009211D01*
X005019Y009261D01*
X005029Y009311D01*
X005042Y009359D01*
X005059Y009407D01*
X005080Y009453D01*
X005104Y009497D01*
X005132Y009539D01*
X005163Y009579D01*
X005197Y009616D01*
X005234Y009651D01*
X005273Y009682D01*
X005314Y009711D01*
X005358Y009736D01*
X005404Y009758D01*
X005451Y009776D01*
X005499Y009790D01*
X005548Y009801D01*
X005598Y009808D01*
X005648Y009811D01*
X005699Y009810D01*
X005749Y009805D01*
X005799Y009796D01*
X005847Y009784D01*
X005895Y009767D01*
X005941Y009747D01*
X005986Y009724D01*
X006029Y009697D01*
X006069Y009667D01*
X006107Y009634D01*
X006142Y009598D01*
X006175Y009559D01*
X006204Y009518D01*
X006230Y009475D01*
X006253Y009430D01*
X006272Y009383D01*
X006287Y009335D01*
X006299Y009286D01*
X006307Y009236D01*
X006311Y009186D01*
X006311Y009136D01*
X006307Y009086D01*
X006299Y009036D01*
X006287Y008987D01*
X006272Y008939D01*
X006253Y008892D01*
X006230Y008847D01*
X006204Y008804D01*
X006175Y008763D01*
X006142Y008724D01*
X006107Y008688D01*
X006069Y008655D01*
X006029Y008625D01*
X005986Y008598D01*
X005941Y008575D01*
X005895Y008555D01*
X005847Y008538D01*
X005799Y008526D01*
X005749Y008517D01*
X005699Y008512D01*
X005648Y008511D01*
X005598Y008514D01*
X005548Y008521D01*
X005499Y008532D01*
X005451Y008546D01*
X005404Y008564D01*
X005358Y008586D01*
X005314Y008611D01*
X005273Y008640D01*
X005234Y008671D01*
X005197Y008706D01*
X005163Y008743D01*
X005132Y008783D01*
X005104Y008825D01*
X005080Y008869D01*
X005059Y008915D01*
X005042Y008963D01*
X005029Y009011D01*
X005019Y009061D01*
X005013Y009111D01*
X005011Y009161D01*
X048261Y009161D02*
X048263Y009211D01*
X048269Y009261D01*
X048279Y009311D01*
X048292Y009359D01*
X048309Y009407D01*
X048330Y009453D01*
X048354Y009497D01*
X048382Y009539D01*
X048413Y009579D01*
X048447Y009616D01*
X048484Y009651D01*
X048523Y009682D01*
X048564Y009711D01*
X048608Y009736D01*
X048654Y009758D01*
X048701Y009776D01*
X048749Y009790D01*
X048798Y009801D01*
X048848Y009808D01*
X048898Y009811D01*
X048949Y009810D01*
X048999Y009805D01*
X049049Y009796D01*
X049097Y009784D01*
X049145Y009767D01*
X049191Y009747D01*
X049236Y009724D01*
X049279Y009697D01*
X049319Y009667D01*
X049357Y009634D01*
X049392Y009598D01*
X049425Y009559D01*
X049454Y009518D01*
X049480Y009475D01*
X049503Y009430D01*
X049522Y009383D01*
X049537Y009335D01*
X049549Y009286D01*
X049557Y009236D01*
X049561Y009186D01*
X049561Y009136D01*
X049557Y009086D01*
X049549Y009036D01*
X049537Y008987D01*
X049522Y008939D01*
X049503Y008892D01*
X049480Y008847D01*
X049454Y008804D01*
X049425Y008763D01*
X049392Y008724D01*
X049357Y008688D01*
X049319Y008655D01*
X049279Y008625D01*
X049236Y008598D01*
X049191Y008575D01*
X049145Y008555D01*
X049097Y008538D01*
X049049Y008526D01*
X048999Y008517D01*
X048949Y008512D01*
X048898Y008511D01*
X048848Y008514D01*
X048798Y008521D01*
X048749Y008532D01*
X048701Y008546D01*
X048654Y008564D01*
X048608Y008586D01*
X048564Y008611D01*
X048523Y008640D01*
X048484Y008671D01*
X048447Y008706D01*
X048413Y008743D01*
X048382Y008783D01*
X048354Y008825D01*
X048330Y008869D01*
X048309Y008915D01*
X048292Y008963D01*
X048279Y009011D01*
X048269Y009061D01*
X048263Y009111D01*
X048261Y009161D01*
X048261Y002661D02*
X048263Y002711D01*
X048269Y002761D01*
X048279Y002811D01*
X048292Y002859D01*
X048309Y002907D01*
X048330Y002953D01*
X048354Y002997D01*
X048382Y003039D01*
X048413Y003079D01*
X048447Y003116D01*
X048484Y003151D01*
X048523Y003182D01*
X048564Y003211D01*
X048608Y003236D01*
X048654Y003258D01*
X048701Y003276D01*
X048749Y003290D01*
X048798Y003301D01*
X048848Y003308D01*
X048898Y003311D01*
X048949Y003310D01*
X048999Y003305D01*
X049049Y003296D01*
X049097Y003284D01*
X049145Y003267D01*
X049191Y003247D01*
X049236Y003224D01*
X049279Y003197D01*
X049319Y003167D01*
X049357Y003134D01*
X049392Y003098D01*
X049425Y003059D01*
X049454Y003018D01*
X049480Y002975D01*
X049503Y002930D01*
X049522Y002883D01*
X049537Y002835D01*
X049549Y002786D01*
X049557Y002736D01*
X049561Y002686D01*
X049561Y002636D01*
X049557Y002586D01*
X049549Y002536D01*
X049537Y002487D01*
X049522Y002439D01*
X049503Y002392D01*
X049480Y002347D01*
X049454Y002304D01*
X049425Y002263D01*
X049392Y002224D01*
X049357Y002188D01*
X049319Y002155D01*
X049279Y002125D01*
X049236Y002098D01*
X049191Y002075D01*
X049145Y002055D01*
X049097Y002038D01*
X049049Y002026D01*
X048999Y002017D01*
X048949Y002012D01*
X048898Y002011D01*
X048848Y002014D01*
X048798Y002021D01*
X048749Y002032D01*
X048701Y002046D01*
X048654Y002064D01*
X048608Y002086D01*
X048564Y002111D01*
X048523Y002140D01*
X048484Y002171D01*
X048447Y002206D01*
X048413Y002243D01*
X048382Y002283D01*
X048354Y002325D01*
X048330Y002369D01*
X048309Y002415D01*
X048292Y002463D01*
X048279Y002511D01*
X048269Y002561D01*
X048263Y002611D01*
X048261Y002661D01*
D11*
X040126Y002656D02*
X039496Y002656D01*
X039706Y002446D01*
X040126Y002446D02*
X040126Y002867D01*
X028376Y004301D02*
X028271Y004196D01*
X027851Y004196D01*
X027746Y004301D01*
X027746Y004511D01*
X027851Y004617D01*
X028061Y004617D02*
X028061Y004406D01*
X028061Y004617D02*
X028271Y004617D01*
X028376Y004511D01*
X028376Y004301D01*
X026376Y004196D02*
X026376Y004617D01*
X026061Y004406D02*
X026061Y004196D01*
X025746Y004196D02*
X026376Y004196D01*
X025746Y004196D02*
X025746Y004617D01*
X025746Y004841D02*
X026376Y005261D01*
X025746Y005261D01*
X025606Y005450D02*
X025606Y004161D01*
X024271Y004406D02*
X023851Y004406D01*
X024061Y004196D02*
X024061Y004617D01*
X024061Y004841D02*
X023956Y005051D01*
X023956Y005156D01*
X024061Y005261D01*
X024271Y005261D01*
X024376Y005156D01*
X024376Y004946D01*
X024271Y004841D01*
X024061Y004841D02*
X023746Y004841D01*
X023746Y005261D01*
X023746Y005485D02*
X024166Y005485D01*
X024376Y005695D01*
X024166Y005906D01*
X023746Y005906D01*
X027746Y005801D02*
X027746Y005485D01*
X028376Y005485D01*
X028376Y005801D01*
X028271Y005906D01*
X027851Y005906D01*
X027746Y005801D01*
X027746Y005261D02*
X028376Y005261D01*
X027746Y004841D01*
X028376Y004841D01*
X026376Y004841D02*
X025746Y004841D01*
X039746Y009551D02*
X039851Y009446D01*
X039956Y009446D01*
X040061Y009551D01*
X040061Y009761D01*
X040166Y009867D01*
X040271Y009867D01*
X040376Y009761D01*
X040376Y009551D01*
X040271Y009446D01*
X040166Y009446D01*
X040061Y009551D01*
X039746Y009551D02*
X039746Y009761D01*
X039851Y009867D01*
X039956Y009867D01*
X040061Y009761D01*
X039956Y010696D02*
X040061Y010801D01*
X040061Y011117D01*
X039851Y011117D02*
X039746Y011011D01*
X039746Y010801D01*
X039851Y010696D01*
X039956Y010696D01*
X040271Y010696D02*
X040376Y010801D01*
X040376Y011011D01*
X040271Y011117D01*
X039851Y011117D01*
D12*
X028127Y010860D02*
X028127Y010466D01*
X027734Y010466D02*
X027734Y010860D01*
X027931Y011057D01*
X028127Y010860D01*
X028127Y010761D02*
X027734Y010761D01*
X026838Y010860D02*
X026641Y010466D01*
X026445Y010860D01*
X026194Y010761D02*
X026194Y010663D01*
X025800Y010663D01*
X025800Y010565D02*
X025800Y010761D01*
X025899Y010860D01*
X026095Y010860D01*
X026194Y010761D01*
X025899Y010466D02*
X025800Y010565D01*
X025899Y010466D02*
X026095Y010466D01*
X025549Y010466D02*
X025352Y010663D01*
X025451Y010663D02*
X025156Y010663D01*
X025156Y010466D02*
X025156Y011057D01*
X025451Y011057D01*
X025549Y010958D01*
X025549Y010761D01*
X025451Y010663D01*
X024260Y010663D02*
X023867Y010663D01*
X023867Y010565D02*
X023867Y010761D01*
X023965Y010860D01*
X024162Y010860D01*
X024260Y010761D01*
X024260Y010663D01*
X024162Y010466D02*
X023965Y010466D01*
X023867Y010565D01*
X023634Y010466D02*
X023437Y010466D01*
X023535Y010466D02*
X023535Y011057D01*
X023437Y011057D01*
X022541Y011057D02*
X022541Y010466D01*
X022246Y010466D01*
X022148Y010565D01*
X022148Y010761D01*
X022246Y010860D01*
X022541Y010860D01*
X022792Y010860D02*
X022792Y010565D01*
X022891Y010466D01*
X023186Y010466D01*
X023186Y010860D01*
X021897Y010761D02*
X021897Y010565D01*
X021799Y010466D01*
X021602Y010466D01*
X021503Y010565D01*
X021503Y010761D01*
X021602Y010860D01*
X021799Y010860D01*
X021897Y010761D01*
X021252Y011057D02*
X021252Y010466D01*
X020859Y010466D02*
X020859Y011057D01*
X021056Y010860D01*
X021252Y011057D01*
X019963Y010958D02*
X019865Y011057D01*
X019570Y011057D01*
X019570Y010466D01*
X019865Y010466D01*
X019963Y010565D01*
X019963Y010958D01*
X019319Y011057D02*
X018925Y011057D01*
X018925Y010466D01*
X019319Y010466D01*
X018674Y010466D02*
X018281Y010466D01*
X018281Y011057D01*
X017385Y010958D02*
X017287Y011057D01*
X017090Y011057D01*
X016992Y010958D01*
X016992Y010860D01*
X017090Y010761D01*
X017385Y010761D01*
X017385Y010565D02*
X017385Y010958D01*
X017636Y010761D02*
X018030Y010761D01*
X017385Y010565D02*
X017287Y010466D01*
X017090Y010466D01*
X016992Y010565D01*
X016114Y010466D02*
X015917Y010466D01*
X016016Y010466D02*
X016016Y011057D01*
X015917Y011057D01*
X015666Y010761D02*
X015568Y010860D01*
X015371Y010860D01*
X015273Y010761D01*
X015273Y010565D01*
X015371Y010466D01*
X015568Y010466D01*
X015666Y010663D02*
X015273Y010663D01*
X015022Y010761D02*
X015022Y010466D01*
X014628Y010466D02*
X014628Y010860D01*
X014924Y010860D01*
X015022Y010761D01*
X015666Y010761D02*
X015666Y010663D01*
X014377Y010663D02*
X014082Y010663D01*
X013984Y010565D01*
X014082Y010466D01*
X014377Y010466D01*
X014377Y010761D01*
X014279Y010860D01*
X014082Y010860D01*
X013733Y010958D02*
X013733Y010761D01*
X013634Y010663D01*
X013339Y010663D01*
X013339Y010466D02*
X013339Y011057D01*
X013634Y011057D01*
X013733Y010958D01*
X012462Y010860D02*
X012265Y010860D01*
X012363Y010958D02*
X012363Y010565D01*
X012462Y010466D01*
X012014Y010466D02*
X012014Y010761D01*
X011916Y010860D01*
X011621Y010860D01*
X011621Y010466D01*
X011370Y010565D02*
X011370Y010761D01*
X011271Y010860D01*
X011074Y010860D01*
X010976Y010761D01*
X010976Y010565D01*
X011074Y010466D01*
X011271Y010466D01*
X011370Y010565D01*
X010636Y010860D02*
X010439Y010663D01*
X010439Y010466D02*
X010439Y010860D01*
X010636Y010860D02*
X010734Y010860D01*
X009991Y010761D02*
X009794Y010761D01*
X009794Y010466D02*
X009794Y011057D01*
X010188Y011057D01*
X008899Y011057D02*
X008505Y011057D01*
X008702Y011057D02*
X008702Y010466D01*
X008058Y010761D02*
X007861Y010761D01*
X007610Y010565D02*
X007511Y010466D01*
X007315Y010466D01*
X007216Y010565D01*
X007216Y010958D01*
X007315Y011057D01*
X007511Y011057D01*
X007610Y010958D01*
X007861Y011057D02*
X008254Y011057D01*
X007861Y011057D02*
X007861Y010466D01*
X018925Y010761D02*
X019122Y010761D01*
X017261Y007557D02*
X017360Y007458D01*
X017360Y007360D01*
X017261Y007261D01*
X017360Y007163D01*
X017360Y007065D01*
X017261Y006966D01*
X017065Y006966D01*
X016966Y007065D01*
X017163Y007261D02*
X017261Y007261D01*
X016966Y007458D02*
X017065Y007557D01*
X017261Y007557D01*
X020701Y006205D02*
X020701Y006107D01*
X020701Y005910D02*
X020603Y005910D01*
X020701Y005910D02*
X020701Y005516D01*
X020603Y005516D02*
X020799Y005516D01*
X021032Y005615D02*
X021131Y005516D01*
X021328Y005516D01*
X021426Y005615D01*
X021426Y005811D01*
X021328Y005910D01*
X021131Y005910D01*
X021032Y005811D01*
X021032Y005615D01*
X021677Y005516D02*
X021972Y005516D01*
X022071Y005615D01*
X021972Y005713D01*
X021775Y005713D01*
X021677Y005811D01*
X021775Y005910D01*
X022071Y005910D01*
X022321Y006008D02*
X022321Y005615D01*
X022420Y005516D01*
X022617Y005516D01*
X022715Y005615D01*
X022715Y006008D02*
X022617Y006107D01*
X022420Y006107D01*
X022321Y006008D01*
X020352Y005910D02*
X019958Y005516D01*
X019609Y005516D02*
X019412Y005516D01*
X019314Y005615D01*
X019314Y005811D01*
X019412Y005910D01*
X019609Y005910D01*
X019707Y005811D01*
X019707Y005713D01*
X019314Y005713D01*
X019958Y005910D02*
X020352Y005516D01*
X019081Y005516D02*
X018884Y005516D01*
X018982Y005516D02*
X018982Y006107D01*
X018884Y006107D01*
X018633Y005910D02*
X018436Y006107D01*
X018239Y005910D01*
X018239Y005516D01*
X018633Y005516D02*
X018633Y005910D01*
X018633Y005811D02*
X018239Y005811D01*
X017344Y005910D02*
X017344Y006008D01*
X017246Y006107D01*
X017049Y006107D01*
X016950Y006008D01*
X017344Y005910D02*
X016950Y005516D01*
X017344Y005516D01*
X016699Y005516D02*
X016306Y005516D01*
X016503Y005516D02*
X016503Y006107D01*
X016306Y005910D01*
X016055Y006008D02*
X015661Y005615D01*
X015760Y005516D01*
X015956Y005516D01*
X016055Y005615D01*
X016055Y006008D01*
X015956Y006107D01*
X015760Y006107D01*
X015661Y006008D01*
X015661Y005615D01*
X015410Y005516D02*
X015017Y005516D01*
X015410Y005910D01*
X015410Y006008D01*
X015312Y006107D01*
X015115Y006107D01*
X015017Y006008D01*
X014139Y005910D02*
X013943Y006107D01*
X013065Y006107D02*
X012868Y005910D01*
X012868Y005713D01*
X013065Y005516D01*
X013298Y005615D02*
X013396Y005516D01*
X013692Y005516D01*
X013943Y005516D02*
X014139Y005713D01*
X014139Y005910D01*
X013692Y005910D02*
X013396Y005910D01*
X013298Y005811D01*
X013298Y005615D01*
X010360Y006966D02*
X009966Y006966D01*
X010360Y007360D01*
X010360Y007458D01*
X010261Y007557D01*
X010065Y007557D01*
X009966Y007458D01*
X003360Y006966D02*
X002966Y006966D01*
X003163Y006966D02*
X003163Y007557D01*
X002966Y007360D01*
X023966Y007261D02*
X024360Y007261D01*
X024261Y007557D02*
X023966Y007261D01*
X024261Y006966D02*
X024261Y007557D01*
X030966Y007557D02*
X030966Y007261D01*
X031163Y007360D01*
X031261Y007360D01*
X031360Y007261D01*
X031360Y007065D01*
X031261Y006966D01*
X031065Y006966D01*
X030966Y007065D01*
X030966Y007557D02*
X031360Y007557D01*
X044966Y007557D02*
X045360Y007557D01*
X045360Y007458D01*
X044966Y007065D01*
X044966Y006966D01*
X051966Y007065D02*
X052065Y006966D01*
X052261Y006966D01*
X052360Y007065D01*
X052360Y007163D01*
X052261Y007261D01*
X052065Y007261D01*
X051966Y007360D01*
X051966Y007458D01*
X052065Y007557D01*
X052261Y007557D01*
X052360Y007458D01*
X052360Y007360D01*
X052261Y007261D01*
X052065Y007261D02*
X051966Y007163D01*
X051966Y007065D01*
X058716Y007065D02*
X058815Y006966D01*
X059011Y006966D01*
X059110Y007065D01*
X059110Y007458D01*
X059011Y007557D01*
X058815Y007557D01*
X058716Y007458D01*
X058716Y007360D01*
X058815Y007261D01*
X059110Y007261D01*
X038360Y003057D02*
X038163Y002958D01*
X037966Y002761D01*
X038261Y002761D01*
X038360Y002663D01*
X038360Y002565D01*
X038261Y002466D01*
X038065Y002466D01*
X037966Y002565D01*
X037966Y002761D01*
D13*
X037731Y002731D02*
X037731Y002802D01*
X037661Y002872D01*
X037521Y002872D01*
X037451Y002802D01*
X037731Y002731D02*
X037451Y002451D01*
X037731Y002451D01*
X037661Y001872D02*
X037521Y001872D01*
X037451Y001802D01*
X037661Y001872D02*
X037731Y001802D01*
X037731Y001731D01*
X037661Y001661D01*
X037731Y001591D01*
X037731Y001521D01*
X037661Y001451D01*
X037521Y001451D01*
X037451Y001521D01*
X037591Y001661D02*
X037661Y001661D01*
X044201Y001521D02*
X044271Y001451D01*
X044411Y001451D01*
X044481Y001521D01*
X044481Y001591D01*
X044411Y001661D01*
X044341Y001661D01*
X044411Y001661D02*
X044481Y001731D01*
X044481Y001802D01*
X044411Y001872D01*
X044271Y001872D01*
X044201Y001802D01*
X045951Y002451D02*
X046231Y002731D01*
X046231Y002802D01*
X046161Y002872D01*
X046021Y002872D01*
X045951Y002802D01*
X045951Y002451D02*
X046231Y002451D01*
X047731Y002661D02*
X047733Y002730D01*
X047739Y002798D01*
X047749Y002866D01*
X047763Y002933D01*
X047781Y002999D01*
X047802Y003065D01*
X047828Y003128D01*
X047857Y003191D01*
X047889Y003251D01*
X047925Y003309D01*
X047964Y003366D01*
X048007Y003419D01*
X048053Y003471D01*
X048101Y003519D01*
X048153Y003565D01*
X048206Y003608D01*
X048263Y003647D01*
X048321Y003683D01*
X048381Y003715D01*
X048444Y003744D01*
X048507Y003770D01*
X048573Y003791D01*
X048639Y003809D01*
X048706Y003823D01*
X048774Y003833D01*
X048842Y003839D01*
X048911Y003841D01*
X048980Y003839D01*
X049048Y003833D01*
X049116Y003823D01*
X049183Y003809D01*
X049249Y003791D01*
X049315Y003770D01*
X049378Y003744D01*
X049441Y003715D01*
X049501Y003683D01*
X049559Y003647D01*
X049616Y003608D01*
X049669Y003565D01*
X049721Y003519D01*
X049769Y003471D01*
X049815Y003419D01*
X049858Y003366D01*
X049897Y003309D01*
X049933Y003251D01*
X049965Y003191D01*
X049994Y003128D01*
X050020Y003065D01*
X050041Y002999D01*
X050059Y002933D01*
X050073Y002866D01*
X050083Y002798D01*
X050089Y002730D01*
X050091Y002661D01*
X050089Y002592D01*
X050083Y002524D01*
X050073Y002456D01*
X050059Y002389D01*
X050041Y002323D01*
X050020Y002257D01*
X049994Y002194D01*
X049965Y002131D01*
X049933Y002071D01*
X049897Y002013D01*
X049858Y001956D01*
X049815Y001903D01*
X049769Y001851D01*
X049721Y001803D01*
X049669Y001757D01*
X049616Y001714D01*
X049559Y001675D01*
X049501Y001639D01*
X049441Y001607D01*
X049378Y001578D01*
X049315Y001552D01*
X049249Y001531D01*
X049183Y001513D01*
X049116Y001499D01*
X049048Y001489D01*
X048980Y001483D01*
X048911Y001481D01*
X048842Y001483D01*
X048774Y001489D01*
X048706Y001499D01*
X048639Y001513D01*
X048573Y001531D01*
X048507Y001552D01*
X048444Y001578D01*
X048381Y001607D01*
X048321Y001639D01*
X048263Y001675D01*
X048206Y001714D01*
X048153Y001757D01*
X048101Y001803D01*
X048053Y001851D01*
X048007Y001903D01*
X047964Y001956D01*
X047925Y002013D01*
X047889Y002071D01*
X047857Y002131D01*
X047828Y002194D01*
X047802Y002257D01*
X047781Y002323D01*
X047763Y002389D01*
X047749Y002456D01*
X047739Y002524D01*
X047733Y002592D01*
X047731Y002661D01*
X046231Y003451D02*
X045951Y003451D01*
X046091Y003451D02*
X046091Y003872D01*
X045951Y003731D01*
X038371Y004122D02*
X038161Y004402D01*
X037951Y004122D01*
X038161Y003942D02*
X038161Y003662D01*
X038161Y003481D02*
X038161Y003201D01*
X037731Y003451D02*
X037451Y003451D01*
X037591Y003451D02*
X037591Y003872D01*
X037451Y003731D01*
X031481Y003951D02*
X031201Y003951D01*
X031341Y003951D02*
X031341Y004372D01*
X031201Y004231D01*
X031271Y003122D02*
X031201Y003052D01*
X031271Y003122D02*
X031411Y003122D01*
X031481Y003052D01*
X031481Y002981D01*
X031201Y002701D01*
X031481Y002701D01*
X031411Y002122D02*
X031481Y002052D01*
X031481Y001981D01*
X031411Y001911D01*
X031481Y001841D01*
X031481Y001771D01*
X031411Y001701D01*
X031271Y001701D01*
X031201Y001771D01*
X031341Y001911D02*
X031411Y001911D01*
X031411Y002122D02*
X031271Y002122D01*
X031201Y002052D01*
X022731Y002521D02*
X022661Y002451D01*
X022521Y002451D01*
X022451Y002521D01*
X022591Y002661D02*
X022661Y002661D01*
X022731Y002591D01*
X022731Y002521D01*
X022661Y002661D02*
X022731Y002731D01*
X022731Y002802D01*
X022661Y002872D01*
X022521Y002872D01*
X022451Y002802D01*
X022451Y003451D02*
X022731Y003731D01*
X022731Y003802D01*
X022661Y003872D01*
X022521Y003872D01*
X022451Y003802D01*
X022451Y003451D02*
X022731Y003451D01*
X022731Y004451D02*
X022451Y004451D01*
X022591Y004451D02*
X022591Y004872D01*
X022451Y004731D01*
X016591Y003872D02*
X016451Y003731D01*
X016591Y003872D02*
X016591Y003451D01*
X016451Y003451D02*
X016731Y003451D01*
X014231Y003451D02*
X013951Y003451D01*
X014091Y003451D02*
X014091Y003872D01*
X013951Y003731D01*
X011491Y003341D02*
X011351Y003201D01*
X011281Y003201D01*
X011211Y003271D01*
X011211Y003341D01*
X011351Y003481D01*
X011351Y003552D01*
X011281Y003622D01*
X011211Y003552D01*
X011211Y003481D01*
X011491Y003201D01*
X010570Y003271D02*
X010500Y003201D01*
X010360Y003201D01*
X010290Y003271D01*
X010430Y003411D02*
X010500Y003411D01*
X010570Y003341D01*
X010570Y003271D01*
X010500Y003411D02*
X010570Y003481D01*
X010570Y003552D01*
X010500Y003622D01*
X010360Y003622D01*
X010290Y003552D01*
X010110Y003411D02*
X009830Y003411D01*
X009509Y003622D02*
X009369Y003481D01*
X009509Y003622D02*
X009509Y003201D01*
X009369Y003201D02*
X009650Y003201D01*
X008749Y003201D02*
X008749Y003271D01*
X008679Y003271D01*
X008679Y003201D01*
X008749Y003201D01*
X008499Y003271D02*
X008499Y003411D01*
X008359Y003411D01*
X008499Y003271D02*
X008429Y003201D01*
X008289Y003201D01*
X008219Y003271D01*
X008219Y003552D01*
X008289Y003622D01*
X008429Y003622D01*
X008499Y003552D01*
X008679Y003481D02*
X008679Y003411D01*
X008749Y003411D01*
X008749Y003481D01*
X008679Y003481D01*
X008052Y003622D02*
X007912Y003622D01*
X007982Y003622D02*
X007982Y003201D01*
X007912Y003201D02*
X008052Y003201D01*
X007731Y003271D02*
X007661Y003201D01*
X007521Y003201D01*
X007451Y003271D01*
X007521Y003411D02*
X007661Y003411D01*
X007731Y003341D01*
X007731Y003271D01*
X007521Y003411D02*
X007451Y003481D01*
X007451Y003552D01*
X007521Y003622D01*
X007661Y003622D01*
X007731Y003552D01*
X007411Y003781D02*
X008639Y003781D01*
X008679Y004451D02*
X008679Y004521D01*
X008749Y004521D01*
X008749Y004451D01*
X008679Y004451D01*
X008499Y004521D02*
X008499Y004661D01*
X008359Y004661D01*
X008499Y004521D02*
X008429Y004451D01*
X008289Y004451D01*
X008219Y004521D01*
X008219Y004802D01*
X008289Y004872D01*
X008429Y004872D01*
X008499Y004802D01*
X008679Y004731D02*
X008679Y004661D01*
X008749Y004661D01*
X008749Y004731D01*
X008679Y004731D01*
X009369Y004731D02*
X009509Y004872D01*
X009509Y004451D01*
X009369Y004451D02*
X009650Y004451D01*
X010290Y004451D02*
X010570Y004731D01*
X010570Y004802D01*
X010500Y004872D01*
X010360Y004872D01*
X010290Y004802D01*
X010110Y004661D02*
X009830Y004661D01*
X010290Y004451D02*
X010570Y004451D01*
X008052Y004451D02*
X007912Y004451D01*
X007982Y004451D02*
X007982Y004872D01*
X007912Y004872D02*
X008052Y004872D01*
X007731Y004802D02*
X007661Y004872D01*
X007521Y004872D01*
X007451Y004802D01*
X007451Y004731D01*
X007521Y004661D01*
X007661Y004661D01*
X007731Y004591D01*
X007731Y004521D01*
X007661Y004451D01*
X007521Y004451D01*
X007451Y004521D01*
X005179Y004606D02*
X005169Y004478D01*
X005139Y004353D01*
X005090Y004234D01*
X005023Y004125D01*
X004939Y004027D01*
X004842Y003944D01*
X004732Y003876D01*
X004613Y003827D01*
X004488Y003797D01*
X004360Y003787D01*
X004360Y005362D01*
X005242Y005362D01*
X005259Y005360D01*
X005274Y005354D01*
X005287Y005344D01*
X005297Y005331D01*
X005303Y005316D01*
X005305Y005299D01*
X005303Y005283D01*
X005297Y005268D01*
X005287Y005255D01*
X005274Y005245D01*
X005259Y005238D01*
X005242Y005236D01*
X005214Y005233D01*
X005188Y005224D01*
X005164Y005209D01*
X005144Y005189D01*
X005129Y005165D01*
X005119Y005138D01*
X005116Y005110D01*
X005179Y004669D01*
X005179Y004606D01*
X005179Y004638D02*
X004360Y004638D01*
X003730Y004638D01*
X002911Y004638D01*
X002911Y004669D02*
X002911Y004606D01*
X002921Y004478D01*
X002951Y004353D01*
X003001Y004234D01*
X003068Y004125D01*
X003151Y004027D01*
X003249Y003944D01*
X003358Y003876D01*
X003477Y003827D01*
X003602Y003797D01*
X003730Y003787D01*
X003730Y005362D01*
X004360Y005362D01*
X004360Y003787D01*
X003730Y003787D01*
X003730Y005362D01*
X002848Y005362D01*
X002832Y005360D01*
X002817Y005354D01*
X002804Y005344D01*
X002794Y005331D01*
X002787Y005316D01*
X002785Y005299D01*
X002787Y005283D01*
X002794Y005268D01*
X002804Y005255D01*
X002817Y005245D01*
X002832Y005238D01*
X002848Y005236D01*
X002876Y005233D01*
X002903Y005224D01*
X002927Y005209D01*
X002947Y005189D01*
X002962Y005165D01*
X002971Y005138D01*
X002974Y005110D01*
X002911Y004669D01*
X002918Y004717D02*
X003730Y004717D01*
X004360Y004717D01*
X005172Y004717D01*
X005161Y004795D02*
X004360Y004795D01*
X003730Y004795D01*
X002929Y004795D01*
X002941Y004874D02*
X003730Y004874D01*
X004360Y004874D01*
X005150Y004874D01*
X005139Y004952D02*
X004360Y004952D01*
X003730Y004952D01*
X002952Y004952D01*
X002963Y005031D02*
X003730Y005031D01*
X004360Y005031D01*
X005128Y005031D01*
X005116Y005109D02*
X004360Y005109D01*
X003730Y005109D01*
X002974Y005109D01*
X002947Y005188D02*
X003730Y005188D01*
X004360Y005188D01*
X005143Y005188D01*
X005296Y005267D02*
X004360Y005267D01*
X003730Y005267D01*
X002795Y005267D01*
X002806Y005345D02*
X003730Y005345D01*
X004360Y005345D01*
X005285Y005345D01*
X005176Y004560D02*
X004360Y004560D01*
X003730Y004560D01*
X002915Y004560D01*
X002921Y004481D02*
X003730Y004481D01*
X004360Y004481D01*
X005169Y004481D01*
X005151Y004403D02*
X004360Y004403D01*
X003730Y004403D01*
X002939Y004403D01*
X002963Y004324D02*
X003730Y004324D01*
X004360Y004324D01*
X005127Y004324D01*
X005095Y004246D02*
X004360Y004246D01*
X003730Y004246D01*
X002996Y004246D01*
X003042Y004167D02*
X003730Y004167D01*
X004360Y004167D01*
X005049Y004167D01*
X004992Y004088D02*
X004360Y004088D01*
X003730Y004088D01*
X003099Y004088D01*
X003171Y004010D02*
X003730Y004010D01*
X004360Y004010D01*
X004919Y004010D01*
X004822Y003931D02*
X004360Y003931D01*
X003730Y003931D01*
X003269Y003931D01*
X003416Y003853D02*
X003730Y003853D01*
X004360Y003853D01*
X004675Y003853D01*
X002731Y003451D02*
X002451Y003451D01*
X002591Y003451D02*
X002591Y003872D01*
X002451Y003731D01*
X002521Y002872D02*
X002451Y002802D01*
X002521Y002872D02*
X002661Y002872D01*
X002731Y002802D01*
X002731Y002731D01*
X002451Y002451D01*
X002731Y002451D01*
X002661Y001872D02*
X002731Y001802D01*
X002731Y001731D01*
X002661Y001661D01*
X002731Y001591D01*
X002731Y001521D01*
X002661Y001451D01*
X002521Y001451D01*
X002451Y001521D01*
X002591Y001661D02*
X002661Y001661D01*
X002661Y001872D02*
X002521Y001872D01*
X002451Y001802D01*
X004481Y002661D02*
X004483Y002730D01*
X004489Y002798D01*
X004499Y002866D01*
X004513Y002933D01*
X004531Y002999D01*
X004552Y003065D01*
X004578Y003128D01*
X004607Y003191D01*
X004639Y003251D01*
X004675Y003309D01*
X004714Y003366D01*
X004757Y003419D01*
X004803Y003471D01*
X004851Y003519D01*
X004903Y003565D01*
X004956Y003608D01*
X005013Y003647D01*
X005071Y003683D01*
X005131Y003715D01*
X005194Y003744D01*
X005257Y003770D01*
X005323Y003791D01*
X005389Y003809D01*
X005456Y003823D01*
X005524Y003833D01*
X005592Y003839D01*
X005661Y003841D01*
X005730Y003839D01*
X005798Y003833D01*
X005866Y003823D01*
X005933Y003809D01*
X005999Y003791D01*
X006065Y003770D01*
X006128Y003744D01*
X006191Y003715D01*
X006251Y003683D01*
X006309Y003647D01*
X006366Y003608D01*
X006419Y003565D01*
X006471Y003519D01*
X006519Y003471D01*
X006565Y003419D01*
X006608Y003366D01*
X006647Y003309D01*
X006683Y003251D01*
X006715Y003191D01*
X006744Y003128D01*
X006770Y003065D01*
X006791Y002999D01*
X006809Y002933D01*
X006823Y002866D01*
X006833Y002798D01*
X006839Y002730D01*
X006841Y002661D01*
X006839Y002592D01*
X006833Y002524D01*
X006823Y002456D01*
X006809Y002389D01*
X006791Y002323D01*
X006770Y002257D01*
X006744Y002194D01*
X006715Y002131D01*
X006683Y002071D01*
X006647Y002013D01*
X006608Y001956D01*
X006565Y001903D01*
X006519Y001851D01*
X006471Y001803D01*
X006419Y001757D01*
X006366Y001714D01*
X006309Y001675D01*
X006251Y001639D01*
X006191Y001607D01*
X006128Y001578D01*
X006065Y001552D01*
X005999Y001531D01*
X005933Y001513D01*
X005866Y001499D01*
X005798Y001489D01*
X005730Y001483D01*
X005661Y001481D01*
X005592Y001483D01*
X005524Y001489D01*
X005456Y001499D01*
X005389Y001513D01*
X005323Y001531D01*
X005257Y001552D01*
X005194Y001578D01*
X005131Y001607D01*
X005071Y001639D01*
X005013Y001675D01*
X004956Y001714D01*
X004903Y001757D01*
X004851Y001803D01*
X004803Y001851D01*
X004757Y001903D01*
X004714Y001956D01*
X004675Y002013D01*
X004639Y002071D01*
X004607Y002131D01*
X004578Y002194D01*
X004552Y002257D01*
X004531Y002323D01*
X004513Y002389D01*
X004499Y002456D01*
X004489Y002524D01*
X004483Y002592D01*
X004481Y002661D01*
X007451Y002661D02*
X007521Y002591D01*
X007661Y002591D01*
X007731Y002521D01*
X007661Y002451D01*
X007451Y002451D01*
X007912Y002521D02*
X007982Y002451D01*
X008052Y002521D01*
X008122Y002451D01*
X008192Y002521D01*
X008192Y002731D01*
X008442Y002731D02*
X008582Y002731D01*
X008652Y002661D01*
X008652Y002451D01*
X008442Y002451D01*
X008372Y002521D01*
X008442Y002591D01*
X008652Y002591D01*
X008832Y002451D02*
X009042Y002451D01*
X009113Y002521D01*
X009113Y002661D01*
X009042Y002731D01*
X008832Y002731D01*
X008832Y002311D01*
X009363Y002052D02*
X009363Y001771D01*
X009433Y001701D01*
X009600Y001701D02*
X009600Y002122D01*
X009670Y001981D02*
X009810Y001981D01*
X009880Y001911D01*
X009880Y001701D01*
X010060Y001771D02*
X010130Y001701D01*
X010270Y001701D01*
X010340Y001771D01*
X010340Y001911D01*
X010270Y001981D01*
X010130Y001981D01*
X010060Y001911D01*
X010060Y001771D01*
X010520Y001771D02*
X010520Y001911D01*
X010590Y001981D01*
X010801Y001981D01*
X010801Y002122D02*
X010801Y001701D01*
X010590Y001701D01*
X010520Y001771D01*
X010981Y001771D02*
X010981Y001911D01*
X011051Y001981D01*
X011191Y001981D01*
X011261Y001911D01*
X011261Y001841D01*
X010981Y001841D01*
X010981Y001771D02*
X011051Y001701D01*
X011191Y001701D01*
X011441Y001701D02*
X011511Y001701D01*
X011511Y001771D01*
X011441Y001771D01*
X011441Y001701D01*
X009670Y001981D02*
X009600Y001911D01*
X009433Y001981D02*
X009293Y001981D01*
X009113Y001911D02*
X009113Y001701D01*
X008902Y001701D01*
X008832Y001771D01*
X008902Y001841D01*
X009113Y001841D01*
X009113Y001911D02*
X009042Y001981D01*
X008902Y001981D01*
X008652Y001981D02*
X008442Y001981D01*
X008372Y001911D01*
X008372Y001771D01*
X008442Y001701D01*
X008652Y001701D01*
X007731Y001701D02*
X007451Y001981D01*
X007451Y002052D01*
X007521Y002122D01*
X007591Y002052D01*
X007591Y001981D01*
X007451Y001841D01*
X007451Y001771D01*
X007521Y001701D01*
X007591Y001701D01*
X007731Y001841D01*
X009753Y002521D02*
X009823Y002451D01*
X010033Y002451D01*
X010033Y002661D01*
X009963Y002731D01*
X009823Y002731D01*
X010213Y002731D02*
X010424Y002731D01*
X010494Y002661D01*
X010494Y002451D01*
X010674Y002521D02*
X010744Y002451D01*
X010884Y002451D01*
X010954Y002521D01*
X010954Y002661D01*
X010884Y002731D01*
X010744Y002731D01*
X010674Y002661D01*
X010674Y002521D01*
X011134Y002521D02*
X011204Y002451D01*
X011414Y002451D01*
X011414Y002872D01*
X011414Y002731D02*
X011204Y002731D01*
X011134Y002661D01*
X011134Y002521D01*
X011594Y002521D02*
X011664Y002451D01*
X011805Y002451D01*
X011875Y002591D02*
X011594Y002591D01*
X011594Y002521D02*
X011594Y002661D01*
X011664Y002731D01*
X011805Y002731D01*
X011875Y002661D01*
X011875Y002591D01*
X010213Y002451D02*
X010213Y002731D01*
X010033Y002591D02*
X009823Y002591D01*
X009753Y002521D01*
X007912Y002521D02*
X007912Y002731D01*
X007731Y002731D02*
X007521Y002731D01*
X007451Y002661D01*
X013951Y002802D02*
X014021Y002872D01*
X014161Y002872D01*
X014231Y002802D01*
X014231Y002731D01*
X013951Y002451D01*
X014231Y002451D01*
X016451Y002451D02*
X016731Y002731D01*
X016731Y002802D01*
X016661Y002872D01*
X016521Y002872D01*
X016451Y002802D01*
X016451Y002451D02*
X016731Y002451D01*
X016661Y001872D02*
X016731Y001802D01*
X016731Y001731D01*
X016661Y001661D01*
X016731Y001591D01*
X016731Y001521D01*
X016661Y001451D01*
X016521Y001451D01*
X016451Y001521D01*
X016591Y001661D02*
X016661Y001661D01*
X016661Y001872D02*
X016521Y001872D01*
X016451Y001802D01*
X014231Y001802D02*
X014231Y001731D01*
X014161Y001661D01*
X014231Y001591D01*
X014231Y001521D01*
X014161Y001451D01*
X014021Y001451D01*
X013951Y001521D01*
X014091Y001661D02*
X014161Y001661D01*
X014231Y001802D02*
X014161Y001872D01*
X014021Y001872D01*
X013951Y001802D01*
X013003Y007951D02*
X012863Y007951D01*
X012793Y008021D01*
X012793Y008161D01*
X012863Y008231D01*
X013003Y008231D01*
X013073Y008161D01*
X013073Y008091D01*
X012793Y008091D01*
X012613Y008231D02*
X012402Y008231D01*
X012332Y008161D01*
X012332Y008021D01*
X012402Y007951D01*
X012613Y007951D01*
X012613Y008372D01*
X012152Y008161D02*
X012082Y008231D01*
X011942Y008231D01*
X011872Y008161D01*
X011872Y008021D01*
X011942Y007951D01*
X012082Y007951D01*
X012152Y008021D01*
X012152Y008161D01*
X011692Y008161D02*
X011622Y008231D01*
X011412Y008231D01*
X011412Y007951D01*
X011231Y007951D02*
X011231Y008231D01*
X011091Y008372D01*
X010951Y008231D01*
X010951Y007951D01*
X011692Y007951D02*
X011692Y008161D01*
X011231Y008161D02*
X010951Y008161D01*
X004481Y009161D02*
X004483Y009230D01*
X004489Y009298D01*
X004499Y009366D01*
X004513Y009433D01*
X004531Y009499D01*
X004552Y009565D01*
X004578Y009628D01*
X004607Y009691D01*
X004639Y009751D01*
X004675Y009809D01*
X004714Y009866D01*
X004757Y009919D01*
X004803Y009971D01*
X004851Y010019D01*
X004903Y010065D01*
X004956Y010108D01*
X005013Y010147D01*
X005071Y010183D01*
X005131Y010215D01*
X005194Y010244D01*
X005257Y010270D01*
X005323Y010291D01*
X005389Y010309D01*
X005456Y010323D01*
X005524Y010333D01*
X005592Y010339D01*
X005661Y010341D01*
X005730Y010339D01*
X005798Y010333D01*
X005866Y010323D01*
X005933Y010309D01*
X005999Y010291D01*
X006065Y010270D01*
X006128Y010244D01*
X006191Y010215D01*
X006251Y010183D01*
X006309Y010147D01*
X006366Y010108D01*
X006419Y010065D01*
X006471Y010019D01*
X006519Y009971D01*
X006565Y009919D01*
X006608Y009866D01*
X006647Y009809D01*
X006683Y009751D01*
X006715Y009691D01*
X006744Y009628D01*
X006770Y009565D01*
X006791Y009499D01*
X006809Y009433D01*
X006823Y009366D01*
X006833Y009298D01*
X006839Y009230D01*
X006841Y009161D01*
X006839Y009092D01*
X006833Y009024D01*
X006823Y008956D01*
X006809Y008889D01*
X006791Y008823D01*
X006770Y008757D01*
X006744Y008694D01*
X006715Y008631D01*
X006683Y008571D01*
X006647Y008513D01*
X006608Y008456D01*
X006565Y008403D01*
X006519Y008351D01*
X006471Y008303D01*
X006419Y008257D01*
X006366Y008214D01*
X006309Y008175D01*
X006251Y008139D01*
X006191Y008107D01*
X006128Y008078D01*
X006065Y008052D01*
X005999Y008031D01*
X005933Y008013D01*
X005866Y007999D01*
X005798Y007989D01*
X005730Y007983D01*
X005661Y007981D01*
X005592Y007983D01*
X005524Y007989D01*
X005456Y007999D01*
X005389Y008013D01*
X005323Y008031D01*
X005257Y008052D01*
X005194Y008078D01*
X005131Y008107D01*
X005071Y008139D01*
X005013Y008175D01*
X004956Y008214D01*
X004903Y008257D01*
X004851Y008303D01*
X004803Y008351D01*
X004757Y008403D01*
X004714Y008456D01*
X004675Y008513D01*
X004639Y008571D01*
X004607Y008631D01*
X004578Y008694D01*
X004552Y008757D01*
X004531Y008823D01*
X004513Y008889D01*
X004499Y008956D01*
X004489Y009024D01*
X004483Y009092D01*
X004481Y009161D01*
X010951Y009521D02*
X011021Y009451D01*
X011161Y009451D01*
X011231Y009521D01*
X011412Y009521D02*
X011482Y009591D01*
X011692Y009591D01*
X011692Y009661D02*
X011692Y009451D01*
X011482Y009451D01*
X011412Y009521D01*
X011482Y009731D02*
X011622Y009731D01*
X011692Y009661D01*
X011872Y009731D02*
X012012Y009731D01*
X011942Y009802D02*
X011942Y009521D01*
X012012Y009451D01*
X012179Y009451D02*
X012179Y009872D01*
X012249Y009731D02*
X012389Y009731D01*
X012459Y009661D01*
X012459Y009451D01*
X012639Y009521D02*
X012709Y009451D01*
X012849Y009451D01*
X012919Y009521D01*
X012919Y009661D01*
X012849Y009731D01*
X012709Y009731D01*
X012639Y009661D01*
X012639Y009521D01*
X012249Y009731D02*
X012179Y009661D01*
X013100Y009661D02*
X013100Y009521D01*
X013170Y009451D01*
X013380Y009451D01*
X013380Y009872D01*
X013380Y009731D02*
X013170Y009731D01*
X013100Y009661D01*
X013560Y009661D02*
X013560Y009521D01*
X013630Y009451D01*
X013770Y009451D01*
X013840Y009591D02*
X013560Y009591D01*
X013560Y009661D02*
X013630Y009731D01*
X013770Y009731D01*
X013840Y009661D01*
X013840Y009591D01*
X011231Y009802D02*
X011161Y009872D01*
X011021Y009872D01*
X010951Y009802D01*
X010951Y009521D01*
X047731Y009161D02*
X047733Y009230D01*
X047739Y009298D01*
X047749Y009366D01*
X047763Y009433D01*
X047781Y009499D01*
X047802Y009565D01*
X047828Y009628D01*
X047857Y009691D01*
X047889Y009751D01*
X047925Y009809D01*
X047964Y009866D01*
X048007Y009919D01*
X048053Y009971D01*
X048101Y010019D01*
X048153Y010065D01*
X048206Y010108D01*
X048263Y010147D01*
X048321Y010183D01*
X048381Y010215D01*
X048444Y010244D01*
X048507Y010270D01*
X048573Y010291D01*
X048639Y010309D01*
X048706Y010323D01*
X048774Y010333D01*
X048842Y010339D01*
X048911Y010341D01*
X048980Y010339D01*
X049048Y010333D01*
X049116Y010323D01*
X049183Y010309D01*
X049249Y010291D01*
X049315Y010270D01*
X049378Y010244D01*
X049441Y010215D01*
X049501Y010183D01*
X049559Y010147D01*
X049616Y010108D01*
X049669Y010065D01*
X049721Y010019D01*
X049769Y009971D01*
X049815Y009919D01*
X049858Y009866D01*
X049897Y009809D01*
X049933Y009751D01*
X049965Y009691D01*
X049994Y009628D01*
X050020Y009565D01*
X050041Y009499D01*
X050059Y009433D01*
X050073Y009366D01*
X050083Y009298D01*
X050089Y009230D01*
X050091Y009161D01*
X050089Y009092D01*
X050083Y009024D01*
X050073Y008956D01*
X050059Y008889D01*
X050041Y008823D01*
X050020Y008757D01*
X049994Y008694D01*
X049965Y008631D01*
X049933Y008571D01*
X049897Y008513D01*
X049858Y008456D01*
X049815Y008403D01*
X049769Y008351D01*
X049721Y008303D01*
X049669Y008257D01*
X049616Y008214D01*
X049559Y008175D01*
X049501Y008139D01*
X049441Y008107D01*
X049378Y008078D01*
X049315Y008052D01*
X049249Y008031D01*
X049183Y008013D01*
X049116Y007999D01*
X049048Y007989D01*
X048980Y007983D01*
X048911Y007981D01*
X048842Y007983D01*
X048774Y007989D01*
X048706Y007999D01*
X048639Y008013D01*
X048573Y008031D01*
X048507Y008052D01*
X048444Y008078D01*
X048381Y008107D01*
X048321Y008139D01*
X048263Y008175D01*
X048206Y008214D01*
X048153Y008257D01*
X048101Y008303D01*
X048053Y008351D01*
X048007Y008403D01*
X047964Y008456D01*
X047925Y008513D01*
X047889Y008571D01*
X047857Y008631D01*
X047828Y008694D01*
X047802Y008757D01*
X047781Y008823D01*
X047763Y008889D01*
X047749Y008956D01*
X047739Y009024D01*
X047733Y009092D01*
X047731Y009161D01*
X054731Y006622D02*
X054731Y006271D01*
X054801Y006201D01*
X054941Y006201D01*
X055011Y006271D01*
X055011Y006622D01*
X055191Y006481D02*
X055402Y006481D01*
X055472Y006411D01*
X055472Y006201D01*
X055652Y006201D02*
X055862Y006201D01*
X055932Y006271D01*
X055932Y006411D01*
X055862Y006481D01*
X055652Y006481D01*
X055652Y006622D02*
X055652Y006201D01*
X055191Y006201D02*
X055191Y006481D01*
X056112Y006481D02*
X056112Y006271D01*
X056182Y006201D01*
X056392Y006201D01*
X056392Y006481D01*
X056572Y006411D02*
X056713Y006411D01*
X056642Y006552D02*
X056713Y006622D01*
X056642Y006552D02*
X056642Y006201D01*
X056949Y006201D02*
X056949Y006552D01*
X057019Y006622D01*
X057019Y006411D02*
X056879Y006411D01*
X057186Y006411D02*
X057256Y006481D01*
X057396Y006481D01*
X057466Y006411D01*
X057466Y006341D01*
X057186Y006341D01*
X057186Y006271D02*
X057186Y006411D01*
X057647Y006341D02*
X057787Y006481D01*
X057857Y006481D01*
X058030Y006411D02*
X058100Y006481D01*
X058240Y006481D01*
X058310Y006411D01*
X058310Y006341D01*
X058030Y006341D01*
X058030Y006271D02*
X058030Y006411D01*
X057647Y006481D02*
X057647Y006201D01*
X057396Y006201D02*
X057256Y006201D01*
X057186Y006271D01*
X058030Y006271D02*
X058100Y006201D01*
X058240Y006201D01*
X058491Y006271D02*
X058491Y006411D01*
X058561Y006481D01*
X058771Y006481D01*
X058771Y006622D02*
X058771Y006201D01*
X058561Y006201D01*
X058491Y006271D01*
X058091Y003872D02*
X058091Y003451D01*
X057951Y003451D02*
X058231Y003451D01*
X057951Y003731D02*
X058091Y003872D01*
X056841Y003872D02*
X056701Y003731D01*
X056841Y003872D02*
X056841Y003451D01*
X056701Y003451D02*
X056981Y003451D01*
X056911Y002872D02*
X056771Y002872D01*
X056701Y002802D01*
X056911Y002872D02*
X056981Y002802D01*
X056981Y002731D01*
X056701Y002451D01*
X056981Y002451D01*
X057951Y002451D02*
X058231Y002731D01*
X058231Y002802D01*
X058161Y002872D01*
X058021Y002872D01*
X057951Y002802D01*
X057951Y002451D02*
X058231Y002451D01*
X058161Y001872D02*
X058231Y001802D01*
X058231Y001731D01*
X058161Y001661D01*
X058231Y001591D01*
X058231Y001521D01*
X058161Y001451D01*
X058021Y001451D01*
X057951Y001521D01*
X058091Y001661D02*
X058161Y001661D01*
X058161Y001872D02*
X058021Y001872D01*
X057951Y001802D01*
X056981Y001802D02*
X056981Y001731D01*
X056911Y001661D01*
X056981Y001591D01*
X056981Y001521D01*
X056911Y001451D01*
X056771Y001451D01*
X056701Y001521D01*
X056841Y001661D02*
X056911Y001661D01*
X056981Y001802D02*
X056911Y001872D01*
X056771Y001872D01*
X056701Y001802D01*
D14*
X058911Y008661D03*
X052161Y008661D03*
X045161Y008661D03*
X031161Y008661D03*
X024161Y008661D03*
X017161Y008661D03*
X010161Y008661D03*
X003161Y008661D03*
D15*
X023213Y003873D02*
X023213Y003794D01*
X029113Y003794D01*
X029113Y001194D01*
X029113Y000253D01*
X023213Y000253D01*
X023213Y001194D01*
X023213Y003794D01*
X023213Y003873D02*
X029113Y003873D01*
X029113Y003794D01*
X027933Y003273D02*
X027935Y003301D01*
X027941Y003328D01*
X027950Y003354D01*
X027963Y003379D01*
X027980Y003402D01*
X027999Y003422D01*
X028021Y003439D01*
X028045Y003453D01*
X028071Y003463D01*
X028098Y003470D01*
X028126Y003473D01*
X028154Y003472D01*
X028181Y003467D01*
X028208Y003458D01*
X028233Y003446D01*
X028256Y003431D01*
X028277Y003412D01*
X028295Y003391D01*
X028310Y003367D01*
X028321Y003341D01*
X028329Y003315D01*
X028333Y003287D01*
X028333Y003259D01*
X028329Y003231D01*
X028321Y003205D01*
X028310Y003179D01*
X028295Y003155D01*
X028277Y003134D01*
X028256Y003115D01*
X028233Y003100D01*
X028208Y003088D01*
X028181Y003079D01*
X028154Y003074D01*
X028126Y003073D01*
X028098Y003076D01*
X028071Y003083D01*
X028045Y003093D01*
X028021Y003107D01*
X027999Y003124D01*
X027980Y003144D01*
X027963Y003167D01*
X027950Y003192D01*
X027941Y003218D01*
X027935Y003245D01*
X027933Y003273D01*
X025963Y003273D02*
X025965Y003301D01*
X025971Y003328D01*
X025980Y003354D01*
X025993Y003379D01*
X026010Y003402D01*
X026029Y003422D01*
X026051Y003439D01*
X026075Y003453D01*
X026101Y003463D01*
X026128Y003470D01*
X026156Y003473D01*
X026184Y003472D01*
X026211Y003467D01*
X026238Y003458D01*
X026263Y003446D01*
X026286Y003431D01*
X026307Y003412D01*
X026325Y003391D01*
X026340Y003367D01*
X026351Y003341D01*
X026359Y003315D01*
X026363Y003287D01*
X026363Y003259D01*
X026359Y003231D01*
X026351Y003205D01*
X026340Y003179D01*
X026325Y003155D01*
X026307Y003134D01*
X026286Y003115D01*
X026263Y003100D01*
X026238Y003088D01*
X026211Y003079D01*
X026184Y003074D01*
X026156Y003073D01*
X026128Y003076D01*
X026101Y003083D01*
X026075Y003093D01*
X026051Y003107D01*
X026029Y003124D01*
X026010Y003144D01*
X025993Y003167D01*
X025980Y003192D01*
X025971Y003218D01*
X025965Y003245D01*
X025963Y003273D01*
X023993Y003273D02*
X023995Y003301D01*
X024001Y003328D01*
X024010Y003354D01*
X024023Y003379D01*
X024040Y003402D01*
X024059Y003422D01*
X024081Y003439D01*
X024105Y003453D01*
X024131Y003463D01*
X024158Y003470D01*
X024186Y003473D01*
X024214Y003472D01*
X024241Y003467D01*
X024268Y003458D01*
X024293Y003446D01*
X024316Y003431D01*
X024337Y003412D01*
X024355Y003391D01*
X024370Y003367D01*
X024381Y003341D01*
X024389Y003315D01*
X024393Y003287D01*
X024393Y003259D01*
X024389Y003231D01*
X024381Y003205D01*
X024370Y003179D01*
X024355Y003155D01*
X024337Y003134D01*
X024316Y003115D01*
X024293Y003100D01*
X024268Y003088D01*
X024241Y003079D01*
X024214Y003074D01*
X024186Y003073D01*
X024158Y003076D01*
X024131Y003083D01*
X024105Y003093D01*
X024081Y003107D01*
X024059Y003124D01*
X024040Y003144D01*
X024023Y003167D01*
X024010Y003192D01*
X024001Y003218D01*
X023995Y003245D01*
X023993Y003273D01*
X032911Y003311D02*
X032911Y002511D01*
X033011Y002411D01*
X033811Y002411D01*
X033911Y002511D01*
X033911Y003311D01*
X033811Y003411D01*
X033911Y003511D01*
X033911Y004311D01*
X033811Y004411D01*
X033911Y004511D01*
X033911Y005311D01*
X033811Y005411D01*
X033011Y005411D01*
X032911Y005311D01*
X032911Y004511D01*
X033011Y004411D01*
X032911Y004311D01*
X032911Y003511D01*
X033011Y003411D01*
X032911Y003311D01*
X035841Y005101D02*
X036661Y005101D01*
X037661Y005101D01*
X038481Y005101D01*
X038504Y005103D01*
X038527Y005108D01*
X038549Y005117D01*
X038569Y005130D01*
X038587Y005145D01*
X038602Y005163D01*
X038615Y005183D01*
X038624Y005205D01*
X038629Y005228D01*
X038631Y005251D01*
X037661Y005101D02*
X037659Y005145D01*
X037653Y005188D01*
X037644Y005230D01*
X037631Y005272D01*
X037614Y005312D01*
X037594Y005351D01*
X037571Y005388D01*
X037544Y005422D01*
X037515Y005455D01*
X037482Y005484D01*
X037448Y005511D01*
X037411Y005534D01*
X037372Y005554D01*
X037332Y005571D01*
X037290Y005584D01*
X037248Y005593D01*
X037205Y005599D01*
X037161Y005601D01*
X037117Y005599D01*
X037074Y005593D01*
X037032Y005584D01*
X036990Y005571D01*
X036950Y005554D01*
X036911Y005534D01*
X036874Y005511D01*
X036840Y005484D01*
X036807Y005455D01*
X036778Y005422D01*
X036751Y005388D01*
X036728Y005351D01*
X036708Y005312D01*
X036691Y005272D01*
X036678Y005230D01*
X036669Y005188D01*
X036663Y005145D01*
X036661Y005101D01*
X035841Y005101D02*
X035818Y005103D01*
X035795Y005108D01*
X035773Y005117D01*
X035753Y005130D01*
X035735Y005145D01*
X035720Y005163D01*
X035707Y005183D01*
X035698Y005205D01*
X035693Y005228D01*
X035691Y005251D01*
X043261Y002361D02*
X043261Y010961D01*
X043311Y011011D02*
X044011Y011011D01*
X044011Y010311D01*
X043311Y010311D01*
X043311Y011011D01*
X043261Y010961D02*
X043263Y010987D01*
X043268Y011013D01*
X043276Y011038D01*
X043288Y011061D01*
X043302Y011083D01*
X043320Y011102D01*
X043339Y011120D01*
X043361Y011134D01*
X043384Y011146D01*
X043409Y011154D01*
X043435Y011159D01*
X043461Y011161D01*
X043861Y011161D01*
X043887Y011159D01*
X043913Y011154D01*
X043938Y011146D01*
X043961Y011134D01*
X043983Y011120D01*
X044002Y011102D01*
X044020Y011083D01*
X044034Y011061D01*
X044046Y011038D01*
X044054Y011013D01*
X044059Y010987D01*
X044061Y010961D01*
X044061Y002361D01*
X044059Y002335D01*
X044054Y002309D01*
X044046Y002284D01*
X044034Y002261D01*
X044020Y002239D01*
X044002Y002220D01*
X043983Y002202D01*
X043961Y002188D01*
X043938Y002176D01*
X043913Y002168D01*
X043887Y002163D01*
X043861Y002161D01*
X043461Y002161D01*
X043435Y002163D01*
X043409Y002168D01*
X043384Y002176D01*
X043361Y002188D01*
X043339Y002202D01*
X043320Y002220D01*
X043302Y002239D01*
X043288Y002261D01*
X043276Y002284D01*
X043268Y002309D01*
X043263Y002335D01*
X043261Y002361D01*
X029113Y001194D02*
X028483Y001194D01*
X027783Y001194D02*
X026513Y001194D01*
X025813Y001194D02*
X024543Y001194D01*
X023843Y001194D02*
X023213Y001194D01*
X035691Y010071D02*
X035693Y010094D01*
X035698Y010117D01*
X035707Y010139D01*
X035720Y010159D01*
X035735Y010177D01*
X035753Y010192D01*
X035773Y010205D01*
X035795Y010214D01*
X035818Y010219D01*
X035841Y010221D01*
X038481Y010221D01*
X038504Y010219D01*
X038527Y010214D01*
X038549Y010205D01*
X038569Y010192D01*
X038587Y010177D01*
X038602Y010159D01*
X038615Y010139D01*
X038624Y010117D01*
X038629Y010094D01*
X038631Y010071D01*
D16*
X038491Y010211D02*
X038491Y005111D01*
D17*
X037376Y004937D02*
X037376Y004486D01*
X037226Y004486D02*
X037526Y004486D01*
X037066Y004561D02*
X036991Y004486D01*
X036841Y004486D01*
X036765Y004561D01*
X036765Y004862D01*
X036841Y004937D01*
X036991Y004937D01*
X037066Y004862D01*
X037226Y004786D02*
X037376Y004937D01*
X036609Y004937D02*
X036459Y004937D01*
X036534Y004937D02*
X036534Y004486D01*
X036459Y004486D02*
X036609Y004486D01*
X034436Y004163D02*
X034436Y003936D01*
X034209Y004163D01*
X034153Y004163D01*
X034096Y004106D01*
X034096Y003993D01*
X034153Y003936D01*
X032736Y003757D02*
X032736Y003457D01*
X032736Y003607D02*
X032286Y003607D01*
X032436Y003457D01*
X032361Y003297D02*
X032511Y003297D01*
X032586Y003222D01*
X032586Y002997D01*
X032736Y002997D02*
X032286Y002997D01*
X032286Y003222D01*
X032361Y003297D01*
X034096Y003050D02*
X034209Y002936D01*
X034096Y003050D02*
X034436Y003050D01*
X034436Y003163D02*
X034436Y002936D01*
X035736Y002657D02*
X035811Y002657D01*
X036111Y002357D01*
X036186Y002357D01*
X035961Y002197D02*
X035811Y002197D01*
X035736Y002122D01*
X035736Y001897D01*
X036186Y001897D01*
X036036Y001897D02*
X036036Y002122D01*
X035961Y002197D01*
X035736Y002357D02*
X035736Y002657D01*
X032736Y002611D02*
X032736Y002686D01*
X032661Y002761D01*
X032286Y002761D01*
X032286Y002686D02*
X032286Y002836D01*
X032661Y002536D02*
X032736Y002611D01*
X029936Y002682D02*
X029861Y002607D01*
X029711Y002607D01*
X029711Y002832D01*
X029786Y002907D01*
X029861Y002907D01*
X029936Y002832D01*
X029936Y002682D01*
X029711Y002607D02*
X029561Y002757D01*
X029486Y002907D01*
X029561Y002447D02*
X029711Y002447D01*
X029786Y002372D01*
X029786Y002147D01*
X029936Y002147D02*
X029486Y002147D01*
X029486Y002372D01*
X029561Y002447D01*
X029486Y001986D02*
X029486Y001836D01*
X029486Y001911D02*
X029861Y001911D01*
X029936Y001836D01*
X029936Y001761D01*
X029861Y001686D01*
X035736Y001661D02*
X036111Y001661D01*
X036186Y001586D01*
X036186Y001511D01*
X036111Y001436D01*
X035736Y001586D02*
X035736Y001736D01*
X046305Y003811D02*
X046380Y003736D01*
X046455Y003736D01*
X046530Y003811D01*
X046530Y004187D01*
X046455Y004187D02*
X046605Y004187D01*
X046765Y004187D02*
X046991Y004187D01*
X047066Y004112D01*
X047066Y003961D01*
X046991Y003886D01*
X046765Y003886D01*
X046765Y003736D02*
X046765Y004187D01*
X047226Y004112D02*
X047301Y004187D01*
X047451Y004187D01*
X047526Y004112D01*
X047526Y004036D01*
X047451Y003961D01*
X047301Y003961D01*
X047226Y004036D01*
X047226Y004112D01*
X047301Y003961D02*
X047226Y003886D01*
X047226Y003811D01*
X047301Y003736D01*
X047451Y003736D01*
X047526Y003811D01*
X047526Y003886D01*
X047451Y003961D01*
X054986Y002582D02*
X054986Y002432D01*
X055061Y002357D01*
X055136Y002357D01*
X055211Y002432D01*
X055211Y002657D01*
X055061Y002657D02*
X054986Y002582D01*
X055061Y002657D02*
X055361Y002657D01*
X055436Y002582D01*
X055436Y002432D01*
X055361Y002357D01*
X055211Y002197D02*
X055286Y002122D01*
X055286Y001897D01*
X055436Y001897D02*
X054986Y001897D01*
X054986Y002122D01*
X055061Y002197D01*
X055211Y002197D01*
X054986Y001736D02*
X054986Y001586D01*
X054986Y001661D02*
X055361Y001661D01*
X055436Y001586D01*
X055436Y001511D01*
X055361Y001436D01*
X057170Y004236D02*
X057245Y004236D01*
X057320Y004311D01*
X057320Y004687D01*
X057245Y004687D02*
X057395Y004687D01*
X057555Y004687D02*
X057780Y004687D01*
X057855Y004612D01*
X057855Y004461D01*
X057780Y004386D01*
X057555Y004386D01*
X057555Y004236D02*
X057555Y004687D01*
X058015Y004536D02*
X058166Y004687D01*
X058166Y004236D01*
X058316Y004236D02*
X058015Y004236D01*
X058476Y004311D02*
X058776Y004612D01*
X058776Y004311D01*
X058701Y004236D01*
X058551Y004236D01*
X058476Y004311D01*
X058476Y004612D01*
X058551Y004687D01*
X058701Y004687D01*
X058776Y004612D01*
X057170Y004236D02*
X057095Y004311D01*
X034436Y004993D02*
X034380Y004936D01*
X034436Y004993D02*
X034436Y005106D01*
X034380Y005163D01*
X034323Y005163D01*
X034266Y005106D01*
X034266Y005050D01*
X034266Y005106D02*
X034209Y005163D01*
X034153Y005163D01*
X034096Y005106D01*
X034096Y004993D01*
X034153Y004936D01*
X021186Y003582D02*
X021186Y003432D01*
X021111Y003357D01*
X020961Y003357D02*
X020886Y003507D01*
X020886Y003582D01*
X020961Y003657D01*
X021111Y003657D01*
X021186Y003582D01*
X020736Y003657D02*
X020736Y003357D01*
X020961Y003357D01*
X020961Y003197D02*
X021036Y003122D01*
X021036Y002897D01*
X021186Y002897D02*
X020736Y002897D01*
X020736Y003122D01*
X020811Y003197D01*
X020961Y003197D01*
X020736Y002736D02*
X020736Y002586D01*
X020736Y002661D02*
X021111Y002661D01*
X021186Y002586D01*
X021186Y002511D01*
X021111Y002436D01*
X021158Y001324D02*
X021083Y001249D01*
X021083Y000949D01*
X021158Y000874D01*
X021308Y000874D01*
X021383Y000949D01*
X021544Y000949D02*
X021619Y000874D01*
X021769Y000874D01*
X021844Y000949D01*
X021844Y001249D01*
X021769Y001324D01*
X021619Y001324D01*
X021544Y001249D01*
X021544Y000949D01*
X022004Y000874D02*
X022004Y001324D01*
X022304Y000874D01*
X022304Y001324D01*
X022464Y001249D02*
X022539Y001324D01*
X022689Y001324D01*
X022765Y001249D01*
X022765Y001174D01*
X022464Y000874D01*
X022765Y000874D01*
X021383Y001249D02*
X021308Y001324D01*
X021158Y001324D01*
X015186Y001511D02*
X015186Y001586D01*
X015111Y001661D01*
X014736Y001661D01*
X014736Y001586D02*
X014736Y001736D01*
X014736Y001897D02*
X014736Y002122D01*
X014811Y002197D01*
X014961Y002197D01*
X015036Y002122D01*
X015036Y001897D01*
X015186Y001897D02*
X014736Y001897D01*
X015186Y001511D02*
X015111Y001436D01*
X012686Y001511D02*
X012686Y001586D01*
X012611Y001661D01*
X012236Y001661D01*
X012236Y001586D02*
X012236Y001736D01*
X012236Y001897D02*
X012236Y002122D01*
X012311Y002197D01*
X012461Y002197D01*
X012536Y002122D01*
X012536Y001897D01*
X012686Y001897D02*
X012236Y001897D01*
X012686Y001511D02*
X012611Y001436D01*
X012611Y002357D02*
X012686Y002432D01*
X012686Y002582D01*
X012611Y002657D01*
X012536Y002657D01*
X012461Y002582D01*
X012461Y002507D01*
X012461Y002582D02*
X012386Y002657D01*
X012311Y002657D01*
X012236Y002582D01*
X012236Y002432D01*
X012311Y002357D01*
X014736Y002582D02*
X014961Y002357D01*
X014961Y002657D01*
X015186Y002582D02*
X014736Y002582D01*
X003730Y003787D02*
X003730Y005362D01*
X002848Y005362D01*
X002785Y005299D02*
X002787Y005285D01*
X002791Y005272D01*
X002799Y005260D01*
X002809Y005250D01*
X002821Y005242D01*
X002834Y005238D01*
X002848Y005236D01*
X002785Y005299D02*
X002787Y005313D01*
X002791Y005326D01*
X002799Y005338D01*
X002809Y005348D01*
X002821Y005356D01*
X002834Y005360D01*
X002848Y005362D01*
X002848Y005236D02*
X002868Y005234D01*
X002887Y005230D01*
X002905Y005222D01*
X002922Y005212D01*
X002937Y005199D01*
X002950Y005184D01*
X002960Y005167D01*
X002968Y005149D01*
X002972Y005130D01*
X002974Y005110D01*
X002911Y004669D01*
X002911Y004606D01*
X002913Y004550D01*
X002919Y004494D01*
X002928Y004439D01*
X002941Y004385D01*
X002958Y004332D01*
X002979Y004280D01*
X003003Y004229D01*
X003030Y004180D01*
X003061Y004134D01*
X003095Y004089D01*
X003131Y004047D01*
X003171Y004007D01*
X003213Y003971D01*
X003258Y003937D01*
X003304Y003906D01*
X003353Y003879D01*
X003404Y003855D01*
X003456Y003834D01*
X003509Y003817D01*
X003563Y003804D01*
X003618Y003795D01*
X003674Y003789D01*
X003730Y003787D01*
X001186Y002657D02*
X001186Y002357D01*
X000886Y002657D01*
X000811Y002657D01*
X000736Y002582D01*
X000736Y002432D01*
X000811Y002357D01*
X000811Y002197D02*
X000961Y002197D01*
X001036Y002122D01*
X001036Y001897D01*
X001186Y001897D02*
X000736Y001897D01*
X000736Y002122D01*
X000811Y002197D01*
X000736Y001736D02*
X000736Y001586D01*
X000736Y001661D02*
X001111Y001661D01*
X001186Y001586D01*
X001186Y001511D01*
X001111Y001436D01*
X002974Y005110D02*
X002974Y005110D01*
X003541Y005740D02*
X003520Y005742D01*
X003500Y005747D01*
X003481Y005755D01*
X003464Y005767D01*
X003448Y005781D01*
X003436Y005797D01*
X003426Y005815D01*
X003419Y005835D01*
X003415Y005856D01*
X003415Y005876D01*
X003419Y005897D01*
X003426Y005917D01*
X003436Y005935D01*
X003448Y005951D01*
X003464Y005965D01*
X003481Y005977D01*
X003500Y005985D01*
X003520Y005990D01*
X003541Y005992D01*
X003562Y005994D01*
X003582Y005999D01*
X003601Y006007D01*
X003618Y006019D01*
X003634Y006033D01*
X003646Y006049D01*
X003656Y006067D01*
X003663Y006087D01*
X003667Y006108D01*
X003667Y006128D01*
X003663Y006149D01*
X003656Y006169D01*
X003646Y006187D01*
X003634Y006203D01*
X003618Y006217D01*
X003601Y006229D01*
X003582Y006237D01*
X003562Y006242D01*
X003541Y006244D01*
X003520Y006246D01*
X003500Y006251D01*
X003481Y006259D01*
X003464Y006271D01*
X003448Y006285D01*
X003436Y006301D01*
X003426Y006319D01*
X003419Y006339D01*
X003415Y006360D01*
X003415Y006380D01*
X003419Y006401D01*
X003426Y006421D01*
X003436Y006439D01*
X003448Y006455D01*
X003464Y006469D01*
X003481Y006481D01*
X003500Y006489D01*
X003520Y006494D01*
X003541Y006496D01*
X003562Y006498D01*
X003582Y006503D01*
X003601Y006511D01*
X003618Y006523D01*
X003634Y006537D01*
X003646Y006553D01*
X003656Y006571D01*
X003663Y006591D01*
X003667Y006612D01*
X003667Y006632D01*
X003663Y006653D01*
X003656Y006673D01*
X003646Y006691D01*
X003634Y006707D01*
X003618Y006721D01*
X003601Y006733D01*
X003582Y006741D01*
X003562Y006746D01*
X003541Y006748D01*
X004045Y006622D02*
X004066Y006624D01*
X004086Y006629D01*
X004105Y006637D01*
X004122Y006649D01*
X004138Y006663D01*
X004150Y006679D01*
X004160Y006697D01*
X004167Y006717D01*
X004171Y006738D01*
X004171Y006758D01*
X004167Y006779D01*
X004160Y006799D01*
X004150Y006817D01*
X004138Y006833D01*
X004122Y006847D01*
X004105Y006859D01*
X004086Y006867D01*
X004066Y006872D01*
X004045Y006874D01*
X004549Y006748D02*
X004570Y006746D01*
X004590Y006741D01*
X004609Y006733D01*
X004626Y006721D01*
X004642Y006707D01*
X004654Y006691D01*
X004664Y006673D01*
X004671Y006653D01*
X004675Y006632D01*
X004675Y006612D01*
X004671Y006591D01*
X004664Y006571D01*
X004654Y006553D01*
X004642Y006537D01*
X004626Y006523D01*
X004609Y006511D01*
X004590Y006503D01*
X004570Y006498D01*
X004549Y006496D01*
X004528Y006494D01*
X004508Y006489D01*
X004489Y006481D01*
X004472Y006469D01*
X004456Y006455D01*
X004444Y006439D01*
X004434Y006421D01*
X004427Y006401D01*
X004423Y006380D01*
X004423Y006360D01*
X004427Y006339D01*
X004434Y006319D01*
X004444Y006301D01*
X004456Y006285D01*
X004472Y006271D01*
X004489Y006259D01*
X004508Y006251D01*
X004528Y006246D01*
X004549Y006244D01*
X004570Y006242D01*
X004590Y006237D01*
X004609Y006229D01*
X004626Y006217D01*
X004642Y006203D01*
X004654Y006187D01*
X004664Y006169D01*
X004671Y006149D01*
X004675Y006128D01*
X004675Y006108D01*
X004671Y006087D01*
X004664Y006067D01*
X004654Y006049D01*
X004642Y006033D01*
X004626Y006019D01*
X004609Y006007D01*
X004590Y005999D01*
X004570Y005994D01*
X004549Y005992D01*
X004528Y005990D01*
X004508Y005985D01*
X004489Y005977D01*
X004472Y005965D01*
X004456Y005951D01*
X004444Y005935D01*
X004434Y005917D01*
X004427Y005897D01*
X004423Y005876D01*
X004423Y005856D01*
X004427Y005835D01*
X004434Y005815D01*
X004444Y005797D01*
X004456Y005781D01*
X004472Y005767D01*
X004489Y005755D01*
X004508Y005747D01*
X004528Y005742D01*
X004549Y005740D01*
X004045Y005866D02*
X004024Y005868D01*
X004004Y005873D01*
X003985Y005881D01*
X003968Y005893D01*
X003952Y005907D01*
X003940Y005923D01*
X003930Y005941D01*
X003923Y005961D01*
X003919Y005982D01*
X003919Y006002D01*
X003923Y006023D01*
X003930Y006043D01*
X003940Y006061D01*
X003952Y006077D01*
X003968Y006091D01*
X003985Y006103D01*
X004004Y006111D01*
X004024Y006116D01*
X004045Y006118D01*
X004066Y006120D01*
X004086Y006125D01*
X004105Y006133D01*
X004122Y006145D01*
X004138Y006159D01*
X004150Y006175D01*
X004160Y006193D01*
X004167Y006213D01*
X004171Y006234D01*
X004171Y006254D01*
X004167Y006275D01*
X004160Y006295D01*
X004150Y006313D01*
X004138Y006329D01*
X004122Y006343D01*
X004105Y006355D01*
X004086Y006363D01*
X004066Y006368D01*
X004045Y006370D01*
X004024Y006372D01*
X004004Y006377D01*
X003985Y006385D01*
X003968Y006397D01*
X003952Y006411D01*
X003940Y006427D01*
X003930Y006445D01*
X003923Y006465D01*
X003919Y006486D01*
X003919Y006506D01*
X003923Y006527D01*
X003930Y006547D01*
X003940Y006565D01*
X003952Y006581D01*
X003968Y006595D01*
X003985Y006607D01*
X004004Y006615D01*
X004024Y006620D01*
X004045Y006622D01*
X043486Y011341D02*
X043599Y011227D01*
X043486Y011341D02*
X043826Y011341D01*
X043826Y011454D02*
X043826Y011227D01*
X044636Y011026D02*
X044636Y010726D01*
X044636Y010876D02*
X044186Y010876D01*
X044336Y010726D01*
X044186Y010566D02*
X044636Y010566D01*
X044186Y010265D01*
X044636Y010265D01*
X044636Y010105D02*
X044486Y009955D01*
X044486Y010030D02*
X044486Y009805D01*
X044636Y009805D02*
X044186Y009805D01*
X044186Y010030D01*
X044261Y010105D01*
X044411Y010105D01*
X044486Y010030D01*
D18*
X021661Y004661D02*
X021661Y004031D01*
X021661Y002841D02*
X021661Y002481D01*
X015661Y003031D02*
X015661Y003661D01*
X013161Y003661D02*
X013161Y003031D01*
X013161Y001841D02*
X013161Y001481D01*
X015661Y001481D02*
X015661Y001841D01*
X001661Y001841D02*
X001661Y001481D01*
X001661Y003031D02*
X001661Y003661D01*
X030411Y003911D02*
X030411Y003281D01*
X030411Y002091D02*
X030411Y001731D01*
X036661Y001841D02*
X036661Y001481D01*
X036661Y003031D02*
X036661Y003661D01*
X045161Y003661D02*
X045161Y003031D01*
X045161Y001841D02*
X045161Y001481D01*
X055911Y001481D02*
X055911Y001841D01*
X058911Y001841D02*
X058911Y001481D01*
X058911Y003031D02*
X058911Y003661D01*
X055911Y003661D02*
X055911Y003031D01*
D19*
X048161Y002661D02*
X048163Y002715D01*
X048169Y002769D01*
X048179Y002822D01*
X048192Y002875D01*
X048209Y002926D01*
X048230Y002976D01*
X048255Y003024D01*
X048283Y003071D01*
X048314Y003115D01*
X048348Y003157D01*
X048385Y003196D01*
X048425Y003233D01*
X048468Y003266D01*
X048513Y003297D01*
X048560Y003324D01*
X048608Y003347D01*
X048659Y003367D01*
X048710Y003384D01*
X048763Y003396D01*
X048816Y003405D01*
X048870Y003410D01*
X048925Y003411D01*
X048979Y003408D01*
X049032Y003401D01*
X049085Y003390D01*
X049138Y003376D01*
X049189Y003358D01*
X049238Y003336D01*
X049286Y003311D01*
X049332Y003282D01*
X049376Y003250D01*
X049417Y003215D01*
X049455Y003177D01*
X049491Y003136D01*
X049524Y003093D01*
X049554Y003048D01*
X049580Y003000D01*
X049603Y002951D01*
X049622Y002900D01*
X049637Y002849D01*
X049649Y002796D01*
X049657Y002742D01*
X049661Y002688D01*
X049661Y002634D01*
X049657Y002580D01*
X049649Y002526D01*
X049637Y002473D01*
X049622Y002422D01*
X049603Y002371D01*
X049580Y002322D01*
X049554Y002274D01*
X049524Y002229D01*
X049491Y002186D01*
X049455Y002145D01*
X049417Y002107D01*
X049376Y002072D01*
X049332Y002040D01*
X049286Y002011D01*
X049238Y001986D01*
X049189Y001964D01*
X049138Y001946D01*
X049085Y001932D01*
X049032Y001921D01*
X048979Y001914D01*
X048925Y001911D01*
X048870Y001912D01*
X048816Y001917D01*
X048763Y001926D01*
X048710Y001938D01*
X048659Y001955D01*
X048608Y001975D01*
X048560Y001998D01*
X048513Y002025D01*
X048468Y002056D01*
X048425Y002089D01*
X048385Y002126D01*
X048348Y002165D01*
X048314Y002207D01*
X048283Y002251D01*
X048255Y002298D01*
X048230Y002346D01*
X048209Y002396D01*
X048192Y002447D01*
X048179Y002500D01*
X048169Y002553D01*
X048163Y002607D01*
X048161Y002661D01*
X048161Y009161D02*
X048163Y009215D01*
X048169Y009269D01*
X048179Y009322D01*
X048192Y009375D01*
X048209Y009426D01*
X048230Y009476D01*
X048255Y009524D01*
X048283Y009571D01*
X048314Y009615D01*
X048348Y009657D01*
X048385Y009696D01*
X048425Y009733D01*
X048468Y009766D01*
X048513Y009797D01*
X048560Y009824D01*
X048608Y009847D01*
X048659Y009867D01*
X048710Y009884D01*
X048763Y009896D01*
X048816Y009905D01*
X048870Y009910D01*
X048925Y009911D01*
X048979Y009908D01*
X049032Y009901D01*
X049085Y009890D01*
X049138Y009876D01*
X049189Y009858D01*
X049238Y009836D01*
X049286Y009811D01*
X049332Y009782D01*
X049376Y009750D01*
X049417Y009715D01*
X049455Y009677D01*
X049491Y009636D01*
X049524Y009593D01*
X049554Y009548D01*
X049580Y009500D01*
X049603Y009451D01*
X049622Y009400D01*
X049637Y009349D01*
X049649Y009296D01*
X049657Y009242D01*
X049661Y009188D01*
X049661Y009134D01*
X049657Y009080D01*
X049649Y009026D01*
X049637Y008973D01*
X049622Y008922D01*
X049603Y008871D01*
X049580Y008822D01*
X049554Y008774D01*
X049524Y008729D01*
X049491Y008686D01*
X049455Y008645D01*
X049417Y008607D01*
X049376Y008572D01*
X049332Y008540D01*
X049286Y008511D01*
X049238Y008486D01*
X049189Y008464D01*
X049138Y008446D01*
X049085Y008432D01*
X049032Y008421D01*
X048979Y008414D01*
X048925Y008411D01*
X048870Y008412D01*
X048816Y008417D01*
X048763Y008426D01*
X048710Y008438D01*
X048659Y008455D01*
X048608Y008475D01*
X048560Y008498D01*
X048513Y008525D01*
X048468Y008556D01*
X048425Y008589D01*
X048385Y008626D01*
X048348Y008665D01*
X048314Y008707D01*
X048283Y008751D01*
X048255Y008798D01*
X048230Y008846D01*
X048209Y008896D01*
X048192Y008947D01*
X048179Y009000D01*
X048169Y009053D01*
X048163Y009107D01*
X048161Y009161D01*
X004911Y009161D02*
X004913Y009215D01*
X004919Y009269D01*
X004929Y009322D01*
X004942Y009375D01*
X004959Y009426D01*
X004980Y009476D01*
X005005Y009524D01*
X005033Y009571D01*
X005064Y009615D01*
X005098Y009657D01*
X005135Y009696D01*
X005175Y009733D01*
X005218Y009766D01*
X005263Y009797D01*
X005310Y009824D01*
X005358Y009847D01*
X005409Y009867D01*
X005460Y009884D01*
X005513Y009896D01*
X005566Y009905D01*
X005620Y009910D01*
X005675Y009911D01*
X005729Y009908D01*
X005782Y009901D01*
X005835Y009890D01*
X005888Y009876D01*
X005939Y009858D01*
X005988Y009836D01*
X006036Y009811D01*
X006082Y009782D01*
X006126Y009750D01*
X006167Y009715D01*
X006205Y009677D01*
X006241Y009636D01*
X006274Y009593D01*
X006304Y009548D01*
X006330Y009500D01*
X006353Y009451D01*
X006372Y009400D01*
X006387Y009349D01*
X006399Y009296D01*
X006407Y009242D01*
X006411Y009188D01*
X006411Y009134D01*
X006407Y009080D01*
X006399Y009026D01*
X006387Y008973D01*
X006372Y008922D01*
X006353Y008871D01*
X006330Y008822D01*
X006304Y008774D01*
X006274Y008729D01*
X006241Y008686D01*
X006205Y008645D01*
X006167Y008607D01*
X006126Y008572D01*
X006082Y008540D01*
X006036Y008511D01*
X005988Y008486D01*
X005939Y008464D01*
X005888Y008446D01*
X005835Y008432D01*
X005782Y008421D01*
X005729Y008414D01*
X005675Y008411D01*
X005620Y008412D01*
X005566Y008417D01*
X005513Y008426D01*
X005460Y008438D01*
X005409Y008455D01*
X005358Y008475D01*
X005310Y008498D01*
X005263Y008525D01*
X005218Y008556D01*
X005175Y008589D01*
X005135Y008626D01*
X005098Y008665D01*
X005064Y008707D01*
X005033Y008751D01*
X005005Y008798D01*
X004980Y008846D01*
X004959Y008896D01*
X004942Y008947D01*
X004929Y009000D01*
X004919Y009053D01*
X004913Y009107D01*
X004911Y009161D01*
X004911Y002661D02*
X004913Y002715D01*
X004919Y002769D01*
X004929Y002822D01*
X004942Y002875D01*
X004959Y002926D01*
X004980Y002976D01*
X005005Y003024D01*
X005033Y003071D01*
X005064Y003115D01*
X005098Y003157D01*
X005135Y003196D01*
X005175Y003233D01*
X005218Y003266D01*
X005263Y003297D01*
X005310Y003324D01*
X005358Y003347D01*
X005409Y003367D01*
X005460Y003384D01*
X005513Y003396D01*
X005566Y003405D01*
X005620Y003410D01*
X005675Y003411D01*
X005729Y003408D01*
X005782Y003401D01*
X005835Y003390D01*
X005888Y003376D01*
X005939Y003358D01*
X005988Y003336D01*
X006036Y003311D01*
X006082Y003282D01*
X006126Y003250D01*
X006167Y003215D01*
X006205Y003177D01*
X006241Y003136D01*
X006274Y003093D01*
X006304Y003048D01*
X006330Y003000D01*
X006353Y002951D01*
X006372Y002900D01*
X006387Y002849D01*
X006399Y002796D01*
X006407Y002742D01*
X006411Y002688D01*
X006411Y002634D01*
X006407Y002580D01*
X006399Y002526D01*
X006387Y002473D01*
X006372Y002422D01*
X006353Y002371D01*
X006330Y002322D01*
X006304Y002274D01*
X006274Y002229D01*
X006241Y002186D01*
X006205Y002145D01*
X006167Y002107D01*
X006126Y002072D01*
X006082Y002040D01*
X006036Y002011D01*
X005988Y001986D01*
X005939Y001964D01*
X005888Y001946D01*
X005835Y001932D01*
X005782Y001921D01*
X005729Y001914D01*
X005675Y001911D01*
X005620Y001912D01*
X005566Y001917D01*
X005513Y001926D01*
X005460Y001938D01*
X005409Y001955D01*
X005358Y001975D01*
X005310Y001998D01*
X005263Y002025D01*
X005218Y002056D01*
X005175Y002089D01*
X005135Y002126D01*
X005098Y002165D01*
X005064Y002207D01*
X005033Y002251D01*
X005005Y002298D01*
X004980Y002346D01*
X004959Y002396D01*
X004942Y002447D01*
X004929Y002500D01*
X004919Y002553D01*
X004913Y002607D01*
X004911Y002661D01*
D20*
X004861Y002661D02*
X004511Y002661D01*
X004561Y002311D01*
X004761Y001961D01*
X005111Y001661D01*
X005661Y001511D01*
X005661Y001861D01*
X005311Y001961D01*
X005011Y002211D01*
X004861Y002661D01*
X004873Y002625D02*
X004516Y002625D01*
X004531Y002526D02*
X004906Y002526D01*
X004939Y002428D02*
X004545Y002428D01*
X004559Y002329D02*
X004972Y002329D01*
X005005Y002231D02*
X004607Y002231D01*
X004664Y002132D02*
X005106Y002132D01*
X005224Y002034D02*
X004720Y002034D01*
X004792Y001935D02*
X005403Y001935D01*
X005661Y001836D02*
X004907Y001836D01*
X005022Y001738D02*
X005661Y001738D01*
X005661Y001639D02*
X005191Y001639D01*
X005553Y001541D02*
X005661Y001541D01*
X006461Y002661D02*
X006811Y002661D01*
X006761Y003011D01*
X006561Y003361D01*
X006211Y003661D01*
X005661Y003811D01*
X005661Y003461D01*
X006011Y003361D01*
X006311Y003111D01*
X006461Y002661D01*
X006441Y002723D02*
X006802Y002723D01*
X006788Y002822D02*
X006408Y002822D01*
X006375Y002920D02*
X006774Y002920D01*
X006757Y003019D02*
X006342Y003019D01*
X006304Y003118D02*
X006701Y003118D01*
X006644Y003216D02*
X006185Y003216D01*
X006067Y003315D02*
X006588Y003315D01*
X006501Y003413D02*
X005829Y003413D01*
X005661Y003512D02*
X006386Y003512D01*
X006271Y003610D02*
X005661Y003610D01*
X005661Y003709D02*
X006037Y003709D01*
X005676Y003807D02*
X005661Y003807D01*
X005661Y008011D02*
X005111Y008161D01*
X004761Y008461D01*
X004561Y008811D01*
X004511Y009161D01*
X004861Y009161D01*
X005011Y008711D01*
X005311Y008461D01*
X005661Y008361D01*
X005661Y008011D01*
X005661Y008045D02*
X005539Y008045D01*
X005661Y008143D02*
X005177Y008143D01*
X005017Y008242D02*
X005661Y008242D01*
X005661Y008340D02*
X004902Y008340D01*
X004787Y008439D02*
X005390Y008439D01*
X005220Y008537D02*
X004718Y008537D01*
X004661Y008636D02*
X005102Y008636D01*
X005004Y008735D02*
X004605Y008735D01*
X004558Y008833D02*
X004971Y008833D01*
X004938Y008932D02*
X004544Y008932D01*
X004530Y009030D02*
X004905Y009030D01*
X004872Y009129D02*
X004516Y009129D01*
X006311Y009611D02*
X006461Y009161D01*
X006811Y009161D01*
X006761Y009511D01*
X006561Y009861D01*
X006211Y010161D01*
X005661Y010311D01*
X005661Y010311D01*
X005661Y009961D01*
X006011Y009861D01*
X006311Y009611D01*
X006299Y009621D02*
X006698Y009621D01*
X006755Y009523D02*
X006341Y009523D01*
X006374Y009424D02*
X006774Y009424D01*
X006788Y009326D02*
X006406Y009326D01*
X006439Y009227D02*
X006802Y009227D01*
X006642Y009720D02*
X006181Y009720D01*
X006063Y009819D02*
X006586Y009819D01*
X006496Y009917D02*
X005816Y009917D01*
X005661Y010016D02*
X006381Y010016D01*
X006266Y010114D02*
X005661Y010114D01*
X005661Y010213D02*
X006023Y010213D01*
X040661Y011161D02*
X042411Y011161D01*
X042411Y002161D01*
X040661Y002161D01*
X040661Y011161D01*
X042411Y011161D02*
X043161Y011161D01*
X043161Y002161D01*
X042411Y002161D01*
X047761Y002661D02*
X047811Y002311D01*
X048011Y001961D01*
X048361Y001661D01*
X048911Y001511D01*
X048911Y001861D01*
X048561Y001961D01*
X048261Y002211D01*
X048111Y002661D01*
X047761Y002661D01*
X047766Y002625D02*
X048123Y002625D01*
X048156Y002526D02*
X047781Y002526D01*
X047795Y002428D02*
X048189Y002428D01*
X048222Y002329D02*
X047809Y002329D01*
X047857Y002231D02*
X048255Y002231D01*
X048356Y002132D02*
X047914Y002132D01*
X047970Y002034D02*
X048474Y002034D01*
X048653Y001935D02*
X048042Y001935D01*
X048157Y001836D02*
X048911Y001836D01*
X048911Y001738D02*
X048272Y001738D01*
X048441Y001639D02*
X048911Y001639D01*
X048911Y001541D02*
X048803Y001541D01*
X049711Y002661D02*
X050061Y002661D01*
X050011Y003011D01*
X049811Y003361D01*
X049461Y003661D01*
X048911Y003811D01*
X048911Y003461D01*
X049261Y003361D01*
X049561Y003111D01*
X049711Y002661D01*
X049691Y002723D02*
X050052Y002723D01*
X050038Y002822D02*
X049658Y002822D01*
X049625Y002920D02*
X050024Y002920D01*
X050007Y003019D02*
X049592Y003019D01*
X049554Y003118D02*
X049951Y003118D01*
X049894Y003216D02*
X049435Y003216D01*
X049317Y003315D02*
X049838Y003315D01*
X049751Y003413D02*
X049079Y003413D01*
X048911Y003512D02*
X049636Y003512D01*
X049521Y003610D02*
X048911Y003610D01*
X048911Y003709D02*
X049287Y003709D01*
X048926Y003807D02*
X048911Y003807D01*
X048911Y008011D02*
X048361Y008161D01*
X048011Y008461D01*
X047811Y008811D01*
X047761Y009161D01*
X048111Y009161D01*
X048261Y008711D01*
X048561Y008461D01*
X048911Y008361D01*
X048911Y008011D01*
X048911Y008045D02*
X048789Y008045D01*
X048911Y008143D02*
X048427Y008143D01*
X048267Y008242D02*
X048911Y008242D01*
X048911Y008340D02*
X048152Y008340D01*
X048037Y008439D02*
X048640Y008439D01*
X048470Y008537D02*
X047968Y008537D01*
X047911Y008636D02*
X048352Y008636D01*
X048254Y008735D02*
X047855Y008735D01*
X047808Y008833D02*
X048221Y008833D01*
X048188Y008932D02*
X047794Y008932D01*
X047780Y009030D02*
X048155Y009030D01*
X048122Y009129D02*
X047766Y009129D01*
X049561Y009611D02*
X049711Y009161D01*
X050061Y009161D01*
X050011Y009511D01*
X049811Y009861D01*
X049461Y010161D01*
X048911Y010311D01*
X048911Y010311D01*
X048911Y009961D01*
X049261Y009861D01*
X049561Y009611D01*
X049549Y009621D02*
X049948Y009621D01*
X050005Y009523D02*
X049591Y009523D01*
X049624Y009424D02*
X050024Y009424D01*
X050038Y009326D02*
X049656Y009326D01*
X049689Y009227D02*
X050052Y009227D01*
X049892Y009720D02*
X049431Y009720D01*
X049313Y009819D02*
X049836Y009819D01*
X049746Y009917D02*
X049066Y009917D01*
X048911Y010016D02*
X049631Y010016D01*
X049516Y010114D02*
X048911Y010114D01*
X048911Y010213D02*
X049273Y010213D01*
D21*
X039391Y004526D02*
X039391Y004286D01*
X039391Y004406D02*
X039031Y004406D01*
X039151Y004286D01*
X039031Y004158D02*
X039391Y004158D01*
X039031Y003918D01*
X039391Y003918D01*
X039331Y003790D02*
X039091Y003790D01*
X039031Y003730D01*
X039031Y003610D01*
X039091Y003550D01*
X039331Y003550D01*
X039391Y003610D01*
X039391Y003730D01*
X039331Y003790D01*
X039331Y003421D02*
X039391Y003361D01*
X039391Y003241D01*
X039331Y003181D01*
X039091Y003181D01*
X039031Y003241D01*
X039031Y003361D01*
X039091Y003421D01*
D22*
X006251Y005614D02*
X006185Y005645D01*
X006117Y005673D01*
X006048Y005697D01*
X005978Y005718D01*
X005907Y005735D01*
X005835Y005748D01*
X005763Y005758D01*
X005690Y005764D01*
X005617Y005766D01*
X005544Y005764D01*
X005471Y005759D01*
X005399Y005750D01*
X005327Y005737D01*
X005256Y005721D01*
X005185Y005701D01*
X005116Y005677D01*
X004612Y005488D01*
M02*
