G75*
G70*
%OFA0B0*%
%FSLAX24Y24*%
%IPPOS*%
%LPD*%
%AMOC8*
5,1,8,0,0,1.08239X$1,22.5*
%
%ADD10C,0.0000*%
%ADD11R,0.0512X0.0630*%
%ADD12OC8,0.0554*%
%ADD13OC8,0.0520*%
%ADD14R,0.0630X0.0512*%
%ADD15R,0.0866X0.0591*%
%ADD16C,0.0600*%
%ADD17OC8,0.1000*%
%ADD18C,0.0240*%
%ADD19C,0.0160*%
%ADD20C,0.0200*%
D10*
X000181Y000181D02*
X000181Y018801D01*
X044674Y018801D01*
X044674Y000181D01*
X000181Y000181D01*
X007281Y004181D02*
X007283Y004231D01*
X007289Y004281D01*
X007299Y004331D01*
X007312Y004379D01*
X007329Y004427D01*
X007350Y004473D01*
X007374Y004517D01*
X007402Y004559D01*
X007433Y004599D01*
X007467Y004636D01*
X007504Y004671D01*
X007543Y004702D01*
X007584Y004731D01*
X007628Y004756D01*
X007674Y004778D01*
X007721Y004796D01*
X007769Y004810D01*
X007818Y004821D01*
X007868Y004828D01*
X007918Y004831D01*
X007969Y004830D01*
X008019Y004825D01*
X008069Y004816D01*
X008117Y004804D01*
X008165Y004787D01*
X008211Y004767D01*
X008256Y004744D01*
X008299Y004717D01*
X008339Y004687D01*
X008377Y004654D01*
X008412Y004618D01*
X008445Y004579D01*
X008474Y004538D01*
X008500Y004495D01*
X008523Y004450D01*
X008542Y004403D01*
X008557Y004355D01*
X008569Y004306D01*
X008577Y004256D01*
X008581Y004206D01*
X008581Y004156D01*
X008577Y004106D01*
X008569Y004056D01*
X008557Y004007D01*
X008542Y003959D01*
X008523Y003912D01*
X008500Y003867D01*
X008474Y003824D01*
X008445Y003783D01*
X008412Y003744D01*
X008377Y003708D01*
X008339Y003675D01*
X008299Y003645D01*
X008256Y003618D01*
X008211Y003595D01*
X008165Y003575D01*
X008117Y003558D01*
X008069Y003546D01*
X008019Y003537D01*
X007969Y003532D01*
X007918Y003531D01*
X007868Y003534D01*
X007818Y003541D01*
X007769Y003552D01*
X007721Y003566D01*
X007674Y003584D01*
X007628Y003606D01*
X007584Y003631D01*
X007543Y003660D01*
X007504Y003691D01*
X007467Y003726D01*
X007433Y003763D01*
X007402Y003803D01*
X007374Y003845D01*
X007350Y003889D01*
X007329Y003935D01*
X007312Y003983D01*
X007299Y004031D01*
X007289Y004081D01*
X007283Y004131D01*
X007281Y004181D01*
X007281Y014681D02*
X007283Y014731D01*
X007289Y014781D01*
X007299Y014831D01*
X007312Y014879D01*
X007329Y014927D01*
X007350Y014973D01*
X007374Y015017D01*
X007402Y015059D01*
X007433Y015099D01*
X007467Y015136D01*
X007504Y015171D01*
X007543Y015202D01*
X007584Y015231D01*
X007628Y015256D01*
X007674Y015278D01*
X007721Y015296D01*
X007769Y015310D01*
X007818Y015321D01*
X007868Y015328D01*
X007918Y015331D01*
X007969Y015330D01*
X008019Y015325D01*
X008069Y015316D01*
X008117Y015304D01*
X008165Y015287D01*
X008211Y015267D01*
X008256Y015244D01*
X008299Y015217D01*
X008339Y015187D01*
X008377Y015154D01*
X008412Y015118D01*
X008445Y015079D01*
X008474Y015038D01*
X008500Y014995D01*
X008523Y014950D01*
X008542Y014903D01*
X008557Y014855D01*
X008569Y014806D01*
X008577Y014756D01*
X008581Y014706D01*
X008581Y014656D01*
X008577Y014606D01*
X008569Y014556D01*
X008557Y014507D01*
X008542Y014459D01*
X008523Y014412D01*
X008500Y014367D01*
X008474Y014324D01*
X008445Y014283D01*
X008412Y014244D01*
X008377Y014208D01*
X008339Y014175D01*
X008299Y014145D01*
X008256Y014118D01*
X008211Y014095D01*
X008165Y014075D01*
X008117Y014058D01*
X008069Y014046D01*
X008019Y014037D01*
X007969Y014032D01*
X007918Y014031D01*
X007868Y014034D01*
X007818Y014041D01*
X007769Y014052D01*
X007721Y014066D01*
X007674Y014084D01*
X007628Y014106D01*
X007584Y014131D01*
X007543Y014160D01*
X007504Y014191D01*
X007467Y014226D01*
X007433Y014263D01*
X007402Y014303D01*
X007374Y014345D01*
X007350Y014389D01*
X007329Y014435D01*
X007312Y014483D01*
X007299Y014531D01*
X007289Y014581D01*
X007283Y014631D01*
X007281Y014681D01*
X036281Y014681D02*
X036283Y014731D01*
X036289Y014781D01*
X036299Y014831D01*
X036312Y014879D01*
X036329Y014927D01*
X036350Y014973D01*
X036374Y015017D01*
X036402Y015059D01*
X036433Y015099D01*
X036467Y015136D01*
X036504Y015171D01*
X036543Y015202D01*
X036584Y015231D01*
X036628Y015256D01*
X036674Y015278D01*
X036721Y015296D01*
X036769Y015310D01*
X036818Y015321D01*
X036868Y015328D01*
X036918Y015331D01*
X036969Y015330D01*
X037019Y015325D01*
X037069Y015316D01*
X037117Y015304D01*
X037165Y015287D01*
X037211Y015267D01*
X037256Y015244D01*
X037299Y015217D01*
X037339Y015187D01*
X037377Y015154D01*
X037412Y015118D01*
X037445Y015079D01*
X037474Y015038D01*
X037500Y014995D01*
X037523Y014950D01*
X037542Y014903D01*
X037557Y014855D01*
X037569Y014806D01*
X037577Y014756D01*
X037581Y014706D01*
X037581Y014656D01*
X037577Y014606D01*
X037569Y014556D01*
X037557Y014507D01*
X037542Y014459D01*
X037523Y014412D01*
X037500Y014367D01*
X037474Y014324D01*
X037445Y014283D01*
X037412Y014244D01*
X037377Y014208D01*
X037339Y014175D01*
X037299Y014145D01*
X037256Y014118D01*
X037211Y014095D01*
X037165Y014075D01*
X037117Y014058D01*
X037069Y014046D01*
X037019Y014037D01*
X036969Y014032D01*
X036918Y014031D01*
X036868Y014034D01*
X036818Y014041D01*
X036769Y014052D01*
X036721Y014066D01*
X036674Y014084D01*
X036628Y014106D01*
X036584Y014131D01*
X036543Y014160D01*
X036504Y014191D01*
X036467Y014226D01*
X036433Y014263D01*
X036402Y014303D01*
X036374Y014345D01*
X036350Y014389D01*
X036329Y014435D01*
X036312Y014483D01*
X036299Y014531D01*
X036289Y014581D01*
X036283Y014631D01*
X036281Y014681D01*
X036281Y004181D02*
X036283Y004231D01*
X036289Y004281D01*
X036299Y004331D01*
X036312Y004379D01*
X036329Y004427D01*
X036350Y004473D01*
X036374Y004517D01*
X036402Y004559D01*
X036433Y004599D01*
X036467Y004636D01*
X036504Y004671D01*
X036543Y004702D01*
X036584Y004731D01*
X036628Y004756D01*
X036674Y004778D01*
X036721Y004796D01*
X036769Y004810D01*
X036818Y004821D01*
X036868Y004828D01*
X036918Y004831D01*
X036969Y004830D01*
X037019Y004825D01*
X037069Y004816D01*
X037117Y004804D01*
X037165Y004787D01*
X037211Y004767D01*
X037256Y004744D01*
X037299Y004717D01*
X037339Y004687D01*
X037377Y004654D01*
X037412Y004618D01*
X037445Y004579D01*
X037474Y004538D01*
X037500Y004495D01*
X037523Y004450D01*
X037542Y004403D01*
X037557Y004355D01*
X037569Y004306D01*
X037577Y004256D01*
X037581Y004206D01*
X037581Y004156D01*
X037577Y004106D01*
X037569Y004056D01*
X037557Y004007D01*
X037542Y003959D01*
X037523Y003912D01*
X037500Y003867D01*
X037474Y003824D01*
X037445Y003783D01*
X037412Y003744D01*
X037377Y003708D01*
X037339Y003675D01*
X037299Y003645D01*
X037256Y003618D01*
X037211Y003595D01*
X037165Y003575D01*
X037117Y003558D01*
X037069Y003546D01*
X037019Y003537D01*
X036969Y003532D01*
X036918Y003531D01*
X036868Y003534D01*
X036818Y003541D01*
X036769Y003552D01*
X036721Y003566D01*
X036674Y003584D01*
X036628Y003606D01*
X036584Y003631D01*
X036543Y003660D01*
X036504Y003691D01*
X036467Y003726D01*
X036433Y003763D01*
X036402Y003803D01*
X036374Y003845D01*
X036350Y003889D01*
X036329Y003935D01*
X036312Y003983D01*
X036299Y004031D01*
X036289Y004081D01*
X036283Y004131D01*
X036281Y004181D01*
D11*
X033805Y003681D03*
X033057Y003681D03*
X032805Y005431D03*
X032057Y005431D03*
X023805Y003681D03*
X023057Y003681D03*
X023055Y005181D03*
X022307Y005181D03*
X013805Y005431D03*
X013057Y005431D03*
X013057Y003681D03*
X013805Y003681D03*
X003805Y003681D03*
X003057Y003681D03*
X003057Y005431D03*
X003805Y005431D03*
X003805Y013681D03*
X003057Y013681D03*
X003057Y015431D03*
X003805Y015431D03*
X013057Y015431D03*
X013805Y015431D03*
X013805Y013681D03*
X013057Y013681D03*
X022057Y015431D03*
X022805Y015431D03*
X023057Y013681D03*
X023805Y013681D03*
X032057Y013681D03*
X032805Y013681D03*
X032805Y015431D03*
X032057Y015431D03*
X041307Y013681D03*
X042055Y013681D03*
X041555Y003681D03*
X040807Y003681D03*
D12*
X041931Y002681D03*
X041931Y001681D03*
X031931Y001681D03*
X031931Y002681D03*
X031931Y006681D03*
X031931Y007681D03*
X031931Y011681D03*
X031931Y012681D03*
X031931Y016681D03*
X031931Y017681D03*
X041931Y017681D03*
X041931Y016681D03*
X041931Y012681D03*
X041931Y011681D03*
X041931Y007681D03*
X041931Y006681D03*
X021931Y006681D03*
X021931Y007681D03*
X021931Y011681D03*
X021931Y012681D03*
X021931Y016681D03*
X021931Y017681D03*
X011931Y017681D03*
X011931Y016681D03*
X011931Y012681D03*
X011931Y011681D03*
X011931Y007681D03*
X011931Y006681D03*
X011931Y002681D03*
X011931Y001681D03*
X001931Y001681D03*
X001931Y002681D03*
X001931Y006681D03*
X001931Y007681D03*
X001931Y011681D03*
X001931Y012681D03*
X001931Y016681D03*
X001931Y017681D03*
X021931Y002681D03*
X021931Y001681D03*
D13*
X021931Y003681D03*
X024931Y003681D03*
X024181Y005181D03*
X021181Y005181D03*
X014931Y005431D03*
X011931Y005431D03*
X011931Y003681D03*
X014931Y003681D03*
X004931Y003681D03*
X001931Y003681D03*
X001931Y005431D03*
X004931Y005431D03*
X004931Y013681D03*
X001931Y013681D03*
X001931Y015431D03*
X004931Y015431D03*
X011931Y015431D03*
X014931Y015431D03*
X014931Y013681D03*
X011931Y013681D03*
X020931Y015431D03*
X023931Y015431D03*
X024931Y013681D03*
X021931Y013681D03*
X030931Y013681D03*
X033931Y013681D03*
X033931Y015431D03*
X030931Y015431D03*
X040181Y014681D03*
X040181Y013681D03*
X043181Y013681D03*
X040181Y017681D03*
X040431Y007681D03*
X033931Y005431D03*
X030931Y005431D03*
X031931Y003681D03*
X034931Y003681D03*
X039681Y003681D03*
X040431Y004681D03*
X042681Y003681D03*
D14*
X040431Y005807D03*
X040431Y006555D03*
X040181Y015807D03*
X040181Y016555D03*
D15*
X042931Y016571D03*
X042931Y017792D03*
X032931Y017792D03*
X032931Y016571D03*
X032931Y012792D03*
X032931Y011571D03*
X032931Y007792D03*
X032931Y006571D03*
X032931Y002792D03*
X032931Y001571D03*
X022931Y001571D03*
X022931Y002792D03*
X022931Y006571D03*
X022931Y007792D03*
X022931Y011571D03*
X022931Y012792D03*
X022931Y016571D03*
X022931Y017792D03*
X012931Y017792D03*
X012931Y016571D03*
X012931Y012792D03*
X012931Y011571D03*
X012931Y007792D03*
X012931Y006571D03*
X012931Y002792D03*
X012931Y001571D03*
X002931Y001571D03*
X002931Y002792D03*
X002931Y006571D03*
X002931Y007792D03*
X002931Y011571D03*
X002931Y012792D03*
X002931Y016571D03*
X002931Y017792D03*
X042931Y012792D03*
X042931Y011571D03*
X042931Y007792D03*
X042931Y006571D03*
X042931Y002792D03*
X042931Y001571D03*
D16*
X042931Y009381D02*
X042931Y009981D01*
X041931Y009981D02*
X041931Y009381D01*
X040931Y009381D02*
X040931Y009981D01*
X039931Y009981D02*
X039931Y009381D01*
X038931Y009381D02*
X038931Y009981D01*
X034431Y009981D02*
X034431Y009381D01*
X033431Y009381D02*
X033431Y009981D01*
X032431Y009981D02*
X032431Y009381D01*
X031431Y009381D02*
X031431Y009981D01*
X030431Y009981D02*
X030431Y009381D01*
X024431Y009381D02*
X024431Y009981D01*
X023431Y009981D02*
X023431Y009381D01*
X022431Y009381D02*
X022431Y009981D01*
X021431Y009981D02*
X021431Y009381D01*
X020431Y009381D02*
X020431Y009981D01*
X014431Y009981D02*
X014431Y009381D01*
X013431Y009381D02*
X013431Y009981D01*
X012431Y009981D02*
X012431Y009381D01*
X011431Y009381D02*
X011431Y009981D01*
X010431Y009981D02*
X010431Y009381D01*
X005431Y009381D02*
X005431Y009981D01*
X004431Y009981D02*
X004431Y009381D01*
X003431Y009381D02*
X003431Y009981D01*
X002431Y009981D02*
X002431Y009381D01*
X001431Y009381D02*
X001431Y009981D01*
D17*
X005931Y017931D03*
X009681Y017931D03*
X025681Y017931D03*
X027681Y017931D03*
X036431Y017931D03*
X036431Y000931D03*
X027681Y000931D03*
X025681Y000931D03*
X009681Y000931D03*
X005931Y000931D03*
D18*
X002931Y001571D02*
X002821Y001681D01*
X001931Y001681D01*
X001431Y001681D01*
X000806Y002306D01*
X000806Y007681D01*
X001431Y008306D01*
X001431Y009681D01*
X003431Y009681D02*
X003431Y011071D01*
X002931Y011571D01*
X002821Y011681D01*
X001931Y011681D01*
X001931Y012681D02*
X002821Y012681D01*
X002931Y012792D01*
X004431Y010431D02*
X005931Y011931D01*
X005931Y016071D01*
X005431Y016571D01*
X002931Y016571D01*
X002821Y016681D02*
X001931Y016681D01*
X001056Y017431D02*
X001056Y015681D01*
X001306Y015431D01*
X001931Y015431D01*
X003057Y015431D01*
X001056Y017431D02*
X001306Y017681D01*
X001931Y017681D01*
X002821Y017681D01*
X011056Y017431D02*
X011056Y015681D01*
X011306Y015431D01*
X011931Y015431D01*
X013057Y015431D01*
X012931Y016571D02*
X015431Y016571D01*
X015931Y016071D01*
X015931Y012931D01*
X013431Y010431D01*
X013431Y009681D01*
X012431Y009681D02*
X012431Y010681D01*
X012931Y011181D01*
X012931Y011571D01*
X012821Y011681D01*
X011931Y011681D01*
X011931Y012681D02*
X012821Y012681D01*
X012931Y012792D01*
X010431Y009681D02*
X010431Y002181D01*
X010931Y001681D01*
X011931Y001681D01*
X012821Y001681D01*
X012931Y001571D01*
X012821Y002681D02*
X011931Y002681D01*
X011931Y003681D01*
X013057Y003681D02*
X013057Y002792D01*
X012931Y002792D02*
X012821Y002681D01*
X013057Y005431D02*
X011931Y005431D01*
X011431Y005431D01*
X011181Y005681D01*
X011181Y007431D01*
X011431Y007681D01*
X011931Y007681D01*
X012821Y007681D01*
X012931Y007792D01*
X012821Y006681D02*
X011931Y006681D01*
X012821Y006681D02*
X012931Y006571D01*
X020431Y009681D02*
X020431Y002181D01*
X020931Y001681D01*
X021931Y001681D01*
X022821Y001681D01*
X022931Y001571D01*
X022821Y002681D02*
X021931Y002681D01*
X022821Y002681D02*
X022931Y002792D01*
X022307Y005181D02*
X021181Y005181D01*
X021181Y007181D01*
X021681Y007681D01*
X021931Y007681D01*
X022821Y007681D01*
X022931Y007792D01*
X022821Y006681D02*
X021931Y006681D01*
X022821Y006681D02*
X022931Y006571D01*
X023681Y006571D01*
X023431Y009681D02*
X023431Y010431D01*
X025681Y012681D01*
X025681Y016071D01*
X025181Y016571D01*
X022931Y016571D01*
X022821Y016681D01*
X021931Y016681D01*
X020931Y017431D02*
X021181Y017681D01*
X021931Y017681D01*
X022821Y017681D01*
X022931Y017792D01*
X020931Y017431D02*
X020931Y015431D01*
X022057Y015431D01*
X021931Y012681D02*
X022821Y012681D01*
X022931Y012792D01*
X022821Y011681D02*
X021931Y011681D01*
X022821Y011681D02*
X022931Y011571D01*
X022931Y011181D01*
X022431Y010681D01*
X022431Y009681D01*
X030431Y009681D02*
X030431Y002181D01*
X030931Y001681D01*
X032181Y001681D01*
X032821Y001681D01*
X032931Y001571D01*
X032181Y001681D02*
X031931Y001681D01*
X031931Y002681D02*
X032821Y002681D01*
X032931Y002792D01*
X038931Y002181D02*
X039431Y001681D01*
X042181Y001681D01*
X042821Y001681D01*
X042931Y001571D01*
X042181Y001681D02*
X041931Y001681D01*
X041931Y002681D02*
X041931Y003681D01*
X042681Y003681D01*
X042931Y002792D02*
X042821Y002681D01*
X041931Y002681D01*
X038931Y002181D02*
X038931Y009681D01*
X039931Y009681D02*
X039931Y009056D01*
X040431Y008556D01*
X043681Y008556D01*
X043931Y008306D01*
X043931Y006821D01*
X043681Y006571D01*
X042931Y006571D01*
X042821Y006681D01*
X041931Y006681D01*
X040431Y006555D02*
X040431Y007681D01*
X041931Y007681D01*
X042821Y007681D01*
X042931Y007792D01*
X041931Y009681D02*
X041931Y010431D01*
X042181Y010681D01*
X043681Y010681D01*
X043931Y010931D01*
X043931Y014321D01*
X042931Y015321D01*
X042931Y016571D01*
X042821Y016681D01*
X041931Y016681D01*
X041931Y017681D02*
X042931Y017681D01*
X042931Y017792D01*
X034681Y016071D02*
X034681Y011681D01*
X033431Y010431D01*
X033431Y009681D01*
X032431Y009681D02*
X032431Y010681D01*
X032931Y011181D01*
X032931Y011571D01*
X032821Y011681D01*
X031931Y011681D01*
X031931Y012681D02*
X031931Y013555D01*
X032057Y013681D02*
X030931Y013681D01*
X031931Y012681D02*
X032821Y012681D01*
X032931Y012792D01*
X032057Y015431D02*
X030931Y015431D01*
X030931Y017431D01*
X031181Y017681D01*
X031931Y017681D01*
X032821Y017681D01*
X032931Y017792D01*
X032821Y016681D02*
X031931Y016681D01*
X032821Y016681D02*
X032931Y016571D01*
X034181Y016571D01*
X034681Y016071D01*
X041931Y012681D02*
X042821Y012681D01*
X042931Y012792D01*
X042821Y011681D02*
X041931Y011681D01*
X041431Y011681D01*
X040931Y011181D01*
X040931Y009681D01*
X042821Y011681D02*
X042931Y011571D01*
X033931Y007431D02*
X033681Y007681D01*
X032821Y007681D01*
X032931Y007792D01*
X032821Y007681D02*
X031931Y007681D01*
X031431Y008431D02*
X031056Y008056D01*
X031056Y007056D01*
X031431Y006681D01*
X031931Y006681D01*
X032821Y006681D01*
X032931Y006571D01*
X033931Y006931D02*
X033931Y007181D01*
X033931Y007431D01*
X033931Y006931D02*
X033931Y005431D01*
X032805Y005431D01*
X031431Y008431D02*
X031431Y009681D01*
X012821Y016681D02*
X011931Y016681D01*
X011056Y017431D02*
X011306Y017681D01*
X011931Y017681D01*
X012821Y017681D01*
X004431Y010431D02*
X004431Y009681D01*
X002931Y007792D02*
X002821Y007681D01*
X001931Y007681D02*
X001431Y007181D01*
X001431Y005931D01*
X001931Y005431D01*
X002931Y006571D02*
X002821Y006681D01*
X003306Y003931D02*
X001681Y003931D01*
X001681Y002431D01*
X003306Y002431D01*
X003306Y003931D01*
X003306Y003760D02*
X001681Y003760D01*
X001681Y003521D02*
X003306Y003521D01*
X003306Y003282D02*
X001681Y003282D01*
X001681Y003044D02*
X003306Y003044D01*
X003306Y002805D02*
X001681Y002805D01*
X001681Y002567D02*
X003306Y002567D01*
X002931Y002792D02*
X002821Y002681D01*
X001931Y002681D01*
D19*
X001931Y003681D01*
X001381Y003669D02*
X001106Y003669D01*
X001106Y003511D02*
X001381Y003511D01*
X001381Y003352D02*
X001106Y003352D01*
X001106Y003194D02*
X001381Y003194D01*
X001381Y003035D02*
X001106Y003035D01*
X001106Y002877D02*
X001381Y002877D01*
X001381Y002718D02*
X001106Y002718D01*
X001106Y002560D02*
X001381Y002560D01*
X001381Y002401D02*
X001136Y002401D01*
X001106Y002431D02*
X001106Y007557D01*
X001601Y008052D01*
X001686Y008136D01*
X001731Y008247D01*
X001731Y009003D01*
X001838Y009109D01*
X001911Y009286D01*
X001911Y010077D01*
X001838Y010253D01*
X001703Y010388D01*
X001527Y010461D01*
X001336Y010461D01*
X001159Y010388D01*
X001024Y010253D01*
X000951Y010077D01*
X000951Y009286D01*
X001024Y009109D01*
X001131Y009003D01*
X001131Y008431D01*
X000552Y007851D01*
X000506Y007741D01*
X000506Y007622D01*
X000506Y002247D01*
X000552Y002136D01*
X000636Y002052D01*
X001261Y001427D01*
X001372Y001381D01*
X001491Y001381D01*
X001585Y001381D01*
X001742Y001224D01*
X002121Y001224D01*
X002278Y001381D01*
X002318Y001381D01*
X002318Y001201D01*
X002424Y001096D01*
X003439Y001096D01*
X003544Y001201D01*
X003544Y001941D01*
X003439Y002046D01*
X002424Y002046D01*
X002359Y001981D01*
X002278Y001981D01*
X002128Y002131D01*
X003366Y002131D01*
X003476Y002177D01*
X003561Y002261D01*
X003606Y002372D01*
X003606Y002491D01*
X003606Y003991D01*
X003561Y004101D01*
X003476Y004186D01*
X003366Y004231D01*
X003247Y004231D01*
X001741Y004231D01*
X001622Y004231D01*
X001511Y004186D01*
X001427Y004101D01*
X001381Y003991D01*
X001381Y002372D01*
X001427Y002261D01*
X001511Y002177D01*
X001622Y002131D01*
X001735Y002131D01*
X001585Y001981D01*
X001556Y001981D01*
X001106Y002431D01*
X001295Y002242D02*
X001446Y002242D01*
X001453Y002084D02*
X001687Y002084D01*
X002175Y002084D02*
X008556Y002084D01*
X008556Y002242D02*
X003542Y002242D01*
X003606Y002401D02*
X008556Y002401D01*
X008556Y002560D02*
X003606Y002560D01*
X003606Y002718D02*
X008556Y002718D01*
X008556Y002877D02*
X008424Y002877D01*
X008496Y002895D02*
X008556Y002934D01*
X008556Y000461D01*
X000461Y000461D01*
X000461Y018521D01*
X008556Y018521D01*
X008556Y015928D01*
X008496Y015968D01*
X008047Y016082D01*
X007586Y016043D01*
X007163Y015858D01*
X006823Y015544D01*
X006603Y015138D01*
X006526Y014681D01*
X006603Y014225D01*
X006823Y013818D01*
X007163Y013505D01*
X007586Y013319D01*
X008047Y013281D01*
X008496Y013395D01*
X008556Y013434D01*
X008556Y005428D01*
X008496Y005468D01*
X008047Y005582D01*
X007586Y005543D01*
X007163Y005358D01*
X006823Y005044D01*
X006603Y004638D01*
X006526Y004181D01*
X006603Y003725D01*
X006823Y003318D01*
X007163Y003005D01*
X007586Y002819D01*
X008047Y002781D01*
X008496Y002895D01*
X008931Y002877D02*
X010131Y002877D01*
X010131Y003035D02*
X008931Y003035D01*
X008931Y003194D02*
X010131Y003194D01*
X010131Y003352D02*
X009042Y003352D01*
X008931Y003210D02*
X009167Y003513D01*
X009317Y003950D01*
X009317Y004413D01*
X009167Y004850D01*
X008931Y005153D01*
X008931Y013710D01*
X009167Y014013D01*
X009317Y014450D01*
X009317Y014913D01*
X009167Y015350D01*
X008931Y015653D01*
X008931Y018521D01*
X017306Y018521D01*
X017306Y000461D01*
X008931Y000461D01*
X008931Y003210D01*
X009166Y003511D02*
X010131Y003511D01*
X010131Y003669D02*
X009221Y003669D01*
X009275Y003828D02*
X010131Y003828D01*
X010131Y003986D02*
X009317Y003986D01*
X009317Y004145D02*
X010131Y004145D01*
X010131Y004304D02*
X009317Y004304D01*
X009300Y004462D02*
X010131Y004462D01*
X010131Y004621D02*
X009246Y004621D01*
X009191Y004779D02*
X010131Y004779D01*
X010131Y004938D02*
X009099Y004938D01*
X008975Y005096D02*
X010131Y005096D01*
X010131Y005255D02*
X008931Y005255D01*
X008931Y005413D02*
X010131Y005413D01*
X010131Y005572D02*
X008931Y005572D01*
X008931Y005730D02*
X010131Y005730D01*
X010131Y005889D02*
X008931Y005889D01*
X008931Y006048D02*
X010131Y006048D01*
X010131Y006206D02*
X008931Y006206D01*
X008931Y006365D02*
X010131Y006365D01*
X010131Y006523D02*
X008931Y006523D01*
X008931Y006682D02*
X010131Y006682D01*
X010131Y006840D02*
X008931Y006840D01*
X008931Y006999D02*
X010131Y006999D01*
X010131Y007157D02*
X008931Y007157D01*
X008931Y007316D02*
X010131Y007316D01*
X010131Y007474D02*
X008931Y007474D01*
X008931Y007633D02*
X010131Y007633D01*
X010131Y007791D02*
X008931Y007791D01*
X008931Y007950D02*
X010131Y007950D01*
X010131Y008109D02*
X008931Y008109D01*
X008931Y008267D02*
X010131Y008267D01*
X010131Y008426D02*
X008931Y008426D01*
X008931Y008584D02*
X010131Y008584D01*
X010131Y008743D02*
X008931Y008743D01*
X008931Y008901D02*
X010131Y008901D01*
X010131Y009003D02*
X010131Y002241D01*
X010131Y002122D01*
X010177Y002011D01*
X010677Y001511D01*
X010761Y001427D01*
X010872Y001381D01*
X011585Y001381D01*
X011742Y001224D01*
X012121Y001224D01*
X012278Y001381D01*
X012318Y001381D01*
X012318Y001201D01*
X012424Y001096D01*
X013439Y001096D01*
X013544Y001201D01*
X013544Y001941D01*
X013439Y002046D01*
X012424Y002046D01*
X012359Y001981D01*
X012278Y001981D01*
X012121Y002139D01*
X011742Y002139D01*
X011585Y001981D01*
X011056Y001981D01*
X010731Y002306D01*
X010731Y009003D01*
X010838Y009109D01*
X010911Y009286D01*
X010911Y010077D01*
X010838Y010253D01*
X010703Y010388D01*
X010527Y010461D01*
X010336Y010461D01*
X010159Y010388D01*
X010024Y010253D01*
X009951Y010077D01*
X009951Y009286D01*
X010024Y009109D01*
X010131Y009003D01*
X010074Y009060D02*
X008931Y009060D01*
X008931Y009218D02*
X009979Y009218D01*
X009951Y009377D02*
X008931Y009377D01*
X008931Y009535D02*
X009951Y009535D01*
X009951Y009694D02*
X008931Y009694D01*
X008931Y009853D02*
X009951Y009853D01*
X009951Y010011D02*
X008931Y010011D01*
X008931Y010170D02*
X009990Y010170D01*
X010099Y010328D02*
X008931Y010328D01*
X008931Y010487D02*
X012131Y010487D01*
X012131Y010360D02*
X012024Y010253D01*
X011951Y010077D01*
X011951Y009286D01*
X012024Y009109D01*
X012159Y008974D01*
X012336Y008901D01*
X012527Y008901D01*
X012703Y008974D01*
X012838Y009109D01*
X012911Y009286D01*
X012911Y010077D01*
X012838Y010253D01*
X012731Y010360D01*
X012731Y010557D01*
X013101Y010927D01*
X013186Y011011D01*
X013221Y011096D01*
X013439Y011096D01*
X013544Y011201D01*
X013544Y011941D01*
X013439Y012046D01*
X012424Y012046D01*
X012359Y011981D01*
X012278Y011981D01*
X012121Y012139D01*
X011742Y012139D01*
X011474Y011871D01*
X011474Y011492D01*
X011742Y011224D01*
X012121Y011224D01*
X012278Y011381D01*
X012318Y011381D01*
X012318Y011201D01*
X012423Y011097D01*
X012177Y010851D01*
X012131Y010741D01*
X012131Y010622D01*
X012131Y010360D01*
X012099Y010328D02*
X011763Y010328D01*
X011703Y010388D02*
X011527Y010461D01*
X011336Y010461D01*
X011159Y010388D01*
X011024Y010253D01*
X010951Y010077D01*
X010951Y009286D01*
X011024Y009109D01*
X011151Y008983D01*
X011151Y008751D01*
X011194Y008648D01*
X011273Y008569D01*
X011523Y008319D01*
X011626Y008276D01*
X011737Y008276D01*
X013565Y008276D01*
X013651Y008190D01*
X013651Y007047D01*
X013565Y006961D01*
X013524Y006961D01*
X013439Y007046D01*
X012424Y007046D01*
X012359Y006981D01*
X012278Y006981D01*
X012121Y007139D01*
X011742Y007139D01*
X011481Y006878D01*
X011481Y007307D01*
X011556Y007381D01*
X011585Y007381D01*
X011742Y007224D01*
X012121Y007224D01*
X012278Y007381D01*
X012359Y007381D01*
X012424Y007316D01*
X013439Y007316D01*
X013544Y007422D01*
X013544Y008161D01*
X013439Y008267D01*
X012424Y008267D01*
X012318Y008161D01*
X012318Y007981D01*
X012278Y007981D01*
X012121Y008139D01*
X011742Y008139D01*
X011585Y007981D01*
X011372Y007981D01*
X011261Y007936D01*
X011177Y007851D01*
X011011Y007686D01*
X010927Y007601D01*
X010881Y007491D01*
X010881Y005741D01*
X010881Y005622D01*
X010927Y005511D01*
X011177Y005261D01*
X011261Y005177D01*
X011372Y005131D01*
X011609Y005131D01*
X011749Y004991D01*
X012114Y004991D01*
X012254Y005131D01*
X012621Y005131D01*
X012621Y005042D01*
X012727Y004936D01*
X013388Y004936D01*
X013493Y005042D01*
X013493Y005821D01*
X013388Y005926D01*
X012727Y005926D01*
X012621Y005821D01*
X012621Y005731D01*
X012254Y005731D01*
X012114Y005871D01*
X011749Y005871D01*
X011609Y005731D01*
X011556Y005731D01*
X011481Y005806D01*
X011481Y006485D01*
X011742Y006224D01*
X012121Y006224D01*
X012278Y006381D01*
X012318Y006381D01*
X012318Y006201D01*
X012424Y006096D01*
X013439Y006096D01*
X013544Y006201D01*
X013544Y006401D01*
X013626Y006401D01*
X013737Y006401D01*
X013840Y006444D01*
X014090Y006694D01*
X014169Y006773D01*
X014211Y006876D01*
X014211Y008251D01*
X014211Y008362D01*
X014169Y008465D01*
X013919Y008715D01*
X013840Y008794D01*
X013737Y008836D01*
X011797Y008836D01*
X011711Y008922D01*
X011711Y008983D01*
X011838Y009109D01*
X011911Y009286D01*
X011911Y010077D01*
X011838Y010253D01*
X011703Y010388D01*
X011873Y010170D02*
X011990Y010170D01*
X011951Y010011D02*
X011911Y010011D01*
X011911Y009853D02*
X011951Y009853D01*
X011951Y009694D02*
X011911Y009694D01*
X011911Y009535D02*
X011951Y009535D01*
X011951Y009377D02*
X011911Y009377D01*
X011883Y009218D02*
X011979Y009218D01*
X012074Y009060D02*
X011789Y009060D01*
X011732Y008901D02*
X017306Y008901D01*
X017306Y008743D02*
X013891Y008743D01*
X014050Y008584D02*
X017306Y008584D01*
X017306Y008426D02*
X014185Y008426D01*
X014211Y008267D02*
X017306Y008267D01*
X017306Y008109D02*
X014211Y008109D01*
X014211Y007950D02*
X017306Y007950D01*
X017306Y007791D02*
X014211Y007791D01*
X014211Y007633D02*
X017306Y007633D01*
X017306Y007474D02*
X014211Y007474D01*
X014211Y007316D02*
X017306Y007316D01*
X017306Y007157D02*
X014211Y007157D01*
X014211Y006999D02*
X017306Y006999D01*
X017306Y006840D02*
X014197Y006840D01*
X014078Y006682D02*
X017306Y006682D01*
X017306Y006523D02*
X013919Y006523D01*
X013544Y006365D02*
X017306Y006365D01*
X017306Y006206D02*
X013544Y006206D01*
X013425Y005889D02*
X017306Y005889D01*
X017306Y006048D02*
X011481Y006048D01*
X011481Y006206D02*
X012318Y006206D01*
X012318Y006365D02*
X012261Y006365D01*
X012690Y005889D02*
X011481Y005889D01*
X010881Y005889D02*
X010731Y005889D01*
X010731Y006048D02*
X010881Y006048D01*
X010881Y006206D02*
X010731Y006206D01*
X010731Y006365D02*
X010881Y006365D01*
X010881Y006523D02*
X010731Y006523D01*
X010731Y006682D02*
X010881Y006682D01*
X010881Y006840D02*
X010731Y006840D01*
X010731Y006999D02*
X010881Y006999D01*
X010881Y007157D02*
X010731Y007157D01*
X010731Y007316D02*
X010881Y007316D01*
X010881Y007474D02*
X010731Y007474D01*
X010731Y007633D02*
X010959Y007633D01*
X011117Y007791D02*
X010731Y007791D01*
X010731Y007950D02*
X011296Y007950D01*
X011712Y008109D02*
X010731Y008109D01*
X010731Y008267D02*
X013575Y008267D01*
X013544Y008109D02*
X013651Y008109D01*
X013651Y007950D02*
X013544Y007950D01*
X013544Y007791D02*
X013651Y007791D01*
X013651Y007633D02*
X013544Y007633D01*
X013544Y007474D02*
X013651Y007474D01*
X013651Y007316D02*
X012212Y007316D01*
X012261Y006999D02*
X012376Y006999D01*
X011602Y006999D02*
X011481Y006999D01*
X011481Y007157D02*
X013651Y007157D01*
X013603Y006999D02*
X013487Y006999D01*
X012318Y008109D02*
X012151Y008109D01*
X011416Y008426D02*
X010731Y008426D01*
X010731Y008584D02*
X011258Y008584D01*
X011155Y008743D02*
X010731Y008743D01*
X010731Y008901D02*
X011151Y008901D01*
X011074Y009060D02*
X010789Y009060D01*
X010883Y009218D02*
X010979Y009218D01*
X010951Y009377D02*
X010911Y009377D01*
X010911Y009535D02*
X010951Y009535D01*
X010951Y009694D02*
X010911Y009694D01*
X010911Y009853D02*
X010951Y009853D01*
X010951Y010011D02*
X010911Y010011D01*
X010873Y010170D02*
X010990Y010170D01*
X011099Y010328D02*
X010763Y010328D01*
X012131Y010645D02*
X008931Y010645D01*
X008931Y010804D02*
X012157Y010804D01*
X012288Y010962D02*
X008931Y010962D01*
X008931Y011121D02*
X012399Y011121D01*
X012318Y011279D02*
X012176Y011279D01*
X011687Y011279D02*
X008931Y011279D01*
X008931Y011438D02*
X011528Y011438D01*
X011474Y011597D02*
X008931Y011597D01*
X008931Y011755D02*
X011474Y011755D01*
X011517Y011914D02*
X008931Y011914D01*
X008931Y012072D02*
X011676Y012072D01*
X011630Y012171D02*
X011733Y012171D01*
X013358Y012171D01*
X013454Y012211D01*
X013527Y012284D01*
X013566Y012380D01*
X013566Y012483D01*
X013566Y013983D01*
X013527Y014079D01*
X013454Y014152D01*
X013358Y014191D01*
X013255Y014191D01*
X011733Y014191D01*
X011630Y014191D01*
X011534Y014152D01*
X011461Y014079D01*
X011421Y013983D01*
X011421Y012380D01*
X011461Y012284D01*
X011534Y012211D01*
X011630Y012171D01*
X011514Y012231D02*
X008931Y012231D01*
X008931Y012389D02*
X011421Y012389D01*
X011421Y012548D02*
X008931Y012548D01*
X008931Y012706D02*
X011421Y012706D01*
X011421Y012865D02*
X008931Y012865D01*
X008931Y013023D02*
X011421Y013023D01*
X011421Y013182D02*
X008931Y013182D01*
X008931Y013341D02*
X011421Y013341D01*
X011421Y013499D02*
X008931Y013499D01*
X008931Y013658D02*
X011421Y013658D01*
X011421Y013816D02*
X009014Y013816D01*
X009137Y013975D02*
X011421Y013975D01*
X011516Y014133D02*
X009208Y014133D01*
X009263Y014292D02*
X015631Y014292D01*
X015631Y014450D02*
X009317Y014450D01*
X009317Y014609D02*
X015631Y014609D01*
X015631Y014767D02*
X009317Y014767D01*
X009313Y014926D02*
X015631Y014926D01*
X015631Y015084D02*
X013493Y015084D01*
X013493Y015042D02*
X013493Y015821D01*
X013388Y015926D01*
X012727Y015926D01*
X012621Y015821D01*
X012621Y015731D01*
X012254Y015731D01*
X012114Y015871D01*
X011749Y015871D01*
X011609Y015731D01*
X011431Y015731D01*
X011356Y015806D01*
X011356Y017307D01*
X011431Y017381D01*
X011585Y017381D01*
X011742Y017224D01*
X012121Y017224D01*
X012278Y017381D01*
X012359Y017381D01*
X012424Y017316D01*
X013439Y017316D01*
X013544Y017422D01*
X013544Y018161D01*
X013439Y018267D01*
X012424Y018267D01*
X012318Y018161D01*
X012318Y017981D01*
X012278Y017981D01*
X012121Y018139D01*
X011742Y018139D01*
X011585Y017981D01*
X011247Y017981D01*
X011136Y017936D01*
X011052Y017851D01*
X010802Y017601D01*
X010756Y017491D01*
X010756Y017372D01*
X010756Y015622D01*
X010802Y015511D01*
X010886Y015427D01*
X011136Y015177D01*
X011247Y015131D01*
X011366Y015131D01*
X011609Y015131D01*
X011749Y014991D01*
X012114Y014991D01*
X012254Y015131D01*
X012621Y015131D01*
X012621Y015042D01*
X012727Y014936D01*
X013388Y014936D01*
X013493Y015042D01*
X013493Y015243D02*
X015631Y015243D01*
X015631Y015402D02*
X013493Y015402D01*
X013493Y015560D02*
X015631Y015560D01*
X015631Y015719D02*
X013493Y015719D01*
X013437Y015877D02*
X015631Y015877D01*
X015631Y015947D02*
X015631Y013056D01*
X013177Y010601D01*
X013131Y010491D01*
X013131Y010372D01*
X013131Y010360D01*
X013024Y010253D01*
X012951Y010077D01*
X012951Y009286D01*
X013024Y009109D01*
X013159Y008974D01*
X013336Y008901D01*
X013527Y008901D01*
X013703Y008974D01*
X013838Y009109D01*
X013911Y009286D01*
X013911Y010077D01*
X013838Y010253D01*
X013758Y010334D01*
X016186Y012761D01*
X016231Y012872D01*
X016231Y012991D01*
X016231Y016011D01*
X016231Y016131D01*
X016186Y016241D01*
X015686Y016741D01*
X015601Y016825D01*
X015491Y016871D01*
X013544Y016871D01*
X013544Y016941D01*
X013439Y017046D01*
X012424Y017046D01*
X012359Y016981D01*
X012278Y016981D01*
X012121Y017139D01*
X011742Y017139D01*
X011474Y016871D01*
X011474Y016492D01*
X011742Y016224D01*
X012121Y016224D01*
X012278Y016381D01*
X012318Y016381D01*
X012318Y016201D01*
X012424Y016096D01*
X013439Y016096D01*
X013544Y016201D01*
X013544Y016271D01*
X015307Y016271D01*
X015631Y015947D01*
X015543Y016036D02*
X011356Y016036D01*
X011356Y016194D02*
X012325Y016194D01*
X012318Y016353D02*
X012249Y016353D01*
X012821Y016681D02*
X012931Y016571D01*
X012364Y016987D02*
X012272Y016987D01*
X012201Y017304D02*
X017306Y017304D01*
X017306Y017146D02*
X011356Y017146D01*
X011356Y017304D02*
X011662Y017304D01*
X011591Y016987D02*
X011356Y016987D01*
X011356Y016828D02*
X011474Y016828D01*
X011474Y016670D02*
X011356Y016670D01*
X011356Y016511D02*
X011474Y016511D01*
X011356Y016353D02*
X011613Y016353D01*
X010756Y016353D02*
X008931Y016353D01*
X008931Y016511D02*
X010756Y016511D01*
X010756Y016670D02*
X008931Y016670D01*
X008931Y016828D02*
X010756Y016828D01*
X010756Y016987D02*
X008931Y016987D01*
X008931Y017146D02*
X010756Y017146D01*
X010756Y017304D02*
X008931Y017304D01*
X008931Y017463D02*
X010756Y017463D01*
X010822Y017621D02*
X008931Y017621D01*
X008931Y017780D02*
X010980Y017780D01*
X011143Y017938D02*
X008931Y017938D01*
X008931Y018097D02*
X011700Y018097D01*
X012162Y018097D02*
X012318Y018097D01*
X012412Y018255D02*
X008931Y018255D01*
X008931Y018414D02*
X017306Y018414D01*
X017306Y018255D02*
X013451Y018255D01*
X013544Y018097D02*
X017306Y018097D01*
X017306Y017938D02*
X013544Y017938D01*
X013544Y017780D02*
X017306Y017780D01*
X017306Y017621D02*
X013544Y017621D01*
X013544Y017463D02*
X017306Y017463D01*
X017681Y017463D02*
X020631Y017463D01*
X020631Y017491D02*
X020631Y017372D01*
X020631Y015754D01*
X020491Y015614D01*
X020491Y015249D01*
X020749Y014991D01*
X021114Y014991D01*
X021254Y015131D01*
X021621Y015131D01*
X021621Y015042D01*
X021727Y014936D01*
X022388Y014936D01*
X022493Y015042D01*
X022493Y015821D01*
X022388Y015926D01*
X021727Y015926D01*
X021621Y015821D01*
X021621Y015731D01*
X021254Y015731D01*
X021231Y015754D01*
X021231Y017307D01*
X021306Y017381D01*
X021585Y017381D01*
X021742Y017224D01*
X022121Y017224D01*
X022278Y017381D01*
X022359Y017381D01*
X022424Y017316D01*
X023439Y017316D01*
X023544Y017422D01*
X023544Y018161D01*
X023439Y018267D01*
X022424Y018267D01*
X022318Y018161D01*
X022318Y017981D01*
X022278Y017981D01*
X022121Y018139D01*
X021742Y018139D01*
X021585Y017981D01*
X021122Y017981D01*
X021011Y017936D01*
X020927Y017851D01*
X020677Y017601D01*
X020631Y017491D01*
X020697Y017621D02*
X017681Y017621D01*
X017681Y017780D02*
X020856Y017780D01*
X020927Y017851D02*
X020927Y017851D01*
X021018Y017938D02*
X017681Y017938D01*
X017681Y018097D02*
X021700Y018097D01*
X022162Y018097D02*
X022318Y018097D01*
X022412Y018255D02*
X017681Y018255D01*
X017681Y018414D02*
X026556Y018414D01*
X026556Y018521D02*
X026556Y000461D01*
X017681Y000461D01*
X017681Y018521D01*
X026556Y018521D01*
X026556Y018255D02*
X023451Y018255D01*
X023544Y018097D02*
X026556Y018097D01*
X026556Y017938D02*
X023544Y017938D01*
X023544Y017780D02*
X026556Y017780D01*
X026556Y017621D02*
X023544Y017621D01*
X023544Y017463D02*
X026556Y017463D01*
X026556Y017304D02*
X022201Y017304D01*
X022121Y017139D02*
X021742Y017139D01*
X021474Y016871D01*
X021474Y016492D01*
X021742Y016224D01*
X022121Y016224D01*
X022278Y016381D01*
X022318Y016381D01*
X022318Y016201D01*
X022424Y016096D01*
X023439Y016096D01*
X023544Y016201D01*
X023544Y016271D01*
X025057Y016271D01*
X025381Y015947D01*
X025381Y012806D01*
X023177Y010601D01*
X023131Y010491D01*
X023131Y010372D01*
X023131Y010360D01*
X023024Y010253D01*
X022951Y010077D01*
X022951Y009286D01*
X023024Y009109D01*
X023159Y008974D01*
X023336Y008901D01*
X023527Y008901D01*
X023703Y008974D01*
X023838Y009109D01*
X023911Y009286D01*
X023911Y010077D01*
X023838Y010253D01*
X023758Y010334D01*
X025851Y012427D01*
X025936Y012511D01*
X025981Y012622D01*
X025981Y016131D01*
X025936Y016241D01*
X025851Y016325D01*
X025436Y016741D01*
X025351Y016825D01*
X025241Y016871D01*
X023544Y016871D01*
X023544Y016941D01*
X023439Y017046D01*
X022424Y017046D01*
X022359Y016981D01*
X022278Y016981D01*
X022121Y017139D01*
X022272Y016987D02*
X022364Y016987D01*
X021591Y016987D02*
X021231Y016987D01*
X021231Y016828D02*
X021474Y016828D01*
X021474Y016670D02*
X021231Y016670D01*
X021231Y016511D02*
X021474Y016511D01*
X021613Y016353D02*
X021231Y016353D01*
X021231Y016194D02*
X022325Y016194D01*
X022318Y016353D02*
X022249Y016353D01*
X021231Y016036D02*
X025293Y016036D01*
X025381Y015877D02*
X022437Y015877D01*
X022493Y015719D02*
X025381Y015719D01*
X025381Y015560D02*
X022493Y015560D01*
X022493Y015402D02*
X025381Y015402D01*
X025381Y015243D02*
X022493Y015243D01*
X022493Y015084D02*
X025381Y015084D01*
X025381Y014926D02*
X017681Y014926D01*
X017681Y015084D02*
X020656Y015084D01*
X020498Y015243D02*
X017681Y015243D01*
X017681Y015402D02*
X020491Y015402D01*
X020491Y015560D02*
X017681Y015560D01*
X017681Y015719D02*
X020596Y015719D01*
X020631Y015877D02*
X017681Y015877D01*
X017681Y016036D02*
X020631Y016036D01*
X020631Y016194D02*
X017681Y016194D01*
X017681Y016353D02*
X020631Y016353D01*
X020631Y016511D02*
X017681Y016511D01*
X017681Y016670D02*
X020631Y016670D01*
X020631Y016828D02*
X017681Y016828D01*
X017681Y016987D02*
X020631Y016987D01*
X020631Y017146D02*
X017681Y017146D01*
X017681Y017304D02*
X020631Y017304D01*
X021231Y017304D02*
X021662Y017304D01*
X021231Y017146D02*
X026556Y017146D01*
X026556Y016987D02*
X023498Y016987D01*
X023537Y016194D02*
X025134Y016194D01*
X025824Y016353D02*
X026556Y016353D01*
X026556Y016511D02*
X025665Y016511D01*
X025507Y016670D02*
X026556Y016670D01*
X026556Y016828D02*
X025344Y016828D01*
X025851Y016325D02*
X025851Y016325D01*
X025955Y016194D02*
X026556Y016194D01*
X026556Y016036D02*
X025981Y016036D01*
X025981Y015877D02*
X026556Y015877D01*
X026556Y015719D02*
X025981Y015719D01*
X025981Y015560D02*
X026556Y015560D01*
X026556Y015402D02*
X025981Y015402D01*
X025981Y015243D02*
X026556Y015243D01*
X026556Y015084D02*
X025981Y015084D01*
X025981Y014926D02*
X026556Y014926D01*
X026556Y014767D02*
X025981Y014767D01*
X025981Y014609D02*
X026556Y014609D01*
X026556Y014450D02*
X025981Y014450D01*
X025981Y014292D02*
X026556Y014292D01*
X026556Y014133D02*
X025981Y014133D01*
X025981Y013975D02*
X026556Y013975D01*
X026556Y013816D02*
X025981Y013816D01*
X025981Y013658D02*
X026556Y013658D01*
X026556Y013499D02*
X025981Y013499D01*
X025981Y013341D02*
X026556Y013341D01*
X026556Y013182D02*
X025981Y013182D01*
X025981Y013023D02*
X026556Y013023D01*
X026556Y012865D02*
X025981Y012865D01*
X025981Y012706D02*
X026556Y012706D01*
X026556Y012548D02*
X025951Y012548D01*
X025813Y012389D02*
X026556Y012389D01*
X026556Y012231D02*
X025655Y012231D01*
X025496Y012072D02*
X026556Y012072D01*
X026556Y011914D02*
X025338Y011914D01*
X025179Y011755D02*
X026556Y011755D01*
X026556Y011597D02*
X025021Y011597D01*
X024862Y011438D02*
X026556Y011438D01*
X026556Y011279D02*
X024704Y011279D01*
X024545Y011121D02*
X026556Y011121D01*
X026556Y010962D02*
X024387Y010962D01*
X024228Y010804D02*
X026556Y010804D01*
X026556Y010645D02*
X024069Y010645D01*
X023911Y010487D02*
X026556Y010487D01*
X026556Y010328D02*
X023763Y010328D01*
X023873Y010170D02*
X026556Y010170D01*
X026556Y010011D02*
X023911Y010011D01*
X023911Y009853D02*
X026556Y009853D01*
X026556Y009694D02*
X023911Y009694D01*
X023911Y009535D02*
X026556Y009535D01*
X026556Y009377D02*
X023911Y009377D01*
X023883Y009218D02*
X026556Y009218D01*
X026556Y009060D02*
X023789Y009060D01*
X023737Y008836D02*
X021797Y008836D01*
X021711Y008922D01*
X021711Y008983D01*
X021838Y009109D01*
X021911Y009286D01*
X021911Y010077D01*
X021838Y010253D01*
X021703Y010388D01*
X021527Y010461D01*
X021336Y010461D01*
X021159Y010388D01*
X021024Y010253D01*
X020951Y010077D01*
X020951Y009286D01*
X021024Y009109D01*
X021151Y008983D01*
X021151Y008751D01*
X021194Y008648D01*
X021273Y008569D01*
X021523Y008319D01*
X021626Y008276D01*
X021737Y008276D01*
X023565Y008276D01*
X023651Y008190D01*
X023651Y006937D01*
X023585Y006871D01*
X023544Y006871D01*
X023544Y006941D01*
X023439Y007046D01*
X022424Y007046D01*
X022359Y006981D01*
X022278Y006981D01*
X022121Y007139D01*
X021742Y007139D01*
X021481Y006878D01*
X021481Y007057D01*
X021695Y007271D01*
X021742Y007224D01*
X022121Y007224D01*
X022278Y007381D01*
X022359Y007381D01*
X022424Y007316D01*
X023439Y007316D01*
X023544Y007422D01*
X023544Y008161D01*
X023439Y008267D01*
X022424Y008267D01*
X022318Y008161D01*
X022318Y007981D01*
X022278Y007981D01*
X022121Y008139D01*
X021742Y008139D01*
X021559Y007955D01*
X021511Y007936D01*
X021011Y007436D01*
X020927Y007351D01*
X020881Y007241D01*
X020881Y005504D01*
X020741Y005364D01*
X020741Y004999D01*
X020999Y004741D01*
X021364Y004741D01*
X021504Y004881D01*
X021871Y004881D01*
X021871Y004792D01*
X021977Y004686D01*
X022638Y004686D01*
X022743Y004792D01*
X022743Y005571D01*
X022638Y005676D01*
X021977Y005676D01*
X021871Y005571D01*
X021871Y005481D01*
X021504Y005481D01*
X021481Y005504D01*
X021481Y006485D01*
X021742Y006224D01*
X022121Y006224D01*
X022278Y006381D01*
X022318Y006381D01*
X022318Y006201D01*
X022424Y006096D01*
X023439Y006096D01*
X023544Y006201D01*
X023544Y006271D01*
X023741Y006271D01*
X023851Y006317D01*
X023936Y006401D01*
X023956Y006450D01*
X024090Y006584D01*
X024169Y006663D01*
X024211Y006765D01*
X024211Y008362D01*
X024169Y008465D01*
X024090Y008544D01*
X023919Y008715D01*
X023840Y008794D01*
X023737Y008836D01*
X023891Y008743D02*
X026556Y008743D01*
X026556Y008901D02*
X021732Y008901D01*
X021789Y009060D02*
X022074Y009060D01*
X022024Y009109D02*
X022159Y008974D01*
X022336Y008901D01*
X022527Y008901D01*
X022703Y008974D01*
X022838Y009109D01*
X022911Y009286D01*
X022911Y010077D01*
X022838Y010253D01*
X022731Y010360D01*
X022731Y010557D01*
X023101Y010927D01*
X023186Y011011D01*
X023221Y011096D01*
X023439Y011096D01*
X023544Y011201D01*
X023544Y011941D01*
X023439Y012046D01*
X022424Y012046D01*
X022359Y011981D01*
X022278Y011981D01*
X022121Y012139D01*
X021742Y012139D01*
X021474Y011871D01*
X021474Y011492D01*
X021742Y011224D01*
X022121Y011224D01*
X022278Y011381D01*
X022318Y011381D01*
X022318Y011201D01*
X022423Y011097D01*
X022177Y010851D01*
X022131Y010741D01*
X022131Y010622D01*
X022131Y010360D01*
X022024Y010253D01*
X021951Y010077D01*
X021951Y009286D01*
X022024Y009109D01*
X021979Y009218D02*
X021883Y009218D01*
X021911Y009377D02*
X021951Y009377D01*
X021951Y009535D02*
X021911Y009535D01*
X021911Y009694D02*
X021951Y009694D01*
X021951Y009853D02*
X021911Y009853D01*
X021911Y010011D02*
X021951Y010011D01*
X021990Y010170D02*
X021873Y010170D01*
X021763Y010328D02*
X022099Y010328D01*
X022131Y010487D02*
X017681Y010487D01*
X017681Y010645D02*
X022131Y010645D01*
X022157Y010804D02*
X017681Y010804D01*
X017681Y010962D02*
X022288Y010962D01*
X022399Y011121D02*
X017681Y011121D01*
X017681Y011279D02*
X021687Y011279D01*
X021528Y011438D02*
X017681Y011438D01*
X017681Y011597D02*
X021474Y011597D01*
X021474Y011755D02*
X017681Y011755D01*
X017681Y011914D02*
X021517Y011914D01*
X021676Y012072D02*
X017681Y012072D01*
X017681Y012231D02*
X021514Y012231D01*
X021534Y012211D02*
X021630Y012171D01*
X021733Y012171D01*
X023358Y012171D01*
X023454Y012211D01*
X023527Y012284D01*
X023566Y012380D01*
X023566Y012483D01*
X023566Y013983D01*
X023527Y014079D01*
X023454Y014152D01*
X023358Y014191D01*
X023255Y014191D01*
X021733Y014191D01*
X021630Y014191D01*
X021534Y014152D01*
X021461Y014079D01*
X021421Y013983D01*
X021421Y012380D01*
X021461Y012284D01*
X021534Y012211D01*
X021421Y012389D02*
X017681Y012389D01*
X017681Y012548D02*
X021421Y012548D01*
X021421Y012706D02*
X017681Y012706D01*
X017681Y012865D02*
X021421Y012865D01*
X021421Y013023D02*
X017681Y013023D01*
X017681Y013182D02*
X021421Y013182D01*
X021421Y013341D02*
X017681Y013341D01*
X017681Y013499D02*
X021421Y013499D01*
X021421Y013658D02*
X017681Y013658D01*
X017681Y013816D02*
X021421Y013816D01*
X021421Y013975D02*
X017681Y013975D01*
X017681Y014133D02*
X021516Y014133D01*
X021681Y013931D02*
X023306Y013931D01*
X023306Y012431D01*
X021681Y012431D01*
X021681Y013931D01*
X021681Y013816D02*
X023306Y013816D01*
X023306Y013658D02*
X021681Y013658D01*
X021681Y013499D02*
X023306Y013499D01*
X023306Y013341D02*
X021681Y013341D01*
X021681Y013182D02*
X023306Y013182D01*
X023306Y013023D02*
X021681Y013023D01*
X021681Y012865D02*
X023306Y012865D01*
X023306Y012706D02*
X021681Y012706D01*
X021681Y012548D02*
X023306Y012548D01*
X023566Y012548D02*
X025124Y012548D01*
X025282Y012706D02*
X023566Y012706D01*
X023566Y012865D02*
X025381Y012865D01*
X025381Y013023D02*
X023566Y013023D01*
X023566Y013182D02*
X025381Y013182D01*
X025381Y013341D02*
X023566Y013341D01*
X023566Y013499D02*
X025381Y013499D01*
X025381Y013658D02*
X023566Y013658D01*
X023566Y013816D02*
X025381Y013816D01*
X025381Y013975D02*
X023566Y013975D01*
X023472Y014133D02*
X025381Y014133D01*
X025381Y014292D02*
X017681Y014292D01*
X017681Y014450D02*
X025381Y014450D01*
X025381Y014609D02*
X017681Y014609D01*
X017681Y014767D02*
X025381Y014767D01*
X023931Y015431D02*
X023931Y013807D01*
X023805Y013681D01*
X024931Y013681D01*
X023057Y013681D02*
X022931Y013555D01*
X022931Y012792D01*
X023566Y012389D02*
X024965Y012389D01*
X024806Y012231D02*
X023473Y012231D01*
X023544Y011914D02*
X024489Y011914D01*
X024648Y012072D02*
X022187Y012072D01*
X023544Y011755D02*
X024331Y011755D01*
X024172Y011597D02*
X023544Y011597D01*
X023544Y011438D02*
X024014Y011438D01*
X023855Y011279D02*
X023544Y011279D01*
X023464Y011121D02*
X023697Y011121D01*
X023538Y010962D02*
X023137Y010962D01*
X022978Y010804D02*
X023380Y010804D01*
X023221Y010645D02*
X022820Y010645D01*
X022731Y010487D02*
X023131Y010487D01*
X023099Y010328D02*
X022763Y010328D01*
X022873Y010170D02*
X022990Y010170D01*
X022951Y010011D02*
X022911Y010011D01*
X022911Y009853D02*
X022951Y009853D01*
X022951Y009694D02*
X022911Y009694D01*
X022911Y009535D02*
X022951Y009535D01*
X022951Y009377D02*
X022911Y009377D01*
X022883Y009218D02*
X022979Y009218D01*
X023074Y009060D02*
X022789Y009060D01*
X024050Y008584D02*
X026556Y008584D01*
X026556Y008426D02*
X024185Y008426D01*
X024090Y008544D02*
X024090Y008544D01*
X024211Y008267D02*
X026556Y008267D01*
X026556Y008109D02*
X024211Y008109D01*
X024211Y007950D02*
X026556Y007950D01*
X026556Y007791D02*
X024211Y007791D01*
X024211Y007633D02*
X026556Y007633D01*
X026556Y007474D02*
X024211Y007474D01*
X024211Y007316D02*
X026556Y007316D01*
X026556Y007157D02*
X024211Y007157D01*
X024211Y006999D02*
X026556Y006999D01*
X026556Y006840D02*
X024211Y006840D01*
X024177Y006682D02*
X026556Y006682D01*
X026556Y006523D02*
X024029Y006523D01*
X023899Y006365D02*
X026556Y006365D01*
X026556Y006206D02*
X023544Y006206D01*
X022742Y005572D02*
X026556Y005572D01*
X026556Y005730D02*
X021481Y005730D01*
X021481Y005572D02*
X021872Y005572D01*
X021481Y005889D02*
X026556Y005889D01*
X026556Y006048D02*
X021481Y006048D01*
X021481Y006206D02*
X022318Y006206D01*
X022318Y006365D02*
X022261Y006365D01*
X021602Y006365D02*
X021481Y006365D01*
X020881Y006365D02*
X020731Y006365D01*
X020731Y006523D02*
X020881Y006523D01*
X020881Y006682D02*
X020731Y006682D01*
X020731Y006840D02*
X020881Y006840D01*
X020881Y006999D02*
X020731Y006999D01*
X020731Y007157D02*
X020881Y007157D01*
X020912Y007316D02*
X020731Y007316D01*
X020731Y007474D02*
X021050Y007474D01*
X021209Y007633D02*
X020731Y007633D01*
X020731Y007791D02*
X021367Y007791D01*
X021546Y007950D02*
X020731Y007950D01*
X020731Y008109D02*
X021712Y008109D01*
X022151Y008109D02*
X022318Y008109D01*
X021416Y008426D02*
X020731Y008426D01*
X020731Y008584D02*
X021258Y008584D01*
X021155Y008743D02*
X020731Y008743D01*
X020731Y008901D02*
X021151Y008901D01*
X021074Y009060D02*
X020789Y009060D01*
X020838Y009109D02*
X020731Y009003D01*
X020731Y002306D01*
X021056Y001981D01*
X021585Y001981D01*
X021742Y002139D01*
X022121Y002139D01*
X022278Y001981D01*
X022359Y001981D01*
X022424Y002046D01*
X023439Y002046D01*
X023544Y001941D01*
X023544Y001201D01*
X023439Y001096D01*
X022424Y001096D01*
X022318Y001201D01*
X022318Y001381D01*
X022278Y001381D01*
X022121Y001224D01*
X021742Y001224D01*
X021585Y001381D01*
X020872Y001381D01*
X020761Y001427D01*
X020677Y001511D01*
X020677Y001511D01*
X020177Y002011D01*
X020131Y002122D01*
X020131Y002241D01*
X020131Y009003D01*
X020024Y009109D01*
X019951Y009286D01*
X019951Y010077D01*
X020024Y010253D01*
X020159Y010388D01*
X020336Y010461D01*
X020527Y010461D01*
X020703Y010388D01*
X020838Y010253D01*
X020911Y010077D01*
X020911Y009286D01*
X020838Y009109D01*
X020883Y009218D02*
X020979Y009218D01*
X020951Y009377D02*
X020911Y009377D01*
X020911Y009535D02*
X020951Y009535D01*
X020951Y009694D02*
X020911Y009694D01*
X020911Y009853D02*
X020951Y009853D01*
X020951Y010011D02*
X020911Y010011D01*
X020873Y010170D02*
X020990Y010170D01*
X021099Y010328D02*
X020763Y010328D01*
X020099Y010328D02*
X017681Y010328D01*
X017681Y010170D02*
X019990Y010170D01*
X019951Y010011D02*
X017681Y010011D01*
X017681Y009853D02*
X019951Y009853D01*
X019951Y009694D02*
X017681Y009694D01*
X017681Y009535D02*
X019951Y009535D01*
X019951Y009377D02*
X017681Y009377D01*
X017681Y009218D02*
X019979Y009218D01*
X020074Y009060D02*
X017681Y009060D01*
X017681Y008901D02*
X020131Y008901D01*
X020131Y008743D02*
X017681Y008743D01*
X017681Y008584D02*
X020131Y008584D01*
X020131Y008426D02*
X017681Y008426D01*
X017681Y008267D02*
X020131Y008267D01*
X020131Y008109D02*
X017681Y008109D01*
X017681Y007950D02*
X020131Y007950D01*
X020131Y007791D02*
X017681Y007791D01*
X017681Y007633D02*
X020131Y007633D01*
X020131Y007474D02*
X017681Y007474D01*
X017681Y007316D02*
X020131Y007316D01*
X020131Y007157D02*
X017681Y007157D01*
X017681Y006999D02*
X020131Y006999D01*
X020131Y006840D02*
X017681Y006840D01*
X017681Y006682D02*
X020131Y006682D01*
X020131Y006523D02*
X017681Y006523D01*
X017681Y006365D02*
X020131Y006365D01*
X020131Y006206D02*
X017681Y006206D01*
X017681Y006048D02*
X020131Y006048D01*
X020131Y005889D02*
X017681Y005889D01*
X017681Y005730D02*
X020131Y005730D01*
X020131Y005572D02*
X017681Y005572D01*
X017681Y005413D02*
X020131Y005413D01*
X020131Y005255D02*
X017681Y005255D01*
X017681Y005096D02*
X020131Y005096D01*
X020131Y004938D02*
X017681Y004938D01*
X017681Y004779D02*
X020131Y004779D01*
X020131Y004621D02*
X017681Y004621D01*
X017681Y004462D02*
X020131Y004462D01*
X020131Y004304D02*
X017681Y004304D01*
X017681Y004145D02*
X020131Y004145D01*
X020131Y003986D02*
X017681Y003986D01*
X017681Y003828D02*
X020131Y003828D01*
X020131Y003669D02*
X017681Y003669D01*
X017681Y003511D02*
X020131Y003511D01*
X020131Y003352D02*
X017681Y003352D01*
X017681Y003194D02*
X020131Y003194D01*
X020131Y003035D02*
X017681Y003035D01*
X017681Y002877D02*
X020131Y002877D01*
X020131Y002718D02*
X017681Y002718D01*
X017681Y002560D02*
X020131Y002560D01*
X020131Y002401D02*
X017681Y002401D01*
X017681Y002242D02*
X020131Y002242D01*
X020147Y002084D02*
X017681Y002084D01*
X017681Y001925D02*
X020263Y001925D01*
X020422Y001767D02*
X017681Y001767D01*
X017681Y001608D02*
X020580Y001608D01*
X020739Y001450D02*
X017681Y001450D01*
X017681Y001291D02*
X021675Y001291D01*
X022188Y001291D02*
X022318Y001291D01*
X022387Y001133D02*
X017681Y001133D01*
X017681Y000974D02*
X026556Y000974D01*
X026556Y000816D02*
X017681Y000816D01*
X017681Y000657D02*
X026556Y000657D01*
X026556Y000499D02*
X017681Y000499D01*
X017306Y000499D02*
X008931Y000499D01*
X008931Y000657D02*
X017306Y000657D01*
X017306Y000816D02*
X008931Y000816D01*
X008931Y000974D02*
X017306Y000974D01*
X017306Y001133D02*
X013476Y001133D01*
X013544Y001291D02*
X017306Y001291D01*
X017306Y001450D02*
X013544Y001450D01*
X013544Y001608D02*
X017306Y001608D01*
X017306Y001767D02*
X013544Y001767D01*
X013544Y001925D02*
X017306Y001925D01*
X017306Y002084D02*
X012175Y002084D01*
X011733Y002171D02*
X013358Y002171D01*
X013454Y002211D01*
X013527Y002284D01*
X013566Y002380D01*
X013566Y002483D01*
X013566Y003983D01*
X013527Y004079D01*
X013454Y004152D01*
X013358Y004191D01*
X013255Y004191D01*
X011733Y004191D01*
X011630Y004191D01*
X011534Y004152D01*
X011461Y004079D01*
X011421Y003983D01*
X011421Y002380D01*
X011461Y002284D01*
X011534Y002211D01*
X011630Y002171D01*
X011733Y002171D01*
X011687Y002084D02*
X010953Y002084D01*
X010795Y002242D02*
X011503Y002242D01*
X011421Y002401D02*
X010731Y002401D01*
X010731Y002560D02*
X011421Y002560D01*
X011421Y002718D02*
X010731Y002718D01*
X010731Y002877D02*
X011421Y002877D01*
X011421Y003035D02*
X010731Y003035D01*
X010731Y003194D02*
X011421Y003194D01*
X011421Y003352D02*
X010731Y003352D01*
X010731Y003511D02*
X011421Y003511D01*
X011421Y003669D02*
X010731Y003669D01*
X010731Y003828D02*
X011421Y003828D01*
X011423Y003986D02*
X010731Y003986D01*
X010731Y004145D02*
X011527Y004145D01*
X011681Y003931D02*
X013306Y003931D01*
X013306Y002431D01*
X011681Y002431D01*
X011681Y003931D01*
X011681Y003828D02*
X013306Y003828D01*
X013306Y003669D02*
X011681Y003669D01*
X011681Y003511D02*
X013306Y003511D01*
X013306Y003352D02*
X011681Y003352D01*
X011681Y003194D02*
X013306Y003194D01*
X013306Y003035D02*
X011681Y003035D01*
X011681Y002877D02*
X013306Y002877D01*
X013306Y002718D02*
X011681Y002718D01*
X011681Y002560D02*
X013306Y002560D01*
X013566Y002560D02*
X017306Y002560D01*
X017306Y002718D02*
X013566Y002718D01*
X013566Y002877D02*
X017306Y002877D01*
X017306Y003035D02*
X013566Y003035D01*
X013566Y003194D02*
X017306Y003194D01*
X017306Y003352D02*
X013566Y003352D01*
X013566Y003511D02*
X017306Y003511D01*
X017306Y003669D02*
X013566Y003669D01*
X013566Y003828D02*
X017306Y003828D01*
X017306Y003986D02*
X013565Y003986D01*
X013460Y004145D02*
X017306Y004145D01*
X017306Y004304D02*
X010731Y004304D01*
X010731Y004462D02*
X017306Y004462D01*
X017306Y004621D02*
X010731Y004621D01*
X010731Y004779D02*
X017306Y004779D01*
X017306Y004938D02*
X013389Y004938D01*
X013493Y005096D02*
X017306Y005096D01*
X017306Y005255D02*
X013493Y005255D01*
X013493Y005413D02*
X017306Y005413D01*
X017306Y005572D02*
X013493Y005572D01*
X013493Y005730D02*
X017306Y005730D01*
X020731Y005730D02*
X020881Y005730D01*
X020881Y005572D02*
X020731Y005572D01*
X020731Y005413D02*
X020791Y005413D01*
X020741Y005255D02*
X020731Y005255D01*
X020731Y005096D02*
X020741Y005096D01*
X020731Y004938D02*
X020803Y004938D01*
X020731Y004779D02*
X020961Y004779D01*
X020731Y004621D02*
X026556Y004621D01*
X026556Y004779D02*
X022731Y004779D01*
X022743Y004938D02*
X026556Y004938D01*
X026556Y005096D02*
X022743Y005096D01*
X022743Y005255D02*
X026556Y005255D01*
X026556Y005413D02*
X022743Y005413D01*
X023055Y005181D02*
X024181Y005181D01*
X024181Y004057D01*
X023805Y003681D01*
X024931Y003681D01*
X023566Y003669D02*
X026556Y003669D01*
X026556Y003511D02*
X023566Y003511D01*
X023566Y003352D02*
X026556Y003352D01*
X026556Y003194D02*
X023566Y003194D01*
X023566Y003035D02*
X026556Y003035D01*
X026556Y002877D02*
X023566Y002877D01*
X023566Y002718D02*
X026556Y002718D01*
X026556Y002560D02*
X023566Y002560D01*
X023566Y002483D02*
X023566Y003983D01*
X023527Y004079D01*
X023454Y004152D01*
X023358Y004191D01*
X023255Y004191D01*
X021733Y004191D01*
X021630Y004191D01*
X021534Y004152D01*
X021461Y004079D01*
X021421Y003983D01*
X021421Y002380D01*
X021461Y002284D01*
X021534Y002211D01*
X021630Y002171D01*
X021733Y002171D01*
X023358Y002171D01*
X023454Y002211D01*
X023527Y002284D01*
X023566Y002380D01*
X023566Y002483D01*
X023566Y002401D02*
X026556Y002401D01*
X026556Y002242D02*
X023485Y002242D01*
X023306Y002431D02*
X021681Y002431D01*
X021681Y003931D01*
X023306Y003931D01*
X023306Y002431D01*
X023306Y002560D02*
X021681Y002560D01*
X021681Y002718D02*
X023306Y002718D01*
X023306Y002877D02*
X021681Y002877D01*
X021681Y003035D02*
X023306Y003035D01*
X023306Y003194D02*
X021681Y003194D01*
X021681Y003352D02*
X023306Y003352D01*
X023306Y003511D02*
X021681Y003511D01*
X021681Y003669D02*
X023306Y003669D01*
X023306Y003828D02*
X021681Y003828D01*
X021421Y003828D02*
X020731Y003828D01*
X020731Y003986D02*
X021423Y003986D01*
X021527Y004145D02*
X020731Y004145D01*
X020731Y004304D02*
X026556Y004304D01*
X026556Y004462D02*
X020731Y004462D01*
X021401Y004779D02*
X021884Y004779D01*
X023460Y004145D02*
X026556Y004145D01*
X026556Y003986D02*
X023565Y003986D01*
X023566Y003828D02*
X026556Y003828D01*
X026931Y003828D02*
X030131Y003828D01*
X030131Y003986D02*
X026931Y003986D01*
X026931Y004145D02*
X030131Y004145D01*
X030131Y004304D02*
X026931Y004304D01*
X026931Y004462D02*
X030131Y004462D01*
X030131Y004621D02*
X026931Y004621D01*
X026931Y004779D02*
X030131Y004779D01*
X030131Y004938D02*
X026931Y004938D01*
X026931Y005096D02*
X030131Y005096D01*
X030131Y005255D02*
X026931Y005255D01*
X026931Y005413D02*
X030131Y005413D01*
X030131Y005572D02*
X026931Y005572D01*
X026931Y005730D02*
X030131Y005730D01*
X030131Y005889D02*
X026931Y005889D01*
X026931Y006048D02*
X030131Y006048D01*
X030131Y006206D02*
X026931Y006206D01*
X026931Y006365D02*
X030131Y006365D01*
X030131Y006523D02*
X026931Y006523D01*
X026931Y006682D02*
X030131Y006682D01*
X030131Y006840D02*
X026931Y006840D01*
X026931Y006999D02*
X030131Y006999D01*
X030131Y007157D02*
X026931Y007157D01*
X026931Y007316D02*
X030131Y007316D01*
X030131Y007474D02*
X026931Y007474D01*
X026931Y007633D02*
X030131Y007633D01*
X030131Y007791D02*
X026931Y007791D01*
X026931Y007950D02*
X030131Y007950D01*
X030131Y008109D02*
X026931Y008109D01*
X026931Y008267D02*
X030131Y008267D01*
X030131Y008426D02*
X026931Y008426D01*
X026931Y008584D02*
X030131Y008584D01*
X030131Y008743D02*
X026931Y008743D01*
X026931Y008901D02*
X030131Y008901D01*
X030131Y009003D02*
X030131Y002241D01*
X030131Y002122D01*
X030177Y002011D01*
X030677Y001511D01*
X030761Y001427D01*
X030872Y001381D01*
X031585Y001381D01*
X031742Y001224D01*
X032121Y001224D01*
X032278Y001381D01*
X032318Y001381D01*
X032318Y001201D01*
X032424Y001096D01*
X033439Y001096D01*
X033544Y001201D01*
X033544Y001941D01*
X033439Y002046D01*
X032424Y002046D01*
X032359Y001981D01*
X032278Y001981D01*
X032121Y002139D01*
X031742Y002139D01*
X031585Y001981D01*
X031056Y001981D01*
X030731Y002306D01*
X030731Y009003D01*
X030838Y009109D01*
X030911Y009286D01*
X030911Y010077D01*
X030838Y010253D01*
X030703Y010388D01*
X030527Y010461D01*
X030336Y010461D01*
X030159Y010388D01*
X030024Y010253D01*
X029951Y010077D01*
X029951Y009286D01*
X030024Y009109D01*
X030131Y009003D01*
X030074Y009060D02*
X026931Y009060D01*
X026931Y009218D02*
X029979Y009218D01*
X029951Y009377D02*
X026931Y009377D01*
X026931Y009535D02*
X029951Y009535D01*
X029951Y009694D02*
X026931Y009694D01*
X026931Y009853D02*
X029951Y009853D01*
X029951Y010011D02*
X026931Y010011D01*
X026931Y010170D02*
X029990Y010170D01*
X030099Y010328D02*
X026931Y010328D01*
X026931Y010487D02*
X032131Y010487D01*
X032131Y010360D02*
X032024Y010253D01*
X031951Y010077D01*
X031951Y009286D01*
X032024Y009109D01*
X032159Y008974D01*
X032336Y008901D01*
X032527Y008901D01*
X032703Y008974D01*
X032838Y009109D01*
X032911Y009286D01*
X032911Y010077D01*
X032838Y010253D01*
X032731Y010360D01*
X032731Y010557D01*
X033186Y011011D01*
X033221Y011096D01*
X033439Y011096D01*
X033544Y011201D01*
X033544Y011941D01*
X033439Y012046D01*
X032424Y012046D01*
X032359Y011981D01*
X032278Y011981D01*
X032121Y012139D01*
X031742Y012139D01*
X031474Y011871D01*
X031474Y011492D01*
X031742Y011224D01*
X032121Y011224D01*
X032278Y011381D01*
X032318Y011381D01*
X032318Y011201D01*
X032423Y011097D01*
X032261Y010936D01*
X032177Y010851D01*
X032131Y010741D01*
X032131Y010360D01*
X032099Y010328D02*
X031763Y010328D01*
X031703Y010388D02*
X031527Y010461D01*
X031336Y010461D01*
X031159Y010388D01*
X031024Y010253D01*
X030951Y010077D01*
X030951Y009286D01*
X031024Y009109D01*
X031131Y009003D01*
X031131Y008556D01*
X030886Y008311D01*
X030802Y008226D01*
X030756Y008116D01*
X030756Y006997D01*
X030802Y006886D01*
X030886Y006802D01*
X030886Y006802D01*
X031177Y006511D01*
X031261Y006427D01*
X031372Y006381D01*
X031585Y006381D01*
X031742Y006224D01*
X032121Y006224D01*
X032278Y006381D01*
X032318Y006381D01*
X032318Y006201D01*
X032424Y006096D01*
X033439Y006096D01*
X033544Y006201D01*
X033544Y006941D01*
X033439Y007046D01*
X032424Y007046D01*
X032359Y006981D01*
X032278Y006981D01*
X032121Y007139D01*
X031742Y007139D01*
X031585Y006981D01*
X031556Y006981D01*
X031356Y007181D01*
X031356Y007932D01*
X031601Y008177D01*
X031601Y008177D01*
X031686Y008261D01*
X031731Y008372D01*
X031731Y009003D01*
X031838Y009109D01*
X031911Y009286D01*
X031911Y010077D01*
X031838Y010253D01*
X031703Y010388D01*
X031873Y010170D02*
X031990Y010170D01*
X031951Y010011D02*
X031911Y010011D01*
X031911Y009853D02*
X031951Y009853D01*
X031951Y009694D02*
X031911Y009694D01*
X031911Y009535D02*
X031951Y009535D01*
X031951Y009377D02*
X031911Y009377D01*
X031883Y009218D02*
X031979Y009218D01*
X032074Y009060D02*
X031789Y009060D01*
X031731Y008901D02*
X035431Y008901D01*
X035431Y008743D02*
X031731Y008743D01*
X031731Y008584D02*
X035431Y008584D01*
X035431Y008426D02*
X031731Y008426D01*
X031688Y008267D02*
X035431Y008267D01*
X035431Y008109D02*
X033544Y008109D01*
X033544Y008161D02*
X033544Y007981D01*
X033622Y007981D01*
X033741Y007981D01*
X033851Y007936D01*
X034101Y007686D01*
X034186Y007601D01*
X034231Y007491D01*
X034231Y007122D01*
X034231Y006872D01*
X034231Y005754D01*
X034371Y005614D01*
X034371Y005249D01*
X034114Y004991D01*
X033749Y004991D01*
X033609Y005131D01*
X033241Y005131D01*
X033241Y005042D01*
X033136Y004936D01*
X032475Y004936D01*
X032370Y005042D01*
X032370Y005821D01*
X032475Y005926D01*
X033136Y005926D01*
X033241Y005821D01*
X033241Y005731D01*
X033609Y005731D01*
X033631Y005754D01*
X033631Y006872D01*
X033631Y007122D01*
X033631Y007307D01*
X033557Y007381D01*
X033504Y007381D01*
X033439Y007316D01*
X032424Y007316D01*
X032359Y007381D01*
X032278Y007381D01*
X032121Y007224D01*
X031742Y007224D01*
X031474Y007492D01*
X031474Y007871D01*
X031742Y008139D01*
X032121Y008139D01*
X032278Y007981D01*
X032318Y007981D01*
X032318Y008161D01*
X032424Y008267D01*
X033439Y008267D01*
X033544Y008161D01*
X033817Y007950D02*
X035431Y007950D01*
X035431Y007791D02*
X033996Y007791D01*
X034154Y007633D02*
X035431Y007633D01*
X035431Y007474D02*
X034231Y007474D01*
X034231Y007316D02*
X035431Y007316D01*
X035431Y007157D02*
X034231Y007157D01*
X034231Y006999D02*
X035431Y006999D01*
X035431Y006840D02*
X034231Y006840D01*
X034231Y006682D02*
X035431Y006682D01*
X035431Y006523D02*
X034231Y006523D01*
X034231Y006365D02*
X035431Y006365D01*
X035431Y006206D02*
X034231Y006206D01*
X034231Y006048D02*
X035431Y006048D01*
X035431Y005889D02*
X034231Y005889D01*
X034255Y005730D02*
X035431Y005730D01*
X035431Y005572D02*
X034371Y005572D01*
X034371Y005413D02*
X035431Y005413D01*
X035431Y005255D02*
X034371Y005255D01*
X034218Y005096D02*
X035431Y005096D01*
X035431Y004938D02*
X033137Y004938D01*
X033241Y005096D02*
X033644Y005096D01*
X032474Y004938D02*
X030731Y004938D01*
X030731Y005096D02*
X032370Y005096D01*
X032370Y005255D02*
X030731Y005255D01*
X030731Y005413D02*
X032370Y005413D01*
X032370Y005572D02*
X030731Y005572D01*
X030731Y005730D02*
X032370Y005730D01*
X032438Y005889D02*
X030731Y005889D01*
X030731Y006048D02*
X033631Y006048D01*
X033631Y006206D02*
X033544Y006206D01*
X033544Y006365D02*
X033631Y006365D01*
X033631Y006523D02*
X033544Y006523D01*
X033544Y006682D02*
X033631Y006682D01*
X033631Y006840D02*
X033544Y006840D01*
X033487Y006999D02*
X033631Y006999D01*
X033631Y007157D02*
X031380Y007157D01*
X031356Y007316D02*
X031650Y007316D01*
X031492Y007474D02*
X031356Y007474D01*
X031356Y007633D02*
X031474Y007633D01*
X031474Y007791D02*
X031356Y007791D01*
X031374Y007950D02*
X031554Y007950D01*
X031533Y008109D02*
X031712Y008109D01*
X032151Y008109D02*
X032318Y008109D01*
X031131Y008584D02*
X030731Y008584D01*
X030731Y008426D02*
X031001Y008426D01*
X030886Y008311D02*
X030886Y008311D01*
X030843Y008267D02*
X030731Y008267D01*
X030731Y008109D02*
X030756Y008109D01*
X030756Y007950D02*
X030731Y007950D01*
X030731Y007791D02*
X030756Y007791D01*
X030756Y007633D02*
X030731Y007633D01*
X030731Y007474D02*
X030756Y007474D01*
X030756Y007316D02*
X030731Y007316D01*
X030731Y007157D02*
X030756Y007157D01*
X030756Y006999D02*
X030731Y006999D01*
X030731Y006840D02*
X030848Y006840D01*
X030731Y006682D02*
X031007Y006682D01*
X031165Y006523D02*
X030731Y006523D01*
X030731Y006365D02*
X031602Y006365D01*
X031177Y006511D02*
X031177Y006511D01*
X030731Y006206D02*
X032318Y006206D01*
X032318Y006365D02*
X032261Y006365D01*
X033173Y005889D02*
X033631Y005889D01*
X035806Y005889D02*
X038631Y005889D01*
X038631Y006048D02*
X035806Y006048D01*
X035806Y006206D02*
X038631Y006206D01*
X038631Y006365D02*
X035806Y006365D01*
X035806Y006523D02*
X038631Y006523D01*
X038631Y006682D02*
X035806Y006682D01*
X035806Y006840D02*
X038631Y006840D01*
X038631Y006999D02*
X035806Y006999D01*
X035806Y007157D02*
X038631Y007157D01*
X038631Y007316D02*
X035806Y007316D01*
X035806Y007474D02*
X038631Y007474D01*
X038631Y007633D02*
X035806Y007633D01*
X035806Y007791D02*
X038631Y007791D01*
X038631Y007950D02*
X035806Y007950D01*
X035806Y008109D02*
X038631Y008109D01*
X038631Y008267D02*
X035806Y008267D01*
X035806Y008426D02*
X038631Y008426D01*
X038631Y008584D02*
X035806Y008584D01*
X035806Y008743D02*
X038631Y008743D01*
X038631Y008901D02*
X035806Y008901D01*
X035806Y009060D02*
X038574Y009060D01*
X038524Y009109D02*
X038631Y009003D01*
X038631Y002241D01*
X038631Y002122D01*
X038677Y002011D01*
X039177Y001511D01*
X039261Y001427D01*
X039372Y001381D01*
X041585Y001381D01*
X041742Y001224D01*
X042121Y001224D01*
X042278Y001381D01*
X042318Y001381D01*
X042318Y001201D01*
X042424Y001096D01*
X043439Y001096D01*
X043544Y001201D01*
X043544Y001941D01*
X043439Y002046D01*
X042424Y002046D01*
X042359Y001981D01*
X042278Y001981D01*
X042121Y002139D01*
X041742Y002139D01*
X041585Y001981D01*
X039556Y001981D01*
X039231Y002306D01*
X039231Y009003D01*
X039338Y009109D01*
X039411Y009286D01*
X039411Y010077D01*
X039338Y010253D01*
X039203Y010388D01*
X039027Y010461D01*
X038836Y010461D01*
X038659Y010388D01*
X038524Y010253D01*
X038451Y010077D01*
X038451Y009286D01*
X038524Y009109D01*
X038479Y009218D02*
X035806Y009218D01*
X035806Y009377D02*
X038451Y009377D01*
X038451Y009535D02*
X035806Y009535D01*
X035806Y009694D02*
X038451Y009694D01*
X038451Y009853D02*
X035806Y009853D01*
X035806Y010011D02*
X038451Y010011D01*
X038490Y010170D02*
X035806Y010170D01*
X035806Y010328D02*
X038599Y010328D01*
X039263Y010328D02*
X039599Y010328D01*
X039659Y010388D02*
X039524Y010253D01*
X039451Y010077D01*
X039451Y009286D01*
X039524Y009109D01*
X039631Y009003D01*
X039631Y008997D01*
X039677Y008886D01*
X039761Y008802D01*
X040261Y008302D01*
X040372Y008256D01*
X040491Y008256D01*
X042413Y008256D01*
X042318Y008161D01*
X042318Y007981D01*
X042278Y007981D01*
X042121Y008139D01*
X041742Y008139D01*
X041585Y007981D01*
X040754Y007981D01*
X040614Y008121D01*
X040249Y008121D01*
X039991Y007864D01*
X039991Y007499D01*
X040131Y007359D01*
X040131Y006991D01*
X040042Y006991D01*
X039936Y006886D01*
X039936Y006225D01*
X040042Y006120D01*
X040821Y006120D01*
X040926Y006225D01*
X040926Y006886D01*
X040821Y006991D01*
X040731Y006991D01*
X040731Y007359D01*
X040754Y007381D01*
X041585Y007381D01*
X041742Y007224D01*
X042121Y007224D01*
X042278Y007381D01*
X042359Y007381D01*
X042424Y007316D01*
X043439Y007316D01*
X043544Y007422D01*
X043544Y008161D01*
X043449Y008256D01*
X043557Y008256D01*
X043631Y008182D01*
X043631Y006945D01*
X043557Y006871D01*
X043544Y006871D01*
X043544Y006941D01*
X043439Y007046D01*
X042424Y007046D01*
X042359Y006981D01*
X042278Y006981D01*
X042121Y007139D01*
X041742Y007139D01*
X041474Y006871D01*
X041474Y006492D01*
X041742Y006224D01*
X042121Y006224D01*
X042278Y006381D01*
X042318Y006381D01*
X042318Y006201D01*
X042424Y006096D01*
X043439Y006096D01*
X043544Y006201D01*
X043544Y006271D01*
X043741Y006271D01*
X043851Y006317D01*
X043936Y006401D01*
X044186Y006651D01*
X044231Y006761D01*
X044231Y006881D01*
X044231Y008366D01*
X044186Y008476D01*
X044101Y008561D01*
X043936Y008726D01*
X043851Y008811D01*
X043741Y008856D01*
X040556Y008856D01*
X040320Y009092D01*
X040338Y009109D01*
X040411Y009286D01*
X040411Y010077D01*
X040338Y010253D01*
X040203Y010388D01*
X040027Y010461D01*
X039836Y010461D01*
X039659Y010388D01*
X039490Y010170D02*
X039373Y010170D01*
X039411Y010011D02*
X039451Y010011D01*
X039451Y009853D02*
X039411Y009853D01*
X039411Y009694D02*
X039451Y009694D01*
X039451Y009535D02*
X039411Y009535D01*
X039411Y009377D02*
X039451Y009377D01*
X039479Y009218D02*
X039383Y009218D01*
X039289Y009060D02*
X039574Y009060D01*
X039671Y008901D02*
X039231Y008901D01*
X039231Y008743D02*
X039821Y008743D01*
X039979Y008584D02*
X039231Y008584D01*
X039231Y008426D02*
X040138Y008426D01*
X040346Y008267D02*
X039231Y008267D01*
X039231Y008109D02*
X040236Y008109D01*
X040078Y007950D02*
X039231Y007950D01*
X039231Y007791D02*
X039991Y007791D01*
X039991Y007633D02*
X039231Y007633D01*
X039231Y007474D02*
X040016Y007474D01*
X040131Y007316D02*
X039231Y007316D01*
X039231Y007157D02*
X040131Y007157D01*
X040131Y006999D02*
X039231Y006999D01*
X039231Y006840D02*
X039936Y006840D01*
X039936Y006682D02*
X039231Y006682D01*
X039231Y006523D02*
X039936Y006523D01*
X039936Y006365D02*
X039231Y006365D01*
X039231Y006206D02*
X039955Y006206D01*
X040431Y006555D02*
X040431Y006681D01*
X040926Y006682D02*
X041474Y006682D01*
X041474Y006840D02*
X040926Y006840D01*
X040731Y006999D02*
X041602Y006999D01*
X041650Y007316D02*
X040731Y007316D01*
X040731Y007157D02*
X043631Y007157D01*
X043631Y006999D02*
X043487Y006999D01*
X043631Y007316D02*
X042212Y007316D01*
X042261Y006999D02*
X042376Y006999D01*
X041474Y006523D02*
X040926Y006523D01*
X040926Y006365D02*
X041602Y006365D01*
X040907Y006206D02*
X042318Y006206D01*
X042318Y006365D02*
X042261Y006365D01*
X043544Y006206D02*
X044394Y006206D01*
X044394Y006048D02*
X039231Y006048D01*
X039231Y005889D02*
X044394Y005889D01*
X044394Y005730D02*
X039231Y005730D01*
X039231Y005572D02*
X044394Y005572D01*
X044394Y005413D02*
X039231Y005413D01*
X039231Y005255D02*
X044394Y005255D01*
X044394Y005096D02*
X039231Y005096D01*
X039231Y004938D02*
X044394Y004938D01*
X044394Y004779D02*
X039231Y004779D01*
X039231Y004621D02*
X044394Y004621D01*
X044394Y004462D02*
X039231Y004462D01*
X039231Y004304D02*
X044394Y004304D01*
X044394Y004145D02*
X043460Y004145D01*
X043454Y004152D02*
X043358Y004191D01*
X043255Y004191D01*
X041358Y004191D01*
X041255Y004191D01*
X041159Y004152D01*
X041086Y004079D01*
X041046Y003983D01*
X041046Y002380D01*
X041086Y002284D01*
X041159Y002211D01*
X041255Y002171D01*
X041358Y002171D01*
X043358Y002171D01*
X043454Y002211D01*
X043527Y002284D01*
X043566Y002380D01*
X043566Y002483D01*
X043566Y003983D01*
X043527Y004079D01*
X043454Y004152D01*
X043565Y003986D02*
X044394Y003986D01*
X044394Y003828D02*
X043566Y003828D01*
X043566Y003669D02*
X044394Y003669D01*
X044394Y003511D02*
X043566Y003511D01*
X043566Y003352D02*
X044394Y003352D01*
X044394Y003194D02*
X043566Y003194D01*
X043566Y003035D02*
X044394Y003035D01*
X044394Y002877D02*
X043566Y002877D01*
X043566Y002718D02*
X044394Y002718D01*
X044394Y002560D02*
X043566Y002560D01*
X043566Y002401D02*
X044394Y002401D01*
X044394Y002242D02*
X043485Y002242D01*
X043306Y002431D02*
X041306Y002431D01*
X041306Y003931D01*
X043306Y003931D01*
X043306Y002431D01*
X043306Y002560D02*
X041306Y002560D01*
X041306Y002718D02*
X043306Y002718D01*
X043306Y002877D02*
X041306Y002877D01*
X041306Y003035D02*
X043306Y003035D01*
X043306Y003194D02*
X041306Y003194D01*
X041306Y003352D02*
X043306Y003352D01*
X043306Y003511D02*
X041306Y003511D01*
X041306Y003669D02*
X043306Y003669D01*
X043306Y003828D02*
X041306Y003828D01*
X041046Y003828D02*
X039231Y003828D01*
X039231Y003986D02*
X041048Y003986D01*
X041152Y004145D02*
X039231Y004145D01*
X038631Y004145D02*
X038317Y004145D01*
X038317Y003986D02*
X038631Y003986D01*
X038631Y003828D02*
X038275Y003828D01*
X038317Y003950D02*
X038317Y004413D01*
X038167Y004850D01*
X037883Y005215D01*
X037496Y005468D01*
X037047Y005582D01*
X036586Y005543D01*
X036163Y005358D01*
X035823Y005044D01*
X035806Y005014D01*
X035806Y013849D01*
X035823Y013818D01*
X036163Y013505D01*
X036586Y013319D01*
X037047Y013281D01*
X037496Y013395D01*
X037883Y013648D01*
X038167Y014013D01*
X038317Y014450D01*
X038317Y014913D01*
X038167Y015350D01*
X037883Y015715D01*
X037496Y015968D01*
X037047Y016082D01*
X036586Y016043D01*
X036163Y015858D01*
X035823Y015544D01*
X035806Y015514D01*
X035806Y018521D01*
X044394Y018521D01*
X044394Y000461D01*
X035806Y000461D01*
X035806Y003349D01*
X035823Y003318D01*
X036163Y003005D01*
X036586Y002819D01*
X037047Y002781D01*
X037496Y002895D01*
X037883Y003148D01*
X038167Y003513D01*
X038317Y003950D01*
X038221Y003669D02*
X038631Y003669D01*
X038631Y003511D02*
X038166Y003511D01*
X038042Y003352D02*
X038631Y003352D01*
X038631Y003194D02*
X037919Y003194D01*
X037711Y003035D02*
X038631Y003035D01*
X038631Y002877D02*
X037424Y002877D01*
X036456Y002877D02*
X035806Y002877D01*
X035806Y003035D02*
X036130Y003035D01*
X035958Y003194D02*
X035806Y003194D01*
X035431Y003194D02*
X033566Y003194D01*
X033566Y003352D02*
X035431Y003352D01*
X035431Y003511D02*
X033566Y003511D01*
X033566Y003669D02*
X035431Y003669D01*
X035431Y003828D02*
X033566Y003828D01*
X033566Y003983D02*
X033527Y004079D01*
X033454Y004152D01*
X033358Y004191D01*
X033255Y004191D01*
X031733Y004191D01*
X031630Y004191D01*
X031534Y004152D01*
X031461Y004079D01*
X031421Y003983D01*
X031421Y002380D01*
X031461Y002284D01*
X031534Y002211D01*
X031630Y002171D01*
X031733Y002171D01*
X033358Y002171D01*
X033454Y002211D01*
X033527Y002284D01*
X033566Y002380D01*
X033566Y002483D01*
X033566Y003983D01*
X033565Y003986D02*
X035431Y003986D01*
X035431Y004145D02*
X033460Y004145D01*
X033306Y003931D02*
X031681Y003931D01*
X031681Y002431D01*
X033306Y002431D01*
X033306Y003931D01*
X033306Y003828D02*
X031681Y003828D01*
X031681Y003669D02*
X033306Y003669D01*
X033306Y003511D02*
X031681Y003511D01*
X031681Y003352D02*
X033306Y003352D01*
X033306Y003194D02*
X031681Y003194D01*
X031681Y003035D02*
X033306Y003035D01*
X033306Y002877D02*
X031681Y002877D01*
X031681Y002718D02*
X033306Y002718D01*
X033306Y002560D02*
X031681Y002560D01*
X031421Y002560D02*
X030731Y002560D01*
X030731Y002718D02*
X031421Y002718D01*
X031421Y002877D02*
X030731Y002877D01*
X030731Y003035D02*
X031421Y003035D01*
X031421Y003194D02*
X030731Y003194D01*
X030731Y003352D02*
X031421Y003352D01*
X031421Y003511D02*
X030731Y003511D01*
X030731Y003669D02*
X031421Y003669D01*
X031421Y003828D02*
X030731Y003828D01*
X030731Y003986D02*
X031423Y003986D01*
X031527Y004145D02*
X030731Y004145D01*
X030731Y004304D02*
X035431Y004304D01*
X035431Y004462D02*
X030731Y004462D01*
X030731Y004621D02*
X035431Y004621D01*
X035431Y004779D02*
X030731Y004779D01*
X030131Y003669D02*
X026931Y003669D01*
X026931Y003511D02*
X030131Y003511D01*
X030131Y003352D02*
X026931Y003352D01*
X026931Y003194D02*
X030131Y003194D01*
X030131Y003035D02*
X026931Y003035D01*
X026931Y002877D02*
X030131Y002877D01*
X030131Y002718D02*
X026931Y002718D01*
X026931Y002560D02*
X030131Y002560D01*
X030131Y002401D02*
X026931Y002401D01*
X026931Y002242D02*
X030131Y002242D01*
X030147Y002084D02*
X026931Y002084D01*
X026931Y001925D02*
X030263Y001925D01*
X030422Y001767D02*
X026931Y001767D01*
X026931Y001608D02*
X030580Y001608D01*
X030739Y001450D02*
X026931Y001450D01*
X026931Y001291D02*
X031675Y001291D01*
X032188Y001291D02*
X032318Y001291D01*
X032387Y001133D02*
X026931Y001133D01*
X026931Y000974D02*
X035431Y000974D01*
X035431Y000816D02*
X026931Y000816D01*
X026931Y000657D02*
X035431Y000657D01*
X035431Y000499D02*
X026931Y000499D01*
X026931Y000461D02*
X026931Y018521D01*
X035431Y018521D01*
X035431Y000461D01*
X026931Y000461D01*
X026556Y001133D02*
X023476Y001133D01*
X023544Y001291D02*
X026556Y001291D01*
X026556Y001450D02*
X023544Y001450D01*
X023544Y001608D02*
X026556Y001608D01*
X026556Y001767D02*
X023544Y001767D01*
X023544Y001925D02*
X026556Y001925D01*
X026556Y002084D02*
X022175Y002084D01*
X021687Y002084D02*
X020953Y002084D01*
X020795Y002242D02*
X021503Y002242D01*
X021421Y002401D02*
X020731Y002401D01*
X020731Y002560D02*
X021421Y002560D01*
X021421Y002718D02*
X020731Y002718D01*
X020731Y002877D02*
X021421Y002877D01*
X021421Y003035D02*
X020731Y003035D01*
X020731Y003194D02*
X021421Y003194D01*
X021421Y003352D02*
X020731Y003352D01*
X020731Y003511D02*
X021421Y003511D01*
X021421Y003669D02*
X020731Y003669D01*
X021931Y003681D02*
X021931Y002681D01*
X022931Y002792D02*
X023057Y002918D01*
X023057Y003681D01*
X020881Y005889D02*
X020731Y005889D01*
X020731Y006048D02*
X020881Y006048D01*
X020881Y006206D02*
X020731Y006206D01*
X021481Y006999D02*
X021602Y006999D01*
X021582Y007157D02*
X023651Y007157D01*
X023651Y006999D02*
X023487Y006999D01*
X023651Y007316D02*
X022212Y007316D01*
X022261Y006999D02*
X022376Y006999D01*
X023544Y007474D02*
X023651Y007474D01*
X023651Y007633D02*
X023544Y007633D01*
X023544Y007791D02*
X023651Y007791D01*
X023651Y007950D02*
X023544Y007950D01*
X023544Y008109D02*
X023651Y008109D01*
X023575Y008267D02*
X020731Y008267D01*
X017306Y009060D02*
X013789Y009060D01*
X013883Y009218D02*
X017306Y009218D01*
X017306Y009377D02*
X013911Y009377D01*
X013911Y009535D02*
X017306Y009535D01*
X017306Y009694D02*
X013911Y009694D01*
X013911Y009853D02*
X017306Y009853D01*
X017306Y010011D02*
X013911Y010011D01*
X013873Y010170D02*
X017306Y010170D01*
X017306Y010328D02*
X013763Y010328D01*
X013911Y010487D02*
X017306Y010487D01*
X017306Y010645D02*
X014069Y010645D01*
X014228Y010804D02*
X017306Y010804D01*
X017306Y010962D02*
X014387Y010962D01*
X014545Y011121D02*
X017306Y011121D01*
X017306Y011279D02*
X014704Y011279D01*
X014862Y011438D02*
X017306Y011438D01*
X017306Y011597D02*
X015021Y011597D01*
X015179Y011755D02*
X017306Y011755D01*
X017306Y011914D02*
X015338Y011914D01*
X015496Y012072D02*
X017306Y012072D01*
X017306Y012231D02*
X015655Y012231D01*
X015813Y012389D02*
X017306Y012389D01*
X017306Y012548D02*
X015972Y012548D01*
X016131Y012706D02*
X017306Y012706D01*
X017306Y012865D02*
X016229Y012865D01*
X016231Y013023D02*
X017306Y013023D01*
X017306Y013182D02*
X016231Y013182D01*
X016231Y013341D02*
X017306Y013341D01*
X017306Y013499D02*
X016231Y013499D01*
X016231Y013658D02*
X017306Y013658D01*
X017306Y013816D02*
X016231Y013816D01*
X016231Y013975D02*
X017306Y013975D01*
X017306Y014133D02*
X016231Y014133D01*
X016231Y014292D02*
X017306Y014292D01*
X017306Y014450D02*
X016231Y014450D01*
X016231Y014609D02*
X017306Y014609D01*
X017306Y014767D02*
X016231Y014767D01*
X016231Y014926D02*
X017306Y014926D01*
X017306Y015084D02*
X016231Y015084D01*
X016231Y015243D02*
X017306Y015243D01*
X017306Y015402D02*
X016231Y015402D01*
X016231Y015560D02*
X017306Y015560D01*
X017306Y015719D02*
X016231Y015719D01*
X016231Y015877D02*
X017306Y015877D01*
X017306Y016036D02*
X016231Y016036D01*
X016205Y016194D02*
X017306Y016194D01*
X017306Y016353D02*
X016074Y016353D01*
X015915Y016511D02*
X017306Y016511D01*
X017306Y016670D02*
X015757Y016670D01*
X015594Y016828D02*
X017306Y016828D01*
X017306Y016987D02*
X013498Y016987D01*
X013537Y016194D02*
X015384Y016194D01*
X012678Y015877D02*
X011356Y015877D01*
X010782Y015560D02*
X009004Y015560D01*
X008931Y015719D02*
X010756Y015719D01*
X010756Y015877D02*
X008931Y015877D01*
X008931Y016036D02*
X010756Y016036D01*
X010756Y016194D02*
X008931Y016194D01*
X008556Y016194D02*
X006205Y016194D01*
X006186Y016241D02*
X005686Y016741D01*
X005601Y016825D01*
X005491Y016871D01*
X003544Y016871D01*
X003544Y016941D01*
X003439Y017046D01*
X002424Y017046D01*
X002359Y016981D01*
X002278Y016981D01*
X002121Y017139D01*
X001742Y017139D01*
X001474Y016871D01*
X001474Y016492D01*
X001742Y016224D01*
X002121Y016224D01*
X002278Y016381D01*
X002318Y016381D01*
X002318Y016201D01*
X002424Y016096D01*
X003439Y016096D01*
X003544Y016201D01*
X003544Y016271D01*
X005307Y016271D01*
X005631Y015947D01*
X005631Y012056D01*
X004177Y010601D01*
X004131Y010491D01*
X004131Y010372D01*
X004131Y010360D01*
X004024Y010253D01*
X003951Y010077D01*
X003951Y009286D01*
X004024Y009109D01*
X004159Y008974D01*
X004336Y008901D01*
X004527Y008901D01*
X004703Y008974D01*
X004838Y009109D01*
X004911Y009286D01*
X004911Y010077D01*
X004838Y010253D01*
X004758Y010334D01*
X006101Y011677D01*
X006101Y011677D01*
X006186Y011761D01*
X006231Y011872D01*
X006231Y016011D01*
X006231Y016131D01*
X006186Y016241D01*
X006074Y016353D02*
X008556Y016353D01*
X008556Y016511D02*
X005915Y016511D01*
X005757Y016670D02*
X008556Y016670D01*
X008556Y016828D02*
X005594Y016828D01*
X005384Y016194D02*
X003537Y016194D01*
X003388Y015926D02*
X002727Y015926D01*
X002621Y015821D01*
X002621Y015731D01*
X002254Y015731D01*
X002114Y015871D01*
X001749Y015871D01*
X001609Y015731D01*
X001431Y015731D01*
X001356Y015806D01*
X001356Y017307D01*
X001431Y017381D01*
X001585Y017381D01*
X001742Y017224D01*
X002121Y017224D01*
X002278Y017381D01*
X002359Y017381D01*
X002424Y017316D01*
X003439Y017316D01*
X003544Y017422D01*
X003544Y018161D01*
X003439Y018267D01*
X002424Y018267D01*
X002318Y018161D01*
X002318Y017981D01*
X002278Y017981D01*
X002121Y018139D01*
X001742Y018139D01*
X001585Y017981D01*
X001366Y017981D01*
X001247Y017981D01*
X001136Y017936D01*
X000886Y017686D01*
X000802Y017601D01*
X000756Y017491D01*
X000756Y015741D01*
X000756Y015622D01*
X000802Y015511D01*
X001052Y015261D01*
X001136Y015177D01*
X001247Y015131D01*
X001609Y015131D01*
X001749Y014991D01*
X002114Y014991D01*
X002254Y015131D01*
X002621Y015131D01*
X002621Y015042D01*
X002727Y014936D01*
X003388Y014936D01*
X003493Y015042D01*
X003493Y015821D01*
X003388Y015926D01*
X003437Y015877D02*
X005631Y015877D01*
X005631Y015719D02*
X003493Y015719D01*
X003493Y015560D02*
X005631Y015560D01*
X005631Y015402D02*
X003493Y015402D01*
X003493Y015243D02*
X005631Y015243D01*
X005631Y015084D02*
X003493Y015084D01*
X002621Y015084D02*
X002207Y015084D01*
X001656Y015084D02*
X000461Y015084D01*
X000461Y014926D02*
X005631Y014926D01*
X005631Y014767D02*
X000461Y014767D01*
X000461Y014609D02*
X005631Y014609D01*
X005631Y014450D02*
X000461Y014450D01*
X000461Y014292D02*
X005631Y014292D01*
X005631Y014133D02*
X003472Y014133D01*
X003454Y014152D02*
X003358Y014191D01*
X003255Y014191D01*
X001733Y014191D01*
X001630Y014191D01*
X001534Y014152D01*
X001461Y014079D01*
X001421Y013983D01*
X001421Y012380D01*
X001461Y012284D01*
X001534Y012211D01*
X001630Y012171D01*
X001733Y012171D01*
X003358Y012171D01*
X003454Y012211D01*
X003527Y012284D01*
X003566Y012380D01*
X003566Y012483D01*
X003566Y013983D01*
X003527Y014079D01*
X003454Y014152D01*
X003566Y013975D02*
X005631Y013975D01*
X005631Y013816D02*
X003566Y013816D01*
X003566Y013658D02*
X005631Y013658D01*
X005631Y013499D02*
X003566Y013499D01*
X003566Y013341D02*
X005631Y013341D01*
X005631Y013182D02*
X003566Y013182D01*
X003566Y013023D02*
X005631Y013023D01*
X005631Y012865D02*
X003566Y012865D01*
X003566Y012706D02*
X005631Y012706D01*
X005631Y012548D02*
X003566Y012548D01*
X003566Y012389D02*
X005631Y012389D01*
X005631Y012231D02*
X003473Y012231D01*
X003439Y012046D02*
X002424Y012046D01*
X002359Y011981D01*
X002278Y011981D01*
X002121Y012139D01*
X001742Y012139D01*
X001474Y011871D01*
X001474Y011492D01*
X001742Y011224D01*
X002121Y011224D01*
X002278Y011381D01*
X002318Y011381D01*
X002318Y011201D01*
X002424Y011096D01*
X002982Y011096D01*
X003131Y010947D01*
X003131Y010360D01*
X003024Y010253D01*
X002951Y010077D01*
X002951Y009286D01*
X003024Y009109D01*
X003159Y008974D01*
X003336Y008901D01*
X003527Y008901D01*
X003703Y008974D01*
X003838Y009109D01*
X003911Y009286D01*
X003911Y010077D01*
X003838Y010253D01*
X003731Y010360D01*
X003731Y011131D01*
X003686Y011241D01*
X003601Y011325D01*
X003544Y011382D01*
X003544Y011941D01*
X003439Y012046D01*
X003544Y011914D02*
X005489Y011914D01*
X005631Y012072D02*
X002187Y012072D01*
X001676Y012072D02*
X000461Y012072D01*
X000461Y011914D02*
X001517Y011914D01*
X001474Y011755D02*
X000461Y011755D01*
X000461Y011597D02*
X001474Y011597D01*
X001528Y011438D02*
X000461Y011438D01*
X000461Y011279D02*
X001687Y011279D01*
X002176Y011279D02*
X002318Y011279D01*
X002399Y011121D02*
X000461Y011121D01*
X000461Y010962D02*
X003116Y010962D01*
X003131Y010804D02*
X000461Y010804D01*
X000461Y010645D02*
X003131Y010645D01*
X003131Y010487D02*
X000461Y010487D01*
X000461Y010328D02*
X001099Y010328D01*
X000990Y010170D02*
X000461Y010170D01*
X000461Y010011D02*
X000951Y010011D01*
X000951Y009853D02*
X000461Y009853D01*
X000461Y009694D02*
X000951Y009694D01*
X000951Y009535D02*
X000461Y009535D01*
X000461Y009377D02*
X000951Y009377D01*
X000979Y009218D02*
X000461Y009218D01*
X000461Y009060D02*
X001074Y009060D01*
X001131Y008901D02*
X000461Y008901D01*
X000461Y008743D02*
X001131Y008743D01*
X001131Y008584D02*
X000461Y008584D01*
X000461Y008426D02*
X001126Y008426D01*
X000968Y008267D02*
X000461Y008267D01*
X000461Y008109D02*
X000809Y008109D01*
X000651Y007950D02*
X000461Y007950D01*
X000461Y007791D02*
X000527Y007791D01*
X000506Y007633D02*
X000461Y007633D01*
X000461Y007474D02*
X000506Y007474D01*
X000506Y007316D02*
X000461Y007316D01*
X000461Y007157D02*
X000506Y007157D01*
X000506Y006999D02*
X000461Y006999D01*
X000461Y006840D02*
X000506Y006840D01*
X000506Y006682D02*
X000461Y006682D01*
X000461Y006523D02*
X000506Y006523D01*
X000506Y006365D02*
X000461Y006365D01*
X000461Y006206D02*
X000506Y006206D01*
X000506Y006048D02*
X000461Y006048D01*
X000461Y005889D02*
X000506Y005889D01*
X000506Y005730D02*
X000461Y005730D01*
X000461Y005572D02*
X000506Y005572D01*
X000506Y005413D02*
X000461Y005413D01*
X000461Y005255D02*
X000506Y005255D01*
X000506Y005096D02*
X000461Y005096D01*
X000461Y004938D02*
X000506Y004938D01*
X000506Y004779D02*
X000461Y004779D01*
X000461Y004621D02*
X000506Y004621D01*
X000506Y004462D02*
X000461Y004462D01*
X000461Y004304D02*
X000506Y004304D01*
X000506Y004145D02*
X000461Y004145D01*
X000461Y003986D02*
X000506Y003986D01*
X000506Y003828D02*
X000461Y003828D01*
X000461Y003669D02*
X000506Y003669D01*
X000506Y003511D02*
X000461Y003511D01*
X000461Y003352D02*
X000506Y003352D01*
X000506Y003194D02*
X000461Y003194D01*
X000461Y003035D02*
X000506Y003035D01*
X000506Y002877D02*
X000461Y002877D01*
X000461Y002718D02*
X000506Y002718D01*
X000506Y002560D02*
X000461Y002560D01*
X000461Y002401D02*
X000506Y002401D01*
X000508Y002242D02*
X000461Y002242D01*
X000461Y002084D02*
X000605Y002084D01*
X000461Y001925D02*
X000763Y001925D01*
X000922Y001767D02*
X000461Y001767D01*
X000461Y001608D02*
X001080Y001608D01*
X001239Y001450D02*
X000461Y001450D01*
X000461Y001291D02*
X001675Y001291D01*
X002188Y001291D02*
X002318Y001291D01*
X002387Y001133D02*
X000461Y001133D01*
X000461Y000974D02*
X008556Y000974D01*
X008556Y000816D02*
X000461Y000816D01*
X000461Y000657D02*
X008556Y000657D01*
X008556Y000499D02*
X000461Y000499D01*
X003476Y001133D02*
X008556Y001133D01*
X008556Y001291D02*
X003544Y001291D01*
X003544Y001450D02*
X008556Y001450D01*
X008556Y001608D02*
X003544Y001608D01*
X003544Y001767D02*
X008556Y001767D01*
X008556Y001925D02*
X003544Y001925D01*
X002931Y002792D02*
X002931Y003555D01*
X003057Y003681D01*
X003606Y003669D02*
X006633Y003669D01*
X006585Y003828D02*
X003606Y003828D01*
X003606Y003986D02*
X006559Y003986D01*
X006532Y004145D02*
X003517Y004145D01*
X003606Y003511D02*
X006719Y003511D01*
X006804Y003352D02*
X003606Y003352D01*
X003606Y003194D02*
X006958Y003194D01*
X007130Y003035D02*
X003606Y003035D01*
X003606Y002877D02*
X007456Y002877D01*
X008931Y002718D02*
X010131Y002718D01*
X010131Y002560D02*
X008931Y002560D01*
X008931Y002401D02*
X010131Y002401D01*
X010131Y002242D02*
X008931Y002242D01*
X008931Y002084D02*
X010147Y002084D01*
X010263Y001925D02*
X008931Y001925D01*
X008931Y001767D02*
X010422Y001767D01*
X010580Y001608D02*
X008931Y001608D01*
X008931Y001450D02*
X010739Y001450D01*
X011675Y001291D02*
X008931Y001291D01*
X008931Y001133D02*
X012387Y001133D01*
X012318Y001291D02*
X012188Y001291D01*
X013485Y002242D02*
X017306Y002242D01*
X017306Y002401D02*
X013566Y002401D01*
X013057Y002792D02*
X012931Y002792D01*
X012726Y004938D02*
X010731Y004938D01*
X010731Y005096D02*
X011644Y005096D01*
X011184Y005255D02*
X010731Y005255D01*
X010731Y005413D02*
X011025Y005413D01*
X010902Y005572D02*
X010731Y005572D01*
X010731Y005730D02*
X010881Y005730D01*
X011481Y006365D02*
X011602Y006365D01*
X011650Y007316D02*
X011490Y007316D01*
X008556Y007316D02*
X004211Y007316D01*
X004211Y007474D02*
X008556Y007474D01*
X008556Y007633D02*
X004211Y007633D01*
X004211Y007791D02*
X008556Y007791D01*
X008556Y007950D02*
X004211Y007950D01*
X004211Y008109D02*
X008556Y008109D01*
X008556Y008267D02*
X004211Y008267D01*
X004211Y008251D02*
X004211Y008362D01*
X004169Y008465D01*
X003919Y008715D01*
X003840Y008794D01*
X003737Y008836D01*
X002797Y008836D01*
X002711Y008922D01*
X002711Y008983D01*
X002838Y009109D01*
X002911Y009286D01*
X002911Y010077D01*
X002838Y010253D01*
X002703Y010388D01*
X002527Y010461D01*
X002336Y010461D01*
X002159Y010388D01*
X002024Y010253D01*
X001951Y010077D01*
X001951Y009286D01*
X002024Y009109D01*
X002151Y008983D01*
X002151Y008751D01*
X002194Y008648D01*
X002273Y008569D01*
X002523Y008319D01*
X002626Y008276D01*
X002737Y008276D01*
X003565Y008276D01*
X003651Y008190D01*
X003651Y006937D01*
X003565Y006851D01*
X003544Y006851D01*
X003544Y006941D01*
X003439Y007046D01*
X002424Y007046D01*
X002339Y006961D01*
X002298Y006961D01*
X002121Y007139D01*
X001813Y007139D01*
X001899Y007224D01*
X002121Y007224D01*
X002298Y007401D01*
X002339Y007401D01*
X002424Y007316D01*
X003439Y007316D01*
X003544Y007422D01*
X003544Y008161D01*
X003439Y008267D01*
X002424Y008267D01*
X002318Y008161D01*
X002318Y007961D01*
X002298Y007961D01*
X002121Y008139D01*
X001742Y008139D01*
X001474Y007871D01*
X001474Y007649D01*
X001261Y007436D01*
X001177Y007351D01*
X001131Y007241D01*
X001131Y005991D01*
X001131Y005872D01*
X001177Y005761D01*
X001491Y005447D01*
X001491Y005249D01*
X001749Y004991D01*
X002114Y004991D01*
X002274Y005151D01*
X002621Y005151D01*
X002621Y005042D01*
X002727Y004936D01*
X003388Y004936D01*
X003493Y005042D01*
X003493Y005821D01*
X003388Y005926D01*
X002727Y005926D01*
X002621Y005821D01*
X002621Y005711D01*
X002274Y005711D01*
X002114Y005871D01*
X001916Y005871D01*
X001731Y006056D01*
X001731Y006235D01*
X001742Y006224D01*
X002121Y006224D01*
X002298Y006401D01*
X002318Y006401D01*
X002318Y006201D01*
X002424Y006096D01*
X003439Y006096D01*
X003544Y006201D01*
X003544Y006291D01*
X003626Y006291D01*
X003737Y006291D01*
X003840Y006334D01*
X004090Y006584D01*
X004169Y006663D01*
X004211Y006765D01*
X004211Y008251D01*
X004185Y008426D02*
X008556Y008426D01*
X008556Y008584D02*
X004050Y008584D01*
X003891Y008743D02*
X008556Y008743D01*
X008556Y008901D02*
X002732Y008901D01*
X002789Y009060D02*
X003074Y009060D01*
X002979Y009218D02*
X002883Y009218D01*
X002911Y009377D02*
X002951Y009377D01*
X002951Y009535D02*
X002911Y009535D01*
X002911Y009694D02*
X002951Y009694D01*
X002951Y009853D02*
X002911Y009853D01*
X002911Y010011D02*
X002951Y010011D01*
X002990Y010170D02*
X002873Y010170D01*
X002763Y010328D02*
X003099Y010328D01*
X003731Y010487D02*
X004131Y010487D01*
X004099Y010328D02*
X003763Y010328D01*
X003873Y010170D02*
X003990Y010170D01*
X003951Y010011D02*
X003911Y010011D01*
X003911Y009853D02*
X003951Y009853D01*
X003951Y009694D02*
X003911Y009694D01*
X003911Y009535D02*
X003951Y009535D01*
X003951Y009377D02*
X003911Y009377D01*
X003883Y009218D02*
X003979Y009218D01*
X004074Y009060D02*
X003789Y009060D01*
X004789Y009060D02*
X008556Y009060D01*
X008556Y009218D02*
X004883Y009218D01*
X004911Y009377D02*
X008556Y009377D01*
X008556Y009535D02*
X004911Y009535D01*
X004911Y009694D02*
X008556Y009694D01*
X008556Y009853D02*
X004911Y009853D01*
X004911Y010011D02*
X008556Y010011D01*
X008556Y010170D02*
X004873Y010170D01*
X004763Y010328D02*
X008556Y010328D01*
X008556Y010487D02*
X004911Y010487D01*
X005069Y010645D02*
X008556Y010645D01*
X008556Y010804D02*
X005228Y010804D01*
X005387Y010962D02*
X008556Y010962D01*
X008556Y011121D02*
X005545Y011121D01*
X005704Y011279D02*
X008556Y011279D01*
X008556Y011438D02*
X005862Y011438D01*
X006021Y011597D02*
X008556Y011597D01*
X008556Y011755D02*
X006179Y011755D01*
X006231Y011914D02*
X008556Y011914D01*
X008556Y012072D02*
X006231Y012072D01*
X006231Y012231D02*
X008556Y012231D01*
X008556Y012389D02*
X006231Y012389D01*
X006231Y012548D02*
X008556Y012548D01*
X008556Y012706D02*
X006231Y012706D01*
X006231Y012865D02*
X008556Y012865D01*
X008556Y013023D02*
X006231Y013023D01*
X006231Y013182D02*
X008556Y013182D01*
X008556Y013341D02*
X008282Y013341D01*
X007538Y013341D02*
X006231Y013341D01*
X006231Y013499D02*
X007177Y013499D01*
X006997Y013658D02*
X006231Y013658D01*
X006231Y013816D02*
X006825Y013816D01*
X006738Y013975D02*
X006231Y013975D01*
X006231Y014133D02*
X006652Y014133D01*
X006591Y014292D02*
X006231Y014292D01*
X006231Y014450D02*
X006565Y014450D01*
X006539Y014609D02*
X006231Y014609D01*
X006231Y014767D02*
X006541Y014767D01*
X006567Y014926D02*
X006231Y014926D01*
X006231Y015084D02*
X006594Y015084D01*
X006660Y015243D02*
X006231Y015243D01*
X006231Y015402D02*
X006745Y015402D01*
X006840Y015560D02*
X006231Y015560D01*
X006231Y015719D02*
X007012Y015719D01*
X007208Y015877D02*
X006231Y015877D01*
X006231Y016036D02*
X007569Y016036D01*
X008228Y016036D02*
X008556Y016036D01*
X009127Y015402D02*
X010912Y015402D01*
X011071Y015243D02*
X009204Y015243D01*
X009258Y015084D02*
X011656Y015084D01*
X012207Y015084D02*
X012621Y015084D01*
X013472Y014133D02*
X015631Y014133D01*
X015631Y013975D02*
X013566Y013975D01*
X013566Y013816D02*
X015631Y013816D01*
X015631Y013658D02*
X013566Y013658D01*
X013566Y013499D02*
X015631Y013499D01*
X015631Y013341D02*
X013566Y013341D01*
X013566Y013182D02*
X015631Y013182D01*
X015599Y013023D02*
X013566Y013023D01*
X013566Y012865D02*
X015441Y012865D01*
X015282Y012706D02*
X013566Y012706D01*
X013566Y012548D02*
X015124Y012548D01*
X014965Y012389D02*
X013566Y012389D01*
X013473Y012231D02*
X014806Y012231D01*
X014648Y012072D02*
X012187Y012072D01*
X011681Y012431D02*
X011681Y013931D01*
X013306Y013931D01*
X013306Y012431D01*
X011681Y012431D01*
X011681Y012548D02*
X013306Y012548D01*
X013306Y012706D02*
X011681Y012706D01*
X011681Y012865D02*
X013306Y012865D01*
X013306Y013023D02*
X011681Y013023D01*
X011681Y013182D02*
X013306Y013182D01*
X013306Y013341D02*
X011681Y013341D01*
X011681Y013499D02*
X013306Y013499D01*
X013306Y013658D02*
X011681Y013658D01*
X011681Y013816D02*
X013306Y013816D01*
X013057Y013681D02*
X013057Y012918D01*
X012931Y012792D01*
X011931Y012681D02*
X011931Y013681D01*
X013544Y011914D02*
X014489Y011914D01*
X014331Y011755D02*
X013544Y011755D01*
X013544Y011597D02*
X014172Y011597D01*
X014014Y011438D02*
X013544Y011438D01*
X013544Y011279D02*
X013855Y011279D01*
X013697Y011121D02*
X013464Y011121D01*
X013538Y010962D02*
X013137Y010962D01*
X012978Y010804D02*
X013380Y010804D01*
X013221Y010645D02*
X012820Y010645D01*
X012731Y010487D02*
X013131Y010487D01*
X013099Y010328D02*
X012763Y010328D01*
X012873Y010170D02*
X012990Y010170D01*
X012951Y010011D02*
X012911Y010011D01*
X012911Y009853D02*
X012951Y009853D01*
X012951Y009694D02*
X012911Y009694D01*
X012911Y009535D02*
X012951Y009535D01*
X012951Y009377D02*
X012911Y009377D01*
X012883Y009218D02*
X012979Y009218D01*
X013074Y009060D02*
X012789Y009060D01*
X008556Y007157D02*
X004211Y007157D01*
X004211Y006999D02*
X008556Y006999D01*
X008556Y006840D02*
X004211Y006840D01*
X004177Y006682D02*
X008556Y006682D01*
X008556Y006523D02*
X004029Y006523D01*
X003871Y006365D02*
X008556Y006365D01*
X008556Y006206D02*
X003544Y006206D01*
X003425Y005889D02*
X008556Y005889D01*
X008556Y006048D02*
X001740Y006048D01*
X001731Y006206D02*
X002318Y006206D01*
X002318Y006365D02*
X002261Y006365D01*
X001898Y005889D02*
X002690Y005889D01*
X002621Y005730D02*
X002255Y005730D01*
X001491Y005413D02*
X001106Y005413D01*
X001106Y005255D02*
X001491Y005255D01*
X001644Y005096D02*
X001106Y005096D01*
X001106Y004938D02*
X002726Y004938D01*
X002621Y005096D02*
X002218Y005096D01*
X001106Y004779D02*
X006679Y004779D01*
X006600Y004621D02*
X001106Y004621D01*
X001106Y004462D02*
X006573Y004462D01*
X006547Y004304D02*
X001106Y004304D01*
X001106Y004145D02*
X001471Y004145D01*
X001381Y003986D02*
X001106Y003986D01*
X001106Y003828D02*
X001381Y003828D01*
X003389Y004938D02*
X006765Y004938D01*
X006879Y005096D02*
X003493Y005096D01*
X003493Y005255D02*
X007051Y005255D01*
X007290Y005413D02*
X003493Y005413D01*
X003493Y005572D02*
X007931Y005572D01*
X008086Y005572D02*
X008556Y005572D01*
X008556Y005730D02*
X003493Y005730D01*
X001367Y005572D02*
X001106Y005572D01*
X001106Y005730D02*
X001208Y005730D01*
X001131Y005889D02*
X001106Y005889D01*
X001106Y006048D02*
X001131Y006048D01*
X001131Y006206D02*
X001106Y006206D01*
X001106Y006365D02*
X001131Y006365D01*
X001131Y006523D02*
X001106Y006523D01*
X001106Y006682D02*
X001131Y006682D01*
X001131Y006840D02*
X001106Y006840D01*
X001106Y006999D02*
X001131Y006999D01*
X001131Y007157D02*
X001106Y007157D01*
X001106Y007316D02*
X001162Y007316D01*
X001106Y007474D02*
X001300Y007474D01*
X001182Y007633D02*
X001459Y007633D01*
X001474Y007791D02*
X001341Y007791D01*
X001499Y007950D02*
X001554Y007950D01*
X001658Y008109D02*
X001712Y008109D01*
X001731Y008267D02*
X003575Y008267D01*
X003544Y008109D02*
X003651Y008109D01*
X003651Y007950D02*
X003544Y007950D01*
X003544Y007791D02*
X003651Y007791D01*
X003651Y007633D02*
X003544Y007633D01*
X003544Y007474D02*
X003651Y007474D01*
X003651Y007316D02*
X002212Y007316D01*
X002261Y006999D02*
X002376Y006999D01*
X001832Y007157D02*
X003651Y007157D01*
X003651Y006999D02*
X003487Y006999D01*
X002318Y008109D02*
X002151Y008109D01*
X002416Y008426D02*
X001731Y008426D01*
X001731Y008584D02*
X002258Y008584D01*
X002155Y008743D02*
X001731Y008743D01*
X001731Y008901D02*
X002151Y008901D01*
X002074Y009060D02*
X001789Y009060D01*
X001883Y009218D02*
X001979Y009218D01*
X001951Y009377D02*
X001911Y009377D01*
X001911Y009535D02*
X001951Y009535D01*
X001951Y009694D02*
X001911Y009694D01*
X001911Y009853D02*
X001951Y009853D01*
X001951Y010011D02*
X001911Y010011D01*
X001873Y010170D02*
X001990Y010170D01*
X002099Y010328D02*
X001763Y010328D01*
X003731Y010645D02*
X004221Y010645D01*
X004380Y010804D02*
X003731Y010804D01*
X003731Y010962D02*
X004538Y010962D01*
X004697Y011121D02*
X003731Y011121D01*
X003647Y011279D02*
X004855Y011279D01*
X005014Y011438D02*
X003544Y011438D01*
X003544Y011597D02*
X005172Y011597D01*
X005331Y011755D02*
X003544Y011755D01*
X003306Y012431D02*
X001681Y012431D01*
X001681Y013931D01*
X003306Y013931D01*
X003306Y012431D01*
X003306Y012548D02*
X001681Y012548D01*
X001681Y012706D02*
X003306Y012706D01*
X003306Y012865D02*
X001681Y012865D01*
X001681Y013023D02*
X003306Y013023D01*
X003306Y013182D02*
X001681Y013182D01*
X001681Y013341D02*
X003306Y013341D01*
X003306Y013499D02*
X001681Y013499D01*
X001681Y013658D02*
X003306Y013658D01*
X003306Y013816D02*
X001681Y013816D01*
X001421Y013816D02*
X000461Y013816D01*
X000461Y013658D02*
X001421Y013658D01*
X001421Y013499D02*
X000461Y013499D01*
X000461Y013341D02*
X001421Y013341D01*
X001421Y013182D02*
X000461Y013182D01*
X000461Y013023D02*
X001421Y013023D01*
X001421Y012865D02*
X000461Y012865D01*
X000461Y012706D02*
X001421Y012706D01*
X001421Y012548D02*
X000461Y012548D01*
X000461Y012389D02*
X001421Y012389D01*
X001514Y012231D02*
X000461Y012231D01*
X001931Y012681D02*
X001931Y013681D01*
X001421Y013975D02*
X000461Y013975D01*
X000461Y014133D02*
X001516Y014133D01*
X002931Y013555D02*
X002931Y012792D01*
X002931Y013555D02*
X003057Y013681D01*
X001071Y015243D02*
X000461Y015243D01*
X000461Y015402D02*
X000912Y015402D01*
X000782Y015560D02*
X000461Y015560D01*
X000461Y015719D02*
X000756Y015719D01*
X000756Y015877D02*
X000461Y015877D01*
X000461Y016036D02*
X000756Y016036D01*
X000756Y016194D02*
X000461Y016194D01*
X000461Y016353D02*
X000756Y016353D01*
X000756Y016511D02*
X000461Y016511D01*
X000461Y016670D02*
X000756Y016670D01*
X000756Y016828D02*
X000461Y016828D01*
X000461Y016987D02*
X000756Y016987D01*
X000756Y017146D02*
X000461Y017146D01*
X000461Y017304D02*
X000756Y017304D01*
X000756Y017463D02*
X000461Y017463D01*
X000461Y017621D02*
X000822Y017621D01*
X000980Y017780D02*
X000461Y017780D01*
X000461Y017938D02*
X001143Y017938D01*
X001700Y018097D02*
X000461Y018097D01*
X000461Y018255D02*
X002412Y018255D01*
X002318Y018097D02*
X002162Y018097D01*
X002821Y017681D02*
X002931Y017792D01*
X003544Y017780D02*
X008556Y017780D01*
X008556Y017938D02*
X003544Y017938D01*
X003544Y018097D02*
X008556Y018097D01*
X008556Y018255D02*
X003451Y018255D01*
X003544Y017621D02*
X008556Y017621D01*
X008556Y017463D02*
X003544Y017463D01*
X003498Y016987D02*
X008556Y016987D01*
X008556Y017146D02*
X001356Y017146D01*
X001356Y017304D02*
X001662Y017304D01*
X002201Y017304D02*
X008556Y017304D01*
X008556Y018414D02*
X000461Y018414D01*
X001356Y016987D02*
X001591Y016987D01*
X001474Y016828D02*
X001356Y016828D01*
X001356Y016670D02*
X001474Y016670D01*
X001474Y016511D02*
X001356Y016511D01*
X001356Y016353D02*
X001613Y016353D01*
X001356Y016194D02*
X002325Y016194D01*
X002318Y016353D02*
X002249Y016353D01*
X002821Y016681D02*
X002931Y016571D01*
X002364Y016987D02*
X002272Y016987D01*
X001356Y016036D02*
X005543Y016036D01*
X002678Y015877D02*
X001356Y015877D01*
X012821Y017681D02*
X012931Y017792D01*
X021231Y015877D02*
X021678Y015877D01*
X022805Y015431D02*
X023931Y015431D01*
X021621Y015084D02*
X021207Y015084D01*
X021931Y013681D02*
X021931Y012681D01*
X022176Y011279D02*
X022318Y011279D01*
X026931Y011279D02*
X031687Y011279D01*
X031528Y011438D02*
X026931Y011438D01*
X026931Y011597D02*
X031474Y011597D01*
X031474Y011755D02*
X026931Y011755D01*
X026931Y011914D02*
X031517Y011914D01*
X031676Y012072D02*
X026931Y012072D01*
X026931Y012231D02*
X030514Y012231D01*
X030534Y012211D02*
X030630Y012171D01*
X030733Y012171D01*
X033358Y012171D01*
X033454Y012211D01*
X033527Y012284D01*
X033566Y012380D01*
X033566Y012483D01*
X033566Y013108D01*
X033544Y013161D01*
X033544Y013161D01*
X033544Y013162D01*
X033527Y013204D01*
X033454Y013277D01*
X033358Y013316D01*
X033255Y013316D01*
X032566Y013316D01*
X032566Y013983D01*
X032527Y014079D01*
X032454Y014152D01*
X032358Y014191D01*
X032255Y014191D01*
X030733Y014191D01*
X030630Y014191D01*
X030534Y014152D01*
X030461Y014079D01*
X030421Y013983D01*
X030421Y012380D01*
X030461Y012284D01*
X030534Y012211D01*
X030421Y012389D02*
X026931Y012389D01*
X026931Y012548D02*
X030421Y012548D01*
X030421Y012706D02*
X026931Y012706D01*
X026931Y012865D02*
X030421Y012865D01*
X030421Y013023D02*
X026931Y013023D01*
X026931Y013182D02*
X030421Y013182D01*
X030421Y013341D02*
X026931Y013341D01*
X026931Y013499D02*
X030421Y013499D01*
X030421Y013658D02*
X026931Y013658D01*
X026931Y013816D02*
X030421Y013816D01*
X030421Y013975D02*
X026931Y013975D01*
X026931Y014133D02*
X030516Y014133D01*
X030681Y013931D02*
X032306Y013931D01*
X032306Y013181D01*
X032431Y013056D01*
X033306Y013056D01*
X033306Y012431D01*
X030681Y012431D01*
X030681Y013931D01*
X030681Y013816D02*
X032306Y013816D01*
X032306Y013658D02*
X030681Y013658D01*
X030681Y013499D02*
X032306Y013499D01*
X032306Y013341D02*
X030681Y013341D01*
X030681Y013182D02*
X032306Y013182D01*
X032566Y013341D02*
X034381Y013341D01*
X034381Y013499D02*
X032566Y013499D01*
X032566Y013658D02*
X034381Y013658D01*
X034381Y013816D02*
X032566Y013816D01*
X032566Y013975D02*
X034381Y013975D01*
X034381Y014133D02*
X032472Y014133D01*
X032057Y013681D02*
X031931Y013555D01*
X030681Y013023D02*
X033306Y013023D01*
X033306Y012865D02*
X030681Y012865D01*
X030681Y012706D02*
X033306Y012706D01*
X033306Y012548D02*
X030681Y012548D01*
X032187Y012072D02*
X034381Y012072D01*
X034381Y011914D02*
X033544Y011914D01*
X033544Y011755D02*
X034331Y011755D01*
X034381Y011806D02*
X033177Y010601D01*
X033131Y010491D01*
X033131Y010372D01*
X033131Y010360D01*
X033024Y010253D01*
X032951Y010077D01*
X032951Y009286D01*
X033024Y009109D01*
X033159Y008974D01*
X033336Y008901D01*
X033527Y008901D01*
X033703Y008974D01*
X033838Y009109D01*
X033911Y009286D01*
X033911Y010077D01*
X033838Y010253D01*
X033758Y010334D01*
X034851Y011427D01*
X034936Y011511D01*
X034981Y011622D01*
X034981Y016131D01*
X034936Y016241D01*
X034851Y016325D01*
X034436Y016741D01*
X034351Y016825D01*
X034241Y016871D01*
X033544Y016871D01*
X033544Y016941D01*
X033439Y017046D01*
X032424Y017046D01*
X032359Y016981D01*
X032278Y016981D01*
X032121Y017139D01*
X031742Y017139D01*
X031474Y016871D01*
X031474Y016492D01*
X031742Y016224D01*
X032121Y016224D01*
X032278Y016381D01*
X032318Y016381D01*
X032318Y016201D01*
X032424Y016096D01*
X033439Y016096D01*
X033544Y016201D01*
X033544Y016271D01*
X034057Y016271D01*
X034381Y015947D01*
X034381Y011806D01*
X034172Y011597D02*
X033544Y011597D01*
X033544Y011438D02*
X034014Y011438D01*
X033855Y011279D02*
X033544Y011279D01*
X033464Y011121D02*
X033697Y011121D01*
X033538Y010962D02*
X033137Y010962D01*
X032978Y010804D02*
X033380Y010804D01*
X033221Y010645D02*
X032820Y010645D01*
X032731Y010487D02*
X033131Y010487D01*
X033099Y010328D02*
X032763Y010328D01*
X032873Y010170D02*
X032990Y010170D01*
X032951Y010011D02*
X032911Y010011D01*
X032911Y009853D02*
X032951Y009853D01*
X032951Y009694D02*
X032911Y009694D01*
X032911Y009535D02*
X032951Y009535D01*
X032951Y009377D02*
X032911Y009377D01*
X032883Y009218D02*
X032979Y009218D01*
X033074Y009060D02*
X032789Y009060D01*
X033789Y009060D02*
X035431Y009060D01*
X035431Y009218D02*
X033883Y009218D01*
X033911Y009377D02*
X035431Y009377D01*
X035431Y009535D02*
X033911Y009535D01*
X033911Y009694D02*
X035431Y009694D01*
X035431Y009853D02*
X033911Y009853D01*
X033911Y010011D02*
X035431Y010011D01*
X035431Y010170D02*
X033873Y010170D01*
X033763Y010328D02*
X035431Y010328D01*
X035431Y010487D02*
X033911Y010487D01*
X034070Y010645D02*
X035431Y010645D01*
X035431Y010804D02*
X034228Y010804D01*
X034387Y010962D02*
X035431Y010962D01*
X035431Y011121D02*
X034545Y011121D01*
X034704Y011279D02*
X035431Y011279D01*
X035431Y011438D02*
X034862Y011438D01*
X034971Y011597D02*
X035431Y011597D01*
X035431Y011755D02*
X034981Y011755D01*
X034981Y011914D02*
X035431Y011914D01*
X035431Y012072D02*
X034981Y012072D01*
X034981Y012231D02*
X035431Y012231D01*
X035431Y012389D02*
X034981Y012389D01*
X034981Y012548D02*
X035431Y012548D01*
X035431Y012706D02*
X034981Y012706D01*
X034981Y012865D02*
X035431Y012865D01*
X035431Y013023D02*
X034981Y013023D01*
X034981Y013182D02*
X035431Y013182D01*
X035431Y013341D02*
X034981Y013341D01*
X034981Y013499D02*
X035431Y013499D01*
X035431Y013658D02*
X034981Y013658D01*
X034981Y013816D02*
X035431Y013816D01*
X035431Y013975D02*
X034981Y013975D01*
X034981Y014133D02*
X035431Y014133D01*
X035431Y014292D02*
X034981Y014292D01*
X034981Y014450D02*
X035431Y014450D01*
X035431Y014609D02*
X034981Y014609D01*
X034981Y014767D02*
X035431Y014767D01*
X035431Y014926D02*
X034981Y014926D01*
X034981Y015084D02*
X035431Y015084D01*
X035431Y015243D02*
X034981Y015243D01*
X034981Y015402D02*
X035431Y015402D01*
X035431Y015560D02*
X034981Y015560D01*
X034981Y015719D02*
X035431Y015719D01*
X035431Y015877D02*
X034981Y015877D01*
X034981Y016036D02*
X035431Y016036D01*
X035431Y016194D02*
X034955Y016194D01*
X034824Y016353D02*
X035431Y016353D01*
X035431Y016511D02*
X034665Y016511D01*
X034507Y016670D02*
X035431Y016670D01*
X035431Y016828D02*
X034344Y016828D01*
X033498Y016987D02*
X035431Y016987D01*
X035431Y017146D02*
X031231Y017146D01*
X031231Y017304D02*
X031662Y017304D01*
X031585Y017381D02*
X031742Y017224D01*
X032121Y017224D01*
X032278Y017381D01*
X032359Y017381D01*
X032424Y017316D01*
X033439Y017316D01*
X033544Y017422D01*
X033544Y018161D01*
X033439Y018267D01*
X032424Y018267D01*
X032318Y018161D01*
X032318Y017981D01*
X032278Y017981D01*
X032121Y018139D01*
X031742Y018139D01*
X031585Y017981D01*
X031122Y017981D01*
X031011Y017936D01*
X030927Y017851D01*
X030677Y017601D01*
X030631Y017491D01*
X030631Y017372D01*
X030631Y015754D01*
X030491Y015614D01*
X030491Y015249D01*
X030749Y014991D01*
X031114Y014991D01*
X031254Y015131D01*
X031621Y015131D01*
X031621Y015042D01*
X031727Y014936D01*
X032388Y014936D01*
X032493Y015042D01*
X032493Y015821D01*
X032388Y015926D01*
X031727Y015926D01*
X031621Y015821D01*
X031621Y015731D01*
X031254Y015731D01*
X031231Y015754D01*
X031231Y017307D01*
X031306Y017381D01*
X031585Y017381D01*
X032201Y017304D02*
X035431Y017304D01*
X035431Y017463D02*
X033544Y017463D01*
X033544Y017621D02*
X035431Y017621D01*
X035431Y017780D02*
X033544Y017780D01*
X033544Y017938D02*
X035431Y017938D01*
X035431Y018097D02*
X033544Y018097D01*
X033451Y018255D02*
X035431Y018255D01*
X035431Y018414D02*
X026931Y018414D01*
X026931Y018255D02*
X032412Y018255D01*
X032318Y018097D02*
X032162Y018097D01*
X031700Y018097D02*
X026931Y018097D01*
X026931Y017938D02*
X031018Y017938D01*
X030855Y017780D02*
X026931Y017780D01*
X026931Y017621D02*
X030697Y017621D01*
X030631Y017463D02*
X026931Y017463D01*
X026931Y017304D02*
X030631Y017304D01*
X030631Y017146D02*
X026931Y017146D01*
X026931Y016987D02*
X030631Y016987D01*
X030631Y016828D02*
X026931Y016828D01*
X026931Y016670D02*
X030631Y016670D01*
X030631Y016511D02*
X026931Y016511D01*
X026931Y016353D02*
X030631Y016353D01*
X030631Y016194D02*
X026931Y016194D01*
X026931Y016036D02*
X030631Y016036D01*
X030631Y015877D02*
X026931Y015877D01*
X026931Y015719D02*
X030596Y015719D01*
X030491Y015560D02*
X026931Y015560D01*
X026931Y015402D02*
X030491Y015402D01*
X030498Y015243D02*
X026931Y015243D01*
X026931Y015084D02*
X030656Y015084D01*
X031207Y015084D02*
X031621Y015084D01*
X032493Y015084D02*
X034381Y015084D01*
X034381Y014926D02*
X026931Y014926D01*
X026931Y014767D02*
X034381Y014767D01*
X034381Y014609D02*
X026931Y014609D01*
X026931Y014450D02*
X034381Y014450D01*
X034381Y014292D02*
X026931Y014292D01*
X031231Y015877D02*
X031678Y015877D01*
X031231Y016036D02*
X034293Y016036D01*
X034381Y015877D02*
X032437Y015877D01*
X032493Y015719D02*
X034381Y015719D01*
X034381Y015560D02*
X032493Y015560D01*
X032493Y015402D02*
X034381Y015402D01*
X034381Y015243D02*
X032493Y015243D01*
X032325Y016194D02*
X031231Y016194D01*
X031231Y016353D02*
X031613Y016353D01*
X031474Y016511D02*
X031231Y016511D01*
X031231Y016670D02*
X031474Y016670D01*
X031474Y016828D02*
X031231Y016828D01*
X031231Y016987D02*
X031591Y016987D01*
X032272Y016987D02*
X032364Y016987D01*
X032318Y016353D02*
X032249Y016353D01*
X033537Y016194D02*
X034134Y016194D01*
X035806Y016194D02*
X039717Y016194D01*
X039686Y016225D02*
X039686Y016343D01*
X039671Y016380D01*
X039671Y018108D01*
X039711Y018204D01*
X039784Y018277D01*
X039880Y018316D01*
X039983Y018316D01*
X043358Y018316D01*
X043454Y018277D01*
X043527Y018204D01*
X043544Y018162D01*
X043544Y018161D01*
X043544Y018161D01*
X043566Y018108D01*
X043566Y018005D01*
X043566Y017380D01*
X043527Y017284D01*
X043454Y017211D01*
X043358Y017171D01*
X043255Y017171D01*
X040691Y017171D01*
X040691Y016380D01*
X040676Y016343D01*
X040676Y016225D01*
X040571Y016120D01*
X039792Y016120D01*
X039686Y016225D01*
X039683Y016353D02*
X035806Y016353D01*
X035806Y016511D02*
X039671Y016511D01*
X039671Y016670D02*
X035806Y016670D01*
X035806Y016828D02*
X039671Y016828D01*
X039671Y016987D02*
X035806Y016987D01*
X035806Y017146D02*
X039671Y017146D01*
X039671Y017304D02*
X035806Y017304D01*
X035806Y017463D02*
X039671Y017463D01*
X039671Y017621D02*
X035806Y017621D01*
X035806Y017780D02*
X039671Y017780D01*
X039671Y017938D02*
X035806Y017938D01*
X035806Y018097D02*
X039671Y018097D01*
X039763Y018255D02*
X035806Y018255D01*
X035806Y018414D02*
X044394Y018414D01*
X044394Y018255D02*
X043475Y018255D01*
X043566Y018097D02*
X044394Y018097D01*
X044394Y017938D02*
X043566Y017938D01*
X043566Y017780D02*
X044394Y017780D01*
X044394Y017621D02*
X043566Y017621D01*
X043566Y017463D02*
X044394Y017463D01*
X044394Y017304D02*
X043535Y017304D01*
X043306Y017431D02*
X040556Y017431D01*
X040431Y017306D01*
X040431Y016431D01*
X039931Y016431D01*
X039931Y018056D01*
X043306Y018056D01*
X043306Y017431D01*
X043306Y017463D02*
X039931Y017463D01*
X039931Y017621D02*
X043306Y017621D01*
X043306Y017780D02*
X039931Y017780D01*
X039931Y017938D02*
X043306Y017938D01*
X041931Y017681D02*
X040181Y017681D01*
X040181Y016555D01*
X039931Y016511D02*
X040431Y016511D01*
X040431Y016670D02*
X039931Y016670D01*
X039931Y016828D02*
X040431Y016828D01*
X040431Y016987D02*
X039931Y016987D01*
X039931Y017146D02*
X040431Y017146D01*
X040431Y017304D02*
X039931Y017304D01*
X040691Y017146D02*
X044394Y017146D01*
X044394Y016987D02*
X043498Y016987D01*
X043544Y016941D02*
X043439Y017046D01*
X042424Y017046D01*
X042359Y016981D01*
X042278Y016981D01*
X042121Y017139D01*
X041742Y017139D01*
X041474Y016871D01*
X041474Y016492D01*
X041742Y016224D01*
X042121Y016224D01*
X042278Y016381D01*
X042318Y016381D01*
X042318Y016201D01*
X042424Y016096D01*
X042631Y016096D01*
X042631Y015261D01*
X042677Y015151D01*
X042761Y015067D01*
X043631Y014197D01*
X043631Y011056D01*
X043557Y010981D01*
X042122Y010981D01*
X042011Y010936D01*
X041927Y010851D01*
X041677Y010601D01*
X041631Y010491D01*
X041631Y010372D01*
X041631Y010360D01*
X041524Y010253D01*
X041451Y010077D01*
X041451Y009286D01*
X041524Y009109D01*
X041659Y008974D01*
X041836Y008901D01*
X042027Y008901D01*
X042203Y008974D01*
X042338Y009109D01*
X042411Y009286D01*
X042411Y010077D01*
X042338Y010253D01*
X042258Y010334D01*
X042306Y010381D01*
X043622Y010381D01*
X043741Y010381D01*
X043851Y010427D01*
X044101Y010677D01*
X044186Y010761D01*
X044231Y010872D01*
X044231Y014261D01*
X044231Y014381D01*
X044186Y014491D01*
X043231Y015445D01*
X043231Y016096D01*
X043439Y016096D01*
X043544Y016201D01*
X043544Y016941D01*
X043544Y016828D02*
X044394Y016828D01*
X044394Y016670D02*
X043544Y016670D01*
X043544Y016511D02*
X044394Y016511D01*
X044394Y016353D02*
X043544Y016353D01*
X043537Y016194D02*
X044394Y016194D01*
X044394Y016036D02*
X043231Y016036D01*
X043231Y015877D02*
X044394Y015877D01*
X044394Y015719D02*
X043231Y015719D01*
X043231Y015560D02*
X044394Y015560D01*
X044394Y015402D02*
X043275Y015402D01*
X043434Y015243D02*
X044394Y015243D01*
X044394Y015084D02*
X043592Y015084D01*
X043751Y014926D02*
X044394Y014926D01*
X044394Y014767D02*
X043909Y014767D01*
X044068Y014609D02*
X044394Y014609D01*
X044394Y014450D02*
X044203Y014450D01*
X044231Y014292D02*
X044394Y014292D01*
X044394Y014133D02*
X044231Y014133D01*
X044231Y013975D02*
X044394Y013975D01*
X044394Y013816D02*
X044231Y013816D01*
X044231Y013658D02*
X044394Y013658D01*
X044394Y013499D02*
X044231Y013499D01*
X044231Y013341D02*
X044394Y013341D01*
X044394Y013182D02*
X044231Y013182D01*
X044231Y013023D02*
X044394Y013023D01*
X044394Y012865D02*
X044231Y012865D01*
X044231Y012706D02*
X044394Y012706D01*
X044394Y012548D02*
X044231Y012548D01*
X044231Y012389D02*
X044394Y012389D01*
X044394Y012231D02*
X044231Y012231D01*
X044231Y012072D02*
X044394Y012072D01*
X044394Y011914D02*
X044231Y011914D01*
X044231Y011755D02*
X044394Y011755D01*
X044394Y011597D02*
X044231Y011597D01*
X044231Y011438D02*
X044394Y011438D01*
X044394Y011279D02*
X044231Y011279D01*
X044231Y011121D02*
X044394Y011121D01*
X044394Y010962D02*
X044231Y010962D01*
X044203Y010804D02*
X044394Y010804D01*
X044394Y010645D02*
X044070Y010645D01*
X043911Y010487D02*
X044394Y010487D01*
X044394Y010328D02*
X042263Y010328D01*
X042373Y010170D02*
X044394Y010170D01*
X044394Y010011D02*
X042411Y010011D01*
X042411Y009853D02*
X044394Y009853D01*
X044394Y009694D02*
X042411Y009694D01*
X042411Y009535D02*
X044394Y009535D01*
X044394Y009377D02*
X042411Y009377D01*
X042383Y009218D02*
X044394Y009218D01*
X044394Y009060D02*
X042289Y009060D01*
X041574Y009060D02*
X041289Y009060D01*
X041338Y009109D02*
X041411Y009286D01*
X041411Y010077D01*
X041338Y010253D01*
X041231Y010360D01*
X041231Y011057D01*
X041556Y011381D01*
X041585Y011381D01*
X041742Y011224D01*
X042121Y011224D01*
X042278Y011381D01*
X042318Y011381D01*
X042318Y011201D01*
X042424Y011096D01*
X043439Y011096D01*
X043544Y011201D01*
X043544Y011941D01*
X043439Y012046D01*
X042424Y012046D01*
X042359Y011981D01*
X042278Y011981D01*
X042121Y012139D01*
X041742Y012139D01*
X041585Y011981D01*
X041372Y011981D01*
X041261Y011936D01*
X041177Y011851D01*
X040677Y011351D01*
X040631Y011241D01*
X040631Y011122D01*
X040631Y010360D01*
X040524Y010253D01*
X040451Y010077D01*
X040451Y009286D01*
X040524Y009109D01*
X040659Y008974D01*
X040836Y008901D01*
X041027Y008901D01*
X041203Y008974D01*
X041338Y009109D01*
X041383Y009218D02*
X041479Y009218D01*
X041451Y009377D02*
X041411Y009377D01*
X041411Y009535D02*
X041451Y009535D01*
X041451Y009694D02*
X041411Y009694D01*
X041411Y009853D02*
X041451Y009853D01*
X041451Y010011D02*
X041411Y010011D01*
X041373Y010170D02*
X041490Y010170D01*
X041599Y010328D02*
X041263Y010328D01*
X041231Y010487D02*
X041631Y010487D01*
X041721Y010645D02*
X041231Y010645D01*
X041231Y010804D02*
X041880Y010804D01*
X042076Y010962D02*
X041231Y010962D01*
X041295Y011121D02*
X042399Y011121D01*
X042318Y011279D02*
X042176Y011279D01*
X041687Y011279D02*
X041454Y011279D01*
X040922Y011597D02*
X035806Y011597D01*
X035806Y011755D02*
X041081Y011755D01*
X041239Y011914D02*
X035806Y011914D01*
X035806Y012072D02*
X041676Y012072D01*
X042187Y012072D02*
X043631Y012072D01*
X043631Y011914D02*
X043544Y011914D01*
X043544Y011755D02*
X043631Y011755D01*
X043631Y011597D02*
X043544Y011597D01*
X043544Y011438D02*
X043631Y011438D01*
X043631Y011279D02*
X043544Y011279D01*
X043464Y011121D02*
X043631Y011121D01*
X043358Y012171D02*
X043454Y012211D01*
X043527Y012284D01*
X043566Y012380D01*
X043566Y012483D01*
X043566Y013108D01*
X043544Y013161D01*
X043544Y013161D01*
X043544Y013162D01*
X043527Y013204D01*
X043454Y013277D01*
X043358Y013316D01*
X043255Y013316D01*
X041816Y013316D01*
X041816Y013983D01*
X041777Y014079D01*
X041704Y014152D01*
X041608Y014191D01*
X041505Y014191D01*
X039880Y014191D01*
X039784Y014152D01*
X039711Y014079D01*
X039671Y013983D01*
X039671Y013880D01*
X039671Y012380D01*
X039711Y012284D01*
X039784Y012211D01*
X039880Y012171D01*
X039983Y012171D01*
X043358Y012171D01*
X043473Y012231D02*
X043631Y012231D01*
X043631Y012389D02*
X043566Y012389D01*
X043566Y012548D02*
X043631Y012548D01*
X043631Y012706D02*
X043566Y012706D01*
X043566Y012865D02*
X043631Y012865D01*
X043631Y013023D02*
X043566Y013023D01*
X043536Y013182D02*
X043631Y013182D01*
X043631Y013341D02*
X041816Y013341D01*
X041816Y013499D02*
X043631Y013499D01*
X043631Y013658D02*
X041816Y013658D01*
X041816Y013816D02*
X043631Y013816D01*
X043631Y013975D02*
X041816Y013975D01*
X041722Y014133D02*
X043631Y014133D01*
X043537Y014292D02*
X038263Y014292D01*
X038317Y014450D02*
X043378Y014450D01*
X043219Y014609D02*
X038317Y014609D01*
X038317Y014767D02*
X043061Y014767D01*
X042902Y014926D02*
X038313Y014926D01*
X038258Y015084D02*
X042744Y015084D01*
X042639Y015243D02*
X038204Y015243D01*
X038127Y015402D02*
X042631Y015402D01*
X042631Y015560D02*
X038004Y015560D01*
X037877Y015719D02*
X042631Y015719D01*
X042631Y015877D02*
X037635Y015877D01*
X037228Y016036D02*
X042631Y016036D01*
X042325Y016194D02*
X040646Y016194D01*
X040680Y016353D02*
X041613Y016353D01*
X041474Y016511D02*
X040691Y016511D01*
X040691Y016670D02*
X041474Y016670D01*
X041474Y016828D02*
X040691Y016828D01*
X040691Y016987D02*
X041591Y016987D01*
X042272Y016987D02*
X042364Y016987D01*
X042318Y016353D02*
X042249Y016353D01*
X040181Y015807D02*
X040181Y014681D01*
X039766Y014133D02*
X038208Y014133D01*
X038137Y013975D02*
X039671Y013975D01*
X039671Y013816D02*
X038014Y013816D01*
X037891Y013658D02*
X039671Y013658D01*
X039671Y013499D02*
X037655Y013499D01*
X037282Y013341D02*
X039671Y013341D01*
X039671Y013182D02*
X035806Y013182D01*
X035806Y013341D02*
X036538Y013341D01*
X036177Y013499D02*
X035806Y013499D01*
X035806Y013658D02*
X035997Y013658D01*
X035825Y013816D02*
X035806Y013816D01*
X034381Y013182D02*
X033536Y013182D01*
X033566Y013023D02*
X034381Y013023D01*
X034381Y012865D02*
X033566Y012865D01*
X033566Y012706D02*
X034381Y012706D01*
X034381Y012548D02*
X033566Y012548D01*
X033566Y012389D02*
X034381Y012389D01*
X034381Y012231D02*
X033473Y012231D01*
X032318Y011279D02*
X032176Y011279D01*
X032399Y011121D02*
X026931Y011121D01*
X026931Y010962D02*
X032288Y010962D01*
X032157Y010804D02*
X026931Y010804D01*
X026931Y010645D02*
X032131Y010645D01*
X031099Y010328D02*
X030763Y010328D01*
X030873Y010170D02*
X030990Y010170D01*
X030951Y010011D02*
X030911Y010011D01*
X030911Y009853D02*
X030951Y009853D01*
X030951Y009694D02*
X030911Y009694D01*
X030911Y009535D02*
X030951Y009535D01*
X030951Y009377D02*
X030911Y009377D01*
X030883Y009218D02*
X030979Y009218D01*
X031074Y009060D02*
X030789Y009060D01*
X030731Y008901D02*
X031131Y008901D01*
X031131Y008743D02*
X030731Y008743D01*
X032212Y007316D02*
X033623Y007316D01*
X032376Y006999D02*
X032261Y006999D01*
X031602Y006999D02*
X031538Y006999D01*
X035806Y005730D02*
X038631Y005730D01*
X038631Y005572D02*
X037086Y005572D01*
X036931Y005572D02*
X035806Y005572D01*
X035806Y005413D02*
X036290Y005413D01*
X036051Y005255D02*
X035806Y005255D01*
X035806Y005096D02*
X035879Y005096D01*
X037579Y005413D02*
X038631Y005413D01*
X038631Y005255D02*
X037822Y005255D01*
X037975Y005096D02*
X038631Y005096D01*
X038631Y004938D02*
X038099Y004938D01*
X038191Y004779D02*
X038631Y004779D01*
X038631Y004621D02*
X038246Y004621D01*
X038300Y004462D02*
X038631Y004462D01*
X038631Y004304D02*
X038317Y004304D01*
X039231Y003669D02*
X041046Y003669D01*
X041046Y003511D02*
X039231Y003511D01*
X039231Y003352D02*
X041046Y003352D01*
X041046Y003194D02*
X039231Y003194D01*
X039231Y003035D02*
X041046Y003035D01*
X041046Y002877D02*
X039231Y002877D01*
X039231Y002718D02*
X041046Y002718D01*
X041046Y002560D02*
X039231Y002560D01*
X039231Y002401D02*
X041046Y002401D01*
X041128Y002242D02*
X039295Y002242D01*
X039453Y002084D02*
X041687Y002084D01*
X042175Y002084D02*
X044394Y002084D01*
X044394Y001925D02*
X043544Y001925D01*
X043544Y001767D02*
X044394Y001767D01*
X044394Y001608D02*
X043544Y001608D01*
X043544Y001450D02*
X044394Y001450D01*
X044394Y001291D02*
X043544Y001291D01*
X043476Y001133D02*
X044394Y001133D01*
X044394Y000974D02*
X035806Y000974D01*
X035806Y000816D02*
X044394Y000816D01*
X044394Y000657D02*
X035806Y000657D01*
X035806Y000499D02*
X044394Y000499D01*
X042387Y001133D02*
X035806Y001133D01*
X035806Y001291D02*
X041675Y001291D01*
X042188Y001291D02*
X042318Y001291D01*
X039239Y001450D02*
X035806Y001450D01*
X035806Y001608D02*
X039080Y001608D01*
X038922Y001767D02*
X035806Y001767D01*
X035806Y001925D02*
X038763Y001925D01*
X038647Y002084D02*
X035806Y002084D01*
X035806Y002242D02*
X038631Y002242D01*
X038631Y002401D02*
X035806Y002401D01*
X035806Y002560D02*
X038631Y002560D01*
X038631Y002718D02*
X035806Y002718D01*
X035431Y002718D02*
X033566Y002718D01*
X033566Y002560D02*
X035431Y002560D01*
X035431Y002401D02*
X033566Y002401D01*
X033485Y002242D02*
X035431Y002242D01*
X035431Y002084D02*
X032175Y002084D01*
X031687Y002084D02*
X030953Y002084D01*
X030795Y002242D02*
X031503Y002242D01*
X031421Y002401D02*
X030731Y002401D01*
X031931Y002681D02*
X031931Y003681D01*
X033057Y003681D02*
X033057Y002792D01*
X032931Y002792D01*
X033566Y002877D02*
X035431Y002877D01*
X035431Y003035D02*
X033566Y003035D01*
X033544Y001925D02*
X035431Y001925D01*
X035431Y001767D02*
X033544Y001767D01*
X033544Y001608D02*
X035431Y001608D01*
X035431Y001450D02*
X033544Y001450D01*
X033544Y001291D02*
X035431Y001291D01*
X035431Y001133D02*
X033476Y001133D01*
X041555Y003681D02*
X042681Y003681D01*
X043899Y006365D02*
X044394Y006365D01*
X044394Y006523D02*
X044058Y006523D01*
X044198Y006682D02*
X044394Y006682D01*
X044394Y006840D02*
X044231Y006840D01*
X044231Y006999D02*
X044394Y006999D01*
X044394Y007157D02*
X044231Y007157D01*
X044231Y007316D02*
X044394Y007316D01*
X044394Y007474D02*
X044231Y007474D01*
X044231Y007633D02*
X044394Y007633D01*
X044394Y007791D02*
X044231Y007791D01*
X044231Y007950D02*
X044394Y007950D01*
X044394Y008109D02*
X044231Y008109D01*
X044231Y008267D02*
X044394Y008267D01*
X044394Y008426D02*
X044207Y008426D01*
X044078Y008584D02*
X044394Y008584D01*
X044394Y008743D02*
X043919Y008743D01*
X044394Y008901D02*
X040511Y008901D01*
X040574Y009060D02*
X040352Y009060D01*
X040383Y009218D02*
X040479Y009218D01*
X040451Y009377D02*
X040411Y009377D01*
X040411Y009535D02*
X040451Y009535D01*
X040451Y009694D02*
X040411Y009694D01*
X040411Y009853D02*
X040451Y009853D01*
X040451Y010011D02*
X040411Y010011D01*
X040373Y010170D02*
X040490Y010170D01*
X040599Y010328D02*
X040263Y010328D01*
X040631Y010487D02*
X035806Y010487D01*
X035806Y010645D02*
X040631Y010645D01*
X040631Y010804D02*
X035806Y010804D01*
X035806Y010962D02*
X040631Y010962D01*
X040631Y011121D02*
X035806Y011121D01*
X035806Y011279D02*
X040647Y011279D01*
X040764Y011438D02*
X035806Y011438D01*
X035806Y012231D02*
X039764Y012231D01*
X039671Y012389D02*
X035806Y012389D01*
X035806Y012548D02*
X039671Y012548D01*
X039671Y012706D02*
X035806Y012706D01*
X035806Y012865D02*
X039671Y012865D01*
X039671Y013023D02*
X035806Y013023D01*
X039931Y013023D02*
X043306Y013023D01*
X043306Y013056D02*
X043306Y012431D01*
X039931Y012431D01*
X039931Y013931D01*
X041556Y013931D01*
X041556Y013181D01*
X041681Y013056D01*
X043306Y013056D01*
X043306Y012865D02*
X039931Y012865D01*
X039931Y012706D02*
X043306Y012706D01*
X043306Y012548D02*
X039931Y012548D01*
X039931Y013182D02*
X041556Y013182D01*
X041556Y013341D02*
X039931Y013341D01*
X039931Y013499D02*
X041556Y013499D01*
X041556Y013658D02*
X039931Y013658D01*
X039931Y013816D02*
X041556Y013816D01*
X041307Y013681D02*
X041307Y012931D01*
X041557Y012681D01*
X041931Y012681D01*
X042055Y013681D02*
X043181Y013681D01*
X041307Y013681D02*
X040181Y013681D01*
X035840Y015560D02*
X035806Y015560D01*
X035806Y015719D02*
X036012Y015719D01*
X036208Y015877D02*
X035806Y015877D01*
X035806Y016036D02*
X036569Y016036D01*
X040626Y008109D02*
X041712Y008109D01*
X042151Y008109D02*
X042318Y008109D01*
X043544Y008109D02*
X043631Y008109D01*
X043631Y007950D02*
X043544Y007950D01*
X043544Y007791D02*
X043631Y007791D01*
X043631Y007633D02*
X043544Y007633D01*
X043544Y007474D02*
X043631Y007474D01*
X012621Y005096D02*
X012218Y005096D01*
D20*
X011931Y006681D02*
X013681Y006681D01*
X013931Y006931D01*
X013931Y008306D01*
X013681Y008556D01*
X011681Y008556D01*
X011431Y008806D01*
X011431Y009681D01*
X003931Y008306D02*
X003931Y006821D01*
X003681Y006571D01*
X002931Y006571D01*
X002821Y006681D02*
X001931Y006681D01*
X001931Y007681D02*
X002821Y007681D01*
X003681Y008556D02*
X003931Y008306D01*
X003681Y008556D02*
X002681Y008556D01*
X002431Y008806D01*
X002431Y009681D01*
X001931Y005431D02*
X003057Y005431D01*
X021431Y008806D02*
X021431Y009681D01*
X021431Y008806D02*
X021681Y008556D01*
X023681Y008556D01*
X023931Y008306D01*
X023931Y006821D01*
X023681Y006571D01*
M02*
