%
M48
M72
T01C0.0320
T02C0.0354
T03C0.0400
T04C0.0440
T05C0.1300
%
T01
X1931Y3681
X4931Y3681
X4931Y5431
X1931Y5431
X11931Y5431
X14931Y5431
X14931Y3681
X11931Y3681
X21181Y5181
X24181Y5181
X24931Y3681
X21931Y3681
X30931Y5431
X33931Y5431
X34931Y3681
X31931Y3681
X39681Y3681
X40431Y4681
X42681Y3681
X40431Y7681
X40181Y13681
X40181Y14681
X43181Y13681
X40181Y17681
X33931Y15431
X30931Y15431
X30931Y13681
X33931Y13681
X24931Y13681
X21931Y13681
X20931Y15431
X23931Y15431
X14931Y15431
X11931Y15431
X11931Y13681
X14931Y13681
X4931Y13681
X1931Y13681
X1931Y15431
X4931Y15431
T02
X1931Y1681
X1931Y2681
X1931Y6681
X1931Y7681
X1931Y11681
X1931Y12681
X1931Y16681
X1931Y17681
X11931Y17681
X11931Y16681
X11931Y12681
X11931Y11681
X11931Y7681
X11931Y6681
X11931Y2681
X11931Y1681
X21931Y1681
X21931Y2681
X21931Y6681
X21931Y7681
X21931Y11681
X21931Y12681
X21931Y16681
X21931Y17681
X31931Y17681
X31931Y16681
X31931Y12681
X31931Y11681
X31931Y7681
X31931Y6681
X31931Y2681
X31931Y1681
X41931Y1681
X41931Y2681
X41931Y6681
X41931Y7681
X41931Y11681
X41931Y12681
X41931Y16681
X41931Y17681
T03
X41931Y9681
X40931Y9681
X39931Y9681
X38931Y9681
X42931Y9681
X34431Y9681
X33431Y9681
X32431Y9681
X31431Y9681
X30431Y9681
X24431Y9681
X23431Y9681
X22431Y9681
X21431Y9681
X20431Y9681
X14431Y9681
X13431Y9681
X12431Y9681
X11431Y9681
X10431Y9681
X5431Y9681
X4431Y9681
X3431Y9681
X2431Y9681
X1431Y9681
T04
X5931Y17931
X9681Y17931
X25681Y17931
X27681Y17931
X36431Y17931
X36431Y931
X27681Y931
X25681Y931
X9681Y931
X5931Y931
T05
X7931Y4181
X7931Y14681
X36931Y14681
X36931Y4181
M30
