G75*
%MOIN*%
%OFA0B0*%
%FSLAX25Y25*%
%IPPOS*%
%LPD*%
%AMOC8*
5,1,8,0,0,1.08239X$1,22.5*
%
%ADD10C,0.00000*%
%ADD11C,0.00900*%
%ADD12C,0.00400*%
D10*
X0001800Y0001800D02*
X0001800Y0188001D01*
X0446721Y0188001D01*
X0446721Y0001800D01*
X0001800Y0001800D01*
X0072800Y0041800D02*
X0072802Y0041961D01*
X0072808Y0042121D01*
X0072818Y0042282D01*
X0072832Y0042442D01*
X0072850Y0042602D01*
X0072871Y0042761D01*
X0072897Y0042920D01*
X0072927Y0043078D01*
X0072960Y0043235D01*
X0072998Y0043392D01*
X0073039Y0043547D01*
X0073084Y0043701D01*
X0073133Y0043854D01*
X0073186Y0044006D01*
X0073242Y0044157D01*
X0073303Y0044306D01*
X0073366Y0044454D01*
X0073434Y0044600D01*
X0073505Y0044744D01*
X0073579Y0044886D01*
X0073657Y0045027D01*
X0073739Y0045165D01*
X0073824Y0045302D01*
X0073912Y0045436D01*
X0074004Y0045568D01*
X0074099Y0045698D01*
X0074197Y0045826D01*
X0074298Y0045951D01*
X0074402Y0046073D01*
X0074509Y0046193D01*
X0074619Y0046310D01*
X0074732Y0046425D01*
X0074848Y0046536D01*
X0074967Y0046645D01*
X0075088Y0046750D01*
X0075212Y0046853D01*
X0075338Y0046953D01*
X0075466Y0047049D01*
X0075597Y0047142D01*
X0075731Y0047232D01*
X0075866Y0047319D01*
X0076004Y0047402D01*
X0076143Y0047482D01*
X0076285Y0047558D01*
X0076428Y0047631D01*
X0076573Y0047700D01*
X0076720Y0047766D01*
X0076868Y0047828D01*
X0077018Y0047886D01*
X0077169Y0047941D01*
X0077322Y0047992D01*
X0077476Y0048039D01*
X0077631Y0048082D01*
X0077787Y0048121D01*
X0077943Y0048157D01*
X0078101Y0048188D01*
X0078259Y0048216D01*
X0078418Y0048240D01*
X0078578Y0048260D01*
X0078738Y0048276D01*
X0078898Y0048288D01*
X0079059Y0048296D01*
X0079220Y0048300D01*
X0079380Y0048300D01*
X0079541Y0048296D01*
X0079702Y0048288D01*
X0079862Y0048276D01*
X0080022Y0048260D01*
X0080182Y0048240D01*
X0080341Y0048216D01*
X0080499Y0048188D01*
X0080657Y0048157D01*
X0080813Y0048121D01*
X0080969Y0048082D01*
X0081124Y0048039D01*
X0081278Y0047992D01*
X0081431Y0047941D01*
X0081582Y0047886D01*
X0081732Y0047828D01*
X0081880Y0047766D01*
X0082027Y0047700D01*
X0082172Y0047631D01*
X0082315Y0047558D01*
X0082457Y0047482D01*
X0082596Y0047402D01*
X0082734Y0047319D01*
X0082869Y0047232D01*
X0083003Y0047142D01*
X0083134Y0047049D01*
X0083262Y0046953D01*
X0083388Y0046853D01*
X0083512Y0046750D01*
X0083633Y0046645D01*
X0083752Y0046536D01*
X0083868Y0046425D01*
X0083981Y0046310D01*
X0084091Y0046193D01*
X0084198Y0046073D01*
X0084302Y0045951D01*
X0084403Y0045826D01*
X0084501Y0045698D01*
X0084596Y0045568D01*
X0084688Y0045436D01*
X0084776Y0045302D01*
X0084861Y0045165D01*
X0084943Y0045027D01*
X0085021Y0044886D01*
X0085095Y0044744D01*
X0085166Y0044600D01*
X0085234Y0044454D01*
X0085297Y0044306D01*
X0085358Y0044157D01*
X0085414Y0044006D01*
X0085467Y0043854D01*
X0085516Y0043701D01*
X0085561Y0043547D01*
X0085602Y0043392D01*
X0085640Y0043235D01*
X0085673Y0043078D01*
X0085703Y0042920D01*
X0085729Y0042761D01*
X0085750Y0042602D01*
X0085768Y0042442D01*
X0085782Y0042282D01*
X0085792Y0042121D01*
X0085798Y0041961D01*
X0085800Y0041800D01*
X0085798Y0041639D01*
X0085792Y0041479D01*
X0085782Y0041318D01*
X0085768Y0041158D01*
X0085750Y0040998D01*
X0085729Y0040839D01*
X0085703Y0040680D01*
X0085673Y0040522D01*
X0085640Y0040365D01*
X0085602Y0040208D01*
X0085561Y0040053D01*
X0085516Y0039899D01*
X0085467Y0039746D01*
X0085414Y0039594D01*
X0085358Y0039443D01*
X0085297Y0039294D01*
X0085234Y0039146D01*
X0085166Y0039000D01*
X0085095Y0038856D01*
X0085021Y0038714D01*
X0084943Y0038573D01*
X0084861Y0038435D01*
X0084776Y0038298D01*
X0084688Y0038164D01*
X0084596Y0038032D01*
X0084501Y0037902D01*
X0084403Y0037774D01*
X0084302Y0037649D01*
X0084198Y0037527D01*
X0084091Y0037407D01*
X0083981Y0037290D01*
X0083868Y0037175D01*
X0083752Y0037064D01*
X0083633Y0036955D01*
X0083512Y0036850D01*
X0083388Y0036747D01*
X0083262Y0036647D01*
X0083134Y0036551D01*
X0083003Y0036458D01*
X0082869Y0036368D01*
X0082734Y0036281D01*
X0082596Y0036198D01*
X0082457Y0036118D01*
X0082315Y0036042D01*
X0082172Y0035969D01*
X0082027Y0035900D01*
X0081880Y0035834D01*
X0081732Y0035772D01*
X0081582Y0035714D01*
X0081431Y0035659D01*
X0081278Y0035608D01*
X0081124Y0035561D01*
X0080969Y0035518D01*
X0080813Y0035479D01*
X0080657Y0035443D01*
X0080499Y0035412D01*
X0080341Y0035384D01*
X0080182Y0035360D01*
X0080022Y0035340D01*
X0079862Y0035324D01*
X0079702Y0035312D01*
X0079541Y0035304D01*
X0079380Y0035300D01*
X0079220Y0035300D01*
X0079059Y0035304D01*
X0078898Y0035312D01*
X0078738Y0035324D01*
X0078578Y0035340D01*
X0078418Y0035360D01*
X0078259Y0035384D01*
X0078101Y0035412D01*
X0077943Y0035443D01*
X0077787Y0035479D01*
X0077631Y0035518D01*
X0077476Y0035561D01*
X0077322Y0035608D01*
X0077169Y0035659D01*
X0077018Y0035714D01*
X0076868Y0035772D01*
X0076720Y0035834D01*
X0076573Y0035900D01*
X0076428Y0035969D01*
X0076285Y0036042D01*
X0076143Y0036118D01*
X0076004Y0036198D01*
X0075866Y0036281D01*
X0075731Y0036368D01*
X0075597Y0036458D01*
X0075466Y0036551D01*
X0075338Y0036647D01*
X0075212Y0036747D01*
X0075088Y0036850D01*
X0074967Y0036955D01*
X0074848Y0037064D01*
X0074732Y0037175D01*
X0074619Y0037290D01*
X0074509Y0037407D01*
X0074402Y0037527D01*
X0074298Y0037649D01*
X0074197Y0037774D01*
X0074099Y0037902D01*
X0074004Y0038032D01*
X0073912Y0038164D01*
X0073824Y0038298D01*
X0073739Y0038435D01*
X0073657Y0038573D01*
X0073579Y0038714D01*
X0073505Y0038856D01*
X0073434Y0039000D01*
X0073366Y0039146D01*
X0073303Y0039294D01*
X0073242Y0039443D01*
X0073186Y0039594D01*
X0073133Y0039746D01*
X0073084Y0039899D01*
X0073039Y0040053D01*
X0072998Y0040208D01*
X0072960Y0040365D01*
X0072927Y0040522D01*
X0072897Y0040680D01*
X0072871Y0040839D01*
X0072850Y0040998D01*
X0072832Y0041158D01*
X0072818Y0041318D01*
X0072808Y0041479D01*
X0072802Y0041639D01*
X0072800Y0041800D01*
X0072800Y0146800D02*
X0072802Y0146961D01*
X0072808Y0147121D01*
X0072818Y0147282D01*
X0072832Y0147442D01*
X0072850Y0147602D01*
X0072871Y0147761D01*
X0072897Y0147920D01*
X0072927Y0148078D01*
X0072960Y0148235D01*
X0072998Y0148392D01*
X0073039Y0148547D01*
X0073084Y0148701D01*
X0073133Y0148854D01*
X0073186Y0149006D01*
X0073242Y0149157D01*
X0073303Y0149306D01*
X0073366Y0149454D01*
X0073434Y0149600D01*
X0073505Y0149744D01*
X0073579Y0149886D01*
X0073657Y0150027D01*
X0073739Y0150165D01*
X0073824Y0150302D01*
X0073912Y0150436D01*
X0074004Y0150568D01*
X0074099Y0150698D01*
X0074197Y0150826D01*
X0074298Y0150951D01*
X0074402Y0151073D01*
X0074509Y0151193D01*
X0074619Y0151310D01*
X0074732Y0151425D01*
X0074848Y0151536D01*
X0074967Y0151645D01*
X0075088Y0151750D01*
X0075212Y0151853D01*
X0075338Y0151953D01*
X0075466Y0152049D01*
X0075597Y0152142D01*
X0075731Y0152232D01*
X0075866Y0152319D01*
X0076004Y0152402D01*
X0076143Y0152482D01*
X0076285Y0152558D01*
X0076428Y0152631D01*
X0076573Y0152700D01*
X0076720Y0152766D01*
X0076868Y0152828D01*
X0077018Y0152886D01*
X0077169Y0152941D01*
X0077322Y0152992D01*
X0077476Y0153039D01*
X0077631Y0153082D01*
X0077787Y0153121D01*
X0077943Y0153157D01*
X0078101Y0153188D01*
X0078259Y0153216D01*
X0078418Y0153240D01*
X0078578Y0153260D01*
X0078738Y0153276D01*
X0078898Y0153288D01*
X0079059Y0153296D01*
X0079220Y0153300D01*
X0079380Y0153300D01*
X0079541Y0153296D01*
X0079702Y0153288D01*
X0079862Y0153276D01*
X0080022Y0153260D01*
X0080182Y0153240D01*
X0080341Y0153216D01*
X0080499Y0153188D01*
X0080657Y0153157D01*
X0080813Y0153121D01*
X0080969Y0153082D01*
X0081124Y0153039D01*
X0081278Y0152992D01*
X0081431Y0152941D01*
X0081582Y0152886D01*
X0081732Y0152828D01*
X0081880Y0152766D01*
X0082027Y0152700D01*
X0082172Y0152631D01*
X0082315Y0152558D01*
X0082457Y0152482D01*
X0082596Y0152402D01*
X0082734Y0152319D01*
X0082869Y0152232D01*
X0083003Y0152142D01*
X0083134Y0152049D01*
X0083262Y0151953D01*
X0083388Y0151853D01*
X0083512Y0151750D01*
X0083633Y0151645D01*
X0083752Y0151536D01*
X0083868Y0151425D01*
X0083981Y0151310D01*
X0084091Y0151193D01*
X0084198Y0151073D01*
X0084302Y0150951D01*
X0084403Y0150826D01*
X0084501Y0150698D01*
X0084596Y0150568D01*
X0084688Y0150436D01*
X0084776Y0150302D01*
X0084861Y0150165D01*
X0084943Y0150027D01*
X0085021Y0149886D01*
X0085095Y0149744D01*
X0085166Y0149600D01*
X0085234Y0149454D01*
X0085297Y0149306D01*
X0085358Y0149157D01*
X0085414Y0149006D01*
X0085467Y0148854D01*
X0085516Y0148701D01*
X0085561Y0148547D01*
X0085602Y0148392D01*
X0085640Y0148235D01*
X0085673Y0148078D01*
X0085703Y0147920D01*
X0085729Y0147761D01*
X0085750Y0147602D01*
X0085768Y0147442D01*
X0085782Y0147282D01*
X0085792Y0147121D01*
X0085798Y0146961D01*
X0085800Y0146800D01*
X0085798Y0146639D01*
X0085792Y0146479D01*
X0085782Y0146318D01*
X0085768Y0146158D01*
X0085750Y0145998D01*
X0085729Y0145839D01*
X0085703Y0145680D01*
X0085673Y0145522D01*
X0085640Y0145365D01*
X0085602Y0145208D01*
X0085561Y0145053D01*
X0085516Y0144899D01*
X0085467Y0144746D01*
X0085414Y0144594D01*
X0085358Y0144443D01*
X0085297Y0144294D01*
X0085234Y0144146D01*
X0085166Y0144000D01*
X0085095Y0143856D01*
X0085021Y0143714D01*
X0084943Y0143573D01*
X0084861Y0143435D01*
X0084776Y0143298D01*
X0084688Y0143164D01*
X0084596Y0143032D01*
X0084501Y0142902D01*
X0084403Y0142774D01*
X0084302Y0142649D01*
X0084198Y0142527D01*
X0084091Y0142407D01*
X0083981Y0142290D01*
X0083868Y0142175D01*
X0083752Y0142064D01*
X0083633Y0141955D01*
X0083512Y0141850D01*
X0083388Y0141747D01*
X0083262Y0141647D01*
X0083134Y0141551D01*
X0083003Y0141458D01*
X0082869Y0141368D01*
X0082734Y0141281D01*
X0082596Y0141198D01*
X0082457Y0141118D01*
X0082315Y0141042D01*
X0082172Y0140969D01*
X0082027Y0140900D01*
X0081880Y0140834D01*
X0081732Y0140772D01*
X0081582Y0140714D01*
X0081431Y0140659D01*
X0081278Y0140608D01*
X0081124Y0140561D01*
X0080969Y0140518D01*
X0080813Y0140479D01*
X0080657Y0140443D01*
X0080499Y0140412D01*
X0080341Y0140384D01*
X0080182Y0140360D01*
X0080022Y0140340D01*
X0079862Y0140324D01*
X0079702Y0140312D01*
X0079541Y0140304D01*
X0079380Y0140300D01*
X0079220Y0140300D01*
X0079059Y0140304D01*
X0078898Y0140312D01*
X0078738Y0140324D01*
X0078578Y0140340D01*
X0078418Y0140360D01*
X0078259Y0140384D01*
X0078101Y0140412D01*
X0077943Y0140443D01*
X0077787Y0140479D01*
X0077631Y0140518D01*
X0077476Y0140561D01*
X0077322Y0140608D01*
X0077169Y0140659D01*
X0077018Y0140714D01*
X0076868Y0140772D01*
X0076720Y0140834D01*
X0076573Y0140900D01*
X0076428Y0140969D01*
X0076285Y0141042D01*
X0076143Y0141118D01*
X0076004Y0141198D01*
X0075866Y0141281D01*
X0075731Y0141368D01*
X0075597Y0141458D01*
X0075466Y0141551D01*
X0075338Y0141647D01*
X0075212Y0141747D01*
X0075088Y0141850D01*
X0074967Y0141955D01*
X0074848Y0142064D01*
X0074732Y0142175D01*
X0074619Y0142290D01*
X0074509Y0142407D01*
X0074402Y0142527D01*
X0074298Y0142649D01*
X0074197Y0142774D01*
X0074099Y0142902D01*
X0074004Y0143032D01*
X0073912Y0143164D01*
X0073824Y0143298D01*
X0073739Y0143435D01*
X0073657Y0143573D01*
X0073579Y0143714D01*
X0073505Y0143856D01*
X0073434Y0144000D01*
X0073366Y0144146D01*
X0073303Y0144294D01*
X0073242Y0144443D01*
X0073186Y0144594D01*
X0073133Y0144746D01*
X0073084Y0144899D01*
X0073039Y0145053D01*
X0072998Y0145208D01*
X0072960Y0145365D01*
X0072927Y0145522D01*
X0072897Y0145680D01*
X0072871Y0145839D01*
X0072850Y0145998D01*
X0072832Y0146158D01*
X0072818Y0146318D01*
X0072808Y0146479D01*
X0072802Y0146639D01*
X0072800Y0146800D01*
X0362800Y0146800D02*
X0362802Y0146961D01*
X0362808Y0147121D01*
X0362818Y0147282D01*
X0362832Y0147442D01*
X0362850Y0147602D01*
X0362871Y0147761D01*
X0362897Y0147920D01*
X0362927Y0148078D01*
X0362960Y0148235D01*
X0362998Y0148392D01*
X0363039Y0148547D01*
X0363084Y0148701D01*
X0363133Y0148854D01*
X0363186Y0149006D01*
X0363242Y0149157D01*
X0363303Y0149306D01*
X0363366Y0149454D01*
X0363434Y0149600D01*
X0363505Y0149744D01*
X0363579Y0149886D01*
X0363657Y0150027D01*
X0363739Y0150165D01*
X0363824Y0150302D01*
X0363912Y0150436D01*
X0364004Y0150568D01*
X0364099Y0150698D01*
X0364197Y0150826D01*
X0364298Y0150951D01*
X0364402Y0151073D01*
X0364509Y0151193D01*
X0364619Y0151310D01*
X0364732Y0151425D01*
X0364848Y0151536D01*
X0364967Y0151645D01*
X0365088Y0151750D01*
X0365212Y0151853D01*
X0365338Y0151953D01*
X0365466Y0152049D01*
X0365597Y0152142D01*
X0365731Y0152232D01*
X0365866Y0152319D01*
X0366004Y0152402D01*
X0366143Y0152482D01*
X0366285Y0152558D01*
X0366428Y0152631D01*
X0366573Y0152700D01*
X0366720Y0152766D01*
X0366868Y0152828D01*
X0367018Y0152886D01*
X0367169Y0152941D01*
X0367322Y0152992D01*
X0367476Y0153039D01*
X0367631Y0153082D01*
X0367787Y0153121D01*
X0367943Y0153157D01*
X0368101Y0153188D01*
X0368259Y0153216D01*
X0368418Y0153240D01*
X0368578Y0153260D01*
X0368738Y0153276D01*
X0368898Y0153288D01*
X0369059Y0153296D01*
X0369220Y0153300D01*
X0369380Y0153300D01*
X0369541Y0153296D01*
X0369702Y0153288D01*
X0369862Y0153276D01*
X0370022Y0153260D01*
X0370182Y0153240D01*
X0370341Y0153216D01*
X0370499Y0153188D01*
X0370657Y0153157D01*
X0370813Y0153121D01*
X0370969Y0153082D01*
X0371124Y0153039D01*
X0371278Y0152992D01*
X0371431Y0152941D01*
X0371582Y0152886D01*
X0371732Y0152828D01*
X0371880Y0152766D01*
X0372027Y0152700D01*
X0372172Y0152631D01*
X0372315Y0152558D01*
X0372457Y0152482D01*
X0372596Y0152402D01*
X0372734Y0152319D01*
X0372869Y0152232D01*
X0373003Y0152142D01*
X0373134Y0152049D01*
X0373262Y0151953D01*
X0373388Y0151853D01*
X0373512Y0151750D01*
X0373633Y0151645D01*
X0373752Y0151536D01*
X0373868Y0151425D01*
X0373981Y0151310D01*
X0374091Y0151193D01*
X0374198Y0151073D01*
X0374302Y0150951D01*
X0374403Y0150826D01*
X0374501Y0150698D01*
X0374596Y0150568D01*
X0374688Y0150436D01*
X0374776Y0150302D01*
X0374861Y0150165D01*
X0374943Y0150027D01*
X0375021Y0149886D01*
X0375095Y0149744D01*
X0375166Y0149600D01*
X0375234Y0149454D01*
X0375297Y0149306D01*
X0375358Y0149157D01*
X0375414Y0149006D01*
X0375467Y0148854D01*
X0375516Y0148701D01*
X0375561Y0148547D01*
X0375602Y0148392D01*
X0375640Y0148235D01*
X0375673Y0148078D01*
X0375703Y0147920D01*
X0375729Y0147761D01*
X0375750Y0147602D01*
X0375768Y0147442D01*
X0375782Y0147282D01*
X0375792Y0147121D01*
X0375798Y0146961D01*
X0375800Y0146800D01*
X0375798Y0146639D01*
X0375792Y0146479D01*
X0375782Y0146318D01*
X0375768Y0146158D01*
X0375750Y0145998D01*
X0375729Y0145839D01*
X0375703Y0145680D01*
X0375673Y0145522D01*
X0375640Y0145365D01*
X0375602Y0145208D01*
X0375561Y0145053D01*
X0375516Y0144899D01*
X0375467Y0144746D01*
X0375414Y0144594D01*
X0375358Y0144443D01*
X0375297Y0144294D01*
X0375234Y0144146D01*
X0375166Y0144000D01*
X0375095Y0143856D01*
X0375021Y0143714D01*
X0374943Y0143573D01*
X0374861Y0143435D01*
X0374776Y0143298D01*
X0374688Y0143164D01*
X0374596Y0143032D01*
X0374501Y0142902D01*
X0374403Y0142774D01*
X0374302Y0142649D01*
X0374198Y0142527D01*
X0374091Y0142407D01*
X0373981Y0142290D01*
X0373868Y0142175D01*
X0373752Y0142064D01*
X0373633Y0141955D01*
X0373512Y0141850D01*
X0373388Y0141747D01*
X0373262Y0141647D01*
X0373134Y0141551D01*
X0373003Y0141458D01*
X0372869Y0141368D01*
X0372734Y0141281D01*
X0372596Y0141198D01*
X0372457Y0141118D01*
X0372315Y0141042D01*
X0372172Y0140969D01*
X0372027Y0140900D01*
X0371880Y0140834D01*
X0371732Y0140772D01*
X0371582Y0140714D01*
X0371431Y0140659D01*
X0371278Y0140608D01*
X0371124Y0140561D01*
X0370969Y0140518D01*
X0370813Y0140479D01*
X0370657Y0140443D01*
X0370499Y0140412D01*
X0370341Y0140384D01*
X0370182Y0140360D01*
X0370022Y0140340D01*
X0369862Y0140324D01*
X0369702Y0140312D01*
X0369541Y0140304D01*
X0369380Y0140300D01*
X0369220Y0140300D01*
X0369059Y0140304D01*
X0368898Y0140312D01*
X0368738Y0140324D01*
X0368578Y0140340D01*
X0368418Y0140360D01*
X0368259Y0140384D01*
X0368101Y0140412D01*
X0367943Y0140443D01*
X0367787Y0140479D01*
X0367631Y0140518D01*
X0367476Y0140561D01*
X0367322Y0140608D01*
X0367169Y0140659D01*
X0367018Y0140714D01*
X0366868Y0140772D01*
X0366720Y0140834D01*
X0366573Y0140900D01*
X0366428Y0140969D01*
X0366285Y0141042D01*
X0366143Y0141118D01*
X0366004Y0141198D01*
X0365866Y0141281D01*
X0365731Y0141368D01*
X0365597Y0141458D01*
X0365466Y0141551D01*
X0365338Y0141647D01*
X0365212Y0141747D01*
X0365088Y0141850D01*
X0364967Y0141955D01*
X0364848Y0142064D01*
X0364732Y0142175D01*
X0364619Y0142290D01*
X0364509Y0142407D01*
X0364402Y0142527D01*
X0364298Y0142649D01*
X0364197Y0142774D01*
X0364099Y0142902D01*
X0364004Y0143032D01*
X0363912Y0143164D01*
X0363824Y0143298D01*
X0363739Y0143435D01*
X0363657Y0143573D01*
X0363579Y0143714D01*
X0363505Y0143856D01*
X0363434Y0144000D01*
X0363366Y0144146D01*
X0363303Y0144294D01*
X0363242Y0144443D01*
X0363186Y0144594D01*
X0363133Y0144746D01*
X0363084Y0144899D01*
X0363039Y0145053D01*
X0362998Y0145208D01*
X0362960Y0145365D01*
X0362927Y0145522D01*
X0362897Y0145680D01*
X0362871Y0145839D01*
X0362850Y0145998D01*
X0362832Y0146158D01*
X0362818Y0146318D01*
X0362808Y0146479D01*
X0362802Y0146639D01*
X0362800Y0146800D01*
X0362800Y0041800D02*
X0362802Y0041961D01*
X0362808Y0042121D01*
X0362818Y0042282D01*
X0362832Y0042442D01*
X0362850Y0042602D01*
X0362871Y0042761D01*
X0362897Y0042920D01*
X0362927Y0043078D01*
X0362960Y0043235D01*
X0362998Y0043392D01*
X0363039Y0043547D01*
X0363084Y0043701D01*
X0363133Y0043854D01*
X0363186Y0044006D01*
X0363242Y0044157D01*
X0363303Y0044306D01*
X0363366Y0044454D01*
X0363434Y0044600D01*
X0363505Y0044744D01*
X0363579Y0044886D01*
X0363657Y0045027D01*
X0363739Y0045165D01*
X0363824Y0045302D01*
X0363912Y0045436D01*
X0364004Y0045568D01*
X0364099Y0045698D01*
X0364197Y0045826D01*
X0364298Y0045951D01*
X0364402Y0046073D01*
X0364509Y0046193D01*
X0364619Y0046310D01*
X0364732Y0046425D01*
X0364848Y0046536D01*
X0364967Y0046645D01*
X0365088Y0046750D01*
X0365212Y0046853D01*
X0365338Y0046953D01*
X0365466Y0047049D01*
X0365597Y0047142D01*
X0365731Y0047232D01*
X0365866Y0047319D01*
X0366004Y0047402D01*
X0366143Y0047482D01*
X0366285Y0047558D01*
X0366428Y0047631D01*
X0366573Y0047700D01*
X0366720Y0047766D01*
X0366868Y0047828D01*
X0367018Y0047886D01*
X0367169Y0047941D01*
X0367322Y0047992D01*
X0367476Y0048039D01*
X0367631Y0048082D01*
X0367787Y0048121D01*
X0367943Y0048157D01*
X0368101Y0048188D01*
X0368259Y0048216D01*
X0368418Y0048240D01*
X0368578Y0048260D01*
X0368738Y0048276D01*
X0368898Y0048288D01*
X0369059Y0048296D01*
X0369220Y0048300D01*
X0369380Y0048300D01*
X0369541Y0048296D01*
X0369702Y0048288D01*
X0369862Y0048276D01*
X0370022Y0048260D01*
X0370182Y0048240D01*
X0370341Y0048216D01*
X0370499Y0048188D01*
X0370657Y0048157D01*
X0370813Y0048121D01*
X0370969Y0048082D01*
X0371124Y0048039D01*
X0371278Y0047992D01*
X0371431Y0047941D01*
X0371582Y0047886D01*
X0371732Y0047828D01*
X0371880Y0047766D01*
X0372027Y0047700D01*
X0372172Y0047631D01*
X0372315Y0047558D01*
X0372457Y0047482D01*
X0372596Y0047402D01*
X0372734Y0047319D01*
X0372869Y0047232D01*
X0373003Y0047142D01*
X0373134Y0047049D01*
X0373262Y0046953D01*
X0373388Y0046853D01*
X0373512Y0046750D01*
X0373633Y0046645D01*
X0373752Y0046536D01*
X0373868Y0046425D01*
X0373981Y0046310D01*
X0374091Y0046193D01*
X0374198Y0046073D01*
X0374302Y0045951D01*
X0374403Y0045826D01*
X0374501Y0045698D01*
X0374596Y0045568D01*
X0374688Y0045436D01*
X0374776Y0045302D01*
X0374861Y0045165D01*
X0374943Y0045027D01*
X0375021Y0044886D01*
X0375095Y0044744D01*
X0375166Y0044600D01*
X0375234Y0044454D01*
X0375297Y0044306D01*
X0375358Y0044157D01*
X0375414Y0044006D01*
X0375467Y0043854D01*
X0375516Y0043701D01*
X0375561Y0043547D01*
X0375602Y0043392D01*
X0375640Y0043235D01*
X0375673Y0043078D01*
X0375703Y0042920D01*
X0375729Y0042761D01*
X0375750Y0042602D01*
X0375768Y0042442D01*
X0375782Y0042282D01*
X0375792Y0042121D01*
X0375798Y0041961D01*
X0375800Y0041800D01*
X0375798Y0041639D01*
X0375792Y0041479D01*
X0375782Y0041318D01*
X0375768Y0041158D01*
X0375750Y0040998D01*
X0375729Y0040839D01*
X0375703Y0040680D01*
X0375673Y0040522D01*
X0375640Y0040365D01*
X0375602Y0040208D01*
X0375561Y0040053D01*
X0375516Y0039899D01*
X0375467Y0039746D01*
X0375414Y0039594D01*
X0375358Y0039443D01*
X0375297Y0039294D01*
X0375234Y0039146D01*
X0375166Y0039000D01*
X0375095Y0038856D01*
X0375021Y0038714D01*
X0374943Y0038573D01*
X0374861Y0038435D01*
X0374776Y0038298D01*
X0374688Y0038164D01*
X0374596Y0038032D01*
X0374501Y0037902D01*
X0374403Y0037774D01*
X0374302Y0037649D01*
X0374198Y0037527D01*
X0374091Y0037407D01*
X0373981Y0037290D01*
X0373868Y0037175D01*
X0373752Y0037064D01*
X0373633Y0036955D01*
X0373512Y0036850D01*
X0373388Y0036747D01*
X0373262Y0036647D01*
X0373134Y0036551D01*
X0373003Y0036458D01*
X0372869Y0036368D01*
X0372734Y0036281D01*
X0372596Y0036198D01*
X0372457Y0036118D01*
X0372315Y0036042D01*
X0372172Y0035969D01*
X0372027Y0035900D01*
X0371880Y0035834D01*
X0371732Y0035772D01*
X0371582Y0035714D01*
X0371431Y0035659D01*
X0371278Y0035608D01*
X0371124Y0035561D01*
X0370969Y0035518D01*
X0370813Y0035479D01*
X0370657Y0035443D01*
X0370499Y0035412D01*
X0370341Y0035384D01*
X0370182Y0035360D01*
X0370022Y0035340D01*
X0369862Y0035324D01*
X0369702Y0035312D01*
X0369541Y0035304D01*
X0369380Y0035300D01*
X0369220Y0035300D01*
X0369059Y0035304D01*
X0368898Y0035312D01*
X0368738Y0035324D01*
X0368578Y0035340D01*
X0368418Y0035360D01*
X0368259Y0035384D01*
X0368101Y0035412D01*
X0367943Y0035443D01*
X0367787Y0035479D01*
X0367631Y0035518D01*
X0367476Y0035561D01*
X0367322Y0035608D01*
X0367169Y0035659D01*
X0367018Y0035714D01*
X0366868Y0035772D01*
X0366720Y0035834D01*
X0366573Y0035900D01*
X0366428Y0035969D01*
X0366285Y0036042D01*
X0366143Y0036118D01*
X0366004Y0036198D01*
X0365866Y0036281D01*
X0365731Y0036368D01*
X0365597Y0036458D01*
X0365466Y0036551D01*
X0365338Y0036647D01*
X0365212Y0036747D01*
X0365088Y0036850D01*
X0364967Y0036955D01*
X0364848Y0037064D01*
X0364732Y0037175D01*
X0364619Y0037290D01*
X0364509Y0037407D01*
X0364402Y0037527D01*
X0364298Y0037649D01*
X0364197Y0037774D01*
X0364099Y0037902D01*
X0364004Y0038032D01*
X0363912Y0038164D01*
X0363824Y0038298D01*
X0363739Y0038435D01*
X0363657Y0038573D01*
X0363579Y0038714D01*
X0363505Y0038856D01*
X0363434Y0039000D01*
X0363366Y0039146D01*
X0363303Y0039294D01*
X0363242Y0039443D01*
X0363186Y0039594D01*
X0363133Y0039746D01*
X0363084Y0039899D01*
X0363039Y0040053D01*
X0362998Y0040208D01*
X0362960Y0040365D01*
X0362927Y0040522D01*
X0362897Y0040680D01*
X0362871Y0040839D01*
X0362850Y0040998D01*
X0362832Y0041158D01*
X0362818Y0041318D01*
X0362808Y0041479D01*
X0362802Y0041639D01*
X0362800Y0041800D01*
D11*
X0341424Y0042250D02*
X0341424Y0047354D01*
X0338872Y0047354D01*
X0338021Y0046504D01*
X0338021Y0044802D01*
X0338872Y0043951D01*
X0341424Y0043951D01*
X0339723Y0043951D02*
X0338021Y0042250D01*
X0335899Y0042250D02*
X0332497Y0045653D01*
X0332497Y0046504D01*
X0333347Y0047354D01*
X0335049Y0047354D01*
X0335899Y0046504D01*
X0330375Y0047354D02*
X0330375Y0044802D01*
X0328673Y0045653D01*
X0327823Y0045653D01*
X0326972Y0044802D01*
X0326972Y0043101D01*
X0327823Y0042250D01*
X0329524Y0042250D01*
X0330375Y0043101D01*
X0332497Y0042250D02*
X0335899Y0042250D01*
X0330375Y0047354D02*
X0326972Y0047354D01*
X0300350Y0051250D02*
X0300350Y0056354D01*
X0297798Y0056354D01*
X0296947Y0055504D01*
X0296947Y0053802D01*
X0297798Y0052951D01*
X0300350Y0052951D01*
X0298649Y0052951D02*
X0296947Y0051250D01*
X0294825Y0051250D02*
X0291422Y0054653D01*
X0291422Y0055504D01*
X0292273Y0056354D01*
X0293975Y0056354D01*
X0294825Y0055504D01*
X0289301Y0056354D02*
X0285898Y0056354D01*
X0285898Y0055504D01*
X0289301Y0052101D01*
X0289301Y0051250D01*
X0291422Y0051250D02*
X0294825Y0051250D01*
X0271350Y0069750D02*
X0267947Y0069750D01*
X0265825Y0069750D02*
X0262422Y0069750D01*
X0260301Y0069750D02*
X0257748Y0069750D01*
X0256898Y0070601D01*
X0256898Y0074004D01*
X0257748Y0074854D01*
X0260301Y0074854D01*
X0260301Y0069750D01*
X0265825Y0069750D02*
X0265825Y0074854D01*
X0262422Y0074854D01*
X0264124Y0072302D02*
X0265825Y0072302D01*
X0271350Y0074854D02*
X0271350Y0069750D01*
X0254776Y0069750D02*
X0251373Y0069750D01*
X0253074Y0069750D02*
X0253074Y0074854D01*
X0254776Y0073153D01*
X0249251Y0074004D02*
X0249251Y0070601D01*
X0245848Y0074004D01*
X0245848Y0070601D01*
X0246699Y0069750D01*
X0248400Y0069750D01*
X0249251Y0070601D01*
X0243726Y0069750D02*
X0241174Y0069750D01*
X0240324Y0070601D01*
X0240324Y0071451D01*
X0241174Y0072302D01*
X0243726Y0072302D01*
X0241174Y0072302D02*
X0240324Y0073153D01*
X0240324Y0074004D01*
X0241174Y0074854D01*
X0243726Y0074854D01*
X0243726Y0069750D01*
X0245848Y0074004D02*
X0246699Y0074854D01*
X0248400Y0074854D01*
X0249251Y0074004D01*
X0248924Y0062354D02*
X0246372Y0062354D01*
X0245521Y0061504D01*
X0245521Y0059802D01*
X0246372Y0058951D01*
X0248924Y0058951D01*
X0248924Y0057250D02*
X0248924Y0062354D01*
X0247223Y0058951D02*
X0245521Y0057250D01*
X0243399Y0057250D02*
X0239997Y0057250D01*
X0241698Y0057250D02*
X0241698Y0062354D01*
X0243399Y0060653D01*
X0237875Y0060653D02*
X0237024Y0059802D01*
X0234472Y0059802D01*
X0234472Y0058101D02*
X0234472Y0061504D01*
X0235323Y0062354D01*
X0237024Y0062354D01*
X0237875Y0061504D01*
X0237875Y0060653D01*
X0237875Y0058101D02*
X0237024Y0057250D01*
X0235323Y0057250D01*
X0234472Y0058101D01*
X0241972Y0029854D02*
X0241972Y0029004D01*
X0245375Y0025601D01*
X0245375Y0024750D01*
X0247497Y0024750D02*
X0250899Y0024750D01*
X0249198Y0024750D02*
X0249198Y0029854D01*
X0250899Y0028153D01*
X0253021Y0029004D02*
X0253021Y0027302D01*
X0253872Y0026451D01*
X0256424Y0026451D01*
X0256424Y0024750D02*
X0256424Y0029854D01*
X0253872Y0029854D01*
X0253021Y0029004D01*
X0254723Y0026451D02*
X0253021Y0024750D01*
X0245375Y0029854D02*
X0241972Y0029854D01*
X0211350Y0027354D02*
X0211350Y0022250D01*
X0207947Y0022250D01*
X0205825Y0022250D02*
X0202422Y0022250D01*
X0200301Y0022250D02*
X0197748Y0022250D01*
X0196898Y0023101D01*
X0196898Y0026504D01*
X0197748Y0027354D01*
X0200301Y0027354D01*
X0200301Y0022250D01*
X0205825Y0022250D02*
X0205825Y0027354D01*
X0202422Y0027354D01*
X0204124Y0024802D02*
X0205825Y0024802D01*
X0194776Y0025653D02*
X0193925Y0024802D01*
X0191373Y0024802D01*
X0191373Y0023101D02*
X0191373Y0026504D01*
X0192224Y0027354D01*
X0193925Y0027354D01*
X0194776Y0026504D01*
X0194776Y0025653D01*
X0194776Y0023101D02*
X0193925Y0022250D01*
X0192224Y0022250D01*
X0191373Y0023101D01*
X0189251Y0022250D02*
X0186699Y0022250D01*
X0185848Y0023101D01*
X0185848Y0023951D01*
X0186699Y0024802D01*
X0189251Y0024802D01*
X0189251Y0022250D02*
X0189251Y0027354D01*
X0186699Y0027354D01*
X0185848Y0026504D01*
X0185848Y0025653D01*
X0186699Y0024802D01*
X0163850Y0022354D02*
X0163850Y0017250D01*
X0160447Y0017250D01*
X0158325Y0017250D02*
X0154922Y0017250D01*
X0152801Y0017250D02*
X0150248Y0017250D01*
X0149398Y0018101D01*
X0149398Y0021504D01*
X0150248Y0022354D01*
X0152801Y0022354D01*
X0152801Y0017250D01*
X0156624Y0019802D02*
X0158325Y0019802D01*
X0158325Y0022354D02*
X0158325Y0017250D01*
X0158325Y0022354D02*
X0154922Y0022354D01*
X0147276Y0022354D02*
X0147276Y0019802D01*
X0145574Y0020653D01*
X0144724Y0020653D01*
X0143873Y0019802D01*
X0143873Y0018101D01*
X0144724Y0017250D01*
X0146425Y0017250D01*
X0147276Y0018101D01*
X0141751Y0017250D02*
X0139199Y0017250D01*
X0138348Y0018101D01*
X0138348Y0018951D01*
X0139199Y0019802D01*
X0141751Y0019802D01*
X0141751Y0017250D02*
X0141751Y0022354D01*
X0139199Y0022354D01*
X0138348Y0021504D01*
X0138348Y0020653D01*
X0139199Y0019802D01*
X0143873Y0022354D02*
X0147276Y0022354D01*
X0145899Y0024750D02*
X0145899Y0029854D01*
X0143347Y0029854D01*
X0142497Y0029004D01*
X0142497Y0027302D01*
X0143347Y0026451D01*
X0145899Y0026451D01*
X0144198Y0026451D02*
X0142497Y0024750D01*
X0140375Y0025601D02*
X0139524Y0024750D01*
X0137823Y0024750D01*
X0136972Y0025601D01*
X0136972Y0029004D01*
X0137823Y0029854D01*
X0139524Y0029854D01*
X0140375Y0029004D01*
X0140375Y0028153D01*
X0139524Y0027302D01*
X0136972Y0027302D01*
X0063850Y0027354D02*
X0063850Y0022250D01*
X0060447Y0022250D01*
X0058325Y0022250D02*
X0054922Y0022250D01*
X0052801Y0022250D02*
X0050248Y0022250D01*
X0049398Y0023101D01*
X0049398Y0026504D01*
X0050248Y0027354D01*
X0052801Y0027354D01*
X0052801Y0022250D01*
X0047276Y0022250D02*
X0043873Y0022250D01*
X0045574Y0022250D02*
X0045574Y0027354D01*
X0047276Y0025653D01*
X0041751Y0024802D02*
X0039199Y0024802D01*
X0038348Y0023951D01*
X0038348Y0023101D01*
X0039199Y0022250D01*
X0041751Y0022250D01*
X0041751Y0027354D01*
X0039199Y0027354D01*
X0038348Y0026504D01*
X0038348Y0025653D01*
X0039199Y0024802D01*
X0054922Y0027354D02*
X0058325Y0027354D01*
X0058325Y0022250D01*
X0058325Y0024802D02*
X0056624Y0024802D01*
X0047850Y0043750D02*
X0047850Y0048854D01*
X0045298Y0048854D01*
X0044447Y0048004D01*
X0044447Y0046302D01*
X0045298Y0045451D01*
X0047850Y0045451D01*
X0046149Y0045451D02*
X0044447Y0043750D01*
X0042325Y0043750D02*
X0038922Y0043750D01*
X0040624Y0043750D02*
X0040624Y0048854D01*
X0042325Y0047153D01*
X0042024Y0059750D02*
X0040323Y0059750D01*
X0039472Y0060601D01*
X0039472Y0061451D01*
X0040323Y0062302D01*
X0041173Y0062302D01*
X0040323Y0062302D02*
X0039472Y0063153D01*
X0039472Y0064004D01*
X0040323Y0064854D01*
X0042024Y0064854D01*
X0042875Y0064004D01*
X0044997Y0064004D02*
X0044997Y0062302D01*
X0045847Y0061451D01*
X0048399Y0061451D01*
X0048399Y0059750D02*
X0048399Y0064854D01*
X0045847Y0064854D01*
X0044997Y0064004D01*
X0046698Y0061451D02*
X0044997Y0059750D01*
X0042875Y0060601D02*
X0042024Y0059750D01*
X0041751Y0072250D02*
X0039199Y0072250D01*
X0038348Y0073101D01*
X0038348Y0073951D01*
X0039199Y0074802D01*
X0041751Y0074802D01*
X0043873Y0075653D02*
X0043873Y0076504D01*
X0044724Y0077354D01*
X0046425Y0077354D01*
X0047276Y0076504D01*
X0049398Y0076504D02*
X0050248Y0077354D01*
X0052801Y0077354D01*
X0052801Y0072250D01*
X0050248Y0072250D01*
X0049398Y0073101D01*
X0049398Y0076504D01*
X0054922Y0077354D02*
X0058325Y0077354D01*
X0058325Y0072250D01*
X0054922Y0072250D01*
X0056624Y0074802D02*
X0058325Y0074802D01*
X0060447Y0072250D02*
X0063850Y0072250D01*
X0063850Y0077354D01*
X0047276Y0072250D02*
X0043873Y0075653D01*
X0041751Y0077354D02*
X0039199Y0077354D01*
X0038348Y0076504D01*
X0038348Y0075653D01*
X0039199Y0074802D01*
X0041751Y0072250D02*
X0041751Y0077354D01*
X0043873Y0072250D02*
X0047276Y0072250D01*
X0138348Y0073101D02*
X0139199Y0072250D01*
X0141751Y0072250D01*
X0141751Y0077354D01*
X0139199Y0077354D01*
X0138348Y0076504D01*
X0138348Y0075653D01*
X0139199Y0074802D01*
X0141751Y0074802D01*
X0143873Y0073951D02*
X0143873Y0073101D01*
X0144724Y0072250D01*
X0146425Y0072250D01*
X0147276Y0073101D01*
X0147276Y0074802D01*
X0144724Y0074802D01*
X0143873Y0073951D01*
X0145574Y0076504D02*
X0147276Y0074802D01*
X0145574Y0076504D02*
X0143873Y0077354D01*
X0139199Y0074802D02*
X0138348Y0073951D01*
X0138348Y0073101D01*
X0143673Y0067354D02*
X0143673Y0062250D01*
X0141972Y0062250D02*
X0145375Y0062250D01*
X0147497Y0062250D02*
X0150899Y0062250D01*
X0149198Y0062250D02*
X0149198Y0067354D01*
X0150899Y0065653D01*
X0153021Y0066504D02*
X0153021Y0064802D01*
X0153872Y0063951D01*
X0156424Y0063951D01*
X0156424Y0062250D02*
X0156424Y0067354D01*
X0153872Y0067354D01*
X0153021Y0066504D01*
X0154723Y0063951D02*
X0153021Y0062250D01*
X0145375Y0065653D02*
X0143673Y0067354D01*
X0149398Y0073101D02*
X0149398Y0076504D01*
X0150248Y0077354D01*
X0152801Y0077354D01*
X0152801Y0072250D01*
X0150248Y0072250D01*
X0149398Y0073101D01*
X0154922Y0072250D02*
X0158325Y0072250D01*
X0158325Y0077354D01*
X0154922Y0077354D01*
X0156624Y0074802D02*
X0158325Y0074802D01*
X0160447Y0072250D02*
X0163850Y0072250D01*
X0163850Y0077354D01*
X0163850Y0114750D02*
X0160447Y0114750D01*
X0158325Y0114750D02*
X0154922Y0114750D01*
X0152801Y0114750D02*
X0150248Y0114750D01*
X0149398Y0115601D01*
X0149398Y0119004D01*
X0150248Y0119854D01*
X0152801Y0119854D01*
X0152801Y0114750D01*
X0158325Y0114750D02*
X0158325Y0119854D01*
X0154922Y0119854D01*
X0156624Y0117302D02*
X0158325Y0117302D01*
X0163850Y0119854D02*
X0163850Y0114750D01*
X0147276Y0114750D02*
X0147276Y0115601D01*
X0143873Y0119004D01*
X0143873Y0119854D01*
X0147276Y0119854D01*
X0141751Y0119854D02*
X0139199Y0119854D01*
X0138348Y0119004D01*
X0138348Y0118153D01*
X0139199Y0117302D01*
X0141751Y0117302D01*
X0141751Y0114750D02*
X0141751Y0119854D01*
X0139199Y0117302D02*
X0138348Y0116451D01*
X0138348Y0115601D01*
X0139199Y0114750D01*
X0141751Y0114750D01*
X0142024Y0124750D02*
X0142875Y0125601D01*
X0142024Y0124750D02*
X0140323Y0124750D01*
X0139472Y0125601D01*
X0139472Y0126451D01*
X0140323Y0127302D01*
X0141173Y0127302D01*
X0140323Y0127302D02*
X0139472Y0128153D01*
X0139472Y0129004D01*
X0140323Y0129854D01*
X0142024Y0129854D01*
X0142875Y0129004D01*
X0146698Y0129854D02*
X0146698Y0124750D01*
X0148399Y0124750D02*
X0144997Y0124750D01*
X0148399Y0128153D02*
X0146698Y0129854D01*
X0150521Y0129004D02*
X0150521Y0127302D01*
X0151372Y0126451D01*
X0153924Y0126451D01*
X0153924Y0124750D02*
X0153924Y0129854D01*
X0151372Y0129854D01*
X0150521Y0129004D01*
X0152223Y0126451D02*
X0150521Y0124750D01*
X0214472Y0143101D02*
X0215323Y0142250D01*
X0217024Y0142250D01*
X0217875Y0143101D01*
X0219997Y0142250D02*
X0223399Y0142250D01*
X0219997Y0145653D01*
X0219997Y0146504D01*
X0220847Y0147354D01*
X0222549Y0147354D01*
X0223399Y0146504D01*
X0225521Y0146504D02*
X0225521Y0144802D01*
X0226372Y0143951D01*
X0228924Y0143951D01*
X0228924Y0142250D02*
X0228924Y0147354D01*
X0226372Y0147354D01*
X0225521Y0146504D01*
X0227223Y0143951D02*
X0225521Y0142250D01*
X0217875Y0146504D02*
X0217024Y0147354D01*
X0215323Y0147354D01*
X0214472Y0146504D01*
X0214472Y0145653D01*
X0215323Y0144802D01*
X0214472Y0143951D01*
X0214472Y0143101D01*
X0215323Y0144802D02*
X0216173Y0144802D01*
X0243750Y0149102D02*
X0243750Y0152505D01*
X0243750Y0154626D02*
X0243750Y0158029D01*
X0243750Y0160151D02*
X0243750Y0162703D01*
X0244601Y0163554D01*
X0248004Y0163554D01*
X0248854Y0162703D01*
X0248854Y0160151D01*
X0243750Y0160151D01*
X0248854Y0158029D02*
X0248854Y0154626D01*
X0243750Y0154626D01*
X0246302Y0154626D02*
X0246302Y0156328D01*
X0248854Y0149102D02*
X0243750Y0149102D01*
X0280972Y0164601D02*
X0281823Y0163750D01*
X0284375Y0163750D01*
X0284375Y0168854D01*
X0281823Y0168854D01*
X0280972Y0168004D01*
X0280972Y0167153D01*
X0281823Y0166302D01*
X0284375Y0166302D01*
X0286497Y0165451D02*
X0287347Y0166302D01*
X0289899Y0166302D01*
X0289899Y0164601D01*
X0289049Y0163750D01*
X0287347Y0163750D01*
X0286497Y0164601D01*
X0286497Y0165451D01*
X0288198Y0168004D02*
X0289899Y0166302D01*
X0288198Y0168004D02*
X0286497Y0168854D01*
X0281823Y0166302D02*
X0280972Y0165451D01*
X0280972Y0164601D01*
X0292021Y0163750D02*
X0295424Y0163750D01*
X0293723Y0163750D02*
X0293723Y0168854D01*
X0295424Y0167153D01*
X0297546Y0168004D02*
X0297546Y0164601D01*
X0298397Y0163750D01*
X0300949Y0163750D01*
X0300949Y0168854D01*
X0298397Y0168854D01*
X0297546Y0168004D01*
X0303071Y0168854D02*
X0306474Y0168854D01*
X0306474Y0163750D01*
X0303071Y0163750D01*
X0304772Y0166302D02*
X0306474Y0166302D01*
X0308595Y0163750D02*
X0311998Y0163750D01*
X0311998Y0168854D01*
X0336173Y0149854D02*
X0336173Y0144750D01*
X0334472Y0144750D02*
X0337875Y0144750D01*
X0339997Y0145601D02*
X0340847Y0144750D01*
X0342549Y0144750D01*
X0343399Y0145601D01*
X0345521Y0144750D02*
X0347223Y0146451D01*
X0346372Y0146451D02*
X0348924Y0146451D01*
X0348924Y0144750D02*
X0348924Y0149854D01*
X0346372Y0149854D01*
X0345521Y0149004D01*
X0345521Y0147302D01*
X0346372Y0146451D01*
X0343399Y0149004D02*
X0342549Y0149854D01*
X0340847Y0149854D01*
X0339997Y0149004D01*
X0339997Y0148153D01*
X0340847Y0147302D01*
X0339997Y0146451D01*
X0339997Y0145601D01*
X0340847Y0147302D02*
X0341698Y0147302D01*
X0337875Y0148153D02*
X0336173Y0149854D01*
X0313924Y0129854D02*
X0311372Y0129854D01*
X0310521Y0129004D01*
X0310521Y0127302D01*
X0311372Y0126451D01*
X0313924Y0126451D01*
X0313924Y0124750D02*
X0313924Y0129854D01*
X0308399Y0129004D02*
X0307549Y0129854D01*
X0305847Y0129854D01*
X0304997Y0129004D01*
X0304997Y0128153D01*
X0308399Y0124750D01*
X0304997Y0124750D01*
X0302875Y0125601D02*
X0302024Y0124750D01*
X0300323Y0124750D01*
X0299472Y0125601D01*
X0299472Y0129004D01*
X0300323Y0129854D01*
X0302024Y0129854D01*
X0302875Y0129004D01*
X0302875Y0128153D01*
X0302024Y0127302D01*
X0299472Y0127302D01*
X0310521Y0124750D02*
X0312223Y0126451D01*
X0308850Y0119854D02*
X0308850Y0114750D01*
X0305447Y0114750D01*
X0303325Y0114750D02*
X0299922Y0114750D01*
X0297801Y0114750D02*
X0295248Y0114750D01*
X0294398Y0115601D01*
X0294398Y0119004D01*
X0295248Y0119854D01*
X0297801Y0119854D01*
X0297801Y0114750D01*
X0303325Y0114750D02*
X0303325Y0119854D01*
X0299922Y0119854D01*
X0301624Y0117302D02*
X0303325Y0117302D01*
X0292276Y0118153D02*
X0290574Y0119854D01*
X0290574Y0114750D01*
X0288873Y0114750D02*
X0292276Y0114750D01*
X0286751Y0115601D02*
X0285900Y0114750D01*
X0284199Y0114750D01*
X0283348Y0115601D01*
X0283348Y0117302D01*
X0284199Y0118153D01*
X0285050Y0118153D01*
X0286751Y0117302D01*
X0286751Y0119854D01*
X0283348Y0119854D01*
X0281226Y0119854D02*
X0278674Y0119854D01*
X0277824Y0119004D01*
X0277824Y0118153D01*
X0278674Y0117302D01*
X0281226Y0117302D01*
X0278674Y0117302D02*
X0277824Y0116451D01*
X0277824Y0115601D01*
X0278674Y0114750D01*
X0281226Y0114750D01*
X0281226Y0119854D01*
X0268850Y0119854D02*
X0268850Y0114750D01*
X0265447Y0114750D01*
X0263325Y0114750D02*
X0259922Y0114750D01*
X0257801Y0114750D02*
X0255248Y0114750D01*
X0254398Y0115601D01*
X0254398Y0119004D01*
X0255248Y0119854D01*
X0257801Y0119854D01*
X0257801Y0114750D01*
X0263325Y0114750D02*
X0263325Y0119854D01*
X0259922Y0119854D01*
X0261624Y0117302D02*
X0263325Y0117302D01*
X0252276Y0118153D02*
X0250574Y0119854D01*
X0250574Y0114750D01*
X0248873Y0114750D02*
X0252276Y0114750D01*
X0246751Y0114750D02*
X0243348Y0114750D01*
X0245050Y0114750D02*
X0245050Y0119854D01*
X0246751Y0118153D01*
X0241226Y0117302D02*
X0238674Y0117302D01*
X0237824Y0116451D01*
X0237824Y0115601D01*
X0238674Y0114750D01*
X0241226Y0114750D01*
X0241226Y0119854D01*
X0238674Y0119854D01*
X0237824Y0119004D01*
X0237824Y0118153D01*
X0238674Y0117302D01*
X0238673Y0124750D02*
X0238673Y0129854D01*
X0240375Y0128153D01*
X0242497Y0128153D02*
X0245899Y0124750D01*
X0242497Y0124750D01*
X0240375Y0124750D02*
X0236972Y0124750D01*
X0242497Y0128153D02*
X0242497Y0129004D01*
X0243347Y0129854D01*
X0245049Y0129854D01*
X0245899Y0129004D01*
X0248021Y0129004D02*
X0248021Y0127302D01*
X0248872Y0126451D01*
X0251424Y0126451D01*
X0251424Y0124750D02*
X0251424Y0129854D01*
X0248872Y0129854D01*
X0248021Y0129004D01*
X0249723Y0126451D02*
X0248021Y0124750D01*
X0247153Y0165676D02*
X0248854Y0167377D01*
X0243750Y0167377D01*
X0243750Y0165676D02*
X0243750Y0169079D01*
X0243750Y0171201D02*
X0247153Y0174603D01*
X0248004Y0174603D01*
X0248854Y0173753D01*
X0248854Y0172051D01*
X0248004Y0171201D01*
X0243750Y0171201D02*
X0243750Y0174603D01*
X0243750Y0176725D02*
X0243750Y0179277D01*
X0244601Y0180128D01*
X0245451Y0180128D01*
X0246302Y0179277D01*
X0246302Y0176725D01*
X0243750Y0176725D02*
X0248854Y0176725D01*
X0248854Y0179277D01*
X0248004Y0180128D01*
X0247153Y0180128D01*
X0246302Y0179277D01*
X0163850Y0177354D02*
X0163850Y0172250D01*
X0160447Y0172250D01*
X0158325Y0172250D02*
X0154922Y0172250D01*
X0152801Y0172250D02*
X0150248Y0172250D01*
X0149398Y0173101D01*
X0149398Y0176504D01*
X0150248Y0177354D01*
X0152801Y0177354D01*
X0152801Y0172250D01*
X0156624Y0174802D02*
X0158325Y0174802D01*
X0158325Y0177354D02*
X0158325Y0172250D01*
X0158325Y0177354D02*
X0154922Y0177354D01*
X0147276Y0176504D02*
X0147276Y0175653D01*
X0146425Y0174802D01*
X0144724Y0174802D01*
X0143873Y0173951D01*
X0143873Y0173101D01*
X0144724Y0172250D01*
X0146425Y0172250D01*
X0147276Y0173101D01*
X0147276Y0173951D01*
X0146425Y0174802D01*
X0144724Y0174802D02*
X0143873Y0175653D01*
X0143873Y0176504D01*
X0144724Y0177354D01*
X0146425Y0177354D01*
X0147276Y0176504D01*
X0141751Y0177354D02*
X0139199Y0177354D01*
X0138348Y0176504D01*
X0138348Y0175653D01*
X0139199Y0174802D01*
X0141751Y0174802D01*
X0141751Y0172250D02*
X0139199Y0172250D01*
X0138348Y0173101D01*
X0138348Y0173951D01*
X0139199Y0174802D01*
X0141751Y0172250D02*
X0141751Y0177354D01*
X0140375Y0167354D02*
X0136972Y0167354D01*
X0137823Y0165653D02*
X0136972Y0164802D01*
X0136972Y0163101D01*
X0137823Y0162250D01*
X0139524Y0162250D01*
X0140375Y0163101D01*
X0140375Y0164802D02*
X0138673Y0165653D01*
X0137823Y0165653D01*
X0140375Y0164802D02*
X0140375Y0167354D01*
X0144198Y0167354D02*
X0145899Y0165653D01*
X0148021Y0166504D02*
X0148021Y0164802D01*
X0148872Y0163951D01*
X0151424Y0163951D01*
X0151424Y0162250D02*
X0151424Y0167354D01*
X0148872Y0167354D01*
X0148021Y0166504D01*
X0144198Y0167354D02*
X0144198Y0162250D01*
X0145899Y0162250D02*
X0142497Y0162250D01*
X0148021Y0162250D02*
X0149723Y0163951D01*
X0061350Y0162250D02*
X0057947Y0162250D01*
X0055825Y0162250D02*
X0052422Y0162250D01*
X0050301Y0162250D02*
X0047748Y0162250D01*
X0046898Y0163101D01*
X0046898Y0166504D01*
X0047748Y0167354D01*
X0050301Y0167354D01*
X0050301Y0162250D01*
X0055825Y0162250D02*
X0055825Y0167354D01*
X0052422Y0167354D01*
X0054124Y0164802D02*
X0055825Y0164802D01*
X0061350Y0167354D02*
X0061350Y0162250D01*
X0044776Y0164802D02*
X0041373Y0164802D01*
X0039251Y0164802D02*
X0036699Y0164802D01*
X0035848Y0163951D01*
X0035848Y0163101D01*
X0036699Y0162250D01*
X0039251Y0162250D01*
X0039251Y0167354D01*
X0036699Y0167354D01*
X0035848Y0166504D01*
X0035848Y0165653D01*
X0036699Y0164802D01*
X0042224Y0162250D02*
X0042224Y0167354D01*
X0044776Y0164802D01*
X0035350Y0148854D02*
X0032798Y0148854D01*
X0031947Y0148004D01*
X0031947Y0146302D01*
X0032798Y0145451D01*
X0035350Y0145451D01*
X0035350Y0143750D02*
X0035350Y0148854D01*
X0029825Y0148854D02*
X0026422Y0148854D01*
X0026422Y0148004D01*
X0029825Y0144601D01*
X0029825Y0143750D01*
X0031947Y0143750D02*
X0033649Y0145451D01*
X0038922Y0128854D02*
X0042325Y0128854D01*
X0042325Y0126302D01*
X0040624Y0127153D01*
X0039773Y0127153D01*
X0038922Y0126302D01*
X0038922Y0124601D01*
X0039773Y0123750D01*
X0041475Y0123750D01*
X0042325Y0124601D01*
X0044447Y0123750D02*
X0046149Y0125451D01*
X0045298Y0125451D02*
X0047850Y0125451D01*
X0047850Y0123750D02*
X0047850Y0128854D01*
X0045298Y0128854D01*
X0044447Y0128004D01*
X0044447Y0126302D01*
X0045298Y0125451D01*
X0044724Y0119854D02*
X0043873Y0119004D01*
X0043873Y0118153D01*
X0044724Y0117302D01*
X0043873Y0116451D01*
X0043873Y0115601D01*
X0044724Y0114750D01*
X0046425Y0114750D01*
X0047276Y0115601D01*
X0049398Y0115601D02*
X0050248Y0114750D01*
X0052801Y0114750D01*
X0052801Y0119854D01*
X0050248Y0119854D01*
X0049398Y0119004D01*
X0049398Y0115601D01*
X0047276Y0119004D02*
X0046425Y0119854D01*
X0044724Y0119854D01*
X0044724Y0117302D02*
X0045574Y0117302D01*
X0041751Y0117302D02*
X0039199Y0117302D01*
X0038348Y0116451D01*
X0038348Y0115601D01*
X0039199Y0114750D01*
X0041751Y0114750D01*
X0041751Y0119854D01*
X0039199Y0119854D01*
X0038348Y0119004D01*
X0038348Y0118153D01*
X0039199Y0117302D01*
X0054922Y0114750D02*
X0058325Y0114750D01*
X0058325Y0119854D01*
X0054922Y0119854D01*
X0056624Y0117302D02*
X0058325Y0117302D01*
X0063850Y0119854D02*
X0063850Y0114750D01*
X0060447Y0114750D01*
X0280972Y0025504D02*
X0280972Y0024653D01*
X0281823Y0023802D01*
X0284375Y0023802D01*
X0286497Y0022951D02*
X0286497Y0022101D01*
X0287347Y0021250D01*
X0289049Y0021250D01*
X0289899Y0022101D01*
X0292021Y0021250D02*
X0295424Y0021250D01*
X0293723Y0021250D02*
X0293723Y0026354D01*
X0295424Y0024653D01*
X0297546Y0025504D02*
X0298397Y0026354D01*
X0300949Y0026354D01*
X0300949Y0021250D01*
X0298397Y0021250D01*
X0297546Y0022101D01*
X0297546Y0025504D01*
X0303071Y0026354D02*
X0306474Y0026354D01*
X0306474Y0021250D01*
X0303071Y0021250D01*
X0304772Y0023802D02*
X0306474Y0023802D01*
X0308595Y0021250D02*
X0311998Y0021250D01*
X0311998Y0026354D01*
X0289899Y0025504D02*
X0289049Y0026354D01*
X0287347Y0026354D01*
X0286497Y0025504D01*
X0286497Y0024653D01*
X0287347Y0023802D01*
X0286497Y0022951D01*
X0287347Y0023802D02*
X0288198Y0023802D01*
X0284375Y0021250D02*
X0281823Y0021250D01*
X0280972Y0022101D01*
X0280972Y0022951D01*
X0281823Y0023802D01*
X0280972Y0025504D02*
X0281823Y0026354D01*
X0284375Y0026354D01*
X0284375Y0021250D01*
X0380972Y0018004D02*
X0380972Y0017153D01*
X0381823Y0016302D01*
X0384375Y0016302D01*
X0384375Y0013750D02*
X0381823Y0013750D01*
X0380972Y0014601D01*
X0380972Y0015451D01*
X0381823Y0016302D01*
X0380972Y0018004D02*
X0381823Y0018854D01*
X0384375Y0018854D01*
X0384375Y0013750D01*
X0386497Y0018004D02*
X0389899Y0014601D01*
X0389899Y0013750D01*
X0392021Y0013750D02*
X0395424Y0013750D01*
X0393723Y0013750D02*
X0393723Y0018854D01*
X0395424Y0017153D01*
X0397546Y0018004D02*
X0398397Y0018854D01*
X0400949Y0018854D01*
X0400949Y0013750D01*
X0398397Y0013750D01*
X0397546Y0014601D01*
X0397546Y0018004D01*
X0403071Y0018854D02*
X0406474Y0018854D01*
X0406474Y0013750D01*
X0403071Y0013750D01*
X0404772Y0016302D02*
X0406474Y0016302D01*
X0408595Y0013750D02*
X0411998Y0013750D01*
X0411998Y0018854D01*
X0389899Y0018854D02*
X0386497Y0018854D01*
X0386497Y0018004D01*
X0414248Y0046250D02*
X0415950Y0046250D01*
X0416801Y0047101D01*
X0418922Y0047101D02*
X0418922Y0047951D01*
X0419773Y0048802D01*
X0420624Y0048802D01*
X0419773Y0048802D02*
X0418922Y0049653D01*
X0418922Y0050504D01*
X0419773Y0051354D01*
X0421475Y0051354D01*
X0422325Y0050504D01*
X0424447Y0050504D02*
X0424447Y0048802D01*
X0425298Y0047951D01*
X0427850Y0047951D01*
X0427850Y0046250D02*
X0427850Y0051354D01*
X0425298Y0051354D01*
X0424447Y0050504D01*
X0426149Y0047951D02*
X0424447Y0046250D01*
X0422325Y0047101D02*
X0421475Y0046250D01*
X0419773Y0046250D01*
X0418922Y0047101D01*
X0415099Y0048802D02*
X0414248Y0048802D01*
X0413398Y0047951D01*
X0413398Y0047101D01*
X0414248Y0046250D01*
X0414248Y0048802D02*
X0413398Y0049653D01*
X0413398Y0050504D01*
X0414248Y0051354D01*
X0415950Y0051354D01*
X0416801Y0050504D01*
X0394854Y0054676D02*
X0394854Y0057228D01*
X0394004Y0058079D01*
X0392302Y0058079D01*
X0391451Y0057228D01*
X0391451Y0054676D01*
X0389750Y0054676D02*
X0394854Y0054676D01*
X0391451Y0056377D02*
X0389750Y0058079D01*
X0390601Y0060201D02*
X0389750Y0061051D01*
X0389750Y0062753D01*
X0390601Y0063603D01*
X0391451Y0063603D01*
X0392302Y0062753D01*
X0392302Y0061902D01*
X0392302Y0062753D02*
X0393153Y0063603D01*
X0394004Y0063603D01*
X0394854Y0062753D01*
X0394854Y0061051D01*
X0394004Y0060201D01*
X0394854Y0065725D02*
X0392302Y0065725D01*
X0393153Y0067427D01*
X0393153Y0068277D01*
X0392302Y0069128D01*
X0390601Y0069128D01*
X0389750Y0068277D01*
X0389750Y0066576D01*
X0390601Y0065725D01*
X0394854Y0065725D02*
X0394854Y0069128D01*
X0368850Y0072250D02*
X0365447Y0072250D01*
X0363325Y0072250D02*
X0359922Y0072250D01*
X0357801Y0072250D02*
X0355248Y0072250D01*
X0354398Y0073101D01*
X0354398Y0076504D01*
X0355248Y0077354D01*
X0357801Y0077354D01*
X0357801Y0072250D01*
X0361624Y0074802D02*
X0363325Y0074802D01*
X0363325Y0077354D02*
X0363325Y0072250D01*
X0363325Y0077354D02*
X0359922Y0077354D01*
X0352276Y0075653D02*
X0350574Y0077354D01*
X0350574Y0072250D01*
X0348873Y0072250D02*
X0352276Y0072250D01*
X0346751Y0074802D02*
X0343348Y0074802D01*
X0341226Y0074802D02*
X0338674Y0074802D01*
X0337824Y0073951D01*
X0337824Y0073101D01*
X0338674Y0072250D01*
X0341226Y0072250D01*
X0341226Y0077354D01*
X0338674Y0077354D01*
X0337824Y0076504D01*
X0337824Y0075653D01*
X0338674Y0074802D01*
X0344199Y0072250D02*
X0344199Y0077354D01*
X0346751Y0074802D01*
X0368850Y0077354D02*
X0368850Y0072250D01*
X0400324Y0083101D02*
X0401174Y0082250D01*
X0403726Y0082250D01*
X0403726Y0087354D01*
X0401174Y0087354D01*
X0400324Y0086504D01*
X0400324Y0085653D01*
X0401174Y0084802D01*
X0403726Y0084802D01*
X0405848Y0083951D02*
X0405848Y0083101D01*
X0406699Y0082250D01*
X0408400Y0082250D01*
X0409251Y0083101D01*
X0409251Y0083951D01*
X0408400Y0084802D01*
X0406699Y0084802D01*
X0405848Y0083951D01*
X0406699Y0084802D02*
X0405848Y0085653D01*
X0405848Y0086504D01*
X0406699Y0087354D01*
X0408400Y0087354D01*
X0409251Y0086504D01*
X0409251Y0085653D01*
X0408400Y0084802D01*
X0411373Y0082250D02*
X0414776Y0082250D01*
X0413074Y0082250D02*
X0413074Y0087354D01*
X0414776Y0085653D01*
X0416898Y0086504D02*
X0417748Y0087354D01*
X0420301Y0087354D01*
X0420301Y0082250D01*
X0417748Y0082250D01*
X0416898Y0083101D01*
X0416898Y0086504D01*
X0422422Y0087354D02*
X0425825Y0087354D01*
X0425825Y0082250D01*
X0422422Y0082250D01*
X0424124Y0084802D02*
X0425825Y0084802D01*
X0427947Y0082250D02*
X0431350Y0082250D01*
X0431350Y0087354D01*
X0401174Y0084802D02*
X0400324Y0083951D01*
X0400324Y0083101D01*
X0400301Y0112250D02*
X0397748Y0112250D01*
X0396898Y0113101D01*
X0396898Y0116504D01*
X0397748Y0117354D01*
X0400301Y0117354D01*
X0400301Y0112250D01*
X0402422Y0112250D02*
X0405825Y0112250D01*
X0405825Y0117354D01*
X0402422Y0117354D01*
X0394776Y0115653D02*
X0393074Y0117354D01*
X0393074Y0112250D01*
X0391373Y0112250D02*
X0394776Y0112250D01*
X0389251Y0113101D02*
X0388400Y0112250D01*
X0386699Y0112250D01*
X0385848Y0113101D01*
X0385848Y0116504D01*
X0386699Y0117354D01*
X0388400Y0117354D01*
X0389251Y0116504D01*
X0389251Y0115653D01*
X0388400Y0114802D01*
X0385848Y0114802D01*
X0383726Y0114802D02*
X0381174Y0114802D01*
X0380324Y0113951D01*
X0380324Y0113101D01*
X0381174Y0112250D01*
X0383726Y0112250D01*
X0383726Y0117354D01*
X0381174Y0117354D01*
X0380324Y0116504D01*
X0380324Y0115653D01*
X0381174Y0114802D01*
X0396972Y0126504D02*
X0400375Y0123101D01*
X0400375Y0122250D01*
X0402497Y0123101D02*
X0403347Y0122250D01*
X0405049Y0122250D01*
X0405899Y0123101D01*
X0408021Y0122250D02*
X0409723Y0123951D01*
X0408872Y0123951D02*
X0411424Y0123951D01*
X0411424Y0122250D02*
X0411424Y0127354D01*
X0408872Y0127354D01*
X0408021Y0126504D01*
X0408021Y0124802D01*
X0408872Y0123951D01*
X0405899Y0126504D02*
X0405049Y0127354D01*
X0403347Y0127354D01*
X0402497Y0126504D01*
X0402497Y0125653D01*
X0403347Y0124802D01*
X0402497Y0123951D01*
X0402497Y0123101D01*
X0403347Y0124802D02*
X0404198Y0124802D01*
X0400375Y0127354D02*
X0396972Y0127354D01*
X0396972Y0126504D01*
X0411350Y0117354D02*
X0411350Y0112250D01*
X0407947Y0112250D01*
X0405825Y0114802D02*
X0404124Y0114802D01*
X0409323Y0153750D02*
X0411875Y0153750D01*
X0411875Y0158854D01*
X0409323Y0158854D01*
X0408472Y0158004D01*
X0408472Y0157153D01*
X0409323Y0156302D01*
X0411875Y0156302D01*
X0409323Y0156302D02*
X0408472Y0155451D01*
X0408472Y0154601D01*
X0409323Y0153750D01*
X0413997Y0154601D02*
X0414847Y0153750D01*
X0416549Y0153750D01*
X0417399Y0154601D01*
X0413997Y0158004D01*
X0413997Y0154601D01*
X0417399Y0154601D02*
X0417399Y0158004D01*
X0416549Y0158854D01*
X0414847Y0158854D01*
X0413997Y0158004D01*
X0419521Y0158004D02*
X0420372Y0158854D01*
X0422073Y0158854D01*
X0422924Y0158004D01*
X0425046Y0158004D02*
X0425897Y0158854D01*
X0428449Y0158854D01*
X0428449Y0153750D01*
X0425897Y0153750D01*
X0425046Y0154601D01*
X0425046Y0158004D01*
X0422924Y0153750D02*
X0419521Y0157153D01*
X0419521Y0158004D01*
X0419521Y0153750D02*
X0422924Y0153750D01*
X0430571Y0153750D02*
X0433974Y0153750D01*
X0433974Y0158854D01*
X0430571Y0158854D01*
X0432272Y0156302D02*
X0433974Y0156302D01*
X0436095Y0153750D02*
X0439498Y0153750D01*
X0439498Y0158854D01*
X0393854Y0158302D02*
X0393854Y0155750D01*
X0388750Y0155750D01*
X0390451Y0155750D02*
X0390451Y0158302D01*
X0391302Y0159153D01*
X0393004Y0159153D01*
X0393854Y0158302D01*
X0390451Y0157451D02*
X0388750Y0159153D01*
X0389601Y0161275D02*
X0388750Y0162125D01*
X0388750Y0163827D01*
X0389601Y0164678D01*
X0390451Y0164678D01*
X0391302Y0163827D01*
X0391302Y0162976D01*
X0391302Y0163827D02*
X0392153Y0164678D01*
X0393004Y0164678D01*
X0393854Y0163827D01*
X0393854Y0162125D01*
X0393004Y0161275D01*
X0393004Y0166799D02*
X0392153Y0166799D01*
X0391302Y0167650D01*
X0391302Y0170202D01*
X0389601Y0170202D02*
X0393004Y0170202D01*
X0393854Y0169352D01*
X0393854Y0167650D01*
X0393004Y0166799D01*
X0389601Y0166799D02*
X0388750Y0167650D01*
X0388750Y0169352D01*
X0389601Y0170202D01*
D12*
X0423985Y0165698D02*
X0423985Y0177902D01*
X0423985Y0175048D01*
X0424674Y0175737D01*
X0424674Y0177902D01*
X0423985Y0177902D01*
X0423985Y0177543D02*
X0424674Y0177543D01*
X0424674Y0177145D02*
X0423985Y0177145D01*
X0423985Y0176746D02*
X0424674Y0176746D01*
X0424674Y0176348D02*
X0423985Y0176348D01*
X0423985Y0175949D02*
X0424674Y0175949D01*
X0424488Y0175551D02*
X0423985Y0175551D01*
X0423985Y0175152D02*
X0424089Y0175152D01*
X0433040Y0174359D02*
X0433113Y0174248D01*
X0433182Y0174135D01*
X0433249Y0174021D01*
X0433312Y0173904D01*
X0433371Y0173786D01*
X0433427Y0173665D01*
X0433480Y0173544D01*
X0433529Y0173421D01*
X0433574Y0173296D01*
X0433616Y0173170D01*
X0433654Y0173043D01*
X0433688Y0172915D01*
X0433719Y0172786D01*
X0433746Y0172656D01*
X0433769Y0172526D01*
X0433788Y0172395D01*
X0433803Y0172263D01*
X0433815Y0172131D01*
X0433823Y0171999D01*
X0433827Y0171866D01*
X0433827Y0171734D01*
X0433823Y0171601D01*
X0433815Y0171469D01*
X0433803Y0171337D01*
X0433788Y0171205D01*
X0433769Y0171074D01*
X0433746Y0170944D01*
X0433719Y0170814D01*
X0433688Y0170685D01*
X0433654Y0170557D01*
X0433616Y0170430D01*
X0433574Y0170304D01*
X0433529Y0170179D01*
X0433480Y0170056D01*
X0433427Y0169935D01*
X0433371Y0169814D01*
X0433312Y0169696D01*
X0433249Y0169579D01*
X0433182Y0169465D01*
X0433113Y0169352D01*
X0433040Y0169241D01*
X0425560Y0169241D02*
X0425487Y0169352D01*
X0425418Y0169465D01*
X0425351Y0169579D01*
X0425288Y0169696D01*
X0425229Y0169814D01*
X0425173Y0169935D01*
X0425120Y0170056D01*
X0425071Y0170179D01*
X0425026Y0170304D01*
X0424984Y0170430D01*
X0424946Y0170557D01*
X0424912Y0170685D01*
X0424881Y0170814D01*
X0424854Y0170944D01*
X0424831Y0171074D01*
X0424812Y0171205D01*
X0424797Y0171337D01*
X0424785Y0171469D01*
X0424777Y0171601D01*
X0424773Y0171734D01*
X0424773Y0171866D01*
X0424777Y0171999D01*
X0424785Y0172131D01*
X0424797Y0172263D01*
X0424812Y0172395D01*
X0424831Y0172526D01*
X0424854Y0172656D01*
X0424881Y0172786D01*
X0424912Y0172915D01*
X0424946Y0173043D01*
X0424984Y0173170D01*
X0425026Y0173296D01*
X0425071Y0173421D01*
X0425120Y0173544D01*
X0425173Y0173665D01*
X0425229Y0173786D01*
X0425288Y0173904D01*
X0425351Y0174021D01*
X0425418Y0174135D01*
X0425487Y0174248D01*
X0425560Y0174359D01*
X0434615Y0177902D02*
X0434615Y0165698D01*
X0434615Y0127902D02*
X0434615Y0115698D01*
X0423985Y0115698D02*
X0423985Y0127902D01*
X0423985Y0125048D01*
X0424674Y0125737D01*
X0424674Y0127902D01*
X0423985Y0127902D01*
X0423985Y0127730D02*
X0424674Y0127730D01*
X0424674Y0127331D02*
X0423985Y0127331D01*
X0423985Y0126933D02*
X0424674Y0126933D01*
X0424674Y0126534D02*
X0423985Y0126534D01*
X0423985Y0126136D02*
X0424674Y0126136D01*
X0424674Y0125737D02*
X0423985Y0125737D01*
X0423985Y0125339D02*
X0424276Y0125339D01*
X0433040Y0124359D02*
X0433113Y0124248D01*
X0433182Y0124135D01*
X0433249Y0124021D01*
X0433312Y0123904D01*
X0433371Y0123786D01*
X0433427Y0123665D01*
X0433480Y0123544D01*
X0433529Y0123421D01*
X0433574Y0123296D01*
X0433616Y0123170D01*
X0433654Y0123043D01*
X0433688Y0122915D01*
X0433719Y0122786D01*
X0433746Y0122656D01*
X0433769Y0122526D01*
X0433788Y0122395D01*
X0433803Y0122263D01*
X0433815Y0122131D01*
X0433823Y0121999D01*
X0433827Y0121866D01*
X0433827Y0121734D01*
X0433823Y0121601D01*
X0433815Y0121469D01*
X0433803Y0121337D01*
X0433788Y0121205D01*
X0433769Y0121074D01*
X0433746Y0120944D01*
X0433719Y0120814D01*
X0433688Y0120685D01*
X0433654Y0120557D01*
X0433616Y0120430D01*
X0433574Y0120304D01*
X0433529Y0120179D01*
X0433480Y0120056D01*
X0433427Y0119935D01*
X0433371Y0119814D01*
X0433312Y0119696D01*
X0433249Y0119579D01*
X0433182Y0119465D01*
X0433113Y0119352D01*
X0433040Y0119241D01*
X0425560Y0119241D02*
X0425487Y0119352D01*
X0425418Y0119465D01*
X0425351Y0119579D01*
X0425288Y0119696D01*
X0425229Y0119814D01*
X0425173Y0119935D01*
X0425120Y0120056D01*
X0425071Y0120179D01*
X0425026Y0120304D01*
X0424984Y0120430D01*
X0424946Y0120557D01*
X0424912Y0120685D01*
X0424881Y0120814D01*
X0424854Y0120944D01*
X0424831Y0121074D01*
X0424812Y0121205D01*
X0424797Y0121337D01*
X0424785Y0121469D01*
X0424777Y0121601D01*
X0424773Y0121734D01*
X0424773Y0121866D01*
X0424777Y0121999D01*
X0424785Y0122131D01*
X0424797Y0122263D01*
X0424812Y0122395D01*
X0424831Y0122526D01*
X0424854Y0122656D01*
X0424881Y0122786D01*
X0424912Y0122915D01*
X0424946Y0123043D01*
X0424984Y0123170D01*
X0425026Y0123296D01*
X0425071Y0123421D01*
X0425120Y0123544D01*
X0425173Y0123665D01*
X0425229Y0123786D01*
X0425288Y0123904D01*
X0425351Y0124021D01*
X0425418Y0124135D01*
X0425487Y0124248D01*
X0425560Y0124359D01*
X0334615Y0127902D02*
X0334615Y0115698D01*
X0323985Y0115698D02*
X0323985Y0127902D01*
X0323985Y0125048D01*
X0324674Y0125737D01*
X0324674Y0127902D01*
X0323985Y0127902D01*
X0323985Y0127730D02*
X0324674Y0127730D01*
X0324674Y0127331D02*
X0323985Y0127331D01*
X0323985Y0126933D02*
X0324674Y0126933D01*
X0324674Y0126534D02*
X0323985Y0126534D01*
X0323985Y0126136D02*
X0324674Y0126136D01*
X0324674Y0125737D02*
X0323985Y0125737D01*
X0323985Y0125339D02*
X0324276Y0125339D01*
X0333040Y0124359D02*
X0333113Y0124248D01*
X0333182Y0124135D01*
X0333249Y0124021D01*
X0333312Y0123904D01*
X0333371Y0123786D01*
X0333427Y0123665D01*
X0333480Y0123544D01*
X0333529Y0123421D01*
X0333574Y0123296D01*
X0333616Y0123170D01*
X0333654Y0123043D01*
X0333688Y0122915D01*
X0333719Y0122786D01*
X0333746Y0122656D01*
X0333769Y0122526D01*
X0333788Y0122395D01*
X0333803Y0122263D01*
X0333815Y0122131D01*
X0333823Y0121999D01*
X0333827Y0121866D01*
X0333827Y0121734D01*
X0333823Y0121601D01*
X0333815Y0121469D01*
X0333803Y0121337D01*
X0333788Y0121205D01*
X0333769Y0121074D01*
X0333746Y0120944D01*
X0333719Y0120814D01*
X0333688Y0120685D01*
X0333654Y0120557D01*
X0333616Y0120430D01*
X0333574Y0120304D01*
X0333529Y0120179D01*
X0333480Y0120056D01*
X0333427Y0119935D01*
X0333371Y0119814D01*
X0333312Y0119696D01*
X0333249Y0119579D01*
X0333182Y0119465D01*
X0333113Y0119352D01*
X0333040Y0119241D01*
X0325560Y0119241D02*
X0325487Y0119352D01*
X0325418Y0119465D01*
X0325351Y0119579D01*
X0325288Y0119696D01*
X0325229Y0119814D01*
X0325173Y0119935D01*
X0325120Y0120056D01*
X0325071Y0120179D01*
X0325026Y0120304D01*
X0324984Y0120430D01*
X0324946Y0120557D01*
X0324912Y0120685D01*
X0324881Y0120814D01*
X0324854Y0120944D01*
X0324831Y0121074D01*
X0324812Y0121205D01*
X0324797Y0121337D01*
X0324785Y0121469D01*
X0324777Y0121601D01*
X0324773Y0121734D01*
X0324773Y0121866D01*
X0324777Y0121999D01*
X0324785Y0122131D01*
X0324797Y0122263D01*
X0324812Y0122395D01*
X0324831Y0122526D01*
X0324854Y0122656D01*
X0324881Y0122786D01*
X0324912Y0122915D01*
X0324946Y0123043D01*
X0324984Y0123170D01*
X0325026Y0123296D01*
X0325071Y0123421D01*
X0325120Y0123544D01*
X0325173Y0123665D01*
X0325229Y0123786D01*
X0325288Y0123904D01*
X0325351Y0124021D01*
X0325418Y0124135D01*
X0325487Y0124248D01*
X0325560Y0124359D01*
X0234615Y0127902D02*
X0234615Y0115698D01*
X0225560Y0119241D02*
X0225487Y0119352D01*
X0225418Y0119465D01*
X0225351Y0119579D01*
X0225288Y0119696D01*
X0225229Y0119814D01*
X0225173Y0119935D01*
X0225120Y0120056D01*
X0225071Y0120179D01*
X0225026Y0120304D01*
X0224984Y0120430D01*
X0224946Y0120557D01*
X0224912Y0120685D01*
X0224881Y0120814D01*
X0224854Y0120944D01*
X0224831Y0121074D01*
X0224812Y0121205D01*
X0224797Y0121337D01*
X0224785Y0121469D01*
X0224777Y0121601D01*
X0224773Y0121734D01*
X0224773Y0121866D01*
X0224777Y0121999D01*
X0224785Y0122131D01*
X0224797Y0122263D01*
X0224812Y0122395D01*
X0224831Y0122526D01*
X0224854Y0122656D01*
X0224881Y0122786D01*
X0224912Y0122915D01*
X0224946Y0123043D01*
X0224984Y0123170D01*
X0225026Y0123296D01*
X0225071Y0123421D01*
X0225120Y0123544D01*
X0225173Y0123665D01*
X0225229Y0123786D01*
X0225288Y0123904D01*
X0225351Y0124021D01*
X0225418Y0124135D01*
X0225487Y0124248D01*
X0225560Y0124359D01*
X0224276Y0125339D02*
X0223985Y0125339D01*
X0223985Y0125048D02*
X0223985Y0127902D01*
X0224674Y0127902D01*
X0224674Y0125737D01*
X0223985Y0125048D01*
X0223985Y0125737D02*
X0224674Y0125737D01*
X0224674Y0126136D02*
X0223985Y0126136D01*
X0223985Y0126534D02*
X0224674Y0126534D01*
X0224674Y0126933D02*
X0223985Y0126933D01*
X0223985Y0127331D02*
X0224674Y0127331D01*
X0224674Y0127730D02*
X0223985Y0127730D01*
X0223985Y0127902D02*
X0223985Y0115698D01*
X0233040Y0119241D02*
X0233113Y0119352D01*
X0233182Y0119465D01*
X0233249Y0119579D01*
X0233312Y0119696D01*
X0233371Y0119814D01*
X0233427Y0119935D01*
X0233480Y0120056D01*
X0233529Y0120179D01*
X0233574Y0120304D01*
X0233616Y0120430D01*
X0233654Y0120557D01*
X0233688Y0120685D01*
X0233719Y0120814D01*
X0233746Y0120944D01*
X0233769Y0121074D01*
X0233788Y0121205D01*
X0233803Y0121337D01*
X0233815Y0121469D01*
X0233823Y0121601D01*
X0233827Y0121734D01*
X0233827Y0121866D01*
X0233823Y0121999D01*
X0233815Y0122131D01*
X0233803Y0122263D01*
X0233788Y0122395D01*
X0233769Y0122526D01*
X0233746Y0122656D01*
X0233719Y0122786D01*
X0233688Y0122915D01*
X0233654Y0123043D01*
X0233616Y0123170D01*
X0233574Y0123296D01*
X0233529Y0123421D01*
X0233480Y0123544D01*
X0233427Y0123665D01*
X0233371Y0123786D01*
X0233312Y0123904D01*
X0233249Y0124021D01*
X0233182Y0124135D01*
X0233113Y0124248D01*
X0233040Y0124359D01*
X0134615Y0127902D02*
X0134615Y0115698D01*
X0125560Y0119241D02*
X0125487Y0119352D01*
X0125418Y0119465D01*
X0125351Y0119579D01*
X0125288Y0119696D01*
X0125229Y0119814D01*
X0125173Y0119935D01*
X0125120Y0120056D01*
X0125071Y0120179D01*
X0125026Y0120304D01*
X0124984Y0120430D01*
X0124946Y0120557D01*
X0124912Y0120685D01*
X0124881Y0120814D01*
X0124854Y0120944D01*
X0124831Y0121074D01*
X0124812Y0121205D01*
X0124797Y0121337D01*
X0124785Y0121469D01*
X0124777Y0121601D01*
X0124773Y0121734D01*
X0124773Y0121866D01*
X0124777Y0121999D01*
X0124785Y0122131D01*
X0124797Y0122263D01*
X0124812Y0122395D01*
X0124831Y0122526D01*
X0124854Y0122656D01*
X0124881Y0122786D01*
X0124912Y0122915D01*
X0124946Y0123043D01*
X0124984Y0123170D01*
X0125026Y0123296D01*
X0125071Y0123421D01*
X0125120Y0123544D01*
X0125173Y0123665D01*
X0125229Y0123786D01*
X0125288Y0123904D01*
X0125351Y0124021D01*
X0125418Y0124135D01*
X0125487Y0124248D01*
X0125560Y0124359D01*
X0124276Y0125339D02*
X0123985Y0125339D01*
X0123985Y0125048D02*
X0123985Y0127902D01*
X0124674Y0127902D01*
X0124674Y0125737D01*
X0123985Y0125048D01*
X0123985Y0125737D02*
X0124674Y0125737D01*
X0124674Y0126136D02*
X0123985Y0126136D01*
X0123985Y0126534D02*
X0124674Y0126534D01*
X0124674Y0126933D02*
X0123985Y0126933D01*
X0123985Y0127331D02*
X0124674Y0127331D01*
X0124674Y0127730D02*
X0123985Y0127730D01*
X0123985Y0127902D02*
X0123985Y0115698D01*
X0133040Y0119241D02*
X0133113Y0119352D01*
X0133182Y0119465D01*
X0133249Y0119579D01*
X0133312Y0119696D01*
X0133371Y0119814D01*
X0133427Y0119935D01*
X0133480Y0120056D01*
X0133529Y0120179D01*
X0133574Y0120304D01*
X0133616Y0120430D01*
X0133654Y0120557D01*
X0133688Y0120685D01*
X0133719Y0120814D01*
X0133746Y0120944D01*
X0133769Y0121074D01*
X0133788Y0121205D01*
X0133803Y0121337D01*
X0133815Y0121469D01*
X0133823Y0121601D01*
X0133827Y0121734D01*
X0133827Y0121866D01*
X0133823Y0121999D01*
X0133815Y0122131D01*
X0133803Y0122263D01*
X0133788Y0122395D01*
X0133769Y0122526D01*
X0133746Y0122656D01*
X0133719Y0122786D01*
X0133688Y0122915D01*
X0133654Y0123043D01*
X0133616Y0123170D01*
X0133574Y0123296D01*
X0133529Y0123421D01*
X0133480Y0123544D01*
X0133427Y0123665D01*
X0133371Y0123786D01*
X0133312Y0123904D01*
X0133249Y0124021D01*
X0133182Y0124135D01*
X0133113Y0124248D01*
X0133040Y0124359D01*
X0134615Y0165698D02*
X0134615Y0177902D01*
X0124674Y0177902D02*
X0124674Y0175737D01*
X0123985Y0175048D01*
X0123985Y0177902D01*
X0124674Y0177902D01*
X0124674Y0177543D02*
X0123985Y0177543D01*
X0123985Y0177902D02*
X0123985Y0165698D01*
X0133040Y0169241D02*
X0133113Y0169352D01*
X0133182Y0169465D01*
X0133249Y0169579D01*
X0133312Y0169696D01*
X0133371Y0169814D01*
X0133427Y0169935D01*
X0133480Y0170056D01*
X0133529Y0170179D01*
X0133574Y0170304D01*
X0133616Y0170430D01*
X0133654Y0170557D01*
X0133688Y0170685D01*
X0133719Y0170814D01*
X0133746Y0170944D01*
X0133769Y0171074D01*
X0133788Y0171205D01*
X0133803Y0171337D01*
X0133815Y0171469D01*
X0133823Y0171601D01*
X0133827Y0171734D01*
X0133827Y0171866D01*
X0133823Y0171999D01*
X0133815Y0172131D01*
X0133803Y0172263D01*
X0133788Y0172395D01*
X0133769Y0172526D01*
X0133746Y0172656D01*
X0133719Y0172786D01*
X0133688Y0172915D01*
X0133654Y0173043D01*
X0133616Y0173170D01*
X0133574Y0173296D01*
X0133529Y0173421D01*
X0133480Y0173544D01*
X0133427Y0173665D01*
X0133371Y0173786D01*
X0133312Y0173904D01*
X0133249Y0174021D01*
X0133182Y0174135D01*
X0133113Y0174248D01*
X0133040Y0174359D01*
X0125560Y0174359D02*
X0125487Y0174248D01*
X0125418Y0174135D01*
X0125351Y0174021D01*
X0125288Y0173904D01*
X0125229Y0173786D01*
X0125173Y0173665D01*
X0125120Y0173544D01*
X0125071Y0173421D01*
X0125026Y0173296D01*
X0124984Y0173170D01*
X0124946Y0173043D01*
X0124912Y0172915D01*
X0124881Y0172786D01*
X0124854Y0172656D01*
X0124831Y0172526D01*
X0124812Y0172395D01*
X0124797Y0172263D01*
X0124785Y0172131D01*
X0124777Y0171999D01*
X0124773Y0171866D01*
X0124773Y0171734D01*
X0124777Y0171601D01*
X0124785Y0171469D01*
X0124797Y0171337D01*
X0124812Y0171205D01*
X0124831Y0171074D01*
X0124854Y0170944D01*
X0124881Y0170814D01*
X0124912Y0170685D01*
X0124946Y0170557D01*
X0124984Y0170430D01*
X0125026Y0170304D01*
X0125071Y0170179D01*
X0125120Y0170056D01*
X0125173Y0169935D01*
X0125229Y0169814D01*
X0125288Y0169696D01*
X0125351Y0169579D01*
X0125418Y0169465D01*
X0125487Y0169352D01*
X0125560Y0169241D01*
X0124089Y0175152D02*
X0123985Y0175152D01*
X0123985Y0175551D02*
X0124488Y0175551D01*
X0124674Y0175949D02*
X0123985Y0175949D01*
X0123985Y0176348D02*
X0124674Y0176348D01*
X0124674Y0176746D02*
X0123985Y0176746D01*
X0123985Y0177145D02*
X0124674Y0177145D01*
X0034615Y0177902D02*
X0034615Y0165698D01*
X0023985Y0165698D02*
X0023985Y0177902D01*
X0023985Y0175048D01*
X0024674Y0175737D01*
X0024674Y0177902D01*
X0023985Y0177902D01*
X0023985Y0177543D02*
X0024674Y0177543D01*
X0024674Y0177145D02*
X0023985Y0177145D01*
X0023985Y0176746D02*
X0024674Y0176746D01*
X0024674Y0176348D02*
X0023985Y0176348D01*
X0023985Y0175949D02*
X0024674Y0175949D01*
X0024488Y0175551D02*
X0023985Y0175551D01*
X0023985Y0175152D02*
X0024089Y0175152D01*
X0033040Y0174359D02*
X0033113Y0174248D01*
X0033182Y0174135D01*
X0033249Y0174021D01*
X0033312Y0173904D01*
X0033371Y0173786D01*
X0033427Y0173665D01*
X0033480Y0173544D01*
X0033529Y0173421D01*
X0033574Y0173296D01*
X0033616Y0173170D01*
X0033654Y0173043D01*
X0033688Y0172915D01*
X0033719Y0172786D01*
X0033746Y0172656D01*
X0033769Y0172526D01*
X0033788Y0172395D01*
X0033803Y0172263D01*
X0033815Y0172131D01*
X0033823Y0171999D01*
X0033827Y0171866D01*
X0033827Y0171734D01*
X0033823Y0171601D01*
X0033815Y0171469D01*
X0033803Y0171337D01*
X0033788Y0171205D01*
X0033769Y0171074D01*
X0033746Y0170944D01*
X0033719Y0170814D01*
X0033688Y0170685D01*
X0033654Y0170557D01*
X0033616Y0170430D01*
X0033574Y0170304D01*
X0033529Y0170179D01*
X0033480Y0170056D01*
X0033427Y0169935D01*
X0033371Y0169814D01*
X0033312Y0169696D01*
X0033249Y0169579D01*
X0033182Y0169465D01*
X0033113Y0169352D01*
X0033040Y0169241D01*
X0025560Y0169241D02*
X0025487Y0169352D01*
X0025418Y0169465D01*
X0025351Y0169579D01*
X0025288Y0169696D01*
X0025229Y0169814D01*
X0025173Y0169935D01*
X0025120Y0170056D01*
X0025071Y0170179D01*
X0025026Y0170304D01*
X0024984Y0170430D01*
X0024946Y0170557D01*
X0024912Y0170685D01*
X0024881Y0170814D01*
X0024854Y0170944D01*
X0024831Y0171074D01*
X0024812Y0171205D01*
X0024797Y0171337D01*
X0024785Y0171469D01*
X0024777Y0171601D01*
X0024773Y0171734D01*
X0024773Y0171866D01*
X0024777Y0171999D01*
X0024785Y0172131D01*
X0024797Y0172263D01*
X0024812Y0172395D01*
X0024831Y0172526D01*
X0024854Y0172656D01*
X0024881Y0172786D01*
X0024912Y0172915D01*
X0024946Y0173043D01*
X0024984Y0173170D01*
X0025026Y0173296D01*
X0025071Y0173421D01*
X0025120Y0173544D01*
X0025173Y0173665D01*
X0025229Y0173786D01*
X0025288Y0173904D01*
X0025351Y0174021D01*
X0025418Y0174135D01*
X0025487Y0174248D01*
X0025560Y0174359D01*
X0024674Y0127902D02*
X0024674Y0125737D01*
X0023985Y0125048D01*
X0023985Y0127902D01*
X0024674Y0127902D01*
X0024674Y0127730D02*
X0023985Y0127730D01*
X0023985Y0127902D02*
X0023985Y0115698D01*
X0034615Y0115698D02*
X0034615Y0127902D01*
X0024674Y0127331D02*
X0023985Y0127331D01*
X0023985Y0126933D02*
X0024674Y0126933D01*
X0024674Y0126534D02*
X0023985Y0126534D01*
X0023985Y0126136D02*
X0024674Y0126136D01*
X0024674Y0125737D02*
X0023985Y0125737D01*
X0023985Y0125339D02*
X0024276Y0125339D01*
X0033040Y0124359D02*
X0033113Y0124248D01*
X0033182Y0124135D01*
X0033249Y0124021D01*
X0033312Y0123904D01*
X0033371Y0123786D01*
X0033427Y0123665D01*
X0033480Y0123544D01*
X0033529Y0123421D01*
X0033574Y0123296D01*
X0033616Y0123170D01*
X0033654Y0123043D01*
X0033688Y0122915D01*
X0033719Y0122786D01*
X0033746Y0122656D01*
X0033769Y0122526D01*
X0033788Y0122395D01*
X0033803Y0122263D01*
X0033815Y0122131D01*
X0033823Y0121999D01*
X0033827Y0121866D01*
X0033827Y0121734D01*
X0033823Y0121601D01*
X0033815Y0121469D01*
X0033803Y0121337D01*
X0033788Y0121205D01*
X0033769Y0121074D01*
X0033746Y0120944D01*
X0033719Y0120814D01*
X0033688Y0120685D01*
X0033654Y0120557D01*
X0033616Y0120430D01*
X0033574Y0120304D01*
X0033529Y0120179D01*
X0033480Y0120056D01*
X0033427Y0119935D01*
X0033371Y0119814D01*
X0033312Y0119696D01*
X0033249Y0119579D01*
X0033182Y0119465D01*
X0033113Y0119352D01*
X0033040Y0119241D01*
X0025560Y0119241D02*
X0025487Y0119352D01*
X0025418Y0119465D01*
X0025351Y0119579D01*
X0025288Y0119696D01*
X0025229Y0119814D01*
X0025173Y0119935D01*
X0025120Y0120056D01*
X0025071Y0120179D01*
X0025026Y0120304D01*
X0024984Y0120430D01*
X0024946Y0120557D01*
X0024912Y0120685D01*
X0024881Y0120814D01*
X0024854Y0120944D01*
X0024831Y0121074D01*
X0024812Y0121205D01*
X0024797Y0121337D01*
X0024785Y0121469D01*
X0024777Y0121601D01*
X0024773Y0121734D01*
X0024773Y0121866D01*
X0024777Y0121999D01*
X0024785Y0122131D01*
X0024797Y0122263D01*
X0024812Y0122395D01*
X0024831Y0122526D01*
X0024854Y0122656D01*
X0024881Y0122786D01*
X0024912Y0122915D01*
X0024946Y0123043D01*
X0024984Y0123170D01*
X0025026Y0123296D01*
X0025071Y0123421D01*
X0025120Y0123544D01*
X0025173Y0123665D01*
X0025229Y0123786D01*
X0025288Y0123904D01*
X0025351Y0124021D01*
X0025418Y0124135D01*
X0025487Y0124248D01*
X0025560Y0124359D01*
X0024674Y0077902D02*
X0024674Y0075737D01*
X0023985Y0075048D01*
X0023985Y0077902D01*
X0024674Y0077902D01*
X0024674Y0077517D02*
X0023985Y0077517D01*
X0023985Y0077902D02*
X0023985Y0065698D01*
X0034615Y0065698D02*
X0034615Y0077902D01*
X0024674Y0077119D02*
X0023985Y0077119D01*
X0023985Y0076720D02*
X0024674Y0076720D01*
X0024674Y0076322D02*
X0023985Y0076322D01*
X0023985Y0075923D02*
X0024674Y0075923D01*
X0024462Y0075525D02*
X0023985Y0075525D01*
X0023985Y0075126D02*
X0024063Y0075126D01*
X0033040Y0074359D02*
X0033113Y0074248D01*
X0033182Y0074135D01*
X0033249Y0074021D01*
X0033312Y0073904D01*
X0033371Y0073786D01*
X0033427Y0073665D01*
X0033480Y0073544D01*
X0033529Y0073421D01*
X0033574Y0073296D01*
X0033616Y0073170D01*
X0033654Y0073043D01*
X0033688Y0072915D01*
X0033719Y0072786D01*
X0033746Y0072656D01*
X0033769Y0072526D01*
X0033788Y0072395D01*
X0033803Y0072263D01*
X0033815Y0072131D01*
X0033823Y0071999D01*
X0033827Y0071866D01*
X0033827Y0071734D01*
X0033823Y0071601D01*
X0033815Y0071469D01*
X0033803Y0071337D01*
X0033788Y0071205D01*
X0033769Y0071074D01*
X0033746Y0070944D01*
X0033719Y0070814D01*
X0033688Y0070685D01*
X0033654Y0070557D01*
X0033616Y0070430D01*
X0033574Y0070304D01*
X0033529Y0070179D01*
X0033480Y0070056D01*
X0033427Y0069935D01*
X0033371Y0069814D01*
X0033312Y0069696D01*
X0033249Y0069579D01*
X0033182Y0069465D01*
X0033113Y0069352D01*
X0033040Y0069241D01*
X0025560Y0069241D02*
X0025487Y0069352D01*
X0025418Y0069465D01*
X0025351Y0069579D01*
X0025288Y0069696D01*
X0025229Y0069814D01*
X0025173Y0069935D01*
X0025120Y0070056D01*
X0025071Y0070179D01*
X0025026Y0070304D01*
X0024984Y0070430D01*
X0024946Y0070557D01*
X0024912Y0070685D01*
X0024881Y0070814D01*
X0024854Y0070944D01*
X0024831Y0071074D01*
X0024812Y0071205D01*
X0024797Y0071337D01*
X0024785Y0071469D01*
X0024777Y0071601D01*
X0024773Y0071734D01*
X0024773Y0071866D01*
X0024777Y0071999D01*
X0024785Y0072131D01*
X0024797Y0072263D01*
X0024812Y0072395D01*
X0024831Y0072526D01*
X0024854Y0072656D01*
X0024881Y0072786D01*
X0024912Y0072915D01*
X0024946Y0073043D01*
X0024984Y0073170D01*
X0025026Y0073296D01*
X0025071Y0073421D01*
X0025120Y0073544D01*
X0025173Y0073665D01*
X0025229Y0073786D01*
X0025288Y0073904D01*
X0025351Y0074021D01*
X0025418Y0074135D01*
X0025487Y0074248D01*
X0025560Y0074359D01*
X0123985Y0075048D02*
X0123985Y0077902D01*
X0124674Y0077902D01*
X0124674Y0075737D01*
X0123985Y0075048D01*
X0123985Y0075126D02*
X0124063Y0075126D01*
X0123985Y0075525D02*
X0124462Y0075525D01*
X0124674Y0075923D02*
X0123985Y0075923D01*
X0123985Y0076322D02*
X0124674Y0076322D01*
X0124674Y0076720D02*
X0123985Y0076720D01*
X0123985Y0077119D02*
X0124674Y0077119D01*
X0124674Y0077517D02*
X0123985Y0077517D01*
X0123985Y0077902D02*
X0123985Y0065698D01*
X0133040Y0069241D02*
X0133113Y0069352D01*
X0133182Y0069465D01*
X0133249Y0069579D01*
X0133312Y0069696D01*
X0133371Y0069814D01*
X0133427Y0069935D01*
X0133480Y0070056D01*
X0133529Y0070179D01*
X0133574Y0070304D01*
X0133616Y0070430D01*
X0133654Y0070557D01*
X0133688Y0070685D01*
X0133719Y0070814D01*
X0133746Y0070944D01*
X0133769Y0071074D01*
X0133788Y0071205D01*
X0133803Y0071337D01*
X0133815Y0071469D01*
X0133823Y0071601D01*
X0133827Y0071734D01*
X0133827Y0071866D01*
X0133823Y0071999D01*
X0133815Y0072131D01*
X0133803Y0072263D01*
X0133788Y0072395D01*
X0133769Y0072526D01*
X0133746Y0072656D01*
X0133719Y0072786D01*
X0133688Y0072915D01*
X0133654Y0073043D01*
X0133616Y0073170D01*
X0133574Y0073296D01*
X0133529Y0073421D01*
X0133480Y0073544D01*
X0133427Y0073665D01*
X0133371Y0073786D01*
X0133312Y0073904D01*
X0133249Y0074021D01*
X0133182Y0074135D01*
X0133113Y0074248D01*
X0133040Y0074359D01*
X0134615Y0077902D02*
X0134615Y0065698D01*
X0125560Y0069241D02*
X0125487Y0069352D01*
X0125418Y0069465D01*
X0125351Y0069579D01*
X0125288Y0069696D01*
X0125229Y0069814D01*
X0125173Y0069935D01*
X0125120Y0070056D01*
X0125071Y0070179D01*
X0125026Y0070304D01*
X0124984Y0070430D01*
X0124946Y0070557D01*
X0124912Y0070685D01*
X0124881Y0070814D01*
X0124854Y0070944D01*
X0124831Y0071074D01*
X0124812Y0071205D01*
X0124797Y0071337D01*
X0124785Y0071469D01*
X0124777Y0071601D01*
X0124773Y0071734D01*
X0124773Y0071866D01*
X0124777Y0071999D01*
X0124785Y0072131D01*
X0124797Y0072263D01*
X0124812Y0072395D01*
X0124831Y0072526D01*
X0124854Y0072656D01*
X0124881Y0072786D01*
X0124912Y0072915D01*
X0124946Y0073043D01*
X0124984Y0073170D01*
X0125026Y0073296D01*
X0125071Y0073421D01*
X0125120Y0073544D01*
X0125173Y0073665D01*
X0125229Y0073786D01*
X0125288Y0073904D01*
X0125351Y0074021D01*
X0125418Y0074135D01*
X0125487Y0074248D01*
X0125560Y0074359D01*
X0223985Y0075048D02*
X0223985Y0077902D01*
X0224674Y0077902D01*
X0224674Y0075737D01*
X0223985Y0075048D01*
X0223985Y0075126D02*
X0224063Y0075126D01*
X0223985Y0075525D02*
X0224462Y0075525D01*
X0224674Y0075923D02*
X0223985Y0075923D01*
X0223985Y0076322D02*
X0224674Y0076322D01*
X0224674Y0076720D02*
X0223985Y0076720D01*
X0223985Y0077119D02*
X0224674Y0077119D01*
X0224674Y0077517D02*
X0223985Y0077517D01*
X0223985Y0077902D02*
X0223985Y0065698D01*
X0233040Y0069241D02*
X0233113Y0069352D01*
X0233182Y0069465D01*
X0233249Y0069579D01*
X0233312Y0069696D01*
X0233371Y0069814D01*
X0233427Y0069935D01*
X0233480Y0070056D01*
X0233529Y0070179D01*
X0233574Y0070304D01*
X0233616Y0070430D01*
X0233654Y0070557D01*
X0233688Y0070685D01*
X0233719Y0070814D01*
X0233746Y0070944D01*
X0233769Y0071074D01*
X0233788Y0071205D01*
X0233803Y0071337D01*
X0233815Y0071469D01*
X0233823Y0071601D01*
X0233827Y0071734D01*
X0233827Y0071866D01*
X0233823Y0071999D01*
X0233815Y0072131D01*
X0233803Y0072263D01*
X0233788Y0072395D01*
X0233769Y0072526D01*
X0233746Y0072656D01*
X0233719Y0072786D01*
X0233688Y0072915D01*
X0233654Y0073043D01*
X0233616Y0073170D01*
X0233574Y0073296D01*
X0233529Y0073421D01*
X0233480Y0073544D01*
X0233427Y0073665D01*
X0233371Y0073786D01*
X0233312Y0073904D01*
X0233249Y0074021D01*
X0233182Y0074135D01*
X0233113Y0074248D01*
X0233040Y0074359D01*
X0234615Y0077902D02*
X0234615Y0065698D01*
X0225560Y0069241D02*
X0225487Y0069352D01*
X0225418Y0069465D01*
X0225351Y0069579D01*
X0225288Y0069696D01*
X0225229Y0069814D01*
X0225173Y0069935D01*
X0225120Y0070056D01*
X0225071Y0070179D01*
X0225026Y0070304D01*
X0224984Y0070430D01*
X0224946Y0070557D01*
X0224912Y0070685D01*
X0224881Y0070814D01*
X0224854Y0070944D01*
X0224831Y0071074D01*
X0224812Y0071205D01*
X0224797Y0071337D01*
X0224785Y0071469D01*
X0224777Y0071601D01*
X0224773Y0071734D01*
X0224773Y0071866D01*
X0224777Y0071999D01*
X0224785Y0072131D01*
X0224797Y0072263D01*
X0224812Y0072395D01*
X0224831Y0072526D01*
X0224854Y0072656D01*
X0224881Y0072786D01*
X0224912Y0072915D01*
X0224946Y0073043D01*
X0224984Y0073170D01*
X0225026Y0073296D01*
X0225071Y0073421D01*
X0225120Y0073544D01*
X0225173Y0073665D01*
X0225229Y0073786D01*
X0225288Y0073904D01*
X0225351Y0074021D01*
X0225418Y0074135D01*
X0225487Y0074248D01*
X0225560Y0074359D01*
X0323985Y0075048D02*
X0323985Y0077902D01*
X0324674Y0077902D01*
X0324674Y0075737D01*
X0323985Y0075048D01*
X0323985Y0075126D02*
X0324063Y0075126D01*
X0323985Y0075525D02*
X0324462Y0075525D01*
X0324674Y0075923D02*
X0323985Y0075923D01*
X0323985Y0076322D02*
X0324674Y0076322D01*
X0324674Y0076720D02*
X0323985Y0076720D01*
X0323985Y0077119D02*
X0324674Y0077119D01*
X0324674Y0077517D02*
X0323985Y0077517D01*
X0323985Y0077902D02*
X0323985Y0065698D01*
X0334615Y0065698D02*
X0334615Y0077902D01*
X0325560Y0074359D02*
X0325487Y0074248D01*
X0325418Y0074135D01*
X0325351Y0074021D01*
X0325288Y0073904D01*
X0325229Y0073786D01*
X0325173Y0073665D01*
X0325120Y0073544D01*
X0325071Y0073421D01*
X0325026Y0073296D01*
X0324984Y0073170D01*
X0324946Y0073043D01*
X0324912Y0072915D01*
X0324881Y0072786D01*
X0324854Y0072656D01*
X0324831Y0072526D01*
X0324812Y0072395D01*
X0324797Y0072263D01*
X0324785Y0072131D01*
X0324777Y0071999D01*
X0324773Y0071866D01*
X0324773Y0071734D01*
X0324777Y0071601D01*
X0324785Y0071469D01*
X0324797Y0071337D01*
X0324812Y0071205D01*
X0324831Y0071074D01*
X0324854Y0070944D01*
X0324881Y0070814D01*
X0324912Y0070685D01*
X0324946Y0070557D01*
X0324984Y0070430D01*
X0325026Y0070304D01*
X0325071Y0070179D01*
X0325120Y0070056D01*
X0325173Y0069935D01*
X0325229Y0069814D01*
X0325288Y0069696D01*
X0325351Y0069579D01*
X0325418Y0069465D01*
X0325487Y0069352D01*
X0325560Y0069241D01*
X0333040Y0069241D02*
X0333113Y0069352D01*
X0333182Y0069465D01*
X0333249Y0069579D01*
X0333312Y0069696D01*
X0333371Y0069814D01*
X0333427Y0069935D01*
X0333480Y0070056D01*
X0333529Y0070179D01*
X0333574Y0070304D01*
X0333616Y0070430D01*
X0333654Y0070557D01*
X0333688Y0070685D01*
X0333719Y0070814D01*
X0333746Y0070944D01*
X0333769Y0071074D01*
X0333788Y0071205D01*
X0333803Y0071337D01*
X0333815Y0071469D01*
X0333823Y0071601D01*
X0333827Y0071734D01*
X0333827Y0071866D01*
X0333823Y0071999D01*
X0333815Y0072131D01*
X0333803Y0072263D01*
X0333788Y0072395D01*
X0333769Y0072526D01*
X0333746Y0072656D01*
X0333719Y0072786D01*
X0333688Y0072915D01*
X0333654Y0073043D01*
X0333616Y0073170D01*
X0333574Y0073296D01*
X0333529Y0073421D01*
X0333480Y0073544D01*
X0333427Y0073665D01*
X0333371Y0073786D01*
X0333312Y0073904D01*
X0333249Y0074021D01*
X0333182Y0074135D01*
X0333113Y0074248D01*
X0333040Y0074359D01*
X0423985Y0075048D02*
X0423985Y0077902D01*
X0424674Y0077902D01*
X0424674Y0075737D01*
X0423985Y0075048D01*
X0423985Y0075126D02*
X0424063Y0075126D01*
X0423985Y0075525D02*
X0424462Y0075525D01*
X0424674Y0075923D02*
X0423985Y0075923D01*
X0423985Y0076322D02*
X0424674Y0076322D01*
X0424674Y0076720D02*
X0423985Y0076720D01*
X0423985Y0077119D02*
X0424674Y0077119D01*
X0424674Y0077517D02*
X0423985Y0077517D01*
X0423985Y0077902D02*
X0423985Y0065698D01*
X0434615Y0065698D02*
X0434615Y0077902D01*
X0425560Y0074359D02*
X0425487Y0074248D01*
X0425418Y0074135D01*
X0425351Y0074021D01*
X0425288Y0073904D01*
X0425229Y0073786D01*
X0425173Y0073665D01*
X0425120Y0073544D01*
X0425071Y0073421D01*
X0425026Y0073296D01*
X0424984Y0073170D01*
X0424946Y0073043D01*
X0424912Y0072915D01*
X0424881Y0072786D01*
X0424854Y0072656D01*
X0424831Y0072526D01*
X0424812Y0072395D01*
X0424797Y0072263D01*
X0424785Y0072131D01*
X0424777Y0071999D01*
X0424773Y0071866D01*
X0424773Y0071734D01*
X0424777Y0071601D01*
X0424785Y0071469D01*
X0424797Y0071337D01*
X0424812Y0071205D01*
X0424831Y0071074D01*
X0424854Y0070944D01*
X0424881Y0070814D01*
X0424912Y0070685D01*
X0424946Y0070557D01*
X0424984Y0070430D01*
X0425026Y0070304D01*
X0425071Y0070179D01*
X0425120Y0070056D01*
X0425173Y0069935D01*
X0425229Y0069814D01*
X0425288Y0069696D01*
X0425351Y0069579D01*
X0425418Y0069465D01*
X0425487Y0069352D01*
X0425560Y0069241D01*
X0433040Y0069241D02*
X0433113Y0069352D01*
X0433182Y0069465D01*
X0433249Y0069579D01*
X0433312Y0069696D01*
X0433371Y0069814D01*
X0433427Y0069935D01*
X0433480Y0070056D01*
X0433529Y0070179D01*
X0433574Y0070304D01*
X0433616Y0070430D01*
X0433654Y0070557D01*
X0433688Y0070685D01*
X0433719Y0070814D01*
X0433746Y0070944D01*
X0433769Y0071074D01*
X0433788Y0071205D01*
X0433803Y0071337D01*
X0433815Y0071469D01*
X0433823Y0071601D01*
X0433827Y0071734D01*
X0433827Y0071866D01*
X0433823Y0071999D01*
X0433815Y0072131D01*
X0433803Y0072263D01*
X0433788Y0072395D01*
X0433769Y0072526D01*
X0433746Y0072656D01*
X0433719Y0072786D01*
X0433688Y0072915D01*
X0433654Y0073043D01*
X0433616Y0073170D01*
X0433574Y0073296D01*
X0433529Y0073421D01*
X0433480Y0073544D01*
X0433427Y0073665D01*
X0433371Y0073786D01*
X0433312Y0073904D01*
X0433249Y0074021D01*
X0433182Y0074135D01*
X0433113Y0074248D01*
X0433040Y0074359D01*
X0434615Y0027902D02*
X0434615Y0015698D01*
X0423985Y0015698D02*
X0423985Y0027902D01*
X0423985Y0025048D01*
X0424674Y0025737D01*
X0424674Y0027902D01*
X0423985Y0027902D01*
X0423985Y0027703D02*
X0424674Y0027703D01*
X0424674Y0027305D02*
X0423985Y0027305D01*
X0423985Y0026906D02*
X0424674Y0026906D01*
X0424674Y0026508D02*
X0423985Y0026508D01*
X0423985Y0026109D02*
X0424674Y0026109D01*
X0424648Y0025711D02*
X0423985Y0025711D01*
X0423985Y0025312D02*
X0424249Y0025312D01*
X0433040Y0024359D02*
X0433113Y0024248D01*
X0433182Y0024135D01*
X0433249Y0024021D01*
X0433312Y0023904D01*
X0433371Y0023786D01*
X0433427Y0023665D01*
X0433480Y0023544D01*
X0433529Y0023421D01*
X0433574Y0023296D01*
X0433616Y0023170D01*
X0433654Y0023043D01*
X0433688Y0022915D01*
X0433719Y0022786D01*
X0433746Y0022656D01*
X0433769Y0022526D01*
X0433788Y0022395D01*
X0433803Y0022263D01*
X0433815Y0022131D01*
X0433823Y0021999D01*
X0433827Y0021866D01*
X0433827Y0021734D01*
X0433823Y0021601D01*
X0433815Y0021469D01*
X0433803Y0021337D01*
X0433788Y0021205D01*
X0433769Y0021074D01*
X0433746Y0020944D01*
X0433719Y0020814D01*
X0433688Y0020685D01*
X0433654Y0020557D01*
X0433616Y0020430D01*
X0433574Y0020304D01*
X0433529Y0020179D01*
X0433480Y0020056D01*
X0433427Y0019935D01*
X0433371Y0019814D01*
X0433312Y0019696D01*
X0433249Y0019579D01*
X0433182Y0019465D01*
X0433113Y0019352D01*
X0433040Y0019241D01*
X0425560Y0019241D02*
X0425487Y0019352D01*
X0425418Y0019465D01*
X0425351Y0019579D01*
X0425288Y0019696D01*
X0425229Y0019814D01*
X0425173Y0019935D01*
X0425120Y0020056D01*
X0425071Y0020179D01*
X0425026Y0020304D01*
X0424984Y0020430D01*
X0424946Y0020557D01*
X0424912Y0020685D01*
X0424881Y0020814D01*
X0424854Y0020944D01*
X0424831Y0021074D01*
X0424812Y0021205D01*
X0424797Y0021337D01*
X0424785Y0021469D01*
X0424777Y0021601D01*
X0424773Y0021734D01*
X0424773Y0021866D01*
X0424777Y0021999D01*
X0424785Y0022131D01*
X0424797Y0022263D01*
X0424812Y0022395D01*
X0424831Y0022526D01*
X0424854Y0022656D01*
X0424881Y0022786D01*
X0424912Y0022915D01*
X0424946Y0023043D01*
X0424984Y0023170D01*
X0425026Y0023296D01*
X0425071Y0023421D01*
X0425120Y0023544D01*
X0425173Y0023665D01*
X0425229Y0023786D01*
X0425288Y0023904D01*
X0425351Y0024021D01*
X0425418Y0024135D01*
X0425487Y0024248D01*
X0425560Y0024359D01*
X0334615Y0027902D02*
X0334615Y0015698D01*
X0323985Y0015698D02*
X0323985Y0027902D01*
X0323985Y0025048D01*
X0324674Y0025737D01*
X0324674Y0027902D01*
X0323985Y0027902D01*
X0323985Y0027703D02*
X0324674Y0027703D01*
X0324674Y0027305D02*
X0323985Y0027305D01*
X0323985Y0026906D02*
X0324674Y0026906D01*
X0324674Y0026508D02*
X0323985Y0026508D01*
X0323985Y0026109D02*
X0324674Y0026109D01*
X0324648Y0025711D02*
X0323985Y0025711D01*
X0323985Y0025312D02*
X0324249Y0025312D01*
X0333040Y0024359D02*
X0333113Y0024248D01*
X0333182Y0024135D01*
X0333249Y0024021D01*
X0333312Y0023904D01*
X0333371Y0023786D01*
X0333427Y0023665D01*
X0333480Y0023544D01*
X0333529Y0023421D01*
X0333574Y0023296D01*
X0333616Y0023170D01*
X0333654Y0023043D01*
X0333688Y0022915D01*
X0333719Y0022786D01*
X0333746Y0022656D01*
X0333769Y0022526D01*
X0333788Y0022395D01*
X0333803Y0022263D01*
X0333815Y0022131D01*
X0333823Y0021999D01*
X0333827Y0021866D01*
X0333827Y0021734D01*
X0333823Y0021601D01*
X0333815Y0021469D01*
X0333803Y0021337D01*
X0333788Y0021205D01*
X0333769Y0021074D01*
X0333746Y0020944D01*
X0333719Y0020814D01*
X0333688Y0020685D01*
X0333654Y0020557D01*
X0333616Y0020430D01*
X0333574Y0020304D01*
X0333529Y0020179D01*
X0333480Y0020056D01*
X0333427Y0019935D01*
X0333371Y0019814D01*
X0333312Y0019696D01*
X0333249Y0019579D01*
X0333182Y0019465D01*
X0333113Y0019352D01*
X0333040Y0019241D01*
X0325560Y0019241D02*
X0325487Y0019352D01*
X0325418Y0019465D01*
X0325351Y0019579D01*
X0325288Y0019696D01*
X0325229Y0019814D01*
X0325173Y0019935D01*
X0325120Y0020056D01*
X0325071Y0020179D01*
X0325026Y0020304D01*
X0324984Y0020430D01*
X0324946Y0020557D01*
X0324912Y0020685D01*
X0324881Y0020814D01*
X0324854Y0020944D01*
X0324831Y0021074D01*
X0324812Y0021205D01*
X0324797Y0021337D01*
X0324785Y0021469D01*
X0324777Y0021601D01*
X0324773Y0021734D01*
X0324773Y0021866D01*
X0324777Y0021999D01*
X0324785Y0022131D01*
X0324797Y0022263D01*
X0324812Y0022395D01*
X0324831Y0022526D01*
X0324854Y0022656D01*
X0324881Y0022786D01*
X0324912Y0022915D01*
X0324946Y0023043D01*
X0324984Y0023170D01*
X0325026Y0023296D01*
X0325071Y0023421D01*
X0325120Y0023544D01*
X0325173Y0023665D01*
X0325229Y0023786D01*
X0325288Y0023904D01*
X0325351Y0024021D01*
X0325418Y0024135D01*
X0325487Y0024248D01*
X0325560Y0024359D01*
X0234615Y0027902D02*
X0234615Y0015698D01*
X0225560Y0019241D02*
X0225487Y0019352D01*
X0225418Y0019465D01*
X0225351Y0019579D01*
X0225288Y0019696D01*
X0225229Y0019814D01*
X0225173Y0019935D01*
X0225120Y0020056D01*
X0225071Y0020179D01*
X0225026Y0020304D01*
X0224984Y0020430D01*
X0224946Y0020557D01*
X0224912Y0020685D01*
X0224881Y0020814D01*
X0224854Y0020944D01*
X0224831Y0021074D01*
X0224812Y0021205D01*
X0224797Y0021337D01*
X0224785Y0021469D01*
X0224777Y0021601D01*
X0224773Y0021734D01*
X0224773Y0021866D01*
X0224777Y0021999D01*
X0224785Y0022131D01*
X0224797Y0022263D01*
X0224812Y0022395D01*
X0224831Y0022526D01*
X0224854Y0022656D01*
X0224881Y0022786D01*
X0224912Y0022915D01*
X0224946Y0023043D01*
X0224984Y0023170D01*
X0225026Y0023296D01*
X0225071Y0023421D01*
X0225120Y0023544D01*
X0225173Y0023665D01*
X0225229Y0023786D01*
X0225288Y0023904D01*
X0225351Y0024021D01*
X0225418Y0024135D01*
X0225487Y0024248D01*
X0225560Y0024359D01*
X0224249Y0025312D02*
X0223985Y0025312D01*
X0223985Y0025048D02*
X0223985Y0027902D01*
X0224674Y0027902D01*
X0224674Y0025737D01*
X0223985Y0025048D01*
X0223985Y0025711D02*
X0224648Y0025711D01*
X0224674Y0026109D02*
X0223985Y0026109D01*
X0223985Y0026508D02*
X0224674Y0026508D01*
X0224674Y0026906D02*
X0223985Y0026906D01*
X0223985Y0027305D02*
X0224674Y0027305D01*
X0224674Y0027703D02*
X0223985Y0027703D01*
X0223985Y0027902D02*
X0223985Y0015698D01*
X0233040Y0019241D02*
X0233113Y0019352D01*
X0233182Y0019465D01*
X0233249Y0019579D01*
X0233312Y0019696D01*
X0233371Y0019814D01*
X0233427Y0019935D01*
X0233480Y0020056D01*
X0233529Y0020179D01*
X0233574Y0020304D01*
X0233616Y0020430D01*
X0233654Y0020557D01*
X0233688Y0020685D01*
X0233719Y0020814D01*
X0233746Y0020944D01*
X0233769Y0021074D01*
X0233788Y0021205D01*
X0233803Y0021337D01*
X0233815Y0021469D01*
X0233823Y0021601D01*
X0233827Y0021734D01*
X0233827Y0021866D01*
X0233823Y0021999D01*
X0233815Y0022131D01*
X0233803Y0022263D01*
X0233788Y0022395D01*
X0233769Y0022526D01*
X0233746Y0022656D01*
X0233719Y0022786D01*
X0233688Y0022915D01*
X0233654Y0023043D01*
X0233616Y0023170D01*
X0233574Y0023296D01*
X0233529Y0023421D01*
X0233480Y0023544D01*
X0233427Y0023665D01*
X0233371Y0023786D01*
X0233312Y0023904D01*
X0233249Y0024021D01*
X0233182Y0024135D01*
X0233113Y0024248D01*
X0233040Y0024359D01*
X0134615Y0027902D02*
X0134615Y0015698D01*
X0125560Y0019241D02*
X0125487Y0019352D01*
X0125418Y0019465D01*
X0125351Y0019579D01*
X0125288Y0019696D01*
X0125229Y0019814D01*
X0125173Y0019935D01*
X0125120Y0020056D01*
X0125071Y0020179D01*
X0125026Y0020304D01*
X0124984Y0020430D01*
X0124946Y0020557D01*
X0124912Y0020685D01*
X0124881Y0020814D01*
X0124854Y0020944D01*
X0124831Y0021074D01*
X0124812Y0021205D01*
X0124797Y0021337D01*
X0124785Y0021469D01*
X0124777Y0021601D01*
X0124773Y0021734D01*
X0124773Y0021866D01*
X0124777Y0021999D01*
X0124785Y0022131D01*
X0124797Y0022263D01*
X0124812Y0022395D01*
X0124831Y0022526D01*
X0124854Y0022656D01*
X0124881Y0022786D01*
X0124912Y0022915D01*
X0124946Y0023043D01*
X0124984Y0023170D01*
X0125026Y0023296D01*
X0125071Y0023421D01*
X0125120Y0023544D01*
X0125173Y0023665D01*
X0125229Y0023786D01*
X0125288Y0023904D01*
X0125351Y0024021D01*
X0125418Y0024135D01*
X0125487Y0024248D01*
X0125560Y0024359D01*
X0124249Y0025312D02*
X0123985Y0025312D01*
X0123985Y0025048D02*
X0123985Y0027902D01*
X0124674Y0027902D01*
X0124674Y0025737D01*
X0123985Y0025048D01*
X0123985Y0025711D02*
X0124648Y0025711D01*
X0124674Y0026109D02*
X0123985Y0026109D01*
X0123985Y0026508D02*
X0124674Y0026508D01*
X0124674Y0026906D02*
X0123985Y0026906D01*
X0123985Y0027305D02*
X0124674Y0027305D01*
X0124674Y0027703D02*
X0123985Y0027703D01*
X0123985Y0027902D02*
X0123985Y0015698D01*
X0133040Y0019241D02*
X0133113Y0019352D01*
X0133182Y0019465D01*
X0133249Y0019579D01*
X0133312Y0019696D01*
X0133371Y0019814D01*
X0133427Y0019935D01*
X0133480Y0020056D01*
X0133529Y0020179D01*
X0133574Y0020304D01*
X0133616Y0020430D01*
X0133654Y0020557D01*
X0133688Y0020685D01*
X0133719Y0020814D01*
X0133746Y0020944D01*
X0133769Y0021074D01*
X0133788Y0021205D01*
X0133803Y0021337D01*
X0133815Y0021469D01*
X0133823Y0021601D01*
X0133827Y0021734D01*
X0133827Y0021866D01*
X0133823Y0021999D01*
X0133815Y0022131D01*
X0133803Y0022263D01*
X0133788Y0022395D01*
X0133769Y0022526D01*
X0133746Y0022656D01*
X0133719Y0022786D01*
X0133688Y0022915D01*
X0133654Y0023043D01*
X0133616Y0023170D01*
X0133574Y0023296D01*
X0133529Y0023421D01*
X0133480Y0023544D01*
X0133427Y0023665D01*
X0133371Y0023786D01*
X0133312Y0023904D01*
X0133249Y0024021D01*
X0133182Y0024135D01*
X0133113Y0024248D01*
X0133040Y0024359D01*
X0034615Y0027902D02*
X0034615Y0015698D01*
X0023985Y0015698D02*
X0023985Y0027902D01*
X0023985Y0025048D01*
X0024674Y0025737D01*
X0024674Y0027902D01*
X0023985Y0027902D01*
X0023985Y0027703D02*
X0024674Y0027703D01*
X0024674Y0027305D02*
X0023985Y0027305D01*
X0023985Y0026906D02*
X0024674Y0026906D01*
X0024674Y0026508D02*
X0023985Y0026508D01*
X0023985Y0026109D02*
X0024674Y0026109D01*
X0024648Y0025711D02*
X0023985Y0025711D01*
X0023985Y0025312D02*
X0024249Y0025312D01*
X0033040Y0024359D02*
X0033113Y0024248D01*
X0033182Y0024135D01*
X0033249Y0024021D01*
X0033312Y0023904D01*
X0033371Y0023786D01*
X0033427Y0023665D01*
X0033480Y0023544D01*
X0033529Y0023421D01*
X0033574Y0023296D01*
X0033616Y0023170D01*
X0033654Y0023043D01*
X0033688Y0022915D01*
X0033719Y0022786D01*
X0033746Y0022656D01*
X0033769Y0022526D01*
X0033788Y0022395D01*
X0033803Y0022263D01*
X0033815Y0022131D01*
X0033823Y0021999D01*
X0033827Y0021866D01*
X0033827Y0021734D01*
X0033823Y0021601D01*
X0033815Y0021469D01*
X0033803Y0021337D01*
X0033788Y0021205D01*
X0033769Y0021074D01*
X0033746Y0020944D01*
X0033719Y0020814D01*
X0033688Y0020685D01*
X0033654Y0020557D01*
X0033616Y0020430D01*
X0033574Y0020304D01*
X0033529Y0020179D01*
X0033480Y0020056D01*
X0033427Y0019935D01*
X0033371Y0019814D01*
X0033312Y0019696D01*
X0033249Y0019579D01*
X0033182Y0019465D01*
X0033113Y0019352D01*
X0033040Y0019241D01*
X0025560Y0019241D02*
X0025487Y0019352D01*
X0025418Y0019465D01*
X0025351Y0019579D01*
X0025288Y0019696D01*
X0025229Y0019814D01*
X0025173Y0019935D01*
X0025120Y0020056D01*
X0025071Y0020179D01*
X0025026Y0020304D01*
X0024984Y0020430D01*
X0024946Y0020557D01*
X0024912Y0020685D01*
X0024881Y0020814D01*
X0024854Y0020944D01*
X0024831Y0021074D01*
X0024812Y0021205D01*
X0024797Y0021337D01*
X0024785Y0021469D01*
X0024777Y0021601D01*
X0024773Y0021734D01*
X0024773Y0021866D01*
X0024777Y0021999D01*
X0024785Y0022131D01*
X0024797Y0022263D01*
X0024812Y0022395D01*
X0024831Y0022526D01*
X0024854Y0022656D01*
X0024881Y0022786D01*
X0024912Y0022915D01*
X0024946Y0023043D01*
X0024984Y0023170D01*
X0025026Y0023296D01*
X0025071Y0023421D01*
X0025120Y0023544D01*
X0025173Y0023665D01*
X0025229Y0023786D01*
X0025288Y0023904D01*
X0025351Y0024021D01*
X0025418Y0024135D01*
X0025487Y0024248D01*
X0025560Y0024359D01*
X0223985Y0165698D02*
X0223985Y0177902D01*
X0223985Y0175048D01*
X0224674Y0175737D01*
X0224674Y0177902D01*
X0223985Y0177902D01*
X0223985Y0177543D02*
X0224674Y0177543D01*
X0224674Y0177145D02*
X0223985Y0177145D01*
X0223985Y0176746D02*
X0224674Y0176746D01*
X0224674Y0176348D02*
X0223985Y0176348D01*
X0223985Y0175949D02*
X0224674Y0175949D01*
X0224488Y0175551D02*
X0223985Y0175551D01*
X0223985Y0175152D02*
X0224089Y0175152D01*
X0233040Y0174359D02*
X0233113Y0174248D01*
X0233182Y0174135D01*
X0233249Y0174021D01*
X0233312Y0173904D01*
X0233371Y0173786D01*
X0233427Y0173665D01*
X0233480Y0173544D01*
X0233529Y0173421D01*
X0233574Y0173296D01*
X0233616Y0173170D01*
X0233654Y0173043D01*
X0233688Y0172915D01*
X0233719Y0172786D01*
X0233746Y0172656D01*
X0233769Y0172526D01*
X0233788Y0172395D01*
X0233803Y0172263D01*
X0233815Y0172131D01*
X0233823Y0171999D01*
X0233827Y0171866D01*
X0233827Y0171734D01*
X0233823Y0171601D01*
X0233815Y0171469D01*
X0233803Y0171337D01*
X0233788Y0171205D01*
X0233769Y0171074D01*
X0233746Y0170944D01*
X0233719Y0170814D01*
X0233688Y0170685D01*
X0233654Y0170557D01*
X0233616Y0170430D01*
X0233574Y0170304D01*
X0233529Y0170179D01*
X0233480Y0170056D01*
X0233427Y0169935D01*
X0233371Y0169814D01*
X0233312Y0169696D01*
X0233249Y0169579D01*
X0233182Y0169465D01*
X0233113Y0169352D01*
X0233040Y0169241D01*
X0225560Y0169241D02*
X0225487Y0169352D01*
X0225418Y0169465D01*
X0225351Y0169579D01*
X0225288Y0169696D01*
X0225229Y0169814D01*
X0225173Y0169935D01*
X0225120Y0170056D01*
X0225071Y0170179D01*
X0225026Y0170304D01*
X0224984Y0170430D01*
X0224946Y0170557D01*
X0224912Y0170685D01*
X0224881Y0170814D01*
X0224854Y0170944D01*
X0224831Y0171074D01*
X0224812Y0171205D01*
X0224797Y0171337D01*
X0224785Y0171469D01*
X0224777Y0171601D01*
X0224773Y0171734D01*
X0224773Y0171866D01*
X0224777Y0171999D01*
X0224785Y0172131D01*
X0224797Y0172263D01*
X0224812Y0172395D01*
X0224831Y0172526D01*
X0224854Y0172656D01*
X0224881Y0172786D01*
X0224912Y0172915D01*
X0224946Y0173043D01*
X0224984Y0173170D01*
X0225026Y0173296D01*
X0225071Y0173421D01*
X0225120Y0173544D01*
X0225173Y0173665D01*
X0225229Y0173786D01*
X0225288Y0173904D01*
X0225351Y0174021D01*
X0225418Y0174135D01*
X0225487Y0174248D01*
X0225560Y0174359D01*
X0234615Y0177902D02*
X0234615Y0165698D01*
X0323985Y0165698D02*
X0323985Y0177902D01*
X0323985Y0175048D01*
X0324674Y0175737D01*
X0324674Y0177902D01*
X0323985Y0177902D01*
X0323985Y0177543D02*
X0324674Y0177543D01*
X0324674Y0177145D02*
X0323985Y0177145D01*
X0323985Y0176746D02*
X0324674Y0176746D01*
X0324674Y0176348D02*
X0323985Y0176348D01*
X0323985Y0175949D02*
X0324674Y0175949D01*
X0324488Y0175551D02*
X0323985Y0175551D01*
X0323985Y0175152D02*
X0324089Y0175152D01*
X0333040Y0174359D02*
X0333113Y0174248D01*
X0333182Y0174135D01*
X0333249Y0174021D01*
X0333312Y0173904D01*
X0333371Y0173786D01*
X0333427Y0173665D01*
X0333480Y0173544D01*
X0333529Y0173421D01*
X0333574Y0173296D01*
X0333616Y0173170D01*
X0333654Y0173043D01*
X0333688Y0172915D01*
X0333719Y0172786D01*
X0333746Y0172656D01*
X0333769Y0172526D01*
X0333788Y0172395D01*
X0333803Y0172263D01*
X0333815Y0172131D01*
X0333823Y0171999D01*
X0333827Y0171866D01*
X0333827Y0171734D01*
X0333823Y0171601D01*
X0333815Y0171469D01*
X0333803Y0171337D01*
X0333788Y0171205D01*
X0333769Y0171074D01*
X0333746Y0170944D01*
X0333719Y0170814D01*
X0333688Y0170685D01*
X0333654Y0170557D01*
X0333616Y0170430D01*
X0333574Y0170304D01*
X0333529Y0170179D01*
X0333480Y0170056D01*
X0333427Y0169935D01*
X0333371Y0169814D01*
X0333312Y0169696D01*
X0333249Y0169579D01*
X0333182Y0169465D01*
X0333113Y0169352D01*
X0333040Y0169241D01*
X0325560Y0169241D02*
X0325487Y0169352D01*
X0325418Y0169465D01*
X0325351Y0169579D01*
X0325288Y0169696D01*
X0325229Y0169814D01*
X0325173Y0169935D01*
X0325120Y0170056D01*
X0325071Y0170179D01*
X0325026Y0170304D01*
X0324984Y0170430D01*
X0324946Y0170557D01*
X0324912Y0170685D01*
X0324881Y0170814D01*
X0324854Y0170944D01*
X0324831Y0171074D01*
X0324812Y0171205D01*
X0324797Y0171337D01*
X0324785Y0171469D01*
X0324777Y0171601D01*
X0324773Y0171734D01*
X0324773Y0171866D01*
X0324777Y0171999D01*
X0324785Y0172131D01*
X0324797Y0172263D01*
X0324812Y0172395D01*
X0324831Y0172526D01*
X0324854Y0172656D01*
X0324881Y0172786D01*
X0324912Y0172915D01*
X0324946Y0173043D01*
X0324984Y0173170D01*
X0325026Y0173296D01*
X0325071Y0173421D01*
X0325120Y0173544D01*
X0325173Y0173665D01*
X0325229Y0173786D01*
X0325288Y0173904D01*
X0325351Y0174021D01*
X0325418Y0174135D01*
X0325487Y0174248D01*
X0325560Y0174359D01*
X0334615Y0177902D02*
X0334615Y0165698D01*
M02*
