%
M48
M72
T01C0.0236
T02C0.0320
T03C0.0350
T04C0.0360
T05C0.0394
T06C0.0470
T07C0.1300
%
T01
X35411Y4411
X37911Y6161
X46161Y4911
X52161Y4911
X58911Y5661
X46161Y1661
X18661Y7661
X11661Y7161
X4911Y7161
X25661Y8161
X32661Y9161
X34161Y9911
X32661Y10661
X39911Y10411
X47161Y10661
T02
X43661Y10661
X43661Y9661
X43661Y8661
X43661Y7661
X43661Y6661
X43661Y5661
X43661Y4661
X43661Y3661
X43661Y2661
T03
X1661Y1661
X1661Y2661
X1661Y3661
X13161Y3661
X15661Y3661
X15661Y2661
X13161Y2661
X13161Y1661
X15661Y1661
X21661Y2661
X21661Y3661
X21661Y4661
X30411Y3911
X30411Y2911
X30411Y1911
X36661Y1661
X36661Y2661
X36661Y3661
X45161Y3661
X45161Y2661
X45161Y1661
X55911Y1661
X58911Y1661
X58911Y2661
X55911Y2661
X55911Y3661
X58911Y3661
T04
X33411Y3911
X33411Y2911
X33411Y4911
T05
X41911Y4661
X41911Y5661
X41911Y6661
X41911Y7661
X41911Y8661
X41911Y9661
X41911Y10661
X41911Y3661
X41911Y2661
T06
X28130Y1903
X26161Y1903
X24193Y1903
T07
X5661Y2661
X5661Y9161
X48911Y9161
X48911Y2661
M30
