G75*
G70*
%OFA0B0*%
%FSLAX24Y24*%
%IPPOS*%
%LPD*%
%AMOC8*
5,1,8,0,0,1.08239X$1,22.5*
%
%ADD10C,0.0000*%
D10*
X000181Y000181D02*
X000181Y018801D01*
X044674Y018801D01*
X044674Y000181D01*
X000181Y000181D01*
X007281Y004181D02*
X007283Y004231D01*
X007289Y004281D01*
X007299Y004331D01*
X007312Y004379D01*
X007329Y004427D01*
X007350Y004473D01*
X007374Y004517D01*
X007402Y004559D01*
X007433Y004599D01*
X007467Y004636D01*
X007504Y004671D01*
X007543Y004702D01*
X007584Y004731D01*
X007628Y004756D01*
X007674Y004778D01*
X007721Y004796D01*
X007769Y004810D01*
X007818Y004821D01*
X007868Y004828D01*
X007918Y004831D01*
X007969Y004830D01*
X008019Y004825D01*
X008069Y004816D01*
X008117Y004804D01*
X008165Y004787D01*
X008211Y004767D01*
X008256Y004744D01*
X008299Y004717D01*
X008339Y004687D01*
X008377Y004654D01*
X008412Y004618D01*
X008445Y004579D01*
X008474Y004538D01*
X008500Y004495D01*
X008523Y004450D01*
X008542Y004403D01*
X008557Y004355D01*
X008569Y004306D01*
X008577Y004256D01*
X008581Y004206D01*
X008581Y004156D01*
X008577Y004106D01*
X008569Y004056D01*
X008557Y004007D01*
X008542Y003959D01*
X008523Y003912D01*
X008500Y003867D01*
X008474Y003824D01*
X008445Y003783D01*
X008412Y003744D01*
X008377Y003708D01*
X008339Y003675D01*
X008299Y003645D01*
X008256Y003618D01*
X008211Y003595D01*
X008165Y003575D01*
X008117Y003558D01*
X008069Y003546D01*
X008019Y003537D01*
X007969Y003532D01*
X007918Y003531D01*
X007868Y003534D01*
X007818Y003541D01*
X007769Y003552D01*
X007721Y003566D01*
X007674Y003584D01*
X007628Y003606D01*
X007584Y003631D01*
X007543Y003660D01*
X007504Y003691D01*
X007467Y003726D01*
X007433Y003763D01*
X007402Y003803D01*
X007374Y003845D01*
X007350Y003889D01*
X007329Y003935D01*
X007312Y003983D01*
X007299Y004031D01*
X007289Y004081D01*
X007283Y004131D01*
X007281Y004181D01*
X007281Y014681D02*
X007283Y014731D01*
X007289Y014781D01*
X007299Y014831D01*
X007312Y014879D01*
X007329Y014927D01*
X007350Y014973D01*
X007374Y015017D01*
X007402Y015059D01*
X007433Y015099D01*
X007467Y015136D01*
X007504Y015171D01*
X007543Y015202D01*
X007584Y015231D01*
X007628Y015256D01*
X007674Y015278D01*
X007721Y015296D01*
X007769Y015310D01*
X007818Y015321D01*
X007868Y015328D01*
X007918Y015331D01*
X007969Y015330D01*
X008019Y015325D01*
X008069Y015316D01*
X008117Y015304D01*
X008165Y015287D01*
X008211Y015267D01*
X008256Y015244D01*
X008299Y015217D01*
X008339Y015187D01*
X008377Y015154D01*
X008412Y015118D01*
X008445Y015079D01*
X008474Y015038D01*
X008500Y014995D01*
X008523Y014950D01*
X008542Y014903D01*
X008557Y014855D01*
X008569Y014806D01*
X008577Y014756D01*
X008581Y014706D01*
X008581Y014656D01*
X008577Y014606D01*
X008569Y014556D01*
X008557Y014507D01*
X008542Y014459D01*
X008523Y014412D01*
X008500Y014367D01*
X008474Y014324D01*
X008445Y014283D01*
X008412Y014244D01*
X008377Y014208D01*
X008339Y014175D01*
X008299Y014145D01*
X008256Y014118D01*
X008211Y014095D01*
X008165Y014075D01*
X008117Y014058D01*
X008069Y014046D01*
X008019Y014037D01*
X007969Y014032D01*
X007918Y014031D01*
X007868Y014034D01*
X007818Y014041D01*
X007769Y014052D01*
X007721Y014066D01*
X007674Y014084D01*
X007628Y014106D01*
X007584Y014131D01*
X007543Y014160D01*
X007504Y014191D01*
X007467Y014226D01*
X007433Y014263D01*
X007402Y014303D01*
X007374Y014345D01*
X007350Y014389D01*
X007329Y014435D01*
X007312Y014483D01*
X007299Y014531D01*
X007289Y014581D01*
X007283Y014631D01*
X007281Y014681D01*
X036281Y014681D02*
X036283Y014731D01*
X036289Y014781D01*
X036299Y014831D01*
X036312Y014879D01*
X036329Y014927D01*
X036350Y014973D01*
X036374Y015017D01*
X036402Y015059D01*
X036433Y015099D01*
X036467Y015136D01*
X036504Y015171D01*
X036543Y015202D01*
X036584Y015231D01*
X036628Y015256D01*
X036674Y015278D01*
X036721Y015296D01*
X036769Y015310D01*
X036818Y015321D01*
X036868Y015328D01*
X036918Y015331D01*
X036969Y015330D01*
X037019Y015325D01*
X037069Y015316D01*
X037117Y015304D01*
X037165Y015287D01*
X037211Y015267D01*
X037256Y015244D01*
X037299Y015217D01*
X037339Y015187D01*
X037377Y015154D01*
X037412Y015118D01*
X037445Y015079D01*
X037474Y015038D01*
X037500Y014995D01*
X037523Y014950D01*
X037542Y014903D01*
X037557Y014855D01*
X037569Y014806D01*
X037577Y014756D01*
X037581Y014706D01*
X037581Y014656D01*
X037577Y014606D01*
X037569Y014556D01*
X037557Y014507D01*
X037542Y014459D01*
X037523Y014412D01*
X037500Y014367D01*
X037474Y014324D01*
X037445Y014283D01*
X037412Y014244D01*
X037377Y014208D01*
X037339Y014175D01*
X037299Y014145D01*
X037256Y014118D01*
X037211Y014095D01*
X037165Y014075D01*
X037117Y014058D01*
X037069Y014046D01*
X037019Y014037D01*
X036969Y014032D01*
X036918Y014031D01*
X036868Y014034D01*
X036818Y014041D01*
X036769Y014052D01*
X036721Y014066D01*
X036674Y014084D01*
X036628Y014106D01*
X036584Y014131D01*
X036543Y014160D01*
X036504Y014191D01*
X036467Y014226D01*
X036433Y014263D01*
X036402Y014303D01*
X036374Y014345D01*
X036350Y014389D01*
X036329Y014435D01*
X036312Y014483D01*
X036299Y014531D01*
X036289Y014581D01*
X036283Y014631D01*
X036281Y014681D01*
X036281Y004181D02*
X036283Y004231D01*
X036289Y004281D01*
X036299Y004331D01*
X036312Y004379D01*
X036329Y004427D01*
X036350Y004473D01*
X036374Y004517D01*
X036402Y004559D01*
X036433Y004599D01*
X036467Y004636D01*
X036504Y004671D01*
X036543Y004702D01*
X036584Y004731D01*
X036628Y004756D01*
X036674Y004778D01*
X036721Y004796D01*
X036769Y004810D01*
X036818Y004821D01*
X036868Y004828D01*
X036918Y004831D01*
X036969Y004830D01*
X037019Y004825D01*
X037069Y004816D01*
X037117Y004804D01*
X037165Y004787D01*
X037211Y004767D01*
X037256Y004744D01*
X037299Y004717D01*
X037339Y004687D01*
X037377Y004654D01*
X037412Y004618D01*
X037445Y004579D01*
X037474Y004538D01*
X037500Y004495D01*
X037523Y004450D01*
X037542Y004403D01*
X037557Y004355D01*
X037569Y004306D01*
X037577Y004256D01*
X037581Y004206D01*
X037581Y004156D01*
X037577Y004106D01*
X037569Y004056D01*
X037557Y004007D01*
X037542Y003959D01*
X037523Y003912D01*
X037500Y003867D01*
X037474Y003824D01*
X037445Y003783D01*
X037412Y003744D01*
X037377Y003708D01*
X037339Y003675D01*
X037299Y003645D01*
X037256Y003618D01*
X037211Y003595D01*
X037165Y003575D01*
X037117Y003558D01*
X037069Y003546D01*
X037019Y003537D01*
X036969Y003532D01*
X036918Y003531D01*
X036868Y003534D01*
X036818Y003541D01*
X036769Y003552D01*
X036721Y003566D01*
X036674Y003584D01*
X036628Y003606D01*
X036584Y003631D01*
X036543Y003660D01*
X036504Y003691D01*
X036467Y003726D01*
X036433Y003763D01*
X036402Y003803D01*
X036374Y003845D01*
X036350Y003889D01*
X036329Y003935D01*
X036312Y003983D01*
X036299Y004031D01*
X036289Y004081D01*
X036283Y004131D01*
X036281Y004181D01*
M02*
