%
M48
M72
T01C0.0280
T02C0.0320
T03C0.0360
T04C0.0394
T05C0.1100
%
T01
X10098Y9870
X10598Y12120
X11348Y14870
X12848Y15870
X14598Y18120
X17848Y18120
X19598Y19120
X20848Y18870
X23098Y19620
X23598Y19120
X25098Y18370
X27348Y17620
X27848Y18370
X26848Y16620
X28098Y15370
X23598Y15370
X22598Y12620
X20098Y12370
X19348Y12120
X18598Y11870
X16848Y11870
X17098Y9370
X13598Y9370
X6598Y13120
X8348Y17370
X10598Y18620
X9348Y21120
X13098Y23370
X10598Y24120
X8598Y25620
X12098Y29120
X9598Y29870
X14348Y32120
X16598Y33870
X17098Y32620
X18098Y33870
X19098Y33370
X21848Y31370
X20848Y29620
X19098Y29870
X18598Y30370
X18098Y28870
X17348Y28870
X17848Y27370
X19348Y26370
X19848Y25870
X17348Y23120
X17348Y21620
X18598Y21620
X21598Y21870
X22098Y22620
X26098Y21620
X28598Y22120
X29348Y21370
X29848Y22120
X29348Y19870
X30848Y19620
X33848Y21120
X33848Y22620
X31848Y24120
X28598Y26120
X28598Y27120
X27598Y27370
X26598Y27370
X28598Y28870
X29348Y30370
X30098Y32120
X28598Y32120
X29348Y34370
X30348Y34370
X29348Y36620
X27598Y37370
X25598Y36870
X24848Y36620
X25098Y37620
X26098Y34370
X25098Y32620
X24098Y32620
X25098Y31620
X18098Y36620
X16348Y37120
X14848Y37370
X10848Y40120
X9348Y39620
X9598Y37870
X11348Y43620
X18848Y40370
X20598Y40120
X20348Y41870
X21348Y42870
X23098Y43370
X24098Y42620
X27848Y41870
X29598Y41870
X31848Y41870
X29348Y40120
X32098Y37120
X34848Y36120
X35848Y36120
X35848Y36870
X39098Y36870
X39348Y35370
X39348Y34620
X39348Y32620
X39848Y29870
X40848Y29870
X37348Y27370
X37848Y26120
X39848Y26620
X39598Y23870
X38098Y23870
X36848Y22620
X35848Y24370
X33848Y26870
X34848Y27370
X34348Y31870
X35348Y32370
X37098Y39620
X36848Y40370
X38598Y40120
X39348Y39620
X39348Y41120
X36098Y42620
X46848Y43370
X48848Y42870
X50598Y40120
X50098Y39620
X48848Y39370
X49598Y37120
X51348Y36370
X51098Y35620
X50848Y34870
X50598Y34120
X50598Y32620
X51098Y31870
X52848Y29370
X61348Y33120
X62598Y30120
X63098Y37370
X63098Y38370
X63098Y39620
X62348Y43620
X62848Y44370
X63598Y44870
X52848Y44870
X40098Y22620
X37598Y19870
X39098Y19120
X36098Y17120
X33348Y17120
X34848Y12870
X35848Y12370
X33848Y12120
X32348Y12120
X32348Y9120
X37598Y9370
X38848Y14620
X40848Y14370
X48348Y11620
X49348Y11620
X49348Y13120
X48848Y18870
X48848Y20120
X48848Y20870
X47848Y20620
X62098Y15870
X62848Y16620
X62598Y19620
X27348Y11870
X26848Y11370
X25598Y11370
X17848Y15620
T02
X17348Y14870
X16098Y14870
X15098Y14870
X14098Y14870
X14598Y13620
X15598Y13620
X13598Y13620
X12598Y13620
X11598Y13620
X10598Y13620
X9598Y13620
X8598Y13620
X7598Y13620
X7598Y12620
X8598Y10620
X9598Y10620
X10598Y10620
X11598Y10620
X12598Y10620
X13598Y10620
X14598Y10620
X15598Y10620
X18098Y12620
X18098Y13620
X19098Y13620
X20098Y13620
X21098Y13620
X22098Y13620
X23098Y13620
X24098Y13620
X25098Y13620
X26098Y13620
X26598Y14870
X25598Y14870
X24848Y14870
X22848Y14870
X21098Y14870
X20098Y14870
X19348Y14870
X19098Y16870
X18098Y16870
X17098Y16870
X16098Y16870
X15098Y16870
X14098Y16870
X13098Y16870
X12098Y16870
X11098Y16870
X10098Y16870
X9098Y18870
X9098Y19870
X10098Y19870
X11098Y19870
X12098Y19870
X13098Y19870
X14098Y19870
X15098Y19870
X16098Y19870
X17098Y19870
X18098Y19870
X19098Y19870
X21598Y20370
X22598Y20370
X23598Y20370
X24598Y20370
X25598Y20370
X26598Y20370
X27598Y20370
X29348Y18370
X30348Y18370
X29348Y17370
X31348Y18370
X32348Y18370
X33348Y18370
X34348Y18370
X35348Y18370
X36348Y18370
X36348Y20370
X35348Y20370
X34348Y20370
X33348Y20370
X32348Y20370
X31348Y20370
X30348Y20370
X30348Y23370
X29348Y23370
X29348Y24370
X30348Y25620
X31348Y25620
X32348Y25620
X33348Y25620
X34348Y25620
X35348Y25620
X36348Y25620
X36348Y23370
X35348Y23370
X34348Y23370
X33348Y23370
X32348Y23370
X31348Y23370
X27598Y23370
X26598Y23370
X25598Y23370
X24598Y23370
X23598Y23370
X22598Y23370
X21598Y23370
X20598Y23370
X20598Y22370
X21598Y25370
X22598Y25370
X23598Y25370
X24598Y25370
X25598Y25370
X26598Y25370
X27598Y25370
X29348Y27620
X29348Y28620
X30348Y28620
X31348Y28620
X32348Y28620
X33348Y28620
X34348Y28620
X35348Y28620
X36348Y28620
X36348Y30370
X35348Y30370
X34348Y30370
X33348Y30370
X32348Y30370
X31348Y30370
X30348Y30370
X29348Y32370
X29348Y33370
X30348Y33370
X31348Y33370
X32348Y33370
X33348Y33370
X34348Y33370
X35348Y33370
X36348Y33370
X36348Y35370
X37348Y35370
X35348Y35370
X34348Y35370
X33348Y35370
X32348Y35370
X31348Y35370
X30348Y35370
X29348Y37370
X29348Y38370
X30348Y38370
X31348Y38370
X32348Y38370
X33348Y38370
X34348Y38370
X35348Y38370
X36348Y38370
X37348Y38370
X39348Y38620
X40348Y38620
X41348Y38620
X42348Y38620
X43348Y38620
X44348Y38620
X45348Y38620
X46348Y38620
X47348Y38620
X48348Y38620
X49348Y38620
X49348Y41120
X48348Y41120
X47348Y41120
X46348Y41120
X45348Y41120
X44348Y41120
X43348Y41120
X42348Y41120
X41348Y41120
X40348Y41120
X39348Y43120
X39348Y44120
X40348Y44120
X41348Y44120
X42348Y44120
X43348Y44120
X44348Y44120
X45348Y44120
X46348Y44120
X47348Y44120
X48348Y44120
X49348Y44120
X51348Y43620
X51348Y42620
X52348Y42620
X53348Y42620
X54348Y42620
X55348Y42620
X56348Y42620
X57348Y42620
X58348Y42620
X59348Y42620
X60348Y42620
X61348Y42620
X61348Y45120
X60348Y45120
X59348Y45120
X58348Y45120
X57348Y45120
X56348Y45120
X55348Y45120
X54348Y45120
X54348Y39620
X55348Y39620
X56348Y39620
X57348Y39620
X58348Y39620
X59348Y39620
X60348Y39620
X61348Y39620
X60348Y37620
X59348Y37620
X58348Y37620
X57348Y37620
X56348Y37620
X55348Y37620
X54348Y37620
X53348Y37620
X52348Y37620
X53348Y36120
X54348Y36120
X55348Y36120
X56348Y36120
X57348Y36120
X58348Y36120
X59348Y36120
X60348Y36120
X60348Y33120
X59348Y33120
X58348Y33120
X57348Y33120
X56348Y33120
X55348Y33120
X54348Y33120
X53348Y33120
X49348Y35620
X48348Y35620
X47348Y35620
X46348Y35620
X45348Y35620
X44348Y35620
X43348Y35620
X42348Y35620
X41348Y35620
X40348Y35620
X40348Y33620
X41348Y33620
X42348Y33620
X43348Y33620
X44348Y33620
X45348Y33620
X46348Y33620
X47348Y33620
X48348Y33620
X48348Y28620
X49348Y28620
X51348Y28620
X52348Y28620
X53348Y28620
X54348Y28620
X55348Y28620
X56348Y28620
X57348Y28620
X58348Y28620
X59348Y28620
X60348Y28620
X61348Y28620
X61348Y25620
X60348Y25620
X59348Y25620
X58348Y25620
X57348Y25620
X56348Y25620
X55348Y25620
X54348Y25620
X53348Y25620
X52348Y25620
X51348Y27620
X49348Y25620
X48348Y25620
X47348Y25620
X46348Y25620
X45348Y25620
X44348Y25620
X43348Y25620
X42348Y25620
X41348Y25620
X40348Y25620
X39348Y27620
X39348Y28620
X40348Y28620
X41348Y28620
X42348Y28620
X43348Y28620
X44348Y28620
X45348Y28620
X46348Y28620
X47348Y28620
X50348Y23620
X51348Y23620
X52348Y23620
X53348Y23620
X54348Y23620
X55348Y23620
X56348Y23620
X57348Y23620
X58348Y23620
X59348Y23620
X60348Y23620
X60348Y20620
X59348Y20620
X58348Y20620
X57348Y20620
X56348Y20620
X55348Y20620
X54348Y20620
X53348Y20620
X52348Y20620
X51348Y20620
X50348Y22620
X46848Y20620
X45848Y20620
X44848Y20620
X43848Y20620
X42848Y20620
X41848Y20620
X40848Y20620
X39848Y20620
X39848Y17620
X40848Y17620
X41848Y17620
X42848Y17620
X43848Y17620
X44848Y17620
X45848Y17620
X46848Y17620
X47348Y16120
X46348Y16120
X45348Y16120
X44348Y16120
X43348Y16120
X42348Y16120
X41348Y16120
X40348Y16120
X39348Y16120
X38348Y16120
X38348Y15120
X36348Y15370
X35348Y15370
X34348Y15370
X33348Y15370
X32348Y15370
X31348Y15370
X30348Y15370
X30348Y13620
X29348Y13620
X28348Y13620
X28348Y12620
X29348Y10620
X30348Y10620
X31348Y10620
X32348Y10620
X33348Y10620
X34348Y10620
X35348Y10620
X36348Y10620
X39348Y11620
X40348Y11620
X41348Y11620
X42348Y11620
X43348Y11620
X44348Y11620
X45348Y11620
X46348Y11620
X47348Y11620
X47348Y13120
X46348Y13120
X45348Y13120
X44348Y13120
X43348Y13120
X42348Y13120
X41348Y13120
X40348Y13120
X39348Y13120
X36348Y13620
X35348Y13620
X34348Y13620
X33348Y13620
X32348Y13620
X31348Y13620
X26098Y10620
X25098Y10620
X24098Y10620
X23098Y10620
X22098Y10620
X21098Y10620
X20098Y10620
X19098Y10620
X22348Y9120
X23348Y9120
X24348Y9120
X25348Y9120
X26348Y9120
X27348Y9120
X41848Y9120
X42848Y9120
X43848Y9120
X44848Y9120
X45848Y9120
X46848Y9120
X47848Y9120
X48848Y9120
X48348Y13120
X48348Y16120
X51348Y18620
X52348Y18620
X53348Y18620
X54348Y18620
X55348Y18620
X56348Y18620
X57348Y18620
X58348Y18620
X59348Y18620
X63598Y9870
X64598Y9870
X39348Y37620
X37348Y41120
X36348Y41120
X35348Y41120
X34348Y41120
X33348Y41120
X32348Y41120
X31348Y41120
X30348Y41120
X29348Y43120
X29348Y44120
X30348Y44120
X31348Y44120
X32348Y44120
X33348Y44120
X34348Y44120
X35348Y44120
X36348Y44120
X37348Y44120
X27348Y45120
X26348Y45120
X25348Y45120
X24348Y45120
X23348Y45120
X22348Y45120
X16348Y45120
X15348Y45120
X14348Y45120
X13348Y45120
X12348Y45120
X11348Y45120
X10848Y42870
X9848Y42870
X10848Y41870
X11848Y41870
X12848Y41870
X13848Y41870
X14848Y41870
X15848Y41870
X16848Y41870
X16848Y38870
X15848Y38870
X14848Y38870
X13848Y38870
X12848Y38870
X11848Y38870
X10848Y38870
X7848Y39120
X7848Y38120
X7848Y37120
X7848Y36120
X7848Y35120
X7848Y34120
X7848Y33120
X7848Y32120
X10598Y31120
X11598Y31120
X11598Y30120
X12598Y30120
X13598Y30120
X14598Y30120
X15598Y30120
X16598Y30120
X16598Y27120
X15598Y27120
X14598Y27120
X13598Y27120
X12598Y27120
X11598Y27120
X10598Y27120
X7848Y27120
X7848Y28120
X7848Y29120
X7848Y30120
X10598Y30120
X7848Y26120
X7848Y25120
X9098Y24870
X9098Y23870
X10098Y24870
X11098Y24870
X12098Y24870
X13098Y24870
X14098Y24870
X15098Y24870
X16098Y24870
X16098Y21870
X15098Y21870
X14098Y21870
X13098Y21870
X12098Y21870
X11098Y21870
X10098Y21870
X10598Y14870
X9598Y14870
X8848Y14870
X6848Y14870
X12098Y14870
X20598Y27370
X20598Y28370
X21598Y28370
X22598Y28370
X23598Y28370
X24598Y28370
X25598Y28370
X26598Y28370
X27598Y28370
X27598Y30370
X26598Y30370
X25598Y30370
X24598Y30370
X23598Y30370
X22598Y30370
X21598Y30370
X20598Y32370
X20598Y33370
X21598Y33370
X22598Y33370
X23598Y33370
X24598Y33370
X25598Y33370
X26598Y33370
X27598Y33370
X27598Y35370
X26598Y35370
X25598Y35370
X24598Y35370
X23598Y35370
X22598Y35370
X21598Y35370
X20598Y37370
X20598Y38370
X21598Y38370
X22598Y38370
X23598Y38370
X24598Y38370
X25598Y38370
X26598Y38370
X27598Y38370
X52348Y39620
X53348Y39620
T03
X63848Y39620
X63848Y40620
X63848Y41620
X63848Y42620
X64848Y42620
X65848Y42620
X65848Y41620
X64848Y41620
X64848Y40620
X65848Y40620
X65848Y39620
X64848Y39620
X64848Y38620
X65848Y38620
X65848Y37620
X64848Y37620
X63848Y37620
X63848Y38620
X63848Y36620
X64848Y36620
X65848Y36620
X65848Y35620
X64848Y35620
X63848Y35620
X63848Y34620
X64848Y34620
X65848Y34620
X65848Y33620
X64848Y33620
X64848Y32620
X65848Y32620
X65848Y31620
X64848Y31620
X63848Y31620
X63848Y32620
X63848Y33620
X63848Y30620
X64848Y30620
X65848Y30620
X65848Y29620
X64848Y29620
X63848Y29620
X63848Y28620
X64848Y28620
X65848Y28620
X65848Y27620
X64848Y27620
X64848Y26620
X65848Y26620
X65848Y25620
X64848Y25620
X63848Y25620
X63848Y26620
X63848Y27620
X63848Y24620
X64848Y24620
X65848Y24620
X65848Y23620
X64848Y23620
X63848Y23620
X63848Y22620
X64848Y22620
X65848Y22620
X65848Y21620
X64848Y21620
X64848Y20620
X65848Y20620
X65848Y19620
X64848Y19620
X63848Y19620
X63848Y20620
X63848Y21620
X63848Y18620
X64848Y18620
X65848Y18620
X65848Y17620
X64848Y17620
X63848Y17620
X63848Y16620
X64848Y16620
X65848Y16620
X65848Y15620
X64848Y15620
X63848Y15620
X63848Y14620
X63848Y13620
X64848Y13620
X64848Y14620
X65848Y14620
X65848Y13620
X65848Y12620
X64848Y12620
X63848Y12620
X63848Y11620
X64848Y11620
X65848Y11620
T04
X59348Y16620
X58348Y16620
X57348Y16620
X56348Y16620
X55348Y16620
X54348Y16620
X53348Y16620
X52348Y16620
X47848Y22620
X46848Y22620
X45848Y22620
X44848Y22620
X43848Y22620
X42848Y22620
X41848Y22620
X40848Y22620
X41348Y31620
X42348Y31620
X43348Y31620
X44348Y31620
X45348Y31620
X46348Y31620
X47348Y31620
X48348Y31620
X53348Y31120
X54348Y31120
X55348Y31120
X56348Y31120
X57348Y31120
X58348Y31120
X59348Y31120
X60348Y31120
X6098Y31120
X6098Y32120
X6098Y33120
X6098Y34120
X6098Y35120
X6098Y36120
X6098Y37120
X6098Y38120
X6098Y29120
X6098Y28120
X6098Y27120
X6098Y26120
X6098Y25120
X6098Y24120
X6098Y23120
X6098Y22120
T05
X6348Y9620
X6348Y44620
X66848Y44620
X66848Y9620
M30
