G75*
%MOIN*%
%OFA0B0*%
%FSLAX25Y25*%
%IPPOS*%
%LPD*%
%AMOC8*
5,1,8,0,0,1.08239X$1,22.5*
%
%ADD10C,0.00000*%
%ADD11C,0.13400*%
%ADD12OC8,0.05943*%
%ADD13OC8,0.05600*%
%ADD14C,0.06400*%
%ADD15OC8,0.10400*%
D10*
X0001800Y0001800D02*
X0001800Y0188001D01*
X0446721Y0188001D01*
X0446721Y0001800D01*
X0001800Y0001800D01*
X0072800Y0041800D02*
X0072802Y0041961D01*
X0072808Y0042121D01*
X0072818Y0042282D01*
X0072832Y0042442D01*
X0072850Y0042602D01*
X0072871Y0042761D01*
X0072897Y0042920D01*
X0072927Y0043078D01*
X0072960Y0043235D01*
X0072998Y0043392D01*
X0073039Y0043547D01*
X0073084Y0043701D01*
X0073133Y0043854D01*
X0073186Y0044006D01*
X0073242Y0044157D01*
X0073303Y0044306D01*
X0073366Y0044454D01*
X0073434Y0044600D01*
X0073505Y0044744D01*
X0073579Y0044886D01*
X0073657Y0045027D01*
X0073739Y0045165D01*
X0073824Y0045302D01*
X0073912Y0045436D01*
X0074004Y0045568D01*
X0074099Y0045698D01*
X0074197Y0045826D01*
X0074298Y0045951D01*
X0074402Y0046073D01*
X0074509Y0046193D01*
X0074619Y0046310D01*
X0074732Y0046425D01*
X0074848Y0046536D01*
X0074967Y0046645D01*
X0075088Y0046750D01*
X0075212Y0046853D01*
X0075338Y0046953D01*
X0075466Y0047049D01*
X0075597Y0047142D01*
X0075731Y0047232D01*
X0075866Y0047319D01*
X0076004Y0047402D01*
X0076143Y0047482D01*
X0076285Y0047558D01*
X0076428Y0047631D01*
X0076573Y0047700D01*
X0076720Y0047766D01*
X0076868Y0047828D01*
X0077018Y0047886D01*
X0077169Y0047941D01*
X0077322Y0047992D01*
X0077476Y0048039D01*
X0077631Y0048082D01*
X0077787Y0048121D01*
X0077943Y0048157D01*
X0078101Y0048188D01*
X0078259Y0048216D01*
X0078418Y0048240D01*
X0078578Y0048260D01*
X0078738Y0048276D01*
X0078898Y0048288D01*
X0079059Y0048296D01*
X0079220Y0048300D01*
X0079380Y0048300D01*
X0079541Y0048296D01*
X0079702Y0048288D01*
X0079862Y0048276D01*
X0080022Y0048260D01*
X0080182Y0048240D01*
X0080341Y0048216D01*
X0080499Y0048188D01*
X0080657Y0048157D01*
X0080813Y0048121D01*
X0080969Y0048082D01*
X0081124Y0048039D01*
X0081278Y0047992D01*
X0081431Y0047941D01*
X0081582Y0047886D01*
X0081732Y0047828D01*
X0081880Y0047766D01*
X0082027Y0047700D01*
X0082172Y0047631D01*
X0082315Y0047558D01*
X0082457Y0047482D01*
X0082596Y0047402D01*
X0082734Y0047319D01*
X0082869Y0047232D01*
X0083003Y0047142D01*
X0083134Y0047049D01*
X0083262Y0046953D01*
X0083388Y0046853D01*
X0083512Y0046750D01*
X0083633Y0046645D01*
X0083752Y0046536D01*
X0083868Y0046425D01*
X0083981Y0046310D01*
X0084091Y0046193D01*
X0084198Y0046073D01*
X0084302Y0045951D01*
X0084403Y0045826D01*
X0084501Y0045698D01*
X0084596Y0045568D01*
X0084688Y0045436D01*
X0084776Y0045302D01*
X0084861Y0045165D01*
X0084943Y0045027D01*
X0085021Y0044886D01*
X0085095Y0044744D01*
X0085166Y0044600D01*
X0085234Y0044454D01*
X0085297Y0044306D01*
X0085358Y0044157D01*
X0085414Y0044006D01*
X0085467Y0043854D01*
X0085516Y0043701D01*
X0085561Y0043547D01*
X0085602Y0043392D01*
X0085640Y0043235D01*
X0085673Y0043078D01*
X0085703Y0042920D01*
X0085729Y0042761D01*
X0085750Y0042602D01*
X0085768Y0042442D01*
X0085782Y0042282D01*
X0085792Y0042121D01*
X0085798Y0041961D01*
X0085800Y0041800D01*
X0085798Y0041639D01*
X0085792Y0041479D01*
X0085782Y0041318D01*
X0085768Y0041158D01*
X0085750Y0040998D01*
X0085729Y0040839D01*
X0085703Y0040680D01*
X0085673Y0040522D01*
X0085640Y0040365D01*
X0085602Y0040208D01*
X0085561Y0040053D01*
X0085516Y0039899D01*
X0085467Y0039746D01*
X0085414Y0039594D01*
X0085358Y0039443D01*
X0085297Y0039294D01*
X0085234Y0039146D01*
X0085166Y0039000D01*
X0085095Y0038856D01*
X0085021Y0038714D01*
X0084943Y0038573D01*
X0084861Y0038435D01*
X0084776Y0038298D01*
X0084688Y0038164D01*
X0084596Y0038032D01*
X0084501Y0037902D01*
X0084403Y0037774D01*
X0084302Y0037649D01*
X0084198Y0037527D01*
X0084091Y0037407D01*
X0083981Y0037290D01*
X0083868Y0037175D01*
X0083752Y0037064D01*
X0083633Y0036955D01*
X0083512Y0036850D01*
X0083388Y0036747D01*
X0083262Y0036647D01*
X0083134Y0036551D01*
X0083003Y0036458D01*
X0082869Y0036368D01*
X0082734Y0036281D01*
X0082596Y0036198D01*
X0082457Y0036118D01*
X0082315Y0036042D01*
X0082172Y0035969D01*
X0082027Y0035900D01*
X0081880Y0035834D01*
X0081732Y0035772D01*
X0081582Y0035714D01*
X0081431Y0035659D01*
X0081278Y0035608D01*
X0081124Y0035561D01*
X0080969Y0035518D01*
X0080813Y0035479D01*
X0080657Y0035443D01*
X0080499Y0035412D01*
X0080341Y0035384D01*
X0080182Y0035360D01*
X0080022Y0035340D01*
X0079862Y0035324D01*
X0079702Y0035312D01*
X0079541Y0035304D01*
X0079380Y0035300D01*
X0079220Y0035300D01*
X0079059Y0035304D01*
X0078898Y0035312D01*
X0078738Y0035324D01*
X0078578Y0035340D01*
X0078418Y0035360D01*
X0078259Y0035384D01*
X0078101Y0035412D01*
X0077943Y0035443D01*
X0077787Y0035479D01*
X0077631Y0035518D01*
X0077476Y0035561D01*
X0077322Y0035608D01*
X0077169Y0035659D01*
X0077018Y0035714D01*
X0076868Y0035772D01*
X0076720Y0035834D01*
X0076573Y0035900D01*
X0076428Y0035969D01*
X0076285Y0036042D01*
X0076143Y0036118D01*
X0076004Y0036198D01*
X0075866Y0036281D01*
X0075731Y0036368D01*
X0075597Y0036458D01*
X0075466Y0036551D01*
X0075338Y0036647D01*
X0075212Y0036747D01*
X0075088Y0036850D01*
X0074967Y0036955D01*
X0074848Y0037064D01*
X0074732Y0037175D01*
X0074619Y0037290D01*
X0074509Y0037407D01*
X0074402Y0037527D01*
X0074298Y0037649D01*
X0074197Y0037774D01*
X0074099Y0037902D01*
X0074004Y0038032D01*
X0073912Y0038164D01*
X0073824Y0038298D01*
X0073739Y0038435D01*
X0073657Y0038573D01*
X0073579Y0038714D01*
X0073505Y0038856D01*
X0073434Y0039000D01*
X0073366Y0039146D01*
X0073303Y0039294D01*
X0073242Y0039443D01*
X0073186Y0039594D01*
X0073133Y0039746D01*
X0073084Y0039899D01*
X0073039Y0040053D01*
X0072998Y0040208D01*
X0072960Y0040365D01*
X0072927Y0040522D01*
X0072897Y0040680D01*
X0072871Y0040839D01*
X0072850Y0040998D01*
X0072832Y0041158D01*
X0072818Y0041318D01*
X0072808Y0041479D01*
X0072802Y0041639D01*
X0072800Y0041800D01*
X0072800Y0146800D02*
X0072802Y0146961D01*
X0072808Y0147121D01*
X0072818Y0147282D01*
X0072832Y0147442D01*
X0072850Y0147602D01*
X0072871Y0147761D01*
X0072897Y0147920D01*
X0072927Y0148078D01*
X0072960Y0148235D01*
X0072998Y0148392D01*
X0073039Y0148547D01*
X0073084Y0148701D01*
X0073133Y0148854D01*
X0073186Y0149006D01*
X0073242Y0149157D01*
X0073303Y0149306D01*
X0073366Y0149454D01*
X0073434Y0149600D01*
X0073505Y0149744D01*
X0073579Y0149886D01*
X0073657Y0150027D01*
X0073739Y0150165D01*
X0073824Y0150302D01*
X0073912Y0150436D01*
X0074004Y0150568D01*
X0074099Y0150698D01*
X0074197Y0150826D01*
X0074298Y0150951D01*
X0074402Y0151073D01*
X0074509Y0151193D01*
X0074619Y0151310D01*
X0074732Y0151425D01*
X0074848Y0151536D01*
X0074967Y0151645D01*
X0075088Y0151750D01*
X0075212Y0151853D01*
X0075338Y0151953D01*
X0075466Y0152049D01*
X0075597Y0152142D01*
X0075731Y0152232D01*
X0075866Y0152319D01*
X0076004Y0152402D01*
X0076143Y0152482D01*
X0076285Y0152558D01*
X0076428Y0152631D01*
X0076573Y0152700D01*
X0076720Y0152766D01*
X0076868Y0152828D01*
X0077018Y0152886D01*
X0077169Y0152941D01*
X0077322Y0152992D01*
X0077476Y0153039D01*
X0077631Y0153082D01*
X0077787Y0153121D01*
X0077943Y0153157D01*
X0078101Y0153188D01*
X0078259Y0153216D01*
X0078418Y0153240D01*
X0078578Y0153260D01*
X0078738Y0153276D01*
X0078898Y0153288D01*
X0079059Y0153296D01*
X0079220Y0153300D01*
X0079380Y0153300D01*
X0079541Y0153296D01*
X0079702Y0153288D01*
X0079862Y0153276D01*
X0080022Y0153260D01*
X0080182Y0153240D01*
X0080341Y0153216D01*
X0080499Y0153188D01*
X0080657Y0153157D01*
X0080813Y0153121D01*
X0080969Y0153082D01*
X0081124Y0153039D01*
X0081278Y0152992D01*
X0081431Y0152941D01*
X0081582Y0152886D01*
X0081732Y0152828D01*
X0081880Y0152766D01*
X0082027Y0152700D01*
X0082172Y0152631D01*
X0082315Y0152558D01*
X0082457Y0152482D01*
X0082596Y0152402D01*
X0082734Y0152319D01*
X0082869Y0152232D01*
X0083003Y0152142D01*
X0083134Y0152049D01*
X0083262Y0151953D01*
X0083388Y0151853D01*
X0083512Y0151750D01*
X0083633Y0151645D01*
X0083752Y0151536D01*
X0083868Y0151425D01*
X0083981Y0151310D01*
X0084091Y0151193D01*
X0084198Y0151073D01*
X0084302Y0150951D01*
X0084403Y0150826D01*
X0084501Y0150698D01*
X0084596Y0150568D01*
X0084688Y0150436D01*
X0084776Y0150302D01*
X0084861Y0150165D01*
X0084943Y0150027D01*
X0085021Y0149886D01*
X0085095Y0149744D01*
X0085166Y0149600D01*
X0085234Y0149454D01*
X0085297Y0149306D01*
X0085358Y0149157D01*
X0085414Y0149006D01*
X0085467Y0148854D01*
X0085516Y0148701D01*
X0085561Y0148547D01*
X0085602Y0148392D01*
X0085640Y0148235D01*
X0085673Y0148078D01*
X0085703Y0147920D01*
X0085729Y0147761D01*
X0085750Y0147602D01*
X0085768Y0147442D01*
X0085782Y0147282D01*
X0085792Y0147121D01*
X0085798Y0146961D01*
X0085800Y0146800D01*
X0085798Y0146639D01*
X0085792Y0146479D01*
X0085782Y0146318D01*
X0085768Y0146158D01*
X0085750Y0145998D01*
X0085729Y0145839D01*
X0085703Y0145680D01*
X0085673Y0145522D01*
X0085640Y0145365D01*
X0085602Y0145208D01*
X0085561Y0145053D01*
X0085516Y0144899D01*
X0085467Y0144746D01*
X0085414Y0144594D01*
X0085358Y0144443D01*
X0085297Y0144294D01*
X0085234Y0144146D01*
X0085166Y0144000D01*
X0085095Y0143856D01*
X0085021Y0143714D01*
X0084943Y0143573D01*
X0084861Y0143435D01*
X0084776Y0143298D01*
X0084688Y0143164D01*
X0084596Y0143032D01*
X0084501Y0142902D01*
X0084403Y0142774D01*
X0084302Y0142649D01*
X0084198Y0142527D01*
X0084091Y0142407D01*
X0083981Y0142290D01*
X0083868Y0142175D01*
X0083752Y0142064D01*
X0083633Y0141955D01*
X0083512Y0141850D01*
X0083388Y0141747D01*
X0083262Y0141647D01*
X0083134Y0141551D01*
X0083003Y0141458D01*
X0082869Y0141368D01*
X0082734Y0141281D01*
X0082596Y0141198D01*
X0082457Y0141118D01*
X0082315Y0141042D01*
X0082172Y0140969D01*
X0082027Y0140900D01*
X0081880Y0140834D01*
X0081732Y0140772D01*
X0081582Y0140714D01*
X0081431Y0140659D01*
X0081278Y0140608D01*
X0081124Y0140561D01*
X0080969Y0140518D01*
X0080813Y0140479D01*
X0080657Y0140443D01*
X0080499Y0140412D01*
X0080341Y0140384D01*
X0080182Y0140360D01*
X0080022Y0140340D01*
X0079862Y0140324D01*
X0079702Y0140312D01*
X0079541Y0140304D01*
X0079380Y0140300D01*
X0079220Y0140300D01*
X0079059Y0140304D01*
X0078898Y0140312D01*
X0078738Y0140324D01*
X0078578Y0140340D01*
X0078418Y0140360D01*
X0078259Y0140384D01*
X0078101Y0140412D01*
X0077943Y0140443D01*
X0077787Y0140479D01*
X0077631Y0140518D01*
X0077476Y0140561D01*
X0077322Y0140608D01*
X0077169Y0140659D01*
X0077018Y0140714D01*
X0076868Y0140772D01*
X0076720Y0140834D01*
X0076573Y0140900D01*
X0076428Y0140969D01*
X0076285Y0141042D01*
X0076143Y0141118D01*
X0076004Y0141198D01*
X0075866Y0141281D01*
X0075731Y0141368D01*
X0075597Y0141458D01*
X0075466Y0141551D01*
X0075338Y0141647D01*
X0075212Y0141747D01*
X0075088Y0141850D01*
X0074967Y0141955D01*
X0074848Y0142064D01*
X0074732Y0142175D01*
X0074619Y0142290D01*
X0074509Y0142407D01*
X0074402Y0142527D01*
X0074298Y0142649D01*
X0074197Y0142774D01*
X0074099Y0142902D01*
X0074004Y0143032D01*
X0073912Y0143164D01*
X0073824Y0143298D01*
X0073739Y0143435D01*
X0073657Y0143573D01*
X0073579Y0143714D01*
X0073505Y0143856D01*
X0073434Y0144000D01*
X0073366Y0144146D01*
X0073303Y0144294D01*
X0073242Y0144443D01*
X0073186Y0144594D01*
X0073133Y0144746D01*
X0073084Y0144899D01*
X0073039Y0145053D01*
X0072998Y0145208D01*
X0072960Y0145365D01*
X0072927Y0145522D01*
X0072897Y0145680D01*
X0072871Y0145839D01*
X0072850Y0145998D01*
X0072832Y0146158D01*
X0072818Y0146318D01*
X0072808Y0146479D01*
X0072802Y0146639D01*
X0072800Y0146800D01*
X0362800Y0146800D02*
X0362802Y0146961D01*
X0362808Y0147121D01*
X0362818Y0147282D01*
X0362832Y0147442D01*
X0362850Y0147602D01*
X0362871Y0147761D01*
X0362897Y0147920D01*
X0362927Y0148078D01*
X0362960Y0148235D01*
X0362998Y0148392D01*
X0363039Y0148547D01*
X0363084Y0148701D01*
X0363133Y0148854D01*
X0363186Y0149006D01*
X0363242Y0149157D01*
X0363303Y0149306D01*
X0363366Y0149454D01*
X0363434Y0149600D01*
X0363505Y0149744D01*
X0363579Y0149886D01*
X0363657Y0150027D01*
X0363739Y0150165D01*
X0363824Y0150302D01*
X0363912Y0150436D01*
X0364004Y0150568D01*
X0364099Y0150698D01*
X0364197Y0150826D01*
X0364298Y0150951D01*
X0364402Y0151073D01*
X0364509Y0151193D01*
X0364619Y0151310D01*
X0364732Y0151425D01*
X0364848Y0151536D01*
X0364967Y0151645D01*
X0365088Y0151750D01*
X0365212Y0151853D01*
X0365338Y0151953D01*
X0365466Y0152049D01*
X0365597Y0152142D01*
X0365731Y0152232D01*
X0365866Y0152319D01*
X0366004Y0152402D01*
X0366143Y0152482D01*
X0366285Y0152558D01*
X0366428Y0152631D01*
X0366573Y0152700D01*
X0366720Y0152766D01*
X0366868Y0152828D01*
X0367018Y0152886D01*
X0367169Y0152941D01*
X0367322Y0152992D01*
X0367476Y0153039D01*
X0367631Y0153082D01*
X0367787Y0153121D01*
X0367943Y0153157D01*
X0368101Y0153188D01*
X0368259Y0153216D01*
X0368418Y0153240D01*
X0368578Y0153260D01*
X0368738Y0153276D01*
X0368898Y0153288D01*
X0369059Y0153296D01*
X0369220Y0153300D01*
X0369380Y0153300D01*
X0369541Y0153296D01*
X0369702Y0153288D01*
X0369862Y0153276D01*
X0370022Y0153260D01*
X0370182Y0153240D01*
X0370341Y0153216D01*
X0370499Y0153188D01*
X0370657Y0153157D01*
X0370813Y0153121D01*
X0370969Y0153082D01*
X0371124Y0153039D01*
X0371278Y0152992D01*
X0371431Y0152941D01*
X0371582Y0152886D01*
X0371732Y0152828D01*
X0371880Y0152766D01*
X0372027Y0152700D01*
X0372172Y0152631D01*
X0372315Y0152558D01*
X0372457Y0152482D01*
X0372596Y0152402D01*
X0372734Y0152319D01*
X0372869Y0152232D01*
X0373003Y0152142D01*
X0373134Y0152049D01*
X0373262Y0151953D01*
X0373388Y0151853D01*
X0373512Y0151750D01*
X0373633Y0151645D01*
X0373752Y0151536D01*
X0373868Y0151425D01*
X0373981Y0151310D01*
X0374091Y0151193D01*
X0374198Y0151073D01*
X0374302Y0150951D01*
X0374403Y0150826D01*
X0374501Y0150698D01*
X0374596Y0150568D01*
X0374688Y0150436D01*
X0374776Y0150302D01*
X0374861Y0150165D01*
X0374943Y0150027D01*
X0375021Y0149886D01*
X0375095Y0149744D01*
X0375166Y0149600D01*
X0375234Y0149454D01*
X0375297Y0149306D01*
X0375358Y0149157D01*
X0375414Y0149006D01*
X0375467Y0148854D01*
X0375516Y0148701D01*
X0375561Y0148547D01*
X0375602Y0148392D01*
X0375640Y0148235D01*
X0375673Y0148078D01*
X0375703Y0147920D01*
X0375729Y0147761D01*
X0375750Y0147602D01*
X0375768Y0147442D01*
X0375782Y0147282D01*
X0375792Y0147121D01*
X0375798Y0146961D01*
X0375800Y0146800D01*
X0375798Y0146639D01*
X0375792Y0146479D01*
X0375782Y0146318D01*
X0375768Y0146158D01*
X0375750Y0145998D01*
X0375729Y0145839D01*
X0375703Y0145680D01*
X0375673Y0145522D01*
X0375640Y0145365D01*
X0375602Y0145208D01*
X0375561Y0145053D01*
X0375516Y0144899D01*
X0375467Y0144746D01*
X0375414Y0144594D01*
X0375358Y0144443D01*
X0375297Y0144294D01*
X0375234Y0144146D01*
X0375166Y0144000D01*
X0375095Y0143856D01*
X0375021Y0143714D01*
X0374943Y0143573D01*
X0374861Y0143435D01*
X0374776Y0143298D01*
X0374688Y0143164D01*
X0374596Y0143032D01*
X0374501Y0142902D01*
X0374403Y0142774D01*
X0374302Y0142649D01*
X0374198Y0142527D01*
X0374091Y0142407D01*
X0373981Y0142290D01*
X0373868Y0142175D01*
X0373752Y0142064D01*
X0373633Y0141955D01*
X0373512Y0141850D01*
X0373388Y0141747D01*
X0373262Y0141647D01*
X0373134Y0141551D01*
X0373003Y0141458D01*
X0372869Y0141368D01*
X0372734Y0141281D01*
X0372596Y0141198D01*
X0372457Y0141118D01*
X0372315Y0141042D01*
X0372172Y0140969D01*
X0372027Y0140900D01*
X0371880Y0140834D01*
X0371732Y0140772D01*
X0371582Y0140714D01*
X0371431Y0140659D01*
X0371278Y0140608D01*
X0371124Y0140561D01*
X0370969Y0140518D01*
X0370813Y0140479D01*
X0370657Y0140443D01*
X0370499Y0140412D01*
X0370341Y0140384D01*
X0370182Y0140360D01*
X0370022Y0140340D01*
X0369862Y0140324D01*
X0369702Y0140312D01*
X0369541Y0140304D01*
X0369380Y0140300D01*
X0369220Y0140300D01*
X0369059Y0140304D01*
X0368898Y0140312D01*
X0368738Y0140324D01*
X0368578Y0140340D01*
X0368418Y0140360D01*
X0368259Y0140384D01*
X0368101Y0140412D01*
X0367943Y0140443D01*
X0367787Y0140479D01*
X0367631Y0140518D01*
X0367476Y0140561D01*
X0367322Y0140608D01*
X0367169Y0140659D01*
X0367018Y0140714D01*
X0366868Y0140772D01*
X0366720Y0140834D01*
X0366573Y0140900D01*
X0366428Y0140969D01*
X0366285Y0141042D01*
X0366143Y0141118D01*
X0366004Y0141198D01*
X0365866Y0141281D01*
X0365731Y0141368D01*
X0365597Y0141458D01*
X0365466Y0141551D01*
X0365338Y0141647D01*
X0365212Y0141747D01*
X0365088Y0141850D01*
X0364967Y0141955D01*
X0364848Y0142064D01*
X0364732Y0142175D01*
X0364619Y0142290D01*
X0364509Y0142407D01*
X0364402Y0142527D01*
X0364298Y0142649D01*
X0364197Y0142774D01*
X0364099Y0142902D01*
X0364004Y0143032D01*
X0363912Y0143164D01*
X0363824Y0143298D01*
X0363739Y0143435D01*
X0363657Y0143573D01*
X0363579Y0143714D01*
X0363505Y0143856D01*
X0363434Y0144000D01*
X0363366Y0144146D01*
X0363303Y0144294D01*
X0363242Y0144443D01*
X0363186Y0144594D01*
X0363133Y0144746D01*
X0363084Y0144899D01*
X0363039Y0145053D01*
X0362998Y0145208D01*
X0362960Y0145365D01*
X0362927Y0145522D01*
X0362897Y0145680D01*
X0362871Y0145839D01*
X0362850Y0145998D01*
X0362832Y0146158D01*
X0362818Y0146318D01*
X0362808Y0146479D01*
X0362802Y0146639D01*
X0362800Y0146800D01*
X0362800Y0041800D02*
X0362802Y0041961D01*
X0362808Y0042121D01*
X0362818Y0042282D01*
X0362832Y0042442D01*
X0362850Y0042602D01*
X0362871Y0042761D01*
X0362897Y0042920D01*
X0362927Y0043078D01*
X0362960Y0043235D01*
X0362998Y0043392D01*
X0363039Y0043547D01*
X0363084Y0043701D01*
X0363133Y0043854D01*
X0363186Y0044006D01*
X0363242Y0044157D01*
X0363303Y0044306D01*
X0363366Y0044454D01*
X0363434Y0044600D01*
X0363505Y0044744D01*
X0363579Y0044886D01*
X0363657Y0045027D01*
X0363739Y0045165D01*
X0363824Y0045302D01*
X0363912Y0045436D01*
X0364004Y0045568D01*
X0364099Y0045698D01*
X0364197Y0045826D01*
X0364298Y0045951D01*
X0364402Y0046073D01*
X0364509Y0046193D01*
X0364619Y0046310D01*
X0364732Y0046425D01*
X0364848Y0046536D01*
X0364967Y0046645D01*
X0365088Y0046750D01*
X0365212Y0046853D01*
X0365338Y0046953D01*
X0365466Y0047049D01*
X0365597Y0047142D01*
X0365731Y0047232D01*
X0365866Y0047319D01*
X0366004Y0047402D01*
X0366143Y0047482D01*
X0366285Y0047558D01*
X0366428Y0047631D01*
X0366573Y0047700D01*
X0366720Y0047766D01*
X0366868Y0047828D01*
X0367018Y0047886D01*
X0367169Y0047941D01*
X0367322Y0047992D01*
X0367476Y0048039D01*
X0367631Y0048082D01*
X0367787Y0048121D01*
X0367943Y0048157D01*
X0368101Y0048188D01*
X0368259Y0048216D01*
X0368418Y0048240D01*
X0368578Y0048260D01*
X0368738Y0048276D01*
X0368898Y0048288D01*
X0369059Y0048296D01*
X0369220Y0048300D01*
X0369380Y0048300D01*
X0369541Y0048296D01*
X0369702Y0048288D01*
X0369862Y0048276D01*
X0370022Y0048260D01*
X0370182Y0048240D01*
X0370341Y0048216D01*
X0370499Y0048188D01*
X0370657Y0048157D01*
X0370813Y0048121D01*
X0370969Y0048082D01*
X0371124Y0048039D01*
X0371278Y0047992D01*
X0371431Y0047941D01*
X0371582Y0047886D01*
X0371732Y0047828D01*
X0371880Y0047766D01*
X0372027Y0047700D01*
X0372172Y0047631D01*
X0372315Y0047558D01*
X0372457Y0047482D01*
X0372596Y0047402D01*
X0372734Y0047319D01*
X0372869Y0047232D01*
X0373003Y0047142D01*
X0373134Y0047049D01*
X0373262Y0046953D01*
X0373388Y0046853D01*
X0373512Y0046750D01*
X0373633Y0046645D01*
X0373752Y0046536D01*
X0373868Y0046425D01*
X0373981Y0046310D01*
X0374091Y0046193D01*
X0374198Y0046073D01*
X0374302Y0045951D01*
X0374403Y0045826D01*
X0374501Y0045698D01*
X0374596Y0045568D01*
X0374688Y0045436D01*
X0374776Y0045302D01*
X0374861Y0045165D01*
X0374943Y0045027D01*
X0375021Y0044886D01*
X0375095Y0044744D01*
X0375166Y0044600D01*
X0375234Y0044454D01*
X0375297Y0044306D01*
X0375358Y0044157D01*
X0375414Y0044006D01*
X0375467Y0043854D01*
X0375516Y0043701D01*
X0375561Y0043547D01*
X0375602Y0043392D01*
X0375640Y0043235D01*
X0375673Y0043078D01*
X0375703Y0042920D01*
X0375729Y0042761D01*
X0375750Y0042602D01*
X0375768Y0042442D01*
X0375782Y0042282D01*
X0375792Y0042121D01*
X0375798Y0041961D01*
X0375800Y0041800D01*
X0375798Y0041639D01*
X0375792Y0041479D01*
X0375782Y0041318D01*
X0375768Y0041158D01*
X0375750Y0040998D01*
X0375729Y0040839D01*
X0375703Y0040680D01*
X0375673Y0040522D01*
X0375640Y0040365D01*
X0375602Y0040208D01*
X0375561Y0040053D01*
X0375516Y0039899D01*
X0375467Y0039746D01*
X0375414Y0039594D01*
X0375358Y0039443D01*
X0375297Y0039294D01*
X0375234Y0039146D01*
X0375166Y0039000D01*
X0375095Y0038856D01*
X0375021Y0038714D01*
X0374943Y0038573D01*
X0374861Y0038435D01*
X0374776Y0038298D01*
X0374688Y0038164D01*
X0374596Y0038032D01*
X0374501Y0037902D01*
X0374403Y0037774D01*
X0374302Y0037649D01*
X0374198Y0037527D01*
X0374091Y0037407D01*
X0373981Y0037290D01*
X0373868Y0037175D01*
X0373752Y0037064D01*
X0373633Y0036955D01*
X0373512Y0036850D01*
X0373388Y0036747D01*
X0373262Y0036647D01*
X0373134Y0036551D01*
X0373003Y0036458D01*
X0372869Y0036368D01*
X0372734Y0036281D01*
X0372596Y0036198D01*
X0372457Y0036118D01*
X0372315Y0036042D01*
X0372172Y0035969D01*
X0372027Y0035900D01*
X0371880Y0035834D01*
X0371732Y0035772D01*
X0371582Y0035714D01*
X0371431Y0035659D01*
X0371278Y0035608D01*
X0371124Y0035561D01*
X0370969Y0035518D01*
X0370813Y0035479D01*
X0370657Y0035443D01*
X0370499Y0035412D01*
X0370341Y0035384D01*
X0370182Y0035360D01*
X0370022Y0035340D01*
X0369862Y0035324D01*
X0369702Y0035312D01*
X0369541Y0035304D01*
X0369380Y0035300D01*
X0369220Y0035300D01*
X0369059Y0035304D01*
X0368898Y0035312D01*
X0368738Y0035324D01*
X0368578Y0035340D01*
X0368418Y0035360D01*
X0368259Y0035384D01*
X0368101Y0035412D01*
X0367943Y0035443D01*
X0367787Y0035479D01*
X0367631Y0035518D01*
X0367476Y0035561D01*
X0367322Y0035608D01*
X0367169Y0035659D01*
X0367018Y0035714D01*
X0366868Y0035772D01*
X0366720Y0035834D01*
X0366573Y0035900D01*
X0366428Y0035969D01*
X0366285Y0036042D01*
X0366143Y0036118D01*
X0366004Y0036198D01*
X0365866Y0036281D01*
X0365731Y0036368D01*
X0365597Y0036458D01*
X0365466Y0036551D01*
X0365338Y0036647D01*
X0365212Y0036747D01*
X0365088Y0036850D01*
X0364967Y0036955D01*
X0364848Y0037064D01*
X0364732Y0037175D01*
X0364619Y0037290D01*
X0364509Y0037407D01*
X0364402Y0037527D01*
X0364298Y0037649D01*
X0364197Y0037774D01*
X0364099Y0037902D01*
X0364004Y0038032D01*
X0363912Y0038164D01*
X0363824Y0038298D01*
X0363739Y0038435D01*
X0363657Y0038573D01*
X0363579Y0038714D01*
X0363505Y0038856D01*
X0363434Y0039000D01*
X0363366Y0039146D01*
X0363303Y0039294D01*
X0363242Y0039443D01*
X0363186Y0039594D01*
X0363133Y0039746D01*
X0363084Y0039899D01*
X0363039Y0040053D01*
X0362998Y0040208D01*
X0362960Y0040365D01*
X0362927Y0040522D01*
X0362897Y0040680D01*
X0362871Y0040839D01*
X0362850Y0040998D01*
X0362832Y0041158D01*
X0362818Y0041318D01*
X0362808Y0041479D01*
X0362802Y0041639D01*
X0362800Y0041800D01*
D11*
X0369300Y0041800D03*
X0369300Y0146800D03*
X0079300Y0146800D03*
X0079300Y0041800D03*
D12*
X0119300Y0026800D03*
X0119300Y0016800D03*
X0019300Y0016800D03*
X0019300Y0026800D03*
X0019300Y0066800D03*
X0019300Y0076800D03*
X0019300Y0116800D03*
X0019300Y0126800D03*
X0019300Y0166800D03*
X0019300Y0176800D03*
X0119300Y0176800D03*
X0119300Y0166800D03*
X0119300Y0126800D03*
X0119300Y0116800D03*
X0119300Y0076800D03*
X0119300Y0066800D03*
X0219300Y0066800D03*
X0219300Y0076800D03*
X0219300Y0116800D03*
X0219300Y0126800D03*
X0219300Y0166800D03*
X0219300Y0176800D03*
X0319300Y0176800D03*
X0319300Y0166800D03*
X0319300Y0126800D03*
X0319300Y0116800D03*
X0319300Y0076800D03*
X0319300Y0066800D03*
X0319300Y0026800D03*
X0319300Y0016800D03*
X0419300Y0016800D03*
X0419300Y0026800D03*
X0419300Y0066800D03*
X0419300Y0076800D03*
X0419300Y0116800D03*
X0419300Y0126800D03*
X0419300Y0166800D03*
X0419300Y0176800D03*
X0219300Y0026800D03*
X0219300Y0016800D03*
D13*
X0219300Y0036800D03*
X0249300Y0036800D03*
X0241800Y0051800D03*
X0211800Y0051800D03*
X0149300Y0054300D03*
X0119300Y0054300D03*
X0119300Y0036800D03*
X0149300Y0036800D03*
X0049300Y0036800D03*
X0019300Y0036800D03*
X0019300Y0054300D03*
X0049300Y0054300D03*
X0049300Y0136800D03*
X0019300Y0136800D03*
X0019300Y0154300D03*
X0049300Y0154300D03*
X0119300Y0154300D03*
X0149300Y0154300D03*
X0149300Y0136800D03*
X0119300Y0136800D03*
X0209300Y0154300D03*
X0239300Y0154300D03*
X0249300Y0136800D03*
X0219300Y0136800D03*
X0309300Y0136800D03*
X0339300Y0136800D03*
X0339300Y0154300D03*
X0309300Y0154300D03*
X0401800Y0146800D03*
X0401800Y0136800D03*
X0431800Y0136800D03*
X0401800Y0176800D03*
X0404300Y0076800D03*
X0339300Y0054300D03*
X0309300Y0054300D03*
X0319300Y0036800D03*
X0349300Y0036800D03*
X0396800Y0036800D03*
X0404300Y0046800D03*
X0426800Y0036800D03*
D14*
X0429300Y0093800D02*
X0429300Y0099800D01*
X0419300Y0099800D02*
X0419300Y0093800D01*
X0409300Y0093800D02*
X0409300Y0099800D01*
X0399300Y0099800D02*
X0399300Y0093800D01*
X0389300Y0093800D02*
X0389300Y0099800D01*
X0344300Y0099800D02*
X0344300Y0093800D01*
X0334300Y0093800D02*
X0334300Y0099800D01*
X0324300Y0099800D02*
X0324300Y0093800D01*
X0314300Y0093800D02*
X0314300Y0099800D01*
X0304300Y0099800D02*
X0304300Y0093800D01*
X0244300Y0093800D02*
X0244300Y0099800D01*
X0234300Y0099800D02*
X0234300Y0093800D01*
X0224300Y0093800D02*
X0224300Y0099800D01*
X0214300Y0099800D02*
X0214300Y0093800D01*
X0204300Y0093800D02*
X0204300Y0099800D01*
X0144300Y0099800D02*
X0144300Y0093800D01*
X0134300Y0093800D02*
X0134300Y0099800D01*
X0124300Y0099800D02*
X0124300Y0093800D01*
X0114300Y0093800D02*
X0114300Y0099800D01*
X0104300Y0099800D02*
X0104300Y0093800D01*
X0054300Y0093800D02*
X0054300Y0099800D01*
X0044300Y0099800D02*
X0044300Y0093800D01*
X0034300Y0093800D02*
X0034300Y0099800D01*
X0024300Y0099800D02*
X0024300Y0093800D01*
X0014300Y0093800D02*
X0014300Y0099800D01*
D15*
X0059300Y0179300D03*
X0096800Y0179300D03*
X0256800Y0179300D03*
X0276800Y0179300D03*
X0364300Y0179300D03*
X0364300Y0009300D03*
X0276800Y0009300D03*
X0256800Y0009300D03*
X0096800Y0009300D03*
X0059300Y0009300D03*
M02*
