G75*
G70*
%OFA0B0*%
%FSLAX24Y24*%
%IPPOS*%
%LPD*%
%AMOC8*
5,1,8,0,0,1.08239X$1,22.5*
%
%ADD10C,0.0000*%
%ADD11C,0.0090*%
%ADD12C,0.0040*%
D10*
X000181Y000181D02*
X000181Y018801D01*
X044674Y018801D01*
X044674Y000181D01*
X000181Y000181D01*
X007281Y004181D02*
X007283Y004231D01*
X007289Y004281D01*
X007299Y004331D01*
X007312Y004379D01*
X007329Y004427D01*
X007350Y004473D01*
X007374Y004517D01*
X007402Y004559D01*
X007433Y004599D01*
X007467Y004636D01*
X007504Y004671D01*
X007543Y004702D01*
X007584Y004731D01*
X007628Y004756D01*
X007674Y004778D01*
X007721Y004796D01*
X007769Y004810D01*
X007818Y004821D01*
X007868Y004828D01*
X007918Y004831D01*
X007969Y004830D01*
X008019Y004825D01*
X008069Y004816D01*
X008117Y004804D01*
X008165Y004787D01*
X008211Y004767D01*
X008256Y004744D01*
X008299Y004717D01*
X008339Y004687D01*
X008377Y004654D01*
X008412Y004618D01*
X008445Y004579D01*
X008474Y004538D01*
X008500Y004495D01*
X008523Y004450D01*
X008542Y004403D01*
X008557Y004355D01*
X008569Y004306D01*
X008577Y004256D01*
X008581Y004206D01*
X008581Y004156D01*
X008577Y004106D01*
X008569Y004056D01*
X008557Y004007D01*
X008542Y003959D01*
X008523Y003912D01*
X008500Y003867D01*
X008474Y003824D01*
X008445Y003783D01*
X008412Y003744D01*
X008377Y003708D01*
X008339Y003675D01*
X008299Y003645D01*
X008256Y003618D01*
X008211Y003595D01*
X008165Y003575D01*
X008117Y003558D01*
X008069Y003546D01*
X008019Y003537D01*
X007969Y003532D01*
X007918Y003531D01*
X007868Y003534D01*
X007818Y003541D01*
X007769Y003552D01*
X007721Y003566D01*
X007674Y003584D01*
X007628Y003606D01*
X007584Y003631D01*
X007543Y003660D01*
X007504Y003691D01*
X007467Y003726D01*
X007433Y003763D01*
X007402Y003803D01*
X007374Y003845D01*
X007350Y003889D01*
X007329Y003935D01*
X007312Y003983D01*
X007299Y004031D01*
X007289Y004081D01*
X007283Y004131D01*
X007281Y004181D01*
X007281Y014681D02*
X007283Y014731D01*
X007289Y014781D01*
X007299Y014831D01*
X007312Y014879D01*
X007329Y014927D01*
X007350Y014973D01*
X007374Y015017D01*
X007402Y015059D01*
X007433Y015099D01*
X007467Y015136D01*
X007504Y015171D01*
X007543Y015202D01*
X007584Y015231D01*
X007628Y015256D01*
X007674Y015278D01*
X007721Y015296D01*
X007769Y015310D01*
X007818Y015321D01*
X007868Y015328D01*
X007918Y015331D01*
X007969Y015330D01*
X008019Y015325D01*
X008069Y015316D01*
X008117Y015304D01*
X008165Y015287D01*
X008211Y015267D01*
X008256Y015244D01*
X008299Y015217D01*
X008339Y015187D01*
X008377Y015154D01*
X008412Y015118D01*
X008445Y015079D01*
X008474Y015038D01*
X008500Y014995D01*
X008523Y014950D01*
X008542Y014903D01*
X008557Y014855D01*
X008569Y014806D01*
X008577Y014756D01*
X008581Y014706D01*
X008581Y014656D01*
X008577Y014606D01*
X008569Y014556D01*
X008557Y014507D01*
X008542Y014459D01*
X008523Y014412D01*
X008500Y014367D01*
X008474Y014324D01*
X008445Y014283D01*
X008412Y014244D01*
X008377Y014208D01*
X008339Y014175D01*
X008299Y014145D01*
X008256Y014118D01*
X008211Y014095D01*
X008165Y014075D01*
X008117Y014058D01*
X008069Y014046D01*
X008019Y014037D01*
X007969Y014032D01*
X007918Y014031D01*
X007868Y014034D01*
X007818Y014041D01*
X007769Y014052D01*
X007721Y014066D01*
X007674Y014084D01*
X007628Y014106D01*
X007584Y014131D01*
X007543Y014160D01*
X007504Y014191D01*
X007467Y014226D01*
X007433Y014263D01*
X007402Y014303D01*
X007374Y014345D01*
X007350Y014389D01*
X007329Y014435D01*
X007312Y014483D01*
X007299Y014531D01*
X007289Y014581D01*
X007283Y014631D01*
X007281Y014681D01*
X036281Y014681D02*
X036283Y014731D01*
X036289Y014781D01*
X036299Y014831D01*
X036312Y014879D01*
X036329Y014927D01*
X036350Y014973D01*
X036374Y015017D01*
X036402Y015059D01*
X036433Y015099D01*
X036467Y015136D01*
X036504Y015171D01*
X036543Y015202D01*
X036584Y015231D01*
X036628Y015256D01*
X036674Y015278D01*
X036721Y015296D01*
X036769Y015310D01*
X036818Y015321D01*
X036868Y015328D01*
X036918Y015331D01*
X036969Y015330D01*
X037019Y015325D01*
X037069Y015316D01*
X037117Y015304D01*
X037165Y015287D01*
X037211Y015267D01*
X037256Y015244D01*
X037299Y015217D01*
X037339Y015187D01*
X037377Y015154D01*
X037412Y015118D01*
X037445Y015079D01*
X037474Y015038D01*
X037500Y014995D01*
X037523Y014950D01*
X037542Y014903D01*
X037557Y014855D01*
X037569Y014806D01*
X037577Y014756D01*
X037581Y014706D01*
X037581Y014656D01*
X037577Y014606D01*
X037569Y014556D01*
X037557Y014507D01*
X037542Y014459D01*
X037523Y014412D01*
X037500Y014367D01*
X037474Y014324D01*
X037445Y014283D01*
X037412Y014244D01*
X037377Y014208D01*
X037339Y014175D01*
X037299Y014145D01*
X037256Y014118D01*
X037211Y014095D01*
X037165Y014075D01*
X037117Y014058D01*
X037069Y014046D01*
X037019Y014037D01*
X036969Y014032D01*
X036918Y014031D01*
X036868Y014034D01*
X036818Y014041D01*
X036769Y014052D01*
X036721Y014066D01*
X036674Y014084D01*
X036628Y014106D01*
X036584Y014131D01*
X036543Y014160D01*
X036504Y014191D01*
X036467Y014226D01*
X036433Y014263D01*
X036402Y014303D01*
X036374Y014345D01*
X036350Y014389D01*
X036329Y014435D01*
X036312Y014483D01*
X036299Y014531D01*
X036289Y014581D01*
X036283Y014631D01*
X036281Y014681D01*
X036281Y004181D02*
X036283Y004231D01*
X036289Y004281D01*
X036299Y004331D01*
X036312Y004379D01*
X036329Y004427D01*
X036350Y004473D01*
X036374Y004517D01*
X036402Y004559D01*
X036433Y004599D01*
X036467Y004636D01*
X036504Y004671D01*
X036543Y004702D01*
X036584Y004731D01*
X036628Y004756D01*
X036674Y004778D01*
X036721Y004796D01*
X036769Y004810D01*
X036818Y004821D01*
X036868Y004828D01*
X036918Y004831D01*
X036969Y004830D01*
X037019Y004825D01*
X037069Y004816D01*
X037117Y004804D01*
X037165Y004787D01*
X037211Y004767D01*
X037256Y004744D01*
X037299Y004717D01*
X037339Y004687D01*
X037377Y004654D01*
X037412Y004618D01*
X037445Y004579D01*
X037474Y004538D01*
X037500Y004495D01*
X037523Y004450D01*
X037542Y004403D01*
X037557Y004355D01*
X037569Y004306D01*
X037577Y004256D01*
X037581Y004206D01*
X037581Y004156D01*
X037577Y004106D01*
X037569Y004056D01*
X037557Y004007D01*
X037542Y003959D01*
X037523Y003912D01*
X037500Y003867D01*
X037474Y003824D01*
X037445Y003783D01*
X037412Y003744D01*
X037377Y003708D01*
X037339Y003675D01*
X037299Y003645D01*
X037256Y003618D01*
X037211Y003595D01*
X037165Y003575D01*
X037117Y003558D01*
X037069Y003546D01*
X037019Y003537D01*
X036969Y003532D01*
X036918Y003531D01*
X036868Y003534D01*
X036818Y003541D01*
X036769Y003552D01*
X036721Y003566D01*
X036674Y003584D01*
X036628Y003606D01*
X036584Y003631D01*
X036543Y003660D01*
X036504Y003691D01*
X036467Y003726D01*
X036433Y003763D01*
X036402Y003803D01*
X036374Y003845D01*
X036350Y003889D01*
X036329Y003935D01*
X036312Y003983D01*
X036299Y004031D01*
X036289Y004081D01*
X036283Y004131D01*
X036281Y004181D01*
D11*
X034144Y004226D02*
X034144Y004737D01*
X033889Y004737D01*
X033804Y004652D01*
X033804Y004482D01*
X033889Y004397D01*
X034144Y004397D01*
X033974Y004397D02*
X033804Y004226D01*
X033591Y004226D02*
X033251Y004567D01*
X033251Y004652D01*
X033336Y004737D01*
X033506Y004737D01*
X033591Y004652D01*
X033039Y004737D02*
X033039Y004482D01*
X032869Y004567D01*
X032784Y004567D01*
X032699Y004482D01*
X032699Y004311D01*
X032784Y004226D01*
X032954Y004226D01*
X033039Y004311D01*
X033251Y004226D02*
X033591Y004226D01*
X033039Y004737D02*
X032699Y004737D01*
X030036Y005126D02*
X030036Y005637D01*
X029781Y005637D01*
X029696Y005552D01*
X029696Y005382D01*
X029781Y005297D01*
X030036Y005297D01*
X029866Y005297D02*
X029696Y005126D01*
X029484Y005126D02*
X029144Y005467D01*
X029144Y005552D01*
X029229Y005637D01*
X029399Y005637D01*
X029484Y005552D01*
X028932Y005637D02*
X028591Y005637D01*
X028591Y005552D01*
X028932Y005211D01*
X028932Y005126D01*
X029144Y005126D02*
X029484Y005126D01*
X027136Y006976D02*
X026796Y006976D01*
X026584Y006976D02*
X026244Y006976D01*
X026032Y006976D02*
X025776Y006976D01*
X025691Y007061D01*
X025691Y007402D01*
X025776Y007487D01*
X026032Y007487D01*
X026032Y006976D01*
X026584Y006976D02*
X026584Y007487D01*
X026244Y007487D01*
X026414Y007232D02*
X026584Y007232D01*
X027136Y007487D02*
X027136Y006976D01*
X025479Y006976D02*
X025139Y006976D01*
X025309Y006976D02*
X025309Y007487D01*
X025479Y007317D01*
X024927Y007402D02*
X024927Y007061D01*
X024586Y007402D01*
X024586Y007061D01*
X024671Y006976D01*
X024842Y006976D01*
X024927Y007061D01*
X024374Y006976D02*
X024119Y006976D01*
X024034Y007061D01*
X024034Y007147D01*
X024119Y007232D01*
X024374Y007232D01*
X024374Y007487D02*
X024119Y007487D01*
X024034Y007402D01*
X024034Y007317D01*
X024119Y007232D01*
X024374Y007487D02*
X024374Y006976D01*
X024586Y007402D02*
X024671Y007487D01*
X024842Y007487D01*
X024927Y007402D01*
X024894Y006237D02*
X024639Y006237D01*
X024554Y006152D01*
X024554Y005982D01*
X024639Y005897D01*
X024894Y005897D01*
X024724Y005897D02*
X024554Y005726D01*
X024341Y005726D02*
X024001Y005726D01*
X024171Y005726D02*
X024171Y006237D01*
X024341Y006067D01*
X023789Y006067D02*
X023704Y005982D01*
X023449Y005982D01*
X023449Y006152D02*
X023449Y005811D01*
X023534Y005726D01*
X023704Y005726D01*
X023789Y005811D01*
X023789Y006067D02*
X023789Y006152D01*
X023704Y006237D01*
X023534Y006237D01*
X023449Y006152D01*
X024894Y006237D02*
X024894Y005726D01*
X024921Y002987D02*
X024921Y002476D01*
X025091Y002476D02*
X024751Y002476D01*
X024539Y002476D02*
X024539Y002561D01*
X024199Y002902D01*
X024199Y002987D01*
X024539Y002987D01*
X024921Y002987D02*
X025091Y002817D01*
X025304Y002902D02*
X025304Y002732D01*
X025389Y002647D01*
X025644Y002647D01*
X025474Y002647D02*
X025304Y002476D01*
X025644Y002476D02*
X025644Y002987D01*
X025389Y002987D01*
X025304Y002902D01*
X028099Y002552D02*
X028099Y002467D01*
X028184Y002382D01*
X028439Y002382D01*
X028651Y002467D02*
X028736Y002382D01*
X028651Y002297D01*
X028651Y002211D01*
X028736Y002126D01*
X028906Y002126D01*
X028991Y002211D01*
X029204Y002126D02*
X029544Y002126D01*
X029374Y002126D02*
X029374Y002637D01*
X029544Y002467D01*
X029756Y002552D02*
X029841Y002637D01*
X030096Y002637D01*
X030096Y002126D01*
X029841Y002126D01*
X029756Y002211D01*
X029756Y002552D01*
X030309Y002637D02*
X030649Y002637D01*
X030649Y002126D01*
X030309Y002126D01*
X030479Y002382D02*
X030649Y002382D01*
X030861Y002126D02*
X031201Y002126D01*
X031201Y002637D01*
X028991Y002552D02*
X028906Y002637D01*
X028736Y002637D01*
X028651Y002552D01*
X028651Y002467D01*
X028736Y002382D02*
X028821Y002382D01*
X028439Y002126D02*
X028439Y002637D01*
X028184Y002637D01*
X028099Y002552D01*
X028184Y002382D02*
X028099Y002297D01*
X028099Y002211D01*
X028184Y002126D01*
X028439Y002126D01*
X021136Y002226D02*
X020796Y002226D01*
X020584Y002226D02*
X020244Y002226D01*
X020032Y002226D02*
X019776Y002226D01*
X019691Y002311D01*
X019691Y002652D01*
X019776Y002737D01*
X020032Y002737D01*
X020032Y002226D01*
X020584Y002226D02*
X020584Y002737D01*
X020244Y002737D01*
X020414Y002482D02*
X020584Y002482D01*
X021136Y002737D02*
X021136Y002226D01*
X019479Y002311D02*
X019394Y002226D01*
X019224Y002226D01*
X019139Y002311D01*
X019139Y002652D01*
X019224Y002737D01*
X019394Y002737D01*
X019479Y002652D01*
X019479Y002567D01*
X019394Y002482D01*
X019139Y002482D01*
X018927Y002482D02*
X018671Y002482D01*
X018586Y002397D01*
X018586Y002311D01*
X018671Y002226D01*
X018927Y002226D01*
X018927Y002737D01*
X018671Y002737D01*
X018586Y002652D01*
X018586Y002567D01*
X018671Y002482D01*
X016386Y002237D02*
X016386Y001726D01*
X016046Y001726D01*
X015834Y001726D02*
X015494Y001726D01*
X015282Y001726D02*
X015026Y001726D01*
X014941Y001811D01*
X014941Y002152D01*
X015026Y002237D01*
X015282Y002237D01*
X015282Y001726D01*
X015664Y001982D02*
X015834Y001982D01*
X015834Y002237D02*
X015494Y002237D01*
X015834Y002237D02*
X015834Y001726D01*
X014729Y001811D02*
X014644Y001726D01*
X014474Y001726D01*
X014389Y001811D01*
X014389Y001982D01*
X014474Y002067D01*
X014559Y002067D01*
X014729Y001982D01*
X014729Y002237D01*
X014389Y002237D01*
X014177Y002237D02*
X013921Y002237D01*
X013836Y002152D01*
X013836Y002067D01*
X013921Y001982D01*
X014177Y001982D01*
X014177Y002237D02*
X014177Y001726D01*
X013921Y001726D01*
X013836Y001811D01*
X013836Y001897D01*
X013921Y001982D01*
X013954Y002476D02*
X013784Y002476D01*
X013699Y002561D01*
X013699Y002902D01*
X013784Y002987D01*
X013954Y002987D01*
X014039Y002902D01*
X014039Y002817D01*
X013954Y002732D01*
X013699Y002732D01*
X013954Y002476D02*
X014039Y002561D01*
X014251Y002476D02*
X014421Y002647D01*
X014336Y002647D02*
X014591Y002647D01*
X014591Y002476D02*
X014591Y002987D01*
X014336Y002987D01*
X014251Y002902D01*
X014251Y002732D01*
X014336Y002647D01*
X006386Y002737D02*
X006386Y002226D01*
X006046Y002226D01*
X005834Y002226D02*
X005494Y002226D01*
X005282Y002226D02*
X005026Y002226D01*
X004941Y002311D01*
X004941Y002652D01*
X005026Y002737D01*
X005282Y002737D01*
X005282Y002226D01*
X004729Y002226D02*
X004389Y002226D01*
X004559Y002226D02*
X004559Y002737D01*
X004729Y002567D01*
X004177Y002482D02*
X003921Y002482D01*
X003836Y002397D01*
X003836Y002311D01*
X003921Y002226D01*
X004177Y002226D01*
X004177Y002737D01*
X003921Y002737D01*
X003836Y002652D01*
X003836Y002567D01*
X003921Y002482D01*
X005494Y002737D02*
X005834Y002737D01*
X005834Y002226D01*
X005834Y002482D02*
X005664Y002482D01*
X004786Y004376D02*
X004786Y004887D01*
X004531Y004887D01*
X004446Y004802D01*
X004446Y004632D01*
X004531Y004547D01*
X004786Y004547D01*
X004616Y004547D02*
X004446Y004376D01*
X004234Y004376D02*
X003894Y004376D01*
X004064Y004376D02*
X004064Y004887D01*
X004234Y004717D01*
X004204Y005976D02*
X004034Y005976D01*
X003949Y006061D01*
X003949Y006147D01*
X004034Y006232D01*
X004119Y006232D01*
X004034Y006232D02*
X003949Y006317D01*
X003949Y006402D01*
X004034Y006487D01*
X004204Y006487D01*
X004289Y006402D01*
X004501Y006402D02*
X004501Y006232D01*
X004586Y006147D01*
X004841Y006147D01*
X004671Y006147D02*
X004501Y005976D01*
X004289Y006061D02*
X004204Y005976D01*
X004841Y005976D02*
X004841Y006487D01*
X004586Y006487D01*
X004501Y006402D01*
X004389Y007226D02*
X004729Y007226D01*
X004389Y007567D01*
X004389Y007652D01*
X004474Y007737D01*
X004644Y007737D01*
X004729Y007652D01*
X004941Y007652D02*
X005026Y007737D01*
X005282Y007737D01*
X005282Y007226D01*
X005026Y007226D01*
X004941Y007311D01*
X004941Y007652D01*
X005494Y007737D02*
X005834Y007737D01*
X005834Y007226D01*
X005494Y007226D01*
X005664Y007482D02*
X005834Y007482D01*
X006046Y007226D02*
X006386Y007226D01*
X006386Y007737D01*
X004177Y007737D02*
X004177Y007226D01*
X003921Y007226D01*
X003836Y007311D01*
X003836Y007397D01*
X003921Y007482D01*
X004177Y007482D01*
X004177Y007737D02*
X003921Y007737D01*
X003836Y007652D01*
X003836Y007567D01*
X003921Y007482D01*
X003921Y011476D02*
X004177Y011476D01*
X004177Y011987D01*
X003921Y011987D01*
X003836Y011902D01*
X003836Y011817D01*
X003921Y011732D01*
X004177Y011732D01*
X004389Y011817D02*
X004474Y011732D01*
X004389Y011647D01*
X004389Y011561D01*
X004474Y011476D01*
X004644Y011476D01*
X004729Y011561D01*
X004941Y011561D02*
X005026Y011476D01*
X005282Y011476D01*
X005282Y011987D01*
X005026Y011987D01*
X004941Y011902D01*
X004941Y011561D01*
X004729Y011902D02*
X004644Y011987D01*
X004474Y011987D01*
X004389Y011902D01*
X004389Y011817D01*
X004474Y011732D02*
X004559Y011732D01*
X003921Y011732D02*
X003836Y011647D01*
X003836Y011561D01*
X003921Y011476D01*
X005494Y011476D02*
X005834Y011476D01*
X005834Y011987D01*
X005494Y011987D01*
X005664Y011732D02*
X005834Y011732D01*
X006386Y011987D02*
X006386Y011476D01*
X006046Y011476D01*
X004786Y012376D02*
X004786Y012887D01*
X004531Y012887D01*
X004446Y012802D01*
X004446Y012632D01*
X004531Y012547D01*
X004786Y012547D01*
X004616Y012547D02*
X004446Y012376D01*
X004234Y012461D02*
X004149Y012376D01*
X003979Y012376D01*
X003894Y012461D01*
X003894Y012632D01*
X003979Y012717D01*
X004064Y012717D01*
X004234Y012632D01*
X004234Y012887D01*
X003894Y012887D01*
X003536Y014376D02*
X003536Y014887D01*
X003281Y014887D01*
X003196Y014802D01*
X003196Y014632D01*
X003281Y014547D01*
X003536Y014547D01*
X003366Y014547D02*
X003196Y014376D01*
X002984Y014376D02*
X002984Y014461D01*
X002644Y014802D01*
X002644Y014887D01*
X002984Y014887D01*
X003671Y016226D02*
X003927Y016226D01*
X003927Y016737D01*
X003671Y016737D01*
X003586Y016652D01*
X003586Y016567D01*
X003671Y016482D01*
X003927Y016482D01*
X004139Y016482D02*
X004479Y016482D01*
X004224Y016737D01*
X004224Y016226D01*
X004691Y016311D02*
X004691Y016652D01*
X004776Y016737D01*
X005032Y016737D01*
X005032Y016226D01*
X004776Y016226D01*
X004691Y016311D01*
X005244Y016226D02*
X005584Y016226D01*
X005584Y016737D01*
X005244Y016737D01*
X005414Y016482D02*
X005584Y016482D01*
X006136Y016737D02*
X006136Y016226D01*
X005796Y016226D01*
X003671Y016226D02*
X003586Y016311D01*
X003586Y016397D01*
X003671Y016482D01*
X013699Y016482D02*
X013699Y016311D01*
X013784Y016226D01*
X013954Y016226D01*
X014039Y016311D01*
X014039Y016482D02*
X013869Y016567D01*
X013784Y016567D01*
X013699Y016482D01*
X013699Y016737D02*
X014039Y016737D01*
X014039Y016482D01*
X014421Y016737D02*
X014421Y016226D01*
X014591Y016226D02*
X014251Y016226D01*
X014804Y016226D02*
X014974Y016397D01*
X014889Y016397D02*
X015144Y016397D01*
X015144Y016226D02*
X015144Y016737D01*
X014889Y016737D01*
X014804Y016652D01*
X014804Y016482D01*
X014889Y016397D01*
X014591Y016567D02*
X014421Y016737D01*
X014474Y017226D02*
X014644Y017226D01*
X014729Y017311D01*
X014729Y017397D01*
X014644Y017482D01*
X014474Y017482D01*
X014389Y017397D01*
X014389Y017311D01*
X014474Y017226D01*
X014474Y017482D02*
X014389Y017567D01*
X014389Y017652D01*
X014474Y017737D01*
X014644Y017737D01*
X014729Y017652D01*
X014729Y017567D01*
X014644Y017482D01*
X014941Y017311D02*
X014941Y017652D01*
X015026Y017737D01*
X015282Y017737D01*
X015282Y017226D01*
X015026Y017226D01*
X014941Y017311D01*
X015494Y017226D02*
X015834Y017226D01*
X015834Y017737D01*
X015494Y017737D01*
X015664Y017482D02*
X015834Y017482D01*
X016046Y017226D02*
X016386Y017226D01*
X016386Y017737D01*
X014177Y017737D02*
X014177Y017226D01*
X013921Y017226D01*
X013836Y017311D01*
X013836Y017397D01*
X013921Y017482D01*
X014177Y017482D01*
X014177Y017737D02*
X013921Y017737D01*
X013836Y017652D01*
X013836Y017567D01*
X013921Y017482D01*
X021449Y014652D02*
X021449Y014567D01*
X021534Y014482D01*
X021449Y014397D01*
X021449Y014311D01*
X021534Y014226D01*
X021704Y014226D01*
X021789Y014311D01*
X022001Y014226D02*
X022341Y014226D01*
X022001Y014567D01*
X022001Y014652D01*
X022086Y014737D01*
X022256Y014737D01*
X022341Y014652D01*
X022554Y014652D02*
X022554Y014482D01*
X022639Y014397D01*
X022894Y014397D01*
X022724Y014397D02*
X022554Y014226D01*
X022894Y014226D02*
X022894Y014737D01*
X022639Y014737D01*
X022554Y014652D01*
X021789Y014652D02*
X021704Y014737D01*
X021534Y014737D01*
X021449Y014652D01*
X021534Y014482D02*
X021619Y014482D01*
X024376Y014912D02*
X024376Y015252D01*
X024376Y015464D02*
X024376Y015804D01*
X024376Y016016D02*
X024376Y016272D01*
X024461Y016357D01*
X024802Y016357D01*
X024887Y016272D01*
X024887Y016016D01*
X024376Y016016D01*
X024887Y015804D02*
X024887Y015464D01*
X024376Y015464D01*
X024632Y015464D02*
X024632Y015634D01*
X024887Y014912D02*
X024376Y014912D01*
X028099Y016461D02*
X028184Y016376D01*
X028439Y016376D01*
X028439Y016887D01*
X028184Y016887D01*
X028099Y016802D01*
X028099Y016717D01*
X028184Y016632D01*
X028439Y016632D01*
X028651Y016547D02*
X028736Y016632D01*
X028991Y016632D01*
X028991Y016461D01*
X028906Y016376D01*
X028736Y016376D01*
X028651Y016461D01*
X028651Y016547D01*
X028821Y016802D02*
X028991Y016632D01*
X028821Y016802D02*
X028651Y016887D01*
X028184Y016632D02*
X028099Y016547D01*
X028099Y016461D01*
X029204Y016376D02*
X029544Y016376D01*
X029374Y016376D02*
X029374Y016887D01*
X029544Y016717D01*
X029756Y016802D02*
X029756Y016461D01*
X029841Y016376D01*
X030096Y016376D01*
X030096Y016887D01*
X029841Y016887D01*
X029756Y016802D01*
X030309Y016887D02*
X030649Y016887D01*
X030649Y016376D01*
X030309Y016376D01*
X030479Y016632D02*
X030649Y016632D01*
X030861Y016376D02*
X031201Y016376D01*
X031201Y016887D01*
X033619Y014987D02*
X033619Y014476D01*
X033789Y014476D02*
X033449Y014476D01*
X034001Y014561D02*
X034086Y014476D01*
X034256Y014476D01*
X034341Y014561D01*
X034554Y014476D02*
X034724Y014647D01*
X034639Y014647D02*
X034894Y014647D01*
X034894Y014476D02*
X034894Y014987D01*
X034639Y014987D01*
X034554Y014902D01*
X034554Y014732D01*
X034639Y014647D01*
X034341Y014902D02*
X034256Y014987D01*
X034086Y014987D01*
X034001Y014902D01*
X034001Y014817D01*
X034086Y014732D01*
X034001Y014647D01*
X034001Y014561D01*
X034086Y014732D02*
X034171Y014732D01*
X033789Y014817D02*
X033619Y014987D01*
X031394Y012987D02*
X031139Y012987D01*
X031054Y012902D01*
X031054Y012732D01*
X031139Y012647D01*
X031394Y012647D01*
X031224Y012647D02*
X031054Y012476D01*
X030841Y012476D02*
X030501Y012817D01*
X030501Y012902D01*
X030586Y012987D01*
X030756Y012987D01*
X030841Y012902D01*
X030289Y012902D02*
X030289Y012817D01*
X030204Y012732D01*
X029949Y012732D01*
X029949Y012902D02*
X029949Y012561D01*
X030034Y012476D01*
X030204Y012476D01*
X030289Y012561D01*
X030501Y012476D02*
X030841Y012476D01*
X031394Y012476D02*
X031394Y012987D01*
X030289Y012902D02*
X030204Y012987D01*
X030034Y012987D01*
X029949Y012902D01*
X029994Y011987D02*
X030334Y011987D01*
X030334Y011476D01*
X029994Y011476D01*
X029782Y011476D02*
X029526Y011476D01*
X029441Y011561D01*
X029441Y011902D01*
X029526Y011987D01*
X029782Y011987D01*
X029782Y011476D01*
X029229Y011476D02*
X028889Y011476D01*
X029059Y011476D02*
X029059Y011987D01*
X029229Y011817D01*
X028677Y011732D02*
X028507Y011817D01*
X028421Y011817D01*
X028336Y011732D01*
X028336Y011561D01*
X028421Y011476D01*
X028592Y011476D01*
X028677Y011561D01*
X028677Y011732D02*
X028677Y011987D01*
X028336Y011987D01*
X028124Y011987D02*
X027869Y011987D01*
X027784Y011902D01*
X027784Y011817D01*
X027869Y011732D01*
X028124Y011732D01*
X028124Y011987D02*
X028124Y011476D01*
X027869Y011476D01*
X027784Y011561D01*
X027784Y011647D01*
X027869Y011732D01*
X026886Y011987D02*
X026886Y011476D01*
X026546Y011476D01*
X026334Y011476D02*
X025994Y011476D01*
X025782Y011476D02*
X025526Y011476D01*
X025441Y011561D01*
X025441Y011902D01*
X025526Y011987D01*
X025782Y011987D01*
X025782Y011476D01*
X026334Y011476D02*
X026334Y011987D01*
X025994Y011987D01*
X026164Y011732D02*
X026334Y011732D01*
X025229Y011817D02*
X025059Y011987D01*
X025059Y011476D01*
X025229Y011476D02*
X024889Y011476D01*
X024677Y011476D02*
X024336Y011476D01*
X024507Y011476D02*
X024507Y011987D01*
X024677Y011817D01*
X024124Y011732D02*
X023869Y011732D01*
X023784Y011647D01*
X023784Y011561D01*
X023869Y011476D01*
X024124Y011476D01*
X024124Y011987D01*
X023869Y011987D01*
X023784Y011902D01*
X023784Y011817D01*
X023869Y011732D01*
X023869Y012476D02*
X023869Y012987D01*
X024039Y012817D01*
X024251Y012817D02*
X024251Y012902D01*
X024336Y012987D01*
X024506Y012987D01*
X024591Y012902D01*
X024804Y012902D02*
X024804Y012732D01*
X024889Y012647D01*
X025144Y012647D01*
X024974Y012647D02*
X024804Y012476D01*
X024591Y012476D02*
X024251Y012817D01*
X024804Y012902D02*
X024889Y012987D01*
X025144Y012987D01*
X025144Y012476D01*
X024591Y012476D02*
X024251Y012476D01*
X024039Y012476D02*
X023699Y012476D01*
X030164Y011732D02*
X030334Y011732D01*
X030886Y011987D02*
X030886Y011476D01*
X030546Y011476D01*
X038034Y011397D02*
X038034Y011311D01*
X038119Y011226D01*
X038374Y011226D01*
X038374Y011737D01*
X038119Y011737D01*
X038034Y011652D01*
X038034Y011567D01*
X038119Y011482D01*
X038374Y011482D01*
X038586Y011482D02*
X038842Y011482D01*
X038927Y011567D01*
X038927Y011652D01*
X038842Y011737D01*
X038671Y011737D01*
X038586Y011652D01*
X038586Y011311D01*
X038671Y011226D01*
X038842Y011226D01*
X038927Y011311D01*
X039139Y011226D02*
X039479Y011226D01*
X039309Y011226D02*
X039309Y011737D01*
X039479Y011567D01*
X039691Y011652D02*
X039776Y011737D01*
X040032Y011737D01*
X040032Y011226D01*
X039776Y011226D01*
X039691Y011311D01*
X039691Y011652D01*
X040244Y011737D02*
X040584Y011737D01*
X040584Y011226D01*
X040244Y011226D01*
X040414Y011482D02*
X040584Y011482D01*
X040796Y011226D02*
X041136Y011226D01*
X041136Y011737D01*
X041144Y012226D02*
X041144Y012737D01*
X040889Y012737D01*
X040804Y012652D01*
X040804Y012482D01*
X040889Y012397D01*
X041144Y012397D01*
X040974Y012397D02*
X040804Y012226D01*
X040591Y012311D02*
X040506Y012226D01*
X040336Y012226D01*
X040251Y012311D01*
X040251Y012397D01*
X040336Y012482D01*
X040421Y012482D01*
X040336Y012482D02*
X040251Y012567D01*
X040251Y012652D01*
X040336Y012737D01*
X040506Y012737D01*
X040591Y012652D01*
X040039Y012737D02*
X039699Y012737D01*
X039699Y012652D01*
X040039Y012311D01*
X040039Y012226D01*
X038119Y011482D02*
X038034Y011397D01*
X040119Y008737D02*
X040034Y008652D01*
X040034Y008567D01*
X040119Y008482D01*
X040374Y008482D01*
X040586Y008567D02*
X040671Y008482D01*
X040842Y008482D01*
X040927Y008567D01*
X040927Y008652D01*
X040842Y008737D01*
X040671Y008737D01*
X040586Y008652D01*
X040586Y008567D01*
X040671Y008482D02*
X040586Y008397D01*
X040586Y008311D01*
X040671Y008226D01*
X040842Y008226D01*
X040927Y008311D01*
X040927Y008397D01*
X040842Y008482D01*
X041139Y008226D02*
X041479Y008226D01*
X041309Y008226D02*
X041309Y008737D01*
X041479Y008567D01*
X041691Y008652D02*
X041776Y008737D01*
X042032Y008737D01*
X042032Y008226D01*
X041776Y008226D01*
X041691Y008311D01*
X041691Y008652D01*
X042244Y008737D02*
X042584Y008737D01*
X042584Y008226D01*
X042244Y008226D01*
X042414Y008482D02*
X042584Y008482D01*
X042796Y008226D02*
X043136Y008226D01*
X043136Y008737D01*
X040374Y008737D02*
X040374Y008226D01*
X040119Y008226D01*
X040034Y008311D01*
X040034Y008397D01*
X040119Y008482D01*
X040119Y008737D02*
X040374Y008737D01*
X036886Y007737D02*
X036886Y007226D01*
X036546Y007226D01*
X036334Y007226D02*
X035994Y007226D01*
X035782Y007226D02*
X035526Y007226D01*
X035441Y007311D01*
X035441Y007652D01*
X035526Y007737D01*
X035782Y007737D01*
X035782Y007226D01*
X036164Y007482D02*
X036334Y007482D01*
X036334Y007737D02*
X036334Y007226D01*
X036334Y007737D02*
X035994Y007737D01*
X035229Y007567D02*
X035059Y007737D01*
X035059Y007226D01*
X035229Y007226D02*
X034889Y007226D01*
X034677Y007482D02*
X034336Y007482D01*
X034124Y007482D02*
X033869Y007482D01*
X033784Y007397D01*
X033784Y007311D01*
X033869Y007226D01*
X034124Y007226D01*
X034124Y007737D01*
X033869Y007737D01*
X033784Y007652D01*
X033784Y007567D01*
X033869Y007482D01*
X034421Y007226D02*
X034421Y007737D01*
X034677Y007482D01*
X038976Y006829D02*
X038976Y006659D01*
X039061Y006574D01*
X039232Y006574D02*
X039317Y006744D01*
X039317Y006829D01*
X039232Y006914D01*
X039061Y006914D01*
X038976Y006829D01*
X039232Y006574D02*
X039487Y006574D01*
X039487Y006914D01*
X039402Y006362D02*
X039317Y006362D01*
X039232Y006277D01*
X039147Y006362D01*
X039061Y006362D01*
X038976Y006277D01*
X038976Y006106D01*
X039061Y006021D01*
X038976Y005809D02*
X039147Y005639D01*
X039147Y005724D02*
X039147Y005469D01*
X038976Y005469D02*
X039487Y005469D01*
X039487Y005724D01*
X039402Y005809D01*
X039232Y005809D01*
X039147Y005724D01*
X039402Y006021D02*
X039487Y006106D01*
X039487Y006277D01*
X039402Y006362D01*
X039232Y006277D02*
X039232Y006192D01*
X041341Y005052D02*
X041426Y005137D01*
X041596Y005137D01*
X041682Y005052D01*
X041894Y005052D02*
X041979Y005137D01*
X042149Y005137D01*
X042234Y005052D01*
X042446Y005052D02*
X042446Y004882D01*
X042531Y004797D01*
X042786Y004797D01*
X042616Y004797D02*
X042446Y004626D01*
X042234Y004711D02*
X042149Y004626D01*
X041979Y004626D01*
X041894Y004711D01*
X041894Y004797D01*
X041979Y004882D01*
X042064Y004882D01*
X041979Y004882D02*
X041894Y004967D01*
X041894Y005052D01*
X041511Y004882D02*
X041426Y004882D01*
X041341Y004797D01*
X041341Y004711D01*
X041426Y004626D01*
X041596Y004626D01*
X041682Y004711D01*
X041426Y004882D02*
X041341Y004967D01*
X041341Y005052D01*
X042446Y005052D02*
X042531Y005137D01*
X042786Y005137D01*
X042786Y004626D01*
X041201Y001887D02*
X041201Y001376D01*
X040861Y001376D01*
X040649Y001376D02*
X040309Y001376D01*
X040096Y001376D02*
X039841Y001376D01*
X039756Y001461D01*
X039756Y001802D01*
X039841Y001887D01*
X040096Y001887D01*
X040096Y001376D01*
X040479Y001632D02*
X040649Y001632D01*
X040649Y001887D02*
X040309Y001887D01*
X040649Y001887D02*
X040649Y001376D01*
X039544Y001376D02*
X039204Y001376D01*
X039374Y001376D02*
X039374Y001887D01*
X039544Y001717D01*
X038991Y001887D02*
X038651Y001887D01*
X038651Y001802D01*
X038991Y001461D01*
X038991Y001376D01*
X038439Y001376D02*
X038184Y001376D01*
X038099Y001461D01*
X038099Y001547D01*
X038184Y001632D01*
X038439Y001632D01*
X038439Y001887D02*
X038439Y001376D01*
X038184Y001632D02*
X038099Y001717D01*
X038099Y001802D01*
X038184Y001887D01*
X038439Y001887D01*
X016386Y007226D02*
X016046Y007226D01*
X015834Y007226D02*
X015494Y007226D01*
X015282Y007226D02*
X015026Y007226D01*
X014941Y007311D01*
X014941Y007652D01*
X015026Y007737D01*
X015282Y007737D01*
X015282Y007226D01*
X015664Y007482D02*
X015834Y007482D01*
X015834Y007737D02*
X015494Y007737D01*
X015834Y007737D02*
X015834Y007226D01*
X016386Y007226D02*
X016386Y007737D01*
X014729Y007482D02*
X014729Y007311D01*
X014644Y007226D01*
X014474Y007226D01*
X014389Y007311D01*
X014389Y007397D01*
X014474Y007482D01*
X014729Y007482D01*
X014559Y007652D01*
X014389Y007737D01*
X014177Y007737D02*
X013921Y007737D01*
X013836Y007652D01*
X013836Y007567D01*
X013921Y007482D01*
X014177Y007482D01*
X014177Y007737D02*
X014177Y007226D01*
X013921Y007226D01*
X013836Y007311D01*
X013836Y007397D01*
X013921Y007482D01*
X014369Y006737D02*
X014369Y006226D01*
X014539Y006226D02*
X014199Y006226D01*
X014751Y006226D02*
X015091Y006226D01*
X014921Y006226D02*
X014921Y006737D01*
X015091Y006567D01*
X015304Y006652D02*
X015304Y006482D01*
X015389Y006397D01*
X015644Y006397D01*
X015474Y006397D02*
X015304Y006226D01*
X015644Y006226D02*
X015644Y006737D01*
X015389Y006737D01*
X015304Y006652D01*
X014539Y006567D02*
X014369Y006737D01*
X014177Y011476D02*
X013921Y011476D01*
X013836Y011561D01*
X013836Y011647D01*
X013921Y011732D01*
X014177Y011732D01*
X014177Y011987D02*
X013921Y011987D01*
X013836Y011902D01*
X013836Y011817D01*
X013921Y011732D01*
X014177Y011987D02*
X014177Y011476D01*
X014389Y011902D02*
X014729Y011561D01*
X014729Y011476D01*
X014941Y011561D02*
X014941Y011902D01*
X015026Y011987D01*
X015282Y011987D01*
X015282Y011476D01*
X015026Y011476D01*
X014941Y011561D01*
X015494Y011476D02*
X015834Y011476D01*
X015834Y011987D01*
X015494Y011987D01*
X015664Y011732D02*
X015834Y011732D01*
X016386Y011987D02*
X016386Y011476D01*
X016046Y011476D01*
X014729Y011987D02*
X014389Y011987D01*
X014389Y011902D01*
X014501Y012476D02*
X014841Y012476D01*
X014671Y012476D02*
X014671Y012987D01*
X014841Y012817D01*
X015054Y012902D02*
X015054Y012732D01*
X015139Y012647D01*
X015394Y012647D01*
X015224Y012647D02*
X015054Y012476D01*
X015394Y012476D02*
X015394Y012987D01*
X015139Y012987D01*
X015054Y012902D01*
X014289Y012902D02*
X014204Y012987D01*
X014034Y012987D01*
X013949Y012902D01*
X013949Y012817D01*
X014034Y012732D01*
X013949Y012647D01*
X013949Y012561D01*
X014034Y012476D01*
X014204Y012476D01*
X014289Y012561D01*
X014119Y012732D02*
X014034Y012732D01*
X024376Y016569D02*
X024376Y016909D01*
X024376Y016739D02*
X024887Y016739D01*
X024717Y016569D01*
X024802Y017121D02*
X024887Y017206D01*
X024887Y017377D01*
X024802Y017462D01*
X024717Y017462D01*
X024376Y017121D01*
X024376Y017462D01*
X024376Y017674D02*
X024376Y017929D01*
X024461Y018014D01*
X024547Y018014D01*
X024632Y017929D01*
X024632Y017674D01*
X024887Y017674D02*
X024376Y017674D01*
X024632Y017929D02*
X024717Y018014D01*
X024802Y018014D01*
X024887Y017929D01*
X024887Y017674D01*
X038876Y016936D02*
X038876Y016766D01*
X038961Y016681D01*
X039132Y016766D02*
X039132Y017022D01*
X039302Y017022D02*
X039387Y016936D01*
X039387Y016766D01*
X039302Y016681D01*
X039217Y016681D01*
X039132Y016766D01*
X038876Y016936D02*
X038961Y017022D01*
X039302Y017022D01*
X039302Y016469D02*
X039217Y016469D01*
X039132Y016384D01*
X039047Y016469D01*
X038961Y016469D01*
X038876Y016384D01*
X038876Y016214D01*
X038961Y016129D01*
X038876Y015917D02*
X039047Y015747D01*
X039047Y015832D02*
X039047Y015576D01*
X038876Y015576D02*
X039387Y015576D01*
X039387Y015832D01*
X039302Y015917D01*
X039132Y015917D01*
X039047Y015832D01*
X039302Y016129D02*
X039387Y016214D01*
X039387Y016384D01*
X039302Y016469D01*
X039132Y016384D02*
X039132Y016299D01*
X040849Y015802D02*
X040849Y015717D01*
X040934Y015632D01*
X041189Y015632D01*
X041189Y015887D02*
X041189Y015376D01*
X040934Y015376D01*
X040849Y015461D01*
X040849Y015547D01*
X040934Y015632D01*
X040849Y015802D02*
X040934Y015887D01*
X041189Y015887D01*
X041401Y015802D02*
X041741Y015461D01*
X041656Y015376D01*
X041486Y015376D01*
X041401Y015461D01*
X041401Y015802D01*
X041486Y015887D01*
X041656Y015887D01*
X041741Y015802D01*
X041741Y015461D01*
X041954Y015376D02*
X042294Y015376D01*
X041954Y015717D01*
X041954Y015802D01*
X042039Y015887D01*
X042209Y015887D01*
X042294Y015802D01*
X042506Y015802D02*
X042591Y015887D01*
X042846Y015887D01*
X042846Y015376D01*
X042591Y015376D01*
X042506Y015461D01*
X042506Y015802D01*
X043059Y015887D02*
X043399Y015887D01*
X043399Y015376D01*
X043059Y015376D01*
X043229Y015632D02*
X043399Y015632D01*
X043611Y015376D02*
X043951Y015376D01*
X043951Y015887D01*
D12*
X043463Y016571D02*
X043463Y017792D01*
X042469Y017792D02*
X042469Y017575D01*
X042400Y017506D01*
X042400Y017792D01*
X042469Y017792D01*
X042469Y017757D02*
X042400Y017757D01*
X042400Y017792D02*
X042400Y016571D01*
X043305Y016925D02*
X043327Y016961D01*
X043346Y016998D01*
X043361Y017037D01*
X043372Y017077D01*
X043380Y017119D01*
X043384Y017160D01*
X043384Y017202D01*
X043380Y017243D01*
X043372Y017285D01*
X043361Y017325D01*
X043346Y017364D01*
X043327Y017401D01*
X043305Y017437D01*
X042558Y017437D02*
X042536Y017401D01*
X042517Y017364D01*
X042502Y017325D01*
X042491Y017285D01*
X042483Y017243D01*
X042479Y017202D01*
X042479Y017160D01*
X042483Y017119D01*
X042491Y017077D01*
X042502Y017037D01*
X042517Y016998D01*
X042536Y016961D01*
X042558Y016925D01*
X042420Y017526D02*
X042400Y017526D01*
X042400Y017564D02*
X042458Y017564D01*
X042469Y017603D02*
X042400Y017603D01*
X042400Y017642D02*
X042469Y017642D01*
X042469Y017680D02*
X042400Y017680D01*
X042400Y017719D02*
X042469Y017719D01*
X033463Y017792D02*
X033463Y016571D01*
X032400Y016571D02*
X032400Y017792D01*
X032400Y017506D01*
X032469Y017575D01*
X032469Y017792D01*
X032400Y017792D01*
X032400Y017757D02*
X032469Y017757D01*
X032469Y017719D02*
X032400Y017719D01*
X032400Y017680D02*
X032469Y017680D01*
X032469Y017642D02*
X032400Y017642D01*
X032400Y017603D02*
X032469Y017603D01*
X032458Y017564D02*
X032400Y017564D01*
X032400Y017526D02*
X032420Y017526D01*
X033305Y017437D02*
X033327Y017401D01*
X033346Y017364D01*
X033361Y017325D01*
X033372Y017285D01*
X033380Y017243D01*
X033384Y017202D01*
X033384Y017160D01*
X033380Y017119D01*
X033372Y017077D01*
X033361Y017037D01*
X033346Y016998D01*
X033327Y016961D01*
X033305Y016925D01*
X032558Y016925D02*
X032536Y016961D01*
X032517Y016998D01*
X032502Y017037D01*
X032491Y017077D01*
X032483Y017119D01*
X032479Y017160D01*
X032479Y017202D01*
X032483Y017243D01*
X032491Y017285D01*
X032502Y017325D01*
X032517Y017364D01*
X032536Y017401D01*
X032558Y017437D01*
X023463Y017792D02*
X023463Y016571D01*
X022558Y016925D02*
X022536Y016961D01*
X022517Y016998D01*
X022502Y017037D01*
X022491Y017077D01*
X022483Y017119D01*
X022479Y017160D01*
X022479Y017202D01*
X022483Y017243D01*
X022491Y017285D01*
X022502Y017325D01*
X022517Y017364D01*
X022536Y017401D01*
X022558Y017437D01*
X022458Y017564D02*
X022400Y017564D01*
X022400Y017526D02*
X022420Y017526D01*
X022400Y017506D02*
X022400Y017792D01*
X022469Y017792D01*
X022469Y017575D01*
X022400Y017506D01*
X022400Y017603D02*
X022469Y017603D01*
X022469Y017642D02*
X022400Y017642D01*
X022400Y017680D02*
X022469Y017680D01*
X022469Y017719D02*
X022400Y017719D01*
X022400Y017757D02*
X022469Y017757D01*
X022400Y017792D02*
X022400Y016571D01*
X023305Y016925D02*
X023327Y016961D01*
X023346Y016998D01*
X023361Y017037D01*
X023372Y017077D01*
X023380Y017119D01*
X023384Y017160D01*
X023384Y017202D01*
X023380Y017243D01*
X023372Y017285D01*
X023361Y017325D01*
X023346Y017364D01*
X023327Y017401D01*
X023305Y017437D01*
X013463Y017792D02*
X013463Y016571D01*
X012558Y016925D02*
X012536Y016961D01*
X012517Y016998D01*
X012502Y017037D01*
X012491Y017077D01*
X012483Y017119D01*
X012479Y017160D01*
X012479Y017202D01*
X012483Y017243D01*
X012491Y017285D01*
X012502Y017325D01*
X012517Y017364D01*
X012536Y017401D01*
X012558Y017437D01*
X012458Y017564D02*
X012400Y017564D01*
X012400Y017526D02*
X012420Y017526D01*
X012400Y017506D02*
X012400Y017792D01*
X012469Y017792D01*
X012469Y017575D01*
X012400Y017506D01*
X012400Y017603D02*
X012469Y017603D01*
X012469Y017642D02*
X012400Y017642D01*
X012400Y017680D02*
X012469Y017680D01*
X012469Y017719D02*
X012400Y017719D01*
X012400Y017757D02*
X012469Y017757D01*
X012400Y017792D02*
X012400Y016571D01*
X013305Y016925D02*
X013327Y016961D01*
X013346Y016998D01*
X013361Y017037D01*
X013372Y017077D01*
X013380Y017119D01*
X013384Y017160D01*
X013384Y017202D01*
X013380Y017243D01*
X013372Y017285D01*
X013361Y017325D01*
X013346Y017364D01*
X013327Y017401D01*
X013305Y017437D01*
X003463Y017792D02*
X003463Y016571D01*
X002400Y016571D02*
X002400Y017792D01*
X002400Y017506D01*
X002469Y017575D01*
X002469Y017792D01*
X002400Y017792D01*
X002400Y017757D02*
X002469Y017757D01*
X002469Y017719D02*
X002400Y017719D01*
X002400Y017680D02*
X002469Y017680D01*
X002469Y017642D02*
X002400Y017642D01*
X002400Y017603D02*
X002469Y017603D01*
X002458Y017564D02*
X002400Y017564D01*
X002400Y017526D02*
X002420Y017526D01*
X003305Y017437D02*
X003327Y017401D01*
X003346Y017364D01*
X003361Y017325D01*
X003372Y017285D01*
X003380Y017243D01*
X003384Y017202D01*
X003384Y017160D01*
X003380Y017119D01*
X003372Y017077D01*
X003361Y017037D01*
X003346Y016998D01*
X003327Y016961D01*
X003305Y016925D01*
X002558Y016925D02*
X002536Y016961D01*
X002517Y016998D01*
X002502Y017037D01*
X002491Y017077D01*
X002483Y017119D01*
X002479Y017160D01*
X002479Y017202D01*
X002483Y017243D01*
X002491Y017285D01*
X002502Y017325D01*
X002517Y017364D01*
X002536Y017401D01*
X002558Y017437D01*
X002469Y012792D02*
X002469Y012575D01*
X002400Y012506D01*
X002400Y012792D01*
X002469Y012792D01*
X002469Y012785D02*
X002400Y012785D01*
X002400Y012792D02*
X002400Y011571D01*
X003463Y011571D02*
X003463Y012792D01*
X002469Y012747D02*
X002400Y012747D01*
X002400Y012708D02*
X002469Y012708D01*
X002469Y012669D02*
X002400Y012669D01*
X002400Y012631D02*
X002469Y012631D01*
X002469Y012592D02*
X002400Y012592D01*
X002400Y012554D02*
X002448Y012554D01*
X002409Y012515D02*
X002400Y012515D01*
X003305Y012437D02*
X003327Y012401D01*
X003346Y012364D01*
X003361Y012325D01*
X003372Y012285D01*
X003380Y012243D01*
X003384Y012202D01*
X003384Y012160D01*
X003380Y012119D01*
X003372Y012077D01*
X003361Y012037D01*
X003346Y011998D01*
X003327Y011961D01*
X003305Y011925D01*
X002558Y011925D02*
X002536Y011961D01*
X002517Y011998D01*
X002502Y012037D01*
X002491Y012077D01*
X002483Y012119D01*
X002479Y012160D01*
X002479Y012202D01*
X002483Y012243D01*
X002491Y012285D01*
X002502Y012325D01*
X002517Y012364D01*
X002536Y012401D01*
X002558Y012437D01*
X012400Y012506D02*
X012400Y012792D01*
X012469Y012792D01*
X012469Y012575D01*
X012400Y012506D01*
X012400Y012515D02*
X012409Y012515D01*
X012400Y012554D02*
X012448Y012554D01*
X012469Y012592D02*
X012400Y012592D01*
X012400Y012631D02*
X012469Y012631D01*
X012469Y012669D02*
X012400Y012669D01*
X012400Y012708D02*
X012469Y012708D01*
X012469Y012747D02*
X012400Y012747D01*
X012400Y012785D02*
X012469Y012785D01*
X012400Y012792D02*
X012400Y011571D01*
X013305Y011925D02*
X013327Y011961D01*
X013346Y011998D01*
X013361Y012037D01*
X013372Y012077D01*
X013380Y012119D01*
X013384Y012160D01*
X013384Y012202D01*
X013380Y012243D01*
X013372Y012285D01*
X013361Y012325D01*
X013346Y012364D01*
X013327Y012401D01*
X013305Y012437D01*
X012558Y012437D02*
X012536Y012401D01*
X012517Y012364D01*
X012502Y012325D01*
X012491Y012285D01*
X012483Y012243D01*
X012479Y012202D01*
X012479Y012160D01*
X012483Y012119D01*
X012491Y012077D01*
X012502Y012037D01*
X012517Y011998D01*
X012536Y011961D01*
X012558Y011925D01*
X013463Y011571D02*
X013463Y012792D01*
X022400Y012792D02*
X022400Y011571D01*
X023305Y011925D02*
X023327Y011961D01*
X023346Y011998D01*
X023361Y012037D01*
X023372Y012077D01*
X023380Y012119D01*
X023384Y012160D01*
X023384Y012202D01*
X023380Y012243D01*
X023372Y012285D01*
X023361Y012325D01*
X023346Y012364D01*
X023327Y012401D01*
X023305Y012437D01*
X022558Y012437D02*
X022536Y012401D01*
X022517Y012364D01*
X022502Y012325D01*
X022491Y012285D01*
X022483Y012243D01*
X022479Y012202D01*
X022479Y012160D01*
X022483Y012119D01*
X022491Y012077D01*
X022502Y012037D01*
X022517Y011998D01*
X022536Y011961D01*
X022558Y011925D01*
X023463Y011571D02*
X023463Y012792D01*
X022469Y012792D02*
X022469Y012575D01*
X022400Y012506D01*
X022400Y012792D01*
X022469Y012792D01*
X022469Y012785D02*
X022400Y012785D01*
X022400Y012747D02*
X022469Y012747D01*
X022469Y012708D02*
X022400Y012708D01*
X022400Y012669D02*
X022469Y012669D01*
X022469Y012631D02*
X022400Y012631D01*
X022400Y012592D02*
X022469Y012592D01*
X022448Y012554D02*
X022400Y012554D01*
X022400Y012515D02*
X022409Y012515D01*
X032400Y012515D02*
X032409Y012515D01*
X032400Y012506D02*
X032400Y012792D01*
X032469Y012792D01*
X032469Y012575D01*
X032400Y012506D01*
X032400Y012554D02*
X032448Y012554D01*
X032469Y012592D02*
X032400Y012592D01*
X032400Y012631D02*
X032469Y012631D01*
X032469Y012669D02*
X032400Y012669D01*
X032400Y012708D02*
X032469Y012708D01*
X032469Y012747D02*
X032400Y012747D01*
X032400Y012785D02*
X032469Y012785D01*
X032400Y012792D02*
X032400Y011571D01*
X033463Y011571D02*
X033463Y012792D01*
X032558Y012437D02*
X032536Y012401D01*
X032517Y012364D01*
X032502Y012325D01*
X032491Y012285D01*
X032483Y012243D01*
X032479Y012202D01*
X032479Y012160D01*
X032483Y012119D01*
X032491Y012077D01*
X032502Y012037D01*
X032517Y011998D01*
X032536Y011961D01*
X032558Y011925D01*
X033305Y011925D02*
X033327Y011961D01*
X033346Y011998D01*
X033361Y012037D01*
X033372Y012077D01*
X033380Y012119D01*
X033384Y012160D01*
X033384Y012202D01*
X033380Y012243D01*
X033372Y012285D01*
X033361Y012325D01*
X033346Y012364D01*
X033327Y012401D01*
X033305Y012437D01*
X042400Y012506D02*
X042400Y012792D01*
X042469Y012792D01*
X042469Y012575D01*
X042400Y012506D01*
X042400Y012515D02*
X042409Y012515D01*
X042400Y012554D02*
X042448Y012554D01*
X042469Y012592D02*
X042400Y012592D01*
X042400Y012631D02*
X042469Y012631D01*
X042469Y012669D02*
X042400Y012669D01*
X042400Y012708D02*
X042469Y012708D01*
X042469Y012747D02*
X042400Y012747D01*
X042400Y012785D02*
X042469Y012785D01*
X042400Y012792D02*
X042400Y011571D01*
X043463Y011571D02*
X043463Y012792D01*
X042558Y012437D02*
X042536Y012401D01*
X042517Y012364D01*
X042502Y012325D01*
X042491Y012285D01*
X042483Y012243D01*
X042479Y012202D01*
X042479Y012160D01*
X042483Y012119D01*
X042491Y012077D01*
X042502Y012037D01*
X042517Y011998D01*
X042536Y011961D01*
X042558Y011925D01*
X043305Y011925D02*
X043327Y011961D01*
X043346Y011998D01*
X043361Y012037D01*
X043372Y012077D01*
X043380Y012119D01*
X043384Y012160D01*
X043384Y012202D01*
X043380Y012243D01*
X043372Y012285D01*
X043361Y012325D01*
X043346Y012364D01*
X043327Y012401D01*
X043305Y012437D01*
X043463Y007792D02*
X043463Y006571D01*
X042400Y006571D02*
X042400Y007792D01*
X042400Y007506D01*
X042469Y007575D01*
X042469Y007792D01*
X042400Y007792D01*
X042400Y007774D02*
X042469Y007774D01*
X042469Y007736D02*
X042400Y007736D01*
X042400Y007697D02*
X042469Y007697D01*
X042469Y007659D02*
X042400Y007659D01*
X042400Y007620D02*
X042469Y007620D01*
X042469Y007582D02*
X042400Y007582D01*
X042400Y007543D02*
X042437Y007543D01*
X043305Y007437D02*
X043327Y007401D01*
X043346Y007364D01*
X043361Y007325D01*
X043372Y007285D01*
X043380Y007243D01*
X043384Y007202D01*
X043384Y007160D01*
X043380Y007119D01*
X043372Y007077D01*
X043361Y007037D01*
X043346Y006998D01*
X043327Y006961D01*
X043305Y006925D01*
X042558Y006925D02*
X042536Y006961D01*
X042517Y006998D01*
X042502Y007037D01*
X042491Y007077D01*
X042483Y007119D01*
X042479Y007160D01*
X042479Y007202D01*
X042483Y007243D01*
X042491Y007285D01*
X042502Y007325D01*
X042517Y007364D01*
X042536Y007401D01*
X042558Y007437D01*
X033463Y007792D02*
X033463Y006571D01*
X032400Y006571D02*
X032400Y007792D01*
X032400Y007506D01*
X032469Y007575D01*
X032469Y007792D01*
X032400Y007792D01*
X032400Y007774D02*
X032469Y007774D01*
X032469Y007736D02*
X032400Y007736D01*
X032400Y007697D02*
X032469Y007697D01*
X032469Y007659D02*
X032400Y007659D01*
X032400Y007620D02*
X032469Y007620D01*
X032469Y007582D02*
X032400Y007582D01*
X032400Y007543D02*
X032437Y007543D01*
X033305Y007437D02*
X033327Y007401D01*
X033346Y007364D01*
X033361Y007325D01*
X033372Y007285D01*
X033380Y007243D01*
X033384Y007202D01*
X033384Y007160D01*
X033380Y007119D01*
X033372Y007077D01*
X033361Y007037D01*
X033346Y006998D01*
X033327Y006961D01*
X033305Y006925D01*
X032558Y006925D02*
X032536Y006961D01*
X032517Y006998D01*
X032502Y007037D01*
X032491Y007077D01*
X032483Y007119D01*
X032479Y007160D01*
X032479Y007202D01*
X032483Y007243D01*
X032491Y007285D01*
X032502Y007325D01*
X032517Y007364D01*
X032536Y007401D01*
X032558Y007437D01*
X023463Y007792D02*
X023463Y006571D01*
X022558Y006925D02*
X022536Y006961D01*
X022517Y006998D01*
X022502Y007037D01*
X022491Y007077D01*
X022483Y007119D01*
X022479Y007160D01*
X022479Y007202D01*
X022483Y007243D01*
X022491Y007285D01*
X022502Y007325D01*
X022517Y007364D01*
X022536Y007401D01*
X022558Y007437D01*
X022437Y007543D02*
X022400Y007543D01*
X022400Y007506D02*
X022400Y007792D01*
X022469Y007792D01*
X022469Y007575D01*
X022400Y007506D01*
X022400Y007582D02*
X022469Y007582D01*
X022469Y007620D02*
X022400Y007620D01*
X022400Y007659D02*
X022469Y007659D01*
X022469Y007697D02*
X022400Y007697D01*
X022400Y007736D02*
X022469Y007736D01*
X022469Y007774D02*
X022400Y007774D01*
X022400Y007792D02*
X022400Y006571D01*
X023305Y006925D02*
X023327Y006961D01*
X023346Y006998D01*
X023361Y007037D01*
X023372Y007077D01*
X023380Y007119D01*
X023384Y007160D01*
X023384Y007202D01*
X023380Y007243D01*
X023372Y007285D01*
X023361Y007325D01*
X023346Y007364D01*
X023327Y007401D01*
X023305Y007437D01*
X013463Y007792D02*
X013463Y006571D01*
X012558Y006925D02*
X012536Y006961D01*
X012517Y006998D01*
X012502Y007037D01*
X012491Y007077D01*
X012483Y007119D01*
X012479Y007160D01*
X012479Y007202D01*
X012483Y007243D01*
X012491Y007285D01*
X012502Y007325D01*
X012517Y007364D01*
X012536Y007401D01*
X012558Y007437D01*
X012437Y007543D02*
X012400Y007543D01*
X012400Y007506D02*
X012400Y007792D01*
X012469Y007792D01*
X012469Y007575D01*
X012400Y007506D01*
X012400Y007582D02*
X012469Y007582D01*
X012469Y007620D02*
X012400Y007620D01*
X012400Y007659D02*
X012469Y007659D01*
X012469Y007697D02*
X012400Y007697D01*
X012400Y007736D02*
X012469Y007736D01*
X012469Y007774D02*
X012400Y007774D01*
X012400Y007792D02*
X012400Y006571D01*
X013305Y006925D02*
X013327Y006961D01*
X013346Y006998D01*
X013361Y007037D01*
X013372Y007077D01*
X013380Y007119D01*
X013384Y007160D01*
X013384Y007202D01*
X013380Y007243D01*
X013372Y007285D01*
X013361Y007325D01*
X013346Y007364D01*
X013327Y007401D01*
X013305Y007437D01*
X003463Y007792D02*
X003463Y006571D01*
X002400Y006571D02*
X002400Y007792D01*
X002400Y007506D01*
X002469Y007575D01*
X002469Y007792D01*
X002400Y007792D01*
X002400Y007774D02*
X002469Y007774D01*
X002469Y007736D02*
X002400Y007736D01*
X002400Y007697D02*
X002469Y007697D01*
X002469Y007659D02*
X002400Y007659D01*
X002400Y007620D02*
X002469Y007620D01*
X002469Y007582D02*
X002400Y007582D01*
X002400Y007543D02*
X002437Y007543D01*
X003305Y007437D02*
X003327Y007401D01*
X003346Y007364D01*
X003361Y007325D01*
X003372Y007285D01*
X003380Y007243D01*
X003384Y007202D01*
X003384Y007160D01*
X003380Y007119D01*
X003372Y007077D01*
X003361Y007037D01*
X003346Y006998D01*
X003327Y006961D01*
X003305Y006925D01*
X002558Y006925D02*
X002536Y006961D01*
X002517Y006998D01*
X002502Y007037D01*
X002491Y007077D01*
X002483Y007119D01*
X002479Y007160D01*
X002479Y007202D01*
X002483Y007243D01*
X002491Y007285D01*
X002502Y007325D01*
X002517Y007364D01*
X002536Y007401D01*
X002558Y007437D01*
X002469Y002792D02*
X002469Y002575D01*
X002400Y002506D01*
X002400Y002792D01*
X002469Y002792D01*
X002469Y002764D02*
X002400Y002764D01*
X002400Y002792D02*
X002400Y001571D01*
X003463Y001571D02*
X003463Y002792D01*
X002469Y002725D02*
X002400Y002725D01*
X002400Y002687D02*
X002469Y002687D01*
X002469Y002648D02*
X002400Y002648D01*
X002400Y002610D02*
X002469Y002610D01*
X002465Y002571D02*
X002400Y002571D01*
X002400Y002533D02*
X002426Y002533D01*
X003305Y002437D02*
X003327Y002401D01*
X003346Y002364D01*
X003361Y002325D01*
X003372Y002285D01*
X003380Y002243D01*
X003384Y002202D01*
X003384Y002160D01*
X003380Y002119D01*
X003372Y002077D01*
X003361Y002037D01*
X003346Y001998D01*
X003327Y001961D01*
X003305Y001925D01*
X002558Y001925D02*
X002536Y001961D01*
X002517Y001998D01*
X002502Y002037D01*
X002491Y002077D01*
X002483Y002119D01*
X002479Y002160D01*
X002479Y002202D01*
X002483Y002243D01*
X002491Y002285D01*
X002502Y002325D01*
X002517Y002364D01*
X002536Y002401D01*
X002558Y002437D01*
X012400Y002506D02*
X012400Y002792D01*
X012469Y002792D01*
X012469Y002575D01*
X012400Y002506D01*
X012400Y002533D02*
X012426Y002533D01*
X012400Y002571D02*
X012465Y002571D01*
X012469Y002610D02*
X012400Y002610D01*
X012400Y002648D02*
X012469Y002648D01*
X012469Y002687D02*
X012400Y002687D01*
X012400Y002725D02*
X012469Y002725D01*
X012469Y002764D02*
X012400Y002764D01*
X012400Y002792D02*
X012400Y001571D01*
X013305Y001925D02*
X013327Y001961D01*
X013346Y001998D01*
X013361Y002037D01*
X013372Y002077D01*
X013380Y002119D01*
X013384Y002160D01*
X013384Y002202D01*
X013380Y002243D01*
X013372Y002285D01*
X013361Y002325D01*
X013346Y002364D01*
X013327Y002401D01*
X013305Y002437D01*
X012558Y002437D02*
X012536Y002401D01*
X012517Y002364D01*
X012502Y002325D01*
X012491Y002285D01*
X012483Y002243D01*
X012479Y002202D01*
X012479Y002160D01*
X012483Y002119D01*
X012491Y002077D01*
X012502Y002037D01*
X012517Y001998D01*
X012536Y001961D01*
X012558Y001925D01*
X013463Y001571D02*
X013463Y002792D01*
X022400Y002792D02*
X022400Y001571D01*
X023305Y001925D02*
X023327Y001961D01*
X023346Y001998D01*
X023361Y002037D01*
X023372Y002077D01*
X023380Y002119D01*
X023384Y002160D01*
X023384Y002202D01*
X023380Y002243D01*
X023372Y002285D01*
X023361Y002325D01*
X023346Y002364D01*
X023327Y002401D01*
X023305Y002437D01*
X022558Y002437D02*
X022536Y002401D01*
X022517Y002364D01*
X022502Y002325D01*
X022491Y002285D01*
X022483Y002243D01*
X022479Y002202D01*
X022479Y002160D01*
X022483Y002119D01*
X022491Y002077D01*
X022502Y002037D01*
X022517Y001998D01*
X022536Y001961D01*
X022558Y001925D01*
X023463Y001571D02*
X023463Y002792D01*
X022469Y002792D02*
X022469Y002575D01*
X022400Y002506D01*
X022400Y002792D01*
X022469Y002792D01*
X022469Y002764D02*
X022400Y002764D01*
X022400Y002725D02*
X022469Y002725D01*
X022469Y002687D02*
X022400Y002687D01*
X022400Y002648D02*
X022469Y002648D01*
X022469Y002610D02*
X022400Y002610D01*
X022400Y002571D02*
X022465Y002571D01*
X022426Y002533D02*
X022400Y002533D01*
X032400Y002533D02*
X032426Y002533D01*
X032400Y002506D02*
X032400Y002792D01*
X032469Y002792D01*
X032469Y002575D01*
X032400Y002506D01*
X032400Y002571D02*
X032465Y002571D01*
X032469Y002610D02*
X032400Y002610D01*
X032400Y002648D02*
X032469Y002648D01*
X032469Y002687D02*
X032400Y002687D01*
X032400Y002725D02*
X032469Y002725D01*
X032469Y002764D02*
X032400Y002764D01*
X032400Y002792D02*
X032400Y001571D01*
X033463Y001571D02*
X033463Y002792D01*
X032558Y002437D02*
X032536Y002401D01*
X032517Y002364D01*
X032502Y002325D01*
X032491Y002285D01*
X032483Y002243D01*
X032479Y002202D01*
X032479Y002160D01*
X032483Y002119D01*
X032491Y002077D01*
X032502Y002037D01*
X032517Y001998D01*
X032536Y001961D01*
X032558Y001925D01*
X033305Y001925D02*
X033327Y001961D01*
X033346Y001998D01*
X033361Y002037D01*
X033372Y002077D01*
X033380Y002119D01*
X033384Y002160D01*
X033384Y002202D01*
X033380Y002243D01*
X033372Y002285D01*
X033361Y002325D01*
X033346Y002364D01*
X033327Y002401D01*
X033305Y002437D01*
X042400Y002506D02*
X042400Y002792D01*
X042469Y002792D01*
X042469Y002575D01*
X042400Y002506D01*
X042400Y002533D02*
X042426Y002533D01*
X042400Y002571D02*
X042465Y002571D01*
X042469Y002610D02*
X042400Y002610D01*
X042400Y002648D02*
X042469Y002648D01*
X042469Y002687D02*
X042400Y002687D01*
X042400Y002725D02*
X042469Y002725D01*
X042469Y002764D02*
X042400Y002764D01*
X042400Y002792D02*
X042400Y001571D01*
X043463Y001571D02*
X043463Y002792D01*
X042558Y002437D02*
X042536Y002401D01*
X042517Y002364D01*
X042502Y002325D01*
X042491Y002285D01*
X042483Y002243D01*
X042479Y002202D01*
X042479Y002160D01*
X042483Y002119D01*
X042491Y002077D01*
X042502Y002037D01*
X042517Y001998D01*
X042536Y001961D01*
X042558Y001925D01*
X043305Y001925D02*
X043327Y001961D01*
X043346Y001998D01*
X043361Y002037D01*
X043372Y002077D01*
X043380Y002119D01*
X043384Y002160D01*
X043384Y002202D01*
X043380Y002243D01*
X043372Y002285D01*
X043361Y002325D01*
X043346Y002364D01*
X043327Y002401D01*
X043305Y002437D01*
M02*
