G75*
G70*
%OFA0B0*%
%FSLAX24Y24*%
%IPPOS*%
%LPD*%
%AMOC8*
5,1,8,0,0,1.08239X$1,22.5*
%
%ADD10C,0.0000*%
%ADD11C,0.0150*%
%ADD12C,0.0100*%
%ADD13C,0.0050*%
%ADD14C,0.0110*%
%ADD15C,0.0160*%
%ADD16C,0.0059*%
%ADD17C,0.0080*%
%ADD18C,0.0060*%
%ADD19C,0.0030*%
D10*
X004848Y007120D02*
X004848Y046990D01*
X067840Y046990D01*
X067840Y007120D01*
X004848Y007120D01*
X004848Y007430D02*
X004848Y046810D01*
X067948Y046810D01*
X067948Y007430D01*
X004848Y007430D01*
X005698Y010120D02*
X005700Y010170D01*
X005706Y010220D01*
X005716Y010270D01*
X005729Y010318D01*
X005746Y010366D01*
X005767Y010412D01*
X005791Y010456D01*
X005819Y010498D01*
X005850Y010538D01*
X005884Y010575D01*
X005921Y010610D01*
X005960Y010641D01*
X006001Y010670D01*
X006045Y010695D01*
X006091Y010717D01*
X006138Y010735D01*
X006186Y010749D01*
X006235Y010760D01*
X006285Y010767D01*
X006335Y010770D01*
X006386Y010769D01*
X006436Y010764D01*
X006486Y010755D01*
X006534Y010743D01*
X006582Y010726D01*
X006628Y010706D01*
X006673Y010683D01*
X006716Y010656D01*
X006756Y010626D01*
X006794Y010593D01*
X006829Y010557D01*
X006862Y010518D01*
X006891Y010477D01*
X006917Y010434D01*
X006940Y010389D01*
X006959Y010342D01*
X006974Y010294D01*
X006986Y010245D01*
X006994Y010195D01*
X006998Y010145D01*
X006998Y010095D01*
X006994Y010045D01*
X006986Y009995D01*
X006974Y009946D01*
X006959Y009898D01*
X006940Y009851D01*
X006917Y009806D01*
X006891Y009763D01*
X006862Y009722D01*
X006829Y009683D01*
X006794Y009647D01*
X006756Y009614D01*
X006716Y009584D01*
X006673Y009557D01*
X006628Y009534D01*
X006582Y009514D01*
X006534Y009497D01*
X006486Y009485D01*
X006436Y009476D01*
X006386Y009471D01*
X006335Y009470D01*
X006285Y009473D01*
X006235Y009480D01*
X006186Y009491D01*
X006138Y009505D01*
X006091Y009523D01*
X006045Y009545D01*
X006001Y009570D01*
X005960Y009599D01*
X005921Y009630D01*
X005884Y009665D01*
X005850Y009702D01*
X005819Y009742D01*
X005791Y009784D01*
X005767Y009828D01*
X005746Y009874D01*
X005729Y009922D01*
X005716Y009970D01*
X005706Y010020D01*
X005700Y010070D01*
X005698Y010120D01*
X005698Y044370D02*
X005700Y044420D01*
X005706Y044470D01*
X005716Y044520D01*
X005729Y044568D01*
X005746Y044616D01*
X005767Y044662D01*
X005791Y044706D01*
X005819Y044748D01*
X005850Y044788D01*
X005884Y044825D01*
X005921Y044860D01*
X005960Y044891D01*
X006001Y044920D01*
X006045Y044945D01*
X006091Y044967D01*
X006138Y044985D01*
X006186Y044999D01*
X006235Y045010D01*
X006285Y045017D01*
X006335Y045020D01*
X006386Y045019D01*
X006436Y045014D01*
X006486Y045005D01*
X006534Y044993D01*
X006582Y044976D01*
X006628Y044956D01*
X006673Y044933D01*
X006716Y044906D01*
X006756Y044876D01*
X006794Y044843D01*
X006829Y044807D01*
X006862Y044768D01*
X006891Y044727D01*
X006917Y044684D01*
X006940Y044639D01*
X006959Y044592D01*
X006974Y044544D01*
X006986Y044495D01*
X006994Y044445D01*
X006998Y044395D01*
X006998Y044345D01*
X006994Y044295D01*
X006986Y044245D01*
X006974Y044196D01*
X006959Y044148D01*
X006940Y044101D01*
X006917Y044056D01*
X006891Y044013D01*
X006862Y043972D01*
X006829Y043933D01*
X006794Y043897D01*
X006756Y043864D01*
X006716Y043834D01*
X006673Y043807D01*
X006628Y043784D01*
X006582Y043764D01*
X006534Y043747D01*
X006486Y043735D01*
X006436Y043726D01*
X006386Y043721D01*
X006335Y043720D01*
X006285Y043723D01*
X006235Y043730D01*
X006186Y043741D01*
X006138Y043755D01*
X006091Y043773D01*
X006045Y043795D01*
X006001Y043820D01*
X005960Y043849D01*
X005921Y043880D01*
X005884Y043915D01*
X005850Y043952D01*
X005819Y043992D01*
X005791Y044034D01*
X005767Y044078D01*
X005746Y044124D01*
X005729Y044172D01*
X005716Y044220D01*
X005706Y044270D01*
X005700Y044320D01*
X005698Y044370D01*
X061948Y044370D02*
X061950Y044420D01*
X061956Y044470D01*
X061966Y044520D01*
X061979Y044568D01*
X061996Y044616D01*
X062017Y044662D01*
X062041Y044706D01*
X062069Y044748D01*
X062100Y044788D01*
X062134Y044825D01*
X062171Y044860D01*
X062210Y044891D01*
X062251Y044920D01*
X062295Y044945D01*
X062341Y044967D01*
X062388Y044985D01*
X062436Y044999D01*
X062485Y045010D01*
X062535Y045017D01*
X062585Y045020D01*
X062636Y045019D01*
X062686Y045014D01*
X062736Y045005D01*
X062784Y044993D01*
X062832Y044976D01*
X062878Y044956D01*
X062923Y044933D01*
X062966Y044906D01*
X063006Y044876D01*
X063044Y044843D01*
X063079Y044807D01*
X063112Y044768D01*
X063141Y044727D01*
X063167Y044684D01*
X063190Y044639D01*
X063209Y044592D01*
X063224Y044544D01*
X063236Y044495D01*
X063244Y044445D01*
X063248Y044395D01*
X063248Y044345D01*
X063244Y044295D01*
X063236Y044245D01*
X063224Y044196D01*
X063209Y044148D01*
X063190Y044101D01*
X063167Y044056D01*
X063141Y044013D01*
X063112Y043972D01*
X063079Y043933D01*
X063044Y043897D01*
X063006Y043864D01*
X062966Y043834D01*
X062923Y043807D01*
X062878Y043784D01*
X062832Y043764D01*
X062784Y043747D01*
X062736Y043735D01*
X062686Y043726D01*
X062636Y043721D01*
X062585Y043720D01*
X062535Y043723D01*
X062485Y043730D01*
X062436Y043741D01*
X062388Y043755D01*
X062341Y043773D01*
X062295Y043795D01*
X062251Y043820D01*
X062210Y043849D01*
X062171Y043880D01*
X062134Y043915D01*
X062100Y043952D01*
X062069Y043992D01*
X062041Y044034D01*
X062017Y044078D01*
X061996Y044124D01*
X061979Y044172D01*
X061966Y044220D01*
X061956Y044270D01*
X061950Y044320D01*
X061948Y044370D01*
X066298Y044620D02*
X066300Y044667D01*
X066306Y044713D01*
X066316Y044759D01*
X066329Y044803D01*
X066347Y044847D01*
X066368Y044888D01*
X066392Y044928D01*
X066420Y044966D01*
X066451Y045001D01*
X066485Y045033D01*
X066521Y045062D01*
X066560Y045088D01*
X066600Y045111D01*
X066643Y045130D01*
X066687Y045146D01*
X066732Y045158D01*
X066778Y045166D01*
X066825Y045170D01*
X066871Y045170D01*
X066918Y045166D01*
X066964Y045158D01*
X067009Y045146D01*
X067053Y045130D01*
X067096Y045111D01*
X067136Y045088D01*
X067175Y045062D01*
X067211Y045033D01*
X067245Y045001D01*
X067276Y044966D01*
X067304Y044928D01*
X067328Y044888D01*
X067349Y044847D01*
X067367Y044803D01*
X067380Y044759D01*
X067390Y044713D01*
X067396Y044667D01*
X067398Y044620D01*
X067396Y044573D01*
X067390Y044527D01*
X067380Y044481D01*
X067367Y044437D01*
X067349Y044393D01*
X067328Y044352D01*
X067304Y044312D01*
X067276Y044274D01*
X067245Y044239D01*
X067211Y044207D01*
X067175Y044178D01*
X067136Y044152D01*
X067096Y044129D01*
X067053Y044110D01*
X067009Y044094D01*
X066964Y044082D01*
X066918Y044074D01*
X066871Y044070D01*
X066825Y044070D01*
X066778Y044074D01*
X066732Y044082D01*
X066687Y044094D01*
X066643Y044110D01*
X066600Y044129D01*
X066560Y044152D01*
X066521Y044178D01*
X066485Y044207D01*
X066451Y044239D01*
X066420Y044274D01*
X066392Y044312D01*
X066368Y044352D01*
X066347Y044393D01*
X066329Y044437D01*
X066316Y044481D01*
X066306Y044527D01*
X066300Y044573D01*
X066298Y044620D01*
X061948Y010120D02*
X061950Y010170D01*
X061956Y010220D01*
X061966Y010270D01*
X061979Y010318D01*
X061996Y010366D01*
X062017Y010412D01*
X062041Y010456D01*
X062069Y010498D01*
X062100Y010538D01*
X062134Y010575D01*
X062171Y010610D01*
X062210Y010641D01*
X062251Y010670D01*
X062295Y010695D01*
X062341Y010717D01*
X062388Y010735D01*
X062436Y010749D01*
X062485Y010760D01*
X062535Y010767D01*
X062585Y010770D01*
X062636Y010769D01*
X062686Y010764D01*
X062736Y010755D01*
X062784Y010743D01*
X062832Y010726D01*
X062878Y010706D01*
X062923Y010683D01*
X062966Y010656D01*
X063006Y010626D01*
X063044Y010593D01*
X063079Y010557D01*
X063112Y010518D01*
X063141Y010477D01*
X063167Y010434D01*
X063190Y010389D01*
X063209Y010342D01*
X063224Y010294D01*
X063236Y010245D01*
X063244Y010195D01*
X063248Y010145D01*
X063248Y010095D01*
X063244Y010045D01*
X063236Y009995D01*
X063224Y009946D01*
X063209Y009898D01*
X063190Y009851D01*
X063167Y009806D01*
X063141Y009763D01*
X063112Y009722D01*
X063079Y009683D01*
X063044Y009647D01*
X063006Y009614D01*
X062966Y009584D01*
X062923Y009557D01*
X062878Y009534D01*
X062832Y009514D01*
X062784Y009497D01*
X062736Y009485D01*
X062686Y009476D01*
X062636Y009471D01*
X062585Y009470D01*
X062535Y009473D01*
X062485Y009480D01*
X062436Y009491D01*
X062388Y009505D01*
X062341Y009523D01*
X062295Y009545D01*
X062251Y009570D01*
X062210Y009599D01*
X062171Y009630D01*
X062134Y009665D01*
X062100Y009702D01*
X062069Y009742D01*
X062041Y009784D01*
X062017Y009828D01*
X061996Y009874D01*
X061979Y009922D01*
X061966Y009970D01*
X061956Y010020D01*
X061950Y010070D01*
X061948Y010120D01*
X066298Y009620D02*
X066300Y009667D01*
X066306Y009713D01*
X066316Y009759D01*
X066329Y009803D01*
X066347Y009847D01*
X066368Y009888D01*
X066392Y009928D01*
X066420Y009966D01*
X066451Y010001D01*
X066485Y010033D01*
X066521Y010062D01*
X066560Y010088D01*
X066600Y010111D01*
X066643Y010130D01*
X066687Y010146D01*
X066732Y010158D01*
X066778Y010166D01*
X066825Y010170D01*
X066871Y010170D01*
X066918Y010166D01*
X066964Y010158D01*
X067009Y010146D01*
X067053Y010130D01*
X067096Y010111D01*
X067136Y010088D01*
X067175Y010062D01*
X067211Y010033D01*
X067245Y010001D01*
X067276Y009966D01*
X067304Y009928D01*
X067328Y009888D01*
X067349Y009847D01*
X067367Y009803D01*
X067380Y009759D01*
X067390Y009713D01*
X067396Y009667D01*
X067398Y009620D01*
X067396Y009573D01*
X067390Y009527D01*
X067380Y009481D01*
X067367Y009437D01*
X067349Y009393D01*
X067328Y009352D01*
X067304Y009312D01*
X067276Y009274D01*
X067245Y009239D01*
X067211Y009207D01*
X067175Y009178D01*
X067136Y009152D01*
X067096Y009129D01*
X067053Y009110D01*
X067009Y009094D01*
X066964Y009082D01*
X066918Y009074D01*
X066871Y009070D01*
X066825Y009070D01*
X066778Y009074D01*
X066732Y009082D01*
X066687Y009094D01*
X066643Y009110D01*
X066600Y009129D01*
X066560Y009152D01*
X066521Y009178D01*
X066485Y009207D01*
X066451Y009239D01*
X066420Y009274D01*
X066392Y009312D01*
X066368Y009352D01*
X066347Y009393D01*
X066329Y009437D01*
X066316Y009481D01*
X066306Y009527D01*
X066300Y009573D01*
X066298Y009620D01*
D11*
X042131Y045445D02*
X041848Y045445D01*
X041706Y045586D01*
X041352Y045445D02*
X041352Y046295D01*
X040785Y046295D01*
X040431Y046295D02*
X039864Y046295D01*
X040148Y046295D02*
X040148Y045445D01*
X041069Y045870D02*
X041352Y045870D01*
X041706Y046153D02*
X041848Y046295D01*
X042131Y046295D01*
X042273Y046153D01*
X042273Y045586D01*
X042131Y045445D01*
X038590Y045445D02*
X038590Y046295D01*
X038306Y046012D01*
X038023Y046295D01*
X038023Y045445D01*
X037669Y045445D02*
X037386Y045445D01*
X037527Y045445D02*
X037527Y046012D01*
X037669Y046012D01*
X037527Y046295D02*
X037527Y046437D01*
X037055Y046012D02*
X036630Y046012D01*
X036488Y045870D01*
X036488Y045445D01*
X036135Y045445D02*
X035851Y045445D01*
X035993Y045445D02*
X035993Y046012D01*
X036135Y046012D01*
X035993Y046295D02*
X035993Y046437D01*
X035521Y045870D02*
X035379Y046012D01*
X034954Y046012D01*
X034600Y045870D02*
X034600Y045586D01*
X034458Y045445D01*
X034175Y045445D01*
X034033Y045586D01*
X034033Y045870D01*
X034175Y046012D01*
X034458Y046012D01*
X034600Y045870D01*
X034954Y045445D02*
X035379Y045445D01*
X035521Y045586D01*
X035521Y045870D01*
X037055Y046012D02*
X037055Y045445D01*
X033679Y045445D02*
X033679Y046012D01*
X033537Y046012D01*
X033396Y045870D01*
X033254Y046012D01*
X033112Y045870D01*
X033112Y045445D01*
X033396Y045445D02*
X033396Y045870D01*
X032759Y046012D02*
X032759Y045161D01*
X032759Y045445D02*
X032333Y045445D01*
X032191Y045586D01*
X032191Y045870D01*
X032333Y046012D01*
X032759Y046012D01*
X031838Y046012D02*
X031838Y045586D01*
X031696Y045445D01*
X031271Y045445D01*
X031271Y046012D01*
X030917Y046012D02*
X030633Y046012D01*
X030775Y046153D02*
X030775Y045586D01*
X030633Y045445D01*
X030303Y045586D02*
X030303Y045870D01*
X030161Y046012D01*
X029878Y046012D01*
X029736Y045870D01*
X029736Y045728D01*
X030303Y045728D01*
X030303Y045586D02*
X030161Y045445D01*
X029878Y045445D01*
X029382Y045445D02*
X029382Y046012D01*
X029099Y046012D02*
X029382Y045728D01*
X029099Y046012D02*
X028957Y046012D01*
X027694Y046295D02*
X027694Y045445D01*
X027694Y045728D02*
X027269Y045728D01*
X027127Y045870D01*
X027127Y046153D01*
X027269Y046295D01*
X027694Y046295D01*
X026774Y046012D02*
X026774Y045445D01*
X026774Y045728D02*
X026490Y046012D01*
X026348Y046012D01*
X026006Y045870D02*
X026006Y045586D01*
X025865Y045445D01*
X025581Y045445D01*
X025439Y045586D01*
X025439Y045870D01*
X025581Y046012D01*
X025865Y046012D01*
X026006Y045870D01*
X025086Y046012D02*
X024802Y046012D01*
X024944Y046153D02*
X024944Y045586D01*
X024802Y045445D01*
X024472Y045586D02*
X024330Y045445D01*
X024046Y045445D01*
X023905Y045586D01*
X023905Y045870D01*
X024046Y046012D01*
X024330Y046012D01*
X024472Y045870D01*
X024472Y045586D01*
X023551Y046012D02*
X023268Y046012D01*
X023409Y046153D02*
X023409Y045586D01*
X023268Y045445D01*
X022937Y045586D02*
X022795Y045445D01*
X022370Y045445D01*
X022370Y045303D02*
X022512Y045161D01*
X022654Y045161D01*
X022370Y045303D02*
X022370Y046012D01*
X022016Y046012D02*
X021591Y046012D01*
X021449Y045870D01*
X021449Y045586D01*
X021591Y045445D01*
X022016Y045445D01*
X022016Y045161D02*
X022016Y046012D01*
X022937Y046012D02*
X022937Y045586D01*
X021096Y045445D02*
X020812Y045445D01*
X020954Y045445D02*
X020954Y046012D01*
X021096Y046012D01*
X020954Y046295D02*
X020954Y046437D01*
X020482Y046012D02*
X020057Y046012D01*
X019915Y045870D01*
X019915Y045445D01*
X019561Y045586D02*
X019419Y045445D01*
X018994Y045445D01*
X018994Y045303D02*
X018994Y046012D01*
X019419Y046012D01*
X019561Y045870D01*
X019561Y045586D01*
X019278Y045161D02*
X019136Y045161D01*
X018994Y045303D01*
X017720Y045445D02*
X017720Y046295D01*
X017294Y046295D01*
X017153Y046153D01*
X017153Y046012D01*
X017294Y045870D01*
X017720Y045870D01*
X017720Y045445D02*
X017294Y045445D01*
X017153Y045586D01*
X017153Y045728D01*
X017294Y045870D01*
X016799Y045870D02*
X016799Y045586D01*
X016657Y045445D01*
X016374Y045445D01*
X016232Y045586D01*
X016232Y045870D01*
X016374Y046012D01*
X016657Y046012D01*
X016799Y045870D01*
X015878Y045586D02*
X015736Y045445D01*
X015311Y045445D01*
X015311Y045870D01*
X015453Y046012D01*
X015736Y046012D01*
X015736Y045728D02*
X015311Y045728D01*
X014957Y045728D02*
X014674Y046012D01*
X014532Y046012D01*
X014190Y045870D02*
X014048Y046012D01*
X013623Y046012D01*
X013623Y046295D02*
X013623Y045445D01*
X014048Y045445D01*
X014190Y045586D01*
X014190Y045870D01*
X014957Y046012D02*
X014957Y045445D01*
X015736Y045728D02*
X015878Y045586D01*
X012349Y045445D02*
X012349Y046295D01*
X011923Y046295D01*
X011782Y046153D01*
X011782Y045870D01*
X011923Y045728D01*
X012349Y045728D01*
X012065Y045728D02*
X011782Y045445D01*
X011428Y045586D02*
X011428Y045870D01*
X011286Y046012D01*
X011003Y046012D01*
X010861Y045870D01*
X010861Y045728D01*
X011428Y045728D01*
X011428Y045586D02*
X011286Y045445D01*
X011003Y045445D01*
X010507Y046012D02*
X010224Y045445D01*
X009940Y046012D01*
X008666Y046012D02*
X008666Y045445D01*
X008666Y045870D02*
X008099Y045870D01*
X008099Y046012D02*
X008099Y045445D01*
X008099Y046012D02*
X008382Y046295D01*
X008666Y046012D01*
X020482Y046012D02*
X020482Y045445D01*
D12*
X028598Y040120D02*
X029348Y040120D01*
X029348Y040870D01*
X034348Y041370D02*
X034348Y042120D01*
X035098Y042120D01*
X021348Y033120D02*
X021348Y031120D01*
X053348Y031120D01*
X053348Y033120D01*
X021348Y033120D01*
X021348Y032120D02*
X053348Y032120D01*
X053348Y036120D02*
X053348Y038120D01*
X013348Y038120D01*
X013348Y036120D01*
X053348Y036120D01*
X053348Y037120D02*
X013348Y037120D01*
X009348Y041370D02*
X009348Y042120D01*
X010098Y042120D01*
X013348Y028120D02*
X013348Y026120D01*
X053348Y026120D01*
X053348Y028120D01*
X013348Y028120D01*
X013348Y027120D02*
X053348Y027120D01*
X053348Y023120D02*
X053348Y021120D01*
X021348Y021120D01*
X021348Y023120D01*
X053348Y023120D01*
X053348Y022120D02*
X021348Y022120D01*
X013348Y018120D02*
X013348Y016120D01*
X053348Y016120D01*
X053348Y018120D01*
X013348Y018120D01*
X013348Y017120D02*
X053348Y017120D01*
X055348Y013120D02*
X066348Y013120D01*
X066348Y012120D01*
X055348Y012120D01*
X055348Y013120D01*
X055669Y008980D02*
X055575Y008887D01*
X055575Y008793D01*
X055669Y008700D01*
X055575Y008606D01*
X055575Y008513D01*
X055669Y008420D01*
X055856Y008420D01*
X055949Y008513D01*
X056183Y008420D02*
X056557Y008420D01*
X056370Y008420D02*
X056370Y008980D01*
X056557Y008793D01*
X056791Y008887D02*
X057164Y008513D01*
X057071Y008420D01*
X056884Y008420D01*
X056791Y008513D01*
X056791Y008887D01*
X056884Y008980D01*
X057071Y008980D01*
X057164Y008887D01*
X057164Y008513D01*
X057399Y008420D02*
X057772Y008420D01*
X057399Y008793D01*
X057399Y008887D01*
X057492Y008980D01*
X057679Y008980D01*
X057772Y008887D01*
X058598Y008793D02*
X058598Y008606D01*
X058785Y008420D01*
X059019Y008420D02*
X059299Y008420D01*
X059393Y008513D01*
X059393Y008700D01*
X059299Y008793D01*
X059019Y008793D01*
X058785Y008980D02*
X058598Y008793D01*
X059611Y008980D02*
X059798Y008793D01*
X059798Y008606D01*
X059611Y008420D01*
X055949Y008887D02*
X055856Y008980D01*
X055669Y008980D01*
X055669Y008700D02*
X055762Y008700D01*
X054734Y008700D02*
X054360Y008700D01*
X054360Y008793D02*
X054360Y008420D01*
X054126Y008420D02*
X053939Y008420D01*
X054033Y008420D02*
X054033Y008980D01*
X054126Y008980D01*
X054360Y008793D02*
X054547Y008980D01*
X054734Y008793D01*
X054734Y008420D01*
X053721Y008513D02*
X053721Y008700D01*
X053627Y008793D01*
X053441Y008793D01*
X053347Y008700D01*
X053347Y008606D01*
X053721Y008606D01*
X053721Y008513D02*
X053627Y008420D01*
X053441Y008420D01*
X053113Y008420D02*
X052739Y008793D01*
X052505Y008793D02*
X052412Y008793D01*
X052412Y008420D01*
X052505Y008420D02*
X052319Y008420D01*
X052100Y008513D02*
X052007Y008420D01*
X051820Y008420D01*
X051727Y008513D01*
X051727Y008700D01*
X051820Y008793D01*
X052007Y008793D01*
X052100Y008700D01*
X052100Y008513D01*
X052412Y008980D02*
X052412Y009073D01*
X052739Y008420D02*
X053113Y008793D01*
X051493Y008700D02*
X051399Y008606D01*
X051212Y008606D01*
X051119Y008513D01*
X051212Y008420D01*
X051493Y008420D01*
X051493Y008700D02*
X051399Y008793D01*
X051119Y008793D01*
X050885Y008887D02*
X050885Y008513D01*
X050791Y008420D01*
X050605Y008420D01*
X050511Y008513D01*
X050511Y008887D02*
X050605Y008980D01*
X050791Y008980D01*
X050885Y008887D01*
X029348Y012120D02*
X029348Y012870D01*
X029348Y012120D02*
X028598Y012120D01*
X023798Y008980D02*
X023798Y008420D01*
X023798Y008700D02*
X023704Y008793D01*
X023518Y008793D01*
X023424Y008700D01*
X023424Y008420D01*
X023097Y008513D02*
X023003Y008420D01*
X023097Y008513D02*
X023097Y008887D01*
X023190Y008793D02*
X023003Y008793D01*
X022785Y008793D02*
X022598Y008793D01*
X022692Y008887D02*
X022692Y008513D01*
X022598Y008420D01*
X022380Y008420D02*
X022100Y008420D01*
X022006Y008513D01*
X022006Y008700D01*
X022100Y008793D01*
X022380Y008793D01*
X022380Y008233D01*
X021772Y008420D02*
X021772Y008513D01*
X021679Y008513D01*
X021679Y008420D01*
X021772Y008420D01*
X021772Y008700D02*
X021772Y008793D01*
X021679Y008793D01*
X021679Y008700D01*
X021772Y008700D01*
X021468Y008420D02*
X021095Y008980D01*
X020861Y008420D02*
X020487Y008980D01*
X020253Y008793D02*
X020253Y008513D01*
X020160Y008420D01*
X020066Y008513D01*
X019973Y008420D01*
X019879Y008513D01*
X019879Y008793D01*
X019645Y008793D02*
X019645Y008513D01*
X019552Y008420D01*
X019458Y008513D01*
X019365Y008420D01*
X019272Y008513D01*
X019272Y008793D01*
X019037Y008793D02*
X019037Y008513D01*
X018944Y008420D01*
X018851Y008513D01*
X018757Y008420D01*
X018664Y008513D01*
X018664Y008793D01*
X018430Y008513D02*
X018336Y008513D01*
X018336Y008420D01*
X018430Y008420D01*
X018430Y008513D01*
X018126Y008420D02*
X017846Y008420D01*
X017752Y008513D01*
X017752Y008700D01*
X017846Y008793D01*
X018126Y008793D01*
X018126Y008980D02*
X018126Y008420D01*
X017518Y008513D02*
X017518Y008700D01*
X017425Y008793D01*
X017238Y008793D01*
X017145Y008700D01*
X017145Y008606D01*
X017518Y008606D01*
X017518Y008513D02*
X017425Y008420D01*
X017238Y008420D01*
X016910Y008513D02*
X016910Y008700D01*
X016817Y008793D01*
X016537Y008793D01*
X016537Y008980D02*
X016537Y008420D01*
X016817Y008420D01*
X016910Y008513D01*
X016303Y008606D02*
X016116Y008793D01*
X016023Y008793D01*
X015796Y008700D02*
X015796Y008513D01*
X015703Y008420D01*
X015516Y008420D01*
X015423Y008513D01*
X015423Y008700D01*
X015516Y008793D01*
X015703Y008793D01*
X015796Y008700D01*
X016303Y008793D02*
X016303Y008420D01*
X015189Y008513D02*
X015189Y008700D01*
X015095Y008793D01*
X014908Y008793D01*
X014815Y008700D01*
X014815Y008513D01*
X014908Y008420D01*
X015095Y008420D01*
X015189Y008513D01*
X014581Y008420D02*
X014581Y008793D01*
X014488Y008793D01*
X014394Y008700D01*
X014301Y008793D01*
X014207Y008700D01*
X014207Y008420D01*
X014394Y008420D02*
X014394Y008700D01*
X013973Y008980D02*
X013880Y008980D01*
X013880Y008420D01*
X013973Y008420D02*
X013786Y008420D01*
X013568Y008513D02*
X013475Y008606D01*
X013194Y008606D01*
X013194Y008700D02*
X013194Y008420D01*
X013475Y008420D01*
X013568Y008513D01*
X013475Y008793D02*
X013288Y008793D01*
X013194Y008700D01*
X012960Y008793D02*
X012680Y008793D01*
X012587Y008700D01*
X012587Y008420D01*
X012353Y008420D02*
X012259Y008420D01*
X012259Y008513D01*
X012353Y008513D01*
X012353Y008420D01*
X012049Y008513D02*
X012049Y008700D01*
X011955Y008793D01*
X011769Y008793D01*
X011675Y008700D01*
X011675Y008513D01*
X011769Y008420D01*
X011955Y008420D01*
X012049Y008513D01*
X011441Y008606D02*
X011254Y008793D01*
X011161Y008793D01*
X010935Y008700D02*
X010935Y008513D01*
X010841Y008420D01*
X010561Y008420D01*
X010561Y008326D02*
X010561Y008793D01*
X010841Y008793D01*
X010935Y008700D01*
X010748Y008233D02*
X010654Y008233D01*
X010561Y008326D01*
X010327Y008420D02*
X009953Y008980D01*
X009719Y008700D02*
X009719Y008513D01*
X009626Y008420D01*
X009346Y008420D01*
X009018Y008420D02*
X009018Y008887D01*
X008925Y008980D01*
X008925Y008700D02*
X009111Y008700D01*
X009346Y008793D02*
X009626Y008793D01*
X009719Y008700D01*
X008706Y008793D02*
X008520Y008793D01*
X008613Y008887D02*
X008613Y008513D01*
X008520Y008420D01*
X011441Y008420D02*
X011441Y008793D01*
X012960Y008793D02*
X012960Y008420D01*
X009348Y013370D02*
X009348Y014120D01*
X010098Y014120D01*
X053598Y040120D02*
X054348Y040120D01*
X054348Y040870D01*
X055348Y040120D02*
X066348Y040120D01*
X066348Y039120D01*
X055348Y039120D01*
X055348Y040120D01*
D13*
X054998Y039845D02*
X054848Y039845D01*
X054773Y039770D01*
X054773Y039695D01*
X054848Y039620D01*
X054773Y039545D01*
X054773Y039470D01*
X054848Y039395D01*
X054998Y039395D01*
X055073Y039470D01*
X054923Y039620D02*
X054848Y039620D01*
X055073Y039770D02*
X054998Y039845D01*
X054613Y039470D02*
X054537Y039470D01*
X054537Y039395D01*
X054613Y039395D01*
X054613Y039470D01*
X054382Y039470D02*
X054307Y039395D01*
X054157Y039395D01*
X054082Y039470D01*
X054082Y039545D01*
X054157Y039620D01*
X054232Y039620D01*
X054157Y039620D02*
X054082Y039695D01*
X054082Y039770D01*
X054157Y039845D01*
X054307Y039845D01*
X054382Y039770D01*
X053922Y039845D02*
X053922Y039545D01*
X053772Y039395D01*
X053622Y039545D01*
X053622Y039845D01*
X057733Y040470D02*
X057808Y040395D01*
X057958Y040395D01*
X058033Y040470D01*
X058033Y040770D01*
X057958Y040845D01*
X057808Y040845D01*
X057733Y040770D01*
X059733Y040770D02*
X059733Y040695D01*
X059808Y040620D01*
X060033Y040620D01*
X060033Y040395D02*
X060033Y040845D01*
X059808Y040845D01*
X059733Y040770D01*
X059808Y040620D02*
X059733Y040545D01*
X059733Y040470D01*
X059808Y040395D01*
X060033Y040395D01*
X060929Y040996D02*
X060929Y042571D01*
X061811Y042571D01*
X061874Y042508D02*
X061872Y042494D01*
X061868Y042481D01*
X061860Y042469D01*
X061850Y042459D01*
X061838Y042451D01*
X061825Y042447D01*
X061811Y042445D01*
X061874Y042508D02*
X061872Y042522D01*
X061868Y042535D01*
X061860Y042547D01*
X061850Y042557D01*
X061838Y042565D01*
X061825Y042569D01*
X061811Y042571D01*
X061811Y042445D02*
X061791Y042443D01*
X061772Y042439D01*
X061754Y042431D01*
X061737Y042421D01*
X061722Y042408D01*
X061709Y042393D01*
X061699Y042376D01*
X061691Y042358D01*
X061687Y042339D01*
X061685Y042319D01*
X061685Y042319D01*
X061748Y041877D01*
X061748Y041814D01*
X061746Y041758D01*
X061740Y041702D01*
X061731Y041647D01*
X061718Y041593D01*
X061701Y041540D01*
X061680Y041488D01*
X061656Y041437D01*
X061629Y041388D01*
X061598Y041342D01*
X061564Y041297D01*
X061528Y041255D01*
X061488Y041215D01*
X061446Y041179D01*
X061401Y041145D01*
X061355Y041114D01*
X061306Y041087D01*
X061255Y041063D01*
X061203Y041042D01*
X061150Y041025D01*
X061096Y041012D01*
X061041Y041003D01*
X060985Y040997D01*
X060929Y040995D01*
X061733Y040695D02*
X061733Y040395D01*
X061733Y040620D02*
X062033Y040620D01*
X062033Y040695D02*
X062033Y040395D01*
X062033Y040695D02*
X061883Y040845D01*
X061733Y040695D01*
X061118Y042948D02*
X061139Y042950D01*
X061159Y042955D01*
X061178Y042963D01*
X061195Y042975D01*
X061211Y042989D01*
X061223Y043005D01*
X061233Y043023D01*
X061240Y043043D01*
X061244Y043064D01*
X061244Y043084D01*
X061240Y043105D01*
X061233Y043125D01*
X061223Y043143D01*
X061211Y043159D01*
X061195Y043173D01*
X061178Y043185D01*
X061159Y043193D01*
X061139Y043198D01*
X061118Y043200D01*
X061097Y043202D01*
X061077Y043207D01*
X061058Y043215D01*
X061041Y043227D01*
X061025Y043241D01*
X061013Y043257D01*
X061003Y043275D01*
X060996Y043295D01*
X060992Y043316D01*
X060992Y043336D01*
X060996Y043357D01*
X061003Y043377D01*
X061013Y043395D01*
X061025Y043411D01*
X061041Y043425D01*
X061058Y043437D01*
X061077Y043445D01*
X061097Y043450D01*
X061118Y043452D01*
X061118Y043453D02*
X061139Y043455D01*
X061159Y043460D01*
X061178Y043468D01*
X061195Y043480D01*
X061211Y043494D01*
X061223Y043510D01*
X061233Y043528D01*
X061240Y043548D01*
X061244Y043569D01*
X061244Y043589D01*
X061240Y043610D01*
X061233Y043630D01*
X061223Y043648D01*
X061211Y043664D01*
X061195Y043678D01*
X061178Y043690D01*
X061159Y043698D01*
X061139Y043703D01*
X061118Y043705D01*
X061118Y043704D02*
X061097Y043706D01*
X061077Y043711D01*
X061058Y043719D01*
X061041Y043731D01*
X061025Y043745D01*
X061013Y043761D01*
X061003Y043779D01*
X060996Y043799D01*
X060992Y043820D01*
X060992Y043840D01*
X060996Y043861D01*
X061003Y043881D01*
X061013Y043899D01*
X061025Y043915D01*
X061041Y043929D01*
X061058Y043941D01*
X061077Y043949D01*
X061097Y043954D01*
X061118Y043956D01*
X060614Y044082D02*
X060593Y044080D01*
X060573Y044075D01*
X060554Y044067D01*
X060537Y044055D01*
X060521Y044041D01*
X060509Y044025D01*
X060499Y044007D01*
X060492Y043987D01*
X060488Y043966D01*
X060488Y043946D01*
X060492Y043925D01*
X060499Y043905D01*
X060509Y043887D01*
X060521Y043871D01*
X060537Y043857D01*
X060554Y043845D01*
X060573Y043837D01*
X060593Y043832D01*
X060614Y043830D01*
X060635Y043828D01*
X060655Y043823D01*
X060674Y043815D01*
X060691Y043803D01*
X060707Y043789D01*
X060719Y043773D01*
X060729Y043755D01*
X060736Y043735D01*
X060740Y043714D01*
X060740Y043694D01*
X060736Y043673D01*
X060729Y043653D01*
X060719Y043635D01*
X060707Y043619D01*
X060691Y043605D01*
X060674Y043593D01*
X060655Y043585D01*
X060635Y043580D01*
X060614Y043578D01*
X060593Y043576D01*
X060573Y043571D01*
X060554Y043563D01*
X060537Y043551D01*
X060521Y043537D01*
X060509Y043521D01*
X060499Y043503D01*
X060492Y043483D01*
X060488Y043462D01*
X060488Y043442D01*
X060492Y043421D01*
X060499Y043401D01*
X060509Y043383D01*
X060521Y043367D01*
X060537Y043353D01*
X060554Y043341D01*
X060573Y043333D01*
X060593Y043328D01*
X060614Y043326D01*
X060635Y043324D01*
X060655Y043319D01*
X060674Y043311D01*
X060691Y043299D01*
X060707Y043285D01*
X060719Y043269D01*
X060729Y043251D01*
X060736Y043231D01*
X060740Y043210D01*
X060740Y043190D01*
X060736Y043169D01*
X060729Y043149D01*
X060719Y043131D01*
X060707Y043115D01*
X060691Y043101D01*
X060674Y043089D01*
X060655Y043081D01*
X060635Y043076D01*
X060614Y043074D01*
X060110Y042948D02*
X060131Y042950D01*
X060151Y042955D01*
X060170Y042963D01*
X060187Y042975D01*
X060203Y042989D01*
X060215Y043005D01*
X060225Y043023D01*
X060232Y043043D01*
X060236Y043064D01*
X060236Y043084D01*
X060232Y043105D01*
X060225Y043125D01*
X060215Y043143D01*
X060203Y043159D01*
X060187Y043173D01*
X060170Y043185D01*
X060151Y043193D01*
X060131Y043198D01*
X060110Y043200D01*
X060089Y043202D01*
X060069Y043207D01*
X060050Y043215D01*
X060033Y043227D01*
X060017Y043241D01*
X060005Y043257D01*
X059995Y043275D01*
X059988Y043295D01*
X059984Y043316D01*
X059984Y043336D01*
X059988Y043357D01*
X059995Y043377D01*
X060005Y043395D01*
X060017Y043411D01*
X060033Y043425D01*
X060050Y043437D01*
X060069Y043445D01*
X060089Y043450D01*
X060110Y043452D01*
X060110Y043453D02*
X060131Y043455D01*
X060151Y043460D01*
X060170Y043468D01*
X060187Y043480D01*
X060203Y043494D01*
X060215Y043510D01*
X060225Y043528D01*
X060232Y043548D01*
X060236Y043569D01*
X060236Y043589D01*
X060232Y043610D01*
X060225Y043630D01*
X060215Y043648D01*
X060203Y043664D01*
X060187Y043678D01*
X060170Y043690D01*
X060151Y043698D01*
X060131Y043703D01*
X060110Y043705D01*
X060110Y043704D02*
X060089Y043706D01*
X060069Y043711D01*
X060050Y043719D01*
X060033Y043731D01*
X060017Y043745D01*
X060005Y043761D01*
X059995Y043779D01*
X059988Y043799D01*
X059984Y043820D01*
X059984Y043840D01*
X059988Y043861D01*
X059995Y043881D01*
X060005Y043899D01*
X060017Y043915D01*
X060033Y043929D01*
X060050Y043941D01*
X060069Y043949D01*
X060089Y043954D01*
X060110Y043956D01*
X066523Y042395D02*
X066823Y042395D01*
X066673Y042395D02*
X066673Y042845D01*
X066823Y042695D01*
X066823Y038845D02*
X066523Y038845D01*
X066598Y038695D02*
X066523Y038620D01*
X066523Y038470D01*
X066598Y038395D01*
X066748Y038395D01*
X066823Y038470D01*
X066823Y038620D02*
X066673Y038695D01*
X066598Y038695D01*
X066823Y038620D02*
X066823Y038845D01*
X066787Y033845D02*
X066637Y033845D01*
X066562Y033770D01*
X066863Y033470D01*
X066787Y033395D01*
X066637Y033395D01*
X066562Y033470D01*
X066562Y033770D01*
X066787Y033845D02*
X066863Y033770D01*
X066863Y033470D01*
X067023Y033395D02*
X067323Y033395D01*
X067173Y033395D02*
X067173Y033845D01*
X067323Y033695D01*
X067173Y028845D02*
X067173Y028395D01*
X067323Y028395D02*
X067023Y028395D01*
X066863Y028470D02*
X066787Y028395D01*
X066637Y028395D01*
X066562Y028470D01*
X066562Y028620D01*
X066637Y028695D01*
X066712Y028695D01*
X066863Y028620D01*
X066863Y028845D01*
X066562Y028845D01*
X067173Y028845D02*
X067323Y028695D01*
X067248Y023845D02*
X067323Y023770D01*
X067248Y023845D02*
X067098Y023845D01*
X067023Y023770D01*
X067023Y023695D01*
X067323Y023395D01*
X067023Y023395D01*
X066863Y023470D02*
X066562Y023770D01*
X066562Y023470D01*
X066637Y023395D01*
X066787Y023395D01*
X066863Y023470D01*
X066863Y023770D01*
X066787Y023845D01*
X066637Y023845D01*
X066562Y023770D01*
X066562Y018845D02*
X066863Y018845D01*
X066863Y018620D01*
X066712Y018695D01*
X066637Y018695D01*
X066562Y018620D01*
X066562Y018470D01*
X066637Y018395D01*
X066787Y018395D01*
X066863Y018470D01*
X067023Y018395D02*
X067323Y018395D01*
X067023Y018695D01*
X067023Y018770D01*
X067098Y018845D01*
X067248Y018845D01*
X067323Y018770D01*
X067248Y013845D02*
X067098Y013845D01*
X067023Y013770D01*
X067023Y013695D01*
X067098Y013620D01*
X067023Y013545D01*
X067023Y013470D01*
X067098Y013395D01*
X067248Y013395D01*
X067323Y013470D01*
X067173Y013620D02*
X067098Y013620D01*
X067323Y013770D02*
X067248Y013845D01*
X066863Y013770D02*
X066787Y013845D01*
X066637Y013845D01*
X066562Y013770D01*
X066863Y013470D01*
X066787Y013395D01*
X066637Y013395D01*
X066562Y013470D01*
X066562Y013770D01*
X066863Y013770D02*
X066863Y013470D01*
X066787Y011845D02*
X066637Y011845D01*
X066562Y011770D01*
X066562Y011695D01*
X066863Y011395D01*
X066562Y011395D01*
X067023Y011470D02*
X067098Y011395D01*
X067248Y011395D01*
X067323Y011470D01*
X067173Y011620D02*
X067098Y011620D01*
X067023Y011545D01*
X067023Y011470D01*
X067098Y011620D02*
X067023Y011695D01*
X067023Y011770D01*
X067098Y011845D01*
X067248Y011845D01*
X067323Y011770D01*
X066863Y011770D02*
X066787Y011845D01*
X059323Y013470D02*
X059248Y013395D01*
X059098Y013395D01*
X059023Y013470D01*
X059023Y013545D01*
X059098Y013620D01*
X059173Y013620D01*
X059098Y013620D02*
X059023Y013695D01*
X059023Y013770D01*
X059098Y013845D01*
X059248Y013845D01*
X059323Y013770D01*
X058863Y013770D02*
X058863Y013470D01*
X058562Y013770D01*
X058562Y013470D01*
X058637Y013395D01*
X058787Y013395D01*
X058863Y013470D01*
X058863Y013770D02*
X058787Y013845D01*
X058637Y013845D01*
X058562Y013770D01*
X056123Y011495D02*
X055898Y011495D01*
X055823Y011420D01*
X055823Y011270D01*
X055898Y011195D01*
X056123Y011195D01*
X056123Y011045D02*
X056123Y011495D01*
X055663Y011345D02*
X055512Y011495D01*
X055362Y011345D01*
X055362Y011045D01*
X055202Y011045D02*
X054977Y011045D01*
X054902Y011120D01*
X054902Y011420D01*
X054977Y011495D01*
X055202Y011495D01*
X055202Y011045D01*
X055362Y011270D02*
X055663Y011270D01*
X055663Y011345D02*
X055663Y011045D01*
X054742Y011045D02*
X054442Y011345D01*
X054442Y011420D01*
X054517Y011495D01*
X054667Y011495D01*
X054742Y011420D01*
X054742Y011045D02*
X054442Y011045D01*
X054281Y011045D02*
X054281Y011120D01*
X053981Y011420D01*
X053981Y011495D01*
X054281Y011495D01*
X054312Y012395D02*
X054613Y012395D01*
X054312Y012695D01*
X054312Y012770D01*
X054387Y012845D01*
X054537Y012845D01*
X054613Y012770D01*
X054923Y012845D02*
X054923Y012395D01*
X055073Y012395D02*
X054773Y012395D01*
X055073Y012695D02*
X054923Y012845D01*
X054152Y012845D02*
X054152Y012545D01*
X054002Y012395D01*
X053852Y012545D01*
X053852Y012845D01*
X058637Y018395D02*
X058787Y018395D01*
X058863Y018470D01*
X058863Y018620D02*
X058712Y018695D01*
X058637Y018695D01*
X058562Y018620D01*
X058562Y018470D01*
X058637Y018395D01*
X058863Y018620D02*
X058863Y018845D01*
X058562Y018845D01*
X059023Y018770D02*
X059098Y018845D01*
X059248Y018845D01*
X059323Y018770D01*
X059023Y018770D02*
X059023Y018695D01*
X059323Y018395D01*
X059023Y018395D01*
X059023Y023395D02*
X059323Y023395D01*
X059023Y023695D01*
X059023Y023770D01*
X059098Y023845D01*
X059248Y023845D01*
X059323Y023770D01*
X058863Y023770D02*
X058787Y023845D01*
X058637Y023845D01*
X058562Y023770D01*
X058863Y023470D01*
X058787Y023395D01*
X058637Y023395D01*
X058562Y023470D01*
X058562Y023770D01*
X058863Y023770D02*
X058863Y023470D01*
X058787Y028395D02*
X058863Y028470D01*
X058787Y028395D02*
X058637Y028395D01*
X058562Y028470D01*
X058562Y028620D01*
X058637Y028695D01*
X058712Y028695D01*
X058863Y028620D01*
X058863Y028845D01*
X058562Y028845D01*
X059173Y028845D02*
X059173Y028395D01*
X059323Y028395D02*
X059023Y028395D01*
X059323Y028695D02*
X059173Y028845D01*
X059173Y033395D02*
X059173Y033845D01*
X059323Y033695D01*
X059323Y033395D02*
X059023Y033395D01*
X058863Y033470D02*
X058562Y033770D01*
X058562Y033470D01*
X058637Y033395D01*
X058787Y033395D01*
X058863Y033470D01*
X058863Y033770D01*
X058787Y033845D01*
X058637Y033845D01*
X058562Y033770D01*
X059098Y038395D02*
X059248Y038395D01*
X059323Y038470D01*
X059323Y038620D02*
X059173Y038695D01*
X059098Y038695D01*
X059023Y038620D01*
X059023Y038470D01*
X059098Y038395D01*
X059323Y038620D02*
X059323Y038845D01*
X059023Y038845D01*
D14*
X007043Y014924D02*
X007043Y014530D01*
X006945Y014279D02*
X006847Y014279D01*
X006748Y014181D01*
X006650Y014279D01*
X006551Y014279D01*
X006453Y014181D01*
X006453Y013984D01*
X006551Y013885D01*
X006551Y013635D02*
X006453Y013536D01*
X006453Y013339D01*
X006551Y013241D01*
X006453Y012990D02*
X006453Y012596D01*
X006453Y012793D02*
X007043Y012793D01*
X006847Y012596D01*
X006945Y013241D02*
X007043Y013339D01*
X007043Y013536D01*
X006945Y013635D01*
X006847Y013635D01*
X006748Y013536D01*
X006650Y013635D01*
X006551Y013635D01*
X006748Y013536D02*
X006748Y013438D01*
X006945Y013885D02*
X007043Y013984D01*
X007043Y014181D01*
X006945Y014279D01*
X006748Y014181D02*
X006748Y014082D01*
X006551Y014530D02*
X006453Y014530D01*
X006551Y014530D02*
X006945Y014924D01*
X007043Y014924D01*
D15*
X007348Y015470D02*
X006148Y015470D01*
X006148Y012320D01*
X007348Y012320D01*
X007348Y015470D01*
X058408Y042823D02*
X058474Y042854D01*
X058542Y042882D01*
X058611Y042906D01*
X058681Y042927D01*
X058752Y042944D01*
X058824Y042957D01*
X058896Y042967D01*
X058969Y042973D01*
X059042Y042975D01*
X059115Y042973D01*
X059188Y042968D01*
X059260Y042959D01*
X059332Y042946D01*
X059403Y042930D01*
X059474Y042910D01*
X059543Y042886D01*
X060047Y042697D01*
D16*
X051766Y014237D02*
X051811Y013793D01*
X051911Y013763D01*
X052008Y013723D01*
X052100Y013673D01*
X052446Y013955D01*
X052684Y013718D01*
X052401Y013372D01*
X052452Y013280D01*
X052492Y013183D01*
X052521Y013083D01*
X052966Y013037D01*
X052966Y012702D01*
X052521Y012656D01*
X052492Y012556D01*
X052452Y012459D01*
X052401Y012368D01*
X052684Y012021D01*
X052446Y011784D01*
X052100Y012066D01*
X052032Y012027D01*
X051960Y011994D01*
X051763Y012472D01*
X051827Y012505D01*
X051885Y012548D01*
X051935Y012601D01*
X051975Y012661D01*
X052004Y012727D01*
X052022Y012797D01*
X052029Y012870D01*
X052021Y012950D01*
X051998Y013028D01*
X051962Y013100D01*
X051913Y013163D01*
X051852Y013217D01*
X051783Y013258D01*
X051707Y013286D01*
X051627Y013299D01*
X051547Y013297D01*
X051468Y013280D01*
X051393Y013248D01*
X051326Y013204D01*
X051269Y013147D01*
X051223Y013081D01*
X051190Y013007D01*
X051171Y012928D01*
X051168Y012847D01*
X051179Y012768D01*
X051206Y012691D01*
X051246Y012621D01*
X051299Y012560D01*
X051362Y012509D01*
X051433Y012472D01*
X051235Y011994D01*
X051164Y012027D01*
X051096Y012066D01*
X050750Y011784D01*
X050512Y012021D01*
X050794Y012368D01*
X050744Y012459D01*
X050704Y012556D01*
X050675Y012656D01*
X050230Y012702D01*
X050230Y013037D01*
X050675Y013083D01*
X050704Y013183D01*
X050744Y013280D01*
X050794Y013372D01*
X050512Y013718D01*
X050750Y013955D01*
X051096Y013673D01*
X051188Y013723D01*
X051284Y013763D01*
X051385Y013793D01*
X051430Y014237D01*
X051766Y014237D01*
X051771Y014186D02*
X051425Y014186D01*
X051419Y014128D02*
X051777Y014128D01*
X051783Y014071D02*
X051413Y014071D01*
X051407Y014013D02*
X051789Y014013D01*
X051794Y013955D02*
X051401Y013955D01*
X051395Y013898D02*
X051800Y013898D01*
X051806Y013840D02*
X051390Y013840D01*
X051350Y013783D02*
X051846Y013783D01*
X052004Y013725D02*
X051191Y013725D01*
X051032Y013725D02*
X050519Y013725D01*
X050553Y013667D02*
X052643Y013667D01*
X052677Y013725D02*
X052164Y013725D01*
X052234Y013783D02*
X052619Y013783D01*
X052561Y013840D02*
X052305Y013840D01*
X052376Y013898D02*
X052504Y013898D01*
X052596Y013610D02*
X050600Y013610D01*
X050647Y013552D02*
X052549Y013552D01*
X052502Y013495D02*
X050694Y013495D01*
X050741Y013437D02*
X052455Y013437D01*
X052408Y013379D02*
X050788Y013379D01*
X050767Y013322D02*
X052429Y013322D01*
X052458Y013264D02*
X051767Y013264D01*
X051864Y013207D02*
X052482Y013207D01*
X052502Y013149D02*
X051924Y013149D01*
X051966Y013091D02*
X052518Y013091D01*
X052966Y013034D02*
X051995Y013034D01*
X052013Y012976D02*
X052966Y012976D01*
X052966Y012919D02*
X052024Y012919D01*
X052028Y012861D02*
X052966Y012861D01*
X052966Y012803D02*
X052023Y012803D01*
X052009Y012746D02*
X052966Y012746D01*
X052834Y012688D02*
X051987Y012688D01*
X051954Y012631D02*
X052513Y012631D01*
X052497Y012573D02*
X051908Y012573D01*
X051841Y012515D02*
X052475Y012515D01*
X052451Y012458D02*
X051768Y012458D01*
X051792Y012400D02*
X052419Y012400D01*
X052422Y012343D02*
X051816Y012343D01*
X051840Y012285D02*
X052469Y012285D01*
X052516Y012227D02*
X051864Y012227D01*
X051888Y012170D02*
X052562Y012170D01*
X052609Y012112D02*
X051912Y012112D01*
X051935Y012055D02*
X052080Y012055D01*
X052114Y012055D02*
X052656Y012055D01*
X052660Y011997D02*
X052185Y011997D01*
X052255Y011939D02*
X052602Y011939D01*
X052544Y011882D02*
X052326Y011882D01*
X052397Y011824D02*
X052487Y011824D01*
X051966Y011997D02*
X051959Y011997D01*
X051332Y012227D02*
X050680Y012227D01*
X050633Y012170D02*
X051308Y012170D01*
X051284Y012112D02*
X050586Y012112D01*
X050539Y012055D02*
X051082Y012055D01*
X051116Y012055D02*
X051260Y012055D01*
X051236Y011997D02*
X051229Y011997D01*
X051011Y011997D02*
X050536Y011997D01*
X050594Y011939D02*
X050941Y011939D01*
X050870Y011882D02*
X050651Y011882D01*
X050709Y011824D02*
X050799Y011824D01*
X050727Y012285D02*
X051356Y012285D01*
X051380Y012343D02*
X050774Y012343D01*
X050776Y012400D02*
X051403Y012400D01*
X051427Y012458D02*
X050745Y012458D01*
X050721Y012515D02*
X051354Y012515D01*
X051287Y012573D02*
X050699Y012573D01*
X050682Y012631D02*
X051241Y012631D01*
X051208Y012688D02*
X050362Y012688D01*
X050230Y012746D02*
X051187Y012746D01*
X051174Y012803D02*
X050230Y012803D01*
X050230Y012861D02*
X051168Y012861D01*
X051171Y012919D02*
X050230Y012919D01*
X050230Y012976D02*
X051183Y012976D01*
X051202Y013034D02*
X050230Y013034D01*
X050677Y013091D02*
X051230Y013091D01*
X051271Y013149D02*
X050694Y013149D01*
X050714Y013207D02*
X051331Y013207D01*
X051430Y013264D02*
X050737Y013264D01*
X050577Y013783D02*
X050961Y013783D01*
X050891Y013840D02*
X050634Y013840D01*
X050692Y013898D02*
X050820Y013898D01*
D17*
X060046Y041036D02*
X060171Y041006D01*
X060299Y040996D01*
X060929Y040996D01*
X060929Y042571D01*
X060299Y042571D01*
X060299Y040996D01*
X060299Y042571D01*
X059417Y042571D01*
X059401Y042568D01*
X059385Y042562D01*
X059372Y042552D01*
X059362Y042539D01*
X059356Y042524D01*
X059354Y042508D01*
X059356Y042491D01*
X059362Y042476D01*
X059372Y042463D01*
X059385Y042453D01*
X059401Y042447D01*
X059417Y042445D01*
X059445Y042441D01*
X059472Y042432D01*
X059495Y042417D01*
X059515Y042397D01*
X059530Y042373D01*
X059540Y042347D01*
X059543Y042319D01*
X059480Y041878D01*
X059480Y041815D01*
X059490Y041686D01*
X059520Y041561D01*
X059569Y041443D01*
X059636Y041333D01*
X059720Y041235D01*
X059817Y041152D01*
X059927Y041085D01*
X060046Y041036D01*
X059941Y041079D02*
X060299Y041079D01*
X060929Y041079D01*
X061287Y041079D01*
X061301Y041085D02*
X061182Y041036D01*
X061057Y041006D01*
X060929Y040996D01*
X060929Y042571D01*
X061811Y042571D01*
X061827Y042568D01*
X061842Y042562D01*
X061855Y042552D01*
X061865Y042539D01*
X061872Y042524D01*
X061874Y042508D01*
X061872Y042491D01*
X061865Y042476D01*
X061855Y042463D01*
X061842Y042453D01*
X061827Y042447D01*
X061811Y042445D01*
X061783Y042441D01*
X061756Y042432D01*
X061732Y042417D01*
X061712Y042397D01*
X061697Y042373D01*
X061688Y042347D01*
X061685Y042319D01*
X061748Y041878D01*
X061748Y041815D01*
X061738Y041686D01*
X061708Y041561D01*
X061659Y041443D01*
X061591Y041333D01*
X061508Y041235D01*
X061410Y041152D01*
X061301Y041085D01*
X061417Y041158D02*
X060929Y041158D01*
X060299Y041158D01*
X059811Y041158D01*
X059719Y041236D02*
X060299Y041236D01*
X060929Y041236D01*
X061509Y041236D01*
X061576Y041315D02*
X060929Y041315D01*
X060299Y041315D01*
X059652Y041315D01*
X059599Y041393D02*
X060299Y041393D01*
X060929Y041393D01*
X061628Y041393D01*
X061671Y041472D02*
X060929Y041472D01*
X060299Y041472D01*
X059557Y041472D01*
X059525Y041550D02*
X060299Y041550D01*
X060929Y041550D01*
X061703Y041550D01*
X061724Y041629D02*
X060929Y041629D01*
X060299Y041629D01*
X059504Y041629D01*
X059488Y041707D02*
X060299Y041707D01*
X060929Y041707D01*
X061739Y041707D01*
X061746Y041786D02*
X060929Y041786D01*
X060299Y041786D01*
X059482Y041786D01*
X059480Y041864D02*
X060299Y041864D01*
X060929Y041864D01*
X061748Y041864D01*
X061739Y041943D02*
X060929Y041943D01*
X060299Y041943D01*
X059489Y041943D01*
X059500Y042021D02*
X060299Y042021D01*
X060929Y042021D01*
X061727Y042021D01*
X061716Y042100D02*
X060929Y042100D01*
X060299Y042100D01*
X059512Y042100D01*
X059523Y042179D02*
X060299Y042179D01*
X060929Y042179D01*
X061705Y042179D01*
X061694Y042257D02*
X060929Y042257D01*
X060299Y042257D01*
X059534Y042257D01*
X059541Y042336D02*
X060299Y042336D01*
X060929Y042336D01*
X061687Y042336D01*
X061729Y042414D02*
X060929Y042414D01*
X060299Y042414D01*
X059498Y042414D01*
X059356Y042493D02*
X060299Y042493D01*
X060929Y042493D01*
X061872Y042493D01*
X060991Y041000D02*
X060929Y041000D01*
X060299Y041000D01*
X060236Y041000D01*
D18*
X056148Y010920D02*
X056048Y010920D01*
X056148Y010920D02*
X056148Y010820D01*
X056148Y010420D02*
X056148Y010320D01*
X056048Y010320D01*
X055648Y010320D02*
X055548Y010320D01*
X055548Y010420D01*
X055548Y010820D02*
X055548Y010920D01*
X055648Y010920D01*
D19*
X047489Y016485D02*
X047427Y016423D01*
X047180Y016423D01*
X047118Y016485D01*
X047118Y016608D01*
X047180Y016670D01*
X047118Y016792D02*
X047365Y017038D01*
X047427Y017038D01*
X047489Y016977D01*
X047489Y016853D01*
X047427Y016792D01*
X047427Y016670D02*
X047489Y016608D01*
X047489Y016485D01*
X047118Y016792D02*
X047118Y017038D01*
X047118Y017160D02*
X047365Y017407D01*
X047427Y017407D01*
X047489Y017345D01*
X047489Y017222D01*
X047427Y017160D01*
X047118Y017160D02*
X047118Y017407D01*
X047180Y021423D02*
X047118Y021485D01*
X047118Y021608D01*
X047180Y021670D01*
X047118Y021792D02*
X047365Y022038D01*
X047427Y022038D01*
X047489Y021977D01*
X047489Y021853D01*
X047427Y021792D01*
X047427Y021670D02*
X047489Y021608D01*
X047489Y021485D01*
X047427Y021423D01*
X047180Y021423D01*
X047118Y021792D02*
X047118Y022038D01*
X047180Y022160D02*
X047118Y022222D01*
X047118Y022345D01*
X047180Y022407D01*
X047242Y022407D01*
X047304Y022345D01*
X047304Y022160D01*
X047180Y022160D01*
X047304Y022160D02*
X047427Y022283D01*
X047489Y022407D01*
X047427Y026423D02*
X047180Y026423D01*
X047118Y026485D01*
X047118Y026608D01*
X047180Y026670D01*
X047118Y026792D02*
X047365Y027038D01*
X047427Y027038D01*
X047489Y026977D01*
X047489Y026853D01*
X047427Y026792D01*
X047427Y026670D02*
X047489Y026608D01*
X047489Y026485D01*
X047427Y026423D01*
X047118Y026792D02*
X047118Y027038D01*
X047180Y027160D02*
X047118Y027222D01*
X047118Y027345D01*
X047180Y027407D01*
X047242Y027407D01*
X047304Y027345D01*
X047304Y027283D01*
X047304Y027345D02*
X047365Y027407D01*
X047427Y027407D01*
X047489Y027345D01*
X047489Y027222D01*
X047427Y027160D01*
X047427Y031423D02*
X047180Y031423D01*
X047118Y031485D01*
X047118Y031608D01*
X047180Y031670D01*
X047118Y031792D02*
X047365Y032038D01*
X047427Y032038D01*
X047489Y031977D01*
X047489Y031853D01*
X047427Y031792D01*
X047427Y031670D02*
X047489Y031608D01*
X047489Y031485D01*
X047427Y031423D01*
X047118Y031792D02*
X047118Y032038D01*
X047180Y032160D02*
X047118Y032222D01*
X047118Y032345D01*
X047180Y032407D01*
X047304Y032407D01*
X047365Y032345D01*
X047365Y032283D01*
X047304Y032160D01*
X047489Y032160D01*
X047489Y032407D01*
X047427Y036792D02*
X047180Y036792D01*
X047118Y036853D01*
X047118Y036977D01*
X047180Y037038D01*
X047180Y037160D02*
X047118Y037222D01*
X047118Y037345D01*
X047180Y037407D01*
X047304Y037407D01*
X047365Y037345D01*
X047365Y037283D01*
X047304Y037160D01*
X047489Y037160D01*
X047489Y037407D01*
X047427Y037038D02*
X047489Y036977D01*
X047489Y036853D01*
X047427Y036792D01*
X040489Y036853D02*
X040427Y036792D01*
X040180Y036792D01*
X040118Y036853D01*
X040118Y036977D01*
X040180Y037038D01*
X040180Y037160D02*
X040118Y037222D01*
X040118Y037345D01*
X040180Y037407D01*
X040242Y037407D01*
X040304Y037345D01*
X040304Y037160D01*
X040180Y037160D01*
X040304Y037160D02*
X040427Y037283D01*
X040489Y037407D01*
X040427Y037038D02*
X040489Y036977D01*
X040489Y036853D01*
X040427Y032407D02*
X040365Y032407D01*
X040304Y032345D01*
X040304Y032222D01*
X040365Y032160D01*
X040427Y032160D01*
X040489Y032222D01*
X040489Y032345D01*
X040427Y032407D01*
X040304Y032345D02*
X040242Y032407D01*
X040180Y032407D01*
X040118Y032345D01*
X040118Y032222D01*
X040180Y032160D01*
X040242Y032160D01*
X040304Y032222D01*
X040365Y032038D02*
X040427Y032038D01*
X040489Y031977D01*
X040489Y031853D01*
X040427Y031792D01*
X040427Y031670D02*
X040489Y031608D01*
X040489Y031485D01*
X040427Y031423D01*
X040180Y031423D01*
X040118Y031485D01*
X040118Y031608D01*
X040180Y031670D01*
X040118Y031792D02*
X040365Y032038D01*
X040118Y032038D02*
X040118Y031792D01*
X040118Y027407D02*
X040118Y027160D01*
X040118Y027038D02*
X040118Y026792D01*
X040365Y027038D01*
X040427Y027038D01*
X040489Y026977D01*
X040489Y026853D01*
X040427Y026792D01*
X040427Y026670D02*
X040489Y026608D01*
X040489Y026485D01*
X040427Y026423D01*
X040180Y026423D01*
X040118Y026485D01*
X040118Y026608D01*
X040180Y026670D01*
X040365Y027160D02*
X040489Y027283D01*
X040118Y027283D01*
X040180Y022407D02*
X040427Y022407D01*
X040489Y022345D01*
X040489Y022222D01*
X040427Y022160D01*
X040365Y022160D01*
X040304Y022222D01*
X040304Y022407D01*
X040180Y022407D02*
X040118Y022345D01*
X040118Y022222D01*
X040180Y022160D01*
X040118Y022038D02*
X040118Y021792D01*
X040365Y022038D01*
X040427Y022038D01*
X040489Y021977D01*
X040489Y021853D01*
X040427Y021792D01*
X040427Y021670D02*
X040489Y021608D01*
X040489Y021485D01*
X040427Y021423D01*
X040180Y021423D01*
X040118Y021485D01*
X040118Y021608D01*
X040180Y021670D01*
X040180Y017407D02*
X040118Y017345D01*
X040118Y017222D01*
X040180Y017160D01*
X040427Y017407D01*
X040180Y017407D01*
X040427Y017407D02*
X040489Y017345D01*
X040489Y017222D01*
X040427Y017160D01*
X040180Y017160D01*
X040118Y017038D02*
X040118Y016792D01*
X040365Y017038D01*
X040427Y017038D01*
X040489Y016977D01*
X040489Y016853D01*
X040427Y016792D01*
X040427Y016670D02*
X040489Y016608D01*
X040489Y016485D01*
X040427Y016423D01*
X040180Y016423D01*
X040118Y016485D01*
X040118Y016608D01*
X040180Y016670D01*
X033489Y016608D02*
X033489Y016485D01*
X033427Y016423D01*
X033180Y016423D01*
X033118Y016485D01*
X033118Y016608D01*
X033180Y016670D01*
X033118Y016792D02*
X033118Y017038D01*
X033118Y016915D02*
X033489Y016915D01*
X033365Y016792D01*
X033427Y016670D02*
X033489Y016608D01*
X033427Y017160D02*
X033365Y017160D01*
X033304Y017222D01*
X033304Y017345D01*
X033242Y017407D01*
X033180Y017407D01*
X033118Y017345D01*
X033118Y017222D01*
X033180Y017160D01*
X033242Y017160D01*
X033304Y017222D01*
X033304Y017345D02*
X033365Y017407D01*
X033427Y017407D01*
X033489Y017345D01*
X033489Y017222D01*
X033427Y017160D01*
X033427Y021423D02*
X033180Y021423D01*
X033118Y021485D01*
X033118Y021608D01*
X033180Y021670D01*
X033180Y021792D02*
X033118Y021853D01*
X033118Y021977D01*
X033180Y022038D01*
X033242Y022038D01*
X033304Y021977D01*
X033304Y021915D01*
X033304Y021977D02*
X033365Y022038D01*
X033427Y022038D01*
X033489Y021977D01*
X033489Y021853D01*
X033427Y021792D01*
X033427Y021670D02*
X033489Y021608D01*
X033489Y021485D01*
X033427Y021423D01*
X033427Y022160D02*
X033489Y022222D01*
X033489Y022345D01*
X033427Y022407D01*
X033365Y022407D01*
X033118Y022160D01*
X033118Y022407D01*
X033180Y026423D02*
X033118Y026485D01*
X033118Y026608D01*
X033180Y026670D01*
X033118Y026792D02*
X033118Y027038D01*
X033118Y026915D02*
X033489Y026915D01*
X033365Y026792D01*
X033427Y026670D02*
X033489Y026608D01*
X033489Y026485D01*
X033427Y026423D01*
X033180Y026423D01*
X033180Y027160D02*
X033118Y027222D01*
X033118Y027345D01*
X033180Y027407D01*
X033427Y027407D01*
X033489Y027345D01*
X033489Y027222D01*
X033427Y027160D01*
X033365Y027160D01*
X033304Y027222D01*
X033304Y027407D01*
X033427Y031423D02*
X033180Y031423D01*
X033118Y031485D01*
X033118Y031608D01*
X033180Y031670D01*
X033180Y031792D02*
X033118Y031853D01*
X033118Y031977D01*
X033180Y032038D01*
X033242Y032038D01*
X033304Y031977D01*
X033304Y031915D01*
X033304Y031977D02*
X033365Y032038D01*
X033427Y032038D01*
X033489Y031977D01*
X033489Y031853D01*
X033427Y031792D01*
X033427Y031670D02*
X033489Y031608D01*
X033489Y031485D01*
X033427Y031423D01*
X033365Y032160D02*
X033489Y032283D01*
X033118Y032283D01*
X033118Y032160D02*
X033118Y032407D01*
X033180Y036792D02*
X033118Y036853D01*
X033118Y036977D01*
X033180Y037038D01*
X033304Y037160D02*
X033304Y037407D01*
X033489Y037345D02*
X033304Y037160D01*
X033427Y037038D02*
X033489Y036977D01*
X033489Y036853D01*
X033427Y036792D01*
X033180Y036792D01*
X033118Y037345D02*
X033489Y037345D01*
X026489Y037407D02*
X026427Y037407D01*
X026180Y037160D01*
X026118Y037160D01*
X026180Y037038D02*
X026118Y036977D01*
X026118Y036853D01*
X026180Y036792D01*
X026427Y036792D01*
X026489Y036853D01*
X026489Y036977D01*
X026427Y037038D01*
X026489Y037160D02*
X026489Y037407D01*
X026304Y032407D02*
X026304Y032160D01*
X026489Y032345D01*
X026118Y032345D01*
X026180Y032038D02*
X026118Y031977D01*
X026118Y031853D01*
X026180Y031792D01*
X026180Y031670D02*
X026118Y031608D01*
X026118Y031485D01*
X026180Y031423D01*
X026427Y031423D01*
X026489Y031485D01*
X026489Y031608D01*
X026427Y031670D01*
X026427Y031792D02*
X026489Y031853D01*
X026489Y031977D01*
X026427Y032038D01*
X026365Y032038D01*
X026304Y031977D01*
X026242Y032038D01*
X026180Y032038D01*
X026304Y031977D02*
X026304Y031915D01*
X026427Y027407D02*
X026180Y027160D01*
X026118Y027160D01*
X026118Y027038D02*
X026118Y026792D01*
X026118Y026915D02*
X026489Y026915D01*
X026365Y026792D01*
X026427Y026670D02*
X026489Y026608D01*
X026489Y026485D01*
X026427Y026423D01*
X026180Y026423D01*
X026118Y026485D01*
X026118Y026608D01*
X026180Y026670D01*
X026489Y027160D02*
X026489Y027407D01*
X026427Y027407D01*
X026489Y022407D02*
X026489Y022160D01*
X026304Y022160D01*
X026365Y022283D01*
X026365Y022345D01*
X026304Y022407D01*
X026180Y022407D01*
X026118Y022345D01*
X026118Y022222D01*
X026180Y022160D01*
X026180Y022038D02*
X026118Y021977D01*
X026118Y021853D01*
X026180Y021792D01*
X026180Y021670D02*
X026118Y021608D01*
X026118Y021485D01*
X026180Y021423D01*
X026427Y021423D01*
X026489Y021485D01*
X026489Y021608D01*
X026427Y021670D01*
X026427Y021792D02*
X026489Y021853D01*
X026489Y021977D01*
X026427Y022038D01*
X026365Y022038D01*
X026304Y021977D01*
X026242Y022038D01*
X026180Y022038D01*
X026304Y021977D02*
X026304Y021915D01*
X026365Y017407D02*
X026427Y017407D01*
X026489Y017345D01*
X026489Y017222D01*
X026427Y017160D01*
X026489Y016915D02*
X026118Y016915D01*
X026118Y016792D02*
X026118Y017038D01*
X026118Y017160D02*
X026365Y017407D01*
X026118Y017407D02*
X026118Y017160D01*
X026365Y016792D02*
X026489Y016915D01*
X026427Y016670D02*
X026489Y016608D01*
X026489Y016485D01*
X026427Y016423D01*
X026180Y016423D01*
X026118Y016485D01*
X026118Y016608D01*
X026180Y016670D01*
X019489Y016608D02*
X019489Y016485D01*
X019427Y016423D01*
X019180Y016423D01*
X019118Y016485D01*
X019118Y016608D01*
X019180Y016670D01*
X019118Y016792D02*
X019118Y017038D01*
X019118Y016915D02*
X019489Y016915D01*
X019365Y016792D01*
X019427Y016670D02*
X019489Y016608D01*
X019427Y017160D02*
X019489Y017222D01*
X019489Y017345D01*
X019427Y017407D01*
X019180Y017160D01*
X019118Y017222D01*
X019118Y017345D01*
X019180Y017407D01*
X019427Y017407D01*
X019427Y017160D02*
X019180Y017160D01*
X013489Y017222D02*
X013489Y017345D01*
X013427Y017407D01*
X013365Y017407D01*
X013304Y017345D01*
X013304Y017222D01*
X013365Y017160D01*
X013427Y017160D01*
X013489Y017222D01*
X013304Y017222D02*
X013242Y017160D01*
X013180Y017160D01*
X013118Y017222D01*
X013118Y017345D01*
X013180Y017407D01*
X013242Y017407D01*
X013304Y017345D01*
X013427Y017038D02*
X013489Y016977D01*
X013489Y016853D01*
X013427Y016792D01*
X013180Y016792D01*
X013118Y016853D01*
X013118Y016977D01*
X013180Y017038D01*
X019180Y026423D02*
X019118Y026485D01*
X019118Y026608D01*
X019180Y026670D01*
X019118Y026792D02*
X019118Y027038D01*
X019118Y027160D02*
X019118Y027407D01*
X019118Y027283D02*
X019489Y027283D01*
X019365Y027160D01*
X019489Y026915D02*
X019118Y026915D01*
X019365Y026792D02*
X019489Y026915D01*
X019427Y026670D02*
X019489Y026608D01*
X019489Y026485D01*
X019427Y026423D01*
X019180Y026423D01*
X013489Y026853D02*
X013427Y026792D01*
X013180Y026792D01*
X013118Y026853D01*
X013118Y026977D01*
X013180Y027038D01*
X013180Y027160D02*
X013118Y027222D01*
X013118Y027345D01*
X013180Y027407D01*
X013427Y027407D01*
X013489Y027345D01*
X013489Y027222D01*
X013427Y027160D01*
X013365Y027160D01*
X013304Y027222D01*
X013304Y027407D01*
X013427Y027038D02*
X013489Y026977D01*
X013489Y026853D01*
X019180Y036792D02*
X019118Y036853D01*
X019118Y036977D01*
X019180Y037038D01*
X019180Y037160D02*
X019118Y037222D01*
X019118Y037345D01*
X019180Y037407D01*
X019242Y037407D01*
X019304Y037345D01*
X019304Y037283D01*
X019304Y037345D02*
X019365Y037407D01*
X019427Y037407D01*
X019489Y037345D01*
X019489Y037222D01*
X019427Y037160D01*
X019427Y037038D02*
X019489Y036977D01*
X019489Y036853D01*
X019427Y036792D01*
X019180Y036792D01*
M02*
