G75*
G70*
%OFA0B0*%
%FSLAX24Y24*%
%IPPOS*%
%LPD*%
%AMOC8*
5,1,8,0,0,1.08239X$1,22.5*
%
%ADD10C,0.0000*%
%ADD11C,0.0100*%
%ADD12C,0.0120*%
%ADD13C,0.0070*%
%ADD14C,0.0050*%
%ADD15C,0.0110*%
%ADD16C,0.0160*%
%ADD17C,0.0060*%
%ADD18R,0.0150X0.0200*%
%ADD19C,0.0020*%
%ADD20R,0.0300X0.0200*%
%ADD21C,0.0080*%
%ADD22C,0.0040*%
%ADD23C,0.0090*%
%ADD24C,0.0004*%
%ADD25C,0.0030*%
%ADD26R,0.0079X0.0079*%
%ADD27R,0.0340X0.0300*%
D10*
X004848Y007120D02*
X004848Y046990D01*
X067840Y046990D01*
X067840Y007120D01*
X004848Y007120D01*
X004848Y007430D02*
X004848Y046810D01*
X067948Y046810D01*
X067948Y007430D01*
X004848Y007430D01*
X005698Y010120D02*
X005700Y010170D01*
X005706Y010220D01*
X005716Y010270D01*
X005729Y010318D01*
X005746Y010366D01*
X005767Y010412D01*
X005791Y010456D01*
X005819Y010498D01*
X005850Y010538D01*
X005884Y010575D01*
X005921Y010610D01*
X005960Y010641D01*
X006001Y010670D01*
X006045Y010695D01*
X006091Y010717D01*
X006138Y010735D01*
X006186Y010749D01*
X006235Y010760D01*
X006285Y010767D01*
X006335Y010770D01*
X006386Y010769D01*
X006436Y010764D01*
X006486Y010755D01*
X006534Y010743D01*
X006582Y010726D01*
X006628Y010706D01*
X006673Y010683D01*
X006716Y010656D01*
X006756Y010626D01*
X006794Y010593D01*
X006829Y010557D01*
X006862Y010518D01*
X006891Y010477D01*
X006917Y010434D01*
X006940Y010389D01*
X006959Y010342D01*
X006974Y010294D01*
X006986Y010245D01*
X006994Y010195D01*
X006998Y010145D01*
X006998Y010095D01*
X006994Y010045D01*
X006986Y009995D01*
X006974Y009946D01*
X006959Y009898D01*
X006940Y009851D01*
X006917Y009806D01*
X006891Y009763D01*
X006862Y009722D01*
X006829Y009683D01*
X006794Y009647D01*
X006756Y009614D01*
X006716Y009584D01*
X006673Y009557D01*
X006628Y009534D01*
X006582Y009514D01*
X006534Y009497D01*
X006486Y009485D01*
X006436Y009476D01*
X006386Y009471D01*
X006335Y009470D01*
X006285Y009473D01*
X006235Y009480D01*
X006186Y009491D01*
X006138Y009505D01*
X006091Y009523D01*
X006045Y009545D01*
X006001Y009570D01*
X005960Y009599D01*
X005921Y009630D01*
X005884Y009665D01*
X005850Y009702D01*
X005819Y009742D01*
X005791Y009784D01*
X005767Y009828D01*
X005746Y009874D01*
X005729Y009922D01*
X005716Y009970D01*
X005706Y010020D01*
X005700Y010070D01*
X005698Y010120D01*
X005698Y044370D02*
X005700Y044420D01*
X005706Y044470D01*
X005716Y044520D01*
X005729Y044568D01*
X005746Y044616D01*
X005767Y044662D01*
X005791Y044706D01*
X005819Y044748D01*
X005850Y044788D01*
X005884Y044825D01*
X005921Y044860D01*
X005960Y044891D01*
X006001Y044920D01*
X006045Y044945D01*
X006091Y044967D01*
X006138Y044985D01*
X006186Y044999D01*
X006235Y045010D01*
X006285Y045017D01*
X006335Y045020D01*
X006386Y045019D01*
X006436Y045014D01*
X006486Y045005D01*
X006534Y044993D01*
X006582Y044976D01*
X006628Y044956D01*
X006673Y044933D01*
X006716Y044906D01*
X006756Y044876D01*
X006794Y044843D01*
X006829Y044807D01*
X006862Y044768D01*
X006891Y044727D01*
X006917Y044684D01*
X006940Y044639D01*
X006959Y044592D01*
X006974Y044544D01*
X006986Y044495D01*
X006994Y044445D01*
X006998Y044395D01*
X006998Y044345D01*
X006994Y044295D01*
X006986Y044245D01*
X006974Y044196D01*
X006959Y044148D01*
X006940Y044101D01*
X006917Y044056D01*
X006891Y044013D01*
X006862Y043972D01*
X006829Y043933D01*
X006794Y043897D01*
X006756Y043864D01*
X006716Y043834D01*
X006673Y043807D01*
X006628Y043784D01*
X006582Y043764D01*
X006534Y043747D01*
X006486Y043735D01*
X006436Y043726D01*
X006386Y043721D01*
X006335Y043720D01*
X006285Y043723D01*
X006235Y043730D01*
X006186Y043741D01*
X006138Y043755D01*
X006091Y043773D01*
X006045Y043795D01*
X006001Y043820D01*
X005960Y043849D01*
X005921Y043880D01*
X005884Y043915D01*
X005850Y043952D01*
X005819Y043992D01*
X005791Y044034D01*
X005767Y044078D01*
X005746Y044124D01*
X005729Y044172D01*
X005716Y044220D01*
X005706Y044270D01*
X005700Y044320D01*
X005698Y044370D01*
X061948Y044370D02*
X061950Y044420D01*
X061956Y044470D01*
X061966Y044520D01*
X061979Y044568D01*
X061996Y044616D01*
X062017Y044662D01*
X062041Y044706D01*
X062069Y044748D01*
X062100Y044788D01*
X062134Y044825D01*
X062171Y044860D01*
X062210Y044891D01*
X062251Y044920D01*
X062295Y044945D01*
X062341Y044967D01*
X062388Y044985D01*
X062436Y044999D01*
X062485Y045010D01*
X062535Y045017D01*
X062585Y045020D01*
X062636Y045019D01*
X062686Y045014D01*
X062736Y045005D01*
X062784Y044993D01*
X062832Y044976D01*
X062878Y044956D01*
X062923Y044933D01*
X062966Y044906D01*
X063006Y044876D01*
X063044Y044843D01*
X063079Y044807D01*
X063112Y044768D01*
X063141Y044727D01*
X063167Y044684D01*
X063190Y044639D01*
X063209Y044592D01*
X063224Y044544D01*
X063236Y044495D01*
X063244Y044445D01*
X063248Y044395D01*
X063248Y044345D01*
X063244Y044295D01*
X063236Y044245D01*
X063224Y044196D01*
X063209Y044148D01*
X063190Y044101D01*
X063167Y044056D01*
X063141Y044013D01*
X063112Y043972D01*
X063079Y043933D01*
X063044Y043897D01*
X063006Y043864D01*
X062966Y043834D01*
X062923Y043807D01*
X062878Y043784D01*
X062832Y043764D01*
X062784Y043747D01*
X062736Y043735D01*
X062686Y043726D01*
X062636Y043721D01*
X062585Y043720D01*
X062535Y043723D01*
X062485Y043730D01*
X062436Y043741D01*
X062388Y043755D01*
X062341Y043773D01*
X062295Y043795D01*
X062251Y043820D01*
X062210Y043849D01*
X062171Y043880D01*
X062134Y043915D01*
X062100Y043952D01*
X062069Y043992D01*
X062041Y044034D01*
X062017Y044078D01*
X061996Y044124D01*
X061979Y044172D01*
X061966Y044220D01*
X061956Y044270D01*
X061950Y044320D01*
X061948Y044370D01*
X066298Y044620D02*
X066300Y044667D01*
X066306Y044713D01*
X066316Y044759D01*
X066329Y044803D01*
X066347Y044847D01*
X066368Y044888D01*
X066392Y044928D01*
X066420Y044966D01*
X066451Y045001D01*
X066485Y045033D01*
X066521Y045062D01*
X066560Y045088D01*
X066600Y045111D01*
X066643Y045130D01*
X066687Y045146D01*
X066732Y045158D01*
X066778Y045166D01*
X066825Y045170D01*
X066871Y045170D01*
X066918Y045166D01*
X066964Y045158D01*
X067009Y045146D01*
X067053Y045130D01*
X067096Y045111D01*
X067136Y045088D01*
X067175Y045062D01*
X067211Y045033D01*
X067245Y045001D01*
X067276Y044966D01*
X067304Y044928D01*
X067328Y044888D01*
X067349Y044847D01*
X067367Y044803D01*
X067380Y044759D01*
X067390Y044713D01*
X067396Y044667D01*
X067398Y044620D01*
X067396Y044573D01*
X067390Y044527D01*
X067380Y044481D01*
X067367Y044437D01*
X067349Y044393D01*
X067328Y044352D01*
X067304Y044312D01*
X067276Y044274D01*
X067245Y044239D01*
X067211Y044207D01*
X067175Y044178D01*
X067136Y044152D01*
X067096Y044129D01*
X067053Y044110D01*
X067009Y044094D01*
X066964Y044082D01*
X066918Y044074D01*
X066871Y044070D01*
X066825Y044070D01*
X066778Y044074D01*
X066732Y044082D01*
X066687Y044094D01*
X066643Y044110D01*
X066600Y044129D01*
X066560Y044152D01*
X066521Y044178D01*
X066485Y044207D01*
X066451Y044239D01*
X066420Y044274D01*
X066392Y044312D01*
X066368Y044352D01*
X066347Y044393D01*
X066329Y044437D01*
X066316Y044481D01*
X066306Y044527D01*
X066300Y044573D01*
X066298Y044620D01*
X061948Y010120D02*
X061950Y010170D01*
X061956Y010220D01*
X061966Y010270D01*
X061979Y010318D01*
X061996Y010366D01*
X062017Y010412D01*
X062041Y010456D01*
X062069Y010498D01*
X062100Y010538D01*
X062134Y010575D01*
X062171Y010610D01*
X062210Y010641D01*
X062251Y010670D01*
X062295Y010695D01*
X062341Y010717D01*
X062388Y010735D01*
X062436Y010749D01*
X062485Y010760D01*
X062535Y010767D01*
X062585Y010770D01*
X062636Y010769D01*
X062686Y010764D01*
X062736Y010755D01*
X062784Y010743D01*
X062832Y010726D01*
X062878Y010706D01*
X062923Y010683D01*
X062966Y010656D01*
X063006Y010626D01*
X063044Y010593D01*
X063079Y010557D01*
X063112Y010518D01*
X063141Y010477D01*
X063167Y010434D01*
X063190Y010389D01*
X063209Y010342D01*
X063224Y010294D01*
X063236Y010245D01*
X063244Y010195D01*
X063248Y010145D01*
X063248Y010095D01*
X063244Y010045D01*
X063236Y009995D01*
X063224Y009946D01*
X063209Y009898D01*
X063190Y009851D01*
X063167Y009806D01*
X063141Y009763D01*
X063112Y009722D01*
X063079Y009683D01*
X063044Y009647D01*
X063006Y009614D01*
X062966Y009584D01*
X062923Y009557D01*
X062878Y009534D01*
X062832Y009514D01*
X062784Y009497D01*
X062736Y009485D01*
X062686Y009476D01*
X062636Y009471D01*
X062585Y009470D01*
X062535Y009473D01*
X062485Y009480D01*
X062436Y009491D01*
X062388Y009505D01*
X062341Y009523D01*
X062295Y009545D01*
X062251Y009570D01*
X062210Y009599D01*
X062171Y009630D01*
X062134Y009665D01*
X062100Y009702D01*
X062069Y009742D01*
X062041Y009784D01*
X062017Y009828D01*
X061996Y009874D01*
X061979Y009922D01*
X061966Y009970D01*
X061956Y010020D01*
X061950Y010070D01*
X061948Y010120D01*
X066298Y009620D02*
X066300Y009667D01*
X066306Y009713D01*
X066316Y009759D01*
X066329Y009803D01*
X066347Y009847D01*
X066368Y009888D01*
X066392Y009928D01*
X066420Y009966D01*
X066451Y010001D01*
X066485Y010033D01*
X066521Y010062D01*
X066560Y010088D01*
X066600Y010111D01*
X066643Y010130D01*
X066687Y010146D01*
X066732Y010158D01*
X066778Y010166D01*
X066825Y010170D01*
X066871Y010170D01*
X066918Y010166D01*
X066964Y010158D01*
X067009Y010146D01*
X067053Y010130D01*
X067096Y010111D01*
X067136Y010088D01*
X067175Y010062D01*
X067211Y010033D01*
X067245Y010001D01*
X067276Y009966D01*
X067304Y009928D01*
X067328Y009888D01*
X067349Y009847D01*
X067367Y009803D01*
X067380Y009759D01*
X067390Y009713D01*
X067396Y009667D01*
X067398Y009620D01*
X067396Y009573D01*
X067390Y009527D01*
X067380Y009481D01*
X067367Y009437D01*
X067349Y009393D01*
X067328Y009352D01*
X067304Y009312D01*
X067276Y009274D01*
X067245Y009239D01*
X067211Y009207D01*
X067175Y009178D01*
X067136Y009152D01*
X067096Y009129D01*
X067053Y009110D01*
X067009Y009094D01*
X066964Y009082D01*
X066918Y009074D01*
X066871Y009070D01*
X066825Y009070D01*
X066778Y009074D01*
X066732Y009082D01*
X066687Y009094D01*
X066643Y009110D01*
X066600Y009129D01*
X066560Y009152D01*
X066521Y009178D01*
X066485Y009207D01*
X066451Y009239D01*
X066420Y009274D01*
X066392Y009312D01*
X066368Y009352D01*
X066347Y009393D01*
X066329Y009437D01*
X066316Y009481D01*
X066306Y009527D01*
X066300Y009573D01*
X066298Y009620D01*
D11*
X063748Y010120D02*
X063698Y010470D01*
X063498Y010820D01*
X063148Y011120D01*
X062598Y011270D01*
X062598Y010920D01*
X062948Y010820D01*
X063248Y010570D01*
X063398Y010120D01*
X063748Y010120D01*
X063739Y010182D02*
X063377Y010182D01*
X063344Y010280D02*
X063725Y010280D01*
X063711Y010379D02*
X063311Y010379D01*
X063279Y010477D02*
X063693Y010477D01*
X063637Y010576D02*
X063240Y010576D01*
X063122Y010674D02*
X063581Y010674D01*
X063525Y010773D02*
X063004Y010773D01*
X062766Y010871D02*
X063437Y010871D01*
X063322Y010970D02*
X062598Y010970D01*
X062598Y011069D02*
X063207Y011069D01*
X062974Y011167D02*
X062598Y011167D01*
X062598Y011266D02*
X062612Y011266D01*
X061798Y010120D02*
X061448Y010120D01*
X061498Y009770D01*
X061698Y009420D01*
X062048Y009120D01*
X062598Y008970D01*
X062598Y009320D01*
X062248Y009420D01*
X061948Y009670D01*
X061798Y010120D01*
X061810Y010083D02*
X061453Y010083D01*
X061467Y009985D02*
X061843Y009985D01*
X061876Y009886D02*
X061481Y009886D01*
X061495Y009787D02*
X061909Y009787D01*
X061941Y009689D02*
X061544Y009689D01*
X061600Y009590D02*
X062043Y009590D01*
X062161Y009492D02*
X061657Y009492D01*
X061728Y009393D02*
X062340Y009393D01*
X062598Y009295D02*
X061843Y009295D01*
X061958Y009196D02*
X062598Y009196D01*
X062598Y009098D02*
X062128Y009098D01*
X062489Y008999D02*
X062598Y008999D01*
X056164Y008477D02*
X056070Y008570D01*
X055883Y008570D01*
X055790Y008477D01*
X055790Y008103D01*
X055883Y008010D01*
X056070Y008010D01*
X056164Y008103D01*
X055556Y008103D02*
X055463Y008196D01*
X055276Y008196D01*
X055182Y008290D01*
X055276Y008383D01*
X055556Y008383D01*
X055556Y008103D02*
X055463Y008010D01*
X055182Y008010D01*
X054948Y008103D02*
X054948Y008290D01*
X054855Y008383D01*
X054668Y008383D01*
X054575Y008290D01*
X054575Y008103D01*
X054668Y008010D01*
X054855Y008010D01*
X054948Y008103D01*
X054356Y008010D02*
X054169Y008010D01*
X054263Y008010D02*
X054263Y008383D01*
X054169Y008383D01*
X054263Y008570D02*
X054263Y008663D01*
X053935Y008383D02*
X053562Y008010D01*
X053328Y008196D02*
X052954Y008196D01*
X052954Y008103D02*
X052954Y008290D01*
X053047Y008383D01*
X053234Y008383D01*
X053328Y008290D01*
X053328Y008196D01*
X053234Y008010D02*
X053047Y008010D01*
X052954Y008103D01*
X052736Y008010D02*
X052549Y008010D01*
X052642Y008010D02*
X052642Y008570D01*
X052549Y008570D01*
X052315Y008383D02*
X052315Y008010D01*
X052315Y008290D02*
X051941Y008290D01*
X051941Y008383D02*
X052128Y008570D01*
X052315Y008383D01*
X051941Y008383D02*
X051941Y008010D01*
X051099Y008103D02*
X051006Y008010D01*
X050819Y008010D01*
X050726Y008103D01*
X050492Y008010D02*
X050118Y008010D01*
X050305Y008010D02*
X050305Y008570D01*
X050118Y008383D01*
X049884Y008477D02*
X049510Y008103D01*
X049604Y008010D01*
X049791Y008010D01*
X049884Y008103D01*
X049884Y008477D01*
X049791Y008570D01*
X049604Y008570D01*
X049510Y008477D01*
X049510Y008103D01*
X049276Y008010D02*
X048903Y008010D01*
X049276Y008383D01*
X049276Y008477D01*
X049183Y008570D01*
X048996Y008570D01*
X048903Y008477D01*
X048077Y008383D02*
X047890Y008570D01*
X048077Y008383D02*
X048077Y008196D01*
X047890Y008010D01*
X047656Y008010D02*
X047375Y008010D01*
X047282Y008103D01*
X047282Y008290D01*
X047375Y008383D01*
X047656Y008383D01*
X047064Y008570D02*
X046877Y008383D01*
X046877Y008196D01*
X047064Y008010D01*
X050726Y008477D02*
X050819Y008570D01*
X051006Y008570D01*
X051099Y008477D01*
X051099Y008383D01*
X051006Y008290D01*
X051099Y008196D01*
X051099Y008103D01*
X051006Y008290D02*
X050913Y008290D01*
X053562Y008383D02*
X053935Y008010D01*
X068897Y010670D02*
X069798Y010670D01*
X069798Y011270D01*
X069798Y011590D02*
X068897Y012191D01*
X068897Y012511D02*
X068897Y012961D01*
X069047Y013112D01*
X069348Y013112D01*
X069498Y012961D01*
X069498Y012511D01*
X069798Y012511D02*
X068897Y012511D01*
X068897Y011590D02*
X069798Y012191D01*
X069798Y013432D02*
X069798Y014032D01*
X069798Y013732D02*
X068897Y013732D01*
X069197Y013432D01*
X068897Y011270D02*
X068897Y010670D01*
X069348Y010670D02*
X069348Y010970D01*
X062598Y043220D02*
X062048Y043370D01*
X061698Y043670D01*
X061498Y044020D01*
X061448Y044370D01*
X061798Y044370D01*
X061948Y043920D01*
X062248Y043670D01*
X062598Y043570D01*
X062598Y043220D01*
X062598Y043292D02*
X062331Y043292D01*
X062598Y043391D02*
X062023Y043391D01*
X061908Y043489D02*
X062598Y043489D01*
X062534Y043588D02*
X061793Y043588D01*
X061688Y043686D02*
X062228Y043686D01*
X062109Y043785D02*
X061632Y043785D01*
X061576Y043883D02*
X061991Y043883D01*
X061927Y043982D02*
X061519Y043982D01*
X061489Y044081D02*
X061894Y044081D01*
X061861Y044179D02*
X061475Y044179D01*
X061461Y044278D02*
X061829Y044278D01*
X063070Y044967D02*
X063556Y044967D01*
X063613Y044869D02*
X063189Y044869D01*
X063248Y044820D02*
X063398Y044370D01*
X063748Y044370D01*
X063698Y044720D01*
X063498Y045070D01*
X063148Y045370D01*
X062598Y045520D01*
X062598Y045170D01*
X062948Y045070D01*
X063248Y044820D01*
X063264Y044770D02*
X063669Y044770D01*
X063705Y044672D02*
X063297Y044672D01*
X063330Y044573D02*
X063719Y044573D01*
X063733Y044475D02*
X063363Y044475D01*
X063396Y044376D02*
X063747Y044376D01*
X063500Y045066D02*
X062952Y045066D01*
X062615Y045165D02*
X063387Y045165D01*
X063272Y045263D02*
X062598Y045263D01*
X062598Y045362D02*
X063157Y045362D01*
X062816Y045460D02*
X062598Y045460D01*
X055848Y045620D02*
X005098Y045620D01*
X006348Y045520D02*
X006898Y045370D01*
X007248Y045070D01*
X007448Y044720D01*
X007498Y044370D01*
X007148Y044370D01*
X006998Y044820D01*
X006698Y045070D01*
X006348Y045170D01*
X006348Y045520D01*
X006348Y045460D02*
X006566Y045460D01*
X006348Y045362D02*
X006907Y045362D01*
X007022Y045263D02*
X006348Y045263D01*
X006365Y045165D02*
X007137Y045165D01*
X007250Y045066D02*
X006702Y045066D01*
X006820Y044967D02*
X007306Y044967D01*
X007363Y044869D02*
X006939Y044869D01*
X007014Y044770D02*
X007419Y044770D01*
X007455Y044672D02*
X007047Y044672D01*
X007080Y044573D02*
X007469Y044573D01*
X007483Y044475D02*
X007113Y044475D01*
X007146Y044376D02*
X007497Y044376D01*
X006348Y043570D02*
X006348Y043220D01*
X005798Y043370D01*
X005448Y043670D01*
X005248Y044020D01*
X005198Y044370D01*
X005548Y044370D01*
X005698Y043920D01*
X005998Y043670D01*
X006348Y043570D01*
X006284Y043588D02*
X005543Y043588D01*
X005438Y043686D02*
X005978Y043686D01*
X005859Y043785D02*
X005382Y043785D01*
X005326Y043883D02*
X005741Y043883D01*
X005677Y043982D02*
X005269Y043982D01*
X005239Y044081D02*
X005644Y044081D01*
X005611Y044179D02*
X005225Y044179D01*
X005211Y044278D02*
X005579Y044278D01*
X005658Y043489D02*
X006348Y043489D01*
X006348Y043391D02*
X005773Y043391D01*
X006081Y043292D02*
X006348Y043292D01*
X006348Y011270D02*
X006898Y011120D01*
X007248Y010820D01*
X007448Y010470D01*
X007498Y010120D01*
X007148Y010120D01*
X006998Y010570D01*
X006698Y010820D01*
X006348Y010920D01*
X006348Y011270D01*
X006348Y011266D02*
X006362Y011266D01*
X006348Y011167D02*
X006724Y011167D01*
X006957Y011069D02*
X006348Y011069D01*
X006348Y010970D02*
X007072Y010970D01*
X007187Y010871D02*
X006516Y010871D01*
X006754Y010773D02*
X007275Y010773D01*
X007331Y010674D02*
X006872Y010674D01*
X006990Y010576D02*
X007387Y010576D01*
X007443Y010477D02*
X007029Y010477D01*
X007061Y010379D02*
X007461Y010379D01*
X007475Y010280D02*
X007094Y010280D01*
X007127Y010182D02*
X007489Y010182D01*
X006348Y009320D02*
X006348Y008970D01*
X005798Y009120D01*
X005448Y009420D01*
X005248Y009770D01*
X005198Y010120D01*
X005548Y010120D01*
X005698Y009670D01*
X005998Y009420D01*
X006348Y009320D01*
X006348Y009295D02*
X005593Y009295D01*
X005478Y009393D02*
X006090Y009393D01*
X005911Y009492D02*
X005407Y009492D01*
X005350Y009590D02*
X005793Y009590D01*
X005691Y009689D02*
X005294Y009689D01*
X005245Y009787D02*
X005659Y009787D01*
X005626Y009886D02*
X005231Y009886D01*
X005217Y009985D02*
X005593Y009985D01*
X005560Y010083D02*
X005203Y010083D01*
X005708Y009196D02*
X006348Y009196D01*
X006348Y009098D02*
X005878Y009098D01*
X006239Y008999D02*
X006348Y008999D01*
D12*
X007908Y008397D02*
X007908Y007943D01*
X008021Y007830D01*
X008248Y007830D01*
X008362Y007943D01*
X008644Y007830D02*
X008644Y008510D01*
X009098Y008510D01*
X009381Y008510D02*
X009835Y008510D01*
X009608Y008510D02*
X009608Y007830D01*
X008871Y008170D02*
X008644Y008170D01*
X008362Y008397D02*
X008248Y008510D01*
X008021Y008510D01*
X007908Y008397D01*
X008348Y009120D02*
X008348Y010120D01*
X056348Y010120D01*
X056348Y009120D01*
X008348Y009120D01*
X010854Y008510D02*
X010854Y007830D01*
X011308Y007830D02*
X011308Y008510D01*
X011081Y008283D01*
X010854Y008510D01*
X011591Y008283D02*
X011704Y008283D01*
X011704Y007830D01*
X011591Y007830D02*
X011818Y007830D01*
X012082Y007830D02*
X012082Y008283D01*
X012422Y008283D01*
X012536Y008170D01*
X012536Y007830D01*
X012819Y007830D02*
X013045Y007830D01*
X012932Y007830D02*
X012932Y008283D01*
X012819Y008283D01*
X012932Y008510D02*
X012932Y008624D01*
X013310Y008170D02*
X013310Y007943D01*
X013423Y007830D01*
X013763Y007830D01*
X014046Y007943D02*
X014160Y007830D01*
X014387Y007830D01*
X014500Y007943D01*
X014500Y008170D01*
X014387Y008283D01*
X014160Y008283D01*
X014046Y008170D01*
X014046Y007943D01*
X013763Y008283D02*
X013423Y008283D01*
X013310Y008170D01*
X014783Y008283D02*
X014783Y007830D01*
X015010Y007830D02*
X015010Y008170D01*
X015123Y008283D01*
X015237Y008170D01*
X015237Y007830D01*
X015520Y007830D02*
X015860Y007830D01*
X015973Y007943D01*
X015973Y008170D01*
X015860Y008283D01*
X015520Y008283D01*
X015520Y007603D01*
X015010Y008170D02*
X014896Y008283D01*
X014783Y008283D01*
X016256Y008283D02*
X016256Y007943D01*
X016370Y007830D01*
X016710Y007830D01*
X016710Y008283D01*
X016993Y008283D02*
X017220Y008283D01*
X017106Y008397D02*
X017106Y007943D01*
X017220Y007830D01*
X017484Y007943D02*
X017484Y008170D01*
X017597Y008283D01*
X017824Y008283D01*
X017938Y008170D01*
X017938Y008056D01*
X017484Y008056D01*
X017484Y007943D02*
X017597Y007830D01*
X017824Y007830D01*
X018220Y007830D02*
X018220Y008283D01*
X018220Y008056D02*
X018447Y008283D01*
X018561Y008283D01*
X019571Y008056D02*
X019911Y008056D01*
X020025Y008170D01*
X020025Y008397D01*
X019911Y008510D01*
X019571Y008510D01*
X019571Y007830D01*
X020307Y007830D02*
X020307Y008283D01*
X020307Y008056D02*
X020534Y008283D01*
X020648Y008283D01*
X020921Y008170D02*
X020921Y007943D01*
X021035Y007830D01*
X021262Y007830D01*
X021375Y007943D01*
X021375Y008170D01*
X021262Y008283D01*
X021035Y008283D01*
X020921Y008170D01*
X021658Y008283D02*
X021885Y008283D01*
X021771Y008397D02*
X021771Y007943D01*
X021885Y007830D01*
X022149Y007943D02*
X022149Y008170D01*
X022262Y008283D01*
X022489Y008283D01*
X022603Y008170D01*
X022603Y007943D01*
X022489Y007830D01*
X022262Y007830D01*
X022149Y007943D01*
X022886Y008283D02*
X023112Y008283D01*
X022999Y008397D02*
X022999Y007943D01*
X023112Y007830D01*
X023377Y007943D02*
X023490Y007830D01*
X023830Y007830D01*
X023830Y007716D02*
X023717Y007603D01*
X023604Y007603D01*
X023830Y007716D02*
X023830Y008283D01*
X024113Y008283D02*
X024454Y008283D01*
X024567Y008170D01*
X024567Y007943D01*
X024454Y007830D01*
X024113Y007830D01*
X024113Y007603D02*
X024113Y008283D01*
X023377Y008283D02*
X023377Y007943D01*
X024850Y007830D02*
X025077Y007830D01*
X024963Y007830D02*
X024963Y008283D01*
X024850Y008283D01*
X024963Y008510D02*
X024963Y008624D01*
X025341Y008283D02*
X025681Y008283D01*
X025795Y008170D01*
X025795Y007830D01*
X026078Y007943D02*
X026191Y007830D01*
X026531Y007830D01*
X026531Y007716D02*
X026531Y008283D01*
X026191Y008283D01*
X026078Y008170D01*
X026078Y007943D01*
X026304Y007603D02*
X026418Y007603D01*
X026531Y007716D01*
X027551Y007830D02*
X027551Y008510D01*
X027891Y008510D01*
X028004Y008397D01*
X028004Y008283D01*
X027891Y008170D01*
X027551Y008170D01*
X027891Y008170D02*
X028004Y008056D01*
X028004Y007943D01*
X027891Y007830D01*
X027551Y007830D01*
X028287Y007943D02*
X028287Y008170D01*
X028401Y008283D01*
X028628Y008283D01*
X028741Y008170D01*
X028741Y007943D01*
X028628Y007830D01*
X028401Y007830D01*
X028287Y007943D01*
X029024Y007943D02*
X029137Y008056D01*
X029478Y008056D01*
X029478Y008170D02*
X029478Y007830D01*
X029137Y007830D01*
X029024Y007943D01*
X029137Y008283D02*
X029364Y008283D01*
X029478Y008170D01*
X029761Y008283D02*
X029761Y007830D01*
X029761Y008056D02*
X029987Y008283D01*
X030101Y008283D01*
X030374Y008170D02*
X030488Y008283D01*
X030828Y008283D01*
X030828Y008510D02*
X030828Y007830D01*
X030488Y007830D01*
X030374Y007943D01*
X030374Y008170D01*
X031848Y008056D02*
X032188Y008056D01*
X032301Y008170D01*
X032301Y008397D01*
X032188Y008510D01*
X031848Y008510D01*
X031848Y007830D01*
X032075Y008056D02*
X032301Y007830D01*
X032584Y007943D02*
X032584Y008170D01*
X032698Y008283D01*
X032925Y008283D01*
X033038Y008170D01*
X033038Y008056D01*
X032584Y008056D01*
X032584Y007943D02*
X032698Y007830D01*
X032925Y007830D01*
X033321Y008283D02*
X033548Y007830D01*
X033775Y008283D01*
X034794Y008283D02*
X034794Y007830D01*
X034794Y008170D02*
X035248Y008170D01*
X035248Y008283D02*
X035248Y007830D01*
X035248Y008283D02*
X035021Y008510D01*
X034794Y008283D01*
X025341Y008283D02*
X025341Y007830D01*
X014348Y016120D02*
X014348Y017120D01*
X053348Y017120D01*
X053348Y016120D01*
X014348Y016120D01*
X014348Y017120D02*
X014348Y018120D01*
X053348Y018120D01*
X053348Y017120D01*
X053348Y021120D02*
X053348Y022120D01*
X053348Y023120D01*
X021348Y023120D01*
X021348Y022120D01*
X021348Y021120D01*
X053348Y021120D01*
X053348Y022120D02*
X021348Y022120D01*
X014348Y026120D02*
X014348Y027120D01*
X053348Y027120D01*
X053348Y026120D01*
X014348Y026120D01*
X014348Y027120D02*
X014348Y028120D01*
X053348Y028120D01*
X053348Y027120D01*
X053348Y031120D02*
X021348Y031120D01*
X021348Y032120D01*
X053348Y032120D01*
X053348Y031120D01*
X053348Y032120D02*
X053348Y033120D01*
X021348Y033120D01*
X021348Y032120D01*
X014348Y036120D02*
X014348Y037120D01*
X053348Y037120D01*
X053348Y036120D01*
X014348Y036120D01*
X014348Y037120D02*
X014348Y038120D01*
X053348Y038120D01*
X053348Y037120D01*
X011704Y008624D02*
X011704Y008510D01*
D13*
X006303Y013760D02*
X006198Y013655D01*
X005988Y013655D01*
X005883Y013760D01*
X005883Y013865D01*
X005988Y013970D01*
X006198Y013970D01*
X006303Y013865D01*
X006303Y013760D01*
X006198Y013970D02*
X006303Y014075D01*
X006303Y014180D01*
X006198Y014285D01*
X005988Y014285D01*
X005883Y014180D01*
X005883Y014075D01*
X005988Y013970D01*
X005883Y015155D02*
X005883Y015260D01*
X006303Y015680D01*
X006303Y015785D01*
X005883Y015785D01*
X005988Y016655D02*
X006198Y016655D01*
X006303Y016760D01*
X006303Y016865D01*
X006198Y016970D01*
X005883Y016970D01*
X005883Y016760D01*
X005988Y016655D01*
X005883Y016970D02*
X006093Y017180D01*
X006303Y017285D01*
X006198Y018155D02*
X005988Y018155D01*
X005883Y018260D01*
X005883Y018470D02*
X006093Y018575D01*
X006198Y018575D01*
X006303Y018470D01*
X006303Y018260D01*
X006198Y018155D01*
X005883Y018470D02*
X005883Y018785D01*
X006303Y018785D01*
X006198Y019655D02*
X006198Y020285D01*
X005883Y019970D01*
X006303Y019970D01*
X006198Y021155D02*
X005988Y021155D01*
X005883Y021260D01*
X006093Y021470D02*
X006198Y021470D01*
X006303Y021365D01*
X006303Y021260D01*
X006198Y021155D01*
X006198Y021470D02*
X006303Y021575D01*
X006303Y021680D01*
X006198Y021785D01*
X005988Y021785D01*
X005883Y021680D01*
X005883Y022655D02*
X006303Y023075D01*
X006303Y023180D01*
X006198Y023285D01*
X005988Y023285D01*
X005883Y023180D01*
X005883Y022655D02*
X006303Y022655D01*
X006303Y024155D02*
X005883Y024155D01*
X006093Y024155D02*
X006093Y024785D01*
X005883Y024575D01*
X034883Y011325D02*
X035093Y011535D01*
X035093Y010905D01*
X034883Y010905D02*
X035303Y010905D01*
X037883Y010905D02*
X038303Y011325D01*
X038303Y011430D01*
X038198Y011535D01*
X037988Y011535D01*
X037883Y011430D01*
X037883Y010905D02*
X038303Y010905D01*
X040883Y011010D02*
X040988Y010905D01*
X041198Y010905D01*
X041303Y011010D01*
X041303Y011115D01*
X041198Y011220D01*
X041093Y011220D01*
X041198Y011220D02*
X041303Y011325D01*
X041303Y011430D01*
X041198Y011535D01*
X040988Y011535D01*
X040883Y011430D01*
X043883Y011220D02*
X044303Y011220D01*
X044198Y010905D02*
X044198Y011535D01*
X043883Y011220D01*
X068432Y037655D02*
X068432Y037970D01*
X068537Y038075D01*
X068958Y038075D01*
X069063Y037970D01*
X069063Y037655D01*
X068432Y037655D01*
X068432Y038299D02*
X068432Y038509D01*
X068432Y038404D02*
X069063Y038404D01*
X069063Y038299D02*
X069063Y038509D01*
X069063Y038729D02*
X068432Y038729D01*
X069063Y039149D01*
X068432Y039149D01*
X068748Y040018D02*
X068748Y040438D01*
X068643Y040662D02*
X068432Y040872D01*
X069063Y040872D01*
X069063Y040662D02*
X069063Y041083D01*
X068958Y041307D02*
X068748Y041307D01*
X068748Y041622D01*
X068853Y041727D01*
X068958Y041727D01*
X069063Y041622D01*
X069063Y041412D01*
X068958Y041307D01*
X068748Y041307D02*
X068537Y041517D01*
X068432Y041727D01*
X068643Y041951D02*
X068432Y042162D01*
X069063Y042162D01*
X069063Y042372D02*
X069063Y041951D01*
X069063Y042596D02*
X068643Y043016D01*
X068537Y043016D01*
X068432Y042911D01*
X068432Y042701D01*
X068537Y042596D01*
X069063Y042596D02*
X069063Y043016D01*
X069432Y042804D02*
X069537Y042909D01*
X069432Y042804D02*
X069432Y042594D01*
X069537Y042488D01*
X069958Y042488D01*
X070063Y042594D01*
X070063Y042804D01*
X069958Y042909D01*
X070063Y041620D02*
X069748Y041620D01*
X069643Y041515D01*
X069748Y041410D01*
X070063Y041410D01*
X070063Y041199D02*
X069643Y041199D01*
X069643Y041304D01*
X069748Y041410D01*
X069643Y040978D02*
X069643Y040872D01*
X069853Y040662D01*
X070063Y040662D02*
X069643Y040662D01*
X069748Y040438D02*
X069643Y040333D01*
X069643Y040123D01*
X069748Y040018D01*
X069958Y040018D01*
X070063Y040123D01*
X070063Y040333D01*
X069958Y040438D01*
X069748Y040438D01*
X069748Y039798D02*
X069748Y039588D01*
X069537Y039693D02*
X069432Y039798D01*
X069537Y039693D02*
X070063Y039693D01*
X070063Y039364D02*
X069643Y039364D01*
X070063Y039364D02*
X070063Y039049D01*
X069958Y038944D01*
X069643Y038944D01*
X069748Y038719D02*
X070063Y038719D01*
X070063Y038404D01*
X069958Y038299D01*
X069853Y038404D01*
X069853Y038719D01*
X069748Y038719D02*
X069643Y038614D01*
X069643Y038404D01*
X069643Y038075D02*
X069748Y037970D01*
X069748Y037655D01*
X069748Y037970D02*
X069853Y038075D01*
X069958Y038075D01*
X070063Y037970D01*
X070063Y037655D01*
X069432Y037655D01*
X069432Y037970D01*
X069537Y038075D01*
X069643Y038075D01*
X068748Y040018D02*
X068432Y040333D01*
X069063Y040333D01*
D14*
X067173Y042645D02*
X066873Y042645D01*
X067023Y042645D02*
X067023Y043095D01*
X066873Y042945D01*
X065673Y043145D02*
X065673Y043445D01*
X065523Y043595D01*
X065373Y043445D01*
X065373Y043145D01*
X065373Y043370D02*
X065673Y043370D01*
X064923Y043445D02*
X064848Y043370D01*
X064623Y043370D01*
X064623Y043145D02*
X064623Y043595D01*
X064848Y043595D01*
X064923Y043520D01*
X064923Y043445D01*
X064848Y043370D02*
X064923Y043295D01*
X064923Y043220D01*
X064848Y043145D01*
X064623Y043145D01*
X064173Y043220D02*
X064098Y043145D01*
X063948Y043145D01*
X063873Y043220D01*
X063873Y043520D01*
X063948Y043595D01*
X064098Y043595D01*
X064173Y043520D01*
X060836Y043453D02*
X060815Y043455D01*
X060795Y043460D01*
X060776Y043468D01*
X060759Y043480D01*
X060743Y043494D01*
X060731Y043510D01*
X060721Y043528D01*
X060714Y043548D01*
X060710Y043569D01*
X060710Y043589D01*
X060714Y043610D01*
X060721Y043630D01*
X060731Y043648D01*
X060743Y043664D01*
X060759Y043678D01*
X060776Y043690D01*
X060795Y043698D01*
X060815Y043703D01*
X060836Y043705D01*
X060836Y043704D02*
X060857Y043706D01*
X060877Y043711D01*
X060896Y043719D01*
X060913Y043731D01*
X060929Y043745D01*
X060941Y043761D01*
X060951Y043779D01*
X060958Y043799D01*
X060962Y043820D01*
X060962Y043840D01*
X060958Y043861D01*
X060951Y043881D01*
X060941Y043899D01*
X060929Y043915D01*
X060913Y043929D01*
X060896Y043941D01*
X060877Y043949D01*
X060857Y043954D01*
X060836Y043956D01*
X060332Y043830D02*
X060353Y043832D01*
X060373Y043837D01*
X060392Y043845D01*
X060409Y043857D01*
X060425Y043871D01*
X060437Y043887D01*
X060447Y043905D01*
X060454Y043925D01*
X060458Y043946D01*
X060458Y043966D01*
X060454Y043987D01*
X060447Y044007D01*
X060437Y044025D01*
X060425Y044041D01*
X060409Y044055D01*
X060392Y044067D01*
X060373Y044075D01*
X060353Y044080D01*
X060332Y044082D01*
X060332Y043830D02*
X060311Y043828D01*
X060291Y043823D01*
X060272Y043815D01*
X060255Y043803D01*
X060239Y043789D01*
X060227Y043773D01*
X060217Y043755D01*
X060210Y043735D01*
X060206Y043714D01*
X060206Y043694D01*
X060210Y043673D01*
X060217Y043653D01*
X060227Y043635D01*
X060239Y043619D01*
X060255Y043605D01*
X060272Y043593D01*
X060291Y043585D01*
X060311Y043580D01*
X060332Y043578D01*
X060353Y043576D01*
X060373Y043571D01*
X060392Y043563D01*
X060409Y043551D01*
X060425Y043537D01*
X060437Y043521D01*
X060447Y043503D01*
X060454Y043483D01*
X060458Y043462D01*
X060458Y043442D01*
X060454Y043421D01*
X060447Y043401D01*
X060437Y043383D01*
X060425Y043367D01*
X060409Y043353D01*
X060392Y043341D01*
X060373Y043333D01*
X060353Y043328D01*
X060332Y043326D01*
X060311Y043324D01*
X060291Y043319D01*
X060272Y043311D01*
X060255Y043299D01*
X060239Y043285D01*
X060227Y043269D01*
X060217Y043251D01*
X060210Y043231D01*
X060206Y043210D01*
X060206Y043190D01*
X060210Y043169D01*
X060217Y043149D01*
X060227Y043131D01*
X060239Y043115D01*
X060255Y043101D01*
X060272Y043089D01*
X060291Y043081D01*
X060311Y043076D01*
X060332Y043074D01*
X060836Y043200D02*
X060815Y043198D01*
X060795Y043193D01*
X060776Y043185D01*
X060759Y043173D01*
X060743Y043159D01*
X060731Y043143D01*
X060721Y043125D01*
X060714Y043105D01*
X060710Y043084D01*
X060710Y043064D01*
X060714Y043043D01*
X060721Y043023D01*
X060731Y043005D01*
X060743Y042989D01*
X060759Y042975D01*
X060776Y042963D01*
X060795Y042955D01*
X060815Y042950D01*
X060836Y042948D01*
X060836Y043200D02*
X060857Y043202D01*
X060877Y043207D01*
X060896Y043215D01*
X060913Y043227D01*
X060929Y043241D01*
X060941Y043257D01*
X060951Y043275D01*
X060958Y043295D01*
X060962Y043316D01*
X060962Y043336D01*
X060958Y043357D01*
X060951Y043377D01*
X060941Y043395D01*
X060929Y043411D01*
X060913Y043425D01*
X060896Y043437D01*
X060877Y043445D01*
X060857Y043450D01*
X060836Y043452D01*
X059828Y043452D02*
X059849Y043450D01*
X059869Y043445D01*
X059888Y043437D01*
X059905Y043425D01*
X059921Y043411D01*
X059933Y043395D01*
X059943Y043377D01*
X059950Y043357D01*
X059954Y043336D01*
X059954Y043316D01*
X059950Y043295D01*
X059943Y043275D01*
X059933Y043257D01*
X059921Y043241D01*
X059905Y043227D01*
X059888Y043215D01*
X059869Y043207D01*
X059849Y043202D01*
X059828Y043200D01*
X059807Y043198D01*
X059787Y043193D01*
X059768Y043185D01*
X059751Y043173D01*
X059735Y043159D01*
X059723Y043143D01*
X059713Y043125D01*
X059706Y043105D01*
X059702Y043084D01*
X059702Y043064D01*
X059706Y043043D01*
X059713Y043023D01*
X059723Y043005D01*
X059735Y042989D01*
X059751Y042975D01*
X059768Y042963D01*
X059787Y042955D01*
X059807Y042950D01*
X059828Y042948D01*
X060017Y042571D02*
X059135Y042571D01*
X059072Y042508D02*
X059074Y042494D01*
X059078Y042481D01*
X059086Y042469D01*
X059096Y042459D01*
X059108Y042451D01*
X059121Y042447D01*
X059135Y042445D01*
X059072Y042508D02*
X059074Y042522D01*
X059078Y042535D01*
X059086Y042547D01*
X059096Y042557D01*
X059108Y042565D01*
X059121Y042569D01*
X059135Y042571D01*
X059135Y042445D02*
X059155Y042443D01*
X059174Y042439D01*
X059192Y042431D01*
X059209Y042421D01*
X059224Y042408D01*
X059237Y042393D01*
X059247Y042376D01*
X059255Y042358D01*
X059259Y042339D01*
X059261Y042319D01*
X059261Y042319D01*
X059198Y041877D01*
X059198Y041814D01*
X059200Y041758D01*
X059206Y041702D01*
X059215Y041647D01*
X059228Y041593D01*
X059245Y041540D01*
X059266Y041488D01*
X059290Y041437D01*
X059317Y041388D01*
X059348Y041342D01*
X059382Y041297D01*
X059418Y041255D01*
X059458Y041215D01*
X059500Y041179D01*
X059545Y041145D01*
X059591Y041114D01*
X059640Y041087D01*
X059691Y041063D01*
X059743Y041042D01*
X059796Y041025D01*
X059850Y041012D01*
X059905Y041003D01*
X059961Y040997D01*
X060017Y040995D01*
X060017Y040996D02*
X060017Y042571D01*
X059828Y043453D02*
X059807Y043455D01*
X059787Y043460D01*
X059768Y043468D01*
X059751Y043480D01*
X059735Y043494D01*
X059723Y043510D01*
X059713Y043528D01*
X059706Y043548D01*
X059702Y043569D01*
X059702Y043589D01*
X059706Y043610D01*
X059713Y043630D01*
X059723Y043648D01*
X059735Y043664D01*
X059751Y043678D01*
X059768Y043690D01*
X059787Y043698D01*
X059807Y043703D01*
X059828Y043705D01*
X059828Y043704D02*
X059849Y043706D01*
X059869Y043711D01*
X059888Y043719D01*
X059905Y043731D01*
X059921Y043745D01*
X059933Y043761D01*
X059943Y043779D01*
X059950Y043799D01*
X059954Y043820D01*
X059954Y043840D01*
X059950Y043861D01*
X059943Y043881D01*
X059933Y043899D01*
X059921Y043915D01*
X059905Y043929D01*
X059888Y043941D01*
X059869Y043949D01*
X059849Y043954D01*
X059828Y043956D01*
X059848Y040845D02*
X059623Y040845D01*
X059623Y040395D01*
X059848Y040395D01*
X059923Y040470D01*
X059923Y040545D01*
X059848Y040620D01*
X059623Y040620D01*
X059848Y040620D02*
X059923Y040695D01*
X059923Y040770D01*
X059848Y040845D01*
X061623Y040695D02*
X061623Y040395D01*
X061623Y040620D02*
X061923Y040620D01*
X061923Y040695D02*
X061923Y040395D01*
X061923Y040695D02*
X061773Y040845D01*
X061623Y040695D01*
X058673Y038845D02*
X058373Y038845D01*
X058373Y038620D01*
X058523Y038695D01*
X058598Y038695D01*
X058673Y038620D01*
X058673Y038470D01*
X058598Y038395D01*
X058448Y038395D01*
X058373Y038470D01*
X057848Y040395D02*
X057923Y040470D01*
X057848Y040395D02*
X057698Y040395D01*
X057623Y040470D01*
X057623Y040770D01*
X057698Y040845D01*
X057848Y040845D01*
X057923Y040770D01*
X055213Y039845D02*
X055213Y039545D01*
X055063Y039395D01*
X054912Y039545D01*
X054912Y039845D01*
X054752Y039770D02*
X054752Y039695D01*
X054677Y039620D01*
X054752Y039545D01*
X054752Y039470D01*
X054677Y039395D01*
X054527Y039395D01*
X054452Y039470D01*
X054297Y039470D02*
X054297Y039395D01*
X054222Y039395D01*
X054222Y039470D01*
X054297Y039470D01*
X054062Y039470D02*
X053987Y039395D01*
X053837Y039395D01*
X053762Y039470D01*
X053912Y039620D02*
X053987Y039620D01*
X054062Y039545D01*
X054062Y039470D01*
X053987Y039620D02*
X054062Y039695D01*
X054062Y039770D01*
X053987Y039845D01*
X053837Y039845D01*
X053762Y039770D01*
X054452Y039770D02*
X054527Y039845D01*
X054677Y039845D01*
X054752Y039770D01*
X054677Y039620D02*
X054602Y039620D01*
X058523Y033845D02*
X058523Y033395D01*
X058373Y033395D02*
X058673Y033395D01*
X058833Y033470D02*
X059133Y033770D01*
X059133Y033470D01*
X059058Y033395D01*
X058908Y033395D01*
X058833Y033470D01*
X058833Y033770D01*
X058908Y033845D01*
X059058Y033845D01*
X059133Y033770D01*
X058523Y033845D02*
X058373Y033695D01*
X058523Y028845D02*
X058523Y028395D01*
X058373Y028395D02*
X058673Y028395D01*
X058833Y028470D02*
X058908Y028395D01*
X059058Y028395D01*
X059133Y028470D01*
X059133Y028620D01*
X059058Y028695D01*
X058983Y028695D01*
X058833Y028620D01*
X058833Y028845D01*
X059133Y028845D01*
X058523Y028845D02*
X058373Y028695D01*
X058448Y023845D02*
X058373Y023770D01*
X058448Y023845D02*
X058598Y023845D01*
X058673Y023770D01*
X058673Y023695D01*
X058373Y023395D01*
X058673Y023395D01*
X058833Y023470D02*
X059133Y023770D01*
X059133Y023470D01*
X059058Y023395D01*
X058908Y023395D01*
X058833Y023470D01*
X058833Y023770D01*
X058908Y023845D01*
X059058Y023845D01*
X059133Y023770D01*
X059133Y018845D02*
X058833Y018845D01*
X058833Y018620D01*
X058983Y018695D01*
X059058Y018695D01*
X059133Y018620D01*
X059133Y018470D01*
X059058Y018395D01*
X058908Y018395D01*
X058833Y018470D01*
X058673Y018395D02*
X058373Y018395D01*
X058673Y018695D01*
X058673Y018770D01*
X058598Y018845D01*
X058448Y018845D01*
X058373Y018770D01*
X058448Y013845D02*
X058598Y013845D01*
X058673Y013770D01*
X058673Y013695D01*
X058598Y013620D01*
X058673Y013545D01*
X058673Y013470D01*
X058598Y013395D01*
X058448Y013395D01*
X058373Y013470D01*
X058523Y013620D02*
X058598Y013620D01*
X058373Y013770D02*
X058448Y013845D01*
X058833Y013770D02*
X058908Y013845D01*
X059058Y013845D01*
X059133Y013770D01*
X058833Y013470D01*
X058908Y013395D01*
X059058Y013395D01*
X059133Y013470D01*
X059133Y013770D01*
X058833Y013770D02*
X058833Y013470D01*
X056940Y011620D02*
X056940Y011395D01*
X056940Y011620D02*
X056865Y011695D01*
X056640Y011695D01*
X056640Y011395D01*
X056483Y011395D02*
X056333Y011395D01*
X056408Y011395D02*
X056408Y011695D01*
X056333Y011695D01*
X056408Y011845D02*
X056408Y011920D01*
X056173Y011845D02*
X056173Y011545D01*
X056023Y011395D01*
X055873Y011545D01*
X055873Y011845D01*
X055063Y012645D02*
X055213Y012795D01*
X055213Y013095D01*
X054912Y013095D02*
X054912Y012795D01*
X055063Y012645D01*
X054752Y012645D02*
X054452Y012645D01*
X054752Y012945D01*
X054752Y013020D01*
X054677Y013095D01*
X054527Y013095D01*
X054452Y013020D01*
X054142Y013095D02*
X054142Y012645D01*
X053992Y012645D02*
X054292Y012645D01*
X053992Y012945D02*
X054142Y013095D01*
X052094Y012945D02*
X051869Y012945D01*
X051794Y012870D01*
X051794Y012720D01*
X051869Y012645D01*
X052094Y012645D01*
X052094Y012569D02*
X052094Y012945D01*
X052094Y012569D02*
X052019Y012494D01*
X051944Y012494D01*
X051558Y012645D02*
X051408Y012645D01*
X051333Y012720D01*
X051333Y012870D01*
X051408Y012945D01*
X051558Y012945D01*
X051633Y012870D01*
X051633Y012795D01*
X051333Y012795D01*
X051173Y012870D02*
X051098Y012795D01*
X050873Y012795D01*
X051023Y012795D02*
X051173Y012645D01*
X051173Y012870D02*
X051173Y013020D01*
X051098Y013095D01*
X050873Y013095D01*
X050873Y012645D01*
X050873Y013395D02*
X051173Y013395D01*
X051333Y013395D02*
X051558Y013395D01*
X051633Y013470D01*
X051633Y013770D01*
X051558Y013845D01*
X051333Y013845D01*
X051333Y013395D01*
X050873Y013395D02*
X050873Y013845D01*
X051794Y013770D02*
X051794Y013470D01*
X051869Y013395D01*
X052019Y013395D01*
X052094Y013470D01*
X052094Y013770D01*
X052019Y013845D01*
X051869Y013845D01*
X051794Y013770D01*
X049823Y013930D02*
X049748Y013855D01*
X049598Y013855D01*
X049523Y013930D01*
X049523Y014080D01*
X049598Y014155D01*
X049748Y014155D01*
X049823Y014080D01*
X049823Y013930D01*
X049673Y013695D02*
X049823Y013545D01*
X049673Y013395D01*
X049373Y013395D01*
X049373Y013695D02*
X049673Y013695D01*
X049748Y014315D02*
X049523Y014315D01*
X049748Y014315D02*
X049823Y014390D01*
X049823Y014615D01*
X049523Y014615D01*
X049523Y014776D02*
X049523Y014926D01*
X049448Y014851D02*
X049748Y014851D01*
X049823Y014926D01*
X047673Y013270D02*
X047673Y013195D01*
X047598Y013120D01*
X047373Y013120D01*
X047373Y013345D02*
X047598Y013345D01*
X047673Y013270D01*
X047598Y013120D02*
X047673Y013045D01*
X047673Y012970D01*
X047598Y012895D01*
X047373Y012895D01*
X047373Y013345D01*
X046673Y013345D02*
X046673Y013270D01*
X046523Y013120D01*
X046523Y012895D01*
X046523Y013120D02*
X046373Y013270D01*
X046373Y013345D01*
X045673Y013195D02*
X045673Y012895D01*
X045673Y013120D02*
X045373Y013120D01*
X045373Y013195D02*
X045523Y013345D01*
X045673Y013195D01*
X045373Y013195D02*
X045373Y012895D01*
X045907Y011184D02*
X045907Y010555D01*
X044789Y010555D02*
X044789Y011184D01*
X042907Y011184D02*
X042907Y010555D01*
X041789Y010555D02*
X041789Y011184D01*
X039907Y011184D02*
X039907Y010555D01*
X038789Y010555D02*
X038789Y011184D01*
X036907Y011184D02*
X036907Y010555D01*
X035789Y010555D02*
X035789Y011184D01*
X031963Y010770D02*
X031963Y010695D01*
X031888Y010620D01*
X031963Y010545D01*
X031963Y010470D01*
X031888Y010395D01*
X031738Y010395D01*
X031662Y010470D01*
X031813Y010620D02*
X031888Y010620D01*
X031963Y010770D02*
X031888Y010845D01*
X031738Y010845D01*
X031662Y010770D01*
X031502Y010770D02*
X031502Y010620D01*
X031427Y010545D01*
X031202Y010545D01*
X031202Y010395D02*
X031202Y010845D01*
X031427Y010845D01*
X031502Y010770D01*
X026963Y021395D02*
X027113Y021545D01*
X027113Y021845D01*
X026812Y021845D02*
X026812Y021545D01*
X026963Y021395D01*
X026652Y021470D02*
X026577Y021395D01*
X026427Y021395D01*
X026352Y021470D01*
X026652Y021770D01*
X026652Y021470D01*
X026652Y021770D02*
X026577Y021845D01*
X026427Y021845D01*
X026352Y021770D01*
X026352Y021470D01*
X026427Y022395D02*
X026352Y022470D01*
X026427Y022395D02*
X026577Y022395D01*
X026652Y022470D01*
X026652Y022620D01*
X026577Y022695D01*
X026502Y022695D01*
X026352Y022620D01*
X026352Y022845D01*
X026652Y022845D01*
X026812Y022845D02*
X026812Y022545D01*
X026963Y022395D01*
X027113Y022545D01*
X027113Y022845D01*
X026963Y031395D02*
X027113Y031545D01*
X027113Y031845D01*
X026812Y031845D02*
X026812Y031545D01*
X026963Y031395D01*
X026652Y031470D02*
X026577Y031395D01*
X026427Y031395D01*
X026352Y031470D01*
X026652Y031770D01*
X026652Y031470D01*
X026652Y031770D02*
X026577Y031845D01*
X026427Y031845D01*
X026352Y031770D01*
X026352Y031470D01*
X026427Y032395D02*
X026352Y032470D01*
X026427Y032395D02*
X026577Y032395D01*
X026652Y032470D01*
X026652Y032620D01*
X026577Y032695D01*
X026502Y032695D01*
X026352Y032620D01*
X026352Y032845D01*
X026652Y032845D01*
X026812Y032845D02*
X026812Y032545D01*
X026963Y032395D01*
X027113Y032545D01*
X027113Y032845D01*
X014113Y036545D02*
X014113Y036845D01*
X014113Y036545D02*
X013963Y036395D01*
X013812Y036545D01*
X013812Y036845D01*
X013652Y036770D02*
X013352Y036470D01*
X013427Y036395D01*
X013577Y036395D01*
X013652Y036470D01*
X013652Y036770D01*
X013577Y036845D01*
X013427Y036845D01*
X013352Y036770D01*
X013352Y036470D01*
X013427Y037395D02*
X013352Y037470D01*
X013427Y037395D02*
X013577Y037395D01*
X013652Y037470D01*
X013652Y037620D01*
X013577Y037695D01*
X013502Y037695D01*
X013352Y037620D01*
X013352Y037845D01*
X013652Y037845D01*
X013812Y037845D02*
X013812Y037545D01*
X013963Y037395D01*
X014113Y037545D01*
X014113Y037845D01*
X011073Y038395D02*
X011073Y038545D01*
X011073Y038470D02*
X010623Y038470D01*
X010623Y038395D02*
X010623Y038545D01*
X010698Y038701D02*
X010623Y038776D01*
X010623Y038927D01*
X010698Y039002D01*
X010848Y039162D02*
X010623Y039387D01*
X011073Y039387D01*
X010848Y039462D02*
X010848Y039162D01*
X010998Y039002D02*
X011073Y038927D01*
X011073Y038776D01*
X010998Y038701D01*
X010698Y038701D01*
X010407Y038555D02*
X010407Y039184D01*
X009289Y039184D02*
X009289Y038555D01*
X006213Y038645D02*
X005912Y038645D01*
X006063Y038645D02*
X006063Y039095D01*
X005912Y038945D01*
X005752Y039020D02*
X005677Y039095D01*
X005527Y039095D01*
X005452Y039020D01*
X005452Y038945D01*
X005527Y038870D01*
X005677Y038870D01*
X005752Y038795D01*
X005752Y038720D01*
X005677Y038645D01*
X005527Y038645D01*
X005452Y038720D01*
X005527Y035345D02*
X005452Y035270D01*
X005452Y035195D01*
X005527Y035120D01*
X005677Y035120D01*
X005752Y035045D01*
X005752Y034970D01*
X005677Y034895D01*
X005527Y034895D01*
X005452Y034970D01*
X005527Y035345D02*
X005677Y035345D01*
X005752Y035270D01*
X005912Y035270D02*
X005988Y035345D01*
X006138Y035345D01*
X006213Y035270D01*
X006213Y035195D01*
X005912Y034895D01*
X006213Y034895D01*
X009289Y034805D02*
X009289Y035434D01*
X010407Y035434D02*
X010407Y034805D01*
X010623Y034795D02*
X010623Y034645D01*
X010623Y034720D02*
X011073Y034720D01*
X011073Y034645D02*
X011073Y034795D01*
X010998Y034951D02*
X011073Y035026D01*
X011073Y035177D01*
X010998Y035252D01*
X011073Y035412D02*
X011073Y035712D01*
X011073Y035562D02*
X010623Y035562D01*
X010773Y035412D01*
X010698Y035252D02*
X010623Y035177D01*
X010623Y035026D01*
X010698Y034951D01*
X010998Y034951D01*
X013352Y027845D02*
X013352Y027620D01*
X013502Y027695D01*
X013577Y027695D01*
X013652Y027620D01*
X013652Y027470D01*
X013577Y027395D01*
X013427Y027395D01*
X013352Y027470D01*
X013352Y027845D02*
X013652Y027845D01*
X013812Y027845D02*
X013812Y027545D01*
X013963Y027395D01*
X014113Y027545D01*
X014113Y027845D01*
X014113Y026845D02*
X014113Y026545D01*
X013963Y026395D01*
X013812Y026545D01*
X013812Y026845D01*
X013652Y026770D02*
X013352Y026470D01*
X013427Y026395D01*
X013577Y026395D01*
X013652Y026470D01*
X013652Y026770D01*
X013577Y026845D01*
X013427Y026845D01*
X013352Y026770D01*
X013352Y026470D01*
X013352Y017845D02*
X013352Y017620D01*
X013502Y017695D01*
X013577Y017695D01*
X013652Y017620D01*
X013652Y017470D01*
X013577Y017395D01*
X013427Y017395D01*
X013352Y017470D01*
X013352Y017845D02*
X013652Y017845D01*
X013812Y017845D02*
X013812Y017545D01*
X013963Y017395D01*
X014113Y017545D01*
X014113Y017845D01*
X014113Y016845D02*
X014113Y016545D01*
X013963Y016395D01*
X013812Y016545D01*
X013812Y016845D01*
X013652Y016770D02*
X013577Y016845D01*
X013427Y016845D01*
X013352Y016770D01*
X013352Y016470D01*
X013652Y016770D01*
X013652Y016470D01*
X013577Y016395D01*
X013427Y016395D01*
X013352Y016470D01*
X007383Y042395D02*
X007083Y042395D01*
X007383Y042695D01*
X007383Y042770D01*
X007308Y042845D01*
X007158Y042845D01*
X007083Y042770D01*
X006923Y042770D02*
X006923Y042620D01*
X006848Y042545D01*
X006623Y042545D01*
X006623Y042395D02*
X006623Y042845D01*
X006848Y042845D01*
X006923Y042770D01*
D15*
X058153Y008818D02*
X058350Y009015D01*
X058350Y008425D01*
X058153Y008425D02*
X058547Y008425D01*
X058797Y008523D02*
X058896Y008425D01*
X059093Y008425D01*
X059191Y008523D01*
X059191Y008621D01*
X059093Y008720D01*
X058994Y008720D01*
X059093Y008720D02*
X059191Y008818D01*
X059191Y008917D01*
X059093Y009015D01*
X058896Y009015D01*
X058797Y008917D01*
X059442Y008917D02*
X059540Y009015D01*
X059737Y009015D01*
X059836Y008917D01*
X059836Y008818D01*
X059737Y008720D01*
X059836Y008621D01*
X059836Y008523D01*
X059737Y008425D01*
X059540Y008425D01*
X059442Y008523D01*
X059639Y008720D02*
X059737Y008720D01*
X060086Y008523D02*
X060086Y008425D01*
X060086Y008523D02*
X060480Y008917D01*
X060480Y009015D01*
X060086Y009015D01*
D16*
X060898Y009320D02*
X060898Y008120D01*
X057748Y008120D01*
X057748Y009320D01*
X060898Y009320D01*
X062537Y042823D02*
X062471Y042854D01*
X062403Y042882D01*
X062334Y042906D01*
X062264Y042927D01*
X062193Y042944D01*
X062121Y042957D01*
X062049Y042967D01*
X061976Y042973D01*
X061903Y042975D01*
X061830Y042973D01*
X061757Y042968D01*
X061685Y042959D01*
X061613Y042946D01*
X061542Y042930D01*
X061471Y042910D01*
X061402Y042886D01*
X061403Y042886D02*
X060899Y042697D01*
D17*
X057348Y043620D02*
X057350Y043683D01*
X057356Y043745D01*
X057366Y043807D01*
X057379Y043869D01*
X057397Y043929D01*
X057418Y043988D01*
X057443Y044046D01*
X057472Y044102D01*
X057504Y044156D01*
X057539Y044208D01*
X057577Y044257D01*
X057619Y044305D01*
X057663Y044349D01*
X057711Y044391D01*
X057760Y044429D01*
X057812Y044464D01*
X057866Y044496D01*
X057922Y044525D01*
X057980Y044550D01*
X058039Y044571D01*
X058099Y044589D01*
X058161Y044602D01*
X058223Y044612D01*
X058285Y044618D01*
X058348Y044620D01*
X058411Y044618D01*
X058473Y044612D01*
X058535Y044602D01*
X058597Y044589D01*
X058657Y044571D01*
X058716Y044550D01*
X058774Y044525D01*
X058830Y044496D01*
X058884Y044464D01*
X058936Y044429D01*
X058985Y044391D01*
X059033Y044349D01*
X059077Y044305D01*
X059119Y044257D01*
X059157Y044208D01*
X059192Y044156D01*
X059224Y044102D01*
X059253Y044046D01*
X059278Y043988D01*
X059299Y043929D01*
X059317Y043869D01*
X059330Y043807D01*
X059340Y043745D01*
X059346Y043683D01*
X059348Y043620D01*
X059346Y043557D01*
X059340Y043495D01*
X059330Y043433D01*
X059317Y043371D01*
X059299Y043311D01*
X059278Y043252D01*
X059253Y043194D01*
X059224Y043138D01*
X059192Y043084D01*
X059157Y043032D01*
X059119Y042983D01*
X059077Y042935D01*
X059033Y042891D01*
X058985Y042849D01*
X058936Y042811D01*
X058884Y042776D01*
X058830Y042744D01*
X058774Y042715D01*
X058716Y042690D01*
X058657Y042669D01*
X058597Y042651D01*
X058535Y042638D01*
X058473Y042628D01*
X058411Y042622D01*
X058348Y042620D01*
X058285Y042622D01*
X058223Y042628D01*
X058161Y042638D01*
X058099Y042651D01*
X058039Y042669D01*
X057980Y042690D01*
X057922Y042715D01*
X057866Y042744D01*
X057812Y042776D01*
X057760Y042811D01*
X057711Y042849D01*
X057663Y042891D01*
X057619Y042935D01*
X057577Y042983D01*
X057539Y043032D01*
X057504Y043084D01*
X057472Y043138D01*
X057443Y043194D01*
X057418Y043252D01*
X057397Y043311D01*
X057379Y043371D01*
X057366Y043433D01*
X057356Y043495D01*
X057350Y043557D01*
X057348Y043620D01*
X057798Y044020D02*
X057798Y044120D01*
X057798Y044220D01*
X057798Y044120D02*
X057898Y044120D01*
X057798Y044120D02*
X057698Y044120D01*
X065848Y043620D02*
X066348Y043620D01*
X066348Y042370D01*
X066348Y041370D01*
X066348Y040870D01*
X066348Y039370D01*
X066348Y038870D01*
X066348Y035370D01*
X066348Y034870D01*
X066348Y031370D01*
X066348Y030870D01*
X066348Y027370D01*
X066348Y026870D01*
X066348Y023370D01*
X066348Y022870D01*
X066348Y019370D01*
X066348Y018870D01*
X066348Y015370D01*
X066348Y014870D01*
X066348Y013370D01*
X066348Y012870D01*
X066348Y011870D01*
X066348Y010620D01*
X067348Y010620D01*
X067978Y009990D01*
X067978Y008620D01*
X068598Y008620D01*
X068598Y009620D01*
X070848Y009620D01*
X070848Y044620D01*
X068598Y044620D01*
X068598Y045620D01*
X067978Y045620D01*
X067978Y044120D01*
X067478Y043620D01*
X066348Y043620D01*
X065848Y043620D02*
X065848Y045620D01*
X067978Y045620D01*
X066348Y044620D02*
X066350Y044664D01*
X066356Y044708D01*
X066366Y044751D01*
X066379Y044793D01*
X066396Y044834D01*
X066417Y044873D01*
X066441Y044910D01*
X066468Y044945D01*
X066498Y044977D01*
X066531Y045007D01*
X066567Y045033D01*
X066604Y045057D01*
X066644Y045076D01*
X066685Y045093D01*
X066728Y045105D01*
X066771Y045114D01*
X066815Y045119D01*
X066859Y045120D01*
X066903Y045117D01*
X066947Y045110D01*
X066990Y045099D01*
X067032Y045085D01*
X067072Y045067D01*
X067111Y045045D01*
X067147Y045021D01*
X067181Y044993D01*
X067213Y044962D01*
X067242Y044928D01*
X067268Y044892D01*
X067290Y044854D01*
X067309Y044814D01*
X067324Y044772D01*
X067336Y044730D01*
X067344Y044686D01*
X067348Y044642D01*
X067348Y044598D01*
X067344Y044554D01*
X067336Y044510D01*
X067324Y044468D01*
X067309Y044426D01*
X067290Y044386D01*
X067268Y044348D01*
X067242Y044312D01*
X067213Y044278D01*
X067181Y044247D01*
X067147Y044219D01*
X067111Y044195D01*
X067072Y044173D01*
X067032Y044155D01*
X066990Y044141D01*
X066947Y044130D01*
X066903Y044123D01*
X066859Y044120D01*
X066815Y044121D01*
X066771Y044126D01*
X066728Y044135D01*
X066685Y044147D01*
X066644Y044164D01*
X066604Y044183D01*
X066567Y044207D01*
X066531Y044233D01*
X066498Y044263D01*
X066468Y044295D01*
X066441Y044330D01*
X066417Y044367D01*
X066396Y044406D01*
X066379Y044447D01*
X066366Y044489D01*
X066356Y044532D01*
X066350Y044576D01*
X066348Y044620D01*
X049148Y014920D02*
X049048Y014920D01*
X049148Y014920D02*
X049148Y014820D01*
X049148Y014420D02*
X049148Y014320D01*
X049048Y014320D01*
X048648Y014320D02*
X048548Y014320D01*
X048548Y014420D01*
X048548Y014820D02*
X048548Y014920D01*
X048648Y014920D01*
X048648Y013920D02*
X048548Y013920D01*
X048548Y013820D01*
X048548Y013420D02*
X048548Y013320D01*
X048648Y013320D01*
X049048Y013320D02*
X049148Y013320D01*
X049148Y013420D01*
X049148Y013820D02*
X049148Y013920D01*
X049048Y013920D01*
X049048Y012920D02*
X049148Y012920D01*
X049148Y012820D01*
X049148Y012420D02*
X049148Y012320D01*
X049048Y012320D01*
X048648Y012320D02*
X048548Y012320D01*
X048548Y012420D01*
X048448Y012170D02*
X048448Y011970D01*
X048348Y012070D02*
X048548Y012070D01*
X048548Y012820D02*
X048548Y012920D01*
X048648Y012920D01*
X047148Y012670D02*
X047048Y012670D01*
X047148Y012670D02*
X047148Y012570D01*
X047148Y012170D02*
X047148Y012070D01*
X047048Y012070D01*
X046648Y012070D02*
X046548Y012070D01*
X046548Y012170D01*
X046548Y012570D02*
X046548Y012670D01*
X046648Y012670D01*
X046148Y012670D02*
X046048Y012670D01*
X046148Y012670D02*
X046148Y012570D01*
X046148Y012170D02*
X046148Y012070D01*
X046048Y012070D01*
X045648Y012070D02*
X045548Y012070D01*
X045548Y012170D01*
X045548Y012570D02*
X045548Y012670D01*
X045648Y012670D01*
X045148Y012670D02*
X045048Y012670D01*
X045148Y012670D02*
X045148Y012570D01*
X045148Y012170D02*
X045148Y012070D01*
X045048Y012070D01*
X044648Y012070D02*
X044548Y012070D01*
X044548Y012170D01*
X044548Y012570D02*
X044548Y012670D01*
X044648Y012670D01*
X044148Y012670D02*
X044048Y012670D01*
X044148Y012670D02*
X044148Y012570D01*
X044148Y012170D02*
X044148Y012070D01*
X044048Y012070D01*
X043648Y012070D02*
X043548Y012070D01*
X043548Y012170D01*
X043548Y012570D02*
X043548Y012670D01*
X043648Y012670D01*
X043148Y012670D02*
X043048Y012670D01*
X043148Y012670D02*
X043148Y012570D01*
X043148Y012170D02*
X043148Y012070D01*
X043048Y012070D01*
X042648Y012070D02*
X042548Y012070D01*
X042548Y012170D01*
X042548Y012570D02*
X042548Y012670D01*
X042648Y012670D01*
X042148Y012670D02*
X042048Y012670D01*
X042148Y012670D02*
X042148Y012570D01*
X042148Y012170D02*
X042148Y012070D01*
X042048Y012070D01*
X041648Y012070D02*
X041548Y012070D01*
X041548Y012170D01*
X041548Y012570D02*
X041548Y012670D01*
X041648Y012670D01*
X041148Y012670D02*
X041048Y012670D01*
X041148Y012670D02*
X041148Y012570D01*
X041148Y012170D02*
X041148Y012070D01*
X041048Y012070D01*
X040648Y012070D02*
X040548Y012070D01*
X040548Y012170D01*
X040548Y012570D02*
X040548Y012670D01*
X040648Y012670D01*
X040148Y012670D02*
X040048Y012670D01*
X040148Y012670D02*
X040148Y012570D01*
X040148Y012170D02*
X040148Y012070D01*
X040048Y012070D01*
X039648Y012070D02*
X039548Y012070D01*
X039548Y012170D01*
X039548Y012570D02*
X039548Y012670D01*
X039648Y012670D01*
X039148Y012670D02*
X039048Y012670D01*
X039148Y012670D02*
X039148Y012570D01*
X039148Y012170D02*
X039148Y012070D01*
X039048Y012070D01*
X038648Y012070D02*
X038548Y012070D01*
X038548Y012170D01*
X038548Y012570D02*
X038548Y012670D01*
X038648Y012670D01*
X038148Y012670D02*
X038048Y012670D01*
X038148Y012670D02*
X038148Y012570D01*
X038148Y012170D02*
X038148Y012070D01*
X038048Y012070D01*
X037648Y012070D02*
X037548Y012070D01*
X037548Y012170D01*
X037548Y012570D02*
X037548Y012670D01*
X037648Y012670D01*
X037148Y012670D02*
X037048Y012670D01*
X037148Y012670D02*
X037148Y012570D01*
X037148Y012170D02*
X037148Y012070D01*
X037048Y012070D01*
X036648Y012070D02*
X036548Y012070D01*
X036548Y012170D01*
X036548Y012570D02*
X036548Y012670D01*
X036648Y012670D01*
X036148Y012670D02*
X036048Y012670D01*
X036148Y012670D02*
X036148Y012570D01*
X036148Y012170D02*
X036148Y012070D01*
X036048Y012070D01*
X035648Y012070D02*
X035548Y012070D01*
X035548Y012170D01*
X035548Y012570D02*
X035548Y012670D01*
X035648Y012670D01*
X047848Y011370D02*
X047850Y011433D01*
X047856Y011495D01*
X047866Y011557D01*
X047879Y011619D01*
X047897Y011679D01*
X047918Y011738D01*
X047943Y011796D01*
X047972Y011852D01*
X048004Y011906D01*
X048039Y011958D01*
X048077Y012007D01*
X048119Y012055D01*
X048163Y012099D01*
X048211Y012141D01*
X048260Y012179D01*
X048312Y012214D01*
X048366Y012246D01*
X048422Y012275D01*
X048480Y012300D01*
X048539Y012321D01*
X048599Y012339D01*
X048661Y012352D01*
X048723Y012362D01*
X048785Y012368D01*
X048848Y012370D01*
X048911Y012368D01*
X048973Y012362D01*
X049035Y012352D01*
X049097Y012339D01*
X049157Y012321D01*
X049216Y012300D01*
X049274Y012275D01*
X049330Y012246D01*
X049384Y012214D01*
X049436Y012179D01*
X049485Y012141D01*
X049533Y012099D01*
X049577Y012055D01*
X049619Y012007D01*
X049657Y011958D01*
X049692Y011906D01*
X049724Y011852D01*
X049753Y011796D01*
X049778Y011738D01*
X049799Y011679D01*
X049817Y011619D01*
X049830Y011557D01*
X049840Y011495D01*
X049846Y011433D01*
X049848Y011370D01*
X049846Y011307D01*
X049840Y011245D01*
X049830Y011183D01*
X049817Y011121D01*
X049799Y011061D01*
X049778Y011002D01*
X049753Y010944D01*
X049724Y010888D01*
X049692Y010834D01*
X049657Y010782D01*
X049619Y010733D01*
X049577Y010685D01*
X049533Y010641D01*
X049485Y010599D01*
X049436Y010561D01*
X049384Y010526D01*
X049330Y010494D01*
X049274Y010465D01*
X049216Y010440D01*
X049157Y010419D01*
X049097Y010401D01*
X049035Y010388D01*
X048973Y010378D01*
X048911Y010372D01*
X048848Y010370D01*
X048785Y010372D01*
X048723Y010378D01*
X048661Y010388D01*
X048599Y010401D01*
X048539Y010419D01*
X048480Y010440D01*
X048422Y010465D01*
X048366Y010494D01*
X048312Y010526D01*
X048260Y010561D01*
X048211Y010599D01*
X048163Y010641D01*
X048119Y010685D01*
X048077Y010733D01*
X048039Y010782D01*
X048004Y010834D01*
X047972Y010888D01*
X047943Y010944D01*
X047918Y011002D01*
X047897Y011061D01*
X047879Y011121D01*
X047866Y011183D01*
X047856Y011245D01*
X047850Y011307D01*
X047848Y011370D01*
X053848Y012070D02*
X054048Y012070D01*
X053948Y011970D02*
X053948Y012170D01*
X053348Y011370D02*
X053350Y011433D01*
X053356Y011495D01*
X053366Y011557D01*
X053379Y011619D01*
X053397Y011679D01*
X053418Y011738D01*
X053443Y011796D01*
X053472Y011852D01*
X053504Y011906D01*
X053539Y011958D01*
X053577Y012007D01*
X053619Y012055D01*
X053663Y012099D01*
X053711Y012141D01*
X053760Y012179D01*
X053812Y012214D01*
X053866Y012246D01*
X053922Y012275D01*
X053980Y012300D01*
X054039Y012321D01*
X054099Y012339D01*
X054161Y012352D01*
X054223Y012362D01*
X054285Y012368D01*
X054348Y012370D01*
X054411Y012368D01*
X054473Y012362D01*
X054535Y012352D01*
X054597Y012339D01*
X054657Y012321D01*
X054716Y012300D01*
X054774Y012275D01*
X054830Y012246D01*
X054884Y012214D01*
X054936Y012179D01*
X054985Y012141D01*
X055033Y012099D01*
X055077Y012055D01*
X055119Y012007D01*
X055157Y011958D01*
X055192Y011906D01*
X055224Y011852D01*
X055253Y011796D01*
X055278Y011738D01*
X055299Y011679D01*
X055317Y011619D01*
X055330Y011557D01*
X055340Y011495D01*
X055346Y011433D01*
X055348Y011370D01*
X055346Y011307D01*
X055340Y011245D01*
X055330Y011183D01*
X055317Y011121D01*
X055299Y011061D01*
X055278Y011002D01*
X055253Y010944D01*
X055224Y010888D01*
X055192Y010834D01*
X055157Y010782D01*
X055119Y010733D01*
X055077Y010685D01*
X055033Y010641D01*
X054985Y010599D01*
X054936Y010561D01*
X054884Y010526D01*
X054830Y010494D01*
X054774Y010465D01*
X054716Y010440D01*
X054657Y010419D01*
X054597Y010401D01*
X054535Y010388D01*
X054473Y010378D01*
X054411Y010372D01*
X054348Y010370D01*
X054285Y010372D01*
X054223Y010378D01*
X054161Y010388D01*
X054099Y010401D01*
X054039Y010419D01*
X053980Y010440D01*
X053922Y010465D01*
X053866Y010494D01*
X053812Y010526D01*
X053760Y010561D01*
X053711Y010599D01*
X053663Y010641D01*
X053619Y010685D01*
X053577Y010733D01*
X053539Y010782D01*
X053504Y010834D01*
X053472Y010888D01*
X053443Y010944D01*
X053418Y011002D01*
X053397Y011061D01*
X053379Y011121D01*
X053366Y011183D01*
X053356Y011245D01*
X053350Y011307D01*
X053348Y011370D01*
X058698Y011120D02*
X058798Y011120D01*
X058798Y011220D01*
X058798Y011120D02*
X058898Y011120D01*
X058798Y011120D02*
X058798Y011020D01*
X058348Y010620D02*
X058350Y010683D01*
X058356Y010745D01*
X058366Y010807D01*
X058379Y010869D01*
X058397Y010929D01*
X058418Y010988D01*
X058443Y011046D01*
X058472Y011102D01*
X058504Y011156D01*
X058539Y011208D01*
X058577Y011257D01*
X058619Y011305D01*
X058663Y011349D01*
X058711Y011391D01*
X058760Y011429D01*
X058812Y011464D01*
X058866Y011496D01*
X058922Y011525D01*
X058980Y011550D01*
X059039Y011571D01*
X059099Y011589D01*
X059161Y011602D01*
X059223Y011612D01*
X059285Y011618D01*
X059348Y011620D01*
X059411Y011618D01*
X059473Y011612D01*
X059535Y011602D01*
X059597Y011589D01*
X059657Y011571D01*
X059716Y011550D01*
X059774Y011525D01*
X059830Y011496D01*
X059884Y011464D01*
X059936Y011429D01*
X059985Y011391D01*
X060033Y011349D01*
X060077Y011305D01*
X060119Y011257D01*
X060157Y011208D01*
X060192Y011156D01*
X060224Y011102D01*
X060253Y011046D01*
X060278Y010988D01*
X060299Y010929D01*
X060317Y010869D01*
X060330Y010807D01*
X060340Y010745D01*
X060346Y010683D01*
X060348Y010620D01*
X060346Y010557D01*
X060340Y010495D01*
X060330Y010433D01*
X060317Y010371D01*
X060299Y010311D01*
X060278Y010252D01*
X060253Y010194D01*
X060224Y010138D01*
X060192Y010084D01*
X060157Y010032D01*
X060119Y009983D01*
X060077Y009935D01*
X060033Y009891D01*
X059985Y009849D01*
X059936Y009811D01*
X059884Y009776D01*
X059830Y009744D01*
X059774Y009715D01*
X059716Y009690D01*
X059657Y009669D01*
X059597Y009651D01*
X059535Y009638D01*
X059473Y009628D01*
X059411Y009622D01*
X059348Y009620D01*
X059285Y009622D01*
X059223Y009628D01*
X059161Y009638D01*
X059099Y009651D01*
X059039Y009669D01*
X058980Y009690D01*
X058922Y009715D01*
X058866Y009744D01*
X058812Y009776D01*
X058760Y009811D01*
X058711Y009849D01*
X058663Y009891D01*
X058619Y009935D01*
X058577Y009983D01*
X058539Y010032D01*
X058504Y010084D01*
X058472Y010138D01*
X058443Y010194D01*
X058418Y010252D01*
X058397Y010311D01*
X058379Y010371D01*
X058366Y010433D01*
X058356Y010495D01*
X058350Y010557D01*
X058348Y010620D01*
X065848Y010620D02*
X065848Y008620D01*
X067978Y008620D01*
X066348Y009620D02*
X066350Y009664D01*
X066356Y009708D01*
X066366Y009751D01*
X066379Y009793D01*
X066396Y009834D01*
X066417Y009873D01*
X066441Y009910D01*
X066468Y009945D01*
X066498Y009977D01*
X066531Y010007D01*
X066567Y010033D01*
X066604Y010057D01*
X066644Y010076D01*
X066685Y010093D01*
X066728Y010105D01*
X066771Y010114D01*
X066815Y010119D01*
X066859Y010120D01*
X066903Y010117D01*
X066947Y010110D01*
X066990Y010099D01*
X067032Y010085D01*
X067072Y010067D01*
X067111Y010045D01*
X067147Y010021D01*
X067181Y009993D01*
X067213Y009962D01*
X067242Y009928D01*
X067268Y009892D01*
X067290Y009854D01*
X067309Y009814D01*
X067324Y009772D01*
X067336Y009730D01*
X067344Y009686D01*
X067348Y009642D01*
X067348Y009598D01*
X067344Y009554D01*
X067336Y009510D01*
X067324Y009468D01*
X067309Y009426D01*
X067290Y009386D01*
X067268Y009348D01*
X067242Y009312D01*
X067213Y009278D01*
X067181Y009247D01*
X067147Y009219D01*
X067111Y009195D01*
X067072Y009173D01*
X067032Y009155D01*
X066990Y009141D01*
X066947Y009130D01*
X066903Y009123D01*
X066859Y009120D01*
X066815Y009121D01*
X066771Y009126D01*
X066728Y009135D01*
X066685Y009147D01*
X066644Y009164D01*
X066604Y009183D01*
X066567Y009207D01*
X066531Y009233D01*
X066498Y009263D01*
X066468Y009295D01*
X066441Y009330D01*
X066417Y009367D01*
X066396Y009406D01*
X066379Y009447D01*
X066366Y009489D01*
X066356Y009532D01*
X066350Y009576D01*
X066348Y009620D01*
X066348Y010620D02*
X065848Y010620D01*
X066878Y011223D02*
X066951Y011150D01*
X067098Y011150D01*
X067171Y011223D01*
X067171Y011296D01*
X067098Y011370D01*
X067025Y011370D01*
X067098Y011370D02*
X067171Y011443D01*
X067171Y011516D01*
X067098Y011590D01*
X066951Y011590D01*
X066878Y011516D01*
X067338Y011516D02*
X067412Y011590D01*
X067558Y011590D01*
X067632Y011516D01*
X067632Y011443D01*
X067338Y011150D01*
X067632Y011150D01*
X010148Y033320D02*
X010148Y033420D01*
X010148Y033320D02*
X010048Y033320D01*
X009648Y033320D02*
X009548Y033320D01*
X009548Y033420D01*
X009548Y033820D02*
X009548Y033920D01*
X009648Y033920D01*
X010048Y033920D02*
X010148Y033920D01*
X010148Y033820D01*
X010148Y036820D02*
X010148Y036920D01*
X010148Y036820D02*
X010048Y036820D01*
X009648Y036820D02*
X009548Y036820D01*
X009548Y036920D01*
X009548Y037320D02*
X009548Y037420D01*
X009648Y037420D01*
X010048Y037420D02*
X010148Y037420D01*
X010148Y037320D01*
X009148Y025420D02*
X009048Y025420D01*
X009148Y025420D02*
X009148Y025320D01*
X009148Y024920D02*
X009148Y024820D01*
X009048Y024820D01*
X008648Y024820D02*
X008548Y024820D01*
X008548Y024920D01*
X008548Y025320D02*
X008548Y025420D01*
X008648Y025420D01*
X008648Y023920D02*
X008548Y023920D01*
X008548Y023820D01*
X008548Y023420D02*
X008548Y023320D01*
X008648Y023320D01*
X009048Y023320D02*
X009148Y023320D01*
X009148Y023420D01*
X009148Y023820D02*
X009148Y023920D01*
X009048Y023920D01*
X009048Y022420D02*
X009148Y022420D01*
X009148Y022320D01*
X009148Y021920D02*
X009148Y021820D01*
X009048Y021820D01*
X008648Y021820D02*
X008548Y021820D01*
X008548Y021920D01*
X008548Y022320D02*
X008548Y022420D01*
X008648Y022420D01*
X008648Y020920D02*
X008548Y020920D01*
X008548Y020820D01*
X008548Y020420D02*
X008548Y020320D01*
X008648Y020320D01*
X009048Y020320D02*
X009148Y020320D01*
X009148Y020420D01*
X009148Y020820D02*
X009148Y020920D01*
X009048Y020920D01*
X009048Y019420D02*
X009148Y019420D01*
X009148Y019320D01*
X009148Y018920D02*
X009148Y018820D01*
X009048Y018820D01*
X008648Y018820D02*
X008548Y018820D01*
X008548Y018920D01*
X008548Y019320D02*
X008548Y019420D01*
X008648Y019420D01*
X008648Y017920D02*
X008548Y017920D01*
X008548Y017820D01*
X008548Y017420D02*
X008548Y017320D01*
X008648Y017320D01*
X009048Y017320D02*
X009148Y017320D01*
X009148Y017420D01*
X009148Y017820D02*
X009148Y017920D01*
X009048Y017920D01*
X009048Y016420D02*
X009148Y016420D01*
X009148Y016320D01*
X009148Y015920D02*
X009148Y015820D01*
X009048Y015820D01*
X008648Y015820D02*
X008548Y015820D01*
X008548Y015920D01*
X008548Y016320D02*
X008548Y016420D01*
X008648Y016420D01*
X008648Y014920D02*
X008548Y014920D01*
X008548Y014820D01*
X008548Y014420D02*
X008548Y014320D01*
X008648Y014320D01*
X009048Y014320D02*
X009148Y014320D01*
X009148Y014420D01*
X009148Y014820D02*
X009148Y014920D01*
X009048Y014920D01*
D18*
X066273Y014620D03*
X066273Y013620D03*
X066273Y012620D03*
X066273Y011620D03*
X066273Y015620D03*
X066273Y016620D03*
X066273Y017620D03*
X066273Y018620D03*
X066273Y019620D03*
X066273Y020620D03*
X066273Y021620D03*
X066273Y022620D03*
X066273Y023620D03*
X066273Y024620D03*
X066273Y025620D03*
X066273Y026620D03*
X066273Y027620D03*
X066273Y028620D03*
X066273Y029620D03*
X066273Y030620D03*
X066273Y031620D03*
X066273Y032620D03*
X066273Y033620D03*
X066273Y034620D03*
X066273Y035620D03*
X066273Y036620D03*
X066273Y037620D03*
X066273Y038620D03*
X066273Y039620D03*
X066273Y040620D03*
X066273Y041620D03*
X066273Y042620D03*
D19*
X066348Y042370D02*
X067948Y042370D01*
X067948Y041370D01*
X066348Y041370D01*
X066348Y040870D02*
X067948Y040870D01*
X067948Y039370D01*
X066348Y039370D01*
X066348Y038870D02*
X067948Y038870D01*
X067948Y035370D01*
X066348Y035370D01*
X066348Y034870D02*
X067948Y034870D01*
X067948Y031370D01*
X066348Y031370D01*
X066348Y030870D02*
X067948Y030870D01*
X067948Y027370D01*
X066348Y027370D01*
X066348Y026870D02*
X067948Y026870D01*
X067948Y023370D01*
X066348Y023370D01*
X066348Y022870D02*
X067948Y022870D01*
X067948Y019370D01*
X066348Y019370D01*
X066348Y018870D02*
X067948Y018870D01*
X067948Y015370D01*
X066348Y015370D01*
X066348Y014870D02*
X067948Y014870D01*
X067948Y013370D01*
X066348Y013370D01*
X066348Y012870D02*
X067948Y012870D01*
X067948Y011870D01*
X066348Y011870D01*
D20*
X065348Y011620D03*
X065348Y012620D03*
X065348Y013620D03*
X065348Y014620D03*
X065348Y015620D03*
X065348Y016620D03*
X065348Y017620D03*
X065348Y018620D03*
X065348Y019620D03*
X065348Y020620D03*
X065348Y021620D03*
X065348Y022620D03*
X065348Y023620D03*
X065348Y024620D03*
X065348Y025620D03*
X065348Y026620D03*
X065348Y027620D03*
X065348Y028620D03*
X065348Y029620D03*
X065348Y030620D03*
X065348Y031620D03*
X065348Y032620D03*
X065348Y033620D03*
X065348Y034620D03*
X065348Y035620D03*
X065348Y036620D03*
X065348Y037620D03*
X065348Y038620D03*
X065348Y039620D03*
X065348Y040620D03*
X065348Y041620D03*
X065348Y042620D03*
X064348Y042620D03*
X064348Y041620D03*
X064348Y040620D03*
X064348Y039620D03*
X064348Y038620D03*
X064348Y037620D03*
X064348Y036620D03*
X064348Y035620D03*
X064348Y034620D03*
X064348Y033620D03*
X064348Y032620D03*
X064348Y031620D03*
X064348Y030620D03*
X064348Y029620D03*
X064348Y028620D03*
X064348Y027620D03*
X064348Y026620D03*
X064348Y025620D03*
X064348Y024620D03*
X064348Y023620D03*
X064348Y022620D03*
X064348Y021620D03*
X064348Y020620D03*
X064348Y019620D03*
X064348Y018620D03*
X064348Y017620D03*
X064348Y016620D03*
X064348Y015620D03*
X064348Y014620D03*
X064348Y013620D03*
X064348Y012620D03*
X064348Y011620D03*
D21*
X061418Y010120D02*
X061420Y010189D01*
X061426Y010257D01*
X061436Y010325D01*
X061450Y010392D01*
X061468Y010458D01*
X061489Y010524D01*
X061515Y010587D01*
X061544Y010650D01*
X061576Y010710D01*
X061612Y010768D01*
X061651Y010825D01*
X061694Y010878D01*
X061740Y010930D01*
X061788Y010978D01*
X061840Y011024D01*
X061893Y011067D01*
X061950Y011106D01*
X062008Y011142D01*
X062068Y011174D01*
X062131Y011203D01*
X062194Y011229D01*
X062260Y011250D01*
X062326Y011268D01*
X062393Y011282D01*
X062461Y011292D01*
X062529Y011298D01*
X062598Y011300D01*
X062667Y011298D01*
X062735Y011292D01*
X062803Y011282D01*
X062870Y011268D01*
X062936Y011250D01*
X063002Y011229D01*
X063065Y011203D01*
X063128Y011174D01*
X063188Y011142D01*
X063246Y011106D01*
X063303Y011067D01*
X063356Y011024D01*
X063408Y010978D01*
X063456Y010930D01*
X063502Y010878D01*
X063545Y010825D01*
X063584Y010768D01*
X063620Y010710D01*
X063652Y010650D01*
X063681Y010587D01*
X063707Y010524D01*
X063728Y010458D01*
X063746Y010392D01*
X063760Y010325D01*
X063770Y010257D01*
X063776Y010189D01*
X063778Y010120D01*
X063776Y010051D01*
X063770Y009983D01*
X063760Y009915D01*
X063746Y009848D01*
X063728Y009782D01*
X063707Y009716D01*
X063681Y009653D01*
X063652Y009590D01*
X063620Y009530D01*
X063584Y009472D01*
X063545Y009415D01*
X063502Y009362D01*
X063456Y009310D01*
X063408Y009262D01*
X063356Y009216D01*
X063303Y009173D01*
X063246Y009134D01*
X063188Y009098D01*
X063128Y009066D01*
X063065Y009037D01*
X063002Y009011D01*
X062936Y008990D01*
X062870Y008972D01*
X062803Y008958D01*
X062735Y008948D01*
X062667Y008942D01*
X062598Y008940D01*
X062529Y008942D01*
X062461Y008948D01*
X062393Y008958D01*
X062326Y008972D01*
X062260Y008990D01*
X062194Y009011D01*
X062131Y009037D01*
X062068Y009066D01*
X062008Y009098D01*
X061950Y009134D01*
X061893Y009173D01*
X061840Y009216D01*
X061788Y009262D01*
X061740Y009310D01*
X061694Y009362D01*
X061651Y009415D01*
X061612Y009472D01*
X061576Y009530D01*
X061544Y009590D01*
X061515Y009653D01*
X061489Y009716D01*
X061468Y009782D01*
X061450Y009848D01*
X061436Y009915D01*
X061426Y009983D01*
X061420Y010051D01*
X061418Y010120D01*
X052888Y011770D02*
X050308Y011770D01*
X050308Y014130D01*
X052888Y014130D02*
X052888Y011770D01*
X030785Y012381D02*
X030785Y008759D01*
X027592Y008759D01*
X027592Y009141D01*
X027010Y009141D01*
X027010Y008759D01*
X027592Y008759D01*
X027010Y008759D02*
X020089Y008759D01*
X018607Y008759D01*
X018607Y011541D01*
X020089Y011541D01*
X020089Y008759D01*
X018607Y008759D02*
X010592Y008759D01*
X010592Y009141D01*
X010010Y009141D01*
X010010Y008759D01*
X010592Y008759D01*
X010010Y008759D02*
X007911Y008759D01*
X007911Y012381D01*
X009311Y012381D01*
X005168Y010120D02*
X005170Y010189D01*
X005176Y010257D01*
X005186Y010325D01*
X005200Y010392D01*
X005218Y010458D01*
X005239Y010524D01*
X005265Y010587D01*
X005294Y010650D01*
X005326Y010710D01*
X005362Y010768D01*
X005401Y010825D01*
X005444Y010878D01*
X005490Y010930D01*
X005538Y010978D01*
X005590Y011024D01*
X005643Y011067D01*
X005700Y011106D01*
X005758Y011142D01*
X005818Y011174D01*
X005881Y011203D01*
X005944Y011229D01*
X006010Y011250D01*
X006076Y011268D01*
X006143Y011282D01*
X006211Y011292D01*
X006279Y011298D01*
X006348Y011300D01*
X006417Y011298D01*
X006485Y011292D01*
X006553Y011282D01*
X006620Y011268D01*
X006686Y011250D01*
X006752Y011229D01*
X006815Y011203D01*
X006878Y011174D01*
X006938Y011142D01*
X006996Y011106D01*
X007053Y011067D01*
X007106Y011024D01*
X007158Y010978D01*
X007206Y010930D01*
X007252Y010878D01*
X007295Y010825D01*
X007334Y010768D01*
X007370Y010710D01*
X007402Y010650D01*
X007431Y010587D01*
X007457Y010524D01*
X007478Y010458D01*
X007496Y010392D01*
X007510Y010325D01*
X007520Y010257D01*
X007526Y010189D01*
X007528Y010120D01*
X007526Y010051D01*
X007520Y009983D01*
X007510Y009915D01*
X007496Y009848D01*
X007478Y009782D01*
X007457Y009716D01*
X007431Y009653D01*
X007402Y009590D01*
X007370Y009530D01*
X007334Y009472D01*
X007295Y009415D01*
X007252Y009362D01*
X007206Y009310D01*
X007158Y009262D01*
X007106Y009216D01*
X007053Y009173D01*
X006996Y009134D01*
X006938Y009098D01*
X006878Y009066D01*
X006815Y009037D01*
X006752Y009011D01*
X006686Y008990D01*
X006620Y008972D01*
X006553Y008958D01*
X006485Y008948D01*
X006417Y008942D01*
X006348Y008940D01*
X006279Y008942D01*
X006211Y008948D01*
X006143Y008958D01*
X006076Y008972D01*
X006010Y008990D01*
X005944Y009011D01*
X005881Y009037D01*
X005818Y009066D01*
X005758Y009098D01*
X005700Y009134D01*
X005643Y009173D01*
X005590Y009216D01*
X005538Y009262D01*
X005490Y009310D01*
X005444Y009362D01*
X005401Y009415D01*
X005362Y009472D01*
X005326Y009530D01*
X005294Y009590D01*
X005265Y009653D01*
X005239Y009716D01*
X005218Y009782D01*
X005200Y009848D01*
X005186Y009915D01*
X005176Y009983D01*
X005170Y010051D01*
X005168Y010120D01*
X028348Y008810D02*
X028850Y009824D01*
X029352Y008810D01*
X028348Y008810D01*
X028380Y008876D02*
X029319Y008876D01*
X029280Y008955D02*
X028419Y008955D01*
X028458Y009033D02*
X029241Y009033D01*
X029203Y009112D02*
X028497Y009112D01*
X028536Y009190D02*
X029164Y009190D01*
X029125Y009269D02*
X028575Y009269D01*
X028614Y009347D02*
X029086Y009347D01*
X029047Y009426D02*
X028653Y009426D01*
X028692Y009505D02*
X029008Y009505D01*
X028969Y009583D02*
X028730Y009583D01*
X028769Y009662D02*
X028930Y009662D01*
X028891Y009740D02*
X028808Y009740D01*
X028847Y009819D02*
X028853Y009819D01*
X029390Y012381D02*
X030785Y012381D01*
X008248Y033920D02*
X007443Y033920D01*
X006648Y034270D02*
X006648Y035970D01*
X007455Y036320D02*
X008248Y036320D01*
X009048Y035970D02*
X009048Y034270D01*
X007148Y035120D02*
X007150Y035172D01*
X007156Y035224D01*
X007166Y035276D01*
X007179Y035326D01*
X007196Y035376D01*
X007217Y035424D01*
X007242Y035470D01*
X007270Y035514D01*
X007301Y035556D01*
X007335Y035596D01*
X007372Y035633D01*
X007412Y035667D01*
X007454Y035698D01*
X007498Y035726D01*
X007544Y035751D01*
X007592Y035772D01*
X007642Y035789D01*
X007692Y035802D01*
X007744Y035812D01*
X007796Y035818D01*
X007848Y035820D01*
X007900Y035818D01*
X007952Y035812D01*
X008004Y035802D01*
X008054Y035789D01*
X008104Y035772D01*
X008152Y035751D01*
X008198Y035726D01*
X008242Y035698D01*
X008284Y035667D01*
X008324Y035633D01*
X008361Y035596D01*
X008395Y035556D01*
X008426Y035514D01*
X008454Y035470D01*
X008479Y035424D01*
X008500Y035376D01*
X008517Y035326D01*
X008530Y035276D01*
X008540Y035224D01*
X008546Y035172D01*
X008548Y035120D01*
X008546Y035068D01*
X008540Y035016D01*
X008530Y034964D01*
X008517Y034914D01*
X008500Y034864D01*
X008479Y034816D01*
X008454Y034770D01*
X008426Y034726D01*
X008395Y034684D01*
X008361Y034644D01*
X008324Y034607D01*
X008284Y034573D01*
X008242Y034542D01*
X008198Y034514D01*
X008152Y034489D01*
X008104Y034468D01*
X008054Y034451D01*
X008004Y034438D01*
X007952Y034428D01*
X007900Y034422D01*
X007848Y034420D01*
X007796Y034422D01*
X007744Y034428D01*
X007692Y034438D01*
X007642Y034451D01*
X007592Y034468D01*
X007544Y034489D01*
X007498Y034514D01*
X007454Y034542D01*
X007412Y034573D01*
X007372Y034607D01*
X007335Y034644D01*
X007301Y034684D01*
X007270Y034726D01*
X007242Y034770D01*
X007217Y034816D01*
X007196Y034864D01*
X007179Y034914D01*
X007166Y034964D01*
X007156Y035016D01*
X007150Y035068D01*
X007148Y035120D01*
X007443Y037670D02*
X008248Y037670D01*
X009048Y038020D02*
X009048Y039720D01*
X008248Y040070D02*
X007455Y040070D01*
X006648Y039720D02*
X006648Y038020D01*
X007148Y038870D02*
X007150Y038922D01*
X007156Y038974D01*
X007166Y039026D01*
X007179Y039076D01*
X007196Y039126D01*
X007217Y039174D01*
X007242Y039220D01*
X007270Y039264D01*
X007301Y039306D01*
X007335Y039346D01*
X007372Y039383D01*
X007412Y039417D01*
X007454Y039448D01*
X007498Y039476D01*
X007544Y039501D01*
X007592Y039522D01*
X007642Y039539D01*
X007692Y039552D01*
X007744Y039562D01*
X007796Y039568D01*
X007848Y039570D01*
X007900Y039568D01*
X007952Y039562D01*
X008004Y039552D01*
X008054Y039539D01*
X008104Y039522D01*
X008152Y039501D01*
X008198Y039476D01*
X008242Y039448D01*
X008284Y039417D01*
X008324Y039383D01*
X008361Y039346D01*
X008395Y039306D01*
X008426Y039264D01*
X008454Y039220D01*
X008479Y039174D01*
X008500Y039126D01*
X008517Y039076D01*
X008530Y039026D01*
X008540Y038974D01*
X008546Y038922D01*
X008548Y038870D01*
X008546Y038818D01*
X008540Y038766D01*
X008530Y038714D01*
X008517Y038664D01*
X008500Y038614D01*
X008479Y038566D01*
X008454Y038520D01*
X008426Y038476D01*
X008395Y038434D01*
X008361Y038394D01*
X008324Y038357D01*
X008284Y038323D01*
X008242Y038292D01*
X008198Y038264D01*
X008152Y038239D01*
X008104Y038218D01*
X008054Y038201D01*
X008004Y038188D01*
X007952Y038178D01*
X007900Y038172D01*
X007848Y038170D01*
X007796Y038172D01*
X007744Y038178D01*
X007692Y038188D01*
X007642Y038201D01*
X007592Y038218D01*
X007544Y038239D01*
X007498Y038264D01*
X007454Y038292D01*
X007412Y038323D01*
X007372Y038357D01*
X007335Y038394D01*
X007301Y038434D01*
X007270Y038476D01*
X007242Y038520D01*
X007217Y038566D01*
X007196Y038614D01*
X007179Y038664D01*
X007166Y038714D01*
X007156Y038766D01*
X007150Y038818D01*
X007148Y038870D01*
X007911Y041858D02*
X009306Y041858D01*
X007911Y041858D02*
X007911Y045480D01*
X011103Y045480D01*
X011103Y045098D01*
X011686Y045098D01*
X011686Y045480D01*
X011103Y045480D01*
X011686Y045480D02*
X018607Y045480D01*
X020089Y045480D01*
X020089Y042698D01*
X018607Y042698D01*
X018607Y045480D01*
X020089Y045480D02*
X028103Y045480D01*
X028103Y045098D01*
X028686Y045098D01*
X028686Y045480D01*
X028103Y045480D01*
X028686Y045480D02*
X030785Y045480D01*
X030785Y041858D01*
X029384Y041858D01*
X032911Y041858D02*
X034306Y041858D01*
X032911Y041858D02*
X032911Y045480D01*
X036103Y045480D01*
X036103Y045098D01*
X036686Y045098D01*
X036686Y045480D01*
X036103Y045480D01*
X036686Y045480D02*
X043607Y045480D01*
X045089Y045480D01*
X045089Y042698D01*
X043607Y042698D01*
X043607Y045480D01*
X045089Y045480D02*
X053103Y045480D01*
X053103Y045098D01*
X053686Y045098D01*
X053686Y045480D01*
X053103Y045480D01*
X053686Y045480D02*
X055785Y045480D01*
X055785Y041858D01*
X054384Y041858D01*
X059074Y042493D02*
X060017Y042493D01*
X060647Y042493D01*
X061590Y042493D01*
X061590Y042491D02*
X061583Y042476D01*
X061573Y042463D01*
X061560Y042453D01*
X061545Y042447D01*
X061529Y042445D01*
X061501Y042441D01*
X061474Y042432D01*
X061450Y042417D01*
X061430Y042397D01*
X061415Y042373D01*
X061406Y042347D01*
X061403Y042319D01*
X061466Y041878D01*
X061466Y041815D01*
X061456Y041686D01*
X061426Y041561D01*
X061377Y041443D01*
X061309Y041333D01*
X061226Y041235D01*
X061128Y041152D01*
X061019Y041085D01*
X060900Y041036D01*
X060775Y041006D01*
X060647Y040996D01*
X060017Y040996D01*
X060017Y042571D01*
X060647Y042571D01*
X060647Y040996D01*
X060647Y042571D01*
X061529Y042571D01*
X061545Y042568D01*
X061560Y042562D01*
X061573Y042552D01*
X061583Y042539D01*
X061590Y042524D01*
X061592Y042508D01*
X061590Y042491D01*
X061447Y042414D02*
X060647Y042414D01*
X060017Y042414D01*
X059216Y042414D01*
X059213Y042417D02*
X059233Y042397D01*
X059248Y042373D01*
X059258Y042347D01*
X059261Y042319D01*
X059198Y041878D01*
X059198Y041815D01*
X059208Y041686D01*
X059238Y041561D01*
X059287Y041443D01*
X059354Y041333D01*
X059438Y041235D01*
X059535Y041152D01*
X059645Y041085D01*
X059764Y041036D01*
X059889Y041006D01*
X060017Y040996D01*
X060017Y042571D01*
X059135Y042571D01*
X059119Y042568D01*
X059103Y042562D01*
X059090Y042552D01*
X059080Y042539D01*
X059074Y042524D01*
X059072Y042508D01*
X059074Y042491D01*
X059080Y042476D01*
X059090Y042463D01*
X059103Y042453D01*
X059119Y042447D01*
X059135Y042445D01*
X059163Y042441D01*
X059190Y042432D01*
X059213Y042417D01*
X059259Y042336D02*
X060017Y042336D01*
X060647Y042336D01*
X061405Y042336D01*
X061412Y042257D02*
X060647Y042257D01*
X060017Y042257D01*
X059252Y042257D01*
X059241Y042179D02*
X060017Y042179D01*
X060647Y042179D01*
X061423Y042179D01*
X061434Y042100D02*
X060647Y042100D01*
X060017Y042100D01*
X059230Y042100D01*
X059218Y042021D02*
X060017Y042021D01*
X060647Y042021D01*
X061445Y042021D01*
X061456Y041943D02*
X060647Y041943D01*
X060017Y041943D01*
X059207Y041943D01*
X059198Y041864D02*
X060017Y041864D01*
X060647Y041864D01*
X061466Y041864D01*
X061464Y041786D02*
X060647Y041786D01*
X060017Y041786D01*
X059200Y041786D01*
X059206Y041707D02*
X060017Y041707D01*
X060647Y041707D01*
X061457Y041707D01*
X061442Y041629D02*
X060647Y041629D01*
X060017Y041629D01*
X059222Y041629D01*
X059243Y041550D02*
X060017Y041550D01*
X060647Y041550D01*
X061421Y041550D01*
X061389Y041472D02*
X060647Y041472D01*
X060017Y041472D01*
X059275Y041472D01*
X059317Y041393D02*
X060017Y041393D01*
X060647Y041393D01*
X061346Y041393D01*
X061294Y041315D02*
X060647Y041315D01*
X060017Y041315D01*
X059370Y041315D01*
X059437Y041236D02*
X060017Y041236D01*
X060647Y041236D01*
X061227Y041236D01*
X061135Y041158D02*
X060647Y041158D01*
X060017Y041158D01*
X059529Y041158D01*
X059659Y041079D02*
X060017Y041079D01*
X060647Y041079D01*
X061005Y041079D01*
X060709Y041000D02*
X060647Y041000D01*
X060017Y041000D01*
X059954Y041000D01*
X061418Y044370D02*
X061420Y044439D01*
X061426Y044507D01*
X061436Y044575D01*
X061450Y044642D01*
X061468Y044708D01*
X061489Y044774D01*
X061515Y044837D01*
X061544Y044900D01*
X061576Y044960D01*
X061612Y045018D01*
X061651Y045075D01*
X061694Y045128D01*
X061740Y045180D01*
X061788Y045228D01*
X061840Y045274D01*
X061893Y045317D01*
X061950Y045356D01*
X062008Y045392D01*
X062068Y045424D01*
X062131Y045453D01*
X062194Y045479D01*
X062260Y045500D01*
X062326Y045518D01*
X062393Y045532D01*
X062461Y045542D01*
X062529Y045548D01*
X062598Y045550D01*
X062667Y045548D01*
X062735Y045542D01*
X062803Y045532D01*
X062870Y045518D01*
X062936Y045500D01*
X063002Y045479D01*
X063065Y045453D01*
X063128Y045424D01*
X063188Y045392D01*
X063246Y045356D01*
X063303Y045317D01*
X063356Y045274D01*
X063408Y045228D01*
X063456Y045180D01*
X063502Y045128D01*
X063545Y045075D01*
X063584Y045018D01*
X063620Y044960D01*
X063652Y044900D01*
X063681Y044837D01*
X063707Y044774D01*
X063728Y044708D01*
X063746Y044642D01*
X063760Y044575D01*
X063770Y044507D01*
X063776Y044439D01*
X063778Y044370D01*
X063776Y044301D01*
X063770Y044233D01*
X063760Y044165D01*
X063746Y044098D01*
X063728Y044032D01*
X063707Y043966D01*
X063681Y043903D01*
X063652Y043840D01*
X063620Y043780D01*
X063584Y043722D01*
X063545Y043665D01*
X063502Y043612D01*
X063456Y043560D01*
X063408Y043512D01*
X063356Y043466D01*
X063303Y043423D01*
X063246Y043384D01*
X063188Y043348D01*
X063128Y043316D01*
X063065Y043287D01*
X063002Y043261D01*
X062936Y043240D01*
X062870Y043222D01*
X062803Y043208D01*
X062735Y043198D01*
X062667Y043192D01*
X062598Y043190D01*
X062529Y043192D01*
X062461Y043198D01*
X062393Y043208D01*
X062326Y043222D01*
X062260Y043240D01*
X062194Y043261D01*
X062131Y043287D01*
X062068Y043316D01*
X062008Y043348D01*
X061950Y043384D01*
X061893Y043423D01*
X061840Y043466D01*
X061788Y043512D01*
X061740Y043560D01*
X061694Y043612D01*
X061651Y043665D01*
X061612Y043722D01*
X061576Y043780D01*
X061544Y043840D01*
X061515Y043903D01*
X061489Y043966D01*
X061468Y044032D01*
X061450Y044098D01*
X061436Y044165D01*
X061426Y044233D01*
X061420Y044301D01*
X061418Y044370D01*
X035348Y045429D02*
X034846Y044415D01*
X034344Y045429D01*
X035348Y045429D01*
X035333Y045399D02*
X034359Y045399D01*
X034398Y045320D02*
X035294Y045320D01*
X035255Y045242D02*
X034436Y045242D01*
X034475Y045163D02*
X035216Y045163D01*
X035178Y045085D02*
X034514Y045085D01*
X034553Y045006D02*
X035139Y045006D01*
X035100Y044928D02*
X034592Y044928D01*
X034631Y044849D02*
X035061Y044849D01*
X035022Y044771D02*
X034670Y044771D01*
X034709Y044692D02*
X034983Y044692D01*
X034944Y044613D02*
X034748Y044613D01*
X034786Y044535D02*
X034905Y044535D01*
X034866Y044456D02*
X034825Y044456D01*
X010348Y045429D02*
X009846Y044415D01*
X009344Y045429D01*
X010348Y045429D01*
X010333Y045399D02*
X009359Y045399D01*
X009398Y045320D02*
X010294Y045320D01*
X010255Y045242D02*
X009436Y045242D01*
X009475Y045163D02*
X010216Y045163D01*
X010178Y045085D02*
X009514Y045085D01*
X009553Y045006D02*
X010139Y045006D01*
X010100Y044928D02*
X009592Y044928D01*
X009631Y044849D02*
X010061Y044849D01*
X010022Y044771D02*
X009670Y044771D01*
X009709Y044692D02*
X009983Y044692D01*
X009944Y044613D02*
X009748Y044613D01*
X009786Y044535D02*
X009905Y044535D01*
X009866Y044456D02*
X009825Y044456D01*
X005168Y044370D02*
X005170Y044439D01*
X005176Y044507D01*
X005186Y044575D01*
X005200Y044642D01*
X005218Y044708D01*
X005239Y044774D01*
X005265Y044837D01*
X005294Y044900D01*
X005326Y044960D01*
X005362Y045018D01*
X005401Y045075D01*
X005444Y045128D01*
X005490Y045180D01*
X005538Y045228D01*
X005590Y045274D01*
X005643Y045317D01*
X005700Y045356D01*
X005758Y045392D01*
X005818Y045424D01*
X005881Y045453D01*
X005944Y045479D01*
X006010Y045500D01*
X006076Y045518D01*
X006143Y045532D01*
X006211Y045542D01*
X006279Y045548D01*
X006348Y045550D01*
X006417Y045548D01*
X006485Y045542D01*
X006553Y045532D01*
X006620Y045518D01*
X006686Y045500D01*
X006752Y045479D01*
X006815Y045453D01*
X006878Y045424D01*
X006938Y045392D01*
X006996Y045356D01*
X007053Y045317D01*
X007106Y045274D01*
X007158Y045228D01*
X007206Y045180D01*
X007252Y045128D01*
X007295Y045075D01*
X007334Y045018D01*
X007370Y044960D01*
X007402Y044900D01*
X007431Y044837D01*
X007457Y044774D01*
X007478Y044708D01*
X007496Y044642D01*
X007510Y044575D01*
X007520Y044507D01*
X007526Y044439D01*
X007528Y044370D01*
X007526Y044301D01*
X007520Y044233D01*
X007510Y044165D01*
X007496Y044098D01*
X007478Y044032D01*
X007457Y043966D01*
X007431Y043903D01*
X007402Y043840D01*
X007370Y043780D01*
X007334Y043722D01*
X007295Y043665D01*
X007252Y043612D01*
X007206Y043560D01*
X007158Y043512D01*
X007106Y043466D01*
X007053Y043423D01*
X006996Y043384D01*
X006938Y043348D01*
X006878Y043316D01*
X006815Y043287D01*
X006752Y043261D01*
X006686Y043240D01*
X006620Y043222D01*
X006553Y043208D01*
X006485Y043198D01*
X006417Y043192D01*
X006348Y043190D01*
X006279Y043192D01*
X006211Y043198D01*
X006143Y043208D01*
X006076Y043222D01*
X006010Y043240D01*
X005944Y043261D01*
X005881Y043287D01*
X005818Y043316D01*
X005758Y043348D01*
X005700Y043384D01*
X005643Y043423D01*
X005590Y043466D01*
X005538Y043512D01*
X005490Y043560D01*
X005444Y043612D01*
X005401Y043665D01*
X005362Y043722D01*
X005326Y043780D01*
X005294Y043840D01*
X005265Y043903D01*
X005239Y043966D01*
X005218Y044032D01*
X005200Y044098D01*
X005186Y044165D01*
X005176Y044233D01*
X005170Y044301D01*
X005168Y044370D01*
D22*
X035368Y012350D02*
X035521Y012350D01*
X035445Y012350D02*
X035445Y011890D01*
X035521Y011890D02*
X035368Y011890D01*
X035675Y011966D02*
X035751Y011890D01*
X035905Y011890D01*
X035982Y011966D01*
X036135Y011966D02*
X036135Y012043D01*
X036212Y012120D01*
X036365Y012120D01*
X036442Y012043D01*
X036442Y011966D01*
X036365Y011890D01*
X036212Y011890D01*
X036135Y011966D01*
X036212Y012120D02*
X036135Y012196D01*
X036135Y012273D01*
X036212Y012350D01*
X036365Y012350D01*
X036442Y012273D01*
X036442Y012196D01*
X036365Y012120D01*
X035982Y012273D02*
X035905Y012350D01*
X035751Y012350D01*
X035675Y012273D01*
X035675Y011966D01*
X038368Y011890D02*
X038521Y011890D01*
X038445Y011890D02*
X038445Y012350D01*
X038521Y012350D02*
X038368Y012350D01*
X038675Y012273D02*
X038675Y011966D01*
X038751Y011890D01*
X038905Y011890D01*
X038982Y011966D01*
X039135Y011966D02*
X039135Y011890D01*
X039135Y011966D02*
X039442Y012273D01*
X039442Y012350D01*
X039135Y012350D01*
X038982Y012273D02*
X038905Y012350D01*
X038751Y012350D01*
X038675Y012273D01*
X041368Y012350D02*
X041521Y012350D01*
X041445Y012350D02*
X041445Y011890D01*
X041521Y011890D02*
X041368Y011890D01*
X041675Y011966D02*
X041751Y011890D01*
X041905Y011890D01*
X041982Y011966D01*
X042135Y011966D02*
X042212Y011890D01*
X042365Y011890D01*
X042442Y011966D01*
X042442Y012043D01*
X042365Y012120D01*
X042289Y012120D01*
X042365Y012120D02*
X042442Y012196D01*
X042442Y012273D01*
X042365Y012350D01*
X042212Y012350D01*
X042135Y012273D01*
X041982Y012273D02*
X041905Y012350D01*
X041751Y012350D01*
X041675Y012273D01*
X041675Y011966D01*
X056618Y041890D02*
X056618Y042350D01*
X056848Y042350D01*
X056925Y042273D01*
X056925Y042120D01*
X056848Y042043D01*
X056618Y042043D01*
X057078Y042196D02*
X057232Y042350D01*
X057232Y041890D01*
X057385Y041890D02*
X057078Y041890D01*
D23*
X061848Y044370D02*
X061850Y044424D01*
X061856Y044478D01*
X061866Y044531D01*
X061879Y044584D01*
X061896Y044635D01*
X061917Y044685D01*
X061942Y044733D01*
X061970Y044780D01*
X062001Y044824D01*
X062035Y044866D01*
X062072Y044905D01*
X062112Y044942D01*
X062155Y044975D01*
X062200Y045006D01*
X062247Y045033D01*
X062295Y045056D01*
X062346Y045076D01*
X062397Y045093D01*
X062450Y045105D01*
X062503Y045114D01*
X062557Y045119D01*
X062612Y045120D01*
X062666Y045117D01*
X062719Y045110D01*
X062772Y045099D01*
X062825Y045085D01*
X062876Y045067D01*
X062925Y045045D01*
X062973Y045020D01*
X063019Y044991D01*
X063063Y044959D01*
X063104Y044924D01*
X063142Y044886D01*
X063178Y044845D01*
X063211Y044802D01*
X063241Y044757D01*
X063267Y044709D01*
X063290Y044660D01*
X063309Y044609D01*
X063324Y044558D01*
X063336Y044505D01*
X063344Y044451D01*
X063348Y044397D01*
X063348Y044343D01*
X063344Y044289D01*
X063336Y044235D01*
X063324Y044182D01*
X063309Y044131D01*
X063290Y044080D01*
X063267Y044031D01*
X063241Y043983D01*
X063211Y043938D01*
X063178Y043895D01*
X063142Y043854D01*
X063104Y043816D01*
X063063Y043781D01*
X063019Y043749D01*
X062973Y043720D01*
X062925Y043695D01*
X062876Y043673D01*
X062825Y043655D01*
X062772Y043641D01*
X062719Y043630D01*
X062666Y043623D01*
X062612Y043620D01*
X062557Y043621D01*
X062503Y043626D01*
X062450Y043635D01*
X062397Y043647D01*
X062346Y043664D01*
X062295Y043684D01*
X062247Y043707D01*
X062200Y043734D01*
X062155Y043765D01*
X062112Y043798D01*
X062072Y043835D01*
X062035Y043874D01*
X062001Y043916D01*
X061970Y043960D01*
X061942Y044007D01*
X061917Y044055D01*
X061896Y044105D01*
X061879Y044156D01*
X061866Y044209D01*
X061856Y044262D01*
X061850Y044316D01*
X061848Y044370D01*
X061848Y010120D02*
X061850Y010174D01*
X061856Y010228D01*
X061866Y010281D01*
X061879Y010334D01*
X061896Y010385D01*
X061917Y010435D01*
X061942Y010483D01*
X061970Y010530D01*
X062001Y010574D01*
X062035Y010616D01*
X062072Y010655D01*
X062112Y010692D01*
X062155Y010725D01*
X062200Y010756D01*
X062247Y010783D01*
X062295Y010806D01*
X062346Y010826D01*
X062397Y010843D01*
X062450Y010855D01*
X062503Y010864D01*
X062557Y010869D01*
X062612Y010870D01*
X062666Y010867D01*
X062719Y010860D01*
X062772Y010849D01*
X062825Y010835D01*
X062876Y010817D01*
X062925Y010795D01*
X062973Y010770D01*
X063019Y010741D01*
X063063Y010709D01*
X063104Y010674D01*
X063142Y010636D01*
X063178Y010595D01*
X063211Y010552D01*
X063241Y010507D01*
X063267Y010459D01*
X063290Y010410D01*
X063309Y010359D01*
X063324Y010308D01*
X063336Y010255D01*
X063344Y010201D01*
X063348Y010147D01*
X063348Y010093D01*
X063344Y010039D01*
X063336Y009985D01*
X063324Y009932D01*
X063309Y009881D01*
X063290Y009830D01*
X063267Y009781D01*
X063241Y009733D01*
X063211Y009688D01*
X063178Y009645D01*
X063142Y009604D01*
X063104Y009566D01*
X063063Y009531D01*
X063019Y009499D01*
X062973Y009470D01*
X062925Y009445D01*
X062876Y009423D01*
X062825Y009405D01*
X062772Y009391D01*
X062719Y009380D01*
X062666Y009373D01*
X062612Y009370D01*
X062557Y009371D01*
X062503Y009376D01*
X062450Y009385D01*
X062397Y009397D01*
X062346Y009414D01*
X062295Y009434D01*
X062247Y009457D01*
X062200Y009484D01*
X062155Y009515D01*
X062112Y009548D01*
X062072Y009585D01*
X062035Y009624D01*
X062001Y009666D01*
X061970Y009710D01*
X061942Y009757D01*
X061917Y009805D01*
X061896Y009855D01*
X061879Y009906D01*
X061866Y009959D01*
X061856Y010012D01*
X061850Y010066D01*
X061848Y010120D01*
X005598Y010120D02*
X005600Y010174D01*
X005606Y010228D01*
X005616Y010281D01*
X005629Y010334D01*
X005646Y010385D01*
X005667Y010435D01*
X005692Y010483D01*
X005720Y010530D01*
X005751Y010574D01*
X005785Y010616D01*
X005822Y010655D01*
X005862Y010692D01*
X005905Y010725D01*
X005950Y010756D01*
X005997Y010783D01*
X006045Y010806D01*
X006096Y010826D01*
X006147Y010843D01*
X006200Y010855D01*
X006253Y010864D01*
X006307Y010869D01*
X006362Y010870D01*
X006416Y010867D01*
X006469Y010860D01*
X006522Y010849D01*
X006575Y010835D01*
X006626Y010817D01*
X006675Y010795D01*
X006723Y010770D01*
X006769Y010741D01*
X006813Y010709D01*
X006854Y010674D01*
X006892Y010636D01*
X006928Y010595D01*
X006961Y010552D01*
X006991Y010507D01*
X007017Y010459D01*
X007040Y010410D01*
X007059Y010359D01*
X007074Y010308D01*
X007086Y010255D01*
X007094Y010201D01*
X007098Y010147D01*
X007098Y010093D01*
X007094Y010039D01*
X007086Y009985D01*
X007074Y009932D01*
X007059Y009881D01*
X007040Y009830D01*
X007017Y009781D01*
X006991Y009733D01*
X006961Y009688D01*
X006928Y009645D01*
X006892Y009604D01*
X006854Y009566D01*
X006813Y009531D01*
X006769Y009499D01*
X006723Y009470D01*
X006675Y009445D01*
X006626Y009423D01*
X006575Y009405D01*
X006522Y009391D01*
X006469Y009380D01*
X006416Y009373D01*
X006362Y009370D01*
X006307Y009371D01*
X006253Y009376D01*
X006200Y009385D01*
X006147Y009397D01*
X006096Y009414D01*
X006045Y009434D01*
X005997Y009457D01*
X005950Y009484D01*
X005905Y009515D01*
X005862Y009548D01*
X005822Y009585D01*
X005785Y009624D01*
X005751Y009666D01*
X005720Y009710D01*
X005692Y009757D01*
X005667Y009805D01*
X005646Y009855D01*
X005629Y009906D01*
X005616Y009959D01*
X005606Y010012D01*
X005600Y010066D01*
X005598Y010120D01*
X005598Y044370D02*
X005600Y044424D01*
X005606Y044478D01*
X005616Y044531D01*
X005629Y044584D01*
X005646Y044635D01*
X005667Y044685D01*
X005692Y044733D01*
X005720Y044780D01*
X005751Y044824D01*
X005785Y044866D01*
X005822Y044905D01*
X005862Y044942D01*
X005905Y044975D01*
X005950Y045006D01*
X005997Y045033D01*
X006045Y045056D01*
X006096Y045076D01*
X006147Y045093D01*
X006200Y045105D01*
X006253Y045114D01*
X006307Y045119D01*
X006362Y045120D01*
X006416Y045117D01*
X006469Y045110D01*
X006522Y045099D01*
X006575Y045085D01*
X006626Y045067D01*
X006675Y045045D01*
X006723Y045020D01*
X006769Y044991D01*
X006813Y044959D01*
X006854Y044924D01*
X006892Y044886D01*
X006928Y044845D01*
X006961Y044802D01*
X006991Y044757D01*
X007017Y044709D01*
X007040Y044660D01*
X007059Y044609D01*
X007074Y044558D01*
X007086Y044505D01*
X007094Y044451D01*
X007098Y044397D01*
X007098Y044343D01*
X007094Y044289D01*
X007086Y044235D01*
X007074Y044182D01*
X007059Y044131D01*
X007040Y044080D01*
X007017Y044031D01*
X006991Y043983D01*
X006961Y043938D01*
X006928Y043895D01*
X006892Y043854D01*
X006854Y043816D01*
X006813Y043781D01*
X006769Y043749D01*
X006723Y043720D01*
X006675Y043695D01*
X006626Y043673D01*
X006575Y043655D01*
X006522Y043641D01*
X006469Y043630D01*
X006416Y043623D01*
X006362Y043620D01*
X006307Y043621D01*
X006253Y043626D01*
X006200Y043635D01*
X006147Y043647D01*
X006096Y043664D01*
X006045Y043684D01*
X005997Y043707D01*
X005950Y043734D01*
X005905Y043765D01*
X005862Y043798D01*
X005822Y043835D01*
X005785Y043874D01*
X005751Y043916D01*
X005720Y043960D01*
X005692Y044007D01*
X005667Y044055D01*
X005646Y044105D01*
X005629Y044156D01*
X005616Y044209D01*
X005606Y044262D01*
X005600Y044316D01*
X005598Y044370D01*
D24*
X009848Y039381D02*
X009848Y039377D01*
X009848Y035631D02*
X009848Y035627D01*
X036348Y010362D02*
X036348Y010358D01*
X039348Y010362D02*
X039348Y010358D01*
X042348Y010362D02*
X042348Y010358D01*
X045348Y010362D02*
X045348Y010358D01*
D25*
X044848Y010610D02*
X044848Y011125D01*
X045852Y011125D01*
X045852Y010610D01*
X044848Y010610D01*
X042852Y010610D02*
X041848Y010610D01*
X041848Y011125D01*
X042852Y011125D01*
X042852Y010610D01*
X039852Y010610D02*
X038848Y010610D01*
X038848Y011125D01*
X039852Y011125D01*
X039852Y010610D01*
X036852Y010610D02*
X035848Y010610D01*
X035848Y011125D01*
X036852Y011125D01*
X036852Y010610D01*
X010348Y034864D02*
X009344Y034864D01*
X009344Y035379D01*
X010348Y035379D01*
X010348Y034864D01*
X010348Y038614D02*
X009344Y038614D01*
X009344Y039129D01*
X010348Y039129D01*
X010348Y038614D01*
D26*
X007387Y024370D03*
X007387Y022870D03*
X007387Y021370D03*
X007387Y019870D03*
X007387Y018370D03*
X007387Y016870D03*
X007387Y015370D03*
X007387Y013870D03*
D27*
X051598Y011580D03*
M02*
