%
M48
M72
T01C0.0160
T02C0.0320
T03C0.0360
T04C0.0394
T05C0.0400
T06C0.1100
T07C0.1300
%
T01
X8348Y13870
X8348Y15370
X8348Y16870
X8348Y18370
X8348Y19870
X8348Y21370
X8348Y22870
X8348Y24370
X7848Y33870
X9348Y35120
X7848Y37620
X9348Y38870
T02
X48448Y11370
X49248Y11370
X53948Y11370
X54748Y11370
X58848Y10620
X59848Y10620
X58848Y43620
X57848Y43620
T03
X63848Y42620
X64848Y42620
X65848Y42620
X65848Y41620
X64848Y41620
X63848Y41620
X63848Y40620
X63848Y39620
X64848Y39620
X64848Y40620
X65848Y40620
X65848Y39620
X65848Y38620
X64848Y38620
X63848Y38620
X63848Y37620
X64848Y37620
X65848Y37620
X65848Y36620
X64848Y36620
X63848Y36620
X63848Y35620
X64848Y35620
X65848Y35620
X65848Y34620
X64848Y34620
X63848Y34620
X63848Y33620
X63848Y32620
X64848Y32620
X64848Y33620
X65848Y33620
X65848Y32620
X65848Y31620
X64848Y31620
X63848Y31620
X63848Y30620
X64848Y30620
X65848Y30620
X65848Y29620
X64848Y29620
X63848Y29620
X63848Y28620
X64848Y28620
X65848Y28620
X65848Y27620
X64848Y27620
X64848Y26620
X65848Y26620
X65848Y25620
X64848Y25620
X63848Y25620
X63848Y26620
X63848Y27620
X63848Y24620
X64848Y24620
X65848Y24620
X65848Y23620
X64848Y23620
X63848Y23620
X63848Y22620
X64848Y22620
X65848Y22620
X65848Y21620
X64848Y21620
X64848Y20620
X65848Y20620
X65848Y19620
X64848Y19620
X63848Y19620
X63848Y20620
X63848Y21620
X63848Y18620
X64848Y18620
X65848Y18620
X65848Y17620
X64848Y17620
X63848Y17620
X63848Y16620
X64848Y16620
X65848Y16620
X65848Y15620
X64848Y15620
X63848Y15620
X63848Y14620
X63848Y13620
X64848Y13620
X64848Y14620
X65848Y14620
X65848Y13620
X65848Y12620
X64848Y12620
X63848Y12620
X63848Y11620
X64848Y11620
X65848Y11620
X55848Y10620
X48848Y12620
X48848Y13620
X48848Y14620
X46848Y12370
X45848Y12370
X44848Y12370
X43848Y12370
X42848Y12370
X41848Y12370
X40848Y12370
X39848Y12370
X38848Y12370
X37848Y12370
X36848Y12370
X35848Y12370
X8848Y14620
X8848Y16120
X8848Y17620
X8848Y19120
X8848Y20620
X8848Y22120
X8848Y23620
X8848Y25120
X9848Y33620
X9848Y37120
T04
X9848Y40620
X9848Y41620
X10848Y41620
X11848Y41620
X12848Y41620
X13848Y41620
X14848Y41620
X15848Y41620
X16848Y41620
X17848Y41620
X18848Y41620
X19848Y41620
X20848Y41620
X21848Y41620
X22848Y41620
X23848Y41620
X24848Y41620
X25848Y41620
X26848Y41620
X27848Y41620
X28848Y41620
X28848Y40620
X27848Y40620
X26848Y40620
X25848Y40620
X24848Y40620
X23848Y40620
X22848Y40620
X21848Y40620
X20848Y40620
X19848Y40620
X18848Y40620
X17848Y40620
X16848Y40620
X15848Y40620
X14848Y40620
X13848Y40620
X12848Y40620
X11848Y40620
X10848Y40620
X34848Y40620
X35848Y40620
X36848Y40620
X36848Y41620
X35848Y41620
X34848Y41620
X37848Y41620
X38848Y41620
X39848Y41620
X40848Y41620
X41848Y41620
X42848Y41620
X43848Y41620
X44848Y41620
X45848Y41620
X46848Y41620
X47848Y41620
X48848Y41620
X49848Y41620
X50848Y41620
X51848Y41620
X52848Y41620
X53848Y41620
X53848Y40620
X52848Y40620
X51848Y40620
X50848Y40620
X49848Y40620
X48848Y40620
X47848Y40620
X46848Y40620
X45848Y40620
X44848Y40620
X43848Y40620
X42848Y40620
X41848Y40620
X40848Y40620
X39848Y40620
X38848Y40620
X37848Y40620
X28848Y13620
X27848Y13620
X26848Y13620
X25848Y13620
X24848Y13620
X23848Y13620
X22848Y13620
X21848Y13620
X20848Y13620
X19848Y13620
X18848Y13620
X17848Y13620
X16848Y13620
X15848Y13620
X14848Y13620
X13848Y13620
X12848Y13620
X11848Y13620
X10848Y13620
X9848Y13620
X9848Y12620
X10848Y12620
X11848Y12620
X12848Y12620
X13848Y12620
X14848Y12620
X15848Y12620
X16848Y12620
X17848Y12620
X18848Y12620
X19848Y12620
X20848Y12620
X21848Y12620
X22848Y12620
X23848Y12620
X24848Y12620
X25848Y12620
X26848Y12620
X27848Y12620
X28848Y12620
T05
X8848Y9620
X9848Y9620
X9848Y10620
X8848Y10620
X8848Y11620
X9848Y11620
X10848Y11620
X11848Y11620
X12848Y11620
X13848Y11620
X14848Y11620
X15848Y11620
X16848Y11620
X17848Y11620
X18848Y11620
X19848Y11620
X20848Y11620
X21848Y11620
X22848Y11620
X23848Y11620
X24848Y11620
X25848Y11620
X26848Y11620
X27848Y11620
X28848Y11620
X29848Y11620
X30848Y11620
X31848Y11620
X31848Y12620
X30848Y12620
X29848Y12620
X29848Y13620
X29848Y14620
X30848Y14620
X31848Y14620
X31848Y13620
X30848Y13620
X30848Y15620
X31848Y15620
X31848Y16620
X30848Y16620
X29848Y16620
X29848Y17620
X30848Y17620
X31848Y17620
X31848Y18620
X30848Y18620
X29848Y18620
X29848Y19620
X30848Y19620
X31848Y19620
X31848Y20620
X31848Y21620
X30848Y21620
X29848Y21620
X29848Y20620
X30848Y20620
X30848Y22620
X31848Y22620
X31848Y23620
X30848Y23620
X29848Y23620
X29848Y24620
X30848Y24620
X31848Y24620
X31848Y25620
X30848Y25620
X29848Y25620
X29848Y26620
X29848Y27620
X30848Y27620
X31848Y27620
X31848Y26620
X30848Y26620
X30848Y28620
X31848Y28620
X31848Y29620
X30848Y29620
X29848Y29620
X29848Y30620
X30848Y30620
X31848Y30620
X31848Y31620
X30848Y31620
X29848Y31620
X29848Y32620
X29848Y33620
X30848Y33620
X31848Y33620
X31848Y32620
X30848Y32620
X30848Y34620
X31848Y34620
X31848Y35620
X30848Y35620
X29848Y35620
X29848Y36620
X30848Y36620
X31848Y36620
X31848Y37620
X30848Y37620
X29848Y37620
X29848Y38620
X30848Y38620
X31848Y38620
X31848Y39620
X31848Y40620
X30848Y40620
X29848Y40620
X29848Y39620
X30848Y39620
X30848Y41620
X31848Y41620
X31848Y42620
X30848Y42620
X29848Y42620
X29848Y43620
X30848Y43620
X31848Y43620
X31848Y44620
X30848Y44620
X29848Y44620
X28848Y44620
X27848Y44620
X26848Y44620
X25848Y44620
X24848Y44620
X23848Y44620
X22848Y44620
X21848Y44620
X20848Y44620
X19848Y44620
X18848Y44620
X17848Y44620
X16848Y44620
X15848Y44620
X14848Y44620
X13848Y44620
X12848Y44620
X11848Y44620
X10848Y44620
X9848Y44620
X8848Y44620
X8848Y43620
X9848Y43620
X10848Y43620
X11848Y43620
X12848Y43620
X13848Y43620
X14848Y43620
X15848Y43620
X16848Y43620
X17848Y43620
X18848Y43620
X19848Y43620
X20848Y43620
X21848Y43620
X22848Y43620
X23848Y43620
X24848Y43620
X25848Y43620
X26848Y43620
X27848Y43620
X28848Y43620
X28848Y42620
X27848Y42620
X26848Y42620
X25848Y42620
X24848Y42620
X23848Y42620
X22848Y42620
X21848Y42620
X20848Y42620
X19848Y42620
X18848Y42620
X17848Y42620
X16848Y42620
X15848Y42620
X14848Y42620
X13848Y42620
X12848Y42620
X11848Y42620
X10848Y42620
X9848Y42620
X8848Y42620
X8738Y40150
X6958Y40150
X6958Y37590
X6958Y36400
X8738Y36400
X8738Y37590
X11848Y37620
X11848Y38620
X11848Y39620
X12848Y39620
X13848Y39620
X14848Y39620
X15848Y39620
X16848Y39620
X17848Y39620
X18848Y39620
X19848Y39620
X20848Y39620
X21848Y39620
X22848Y39620
X23848Y39620
X24848Y39620
X25848Y39620
X26848Y39620
X27848Y39620
X28848Y39620
X28848Y38620
X27848Y38620
X26848Y38620
X25848Y38620
X24848Y38620
X23848Y38620
X22848Y38620
X21848Y38620
X20848Y38620
X19848Y38620
X18848Y38620
X17848Y38620
X16848Y38620
X15848Y38620
X14848Y38620
X13848Y38620
X12848Y38620
X12848Y37620
X12848Y36620
X11848Y36620
X11848Y35620
X12848Y35620
X13848Y35620
X14848Y35620
X14848Y36620
X14848Y37620
X15848Y37620
X16848Y37620
X17848Y37620
X18848Y37620
X18848Y36620
X17848Y36620
X16848Y36620
X15848Y36620
X15848Y35620
X16848Y35620
X17848Y35620
X18848Y35620
X19848Y35620
X20848Y35620
X21848Y35620
X21848Y36620
X20848Y36620
X20848Y37620
X21848Y37620
X22848Y37620
X23848Y37620
X24848Y37620
X25848Y37620
X25848Y36620
X24848Y36620
X23848Y36620
X22848Y36620
X22848Y35620
X23848Y35620
X24848Y35620
X25848Y35620
X26848Y35620
X27848Y35620
X28848Y35620
X28848Y36620
X27848Y36620
X27848Y37620
X28848Y37620
X28848Y34620
X27848Y34620
X26848Y34620
X25848Y34620
X24848Y34620
X23848Y34620
X22848Y34620
X21848Y34620
X20848Y34620
X19848Y34620
X18848Y34620
X17848Y34620
X16848Y34620
X15848Y34620
X14848Y34620
X13848Y34620
X12848Y34620
X11848Y34620
X11848Y33620
X11848Y32620
X10848Y32620
X9848Y32620
X8848Y32620
X7848Y32620
X6848Y32620
X5848Y32620
X5848Y31620
X6848Y31620
X7848Y31620
X8848Y31620
X9848Y31620
X10848Y31620
X11848Y31620
X12848Y31620
X13848Y31620
X14848Y31620
X14848Y32620
X14848Y33620
X13848Y33620
X12848Y33620
X12848Y32620
X13848Y32620
X15848Y32620
X15848Y33620
X16848Y33620
X16848Y32620
X17848Y32620
X17848Y33620
X18848Y33620
X19848Y33620
X19848Y32620
X18848Y32620
X18848Y31620
X19848Y31620
X20848Y31620
X21848Y31620
X21848Y32620
X21848Y33620
X20848Y33620
X20848Y32620
X22848Y32620
X22848Y33620
X23848Y33620
X23848Y32620
X24848Y32620
X24848Y33620
X25848Y33620
X26848Y33620
X25848Y32620
X25848Y31620
X24848Y31620
X23848Y31620
X22848Y31620
X22848Y30620
X23848Y30620
X24848Y30620
X25848Y30620
X26848Y30620
X27848Y30620
X28848Y30620
X28848Y31620
X27848Y31620
X27848Y32620
X27848Y33620
X28848Y33620
X28848Y32620
X29848Y34620
X32848Y34620
X33848Y34620
X33848Y35620
X32848Y35620
X32848Y36620
X32848Y37620
X32848Y38620
X33848Y38620
X33848Y39620
X33848Y40620
X32848Y40620
X32848Y39620
X32848Y41620
X33848Y41620
X33848Y42620
X32848Y42620
X32848Y43620
X33848Y43620
X33848Y44620
X32848Y44620
X34848Y44620
X35848Y44620
X36848Y44620
X37848Y44620
X38848Y44620
X39848Y44620
X40848Y44620
X41848Y44620
X42848Y44620
X43848Y44620
X44848Y44620
X45848Y44620
X46848Y44620
X47848Y44620
X48848Y44620
X49848Y44620
X50848Y44620
X51848Y44620
X52848Y44620
X53848Y44620
X54848Y44620
X55848Y44620
X55848Y43620
X54848Y43620
X53848Y43620
X52848Y43620
X51848Y43620
X50848Y43620
X49848Y43620
X48848Y43620
X47848Y43620
X46848Y43620
X45848Y43620
X44848Y43620
X43848Y43620
X42848Y43620
X41848Y43620
X40848Y43620
X39848Y43620
X38848Y43620
X37848Y43620
X36848Y43620
X35848Y43620
X34848Y43620
X34848Y42620
X35848Y42620
X36848Y42620
X37848Y42620
X38848Y42620
X39848Y42620
X40848Y42620
X41848Y42620
X42848Y42620
X43848Y42620
X44848Y42620
X45848Y42620
X46848Y42620
X47848Y42620
X48848Y42620
X49848Y42620
X50848Y42620
X51848Y42620
X52848Y42620
X53848Y42620
X54848Y42620
X55848Y42620
X55848Y39620
X56848Y39620
X57848Y39620
X58848Y39620
X59848Y39620
X60848Y39620
X61848Y39620
X62848Y39620
X61848Y38620
X61848Y37620
X61848Y36620
X61848Y35620
X61848Y34620
X61848Y33620
X61848Y32620
X61848Y31620
X61848Y30620
X61848Y29620
X61848Y28620
X61848Y27620
X61848Y26620
X61848Y25620
X61848Y24620
X61848Y23620
X61848Y22620
X61848Y21620
X61848Y20620
X61848Y19620
X61848Y18620
X61848Y17620
X61848Y16620
X61848Y15620
X61848Y14620
X61848Y13620
X61848Y12620
X62848Y12620
X60848Y12620
X59848Y12620
X59848Y13620
X59848Y14620
X59848Y15620
X59848Y16620
X59848Y17620
X59848Y18620
X59848Y19620
X59848Y20620
X59848Y21620
X59848Y22620
X59848Y23620
X59848Y24620
X59848Y25620
X59848Y26620
X59848Y27620
X59848Y28620
X59848Y29620
X59848Y30620
X59848Y31620
X59848Y32620
X59848Y33620
X59848Y34620
X59848Y35620
X59848Y36620
X59848Y37620
X59848Y38620
X57848Y38620
X56848Y38620
X55848Y38620
X54848Y38620
X53848Y38620
X52848Y38620
X51848Y38620
X51848Y39620
X52848Y39620
X50848Y39620
X49848Y39620
X48848Y39620
X47848Y39620
X46848Y39620
X45848Y39620
X44848Y39620
X43848Y39620
X42848Y39620
X41848Y39620
X40848Y39620
X39848Y39620
X38848Y39620
X37848Y39620
X36848Y39620
X35848Y39620
X34848Y39620
X34848Y38620
X35848Y38620
X36848Y38620
X37848Y38620
X38848Y38620
X39848Y38620
X40848Y38620
X41848Y38620
X42848Y38620
X43848Y38620
X44848Y38620
X45848Y38620
X46848Y38620
X47848Y38620
X48848Y38620
X49848Y38620
X50848Y38620
X50848Y37620
X49848Y37620
X48848Y37620
X48848Y36620
X49848Y36620
X50848Y36620
X51848Y36620
X52848Y36620
X53848Y36620
X53848Y37620
X52848Y37620
X51848Y37620
X51848Y35620
X52848Y35620
X53848Y35620
X54848Y35620
X55848Y35620
X55848Y36620
X54848Y36620
X54848Y37620
X55848Y37620
X56848Y37620
X57848Y37620
X57848Y36620
X56848Y36620
X56848Y35620
X57848Y35620
X57848Y34620
X56848Y34620
X55848Y34620
X54848Y34620
X53848Y34620
X52848Y34620
X51848Y34620
X50848Y34620
X49848Y34620
X49848Y35620
X50848Y35620
X48848Y35620
X47848Y35620
X46848Y35620
X45848Y35620
X44848Y35620
X44848Y36620
X45848Y36620
X46848Y36620
X46848Y37620
X45848Y37620
X44848Y37620
X43848Y37620
X42848Y37620
X41848Y37620
X41848Y36620
X42848Y36620
X43848Y36620
X43848Y35620
X42848Y35620
X41848Y35620
X40848Y35620
X39848Y35620
X39848Y36620
X39848Y37620
X38848Y37620
X37848Y37620
X36848Y37620
X35848Y37620
X34848Y37620
X34848Y36620
X35848Y36620
X36848Y36620
X37848Y36620
X38848Y36620
X38848Y35620
X37848Y35620
X36848Y35620
X35848Y35620
X34848Y35620
X34848Y34620
X35848Y34620
X36848Y34620
X37848Y34620
X38848Y34620
X39848Y34620
X40848Y34620
X41848Y34620
X42848Y34620
X43848Y34620
X44848Y34620
X45848Y34620
X46848Y34620
X47848Y34620
X48848Y34620
X48848Y33620
X47848Y33620
X48848Y32620
X49848Y32620
X49848Y33620
X50848Y33620
X50848Y32620
X51848Y32620
X51848Y33620
X52848Y33620
X53848Y33620
X53848Y32620
X52848Y32620
X52848Y31620
X53848Y31620
X54848Y31620
X55848Y31620
X55848Y32620
X55848Y33620
X54848Y33620
X54848Y32620
X56848Y32620
X56848Y33620
X57848Y33620
X57848Y32620
X57848Y31620
X56848Y31620
X56848Y30620
X57848Y30620
X57848Y29620
X56848Y29620
X55848Y29620
X54848Y29620
X54848Y30620
X55848Y30620
X53848Y30620
X52848Y30620
X51848Y30620
X51848Y31620
X50848Y31620
X49848Y31620
X48848Y31620
X48848Y30620
X47848Y30620
X46848Y30620
X45848Y30620
X44848Y30620
X44848Y31620
X45848Y31620
X46848Y31620
X46848Y32620
X46848Y33620
X45848Y33620
X44848Y33620
X44848Y32620
X45848Y32620
X43848Y32620
X43848Y33620
X42848Y33620
X42848Y32620
X41848Y32620
X41848Y33620
X40848Y33620
X39848Y33620
X39848Y32620
X38848Y32620
X38848Y33620
X37848Y33620
X37848Y32620
X36848Y32620
X36848Y33620
X35848Y33620
X34848Y33620
X34848Y32620
X35848Y32620
X35848Y31620
X36848Y31620
X37848Y31620
X38848Y31620
X39848Y31620
X39848Y30620
X40848Y30620
X41848Y30620
X41848Y31620
X42848Y31620
X43848Y31620
X43848Y30620
X42848Y30620
X42848Y29620
X43848Y29620
X44848Y29620
X45848Y29620
X46848Y29620
X47848Y29620
X48848Y29620
X49848Y29620
X50848Y29620
X50848Y30620
X49848Y30620
X51848Y29620
X52848Y29620
X53848Y29620
X53848Y28620
X52848Y28620
X51848Y28620
X50848Y28620
X49848Y28620
X48848Y28620
X47848Y28620
X46848Y28620
X45848Y28620
X44848Y28620
X43848Y28620
X42848Y28620
X41848Y28620
X40848Y28620
X39848Y28620
X39848Y29620
X40848Y29620
X41848Y29620
X41848Y27620
X41848Y26620
X42848Y26620
X42848Y27620
X43848Y27620
X43848Y26620
X44848Y26620
X44848Y27620
X45848Y27620
X46848Y27620
X46848Y26620
X45848Y26620
X45848Y25620
X46848Y25620
X47848Y25620
X48848Y25620
X48848Y26620
X48848Y27620
X49848Y27620
X50848Y27620
X50848Y26620
X49848Y26620
X49848Y25620
X50848Y25620
X51848Y25620
X52848Y25620
X53848Y25620
X53848Y26620
X53848Y27620
X52848Y27620
X51848Y27620
X51848Y26620
X52848Y26620
X54848Y26620
X54848Y27620
X55848Y27620
X55848Y26620
X56848Y26620
X56848Y27620
X57848Y27620
X57848Y26620
X57848Y25620
X56848Y25620
X55848Y25620
X54848Y25620
X54848Y24620
X55848Y24620
X56848Y24620
X57848Y24620
X57848Y23620
X56848Y23620
X55848Y23620
X54848Y23620
X53848Y23620
X52848Y23620
X51848Y23620
X51848Y24620
X52848Y24620
X53848Y24620
X53848Y22620
X52848Y22620
X51848Y22620
X50848Y22620
X49848Y22620
X49848Y23620
X50848Y23620
X50848Y24620
X49848Y24620
X48848Y24620
X47848Y24620
X46848Y24620
X45848Y24620
X44848Y24620
X44848Y25620
X43848Y25620
X42848Y25620
X41848Y25620
X40848Y25620
X39848Y25620
X39848Y26620
X39848Y27620
X38848Y27620
X37848Y27620
X37848Y26620
X38848Y26620
X38848Y25620
X37848Y25620
X36848Y25620
X35848Y25620
X34848Y25620
X34848Y26620
X34848Y27620
X35848Y27620
X36848Y27620
X36848Y26620
X35848Y26620
X35848Y28620
X36848Y28620
X36848Y29620
X35848Y29620
X34848Y29620
X34848Y30620
X35848Y30620
X36848Y30620
X37848Y30620
X38848Y30620
X38848Y29620
X37848Y29620
X37848Y28620
X38848Y28620
X34848Y28620
X33848Y28620
X32848Y28620
X32848Y29620
X33848Y29620
X33848Y30620
X32848Y30620
X32848Y31620
X32848Y32620
X32848Y33620
X33848Y33620
X34848Y31620
X29848Y28620
X28848Y28620
X27848Y28620
X27848Y29620
X28848Y29620
X26848Y29620
X25848Y29620
X24848Y29620
X23848Y29620
X22848Y29620
X21848Y29620
X20848Y29620
X20848Y30620
X21848Y30620
X19848Y30620
X18848Y30620
X17848Y30620
X17848Y31620
X16848Y31620
X15848Y31620
X15848Y30620
X16848Y30620
X16848Y29620
X15848Y29620
X14848Y29620
X13848Y29620
X12848Y29620
X12848Y30620
X13848Y30620
X14848Y30620
X14848Y28620
X13848Y28620
X12848Y28620
X11848Y28620
X10848Y28620
X10848Y29620
X11848Y29620
X11848Y30620
X10848Y30620
X9848Y30620
X8848Y30620
X7848Y30620
X6848Y30620
X5848Y30620
X5848Y29620
X6848Y29620
X7848Y29620
X8848Y29620
X9848Y29620
X9848Y28620
X8848Y28620
X7848Y28620
X6848Y28620
X5848Y28620
X5848Y27620
X6848Y27620
X6848Y26620
X5848Y26620
X7848Y26620
X7848Y27620
X8848Y27620
X9848Y27620
X9848Y26620
X8848Y26620
X9848Y25620
X10848Y25620
X11848Y25620
X11848Y26620
X11848Y27620
X10848Y27620
X10848Y26620
X12848Y26620
X12848Y27620
X14848Y27620
X14848Y26620
X15848Y26620
X15848Y27620
X16848Y27620
X16848Y26620
X17848Y26620
X17848Y27620
X18848Y27620
X18848Y26620
X18848Y25620
X19848Y25620
X20848Y25620
X21848Y25620
X21848Y26620
X21848Y27620
X20848Y27620
X20848Y26620
X20848Y28620
X21848Y28620
X22848Y28620
X23848Y28620
X24848Y28620
X25848Y28620
X26848Y28620
X27848Y27620
X28848Y27620
X28848Y26620
X27848Y26620
X27848Y25620
X28848Y25620
X28848Y24620
X27848Y24620
X26848Y24620
X25848Y24620
X24848Y24620
X24848Y25620
X25848Y25620
X26848Y25620
X25848Y26620
X25848Y27620
X24848Y27620
X24848Y26620
X23848Y26620
X23848Y27620
X22848Y27620
X22848Y26620
X22848Y25620
X23848Y25620
X23848Y24620
X22848Y24620
X21848Y24620
X20848Y24620
X19848Y24620
X18848Y24620
X17848Y24620
X17848Y25620
X16848Y25620
X15848Y25620
X14848Y25620
X13848Y25620
X12848Y25620
X12848Y24620
X13848Y24620
X14848Y24620
X15848Y24620
X16848Y24620
X16848Y23620
X15848Y23620
X14848Y23620
X13848Y23620
X12848Y23620
X11848Y23620
X10848Y23620
X10848Y24620
X11848Y24620
X9848Y24620
X9848Y23620
X9848Y22620
X10848Y22620
X11848Y22620
X12848Y22620
X13848Y22620
X14848Y22620
X15848Y22620
X16848Y22620
X17848Y22620
X18848Y22620
X19848Y22620
X19848Y23620
X18848Y23620
X17848Y23620
X17848Y21620
X18848Y21620
X19848Y21620
X19848Y20620
X18848Y20620
X17848Y20620
X16848Y20620
X16848Y21620
X15848Y21620
X15848Y20620
X14848Y20620
X14848Y21620
X13848Y21620
X12848Y21620
X12848Y20620
X13848Y20620
X13848Y19620
X14848Y19620
X15848Y19620
X16848Y19620
X17848Y19620
X18848Y19620
X19848Y19620
X20848Y19620
X21848Y19620
X21848Y20620
X21848Y21620
X20848Y21620
X20848Y20620
X20848Y22620
X21848Y22620
X21848Y23620
X20848Y23620
X22848Y23620
X23848Y23620
X24848Y23620
X25848Y23620
X26848Y23620
X27848Y23620
X28848Y23620
X28848Y22620
X27848Y22620
X27848Y21620
X28848Y21620
X28848Y20620
X27848Y20620
X26848Y20620
X25848Y20620
X25848Y21620
X24848Y21620
X24848Y20620
X23848Y20620
X23848Y21620
X22848Y21620
X22848Y20620
X22848Y19620
X23848Y19620
X24848Y19620
X25848Y19620
X26848Y19620
X27848Y19620
X28848Y19620
X28848Y18620
X27848Y18620
X26848Y18620
X25848Y18620
X24848Y18620
X23848Y18620
X22848Y18620
X21848Y18620
X20848Y18620
X19848Y18620
X18848Y18620
X17848Y18620
X16848Y18620
X15848Y18620
X14848Y18620
X13848Y18620
X12848Y18620
X12848Y19620
X11848Y19620
X10848Y19620
X10848Y20620
X10848Y21620
X11848Y21620
X11848Y20620
X9848Y20620
X9848Y21620
X9848Y19620
X9848Y18620
X10848Y18620
X11848Y18620
X11848Y17620
X10848Y17620
X9848Y17620
X9848Y16620
X10848Y16620
X11848Y16620
X12848Y16620
X12848Y17620
X14848Y17620
X15848Y17620
X16848Y17620
X17848Y17620
X18848Y17620
X18848Y16620
X17848Y16620
X16848Y16620
X15848Y16620
X14848Y16620
X14848Y15620
X13848Y15620
X12848Y15620
X11848Y15620
X10848Y15620
X9848Y15620
X9848Y14620
X10848Y14620
X11848Y14620
X12848Y14620
X13848Y14620
X14848Y14620
X15848Y14620
X16848Y14620
X16848Y15620
X15848Y15620
X17848Y15620
X18848Y15620
X19848Y15620
X20848Y15620
X21848Y15620
X21848Y16620
X20848Y16620
X20848Y17620
X21848Y17620
X22848Y17620
X23848Y17620
X24848Y17620
X25848Y17620
X25848Y16620
X24848Y16620
X23848Y16620
X22848Y16620
X22848Y15620
X23848Y15620
X24848Y15620
X25848Y15620
X26848Y15620
X27848Y15620
X28848Y15620
X28848Y16620
X27848Y16620
X27848Y17620
X28848Y17620
X29848Y15620
X28848Y14620
X27848Y14620
X26848Y14620
X25848Y14620
X24848Y14620
X23848Y14620
X22848Y14620
X21848Y14620
X20848Y14620
X19848Y14620
X18848Y14620
X17848Y14620
X17848Y10620
X18848Y10620
X19848Y10620
X20848Y10620
X21848Y10620
X22848Y10620
X23848Y10620
X24848Y10620
X25848Y10620
X26848Y10620
X27848Y10620
X28848Y10620
X29848Y10620
X30848Y10620
X31848Y10620
X32848Y10620
X33848Y10620
X33848Y11620
X32848Y11620
X32848Y12620
X33848Y12620
X33848Y13620
X33848Y14620
X32848Y14620
X32848Y13620
X32848Y15620
X33848Y15620
X34848Y15620
X35848Y15620
X36848Y15620
X36848Y16620
X35848Y16620
X34848Y16620
X34848Y17620
X35848Y17620
X36848Y17620
X36848Y18620
X35848Y18620
X34848Y18620
X34848Y19620
X35848Y19620
X36848Y19620
X36848Y20620
X36848Y21620
X35848Y21620
X34848Y21620
X34848Y20620
X35848Y20620
X35848Y22620
X36848Y22620
X36848Y23620
X35848Y23620
X34848Y23620
X34848Y24620
X35848Y24620
X36848Y24620
X37848Y24620
X38848Y24620
X39848Y24620
X40848Y24620
X41848Y24620
X42848Y24620
X43848Y24620
X43848Y23620
X42848Y23620
X41848Y23620
X40848Y23620
X39848Y23620
X38848Y23620
X37848Y23620
X37848Y22620
X38848Y22620
X39848Y22620
X39848Y21620
X39848Y20620
X40848Y20620
X41848Y20620
X41848Y21620
X41848Y22620
X42848Y22620
X43848Y22620
X44848Y22620
X45848Y22620
X46848Y22620
X46848Y23620
X45848Y23620
X44848Y23620
X44848Y21620
X45848Y21620
X46848Y21620
X46848Y20620
X45848Y20620
X44848Y20620
X43848Y20620
X43848Y21620
X42848Y21620
X42848Y20620
X42848Y19620
X43848Y19620
X44848Y19620
X45848Y19620
X46848Y19620
X47848Y19620
X48848Y19620
X48848Y20620
X48848Y21620
X47848Y20620
X49848Y20620
X49848Y21620
X50848Y21620
X50848Y20620
X51848Y20620
X51848Y21620
X52848Y21620
X53848Y21620
X53848Y20620
X52848Y20620
X52848Y19620
X53848Y19620
X54848Y19620
X55848Y19620
X55848Y20620
X55848Y21620
X54848Y21620
X54848Y20620
X54848Y22620
X55848Y22620
X56848Y22620
X57848Y22620
X57848Y21620
X56848Y21620
X56848Y20620
X57848Y20620
X57848Y19620
X56848Y19620
X56848Y18620
X57848Y18620
X57848Y17620
X56848Y17620
X55848Y17620
X54848Y17620
X54848Y18620
X55848Y18620
X53848Y18620
X52848Y18620
X51848Y18620
X51848Y19620
X50848Y19620
X49848Y19620
X49848Y18620
X50848Y18620
X50848Y17620
X49848Y17620
X48848Y17620
X48848Y18620
X47848Y18620
X46848Y18620
X45848Y18620
X44848Y18620
X43848Y18620
X42848Y18620
X41848Y18620
X40848Y18620
X39848Y18620
X39848Y19620
X40848Y19620
X41848Y19620
X41848Y17620
X42848Y17620
X43848Y17620
X44848Y17620
X45848Y17620
X46848Y17620
X46848Y16620
X45848Y16620
X44848Y16620
X43848Y16620
X42848Y16620
X41848Y16620
X41848Y15620
X40848Y15620
X39848Y15620
X39848Y16620
X39848Y17620
X38848Y17620
X37848Y17620
X37848Y18620
X38848Y18620
X38848Y19620
X37848Y19620
X37848Y20620
X37848Y21620
X38848Y21620
X38848Y20620
X34848Y22620
X33848Y23620
X32848Y23620
X32848Y24620
X33848Y24620
X33848Y25620
X32848Y25620
X32848Y26620
X32848Y27620
X32848Y22620
X32848Y21620
X32848Y20620
X33848Y20620
X33848Y19620
X32848Y19620
X32848Y18620
X33848Y18620
X32848Y17620
X32848Y16620
X34848Y14620
X35848Y14620
X36848Y14620
X36848Y13620
X35848Y13620
X34848Y13620
X37848Y13620
X37848Y14620
X38848Y14620
X38848Y13620
X39848Y13620
X39848Y14620
X40848Y14620
X41848Y14620
X41848Y13620
X40848Y13620
X42848Y13620
X42848Y14620
X43848Y14620
X43848Y13620
X44848Y13620
X44848Y14620
X45848Y14620
X46848Y14620
X46848Y15620
X45848Y15620
X44848Y15620
X43848Y15620
X42848Y15620
X38848Y15620
X37848Y15620
X37848Y16620
X38848Y16620
X29848Y22620
X25848Y22620
X24848Y22620
X23848Y22620
X22848Y22620
X19848Y28620
X18848Y28620
X17848Y28620
X17848Y29620
X18848Y29620
X19848Y29620
X16848Y28620
X15848Y28620
X8738Y33840
X6958Y33840
X29848Y41620
X47848Y23620
X48848Y23620
X48848Y22620
X51848Y17620
X52848Y17620
X53848Y17620
X53848Y16620
X52848Y16620
X51848Y16620
X50848Y16620
X49848Y16620
X48848Y16620
X48848Y15620
X47848Y15620
X49848Y15620
X50848Y15620
X51848Y15620
X52848Y15620
X53848Y15620
X54848Y15620
X55848Y15620
X55848Y16620
X54848Y16620
X56848Y16620
X57848Y16620
X57848Y15620
X56848Y15620
X56848Y14620
X57848Y14620
X57848Y13620
X56848Y13620
X55848Y13620
X55848Y14620
X54848Y14620
X54848Y13620
X53848Y13620
X53848Y14620
X55848Y12620
X56848Y12620
X57848Y12620
X58848Y12620
X56848Y10620
X55848Y9620
X54848Y9620
X53848Y9620
X52848Y9620
X51848Y9620
X50848Y9620
X49848Y9620
X48848Y9620
X47848Y9620
X46848Y9620
X45848Y9620
X44848Y9620
X43848Y9620
X42848Y9620
X41848Y9620
X40848Y9620
X39848Y9620
X38848Y9620
X37848Y9620
X36848Y9620
X35848Y9620
X34848Y9620
X33848Y9620
X32848Y9620
X31848Y9620
X30848Y9620
X29848Y9620
X28848Y9620
X27848Y9620
X26848Y9620
X25848Y9620
X24848Y9620
X23848Y9620
X22848Y9620
X21848Y9620
X20848Y9620
X19848Y9620
X18848Y9620
X17848Y9620
X16848Y9620
X15848Y9620
X15848Y10620
X16848Y10620
X14848Y10620
X13848Y10620
X12848Y10620
X11848Y10620
X10848Y10620
X10848Y9620
X11848Y9620
X12848Y9620
X13848Y9620
X14848Y9620
X8848Y12620
X54848Y28620
X55848Y28620
X56848Y28620
X57848Y28620
T06
X66848Y44620
X66848Y9620
T07
X62598Y10120
X62598Y44370
X6348Y44370
X6348Y10120
M30
