%
M48
M72
T01C0.0120
T02C0.0320
T03C0.0354
T04C0.0360
T05C0.0394
T06C0.0400
T07C0.1100
T08C0.1181
T09C0.1299
T10C0.1300
%
T01
X10248Y15970
X14848Y16620
X15598Y16120
X14348Y18620
X13848Y24620
X13348Y25120
X12848Y25870
X12348Y26870
X10348Y24520
X16298Y31620
X17598Y31920
X20598Y32420
X22498Y34020
X22498Y34970
X22498Y35870
X22498Y36770
X24848Y35120
X26398Y35420
X26598Y34770
X27948Y35120
X28348Y36870
X27598Y37620
X25948Y36270
X24348Y40120
X23348Y40120
X21098Y40370
X20598Y40870
X19598Y39870
X16098Y39870
X15598Y40370
X15098Y40870
X14598Y41620
X13848Y42620
X13598Y43620
X13098Y44370
X18255Y43370
X18570Y43870
X26098Y43870
X31848Y38770
X32848Y39220
X33848Y39620
X37848Y33820
X36348Y33170
X40032Y30789
X41093Y29728
X41517Y30365
X42259Y31107
X43567Y32203
X44381Y33087
X46042Y32910
X46573Y32521
X46930Y31673
X48588Y30506
X49224Y29728
X49224Y27819
X48517Y27253
X47457Y26193
X46749Y25344
X46042Y24779
X45598Y24370
X44848Y24620
X44598Y24370
X43780Y25132
X43567Y25486
X42848Y26870
X42330Y26582
X41800Y27253
X41022Y27819
X43567Y27607
X46396Y27253
X46749Y30082
X43921Y30435
X41348Y25270
X44848Y23120
X50848Y19870
X53948Y20020
X54598Y18870
X54348Y18620
X54098Y18370
X53848Y18120
X50748Y16770
X49098Y16370
X47098Y17870
X46098Y17370
X48098Y12620
X58098Y19320
X61798Y22020
X61748Y22970
X60348Y24120
X62598Y27120
X62848Y30620
X62098Y30620
X60098Y33620
X61598Y34620
X62098Y35620
X60298Y35870
X57848Y35620
X57598Y34370
X57848Y30870
X53598Y30570
X50598Y38620
X50098Y38620
X49598Y38620
X49098Y38620
X48598Y38620
X48098Y38620
X47598Y38620
X47848Y39120
X48348Y39120
X48848Y39120
X49348Y39120
X49848Y39120
X50348Y39120
X50848Y39120
X51098Y39620
X50598Y39620
X50098Y39620
X49598Y39620
X49098Y39620
X49348Y40120
X49848Y40120
X50348Y40120
X50848Y40120
X51098Y40620
X50598Y40620
X50098Y40620
X49598Y40620
X49098Y40620
X49348Y41120
X49848Y41120
X50348Y41120
X50848Y41120
X48848Y40120
X47348Y39120
X59348Y39370
X62148Y38620
X38161Y21829
X38248Y21220
X36598Y20370
X36848Y19620
X34625Y21829
X36393Y23597
X36039Y23950
X20598Y30120
X8098Y38870
X7598Y39620
T02
X23598Y41720
X23598Y42520
X40198Y42120
X40998Y42120
X42448Y42120
X43248Y42120
X44298Y36870
X45098Y36870
X50073Y41870
X50873Y41870
X52898Y41870
X53898Y41870
X55098Y41870
X56098Y41870
X57348Y41870
X58348Y41870
X59898Y41870
X61298Y41870
X53748Y28870
X52948Y28870
X35748Y28870
X34948Y28870
X34373Y17620
X33573Y17620
X10873Y20245
X10073Y20245
X10073Y11620
X10873Y11620
X59598Y12120
X60598Y12120
T03
X10348Y34540
X9348Y34090
X9348Y34990
X10348Y35440
X9348Y35890
X9348Y36790
X10348Y36340
X10348Y37240
X9348Y37690
X10348Y38140
X8348Y38140
X8348Y37240
X8348Y36340
X8348Y35440
X8348Y34540
T04
X18098Y10620
X42098Y40120
X56098Y30620
X56848Y35870
X63848Y35620
X63848Y36620
X63848Y37620
X63848Y38620
X63848Y39620
X63848Y40620
X63848Y41620
X63848Y42620
X64848Y42620
X65848Y42620
X65848Y41620
X64848Y41620
X64848Y40620
X65848Y40620
X65848Y39620
X64848Y39620
X64848Y38620
X65848Y38620
X65848Y37620
X64848Y37620
X64848Y36620
X65848Y36620
X65848Y35620
X64848Y35620
X64848Y34620
X65848Y34620
X65848Y33620
X64848Y33620
X64848Y32620
X65848Y32620
X65848Y31620
X64848Y31620
X63848Y31620
X63848Y32620
X63848Y33620
X63848Y34620
X63848Y30620
X64848Y30620
X65848Y30620
X65848Y29620
X64848Y29620
X63848Y29620
X63848Y28620
X64848Y28620
X65848Y28620
X65848Y27620
X64848Y27620
X64848Y26620
X65848Y26620
X65848Y25620
X64848Y25620
X63848Y25620
X63848Y26620
X63848Y27620
X63848Y24620
X64848Y24620
X65848Y24620
X65848Y23620
X64848Y23620
X63848Y23620
X63848Y22620
X64848Y22620
X65848Y22620
X65848Y21620
X64848Y21620
X64848Y20620
X65848Y20620
X65848Y19620
X64848Y19620
X63848Y19620
X63848Y20620
X63848Y21620
X63848Y18620
X64848Y18620
X65848Y18620
X65848Y17620
X64848Y17620
X63848Y17620
X63848Y16620
X64848Y16620
X65848Y16620
X65848Y15620
X64848Y15620
X63848Y15620
X63848Y14620
X63848Y13620
X64848Y13620
X64848Y14620
X65848Y14620
X65848Y13620
X65848Y12620
X64848Y12620
X63848Y12620
X63848Y11620
X64848Y11620
X65848Y11620
T05
X54348Y11370
X53348Y11370
X53348Y12370
X54348Y12370
X52348Y12370
X51348Y12370
X50348Y12370
X50348Y11370
X51348Y11370
X52348Y11370
X9184Y14781
X9203Y15608
X8219Y15608
X8219Y14781
X8219Y16631
X9203Y16474
X9203Y17458
X8219Y17458
X8199Y23031
X8199Y23858
X9164Y23031
X8199Y24881
X8199Y25708
X9184Y25708
T06
X17598Y41620
X17598Y42620
X18598Y42620
X19598Y42620
X20598Y42620
X21598Y42620
X21598Y41620
X20598Y41620
X19598Y41620
X18598Y41620
X28848Y41620
X28848Y42620
X29848Y42620
X30848Y42620
X31848Y42620
X32848Y42620
X33848Y42620
X33848Y41620
X32848Y41620
X31848Y41620
X30848Y41620
X29848Y41620
X59348Y29120
X60348Y29120
X60348Y28120
X60348Y27120
X59348Y27120
X59348Y28120
X59348Y26120
X60348Y26120
T07
X66848Y9620
X66848Y44620
T08
X9348Y41166
X9348Y31323
T09
X7018Y27047
X6703Y24370
X7018Y21712
X7038Y18797
X6723Y16120
X7038Y13462
T10
X6348Y10120
X6348Y44370
X62598Y44370
X62598Y10120
M30
