G75*
G70*
%OFA0B0*%
%FSLAX24Y24*%
%IPPOS*%
%LPD*%
%AMOC8*
5,1,8,0,0,1.08239X$1,22.5*
%
%ADD10R,0.0670X0.0827*%
%ADD11R,0.0552X0.0670*%
%ADD12OC8,0.0640*%
%ADD13R,0.0552X0.0631*%
%ADD14C,0.0000*%
%ADD15C,0.1221*%
%ADD16C,0.0594*%
%ADD17OC8,0.0594*%
%ADD18OC8,0.0670*%
%ADD19C,0.0670*%
%ADD20R,0.0430X0.0160*%
%ADD21OC8,0.0560*%
%ADD22C,0.0560*%
%ADD23R,0.0146X0.0631*%
%ADD24R,0.0631X0.0146*%
%ADD25C,0.0634*%
%ADD26R,0.0290X0.1040*%
%ADD27C,0.1739*%
%ADD28OC8,0.0634*%
%ADD29R,0.0160X0.0430*%
%ADD30R,0.0670X0.0552*%
%ADD31R,0.0276X0.0906*%
%ADD32R,0.0631X0.0552*%
%ADD33R,0.0236X0.0394*%
%ADD34C,0.1140*%
%ADD35C,0.1340*%
%ADD36R,0.0512X0.0512*%
%ADD37R,0.0316X0.0197*%
%ADD38R,0.0490X0.0190*%
D10*
X051057Y017789D03*
X052041Y017789D03*
X052041Y018901D03*
X051057Y018901D03*
D11*
X051204Y016745D03*
X051992Y016745D03*
X060454Y022995D03*
X061242Y022995D03*
X061117Y034620D03*
X060329Y034620D03*
X059954Y039370D03*
X060742Y039370D03*
X023992Y036620D03*
X023992Y035870D03*
X023204Y035870D03*
X023204Y036620D03*
X023204Y035120D03*
X023204Y034370D03*
X023992Y034370D03*
X023992Y035120D03*
X023992Y033620D03*
X023204Y033620D03*
D12*
X021598Y041620D03*
X020598Y041620D03*
X020598Y042620D03*
X021598Y042620D03*
X019598Y042620D03*
X018598Y042620D03*
X017598Y042620D03*
X017598Y041620D03*
X018598Y041620D03*
X019598Y041620D03*
X028848Y041620D03*
X028848Y042620D03*
X029848Y042620D03*
X030848Y042620D03*
X031848Y042620D03*
X032848Y042620D03*
X033848Y042620D03*
X033848Y041620D03*
X032848Y041620D03*
X031848Y041620D03*
X030848Y041620D03*
X029848Y041620D03*
X059348Y029120D03*
X060348Y029120D03*
X060348Y028120D03*
X060348Y027120D03*
X059348Y027120D03*
X059348Y028120D03*
X059348Y026120D03*
X060348Y026120D03*
D13*
G36*
X052307Y021216D02*
X051917Y021606D01*
X052361Y022050D01*
X052751Y021660D01*
X052307Y021216D01*
G37*
G36*
X051834Y021689D02*
X051444Y022079D01*
X051888Y022523D01*
X052278Y022133D01*
X051834Y021689D01*
G37*
X038472Y035870D03*
X037724Y035870D03*
X036722Y035870D03*
X035974Y035870D03*
X035974Y036670D03*
X036722Y036670D03*
X036722Y037720D03*
X035974Y037720D03*
X035974Y038520D03*
X036722Y038520D03*
X036722Y039570D03*
X035974Y039570D03*
X035974Y040370D03*
X036722Y040370D03*
X037724Y039570D03*
X038472Y039570D03*
X038472Y037720D03*
X037724Y037720D03*
D14*
X004848Y046810D02*
X004848Y007430D01*
X067948Y007430D01*
X067948Y046810D01*
X004848Y046810D01*
X005698Y044370D02*
X005700Y044420D01*
X005706Y044470D01*
X005716Y044520D01*
X005729Y044568D01*
X005746Y044616D01*
X005767Y044662D01*
X005791Y044706D01*
X005819Y044748D01*
X005850Y044788D01*
X005884Y044825D01*
X005921Y044860D01*
X005960Y044891D01*
X006001Y044920D01*
X006045Y044945D01*
X006091Y044967D01*
X006138Y044985D01*
X006186Y044999D01*
X006235Y045010D01*
X006285Y045017D01*
X006335Y045020D01*
X006386Y045019D01*
X006436Y045014D01*
X006486Y045005D01*
X006534Y044993D01*
X006582Y044976D01*
X006628Y044956D01*
X006673Y044933D01*
X006716Y044906D01*
X006756Y044876D01*
X006794Y044843D01*
X006829Y044807D01*
X006862Y044768D01*
X006891Y044727D01*
X006917Y044684D01*
X006940Y044639D01*
X006959Y044592D01*
X006974Y044544D01*
X006986Y044495D01*
X006994Y044445D01*
X006998Y044395D01*
X006998Y044345D01*
X006994Y044295D01*
X006986Y044245D01*
X006974Y044196D01*
X006959Y044148D01*
X006940Y044101D01*
X006917Y044056D01*
X006891Y044013D01*
X006862Y043972D01*
X006829Y043933D01*
X006794Y043897D01*
X006756Y043864D01*
X006716Y043834D01*
X006673Y043807D01*
X006628Y043784D01*
X006582Y043764D01*
X006534Y043747D01*
X006486Y043735D01*
X006436Y043726D01*
X006386Y043721D01*
X006335Y043720D01*
X006285Y043723D01*
X006235Y043730D01*
X006186Y043741D01*
X006138Y043755D01*
X006091Y043773D01*
X006045Y043795D01*
X006001Y043820D01*
X005960Y043849D01*
X005921Y043880D01*
X005884Y043915D01*
X005850Y043952D01*
X005819Y043992D01*
X005791Y044034D01*
X005767Y044078D01*
X005746Y044124D01*
X005729Y044172D01*
X005716Y044220D01*
X005706Y044270D01*
X005700Y044320D01*
X005698Y044370D01*
X008757Y041166D02*
X008759Y041214D01*
X008765Y041262D01*
X008775Y041309D01*
X008788Y041355D01*
X008806Y041400D01*
X008826Y041444D01*
X008851Y041486D01*
X008879Y041525D01*
X008909Y041562D01*
X008943Y041596D01*
X008980Y041628D01*
X009018Y041657D01*
X009059Y041682D01*
X009102Y041704D01*
X009147Y041722D01*
X009193Y041736D01*
X009240Y041747D01*
X009288Y041754D01*
X009336Y041757D01*
X009384Y041756D01*
X009432Y041751D01*
X009480Y041742D01*
X009526Y041730D01*
X009571Y041713D01*
X009615Y041693D01*
X009657Y041670D01*
X009697Y041643D01*
X009735Y041613D01*
X009770Y041580D01*
X009802Y041544D01*
X009832Y041506D01*
X009858Y041465D01*
X009880Y041422D01*
X009900Y041378D01*
X009915Y041333D01*
X009927Y041286D01*
X009935Y041238D01*
X009939Y041190D01*
X009939Y041142D01*
X009935Y041094D01*
X009927Y041046D01*
X009915Y040999D01*
X009900Y040954D01*
X009880Y040910D01*
X009858Y040867D01*
X009832Y040826D01*
X009802Y040788D01*
X009770Y040752D01*
X009735Y040719D01*
X009697Y040689D01*
X009657Y040662D01*
X009615Y040639D01*
X009571Y040619D01*
X009526Y040602D01*
X009480Y040590D01*
X009432Y040581D01*
X009384Y040576D01*
X009336Y040575D01*
X009288Y040578D01*
X009240Y040585D01*
X009193Y040596D01*
X009147Y040610D01*
X009102Y040628D01*
X009059Y040650D01*
X009018Y040675D01*
X008980Y040704D01*
X008943Y040736D01*
X008909Y040770D01*
X008879Y040807D01*
X008851Y040846D01*
X008826Y040888D01*
X008806Y040932D01*
X008788Y040977D01*
X008775Y041023D01*
X008765Y041070D01*
X008759Y041118D01*
X008757Y041166D01*
X008757Y031323D02*
X008759Y031371D01*
X008765Y031419D01*
X008775Y031466D01*
X008788Y031512D01*
X008806Y031557D01*
X008826Y031601D01*
X008851Y031643D01*
X008879Y031682D01*
X008909Y031719D01*
X008943Y031753D01*
X008980Y031785D01*
X009018Y031814D01*
X009059Y031839D01*
X009102Y031861D01*
X009147Y031879D01*
X009193Y031893D01*
X009240Y031904D01*
X009288Y031911D01*
X009336Y031914D01*
X009384Y031913D01*
X009432Y031908D01*
X009480Y031899D01*
X009526Y031887D01*
X009571Y031870D01*
X009615Y031850D01*
X009657Y031827D01*
X009697Y031800D01*
X009735Y031770D01*
X009770Y031737D01*
X009802Y031701D01*
X009832Y031663D01*
X009858Y031622D01*
X009880Y031579D01*
X009900Y031535D01*
X009915Y031490D01*
X009927Y031443D01*
X009935Y031395D01*
X009939Y031347D01*
X009939Y031299D01*
X009935Y031251D01*
X009927Y031203D01*
X009915Y031156D01*
X009900Y031111D01*
X009880Y031067D01*
X009858Y031024D01*
X009832Y030983D01*
X009802Y030945D01*
X009770Y030909D01*
X009735Y030876D01*
X009697Y030846D01*
X009657Y030819D01*
X009615Y030796D01*
X009571Y030776D01*
X009526Y030759D01*
X009480Y030747D01*
X009432Y030738D01*
X009384Y030733D01*
X009336Y030732D01*
X009288Y030735D01*
X009240Y030742D01*
X009193Y030753D01*
X009147Y030767D01*
X009102Y030785D01*
X009059Y030807D01*
X009018Y030832D01*
X008980Y030861D01*
X008943Y030893D01*
X008909Y030927D01*
X008879Y030964D01*
X008851Y031003D01*
X008826Y031045D01*
X008806Y031089D01*
X008788Y031134D01*
X008775Y031180D01*
X008765Y031227D01*
X008759Y031275D01*
X008757Y031323D01*
X005698Y010120D02*
X005700Y010170D01*
X005706Y010220D01*
X005716Y010270D01*
X005729Y010318D01*
X005746Y010366D01*
X005767Y010412D01*
X005791Y010456D01*
X005819Y010498D01*
X005850Y010538D01*
X005884Y010575D01*
X005921Y010610D01*
X005960Y010641D01*
X006001Y010670D01*
X006045Y010695D01*
X006091Y010717D01*
X006138Y010735D01*
X006186Y010749D01*
X006235Y010760D01*
X006285Y010767D01*
X006335Y010770D01*
X006386Y010769D01*
X006436Y010764D01*
X006486Y010755D01*
X006534Y010743D01*
X006582Y010726D01*
X006628Y010706D01*
X006673Y010683D01*
X006716Y010656D01*
X006756Y010626D01*
X006794Y010593D01*
X006829Y010557D01*
X006862Y010518D01*
X006891Y010477D01*
X006917Y010434D01*
X006940Y010389D01*
X006959Y010342D01*
X006974Y010294D01*
X006986Y010245D01*
X006994Y010195D01*
X006998Y010145D01*
X006998Y010095D01*
X006994Y010045D01*
X006986Y009995D01*
X006974Y009946D01*
X006959Y009898D01*
X006940Y009851D01*
X006917Y009806D01*
X006891Y009763D01*
X006862Y009722D01*
X006829Y009683D01*
X006794Y009647D01*
X006756Y009614D01*
X006716Y009584D01*
X006673Y009557D01*
X006628Y009534D01*
X006582Y009514D01*
X006534Y009497D01*
X006486Y009485D01*
X006436Y009476D01*
X006386Y009471D01*
X006335Y009470D01*
X006285Y009473D01*
X006235Y009480D01*
X006186Y009491D01*
X006138Y009505D01*
X006091Y009523D01*
X006045Y009545D01*
X006001Y009570D01*
X005960Y009599D01*
X005921Y009630D01*
X005884Y009665D01*
X005850Y009702D01*
X005819Y009742D01*
X005791Y009784D01*
X005767Y009828D01*
X005746Y009874D01*
X005729Y009922D01*
X005716Y009970D01*
X005706Y010020D01*
X005700Y010070D01*
X005698Y010120D01*
X061948Y010120D02*
X061950Y010170D01*
X061956Y010220D01*
X061966Y010270D01*
X061979Y010318D01*
X061996Y010366D01*
X062017Y010412D01*
X062041Y010456D01*
X062069Y010498D01*
X062100Y010538D01*
X062134Y010575D01*
X062171Y010610D01*
X062210Y010641D01*
X062251Y010670D01*
X062295Y010695D01*
X062341Y010717D01*
X062388Y010735D01*
X062436Y010749D01*
X062485Y010760D01*
X062535Y010767D01*
X062585Y010770D01*
X062636Y010769D01*
X062686Y010764D01*
X062736Y010755D01*
X062784Y010743D01*
X062832Y010726D01*
X062878Y010706D01*
X062923Y010683D01*
X062966Y010656D01*
X063006Y010626D01*
X063044Y010593D01*
X063079Y010557D01*
X063112Y010518D01*
X063141Y010477D01*
X063167Y010434D01*
X063190Y010389D01*
X063209Y010342D01*
X063224Y010294D01*
X063236Y010245D01*
X063244Y010195D01*
X063248Y010145D01*
X063248Y010095D01*
X063244Y010045D01*
X063236Y009995D01*
X063224Y009946D01*
X063209Y009898D01*
X063190Y009851D01*
X063167Y009806D01*
X063141Y009763D01*
X063112Y009722D01*
X063079Y009683D01*
X063044Y009647D01*
X063006Y009614D01*
X062966Y009584D01*
X062923Y009557D01*
X062878Y009534D01*
X062832Y009514D01*
X062784Y009497D01*
X062736Y009485D01*
X062686Y009476D01*
X062636Y009471D01*
X062585Y009470D01*
X062535Y009473D01*
X062485Y009480D01*
X062436Y009491D01*
X062388Y009505D01*
X062341Y009523D01*
X062295Y009545D01*
X062251Y009570D01*
X062210Y009599D01*
X062171Y009630D01*
X062134Y009665D01*
X062100Y009702D01*
X062069Y009742D01*
X062041Y009784D01*
X062017Y009828D01*
X061996Y009874D01*
X061979Y009922D01*
X061966Y009970D01*
X061956Y010020D01*
X061950Y010070D01*
X061948Y010120D01*
X066298Y009620D02*
X066300Y009667D01*
X066306Y009713D01*
X066316Y009759D01*
X066329Y009803D01*
X066347Y009847D01*
X066368Y009888D01*
X066392Y009928D01*
X066420Y009966D01*
X066451Y010001D01*
X066485Y010033D01*
X066521Y010062D01*
X066560Y010088D01*
X066600Y010111D01*
X066643Y010130D01*
X066687Y010146D01*
X066732Y010158D01*
X066778Y010166D01*
X066825Y010170D01*
X066871Y010170D01*
X066918Y010166D01*
X066964Y010158D01*
X067009Y010146D01*
X067053Y010130D01*
X067096Y010111D01*
X067136Y010088D01*
X067175Y010062D01*
X067211Y010033D01*
X067245Y010001D01*
X067276Y009966D01*
X067304Y009928D01*
X067328Y009888D01*
X067349Y009847D01*
X067367Y009803D01*
X067380Y009759D01*
X067390Y009713D01*
X067396Y009667D01*
X067398Y009620D01*
X067396Y009573D01*
X067390Y009527D01*
X067380Y009481D01*
X067367Y009437D01*
X067349Y009393D01*
X067328Y009352D01*
X067304Y009312D01*
X067276Y009274D01*
X067245Y009239D01*
X067211Y009207D01*
X067175Y009178D01*
X067136Y009152D01*
X067096Y009129D01*
X067053Y009110D01*
X067009Y009094D01*
X066964Y009082D01*
X066918Y009074D01*
X066871Y009070D01*
X066825Y009070D01*
X066778Y009074D01*
X066732Y009082D01*
X066687Y009094D01*
X066643Y009110D01*
X066600Y009129D01*
X066560Y009152D01*
X066521Y009178D01*
X066485Y009207D01*
X066451Y009239D01*
X066420Y009274D01*
X066392Y009312D01*
X066368Y009352D01*
X066347Y009393D01*
X066329Y009437D01*
X066316Y009481D01*
X066306Y009527D01*
X066300Y009573D01*
X066298Y009620D01*
X061948Y044370D02*
X061950Y044420D01*
X061956Y044470D01*
X061966Y044520D01*
X061979Y044568D01*
X061996Y044616D01*
X062017Y044662D01*
X062041Y044706D01*
X062069Y044748D01*
X062100Y044788D01*
X062134Y044825D01*
X062171Y044860D01*
X062210Y044891D01*
X062251Y044920D01*
X062295Y044945D01*
X062341Y044967D01*
X062388Y044985D01*
X062436Y044999D01*
X062485Y045010D01*
X062535Y045017D01*
X062585Y045020D01*
X062636Y045019D01*
X062686Y045014D01*
X062736Y045005D01*
X062784Y044993D01*
X062832Y044976D01*
X062878Y044956D01*
X062923Y044933D01*
X062966Y044906D01*
X063006Y044876D01*
X063044Y044843D01*
X063079Y044807D01*
X063112Y044768D01*
X063141Y044727D01*
X063167Y044684D01*
X063190Y044639D01*
X063209Y044592D01*
X063224Y044544D01*
X063236Y044495D01*
X063244Y044445D01*
X063248Y044395D01*
X063248Y044345D01*
X063244Y044295D01*
X063236Y044245D01*
X063224Y044196D01*
X063209Y044148D01*
X063190Y044101D01*
X063167Y044056D01*
X063141Y044013D01*
X063112Y043972D01*
X063079Y043933D01*
X063044Y043897D01*
X063006Y043864D01*
X062966Y043834D01*
X062923Y043807D01*
X062878Y043784D01*
X062832Y043764D01*
X062784Y043747D01*
X062736Y043735D01*
X062686Y043726D01*
X062636Y043721D01*
X062585Y043720D01*
X062535Y043723D01*
X062485Y043730D01*
X062436Y043741D01*
X062388Y043755D01*
X062341Y043773D01*
X062295Y043795D01*
X062251Y043820D01*
X062210Y043849D01*
X062171Y043880D01*
X062134Y043915D01*
X062100Y043952D01*
X062069Y043992D01*
X062041Y044034D01*
X062017Y044078D01*
X061996Y044124D01*
X061979Y044172D01*
X061966Y044220D01*
X061956Y044270D01*
X061950Y044320D01*
X061948Y044370D01*
X066298Y044620D02*
X066300Y044667D01*
X066306Y044713D01*
X066316Y044759D01*
X066329Y044803D01*
X066347Y044847D01*
X066368Y044888D01*
X066392Y044928D01*
X066420Y044966D01*
X066451Y045001D01*
X066485Y045033D01*
X066521Y045062D01*
X066560Y045088D01*
X066600Y045111D01*
X066643Y045130D01*
X066687Y045146D01*
X066732Y045158D01*
X066778Y045166D01*
X066825Y045170D01*
X066871Y045170D01*
X066918Y045166D01*
X066964Y045158D01*
X067009Y045146D01*
X067053Y045130D01*
X067096Y045111D01*
X067136Y045088D01*
X067175Y045062D01*
X067211Y045033D01*
X067245Y045001D01*
X067276Y044966D01*
X067304Y044928D01*
X067328Y044888D01*
X067349Y044847D01*
X067367Y044803D01*
X067380Y044759D01*
X067390Y044713D01*
X067396Y044667D01*
X067398Y044620D01*
X067396Y044573D01*
X067390Y044527D01*
X067380Y044481D01*
X067367Y044437D01*
X067349Y044393D01*
X067328Y044352D01*
X067304Y044312D01*
X067276Y044274D01*
X067245Y044239D01*
X067211Y044207D01*
X067175Y044178D01*
X067136Y044152D01*
X067096Y044129D01*
X067053Y044110D01*
X067009Y044094D01*
X066964Y044082D01*
X066918Y044074D01*
X066871Y044070D01*
X066825Y044070D01*
X066778Y044074D01*
X066732Y044082D01*
X066687Y044094D01*
X066643Y044110D01*
X066600Y044129D01*
X066560Y044152D01*
X066521Y044178D01*
X066485Y044207D01*
X066451Y044239D01*
X066420Y044274D01*
X066392Y044312D01*
X066368Y044352D01*
X066347Y044393D01*
X066329Y044437D01*
X066316Y044481D01*
X066306Y044527D01*
X066300Y044573D01*
X066298Y044620D01*
D15*
X009348Y041166D03*
X009348Y031323D03*
D16*
X009348Y034090D03*
X009348Y034990D03*
X010348Y035440D03*
X009348Y035890D03*
X009348Y036790D03*
X010348Y036340D03*
X010348Y037240D03*
X009348Y037690D03*
X010348Y038140D03*
X008348Y038140D03*
X008348Y037240D03*
X008348Y036340D03*
X008348Y035440D03*
X008348Y034540D03*
D17*
X010348Y034540D03*
D18*
X018098Y010620D03*
X042098Y040120D03*
X053898Y041870D03*
X056098Y041870D03*
X058348Y041870D03*
X061298Y041870D03*
X063848Y041620D03*
X063848Y042620D03*
X064848Y042620D03*
X064848Y041620D03*
X065848Y041620D03*
X065848Y040620D03*
X064848Y040620D03*
X064848Y039620D03*
X065848Y039620D03*
X065848Y038620D03*
X064848Y038620D03*
X063848Y038620D03*
X063848Y039620D03*
X063848Y040620D03*
X063848Y037620D03*
X064848Y037620D03*
X065848Y037620D03*
X065848Y036620D03*
X064848Y036620D03*
X063848Y036620D03*
X063848Y035620D03*
X064848Y035620D03*
X065848Y035620D03*
X065848Y034620D03*
X064848Y034620D03*
X063848Y034620D03*
X063848Y033620D03*
X063848Y032620D03*
X064848Y032620D03*
X064848Y033620D03*
X065848Y033620D03*
X065848Y032620D03*
X065848Y031620D03*
X064848Y031620D03*
X063848Y031620D03*
X063848Y030620D03*
X064848Y030620D03*
X065848Y030620D03*
X065848Y029620D03*
X064848Y029620D03*
X063848Y029620D03*
X063848Y028620D03*
X064848Y028620D03*
X065848Y028620D03*
X065848Y027620D03*
X064848Y027620D03*
X064848Y026620D03*
X065848Y026620D03*
X065848Y025620D03*
X064848Y025620D03*
X063848Y025620D03*
X063848Y026620D03*
X063848Y027620D03*
X063848Y024620D03*
X064848Y024620D03*
X065848Y024620D03*
X065848Y023620D03*
X064848Y023620D03*
X063848Y023620D03*
X063848Y022620D03*
X064848Y022620D03*
X065848Y022620D03*
X065848Y021620D03*
X064848Y021620D03*
X064848Y020620D03*
X065848Y020620D03*
X065848Y019620D03*
X064848Y019620D03*
X063848Y019620D03*
X063848Y020620D03*
X063848Y021620D03*
X063848Y018620D03*
X064848Y018620D03*
X065848Y018620D03*
X065848Y017620D03*
X064848Y017620D03*
X063848Y017620D03*
X063848Y016620D03*
X064848Y016620D03*
X065848Y016620D03*
X065848Y015620D03*
X064848Y015620D03*
X063848Y015620D03*
X063848Y014620D03*
X063848Y013620D03*
X064848Y013620D03*
X064848Y014620D03*
X065848Y014620D03*
X065848Y013620D03*
X065848Y012620D03*
X064848Y012620D03*
X063848Y012620D03*
X063848Y011620D03*
X064848Y011620D03*
X065848Y011620D03*
X059598Y012120D03*
X056098Y030620D03*
X056848Y035870D03*
D19*
X057348Y041870D03*
X055098Y041870D03*
X052898Y041870D03*
X059898Y041870D03*
X065848Y042620D03*
X060598Y012120D03*
D20*
X060872Y019337D03*
X060872Y019593D03*
X060872Y019849D03*
X060872Y020105D03*
X060872Y020361D03*
X060872Y020617D03*
X060872Y020872D03*
X060872Y021128D03*
X060872Y021384D03*
X060872Y021640D03*
X060872Y021896D03*
X060872Y022152D03*
X058574Y022152D03*
X058574Y021896D03*
X058574Y021640D03*
X058574Y021384D03*
X058574Y021128D03*
X058574Y020872D03*
X058574Y020617D03*
X058574Y020361D03*
X058574Y020105D03*
X058574Y019849D03*
X058574Y019593D03*
X058574Y019337D03*
X058324Y031087D03*
X058324Y031343D03*
X058324Y031599D03*
X058324Y031855D03*
X058324Y032111D03*
X058324Y032367D03*
X058324Y032622D03*
X058324Y032878D03*
X058324Y033134D03*
X058324Y033390D03*
X058324Y033646D03*
X058324Y033902D03*
X060622Y033902D03*
X060622Y033646D03*
X060622Y033390D03*
X060622Y033134D03*
X060622Y032878D03*
X060622Y032622D03*
X060622Y032367D03*
X060622Y032111D03*
X060622Y031855D03*
X060622Y031599D03*
X060622Y031343D03*
X060622Y031087D03*
X060747Y035837D03*
X060747Y036093D03*
X060747Y036349D03*
X060747Y036605D03*
X060747Y036861D03*
X060747Y037117D03*
X060747Y037372D03*
X060747Y037628D03*
X060747Y037884D03*
X060747Y038140D03*
X060747Y038396D03*
X060747Y038652D03*
X058449Y038652D03*
X058449Y038396D03*
X058449Y038140D03*
X058449Y037884D03*
X058449Y037628D03*
X058449Y037372D03*
X058449Y037117D03*
X058449Y036861D03*
X058449Y036605D03*
X058449Y036349D03*
X058449Y036093D03*
X058449Y035837D03*
D21*
X050873Y041870D03*
X045098Y036870D03*
X043248Y042120D03*
X040998Y042120D03*
X035748Y028870D03*
X034373Y017620D03*
X053748Y028870D03*
X023598Y041720D03*
X010873Y020245D03*
X010873Y011620D03*
D22*
X010073Y011620D03*
X010073Y020245D03*
X033573Y017620D03*
X034948Y028870D03*
X044298Y036870D03*
X042448Y042120D03*
X040198Y042120D03*
X050073Y041870D03*
X052948Y028870D03*
X023598Y042520D03*
D23*
G36*
X039559Y028014D02*
X039456Y028117D01*
X039901Y028562D01*
X040004Y028459D01*
X039559Y028014D01*
G37*
G36*
X039698Y027874D02*
X039595Y027977D01*
X040040Y028422D01*
X040143Y028319D01*
X039698Y027874D01*
G37*
G36*
X039837Y027735D02*
X039734Y027838D01*
X040179Y028283D01*
X040282Y028180D01*
X039837Y027735D01*
G37*
G36*
X039976Y027596D02*
X039873Y027699D01*
X040318Y028144D01*
X040421Y028041D01*
X039976Y027596D01*
G37*
G36*
X040116Y027457D02*
X040013Y027560D01*
X040458Y028005D01*
X040561Y027902D01*
X040116Y027457D01*
G37*
G36*
X040255Y027318D02*
X040152Y027421D01*
X040597Y027866D01*
X040700Y027763D01*
X040255Y027318D01*
G37*
G36*
X040394Y027178D02*
X040291Y027281D01*
X040736Y027726D01*
X040839Y027623D01*
X040394Y027178D01*
G37*
G36*
X040533Y027039D02*
X040430Y027142D01*
X040875Y027587D01*
X040978Y027484D01*
X040533Y027039D01*
G37*
G36*
X040672Y026900D02*
X040569Y027003D01*
X041014Y027448D01*
X041117Y027345D01*
X040672Y026900D01*
G37*
G36*
X040812Y026761D02*
X040709Y026864D01*
X041154Y027309D01*
X041257Y027206D01*
X040812Y026761D01*
G37*
G36*
X040951Y026622D02*
X040848Y026725D01*
X041293Y027170D01*
X041396Y027067D01*
X040951Y026622D01*
G37*
G36*
X041090Y026482D02*
X040987Y026585D01*
X041432Y027030D01*
X041535Y026927D01*
X041090Y026482D01*
G37*
G36*
X041229Y026343D02*
X041126Y026446D01*
X041571Y026891D01*
X041674Y026788D01*
X041229Y026343D01*
G37*
G36*
X041368Y026204D02*
X041265Y026307D01*
X041710Y026752D01*
X041813Y026649D01*
X041368Y026204D01*
G37*
G36*
X041508Y026065D02*
X041405Y026168D01*
X041850Y026613D01*
X041953Y026510D01*
X041508Y026065D01*
G37*
G36*
X041647Y025926D02*
X041544Y026029D01*
X041989Y026474D01*
X042092Y026371D01*
X041647Y025926D01*
G37*
G36*
X041786Y025786D02*
X041683Y025889D01*
X042128Y026334D01*
X042231Y026231D01*
X041786Y025786D01*
G37*
G36*
X041925Y025647D02*
X041822Y025750D01*
X042267Y026195D01*
X042370Y026092D01*
X041925Y025647D01*
G37*
G36*
X042064Y025508D02*
X041961Y025611D01*
X042406Y026056D01*
X042509Y025953D01*
X042064Y025508D01*
G37*
G36*
X042204Y025369D02*
X042101Y025472D01*
X042546Y025917D01*
X042649Y025814D01*
X042204Y025369D01*
G37*
G36*
X042343Y025230D02*
X042240Y025333D01*
X042685Y025778D01*
X042788Y025675D01*
X042343Y025230D01*
G37*
G36*
X042482Y025090D02*
X042379Y025193D01*
X042824Y025638D01*
X042927Y025535D01*
X042482Y025090D01*
G37*
G36*
X042621Y024951D02*
X042518Y025054D01*
X042963Y025499D01*
X043066Y025396D01*
X042621Y024951D01*
G37*
G36*
X042760Y024812D02*
X042657Y024915D01*
X043102Y025360D01*
X043205Y025257D01*
X042760Y024812D01*
G37*
G36*
X042900Y024673D02*
X042797Y024776D01*
X043242Y025221D01*
X043345Y025118D01*
X042900Y024673D01*
G37*
G36*
X043039Y024534D02*
X042936Y024637D01*
X043381Y025082D01*
X043484Y024979D01*
X043039Y024534D01*
G37*
G36*
X043178Y024395D02*
X043075Y024498D01*
X043520Y024943D01*
X043623Y024840D01*
X043178Y024395D01*
G37*
G36*
X043317Y024255D02*
X043214Y024358D01*
X043659Y024803D01*
X043762Y024700D01*
X043317Y024255D01*
G37*
G36*
X043456Y024116D02*
X043353Y024219D01*
X043798Y024664D01*
X043901Y024561D01*
X043456Y024116D01*
G37*
G36*
X043595Y023977D02*
X043492Y024080D01*
X043937Y024525D01*
X044040Y024422D01*
X043595Y023977D01*
G37*
G36*
X043735Y023838D02*
X043632Y023941D01*
X044077Y024386D01*
X044180Y024283D01*
X043735Y023838D01*
G37*
G36*
X043874Y023699D02*
X043771Y023802D01*
X044216Y024247D01*
X044319Y024144D01*
X043874Y023699D01*
G37*
G36*
X044013Y023559D02*
X043910Y023662D01*
X044355Y024107D01*
X044458Y024004D01*
X044013Y023559D01*
G37*
G36*
X044152Y023420D02*
X044049Y023523D01*
X044494Y023968D01*
X044597Y023865D01*
X044152Y023420D01*
G37*
G36*
X044291Y023281D02*
X044188Y023384D01*
X044633Y023829D01*
X044736Y023726D01*
X044291Y023281D01*
G37*
G36*
X044431Y023142D02*
X044328Y023245D01*
X044773Y023690D01*
X044876Y023587D01*
X044431Y023142D01*
G37*
G36*
X050416Y029127D02*
X050313Y029230D01*
X050758Y029675D01*
X050861Y029572D01*
X050416Y029127D01*
G37*
G36*
X050277Y029266D02*
X050174Y029369D01*
X050619Y029814D01*
X050722Y029711D01*
X050277Y029266D01*
G37*
G36*
X050138Y029406D02*
X050035Y029509D01*
X050480Y029954D01*
X050583Y029851D01*
X050138Y029406D01*
G37*
G36*
X049998Y029545D02*
X049895Y029648D01*
X050340Y030093D01*
X050443Y029990D01*
X049998Y029545D01*
G37*
G36*
X049859Y029684D02*
X049756Y029787D01*
X050201Y030232D01*
X050304Y030129D01*
X049859Y029684D01*
G37*
G36*
X049720Y029823D02*
X049617Y029926D01*
X050062Y030371D01*
X050165Y030268D01*
X049720Y029823D01*
G37*
G36*
X049581Y029962D02*
X049478Y030065D01*
X049923Y030510D01*
X050026Y030407D01*
X049581Y029962D01*
G37*
G36*
X049442Y030101D02*
X049339Y030204D01*
X049784Y030649D01*
X049887Y030546D01*
X049442Y030101D01*
G37*
G36*
X049302Y030241D02*
X049199Y030344D01*
X049644Y030789D01*
X049747Y030686D01*
X049302Y030241D01*
G37*
G36*
X049163Y030380D02*
X049060Y030483D01*
X049505Y030928D01*
X049608Y030825D01*
X049163Y030380D01*
G37*
G36*
X049024Y030519D02*
X048921Y030622D01*
X049366Y031067D01*
X049469Y030964D01*
X049024Y030519D01*
G37*
G36*
X048885Y030658D02*
X048782Y030761D01*
X049227Y031206D01*
X049330Y031103D01*
X048885Y030658D01*
G37*
G36*
X048746Y030797D02*
X048643Y030900D01*
X049088Y031345D01*
X049191Y031242D01*
X048746Y030797D01*
G37*
G36*
X048606Y030937D02*
X048503Y031040D01*
X048948Y031485D01*
X049051Y031382D01*
X048606Y030937D01*
G37*
G36*
X048467Y031076D02*
X048364Y031179D01*
X048809Y031624D01*
X048912Y031521D01*
X048467Y031076D01*
G37*
G36*
X048328Y031215D02*
X048225Y031318D01*
X048670Y031763D01*
X048773Y031660D01*
X048328Y031215D01*
G37*
G36*
X048189Y031354D02*
X048086Y031457D01*
X048531Y031902D01*
X048634Y031799D01*
X048189Y031354D01*
G37*
G36*
X048050Y031493D02*
X047947Y031596D01*
X048392Y032041D01*
X048495Y031938D01*
X048050Y031493D01*
G37*
G36*
X047911Y031633D02*
X047808Y031736D01*
X048253Y032181D01*
X048356Y032078D01*
X047911Y031633D01*
G37*
G36*
X047771Y031772D02*
X047668Y031875D01*
X048113Y032320D01*
X048216Y032217D01*
X047771Y031772D01*
G37*
G36*
X047632Y031911D02*
X047529Y032014D01*
X047974Y032459D01*
X048077Y032356D01*
X047632Y031911D01*
G37*
G36*
X047493Y032050D02*
X047390Y032153D01*
X047835Y032598D01*
X047938Y032495D01*
X047493Y032050D01*
G37*
G36*
X047354Y032189D02*
X047251Y032292D01*
X047696Y032737D01*
X047799Y032634D01*
X047354Y032189D01*
G37*
G36*
X047215Y032329D02*
X047112Y032432D01*
X047557Y032877D01*
X047660Y032774D01*
X047215Y032329D01*
G37*
G36*
X047075Y032468D02*
X046972Y032571D01*
X047417Y033016D01*
X047520Y032913D01*
X047075Y032468D01*
G37*
G36*
X046936Y032607D02*
X046833Y032710D01*
X047278Y033155D01*
X047381Y033052D01*
X046936Y032607D01*
G37*
G36*
X046797Y032746D02*
X046694Y032849D01*
X047139Y033294D01*
X047242Y033191D01*
X046797Y032746D01*
G37*
G36*
X046658Y032885D02*
X046555Y032988D01*
X047000Y033433D01*
X047103Y033330D01*
X046658Y032885D01*
G37*
G36*
X046519Y033025D02*
X046416Y033128D01*
X046861Y033573D01*
X046964Y033470D01*
X046519Y033025D01*
G37*
G36*
X046379Y033164D02*
X046276Y033267D01*
X046721Y033712D01*
X046824Y033609D01*
X046379Y033164D01*
G37*
G36*
X046240Y033303D02*
X046137Y033406D01*
X046582Y033851D01*
X046685Y033748D01*
X046240Y033303D01*
G37*
G36*
X046101Y033442D02*
X045998Y033545D01*
X046443Y033990D01*
X046546Y033887D01*
X046101Y033442D01*
G37*
G36*
X045962Y033581D02*
X045859Y033684D01*
X046304Y034129D01*
X046407Y034026D01*
X045962Y033581D01*
G37*
G36*
X045823Y033721D02*
X045720Y033824D01*
X046165Y034269D01*
X046268Y034166D01*
X045823Y033721D01*
G37*
G36*
X045683Y033860D02*
X045580Y033963D01*
X046025Y034408D01*
X046128Y034305D01*
X045683Y033860D01*
G37*
G36*
X045544Y033999D02*
X045441Y034102D01*
X045886Y034547D01*
X045989Y034444D01*
X045544Y033999D01*
G37*
D24*
G36*
X044773Y033999D02*
X044328Y034444D01*
X044431Y034547D01*
X044876Y034102D01*
X044773Y033999D01*
G37*
G36*
X044633Y033860D02*
X044188Y034305D01*
X044291Y034408D01*
X044736Y033963D01*
X044633Y033860D01*
G37*
G36*
X044494Y033721D02*
X044049Y034166D01*
X044152Y034269D01*
X044597Y033824D01*
X044494Y033721D01*
G37*
G36*
X044355Y033581D02*
X043910Y034026D01*
X044013Y034129D01*
X044458Y033684D01*
X044355Y033581D01*
G37*
G36*
X044216Y033442D02*
X043771Y033887D01*
X043874Y033990D01*
X044319Y033545D01*
X044216Y033442D01*
G37*
G36*
X044077Y033303D02*
X043632Y033748D01*
X043735Y033851D01*
X044180Y033406D01*
X044077Y033303D01*
G37*
G36*
X043937Y033164D02*
X043492Y033609D01*
X043595Y033712D01*
X044040Y033267D01*
X043937Y033164D01*
G37*
G36*
X043798Y033025D02*
X043353Y033470D01*
X043456Y033573D01*
X043901Y033128D01*
X043798Y033025D01*
G37*
G36*
X043659Y032885D02*
X043214Y033330D01*
X043317Y033433D01*
X043762Y032988D01*
X043659Y032885D01*
G37*
G36*
X043520Y032746D02*
X043075Y033191D01*
X043178Y033294D01*
X043623Y032849D01*
X043520Y032746D01*
G37*
G36*
X043381Y032607D02*
X042936Y033052D01*
X043039Y033155D01*
X043484Y032710D01*
X043381Y032607D01*
G37*
G36*
X043242Y032468D02*
X042797Y032913D01*
X042900Y033016D01*
X043345Y032571D01*
X043242Y032468D01*
G37*
G36*
X043102Y032329D02*
X042657Y032774D01*
X042760Y032877D01*
X043205Y032432D01*
X043102Y032329D01*
G37*
G36*
X042963Y032189D02*
X042518Y032634D01*
X042621Y032737D01*
X043066Y032292D01*
X042963Y032189D01*
G37*
G36*
X042824Y032050D02*
X042379Y032495D01*
X042482Y032598D01*
X042927Y032153D01*
X042824Y032050D01*
G37*
G36*
X042685Y031911D02*
X042240Y032356D01*
X042343Y032459D01*
X042788Y032014D01*
X042685Y031911D01*
G37*
G36*
X042546Y031772D02*
X042101Y032217D01*
X042204Y032320D01*
X042649Y031875D01*
X042546Y031772D01*
G37*
G36*
X042406Y031633D02*
X041961Y032078D01*
X042064Y032181D01*
X042509Y031736D01*
X042406Y031633D01*
G37*
G36*
X042267Y031493D02*
X041822Y031938D01*
X041925Y032041D01*
X042370Y031596D01*
X042267Y031493D01*
G37*
G36*
X042128Y031354D02*
X041683Y031799D01*
X041786Y031902D01*
X042231Y031457D01*
X042128Y031354D01*
G37*
G36*
X041989Y031215D02*
X041544Y031660D01*
X041647Y031763D01*
X042092Y031318D01*
X041989Y031215D01*
G37*
G36*
X041850Y031076D02*
X041405Y031521D01*
X041508Y031624D01*
X041953Y031179D01*
X041850Y031076D01*
G37*
G36*
X041710Y030937D02*
X041265Y031382D01*
X041368Y031485D01*
X041813Y031040D01*
X041710Y030937D01*
G37*
G36*
X041571Y030797D02*
X041126Y031242D01*
X041229Y031345D01*
X041674Y030900D01*
X041571Y030797D01*
G37*
G36*
X041432Y030658D02*
X040987Y031103D01*
X041090Y031206D01*
X041535Y030761D01*
X041432Y030658D01*
G37*
G36*
X041293Y030519D02*
X040848Y030964D01*
X040951Y031067D01*
X041396Y030622D01*
X041293Y030519D01*
G37*
G36*
X041154Y030380D02*
X040709Y030825D01*
X040812Y030928D01*
X041257Y030483D01*
X041154Y030380D01*
G37*
G36*
X041014Y030241D02*
X040569Y030686D01*
X040672Y030789D01*
X041117Y030344D01*
X041014Y030241D01*
G37*
G36*
X040875Y030101D02*
X040430Y030546D01*
X040533Y030649D01*
X040978Y030204D01*
X040875Y030101D01*
G37*
G36*
X040736Y029962D02*
X040291Y030407D01*
X040394Y030510D01*
X040839Y030065D01*
X040736Y029962D01*
G37*
G36*
X040597Y029823D02*
X040152Y030268D01*
X040255Y030371D01*
X040700Y029926D01*
X040597Y029823D01*
G37*
G36*
X040458Y029684D02*
X040013Y030129D01*
X040116Y030232D01*
X040561Y029787D01*
X040458Y029684D01*
G37*
G36*
X040318Y029545D02*
X039873Y029990D01*
X039976Y030093D01*
X040421Y029648D01*
X040318Y029545D01*
G37*
G36*
X040179Y029406D02*
X039734Y029851D01*
X039837Y029954D01*
X040282Y029509D01*
X040179Y029406D01*
G37*
G36*
X040040Y029266D02*
X039595Y029711D01*
X039698Y029814D01*
X040143Y029369D01*
X040040Y029266D01*
G37*
G36*
X039901Y029127D02*
X039456Y029572D01*
X039559Y029675D01*
X040004Y029230D01*
X039901Y029127D01*
G37*
G36*
X046443Y023699D02*
X045998Y024144D01*
X046101Y024247D01*
X046546Y023802D01*
X046443Y023699D01*
G37*
G36*
X046304Y023559D02*
X045859Y024004D01*
X045962Y024107D01*
X046407Y023662D01*
X046304Y023559D01*
G37*
G36*
X046165Y023420D02*
X045720Y023865D01*
X045823Y023968D01*
X046268Y023523D01*
X046165Y023420D01*
G37*
G36*
X046025Y023281D02*
X045580Y023726D01*
X045683Y023829D01*
X046128Y023384D01*
X046025Y023281D01*
G37*
G36*
X045886Y023142D02*
X045441Y023587D01*
X045544Y023690D01*
X045989Y023245D01*
X045886Y023142D01*
G37*
G36*
X046582Y023838D02*
X046137Y024283D01*
X046240Y024386D01*
X046685Y023941D01*
X046582Y023838D01*
G37*
G36*
X046721Y023977D02*
X046276Y024422D01*
X046379Y024525D01*
X046824Y024080D01*
X046721Y023977D01*
G37*
G36*
X046861Y024116D02*
X046416Y024561D01*
X046519Y024664D01*
X046964Y024219D01*
X046861Y024116D01*
G37*
G36*
X047000Y024255D02*
X046555Y024700D01*
X046658Y024803D01*
X047103Y024358D01*
X047000Y024255D01*
G37*
G36*
X047139Y024395D02*
X046694Y024840D01*
X046797Y024943D01*
X047242Y024498D01*
X047139Y024395D01*
G37*
G36*
X047278Y024534D02*
X046833Y024979D01*
X046936Y025082D01*
X047381Y024637D01*
X047278Y024534D01*
G37*
G36*
X047417Y024673D02*
X046972Y025118D01*
X047075Y025221D01*
X047520Y024776D01*
X047417Y024673D01*
G37*
G36*
X047557Y024812D02*
X047112Y025257D01*
X047215Y025360D01*
X047660Y024915D01*
X047557Y024812D01*
G37*
G36*
X047696Y024951D02*
X047251Y025396D01*
X047354Y025499D01*
X047799Y025054D01*
X047696Y024951D01*
G37*
G36*
X047835Y025090D02*
X047390Y025535D01*
X047493Y025638D01*
X047938Y025193D01*
X047835Y025090D01*
G37*
G36*
X047974Y025230D02*
X047529Y025675D01*
X047632Y025778D01*
X048077Y025333D01*
X047974Y025230D01*
G37*
G36*
X048113Y025369D02*
X047668Y025814D01*
X047771Y025917D01*
X048216Y025472D01*
X048113Y025369D01*
G37*
G36*
X048253Y025508D02*
X047808Y025953D01*
X047911Y026056D01*
X048356Y025611D01*
X048253Y025508D01*
G37*
G36*
X048392Y025647D02*
X047947Y026092D01*
X048050Y026195D01*
X048495Y025750D01*
X048392Y025647D01*
G37*
G36*
X048531Y025786D02*
X048086Y026231D01*
X048189Y026334D01*
X048634Y025889D01*
X048531Y025786D01*
G37*
G36*
X048670Y025926D02*
X048225Y026371D01*
X048328Y026474D01*
X048773Y026029D01*
X048670Y025926D01*
G37*
G36*
X048809Y026065D02*
X048364Y026510D01*
X048467Y026613D01*
X048912Y026168D01*
X048809Y026065D01*
G37*
G36*
X048948Y026204D02*
X048503Y026649D01*
X048606Y026752D01*
X049051Y026307D01*
X048948Y026204D01*
G37*
G36*
X049088Y026343D02*
X048643Y026788D01*
X048746Y026891D01*
X049191Y026446D01*
X049088Y026343D01*
G37*
G36*
X049227Y026482D02*
X048782Y026927D01*
X048885Y027030D01*
X049330Y026585D01*
X049227Y026482D01*
G37*
G36*
X049366Y026622D02*
X048921Y027067D01*
X049024Y027170D01*
X049469Y026725D01*
X049366Y026622D01*
G37*
G36*
X049505Y026761D02*
X049060Y027206D01*
X049163Y027309D01*
X049608Y026864D01*
X049505Y026761D01*
G37*
G36*
X049644Y026900D02*
X049199Y027345D01*
X049302Y027448D01*
X049747Y027003D01*
X049644Y026900D01*
G37*
G36*
X049784Y027039D02*
X049339Y027484D01*
X049442Y027587D01*
X049887Y027142D01*
X049784Y027039D01*
G37*
G36*
X049923Y027178D02*
X049478Y027623D01*
X049581Y027726D01*
X050026Y027281D01*
X049923Y027178D01*
G37*
G36*
X050062Y027318D02*
X049617Y027763D01*
X049720Y027866D01*
X050165Y027421D01*
X050062Y027318D01*
G37*
G36*
X050201Y027457D02*
X049756Y027902D01*
X049859Y028005D01*
X050304Y027560D01*
X050201Y027457D01*
G37*
G36*
X050340Y027596D02*
X049895Y028041D01*
X049998Y028144D01*
X050443Y027699D01*
X050340Y027596D01*
G37*
G36*
X050480Y027735D02*
X050035Y028180D01*
X050138Y028283D01*
X050583Y027838D01*
X050480Y027735D01*
G37*
G36*
X050619Y027874D02*
X050174Y028319D01*
X050277Y028422D01*
X050722Y027977D01*
X050619Y027874D01*
G37*
G36*
X050758Y028014D02*
X050313Y028459D01*
X050416Y028562D01*
X050861Y028117D01*
X050758Y028014D01*
G37*
D25*
X050348Y012370D03*
X051348Y012370D03*
X052348Y012370D03*
X053348Y012370D03*
X054348Y012370D03*
X054348Y011370D03*
X053348Y011370D03*
X052348Y011370D03*
X051348Y011370D03*
X050348Y011370D03*
D26*
G36*
X042301Y017986D02*
X042096Y018191D01*
X042831Y018926D01*
X043036Y018721D01*
X042301Y017986D01*
G37*
G36*
X041947Y018339D02*
X041742Y018544D01*
X042477Y019279D01*
X042682Y019074D01*
X041947Y018339D01*
G37*
G36*
X041594Y018693D02*
X041389Y018898D01*
X042124Y019633D01*
X042329Y019428D01*
X041594Y018693D01*
G37*
G36*
X041240Y019046D02*
X041035Y019251D01*
X041770Y019986D01*
X041975Y019781D01*
X041240Y019046D01*
G37*
G36*
X040887Y019400D02*
X040682Y019605D01*
X041417Y020340D01*
X041622Y020135D01*
X040887Y019400D01*
G37*
G36*
X040533Y019754D02*
X040328Y019959D01*
X041063Y020694D01*
X041268Y020489D01*
X040533Y019754D01*
G37*
G36*
X040180Y020107D02*
X039975Y020312D01*
X040710Y021047D01*
X040915Y020842D01*
X040180Y020107D01*
G37*
G36*
X039826Y020461D02*
X039621Y020666D01*
X040356Y021401D01*
X040561Y021196D01*
X039826Y020461D01*
G37*
G36*
X039473Y020814D02*
X039268Y021019D01*
X040003Y021754D01*
X040208Y021549D01*
X039473Y020814D01*
G37*
G36*
X039119Y021168D02*
X038914Y021373D01*
X039649Y022108D01*
X039854Y021903D01*
X039119Y021168D01*
G37*
G36*
X038765Y021521D02*
X038560Y021726D01*
X039295Y022461D01*
X039500Y022256D01*
X038765Y021521D01*
G37*
G36*
X038412Y021875D02*
X038207Y022080D01*
X038942Y022815D01*
X039147Y022610D01*
X038412Y021875D01*
G37*
G36*
X038058Y022229D02*
X037853Y022434D01*
X038588Y023169D01*
X038793Y022964D01*
X038058Y022229D01*
G37*
G36*
X037705Y022582D02*
X037500Y022787D01*
X038235Y023522D01*
X038440Y023317D01*
X037705Y022582D01*
G37*
G36*
X037351Y022936D02*
X037146Y023141D01*
X037881Y023876D01*
X038086Y023671D01*
X037351Y022936D01*
G37*
G36*
X036998Y023289D02*
X036793Y023494D01*
X037528Y024229D01*
X037733Y024024D01*
X036998Y023289D01*
G37*
G36*
X036644Y023643D02*
X036439Y023848D01*
X037174Y024583D01*
X037379Y024378D01*
X036644Y023643D01*
G37*
G36*
X036291Y023996D02*
X036086Y024201D01*
X036821Y024936D01*
X037026Y024731D01*
X036291Y023996D01*
G37*
G36*
X035937Y024350D02*
X035732Y024555D01*
X036467Y025290D01*
X036672Y025085D01*
X035937Y024350D01*
G37*
G36*
X035583Y024703D02*
X035378Y024908D01*
X036113Y025643D01*
X036318Y025438D01*
X035583Y024703D01*
G37*
G36*
X035230Y025057D02*
X035025Y025262D01*
X035760Y025997D01*
X035965Y025792D01*
X035230Y025057D01*
G37*
G36*
X034876Y025410D02*
X034671Y025615D01*
X035406Y026350D01*
X035611Y026145D01*
X034876Y025410D01*
G37*
G36*
X032076Y022610D02*
X031871Y022815D01*
X032606Y023550D01*
X032811Y023345D01*
X032076Y022610D01*
G37*
G36*
X032430Y022257D02*
X032225Y022462D01*
X032960Y023197D01*
X033165Y022992D01*
X032430Y022257D01*
G37*
G36*
X032783Y021903D02*
X032578Y022108D01*
X033313Y022843D01*
X033518Y022638D01*
X032783Y021903D01*
G37*
G36*
X033137Y021550D02*
X032932Y021755D01*
X033667Y022490D01*
X033872Y022285D01*
X033137Y021550D01*
G37*
G36*
X033490Y021196D02*
X033285Y021401D01*
X034020Y022136D01*
X034225Y021931D01*
X033490Y021196D01*
G37*
G36*
X033844Y020843D02*
X033639Y021048D01*
X034374Y021783D01*
X034579Y021578D01*
X033844Y020843D01*
G37*
G36*
X034198Y020489D02*
X033993Y020694D01*
X034728Y021429D01*
X034933Y021224D01*
X034198Y020489D01*
G37*
G36*
X034551Y020135D02*
X034346Y020340D01*
X035081Y021075D01*
X035286Y020870D01*
X034551Y020135D01*
G37*
G36*
X034905Y019782D02*
X034700Y019987D01*
X035435Y020722D01*
X035640Y020517D01*
X034905Y019782D01*
G37*
G36*
X035258Y019428D02*
X035053Y019633D01*
X035788Y020368D01*
X035993Y020163D01*
X035258Y019428D01*
G37*
G36*
X035612Y019075D02*
X035407Y019280D01*
X036142Y020015D01*
X036347Y019810D01*
X035612Y019075D01*
G37*
G36*
X035965Y018721D02*
X035760Y018926D01*
X036495Y019661D01*
X036700Y019456D01*
X035965Y018721D01*
G37*
G36*
X036319Y018368D02*
X036114Y018573D01*
X036849Y019308D01*
X037054Y019103D01*
X036319Y018368D01*
G37*
G36*
X036672Y018014D02*
X036467Y018219D01*
X037202Y018954D01*
X037407Y018749D01*
X036672Y018014D01*
G37*
G36*
X037026Y017661D02*
X036821Y017866D01*
X037556Y018601D01*
X037761Y018396D01*
X037026Y017661D01*
G37*
G36*
X037379Y017307D02*
X037174Y017512D01*
X037909Y018247D01*
X038114Y018042D01*
X037379Y017307D01*
G37*
G36*
X037733Y016953D02*
X037528Y017158D01*
X038263Y017893D01*
X038468Y017688D01*
X037733Y016953D01*
G37*
G36*
X038087Y016600D02*
X037882Y016805D01*
X038617Y017540D01*
X038822Y017335D01*
X038087Y016600D01*
G37*
G36*
X038440Y016246D02*
X038235Y016451D01*
X038970Y017186D01*
X039175Y016981D01*
X038440Y016246D01*
G37*
G36*
X038794Y015893D02*
X038589Y016098D01*
X039324Y016833D01*
X039529Y016628D01*
X038794Y015893D01*
G37*
G36*
X039147Y015539D02*
X038942Y015744D01*
X039677Y016479D01*
X039882Y016274D01*
X039147Y015539D01*
G37*
G36*
X039501Y015186D02*
X039296Y015391D01*
X040031Y016126D01*
X040236Y015921D01*
X039501Y015186D01*
G37*
D27*
X007038Y013462D03*
X006723Y016120D03*
X007038Y018797D03*
X007018Y021712D03*
X006703Y024370D03*
X007018Y027047D03*
D28*
X008199Y025708D03*
X009184Y025708D03*
X008199Y024881D03*
X008199Y023858D03*
X008199Y023031D03*
X009164Y023031D03*
X009203Y017458D03*
X008219Y017458D03*
X008219Y016631D03*
X009203Y016474D03*
X009203Y015608D03*
X009184Y014781D03*
X008219Y014781D03*
X008219Y015608D03*
D29*
X017440Y030096D03*
X017696Y030096D03*
X017952Y030096D03*
X018208Y030096D03*
X018464Y030096D03*
X018720Y030096D03*
X018976Y030096D03*
X019232Y030096D03*
X019488Y030096D03*
X019744Y030096D03*
X019999Y030096D03*
X020255Y030096D03*
X020255Y032393D03*
X019999Y032393D03*
X019744Y032393D03*
X019488Y032393D03*
X019232Y032393D03*
X018976Y032393D03*
X018720Y032393D03*
X018464Y032393D03*
X018208Y032393D03*
X017952Y032393D03*
X017696Y032393D03*
X017440Y032393D03*
D30*
X016848Y032388D03*
X016848Y031601D03*
X048598Y018763D03*
X048598Y017976D03*
X048598Y017263D03*
X048598Y016476D03*
D31*
X047598Y016471D03*
X047098Y016471D03*
X046598Y016471D03*
X046098Y016471D03*
X046098Y018518D03*
X046598Y018518D03*
X047098Y018518D03*
X047598Y018518D03*
D32*
X046348Y014954D03*
X046348Y014285D03*
X045098Y014285D03*
X045098Y014954D03*
D33*
X018470Y027805D03*
X018155Y027805D03*
X017840Y027805D03*
X017525Y027805D03*
X017525Y028434D03*
X017840Y028434D03*
X018155Y028434D03*
X018470Y028434D03*
X018570Y044305D03*
X018255Y044305D03*
X017940Y044305D03*
X017625Y044305D03*
X017625Y044934D03*
X017940Y044934D03*
X018255Y044934D03*
X018570Y044934D03*
D34*
X066848Y044620D03*
X066848Y009620D03*
D35*
X062598Y010120D03*
X062598Y044370D03*
X006348Y044370D03*
X006348Y010120D03*
D36*
G36*
X052694Y020912D02*
X053056Y021274D01*
X053418Y020912D01*
X053056Y020550D01*
X052694Y020912D01*
G37*
G36*
X053278Y020327D02*
X053640Y020689D01*
X054002Y020327D01*
X053640Y019965D01*
X053278Y020327D01*
G37*
D37*
X011433Y024114D03*
X011433Y024625D03*
X010763Y024625D03*
X010763Y024370D03*
X010763Y024114D03*
X010763Y016125D03*
X010763Y015870D03*
X010763Y015614D03*
X011433Y015614D03*
X011433Y016125D03*
D38*
X025323Y034445D03*
X025323Y034695D03*
X025323Y034945D03*
X025323Y035195D03*
X025323Y035445D03*
X025323Y035695D03*
X025323Y035945D03*
X025323Y036195D03*
X027373Y036195D03*
X027373Y035945D03*
X027373Y035695D03*
X027373Y035445D03*
X027373Y035195D03*
X027373Y034945D03*
X027373Y034695D03*
X027373Y034445D03*
M02*
