G75*
G70*
%OFA0B0*%
%FSLAX24Y24*%
%IPPOS*%
%LPD*%
%AMOC8*
5,1,8,0,0,1.08239X$1,22.5*
%
%ADD10R,0.0512X0.0630*%
%ADD11C,0.0000*%
%ADD12R,0.0630X0.0394*%
%ADD13R,0.2441X0.2126*%
%ADD14R,0.0354X0.0197*%
%ADD15R,0.0551X0.0394*%
%ADD16R,0.0512X0.0591*%
%ADD17R,0.0591X0.0512*%
%ADD18R,0.0630X0.0512*%
D10*
G36*
X035760Y021651D02*
X036122Y021289D01*
X035678Y020845D01*
X035316Y021207D01*
X035760Y021651D01*
G37*
G36*
X036317Y021094D02*
X036679Y020732D01*
X036235Y020288D01*
X035873Y020650D01*
X036317Y021094D01*
G37*
G36*
X038528Y020495D02*
X038166Y020857D01*
X038610Y021301D01*
X038972Y020939D01*
X038528Y020495D01*
G37*
G36*
X039085Y019938D02*
X038723Y020300D01*
X039167Y020744D01*
X039529Y020382D01*
X039085Y019938D01*
G37*
G36*
X044594Y025610D02*
X044956Y025248D01*
X044512Y024804D01*
X044150Y025166D01*
X044594Y025610D01*
G37*
G36*
X044037Y026167D02*
X044399Y025805D01*
X043955Y025361D01*
X043593Y025723D01*
X044037Y026167D01*
G37*
G36*
X045637Y027111D02*
X045275Y026749D01*
X044831Y027193D01*
X045193Y027555D01*
X045637Y027111D01*
G37*
G36*
X046193Y027668D02*
X045831Y027306D01*
X045387Y027750D01*
X045749Y028112D01*
X046193Y027668D01*
G37*
G36*
X046892Y029322D02*
X047254Y028960D01*
X046810Y028516D01*
X046448Y028878D01*
X046892Y029322D01*
G37*
G36*
X046335Y029879D02*
X046697Y029517D01*
X046253Y029073D01*
X045891Y029435D01*
X046335Y029879D01*
G37*
G36*
X044680Y030578D02*
X045042Y030940D01*
X045486Y030496D01*
X045124Y030134D01*
X044680Y030578D01*
G37*
G36*
X044124Y030021D02*
X044486Y030383D01*
X044930Y029939D01*
X044568Y029577D01*
X044124Y030021D01*
G37*
G36*
X043425Y028366D02*
X043063Y028728D01*
X043507Y029172D01*
X043869Y028810D01*
X043425Y028366D01*
G37*
G36*
X043982Y027809D02*
X043620Y028171D01*
X044064Y028615D01*
X044426Y028253D01*
X043982Y027809D01*
G37*
G36*
X042119Y028085D02*
X042481Y027723D01*
X042037Y027279D01*
X041675Y027641D01*
X042119Y028085D01*
G37*
G36*
X041562Y028642D02*
X041924Y028280D01*
X041480Y027836D01*
X041118Y028198D01*
X041562Y028642D01*
G37*
G36*
X041118Y029491D02*
X041480Y029853D01*
X041924Y029409D01*
X041562Y029047D01*
X041118Y029491D01*
G37*
G36*
X041675Y030048D02*
X042037Y030410D01*
X042481Y029966D01*
X042119Y029604D01*
X041675Y030048D01*
G37*
G36*
X044399Y031884D02*
X044037Y031522D01*
X043593Y031966D01*
X043955Y032328D01*
X044399Y031884D01*
G37*
G36*
X044956Y032440D02*
X044594Y032078D01*
X044150Y032522D01*
X044512Y032884D01*
X044956Y032440D01*
G37*
G36*
X045805Y032885D02*
X046167Y032523D01*
X045723Y032079D01*
X045361Y032441D01*
X045805Y032885D01*
G37*
G36*
X046362Y032328D02*
X046724Y031966D01*
X046280Y031522D01*
X045918Y031884D01*
X046362Y032328D01*
G37*
G36*
X048280Y030410D02*
X048642Y030048D01*
X048198Y029604D01*
X047836Y029966D01*
X048280Y030410D01*
G37*
G36*
X048837Y029853D02*
X049199Y029491D01*
X048755Y029047D01*
X048393Y029409D01*
X048837Y029853D01*
G37*
G36*
X048393Y028280D02*
X048755Y028642D01*
X049199Y028198D01*
X048837Y027836D01*
X048393Y028280D01*
G37*
G36*
X047836Y027723D02*
X048198Y028085D01*
X048642Y027641D01*
X048280Y027279D01*
X047836Y027723D01*
G37*
G36*
X046724Y025723D02*
X046362Y025361D01*
X045918Y025805D01*
X046280Y026167D01*
X046724Y025723D01*
G37*
G36*
X046167Y025166D02*
X045805Y024804D01*
X045361Y025248D01*
X045723Y025610D01*
X046167Y025166D01*
G37*
D11*
X004848Y007430D02*
X004848Y046810D01*
X067948Y046810D01*
X067948Y007430D01*
X004848Y007430D01*
X005698Y010120D02*
X005700Y010170D01*
X005706Y010220D01*
X005716Y010270D01*
X005729Y010318D01*
X005746Y010366D01*
X005767Y010412D01*
X005791Y010456D01*
X005819Y010498D01*
X005850Y010538D01*
X005884Y010575D01*
X005921Y010610D01*
X005960Y010641D01*
X006001Y010670D01*
X006045Y010695D01*
X006091Y010717D01*
X006138Y010735D01*
X006186Y010749D01*
X006235Y010760D01*
X006285Y010767D01*
X006335Y010770D01*
X006386Y010769D01*
X006436Y010764D01*
X006486Y010755D01*
X006534Y010743D01*
X006582Y010726D01*
X006628Y010706D01*
X006673Y010683D01*
X006716Y010656D01*
X006756Y010626D01*
X006794Y010593D01*
X006829Y010557D01*
X006862Y010518D01*
X006891Y010477D01*
X006917Y010434D01*
X006940Y010389D01*
X006959Y010342D01*
X006974Y010294D01*
X006986Y010245D01*
X006994Y010195D01*
X006998Y010145D01*
X006998Y010095D01*
X006994Y010045D01*
X006986Y009995D01*
X006974Y009946D01*
X006959Y009898D01*
X006940Y009851D01*
X006917Y009806D01*
X006891Y009763D01*
X006862Y009722D01*
X006829Y009683D01*
X006794Y009647D01*
X006756Y009614D01*
X006716Y009584D01*
X006673Y009557D01*
X006628Y009534D01*
X006582Y009514D01*
X006534Y009497D01*
X006486Y009485D01*
X006436Y009476D01*
X006386Y009471D01*
X006335Y009470D01*
X006285Y009473D01*
X006235Y009480D01*
X006186Y009491D01*
X006138Y009505D01*
X006091Y009523D01*
X006045Y009545D01*
X006001Y009570D01*
X005960Y009599D01*
X005921Y009630D01*
X005884Y009665D01*
X005850Y009702D01*
X005819Y009742D01*
X005791Y009784D01*
X005767Y009828D01*
X005746Y009874D01*
X005729Y009922D01*
X005716Y009970D01*
X005706Y010020D01*
X005700Y010070D01*
X005698Y010120D01*
X008757Y031323D02*
X008759Y031371D01*
X008765Y031419D01*
X008775Y031466D01*
X008788Y031512D01*
X008806Y031557D01*
X008826Y031601D01*
X008851Y031643D01*
X008879Y031682D01*
X008909Y031719D01*
X008943Y031753D01*
X008980Y031785D01*
X009018Y031814D01*
X009059Y031839D01*
X009102Y031861D01*
X009147Y031879D01*
X009193Y031893D01*
X009240Y031904D01*
X009288Y031911D01*
X009336Y031914D01*
X009384Y031913D01*
X009432Y031908D01*
X009480Y031899D01*
X009526Y031887D01*
X009571Y031870D01*
X009615Y031850D01*
X009657Y031827D01*
X009697Y031800D01*
X009735Y031770D01*
X009770Y031737D01*
X009802Y031701D01*
X009832Y031663D01*
X009858Y031622D01*
X009880Y031579D01*
X009900Y031535D01*
X009915Y031490D01*
X009927Y031443D01*
X009935Y031395D01*
X009939Y031347D01*
X009939Y031299D01*
X009935Y031251D01*
X009927Y031203D01*
X009915Y031156D01*
X009900Y031111D01*
X009880Y031067D01*
X009858Y031024D01*
X009832Y030983D01*
X009802Y030945D01*
X009770Y030909D01*
X009735Y030876D01*
X009697Y030846D01*
X009657Y030819D01*
X009615Y030796D01*
X009571Y030776D01*
X009526Y030759D01*
X009480Y030747D01*
X009432Y030738D01*
X009384Y030733D01*
X009336Y030732D01*
X009288Y030735D01*
X009240Y030742D01*
X009193Y030753D01*
X009147Y030767D01*
X009102Y030785D01*
X009059Y030807D01*
X009018Y030832D01*
X008980Y030861D01*
X008943Y030893D01*
X008909Y030927D01*
X008879Y030964D01*
X008851Y031003D01*
X008826Y031045D01*
X008806Y031089D01*
X008788Y031134D01*
X008775Y031180D01*
X008765Y031227D01*
X008759Y031275D01*
X008757Y031323D01*
X008757Y041166D02*
X008759Y041214D01*
X008765Y041262D01*
X008775Y041309D01*
X008788Y041355D01*
X008806Y041400D01*
X008826Y041444D01*
X008851Y041486D01*
X008879Y041525D01*
X008909Y041562D01*
X008943Y041596D01*
X008980Y041628D01*
X009018Y041657D01*
X009059Y041682D01*
X009102Y041704D01*
X009147Y041722D01*
X009193Y041736D01*
X009240Y041747D01*
X009288Y041754D01*
X009336Y041757D01*
X009384Y041756D01*
X009432Y041751D01*
X009480Y041742D01*
X009526Y041730D01*
X009571Y041713D01*
X009615Y041693D01*
X009657Y041670D01*
X009697Y041643D01*
X009735Y041613D01*
X009770Y041580D01*
X009802Y041544D01*
X009832Y041506D01*
X009858Y041465D01*
X009880Y041422D01*
X009900Y041378D01*
X009915Y041333D01*
X009927Y041286D01*
X009935Y041238D01*
X009939Y041190D01*
X009939Y041142D01*
X009935Y041094D01*
X009927Y041046D01*
X009915Y040999D01*
X009900Y040954D01*
X009880Y040910D01*
X009858Y040867D01*
X009832Y040826D01*
X009802Y040788D01*
X009770Y040752D01*
X009735Y040719D01*
X009697Y040689D01*
X009657Y040662D01*
X009615Y040639D01*
X009571Y040619D01*
X009526Y040602D01*
X009480Y040590D01*
X009432Y040581D01*
X009384Y040576D01*
X009336Y040575D01*
X009288Y040578D01*
X009240Y040585D01*
X009193Y040596D01*
X009147Y040610D01*
X009102Y040628D01*
X009059Y040650D01*
X009018Y040675D01*
X008980Y040704D01*
X008943Y040736D01*
X008909Y040770D01*
X008879Y040807D01*
X008851Y040846D01*
X008826Y040888D01*
X008806Y040932D01*
X008788Y040977D01*
X008775Y041023D01*
X008765Y041070D01*
X008759Y041118D01*
X008757Y041166D01*
X005698Y044370D02*
X005700Y044420D01*
X005706Y044470D01*
X005716Y044520D01*
X005729Y044568D01*
X005746Y044616D01*
X005767Y044662D01*
X005791Y044706D01*
X005819Y044748D01*
X005850Y044788D01*
X005884Y044825D01*
X005921Y044860D01*
X005960Y044891D01*
X006001Y044920D01*
X006045Y044945D01*
X006091Y044967D01*
X006138Y044985D01*
X006186Y044999D01*
X006235Y045010D01*
X006285Y045017D01*
X006335Y045020D01*
X006386Y045019D01*
X006436Y045014D01*
X006486Y045005D01*
X006534Y044993D01*
X006582Y044976D01*
X006628Y044956D01*
X006673Y044933D01*
X006716Y044906D01*
X006756Y044876D01*
X006794Y044843D01*
X006829Y044807D01*
X006862Y044768D01*
X006891Y044727D01*
X006917Y044684D01*
X006940Y044639D01*
X006959Y044592D01*
X006974Y044544D01*
X006986Y044495D01*
X006994Y044445D01*
X006998Y044395D01*
X006998Y044345D01*
X006994Y044295D01*
X006986Y044245D01*
X006974Y044196D01*
X006959Y044148D01*
X006940Y044101D01*
X006917Y044056D01*
X006891Y044013D01*
X006862Y043972D01*
X006829Y043933D01*
X006794Y043897D01*
X006756Y043864D01*
X006716Y043834D01*
X006673Y043807D01*
X006628Y043784D01*
X006582Y043764D01*
X006534Y043747D01*
X006486Y043735D01*
X006436Y043726D01*
X006386Y043721D01*
X006335Y043720D01*
X006285Y043723D01*
X006235Y043730D01*
X006186Y043741D01*
X006138Y043755D01*
X006091Y043773D01*
X006045Y043795D01*
X006001Y043820D01*
X005960Y043849D01*
X005921Y043880D01*
X005884Y043915D01*
X005850Y043952D01*
X005819Y043992D01*
X005791Y044034D01*
X005767Y044078D01*
X005746Y044124D01*
X005729Y044172D01*
X005716Y044220D01*
X005706Y044270D01*
X005700Y044320D01*
X005698Y044370D01*
X061948Y044370D02*
X061950Y044420D01*
X061956Y044470D01*
X061966Y044520D01*
X061979Y044568D01*
X061996Y044616D01*
X062017Y044662D01*
X062041Y044706D01*
X062069Y044748D01*
X062100Y044788D01*
X062134Y044825D01*
X062171Y044860D01*
X062210Y044891D01*
X062251Y044920D01*
X062295Y044945D01*
X062341Y044967D01*
X062388Y044985D01*
X062436Y044999D01*
X062485Y045010D01*
X062535Y045017D01*
X062585Y045020D01*
X062636Y045019D01*
X062686Y045014D01*
X062736Y045005D01*
X062784Y044993D01*
X062832Y044976D01*
X062878Y044956D01*
X062923Y044933D01*
X062966Y044906D01*
X063006Y044876D01*
X063044Y044843D01*
X063079Y044807D01*
X063112Y044768D01*
X063141Y044727D01*
X063167Y044684D01*
X063190Y044639D01*
X063209Y044592D01*
X063224Y044544D01*
X063236Y044495D01*
X063244Y044445D01*
X063248Y044395D01*
X063248Y044345D01*
X063244Y044295D01*
X063236Y044245D01*
X063224Y044196D01*
X063209Y044148D01*
X063190Y044101D01*
X063167Y044056D01*
X063141Y044013D01*
X063112Y043972D01*
X063079Y043933D01*
X063044Y043897D01*
X063006Y043864D01*
X062966Y043834D01*
X062923Y043807D01*
X062878Y043784D01*
X062832Y043764D01*
X062784Y043747D01*
X062736Y043735D01*
X062686Y043726D01*
X062636Y043721D01*
X062585Y043720D01*
X062535Y043723D01*
X062485Y043730D01*
X062436Y043741D01*
X062388Y043755D01*
X062341Y043773D01*
X062295Y043795D01*
X062251Y043820D01*
X062210Y043849D01*
X062171Y043880D01*
X062134Y043915D01*
X062100Y043952D01*
X062069Y043992D01*
X062041Y044034D01*
X062017Y044078D01*
X061996Y044124D01*
X061979Y044172D01*
X061966Y044220D01*
X061956Y044270D01*
X061950Y044320D01*
X061948Y044370D01*
X066298Y044620D02*
X066300Y044667D01*
X066306Y044713D01*
X066316Y044759D01*
X066329Y044803D01*
X066347Y044847D01*
X066368Y044888D01*
X066392Y044928D01*
X066420Y044966D01*
X066451Y045001D01*
X066485Y045033D01*
X066521Y045062D01*
X066560Y045088D01*
X066600Y045111D01*
X066643Y045130D01*
X066687Y045146D01*
X066732Y045158D01*
X066778Y045166D01*
X066825Y045170D01*
X066871Y045170D01*
X066918Y045166D01*
X066964Y045158D01*
X067009Y045146D01*
X067053Y045130D01*
X067096Y045111D01*
X067136Y045088D01*
X067175Y045062D01*
X067211Y045033D01*
X067245Y045001D01*
X067276Y044966D01*
X067304Y044928D01*
X067328Y044888D01*
X067349Y044847D01*
X067367Y044803D01*
X067380Y044759D01*
X067390Y044713D01*
X067396Y044667D01*
X067398Y044620D01*
X067396Y044573D01*
X067390Y044527D01*
X067380Y044481D01*
X067367Y044437D01*
X067349Y044393D01*
X067328Y044352D01*
X067304Y044312D01*
X067276Y044274D01*
X067245Y044239D01*
X067211Y044207D01*
X067175Y044178D01*
X067136Y044152D01*
X067096Y044129D01*
X067053Y044110D01*
X067009Y044094D01*
X066964Y044082D01*
X066918Y044074D01*
X066871Y044070D01*
X066825Y044070D01*
X066778Y044074D01*
X066732Y044082D01*
X066687Y044094D01*
X066643Y044110D01*
X066600Y044129D01*
X066560Y044152D01*
X066521Y044178D01*
X066485Y044207D01*
X066451Y044239D01*
X066420Y044274D01*
X066392Y044312D01*
X066368Y044352D01*
X066347Y044393D01*
X066329Y044437D01*
X066316Y044481D01*
X066306Y044527D01*
X066300Y044573D01*
X066298Y044620D01*
X061948Y010120D02*
X061950Y010170D01*
X061956Y010220D01*
X061966Y010270D01*
X061979Y010318D01*
X061996Y010366D01*
X062017Y010412D01*
X062041Y010456D01*
X062069Y010498D01*
X062100Y010538D01*
X062134Y010575D01*
X062171Y010610D01*
X062210Y010641D01*
X062251Y010670D01*
X062295Y010695D01*
X062341Y010717D01*
X062388Y010735D01*
X062436Y010749D01*
X062485Y010760D01*
X062535Y010767D01*
X062585Y010770D01*
X062636Y010769D01*
X062686Y010764D01*
X062736Y010755D01*
X062784Y010743D01*
X062832Y010726D01*
X062878Y010706D01*
X062923Y010683D01*
X062966Y010656D01*
X063006Y010626D01*
X063044Y010593D01*
X063079Y010557D01*
X063112Y010518D01*
X063141Y010477D01*
X063167Y010434D01*
X063190Y010389D01*
X063209Y010342D01*
X063224Y010294D01*
X063236Y010245D01*
X063244Y010195D01*
X063248Y010145D01*
X063248Y010095D01*
X063244Y010045D01*
X063236Y009995D01*
X063224Y009946D01*
X063209Y009898D01*
X063190Y009851D01*
X063167Y009806D01*
X063141Y009763D01*
X063112Y009722D01*
X063079Y009683D01*
X063044Y009647D01*
X063006Y009614D01*
X062966Y009584D01*
X062923Y009557D01*
X062878Y009534D01*
X062832Y009514D01*
X062784Y009497D01*
X062736Y009485D01*
X062686Y009476D01*
X062636Y009471D01*
X062585Y009470D01*
X062535Y009473D01*
X062485Y009480D01*
X062436Y009491D01*
X062388Y009505D01*
X062341Y009523D01*
X062295Y009545D01*
X062251Y009570D01*
X062210Y009599D01*
X062171Y009630D01*
X062134Y009665D01*
X062100Y009702D01*
X062069Y009742D01*
X062041Y009784D01*
X062017Y009828D01*
X061996Y009874D01*
X061979Y009922D01*
X061966Y009970D01*
X061956Y010020D01*
X061950Y010070D01*
X061948Y010120D01*
X066298Y009620D02*
X066300Y009667D01*
X066306Y009713D01*
X066316Y009759D01*
X066329Y009803D01*
X066347Y009847D01*
X066368Y009888D01*
X066392Y009928D01*
X066420Y009966D01*
X066451Y010001D01*
X066485Y010033D01*
X066521Y010062D01*
X066560Y010088D01*
X066600Y010111D01*
X066643Y010130D01*
X066687Y010146D01*
X066732Y010158D01*
X066778Y010166D01*
X066825Y010170D01*
X066871Y010170D01*
X066918Y010166D01*
X066964Y010158D01*
X067009Y010146D01*
X067053Y010130D01*
X067096Y010111D01*
X067136Y010088D01*
X067175Y010062D01*
X067211Y010033D01*
X067245Y010001D01*
X067276Y009966D01*
X067304Y009928D01*
X067328Y009888D01*
X067349Y009847D01*
X067367Y009803D01*
X067380Y009759D01*
X067390Y009713D01*
X067396Y009667D01*
X067398Y009620D01*
X067396Y009573D01*
X067390Y009527D01*
X067380Y009481D01*
X067367Y009437D01*
X067349Y009393D01*
X067328Y009352D01*
X067304Y009312D01*
X067276Y009274D01*
X067245Y009239D01*
X067211Y009207D01*
X067175Y009178D01*
X067136Y009152D01*
X067096Y009129D01*
X067053Y009110D01*
X067009Y009094D01*
X066964Y009082D01*
X066918Y009074D01*
X066871Y009070D01*
X066825Y009070D01*
X066778Y009074D01*
X066732Y009082D01*
X066687Y009094D01*
X066643Y009110D01*
X066600Y009129D01*
X066560Y009152D01*
X066521Y009178D01*
X066485Y009207D01*
X066451Y009239D01*
X066420Y009274D01*
X066392Y009312D01*
X066368Y009352D01*
X066347Y009393D01*
X066329Y009437D01*
X066316Y009481D01*
X066306Y009527D01*
X066300Y009573D01*
X066298Y009620D01*
D12*
X048238Y039847D03*
X048238Y041642D03*
D13*
X045364Y040745D03*
D14*
X048033Y012092D03*
X048033Y011777D03*
X048033Y011462D03*
X048033Y011147D03*
X048663Y011147D03*
X048663Y011462D03*
X048663Y011777D03*
X048663Y012092D03*
D15*
X057165Y028746D03*
X057165Y029494D03*
X058031Y029120D03*
X058415Y036746D03*
X059281Y037120D03*
X058415Y037494D03*
D16*
X054933Y030620D03*
X054263Y030620D03*
D17*
X056848Y034285D03*
X056848Y034954D03*
X037848Y032454D03*
X037848Y031785D03*
X036348Y031785D03*
X036348Y032454D03*
D18*
X026098Y042576D03*
X026098Y043363D03*
M02*
