G75*
G70*
%OFA0B0*%
%FSLAX24Y24*%
%IPPOS*%
%LPD*%
%AMOC8*
5,1,8,0,0,1.08239X$1,22.5*
%
%ADD10R,0.0630X0.0787*%
%ADD11R,0.0512X0.0630*%
%ADD12R,0.0512X0.0591*%
%ADD13C,0.0000*%
%ADD14R,0.0390X0.0120*%
%ADD15R,0.0106X0.0591*%
%ADD16R,0.0591X0.0106*%
%ADD17R,0.0250X0.1000*%
%ADD18R,0.0120X0.0390*%
%ADD19R,0.0630X0.0512*%
%ADD20R,0.0236X0.0866*%
%ADD21R,0.0591X0.0512*%
%ADD22R,0.0197X0.0354*%
%ADD23R,0.0472X0.0472*%
%ADD24R,0.0276X0.0157*%
%ADD25R,0.0430X0.0150*%
D10*
X051057Y017789D03*
X052041Y017789D03*
X052041Y018901D03*
X051057Y018901D03*
D11*
X051204Y016745D03*
X051992Y016745D03*
X060454Y022995D03*
X061242Y022995D03*
X061117Y034620D03*
X060329Y034620D03*
X059954Y039370D03*
X060742Y039370D03*
X023992Y036620D03*
X023992Y035870D03*
X023204Y035870D03*
X023204Y036620D03*
X023204Y035120D03*
X023204Y034370D03*
X023992Y034370D03*
X023992Y035120D03*
X023992Y033620D03*
X023204Y033620D03*
D12*
X035974Y035870D03*
X036722Y035870D03*
X036722Y036670D03*
X035974Y036670D03*
X035974Y037720D03*
X036722Y037720D03*
X036722Y038520D03*
X035974Y038520D03*
X035974Y039570D03*
X036722Y039570D03*
X036722Y040370D03*
X035974Y040370D03*
X037724Y039570D03*
X038472Y039570D03*
X038472Y037720D03*
X037724Y037720D03*
X037724Y035870D03*
X038472Y035870D03*
G36*
X051834Y021717D02*
X051472Y022079D01*
X051888Y022495D01*
X052250Y022133D01*
X051834Y021717D01*
G37*
G36*
X052307Y021244D02*
X051945Y021606D01*
X052361Y022022D01*
X052723Y021660D01*
X052307Y021244D01*
G37*
D13*
X004848Y007430D02*
X004848Y046810D01*
X067948Y046810D01*
X067948Y007430D01*
X004848Y007430D01*
X005698Y010120D02*
X005700Y010170D01*
X005706Y010220D01*
X005716Y010270D01*
X005729Y010318D01*
X005746Y010366D01*
X005767Y010412D01*
X005791Y010456D01*
X005819Y010498D01*
X005850Y010538D01*
X005884Y010575D01*
X005921Y010610D01*
X005960Y010641D01*
X006001Y010670D01*
X006045Y010695D01*
X006091Y010717D01*
X006138Y010735D01*
X006186Y010749D01*
X006235Y010760D01*
X006285Y010767D01*
X006335Y010770D01*
X006386Y010769D01*
X006436Y010764D01*
X006486Y010755D01*
X006534Y010743D01*
X006582Y010726D01*
X006628Y010706D01*
X006673Y010683D01*
X006716Y010656D01*
X006756Y010626D01*
X006794Y010593D01*
X006829Y010557D01*
X006862Y010518D01*
X006891Y010477D01*
X006917Y010434D01*
X006940Y010389D01*
X006959Y010342D01*
X006974Y010294D01*
X006986Y010245D01*
X006994Y010195D01*
X006998Y010145D01*
X006998Y010095D01*
X006994Y010045D01*
X006986Y009995D01*
X006974Y009946D01*
X006959Y009898D01*
X006940Y009851D01*
X006917Y009806D01*
X006891Y009763D01*
X006862Y009722D01*
X006829Y009683D01*
X006794Y009647D01*
X006756Y009614D01*
X006716Y009584D01*
X006673Y009557D01*
X006628Y009534D01*
X006582Y009514D01*
X006534Y009497D01*
X006486Y009485D01*
X006436Y009476D01*
X006386Y009471D01*
X006335Y009470D01*
X006285Y009473D01*
X006235Y009480D01*
X006186Y009491D01*
X006138Y009505D01*
X006091Y009523D01*
X006045Y009545D01*
X006001Y009570D01*
X005960Y009599D01*
X005921Y009630D01*
X005884Y009665D01*
X005850Y009702D01*
X005819Y009742D01*
X005791Y009784D01*
X005767Y009828D01*
X005746Y009874D01*
X005729Y009922D01*
X005716Y009970D01*
X005706Y010020D01*
X005700Y010070D01*
X005698Y010120D01*
X008757Y031323D02*
X008759Y031371D01*
X008765Y031419D01*
X008775Y031466D01*
X008788Y031512D01*
X008806Y031557D01*
X008826Y031601D01*
X008851Y031643D01*
X008879Y031682D01*
X008909Y031719D01*
X008943Y031753D01*
X008980Y031785D01*
X009018Y031814D01*
X009059Y031839D01*
X009102Y031861D01*
X009147Y031879D01*
X009193Y031893D01*
X009240Y031904D01*
X009288Y031911D01*
X009336Y031914D01*
X009384Y031913D01*
X009432Y031908D01*
X009480Y031899D01*
X009526Y031887D01*
X009571Y031870D01*
X009615Y031850D01*
X009657Y031827D01*
X009697Y031800D01*
X009735Y031770D01*
X009770Y031737D01*
X009802Y031701D01*
X009832Y031663D01*
X009858Y031622D01*
X009880Y031579D01*
X009900Y031535D01*
X009915Y031490D01*
X009927Y031443D01*
X009935Y031395D01*
X009939Y031347D01*
X009939Y031299D01*
X009935Y031251D01*
X009927Y031203D01*
X009915Y031156D01*
X009900Y031111D01*
X009880Y031067D01*
X009858Y031024D01*
X009832Y030983D01*
X009802Y030945D01*
X009770Y030909D01*
X009735Y030876D01*
X009697Y030846D01*
X009657Y030819D01*
X009615Y030796D01*
X009571Y030776D01*
X009526Y030759D01*
X009480Y030747D01*
X009432Y030738D01*
X009384Y030733D01*
X009336Y030732D01*
X009288Y030735D01*
X009240Y030742D01*
X009193Y030753D01*
X009147Y030767D01*
X009102Y030785D01*
X009059Y030807D01*
X009018Y030832D01*
X008980Y030861D01*
X008943Y030893D01*
X008909Y030927D01*
X008879Y030964D01*
X008851Y031003D01*
X008826Y031045D01*
X008806Y031089D01*
X008788Y031134D01*
X008775Y031180D01*
X008765Y031227D01*
X008759Y031275D01*
X008757Y031323D01*
X008757Y041166D02*
X008759Y041214D01*
X008765Y041262D01*
X008775Y041309D01*
X008788Y041355D01*
X008806Y041400D01*
X008826Y041444D01*
X008851Y041486D01*
X008879Y041525D01*
X008909Y041562D01*
X008943Y041596D01*
X008980Y041628D01*
X009018Y041657D01*
X009059Y041682D01*
X009102Y041704D01*
X009147Y041722D01*
X009193Y041736D01*
X009240Y041747D01*
X009288Y041754D01*
X009336Y041757D01*
X009384Y041756D01*
X009432Y041751D01*
X009480Y041742D01*
X009526Y041730D01*
X009571Y041713D01*
X009615Y041693D01*
X009657Y041670D01*
X009697Y041643D01*
X009735Y041613D01*
X009770Y041580D01*
X009802Y041544D01*
X009832Y041506D01*
X009858Y041465D01*
X009880Y041422D01*
X009900Y041378D01*
X009915Y041333D01*
X009927Y041286D01*
X009935Y041238D01*
X009939Y041190D01*
X009939Y041142D01*
X009935Y041094D01*
X009927Y041046D01*
X009915Y040999D01*
X009900Y040954D01*
X009880Y040910D01*
X009858Y040867D01*
X009832Y040826D01*
X009802Y040788D01*
X009770Y040752D01*
X009735Y040719D01*
X009697Y040689D01*
X009657Y040662D01*
X009615Y040639D01*
X009571Y040619D01*
X009526Y040602D01*
X009480Y040590D01*
X009432Y040581D01*
X009384Y040576D01*
X009336Y040575D01*
X009288Y040578D01*
X009240Y040585D01*
X009193Y040596D01*
X009147Y040610D01*
X009102Y040628D01*
X009059Y040650D01*
X009018Y040675D01*
X008980Y040704D01*
X008943Y040736D01*
X008909Y040770D01*
X008879Y040807D01*
X008851Y040846D01*
X008826Y040888D01*
X008806Y040932D01*
X008788Y040977D01*
X008775Y041023D01*
X008765Y041070D01*
X008759Y041118D01*
X008757Y041166D01*
X005698Y044370D02*
X005700Y044420D01*
X005706Y044470D01*
X005716Y044520D01*
X005729Y044568D01*
X005746Y044616D01*
X005767Y044662D01*
X005791Y044706D01*
X005819Y044748D01*
X005850Y044788D01*
X005884Y044825D01*
X005921Y044860D01*
X005960Y044891D01*
X006001Y044920D01*
X006045Y044945D01*
X006091Y044967D01*
X006138Y044985D01*
X006186Y044999D01*
X006235Y045010D01*
X006285Y045017D01*
X006335Y045020D01*
X006386Y045019D01*
X006436Y045014D01*
X006486Y045005D01*
X006534Y044993D01*
X006582Y044976D01*
X006628Y044956D01*
X006673Y044933D01*
X006716Y044906D01*
X006756Y044876D01*
X006794Y044843D01*
X006829Y044807D01*
X006862Y044768D01*
X006891Y044727D01*
X006917Y044684D01*
X006940Y044639D01*
X006959Y044592D01*
X006974Y044544D01*
X006986Y044495D01*
X006994Y044445D01*
X006998Y044395D01*
X006998Y044345D01*
X006994Y044295D01*
X006986Y044245D01*
X006974Y044196D01*
X006959Y044148D01*
X006940Y044101D01*
X006917Y044056D01*
X006891Y044013D01*
X006862Y043972D01*
X006829Y043933D01*
X006794Y043897D01*
X006756Y043864D01*
X006716Y043834D01*
X006673Y043807D01*
X006628Y043784D01*
X006582Y043764D01*
X006534Y043747D01*
X006486Y043735D01*
X006436Y043726D01*
X006386Y043721D01*
X006335Y043720D01*
X006285Y043723D01*
X006235Y043730D01*
X006186Y043741D01*
X006138Y043755D01*
X006091Y043773D01*
X006045Y043795D01*
X006001Y043820D01*
X005960Y043849D01*
X005921Y043880D01*
X005884Y043915D01*
X005850Y043952D01*
X005819Y043992D01*
X005791Y044034D01*
X005767Y044078D01*
X005746Y044124D01*
X005729Y044172D01*
X005716Y044220D01*
X005706Y044270D01*
X005700Y044320D01*
X005698Y044370D01*
X061948Y044370D02*
X061950Y044420D01*
X061956Y044470D01*
X061966Y044520D01*
X061979Y044568D01*
X061996Y044616D01*
X062017Y044662D01*
X062041Y044706D01*
X062069Y044748D01*
X062100Y044788D01*
X062134Y044825D01*
X062171Y044860D01*
X062210Y044891D01*
X062251Y044920D01*
X062295Y044945D01*
X062341Y044967D01*
X062388Y044985D01*
X062436Y044999D01*
X062485Y045010D01*
X062535Y045017D01*
X062585Y045020D01*
X062636Y045019D01*
X062686Y045014D01*
X062736Y045005D01*
X062784Y044993D01*
X062832Y044976D01*
X062878Y044956D01*
X062923Y044933D01*
X062966Y044906D01*
X063006Y044876D01*
X063044Y044843D01*
X063079Y044807D01*
X063112Y044768D01*
X063141Y044727D01*
X063167Y044684D01*
X063190Y044639D01*
X063209Y044592D01*
X063224Y044544D01*
X063236Y044495D01*
X063244Y044445D01*
X063248Y044395D01*
X063248Y044345D01*
X063244Y044295D01*
X063236Y044245D01*
X063224Y044196D01*
X063209Y044148D01*
X063190Y044101D01*
X063167Y044056D01*
X063141Y044013D01*
X063112Y043972D01*
X063079Y043933D01*
X063044Y043897D01*
X063006Y043864D01*
X062966Y043834D01*
X062923Y043807D01*
X062878Y043784D01*
X062832Y043764D01*
X062784Y043747D01*
X062736Y043735D01*
X062686Y043726D01*
X062636Y043721D01*
X062585Y043720D01*
X062535Y043723D01*
X062485Y043730D01*
X062436Y043741D01*
X062388Y043755D01*
X062341Y043773D01*
X062295Y043795D01*
X062251Y043820D01*
X062210Y043849D01*
X062171Y043880D01*
X062134Y043915D01*
X062100Y043952D01*
X062069Y043992D01*
X062041Y044034D01*
X062017Y044078D01*
X061996Y044124D01*
X061979Y044172D01*
X061966Y044220D01*
X061956Y044270D01*
X061950Y044320D01*
X061948Y044370D01*
X066298Y044620D02*
X066300Y044667D01*
X066306Y044713D01*
X066316Y044759D01*
X066329Y044803D01*
X066347Y044847D01*
X066368Y044888D01*
X066392Y044928D01*
X066420Y044966D01*
X066451Y045001D01*
X066485Y045033D01*
X066521Y045062D01*
X066560Y045088D01*
X066600Y045111D01*
X066643Y045130D01*
X066687Y045146D01*
X066732Y045158D01*
X066778Y045166D01*
X066825Y045170D01*
X066871Y045170D01*
X066918Y045166D01*
X066964Y045158D01*
X067009Y045146D01*
X067053Y045130D01*
X067096Y045111D01*
X067136Y045088D01*
X067175Y045062D01*
X067211Y045033D01*
X067245Y045001D01*
X067276Y044966D01*
X067304Y044928D01*
X067328Y044888D01*
X067349Y044847D01*
X067367Y044803D01*
X067380Y044759D01*
X067390Y044713D01*
X067396Y044667D01*
X067398Y044620D01*
X067396Y044573D01*
X067390Y044527D01*
X067380Y044481D01*
X067367Y044437D01*
X067349Y044393D01*
X067328Y044352D01*
X067304Y044312D01*
X067276Y044274D01*
X067245Y044239D01*
X067211Y044207D01*
X067175Y044178D01*
X067136Y044152D01*
X067096Y044129D01*
X067053Y044110D01*
X067009Y044094D01*
X066964Y044082D01*
X066918Y044074D01*
X066871Y044070D01*
X066825Y044070D01*
X066778Y044074D01*
X066732Y044082D01*
X066687Y044094D01*
X066643Y044110D01*
X066600Y044129D01*
X066560Y044152D01*
X066521Y044178D01*
X066485Y044207D01*
X066451Y044239D01*
X066420Y044274D01*
X066392Y044312D01*
X066368Y044352D01*
X066347Y044393D01*
X066329Y044437D01*
X066316Y044481D01*
X066306Y044527D01*
X066300Y044573D01*
X066298Y044620D01*
X061948Y010120D02*
X061950Y010170D01*
X061956Y010220D01*
X061966Y010270D01*
X061979Y010318D01*
X061996Y010366D01*
X062017Y010412D01*
X062041Y010456D01*
X062069Y010498D01*
X062100Y010538D01*
X062134Y010575D01*
X062171Y010610D01*
X062210Y010641D01*
X062251Y010670D01*
X062295Y010695D01*
X062341Y010717D01*
X062388Y010735D01*
X062436Y010749D01*
X062485Y010760D01*
X062535Y010767D01*
X062585Y010770D01*
X062636Y010769D01*
X062686Y010764D01*
X062736Y010755D01*
X062784Y010743D01*
X062832Y010726D01*
X062878Y010706D01*
X062923Y010683D01*
X062966Y010656D01*
X063006Y010626D01*
X063044Y010593D01*
X063079Y010557D01*
X063112Y010518D01*
X063141Y010477D01*
X063167Y010434D01*
X063190Y010389D01*
X063209Y010342D01*
X063224Y010294D01*
X063236Y010245D01*
X063244Y010195D01*
X063248Y010145D01*
X063248Y010095D01*
X063244Y010045D01*
X063236Y009995D01*
X063224Y009946D01*
X063209Y009898D01*
X063190Y009851D01*
X063167Y009806D01*
X063141Y009763D01*
X063112Y009722D01*
X063079Y009683D01*
X063044Y009647D01*
X063006Y009614D01*
X062966Y009584D01*
X062923Y009557D01*
X062878Y009534D01*
X062832Y009514D01*
X062784Y009497D01*
X062736Y009485D01*
X062686Y009476D01*
X062636Y009471D01*
X062585Y009470D01*
X062535Y009473D01*
X062485Y009480D01*
X062436Y009491D01*
X062388Y009505D01*
X062341Y009523D01*
X062295Y009545D01*
X062251Y009570D01*
X062210Y009599D01*
X062171Y009630D01*
X062134Y009665D01*
X062100Y009702D01*
X062069Y009742D01*
X062041Y009784D01*
X062017Y009828D01*
X061996Y009874D01*
X061979Y009922D01*
X061966Y009970D01*
X061956Y010020D01*
X061950Y010070D01*
X061948Y010120D01*
X066298Y009620D02*
X066300Y009667D01*
X066306Y009713D01*
X066316Y009759D01*
X066329Y009803D01*
X066347Y009847D01*
X066368Y009888D01*
X066392Y009928D01*
X066420Y009966D01*
X066451Y010001D01*
X066485Y010033D01*
X066521Y010062D01*
X066560Y010088D01*
X066600Y010111D01*
X066643Y010130D01*
X066687Y010146D01*
X066732Y010158D01*
X066778Y010166D01*
X066825Y010170D01*
X066871Y010170D01*
X066918Y010166D01*
X066964Y010158D01*
X067009Y010146D01*
X067053Y010130D01*
X067096Y010111D01*
X067136Y010088D01*
X067175Y010062D01*
X067211Y010033D01*
X067245Y010001D01*
X067276Y009966D01*
X067304Y009928D01*
X067328Y009888D01*
X067349Y009847D01*
X067367Y009803D01*
X067380Y009759D01*
X067390Y009713D01*
X067396Y009667D01*
X067398Y009620D01*
X067396Y009573D01*
X067390Y009527D01*
X067380Y009481D01*
X067367Y009437D01*
X067349Y009393D01*
X067328Y009352D01*
X067304Y009312D01*
X067276Y009274D01*
X067245Y009239D01*
X067211Y009207D01*
X067175Y009178D01*
X067136Y009152D01*
X067096Y009129D01*
X067053Y009110D01*
X067009Y009094D01*
X066964Y009082D01*
X066918Y009074D01*
X066871Y009070D01*
X066825Y009070D01*
X066778Y009074D01*
X066732Y009082D01*
X066687Y009094D01*
X066643Y009110D01*
X066600Y009129D01*
X066560Y009152D01*
X066521Y009178D01*
X066485Y009207D01*
X066451Y009239D01*
X066420Y009274D01*
X066392Y009312D01*
X066368Y009352D01*
X066347Y009393D01*
X066329Y009437D01*
X066316Y009481D01*
X066306Y009527D01*
X066300Y009573D01*
X066298Y009620D01*
D14*
X060872Y019337D03*
X060872Y019593D03*
X060872Y019849D03*
X060872Y020105D03*
X060872Y020361D03*
X060872Y020617D03*
X060872Y020872D03*
X060872Y021128D03*
X060872Y021384D03*
X060872Y021640D03*
X060872Y021896D03*
X060872Y022152D03*
X058574Y022152D03*
X058574Y021896D03*
X058574Y021640D03*
X058574Y021384D03*
X058574Y021128D03*
X058574Y020872D03*
X058574Y020617D03*
X058574Y020361D03*
X058574Y020105D03*
X058574Y019849D03*
X058574Y019593D03*
X058574Y019337D03*
X058324Y031087D03*
X058324Y031343D03*
X058324Y031599D03*
X058324Y031855D03*
X058324Y032111D03*
X058324Y032367D03*
X058324Y032622D03*
X058324Y032878D03*
X058324Y033134D03*
X058324Y033390D03*
X058324Y033646D03*
X058324Y033902D03*
X060622Y033902D03*
X060622Y033646D03*
X060622Y033390D03*
X060622Y033134D03*
X060622Y032878D03*
X060622Y032622D03*
X060622Y032367D03*
X060622Y032111D03*
X060622Y031855D03*
X060622Y031599D03*
X060622Y031343D03*
X060622Y031087D03*
X060747Y035837D03*
X060747Y036093D03*
X060747Y036349D03*
X060747Y036605D03*
X060747Y036861D03*
X060747Y037117D03*
X060747Y037372D03*
X060747Y037628D03*
X060747Y037884D03*
X060747Y038140D03*
X060747Y038396D03*
X060747Y038652D03*
X058449Y038652D03*
X058449Y038396D03*
X058449Y038140D03*
X058449Y037884D03*
X058449Y037628D03*
X058449Y037372D03*
X058449Y037117D03*
X058449Y036861D03*
X058449Y036605D03*
X058449Y036349D03*
X058449Y036093D03*
X058449Y035837D03*
D15*
G36*
X050416Y029155D02*
X050341Y029230D01*
X050758Y029647D01*
X050833Y029572D01*
X050416Y029155D01*
G37*
G36*
X050277Y029294D02*
X050202Y029369D01*
X050619Y029786D01*
X050694Y029711D01*
X050277Y029294D01*
G37*
G36*
X050138Y029434D02*
X050063Y029509D01*
X050480Y029926D01*
X050555Y029851D01*
X050138Y029434D01*
G37*
G36*
X049998Y029573D02*
X049923Y029648D01*
X050340Y030065D01*
X050415Y029990D01*
X049998Y029573D01*
G37*
G36*
X049859Y029712D02*
X049784Y029787D01*
X050201Y030204D01*
X050276Y030129D01*
X049859Y029712D01*
G37*
G36*
X049720Y029851D02*
X049645Y029926D01*
X050062Y030343D01*
X050137Y030268D01*
X049720Y029851D01*
G37*
G36*
X049581Y029990D02*
X049506Y030065D01*
X049923Y030482D01*
X049998Y030407D01*
X049581Y029990D01*
G37*
G36*
X049442Y030129D02*
X049367Y030204D01*
X049784Y030621D01*
X049859Y030546D01*
X049442Y030129D01*
G37*
G36*
X049302Y030269D02*
X049227Y030344D01*
X049644Y030761D01*
X049719Y030686D01*
X049302Y030269D01*
G37*
G36*
X049163Y030408D02*
X049088Y030483D01*
X049505Y030900D01*
X049580Y030825D01*
X049163Y030408D01*
G37*
G36*
X049024Y030547D02*
X048949Y030622D01*
X049366Y031039D01*
X049441Y030964D01*
X049024Y030547D01*
G37*
G36*
X048885Y030686D02*
X048810Y030761D01*
X049227Y031178D01*
X049302Y031103D01*
X048885Y030686D01*
G37*
G36*
X048746Y030825D02*
X048671Y030900D01*
X049088Y031317D01*
X049163Y031242D01*
X048746Y030825D01*
G37*
G36*
X048606Y030965D02*
X048531Y031040D01*
X048948Y031457D01*
X049023Y031382D01*
X048606Y030965D01*
G37*
G36*
X048467Y031104D02*
X048392Y031179D01*
X048809Y031596D01*
X048884Y031521D01*
X048467Y031104D01*
G37*
G36*
X048328Y031243D02*
X048253Y031318D01*
X048670Y031735D01*
X048745Y031660D01*
X048328Y031243D01*
G37*
G36*
X048189Y031382D02*
X048114Y031457D01*
X048531Y031874D01*
X048606Y031799D01*
X048189Y031382D01*
G37*
G36*
X048050Y031521D02*
X047975Y031596D01*
X048392Y032013D01*
X048467Y031938D01*
X048050Y031521D01*
G37*
G36*
X047911Y031661D02*
X047836Y031736D01*
X048253Y032153D01*
X048328Y032078D01*
X047911Y031661D01*
G37*
G36*
X047771Y031800D02*
X047696Y031875D01*
X048113Y032292D01*
X048188Y032217D01*
X047771Y031800D01*
G37*
G36*
X047632Y031939D02*
X047557Y032014D01*
X047974Y032431D01*
X048049Y032356D01*
X047632Y031939D01*
G37*
G36*
X047493Y032078D02*
X047418Y032153D01*
X047835Y032570D01*
X047910Y032495D01*
X047493Y032078D01*
G37*
G36*
X047354Y032217D02*
X047279Y032292D01*
X047696Y032709D01*
X047771Y032634D01*
X047354Y032217D01*
G37*
G36*
X047215Y032357D02*
X047140Y032432D01*
X047557Y032849D01*
X047632Y032774D01*
X047215Y032357D01*
G37*
G36*
X047075Y032496D02*
X047000Y032571D01*
X047417Y032988D01*
X047492Y032913D01*
X047075Y032496D01*
G37*
G36*
X046936Y032635D02*
X046861Y032710D01*
X047278Y033127D01*
X047353Y033052D01*
X046936Y032635D01*
G37*
G36*
X046797Y032774D02*
X046722Y032849D01*
X047139Y033266D01*
X047214Y033191D01*
X046797Y032774D01*
G37*
G36*
X046658Y032913D02*
X046583Y032988D01*
X047000Y033405D01*
X047075Y033330D01*
X046658Y032913D01*
G37*
G36*
X046519Y033053D02*
X046444Y033128D01*
X046861Y033545D01*
X046936Y033470D01*
X046519Y033053D01*
G37*
G36*
X046379Y033192D02*
X046304Y033267D01*
X046721Y033684D01*
X046796Y033609D01*
X046379Y033192D01*
G37*
G36*
X046240Y033331D02*
X046165Y033406D01*
X046582Y033823D01*
X046657Y033748D01*
X046240Y033331D01*
G37*
G36*
X046101Y033470D02*
X046026Y033545D01*
X046443Y033962D01*
X046518Y033887D01*
X046101Y033470D01*
G37*
G36*
X045962Y033609D02*
X045887Y033684D01*
X046304Y034101D01*
X046379Y034026D01*
X045962Y033609D01*
G37*
G36*
X045823Y033749D02*
X045748Y033824D01*
X046165Y034241D01*
X046240Y034166D01*
X045823Y033749D01*
G37*
G36*
X045683Y033888D02*
X045608Y033963D01*
X046025Y034380D01*
X046100Y034305D01*
X045683Y033888D01*
G37*
G36*
X045544Y034027D02*
X045469Y034102D01*
X045886Y034519D01*
X045961Y034444D01*
X045544Y034027D01*
G37*
G36*
X039559Y028042D02*
X039484Y028117D01*
X039901Y028534D01*
X039976Y028459D01*
X039559Y028042D01*
G37*
G36*
X039698Y027902D02*
X039623Y027977D01*
X040040Y028394D01*
X040115Y028319D01*
X039698Y027902D01*
G37*
G36*
X039837Y027763D02*
X039762Y027838D01*
X040179Y028255D01*
X040254Y028180D01*
X039837Y027763D01*
G37*
G36*
X039976Y027624D02*
X039901Y027699D01*
X040318Y028116D01*
X040393Y028041D01*
X039976Y027624D01*
G37*
G36*
X040116Y027485D02*
X040041Y027560D01*
X040458Y027977D01*
X040533Y027902D01*
X040116Y027485D01*
G37*
G36*
X040255Y027346D02*
X040180Y027421D01*
X040597Y027838D01*
X040672Y027763D01*
X040255Y027346D01*
G37*
G36*
X040394Y027206D02*
X040319Y027281D01*
X040736Y027698D01*
X040811Y027623D01*
X040394Y027206D01*
G37*
G36*
X040533Y027067D02*
X040458Y027142D01*
X040875Y027559D01*
X040950Y027484D01*
X040533Y027067D01*
G37*
G36*
X040672Y026928D02*
X040597Y027003D01*
X041014Y027420D01*
X041089Y027345D01*
X040672Y026928D01*
G37*
G36*
X040812Y026789D02*
X040737Y026864D01*
X041154Y027281D01*
X041229Y027206D01*
X040812Y026789D01*
G37*
G36*
X040951Y026650D02*
X040876Y026725D01*
X041293Y027142D01*
X041368Y027067D01*
X040951Y026650D01*
G37*
G36*
X041090Y026510D02*
X041015Y026585D01*
X041432Y027002D01*
X041507Y026927D01*
X041090Y026510D01*
G37*
G36*
X041229Y026371D02*
X041154Y026446D01*
X041571Y026863D01*
X041646Y026788D01*
X041229Y026371D01*
G37*
G36*
X041368Y026232D02*
X041293Y026307D01*
X041710Y026724D01*
X041785Y026649D01*
X041368Y026232D01*
G37*
G36*
X041508Y026093D02*
X041433Y026168D01*
X041850Y026585D01*
X041925Y026510D01*
X041508Y026093D01*
G37*
G36*
X041647Y025954D02*
X041572Y026029D01*
X041989Y026446D01*
X042064Y026371D01*
X041647Y025954D01*
G37*
G36*
X041786Y025814D02*
X041711Y025889D01*
X042128Y026306D01*
X042203Y026231D01*
X041786Y025814D01*
G37*
G36*
X041925Y025675D02*
X041850Y025750D01*
X042267Y026167D01*
X042342Y026092D01*
X041925Y025675D01*
G37*
G36*
X042064Y025536D02*
X041989Y025611D01*
X042406Y026028D01*
X042481Y025953D01*
X042064Y025536D01*
G37*
G36*
X042204Y025397D02*
X042129Y025472D01*
X042546Y025889D01*
X042621Y025814D01*
X042204Y025397D01*
G37*
G36*
X042343Y025258D02*
X042268Y025333D01*
X042685Y025750D01*
X042760Y025675D01*
X042343Y025258D01*
G37*
G36*
X042482Y025118D02*
X042407Y025193D01*
X042824Y025610D01*
X042899Y025535D01*
X042482Y025118D01*
G37*
G36*
X042621Y024979D02*
X042546Y025054D01*
X042963Y025471D01*
X043038Y025396D01*
X042621Y024979D01*
G37*
G36*
X042760Y024840D02*
X042685Y024915D01*
X043102Y025332D01*
X043177Y025257D01*
X042760Y024840D01*
G37*
G36*
X042900Y024701D02*
X042825Y024776D01*
X043242Y025193D01*
X043317Y025118D01*
X042900Y024701D01*
G37*
G36*
X043039Y024562D02*
X042964Y024637D01*
X043381Y025054D01*
X043456Y024979D01*
X043039Y024562D01*
G37*
G36*
X043178Y024423D02*
X043103Y024498D01*
X043520Y024915D01*
X043595Y024840D01*
X043178Y024423D01*
G37*
G36*
X043317Y024283D02*
X043242Y024358D01*
X043659Y024775D01*
X043734Y024700D01*
X043317Y024283D01*
G37*
G36*
X043456Y024144D02*
X043381Y024219D01*
X043798Y024636D01*
X043873Y024561D01*
X043456Y024144D01*
G37*
G36*
X043595Y024005D02*
X043520Y024080D01*
X043937Y024497D01*
X044012Y024422D01*
X043595Y024005D01*
G37*
G36*
X043735Y023866D02*
X043660Y023941D01*
X044077Y024358D01*
X044152Y024283D01*
X043735Y023866D01*
G37*
G36*
X043874Y023727D02*
X043799Y023802D01*
X044216Y024219D01*
X044291Y024144D01*
X043874Y023727D01*
G37*
G36*
X044013Y023587D02*
X043938Y023662D01*
X044355Y024079D01*
X044430Y024004D01*
X044013Y023587D01*
G37*
G36*
X044152Y023448D02*
X044077Y023523D01*
X044494Y023940D01*
X044569Y023865D01*
X044152Y023448D01*
G37*
G36*
X044291Y023309D02*
X044216Y023384D01*
X044633Y023801D01*
X044708Y023726D01*
X044291Y023309D01*
G37*
G36*
X044431Y023170D02*
X044356Y023245D01*
X044773Y023662D01*
X044848Y023587D01*
X044431Y023170D01*
G37*
D16*
G36*
X045886Y023170D02*
X045469Y023587D01*
X045544Y023662D01*
X045961Y023245D01*
X045886Y023170D01*
G37*
G36*
X046025Y023309D02*
X045608Y023726D01*
X045683Y023801D01*
X046100Y023384D01*
X046025Y023309D01*
G37*
G36*
X046165Y023448D02*
X045748Y023865D01*
X045823Y023940D01*
X046240Y023523D01*
X046165Y023448D01*
G37*
G36*
X046304Y023587D02*
X045887Y024004D01*
X045962Y024079D01*
X046379Y023662D01*
X046304Y023587D01*
G37*
G36*
X046443Y023727D02*
X046026Y024144D01*
X046101Y024219D01*
X046518Y023802D01*
X046443Y023727D01*
G37*
G36*
X046582Y023866D02*
X046165Y024283D01*
X046240Y024358D01*
X046657Y023941D01*
X046582Y023866D01*
G37*
G36*
X046721Y024005D02*
X046304Y024422D01*
X046379Y024497D01*
X046796Y024080D01*
X046721Y024005D01*
G37*
G36*
X046861Y024144D02*
X046444Y024561D01*
X046519Y024636D01*
X046936Y024219D01*
X046861Y024144D01*
G37*
G36*
X047000Y024283D02*
X046583Y024700D01*
X046658Y024775D01*
X047075Y024358D01*
X047000Y024283D01*
G37*
G36*
X047139Y024423D02*
X046722Y024840D01*
X046797Y024915D01*
X047214Y024498D01*
X047139Y024423D01*
G37*
G36*
X047278Y024562D02*
X046861Y024979D01*
X046936Y025054D01*
X047353Y024637D01*
X047278Y024562D01*
G37*
G36*
X047417Y024701D02*
X047000Y025118D01*
X047075Y025193D01*
X047492Y024776D01*
X047417Y024701D01*
G37*
G36*
X047557Y024840D02*
X047140Y025257D01*
X047215Y025332D01*
X047632Y024915D01*
X047557Y024840D01*
G37*
G36*
X047696Y024979D02*
X047279Y025396D01*
X047354Y025471D01*
X047771Y025054D01*
X047696Y024979D01*
G37*
G36*
X047835Y025118D02*
X047418Y025535D01*
X047493Y025610D01*
X047910Y025193D01*
X047835Y025118D01*
G37*
G36*
X047974Y025258D02*
X047557Y025675D01*
X047632Y025750D01*
X048049Y025333D01*
X047974Y025258D01*
G37*
G36*
X048113Y025397D02*
X047696Y025814D01*
X047771Y025889D01*
X048188Y025472D01*
X048113Y025397D01*
G37*
G36*
X048253Y025536D02*
X047836Y025953D01*
X047911Y026028D01*
X048328Y025611D01*
X048253Y025536D01*
G37*
G36*
X048392Y025675D02*
X047975Y026092D01*
X048050Y026167D01*
X048467Y025750D01*
X048392Y025675D01*
G37*
G36*
X048531Y025814D02*
X048114Y026231D01*
X048189Y026306D01*
X048606Y025889D01*
X048531Y025814D01*
G37*
G36*
X048670Y025954D02*
X048253Y026371D01*
X048328Y026446D01*
X048745Y026029D01*
X048670Y025954D01*
G37*
G36*
X048809Y026093D02*
X048392Y026510D01*
X048467Y026585D01*
X048884Y026168D01*
X048809Y026093D01*
G37*
G36*
X048948Y026232D02*
X048531Y026649D01*
X048606Y026724D01*
X049023Y026307D01*
X048948Y026232D01*
G37*
G36*
X049088Y026371D02*
X048671Y026788D01*
X048746Y026863D01*
X049163Y026446D01*
X049088Y026371D01*
G37*
G36*
X049227Y026510D02*
X048810Y026927D01*
X048885Y027002D01*
X049302Y026585D01*
X049227Y026510D01*
G37*
G36*
X049366Y026650D02*
X048949Y027067D01*
X049024Y027142D01*
X049441Y026725D01*
X049366Y026650D01*
G37*
G36*
X049505Y026789D02*
X049088Y027206D01*
X049163Y027281D01*
X049580Y026864D01*
X049505Y026789D01*
G37*
G36*
X049644Y026928D02*
X049227Y027345D01*
X049302Y027420D01*
X049719Y027003D01*
X049644Y026928D01*
G37*
G36*
X049784Y027067D02*
X049367Y027484D01*
X049442Y027559D01*
X049859Y027142D01*
X049784Y027067D01*
G37*
G36*
X049923Y027206D02*
X049506Y027623D01*
X049581Y027698D01*
X049998Y027281D01*
X049923Y027206D01*
G37*
G36*
X050062Y027346D02*
X049645Y027763D01*
X049720Y027838D01*
X050137Y027421D01*
X050062Y027346D01*
G37*
G36*
X050201Y027485D02*
X049784Y027902D01*
X049859Y027977D01*
X050276Y027560D01*
X050201Y027485D01*
G37*
G36*
X050340Y027624D02*
X049923Y028041D01*
X049998Y028116D01*
X050415Y027699D01*
X050340Y027624D01*
G37*
G36*
X050480Y027763D02*
X050063Y028180D01*
X050138Y028255D01*
X050555Y027838D01*
X050480Y027763D01*
G37*
G36*
X050619Y027902D02*
X050202Y028319D01*
X050277Y028394D01*
X050694Y027977D01*
X050619Y027902D01*
G37*
G36*
X050758Y028042D02*
X050341Y028459D01*
X050416Y028534D01*
X050833Y028117D01*
X050758Y028042D01*
G37*
G36*
X044077Y033331D02*
X043660Y033748D01*
X043735Y033823D01*
X044152Y033406D01*
X044077Y033331D01*
G37*
G36*
X043937Y033192D02*
X043520Y033609D01*
X043595Y033684D01*
X044012Y033267D01*
X043937Y033192D01*
G37*
G36*
X043798Y033053D02*
X043381Y033470D01*
X043456Y033545D01*
X043873Y033128D01*
X043798Y033053D01*
G37*
G36*
X043659Y032913D02*
X043242Y033330D01*
X043317Y033405D01*
X043734Y032988D01*
X043659Y032913D01*
G37*
G36*
X043520Y032774D02*
X043103Y033191D01*
X043178Y033266D01*
X043595Y032849D01*
X043520Y032774D01*
G37*
G36*
X043381Y032635D02*
X042964Y033052D01*
X043039Y033127D01*
X043456Y032710D01*
X043381Y032635D01*
G37*
G36*
X043242Y032496D02*
X042825Y032913D01*
X042900Y032988D01*
X043317Y032571D01*
X043242Y032496D01*
G37*
G36*
X043102Y032357D02*
X042685Y032774D01*
X042760Y032849D01*
X043177Y032432D01*
X043102Y032357D01*
G37*
G36*
X042963Y032217D02*
X042546Y032634D01*
X042621Y032709D01*
X043038Y032292D01*
X042963Y032217D01*
G37*
G36*
X042824Y032078D02*
X042407Y032495D01*
X042482Y032570D01*
X042899Y032153D01*
X042824Y032078D01*
G37*
G36*
X042685Y031939D02*
X042268Y032356D01*
X042343Y032431D01*
X042760Y032014D01*
X042685Y031939D01*
G37*
G36*
X042546Y031800D02*
X042129Y032217D01*
X042204Y032292D01*
X042621Y031875D01*
X042546Y031800D01*
G37*
G36*
X042406Y031661D02*
X041989Y032078D01*
X042064Y032153D01*
X042481Y031736D01*
X042406Y031661D01*
G37*
G36*
X042267Y031521D02*
X041850Y031938D01*
X041925Y032013D01*
X042342Y031596D01*
X042267Y031521D01*
G37*
G36*
X042128Y031382D02*
X041711Y031799D01*
X041786Y031874D01*
X042203Y031457D01*
X042128Y031382D01*
G37*
G36*
X041989Y031243D02*
X041572Y031660D01*
X041647Y031735D01*
X042064Y031318D01*
X041989Y031243D01*
G37*
G36*
X041850Y031104D02*
X041433Y031521D01*
X041508Y031596D01*
X041925Y031179D01*
X041850Y031104D01*
G37*
G36*
X041710Y030965D02*
X041293Y031382D01*
X041368Y031457D01*
X041785Y031040D01*
X041710Y030965D01*
G37*
G36*
X041571Y030825D02*
X041154Y031242D01*
X041229Y031317D01*
X041646Y030900D01*
X041571Y030825D01*
G37*
G36*
X041432Y030686D02*
X041015Y031103D01*
X041090Y031178D01*
X041507Y030761D01*
X041432Y030686D01*
G37*
G36*
X041293Y030547D02*
X040876Y030964D01*
X040951Y031039D01*
X041368Y030622D01*
X041293Y030547D01*
G37*
G36*
X041154Y030408D02*
X040737Y030825D01*
X040812Y030900D01*
X041229Y030483D01*
X041154Y030408D01*
G37*
G36*
X041014Y030269D02*
X040597Y030686D01*
X040672Y030761D01*
X041089Y030344D01*
X041014Y030269D01*
G37*
G36*
X040875Y030129D02*
X040458Y030546D01*
X040533Y030621D01*
X040950Y030204D01*
X040875Y030129D01*
G37*
G36*
X040736Y029990D02*
X040319Y030407D01*
X040394Y030482D01*
X040811Y030065D01*
X040736Y029990D01*
G37*
G36*
X040597Y029851D02*
X040180Y030268D01*
X040255Y030343D01*
X040672Y029926D01*
X040597Y029851D01*
G37*
G36*
X040458Y029712D02*
X040041Y030129D01*
X040116Y030204D01*
X040533Y029787D01*
X040458Y029712D01*
G37*
G36*
X040318Y029573D02*
X039901Y029990D01*
X039976Y030065D01*
X040393Y029648D01*
X040318Y029573D01*
G37*
G36*
X040179Y029434D02*
X039762Y029851D01*
X039837Y029926D01*
X040254Y029509D01*
X040179Y029434D01*
G37*
G36*
X040040Y029294D02*
X039623Y029711D01*
X039698Y029786D01*
X040115Y029369D01*
X040040Y029294D01*
G37*
G36*
X039901Y029155D02*
X039484Y029572D01*
X039559Y029647D01*
X039976Y029230D01*
X039901Y029155D01*
G37*
G36*
X044216Y033470D02*
X043799Y033887D01*
X043874Y033962D01*
X044291Y033545D01*
X044216Y033470D01*
G37*
G36*
X044355Y033609D02*
X043938Y034026D01*
X044013Y034101D01*
X044430Y033684D01*
X044355Y033609D01*
G37*
G36*
X044494Y033749D02*
X044077Y034166D01*
X044152Y034241D01*
X044569Y033824D01*
X044494Y033749D01*
G37*
G36*
X044633Y033888D02*
X044216Y034305D01*
X044291Y034380D01*
X044708Y033963D01*
X044633Y033888D01*
G37*
G36*
X044773Y034027D02*
X044356Y034444D01*
X044431Y034519D01*
X044848Y034102D01*
X044773Y034027D01*
G37*
D17*
G36*
X035230Y025086D02*
X035054Y025262D01*
X035760Y025968D01*
X035936Y025792D01*
X035230Y025086D01*
G37*
G36*
X035583Y024732D02*
X035407Y024908D01*
X036113Y025614D01*
X036289Y025438D01*
X035583Y024732D01*
G37*
G36*
X035937Y024379D02*
X035761Y024555D01*
X036467Y025261D01*
X036643Y025085D01*
X035937Y024379D01*
G37*
G36*
X036291Y024025D02*
X036115Y024201D01*
X036821Y024907D01*
X036997Y024731D01*
X036291Y024025D01*
G37*
G36*
X036644Y023672D02*
X036468Y023848D01*
X037174Y024554D01*
X037350Y024378D01*
X036644Y023672D01*
G37*
G36*
X036998Y023318D02*
X036822Y023494D01*
X037528Y024200D01*
X037704Y024024D01*
X036998Y023318D01*
G37*
G36*
X037351Y022965D02*
X037175Y023141D01*
X037881Y023847D01*
X038057Y023671D01*
X037351Y022965D01*
G37*
G36*
X037705Y022611D02*
X037529Y022787D01*
X038235Y023493D01*
X038411Y023317D01*
X037705Y022611D01*
G37*
G36*
X038058Y022258D02*
X037882Y022434D01*
X038588Y023140D01*
X038764Y022964D01*
X038058Y022258D01*
G37*
G36*
X038412Y021904D02*
X038236Y022080D01*
X038942Y022786D01*
X039118Y022610D01*
X038412Y021904D01*
G37*
G36*
X038765Y021550D02*
X038589Y021726D01*
X039295Y022432D01*
X039471Y022256D01*
X038765Y021550D01*
G37*
G36*
X039119Y021197D02*
X038943Y021373D01*
X039649Y022079D01*
X039825Y021903D01*
X039119Y021197D01*
G37*
G36*
X039473Y020843D02*
X039297Y021019D01*
X040003Y021725D01*
X040179Y021549D01*
X039473Y020843D01*
G37*
G36*
X039826Y020490D02*
X039650Y020666D01*
X040356Y021372D01*
X040532Y021196D01*
X039826Y020490D01*
G37*
G36*
X040180Y020136D02*
X040004Y020312D01*
X040710Y021018D01*
X040886Y020842D01*
X040180Y020136D01*
G37*
G36*
X040533Y019783D02*
X040357Y019959D01*
X041063Y020665D01*
X041239Y020489D01*
X040533Y019783D01*
G37*
G36*
X040887Y019429D02*
X040711Y019605D01*
X041417Y020311D01*
X041593Y020135D01*
X040887Y019429D01*
G37*
G36*
X041240Y019075D02*
X041064Y019251D01*
X041770Y019957D01*
X041946Y019781D01*
X041240Y019075D01*
G37*
G36*
X041594Y018722D02*
X041418Y018898D01*
X042124Y019604D01*
X042300Y019428D01*
X041594Y018722D01*
G37*
G36*
X041947Y018368D02*
X041771Y018544D01*
X042477Y019250D01*
X042653Y019074D01*
X041947Y018368D01*
G37*
G36*
X042301Y018015D02*
X042125Y018191D01*
X042831Y018897D01*
X043007Y018721D01*
X042301Y018015D01*
G37*
G36*
X039147Y015568D02*
X038971Y015744D01*
X039677Y016450D01*
X039853Y016274D01*
X039147Y015568D01*
G37*
G36*
X039501Y015215D02*
X039325Y015391D01*
X040031Y016097D01*
X040207Y015921D01*
X039501Y015215D01*
G37*
G36*
X038794Y015922D02*
X038618Y016098D01*
X039324Y016804D01*
X039500Y016628D01*
X038794Y015922D01*
G37*
G36*
X038440Y016275D02*
X038264Y016451D01*
X038970Y017157D01*
X039146Y016981D01*
X038440Y016275D01*
G37*
G36*
X038087Y016629D02*
X037911Y016805D01*
X038617Y017511D01*
X038793Y017335D01*
X038087Y016629D01*
G37*
G36*
X037733Y016982D02*
X037557Y017158D01*
X038263Y017864D01*
X038439Y017688D01*
X037733Y016982D01*
G37*
G36*
X037379Y017336D02*
X037203Y017512D01*
X037909Y018218D01*
X038085Y018042D01*
X037379Y017336D01*
G37*
G36*
X037026Y017690D02*
X036850Y017866D01*
X037556Y018572D01*
X037732Y018396D01*
X037026Y017690D01*
G37*
G36*
X036672Y018043D02*
X036496Y018219D01*
X037202Y018925D01*
X037378Y018749D01*
X036672Y018043D01*
G37*
G36*
X036319Y018397D02*
X036143Y018573D01*
X036849Y019279D01*
X037025Y019103D01*
X036319Y018397D01*
G37*
G36*
X035965Y018750D02*
X035789Y018926D01*
X036495Y019632D01*
X036671Y019456D01*
X035965Y018750D01*
G37*
G36*
X035612Y019104D02*
X035436Y019280D01*
X036142Y019986D01*
X036318Y019810D01*
X035612Y019104D01*
G37*
G36*
X035258Y019457D02*
X035082Y019633D01*
X035788Y020339D01*
X035964Y020163D01*
X035258Y019457D01*
G37*
G36*
X034905Y019811D02*
X034729Y019987D01*
X035435Y020693D01*
X035611Y020517D01*
X034905Y019811D01*
G37*
G36*
X034551Y020164D02*
X034375Y020340D01*
X035081Y021046D01*
X035257Y020870D01*
X034551Y020164D01*
G37*
G36*
X034198Y020518D02*
X034022Y020694D01*
X034728Y021400D01*
X034904Y021224D01*
X034198Y020518D01*
G37*
G36*
X033844Y020872D02*
X033668Y021048D01*
X034374Y021754D01*
X034550Y021578D01*
X033844Y020872D01*
G37*
G36*
X033490Y021225D02*
X033314Y021401D01*
X034020Y022107D01*
X034196Y021931D01*
X033490Y021225D01*
G37*
G36*
X033137Y021579D02*
X032961Y021755D01*
X033667Y022461D01*
X033843Y022285D01*
X033137Y021579D01*
G37*
G36*
X032783Y021932D02*
X032607Y022108D01*
X033313Y022814D01*
X033489Y022638D01*
X032783Y021932D01*
G37*
G36*
X032430Y022286D02*
X032254Y022462D01*
X032960Y023168D01*
X033136Y022992D01*
X032430Y022286D01*
G37*
G36*
X032076Y022639D02*
X031900Y022815D01*
X032606Y023521D01*
X032782Y023345D01*
X032076Y022639D01*
G37*
G36*
X034876Y025439D02*
X034700Y025615D01*
X035406Y026321D01*
X035582Y026145D01*
X034876Y025439D01*
G37*
D18*
X020255Y030096D03*
X019999Y030096D03*
X019744Y030096D03*
X019488Y030096D03*
X019232Y030096D03*
X018976Y030096D03*
X018720Y030096D03*
X018464Y030096D03*
X018208Y030096D03*
X017952Y030096D03*
X017696Y030096D03*
X017440Y030096D03*
X017440Y032393D03*
X017696Y032393D03*
X017952Y032393D03*
X018208Y032393D03*
X018464Y032393D03*
X018720Y032393D03*
X018976Y032393D03*
X019232Y032393D03*
X019488Y032393D03*
X019744Y032393D03*
X019999Y032393D03*
X020255Y032393D03*
D19*
X016848Y032388D03*
X016848Y031601D03*
X048598Y018763D03*
X048598Y017976D03*
X048598Y017263D03*
X048598Y016476D03*
D20*
X047598Y016471D03*
X047098Y016471D03*
X046598Y016471D03*
X046098Y016471D03*
X046098Y018518D03*
X046598Y018518D03*
X047098Y018518D03*
X047598Y018518D03*
D21*
X046348Y014954D03*
X046348Y014285D03*
X045098Y014285D03*
X045098Y014954D03*
D22*
X018470Y027805D03*
X018155Y027805D03*
X017840Y027805D03*
X017525Y027805D03*
X017525Y028434D03*
X017840Y028434D03*
X018155Y028434D03*
X018470Y028434D03*
X018570Y044305D03*
X018255Y044305D03*
X017940Y044305D03*
X017625Y044305D03*
X017625Y044934D03*
X017940Y044934D03*
X018255Y044934D03*
X018570Y044934D03*
D23*
G36*
X052723Y020912D02*
X053056Y021245D01*
X053389Y020912D01*
X053056Y020579D01*
X052723Y020912D01*
G37*
G36*
X053307Y020327D02*
X053640Y020660D01*
X053973Y020327D01*
X053640Y019994D01*
X053307Y020327D01*
G37*
D24*
X011433Y024114D03*
X011433Y024625D03*
X010763Y024625D03*
X010763Y024370D03*
X010763Y024114D03*
X010763Y016125D03*
X010763Y015870D03*
X010763Y015614D03*
X011433Y015614D03*
X011433Y016125D03*
D25*
X025323Y034445D03*
X025323Y034695D03*
X025323Y034945D03*
X025323Y035195D03*
X025323Y035445D03*
X025323Y035695D03*
X025323Y035945D03*
X025323Y036195D03*
X027373Y036195D03*
X027373Y035945D03*
X027373Y035695D03*
X027373Y035445D03*
X027373Y035195D03*
X027373Y034945D03*
X027373Y034695D03*
X027373Y034445D03*
M02*
