<?xml version="1.0" encoding="UTF-8"?>
<svg xmlns="http://www.w3.org/2000/svg" xmlns:xlink="http://www.w3.org/1999/xlink" width="246.225006pt" height="103.849998pt" viewBox="0 0 246.225006 103.849998" version="1.1">
<g id="surface1">
<path style="fill-rule:nonzero;fill:rgb(100%,100%,100%);fill-opacity:1;stroke-width:4.8;stroke-linecap:butt;stroke-linejoin:miter;stroke:rgb(0%,0%,0%);stroke-opacity:1;stroke-miterlimit:4;" d="M 243.8125 88.976562 C 243.8125 95.859375 238.230469 101.4375 231.347656 101.4375 L 14.875 101.4375 C 7.984375 101.4375 2.40625 95.859375 2.40625 88.976562 L 2.40625 14.867188 C 2.40625 7.980469 7.984375 2.398438 14.875 2.398438 L 231.347656 2.398438 C 238.230469 2.398438 243.8125 7.980469 243.8125 14.867188 Z M 243.8125 88.976562 "/>
<path style="fill-rule:nonzero;fill:rgb(0%,21.176147%,75.292969%);fill-opacity:1;stroke-width:4.8;stroke-linecap:butt;stroke-linejoin:miter;stroke:rgb(0%,0%,0%);stroke-opacity:1;stroke-miterlimit:4;" d="M 102.210938 16.449219 L 102.210938 16.476562 L 63.261719 16.476562 C 55.949219 16.714844 52.058594 23.078125 52.910156 29.75 L 58.335938 73.875 C 59.304688 81.75 66.8125 85.933594 74.035156 85.925781 L 122.835938 85.875 L 171.636719 85.925781 C 178.859375 85.933594 186.367188 81.75 187.335938 73.875 L 192.734375 29.75 C 193.585938 23.078125 189.722656 16.714844 182.410156 16.476562 L 143.460938 16.476562 L 143.460938 16.449219 Z M 102.210938 16.449219 "/>
<path style="fill:none;stroke-width:2.4;stroke-linecap:butt;stroke-linejoin:miter;stroke:rgb(0%,0%,0%);stroke-opacity:1;stroke-miterlimit:4;" d="M 25.46875 40.648438 C 31.269531 40.648438 35.972656 45.351562 35.972656 51.152344 C 35.972656 56.945312 31.269531 61.652344 25.46875 61.652344 C 19.667969 61.652344 14.96875 56.945312 14.96875 51.152344 C 14.96875 45.351562 19.667969 40.648438 25.46875 40.648438 Z M 25.46875 40.648438 "/>
<path style="fill:none;stroke-width:2.4;stroke-linecap:butt;stroke-linejoin:miter;stroke:rgb(0%,0%,0%);stroke-opacity:1;stroke-miterlimit:4;" d="M 220.3125 40.648438 C 226.113281 40.648438 230.816406 45.351562 230.816406 51.152344 C 230.816406 56.945312 226.113281 61.652344 220.3125 61.652344 C 214.515625 61.652344 209.816406 56.945312 209.816406 51.152344 C 209.816406 45.351562 214.515625 40.648438 220.3125 40.648438 Z M 220.3125 40.648438 "/>
<path style="fill-rule:nonzero;fill:rgb(100%,100%,100%);fill-opacity:1;stroke-width:2.07792;stroke-linecap:butt;stroke-linejoin:miter;stroke:rgb(100%,100%,100%);stroke-opacity:1;stroke-miterlimit:4;" d="M 154.804688 31.253906 C 152.234375 31.253906 150.148438 33.339844 150.148438 35.90625 C 150.148438 38.476562 152.234375 40.5625 154.804688 40.5625 C 157.375 40.5625 159.457031 38.476562 159.457031 35.90625 C 159.457031 33.339844 157.375 31.253906 154.804688 31.253906 Z M 154.804688 31.253906 "/>
<path style="fill-rule:nonzero;fill:rgb(100%,100%,100%);fill-opacity:1;stroke-width:2.07792;stroke-linecap:butt;stroke-linejoin:miter;stroke:rgb(100%,100%,100%);stroke-opacity:1;stroke-miterlimit:4;" d="M 136.5625 31.253906 C 133.992188 31.253906 131.910156 33.339844 131.910156 35.90625 C 131.910156 38.476562 133.992188 40.5625 136.5625 40.5625 C 139.140625 40.5625 141.222656 38.476562 141.222656 35.90625 C 141.222656 33.339844 139.140625 31.253906 136.5625 31.253906 Z M 136.5625 31.253906 "/>
<path style="fill-rule:nonzero;fill:rgb(100%,100%,100%);fill-opacity:1;stroke-width:2.07792;stroke-linecap:butt;stroke-linejoin:miter;stroke:rgb(100%,100%,100%);stroke-opacity:1;stroke-miterlimit:4;" d="M 118.335938 31.257812 C 115.765625 31.257812 113.675781 33.339844 113.675781 35.90625 C 113.675781 38.476562 115.765625 40.558594 118.335938 40.558594 C 120.898438 40.558594 122.984375 38.476562 122.984375 35.90625 C 122.984375 33.339844 120.898438 31.257812 118.335938 31.257812 Z M 118.335938 31.257812 "/>
<path style="fill-rule:nonzero;fill:rgb(100%,100%,100%);fill-opacity:1;stroke-width:2.07792;stroke-linecap:butt;stroke-linejoin:miter;stroke:rgb(100%,100%,100%);stroke-opacity:1;stroke-miterlimit:4;" d="M 100.09375 31.253906 C 97.523438 31.253906 95.445312 33.339844 95.445312 35.90625 C 95.445312 38.476562 97.523438 40.5625 100.09375 40.5625 C 102.664062 40.5625 104.75 38.476562 104.75 35.90625 C 104.75 33.339844 102.664062 31.253906 100.09375 31.253906 Z M 100.09375 31.253906 "/>
<path style="fill-rule:nonzero;fill:rgb(100%,100%,100%);fill-opacity:1;stroke-width:2.07792;stroke-linecap:butt;stroke-linejoin:miter;stroke:rgb(100%,100%,100%);stroke-opacity:1;stroke-miterlimit:4;" d="M 81.855469 31.253906 C 79.28125 31.253906 77.203125 33.339844 77.203125 35.90625 C 77.203125 38.476562 79.28125 40.5625 81.855469 40.5625 C 84.429688 40.5625 86.507812 38.476562 86.507812 35.90625 C 86.507812 33.339844 84.429688 31.253906 81.855469 31.253906 Z M 81.855469 31.253906 "/>
<path style="fill-rule:nonzero;fill:rgb(100%,100%,100%);fill-opacity:1;stroke-width:2.07792;stroke-linecap:butt;stroke-linejoin:miter;stroke:rgb(100%,100%,100%);stroke-opacity:1;stroke-miterlimit:4;" d="M 145.679688 46.496094 C 143.113281 46.496094 141.03125 48.578125 141.03125 51.152344 C 141.03125 53.714844 143.113281 55.800781 145.679688 55.800781 C 148.253906 55.800781 150.34375 53.714844 150.34375 51.152344 C 150.34375 48.578125 148.253906 46.496094 145.679688 46.496094 Z M 145.679688 46.496094 "/>
<path style="fill-rule:nonzero;fill:rgb(100%,100%,100%);fill-opacity:1;stroke-width:2.07792;stroke-linecap:butt;stroke-linejoin:miter;stroke:rgb(100%,100%,100%);stroke-opacity:1;stroke-miterlimit:4;" d="M 127.449219 46.496094 C 124.878906 46.496094 122.796875 48.578125 122.796875 51.152344 C 122.796875 53.714844 124.878906 55.796875 127.449219 55.796875 C 130.015625 55.796875 132.097656 53.714844 132.097656 51.152344 C 132.097656 48.578125 130.015625 46.496094 127.449219 46.496094 Z M 127.449219 46.496094 "/>
<path style="fill-rule:nonzero;fill:rgb(100%,100%,100%);fill-opacity:1;stroke-width:2.07792;stroke-linecap:butt;stroke-linejoin:miter;stroke:rgb(100%,100%,100%);stroke-opacity:1;stroke-miterlimit:4;" d="M 163.925781 46.496094 C 166.496094 46.496094 168.578125 48.578125 168.578125 51.148438 C 168.578125 53.714844 166.496094 55.792969 163.925781 55.792969 C 161.355469 55.792969 159.273438 53.714844 159.273438 51.148438 C 159.273438 48.578125 161.355469 46.496094 163.925781 46.496094 Z M 163.925781 46.496094 "/>
<path style="fill-rule:nonzero;fill:rgb(100%,100%,100%);fill-opacity:1;stroke-width:2.07792;stroke-linecap:butt;stroke-linejoin:miter;stroke:rgb(100%,100%,100%);stroke-opacity:1;stroke-miterlimit:4;" d="M 109.210938 46.496094 C 106.648438 46.496094 104.558594 48.578125 104.558594 51.152344 C 104.558594 53.714844 106.648438 55.800781 109.210938 55.800781 C 111.78125 55.800781 113.867188 53.714844 113.867188 51.152344 C 113.867188 48.578125 111.78125 46.496094 109.210938 46.496094 Z M 109.210938 46.496094 "/>
<path style="fill-rule:nonzero;fill:rgb(100%,100%,100%);fill-opacity:1;stroke-width:2.07792;stroke-linecap:butt;stroke-linejoin:miter;stroke:rgb(100%,100%,100%);stroke-opacity:1;stroke-miterlimit:4;" d="M 90.976562 46.496094 C 88.40625 46.496094 86.316406 48.578125 86.316406 51.152344 C 86.316406 53.714844 88.40625 55.800781 90.976562 55.800781 C 93.546875 55.800781 95.636719 53.714844 95.636719 51.152344 C 95.636719 48.578125 93.546875 46.496094 90.976562 46.496094 Z M 90.976562 46.496094 "/>
<path style="fill-rule:nonzero;fill:rgb(100%,100%,100%);fill-opacity:1;stroke-width:2.07792;stroke-linecap:butt;stroke-linejoin:miter;stroke:rgb(100%,100%,100%);stroke-opacity:1;stroke-miterlimit:4;" d="M 154.804688 71.039062 C 152.234375 71.039062 150.148438 68.953125 150.148438 66.382812 C 150.148438 63.816406 152.234375 61.730469 154.804688 61.730469 C 157.375 61.730469 159.457031 63.816406 159.457031 66.382812 C 159.457031 68.953125 157.375 71.039062 154.804688 71.039062 Z M 154.804688 71.039062 "/>
<path style="fill-rule:nonzero;fill:rgb(100%,100%,100%);fill-opacity:1;stroke-width:2.07792;stroke-linecap:butt;stroke-linejoin:miter;stroke:rgb(100%,100%,100%);stroke-opacity:1;stroke-miterlimit:4;" d="M 136.5625 71.039062 C 133.992188 71.039062 131.910156 68.953125 131.910156 66.382812 C 131.910156 63.816406 133.992188 61.730469 136.5625 61.730469 C 139.140625 61.730469 141.222656 63.816406 141.222656 66.382812 C 141.222656 68.953125 139.140625 71.039062 136.5625 71.039062 Z M 136.5625 71.039062 "/>
<path style="fill-rule:nonzero;fill:rgb(100%,100%,100%);fill-opacity:1;stroke-width:2.07792;stroke-linecap:butt;stroke-linejoin:miter;stroke:rgb(100%,100%,100%);stroke-opacity:1;stroke-miterlimit:4;" d="M 118.335938 71.039062 C 115.765625 71.039062 113.675781 68.953125 113.675781 66.382812 C 113.675781 63.816406 115.765625 61.730469 118.335938 61.730469 C 120.898438 61.730469 122.984375 63.816406 122.984375 66.382812 C 122.984375 68.953125 120.898438 71.039062 118.335938 71.039062 Z M 118.335938 71.039062 "/>
<path style="fill-rule:nonzero;fill:rgb(100%,100%,100%);fill-opacity:1;stroke-width:2.07792;stroke-linecap:butt;stroke-linejoin:miter;stroke:rgb(100%,100%,100%);stroke-opacity:1;stroke-miterlimit:4;" d="M 100.09375 71.039062 C 97.523438 71.039062 95.445312 68.953125 95.445312 66.382812 C 95.445312 63.816406 97.523438 61.730469 100.09375 61.730469 C 102.664062 61.730469 104.75 63.816406 104.75 66.382812 C 104.75 68.953125 102.664062 71.039062 100.09375 71.039062 Z M 100.09375 71.039062 "/>
<path style="fill-rule:nonzero;fill:rgb(100%,100%,100%);fill-opacity:1;stroke-width:2.07792;stroke-linecap:butt;stroke-linejoin:miter;stroke:rgb(100%,100%,100%);stroke-opacity:1;stroke-miterlimit:4;" d="M 81.855469 71.039062 C 79.28125 71.039062 77.203125 68.953125 77.203125 66.382812 C 77.203125 63.816406 79.28125 61.730469 81.855469 61.730469 C 84.429688 61.730469 86.507812 63.816406 86.507812 66.382812 C 86.507812 68.953125 84.429688 71.039062 81.855469 71.039062 Z M 81.855469 71.039062 "/>
<path style=" stroke:none;fill-rule:nonzero;fill:rgb(100%,100%,100%);fill-opacity:1;" d="M 167.851562 38.671875 L 168.578125 38.671875 L 168.578125 33.144531 L 167.9375 33.144531 L 166.730469 33.792969 L 166.871094 34.363281 L 167.835938 33.84375 L 167.851562 33.84375 Z M 167.851562 38.671875 "/>
<path style=" stroke:none;fill-rule:nonzero;fill:rgb(100%,100%,100%);fill-opacity:1;" d="M 69.121094 33.101562 L 65.945312 33.101562 L 65.515625 35.734375 C 65.761719 35.699219 66.058594 35.675781 66.449219 35.675781 C 67.765625 35.675781 68.347656 36.175781 68.347656 36.90625 C 68.355469 37.652344 67.621094 38.113281 66.78125 38.113281 C 66.171875 38.113281 65.628906 37.941406 65.359375 37.804688 L 65.128906 38.375 C 65.457031 38.546875 66.058594 38.714844 66.78125 38.714844 C 68.222656 38.714844 69.257812 37.910156 69.257812 36.832031 C 69.257812 36.117188 68.820312 35.632812 68.300781 35.390625 C 67.898438 35.191406 67.398438 35.09375 66.875 35.09375 C 66.632812 35.09375 66.484375 35.113281 66.335938 35.128906 L 66.589844 33.726562 L 69.121094 33.726562 Z M 69.121094 33.101562 "/>
<path style=" stroke:none;fill-rule:nonzero;fill:rgb(100%,100%,100%);fill-opacity:1;" d="M 178.503906 48.292969 C 178.367188 48.292969 178.175781 48.300781 177.957031 48.332031 C 177.257812 48.421875 176.648438 48.703125 176.1875 49.148438 C 175.636719 49.707031 175.253906 50.5625 175.253906 51.652344 C 175.253906 53.085938 176.027344 54.003906 177.199219 54.003906 C 178.355469 54.003906 179.042969 53.070312 179.042969 52.054688 C 179.042969 50.980469 178.355469 50.265625 177.378906 50.265625 C 176.765625 50.265625 176.296875 50.550781 176.035156 50.914062 L 176.019531 50.914062 C 176.144531 49.992188 176.757812 49.136719 177.941406 48.949219 C 178.152344 48.914062 178.347656 48.898438 178.503906 48.902344 Z M 177.210938 53.421875 C 176.425781 53.421875 176.003906 52.746094 175.996094 51.835938 C 175.996094 51.703125 176.027344 51.601562 176.070312 51.511719 C 176.273438 51.105469 176.695312 50.835938 177.148438 50.835938 C 177.835938 50.835938 178.28125 51.3125 178.28125 52.097656 C 178.28125 52.890625 177.855469 53.425781 177.214844 53.425781 L 177.210938 53.425781 Z M 177.210938 53.421875 "/>
<path style=" stroke:none;fill-rule:nonzero;fill:rgb(100%,100%,100%);fill-opacity:1;" d="M 74.050781 53.910156 L 74.777344 53.910156 L 74.777344 48.386719 L 74.136719 48.386719 L 72.933594 49.03125 L 73.074219 49.601562 L 74.039062 49.082031 L 74.054688 49.082031 L 74.054688 53.910156 Z M 74.050781 53.910156 "/>
<path style=" stroke:none;fill-rule:nonzero;fill:rgb(100%,100%,100%);fill-opacity:1;" d="M 78.558594 54.003906 C 79.765625 54.003906 80.472656 52.96875 80.472656 51.085938 C 80.472656 49.328125 79.800781 48.292969 78.644531 48.292969 C 77.519531 48.292969 76.710938 49.304688 76.710938 51.160156 C 76.734375 52.992188 77.46875 54.003906 78.550781 54.003906 Z M 78.574219 53.425781 C 77.882812 53.425781 77.449219 52.5625 77.464844 51.125 C 77.464844 49.738281 77.90625 48.875 78.585938 48.875 C 79.363281 48.875 79.710938 49.765625 79.710938 51.125 C 79.710938 52.539062 79.335938 53.425781 78.585938 53.425781 Z M 78.574219 53.425781 "/>
<path style=" stroke:none;fill-rule:nonzero;fill:rgb(100%,100%,100%);fill-opacity:1;" d="M 166.398438 69.144531 L 167.121094 69.144531 L 167.121094 63.625 L 166.484375 63.625 L 165.277344 64.265625 L 165.421875 64.839844 L 166.382812 64.316406 L 166.398438 64.316406 Z M 166.398438 69.144531 "/>
<path style=" stroke:none;fill-rule:nonzero;fill:rgb(100%,100%,100%);fill-opacity:1;" d="M 170.761719 69.144531 L 171.484375 69.144531 L 171.484375 63.625 L 170.847656 63.625 L 169.636719 64.265625 L 169.78125 64.839844 L 170.746094 64.316406 L 170.761719 64.316406 Z M 170.761719 69.144531 "/>
<path style=" stroke:none;fill-rule:nonzero;fill:rgb(100%,100%,100%);fill-opacity:1;" d="M 64.972656 69.09375 L 65.699219 69.09375 L 65.699219 63.574219 L 65.054688 63.574219 L 63.855469 64.222656 L 64 64.792969 L 64.957031 64.265625 L 64.972656 64.265625 Z M 64.972656 69.09375 "/>
<path style=" stroke:none;fill-rule:nonzero;fill:rgb(100%,100%,100%);fill-opacity:1;" d="M 71.007812 63.574219 L 68.359375 63.574219 L 68.003906 66.210938 C 68.203125 66.171875 68.453125 66.144531 68.773438 66.144531 C 69.875 66.144531 70.355469 66.652344 70.355469 67.378906 C 70.367188 68.128906 69.757812 68.585938 69.0625 68.585938 C 68.550781 68.585938 68.097656 68.414062 67.867188 68.277344 L 67.679688 68.847656 C 67.953125 69.019531 68.453125 69.195312 69.0625 69.195312 C 70.253906 69.195312 71.113281 68.382812 71.113281 67.304688 C 71.113281 66.585938 70.761719 66.105469 70.328125 65.867188 C 69.984375 65.664062 69.5625 65.570312 69.136719 65.570312 C 68.929688 65.570312 68.8125 65.585938 68.683594 65.605469 L 68.894531 64.195312 L 71.003906 64.195312 L 71.003906 63.574219 Z M 71.007812 63.574219 "/>
</g>
</svg>
