<?xml version="1.0" encoding="UTF-8" standalone="no"?>
<!-- Created with Inkscape (http://www.inkscape.org/) -->

<svg
   xmlns:dc="http://purl.org/dc/elements/1.1/"
   xmlns:cc="http://creativecommons.org/ns#"
   xmlns:rdf="http://www.w3.org/1999/02/22-rdf-syntax-ns#"
   xmlns:svg="http://www.w3.org/2000/svg"
   xmlns="http://www.w3.org/2000/svg"
   xmlns:sodipodi="http://sodipodi.sourceforge.net/DTD/sodipodi-0.dtd"
   xmlns:inkscape="http://www.inkscape.org/namespaces/inkscape"
   version="1.0"
   width="337.013"
   height="150"
   viewBox="-104.705 -0.5 337.013 150"
   id="Layer_1"
   xml:space="preserve"
   inkscape:version="0.48.3.1 r9886"
   sodipodi:docname="DE15_Connector_Pinout.svg"><metadata
   id="metadata64"><rdf:RDF><cc:Work
       rdf:about=""><dc:format>image/svg+xml</dc:format><dc:type
         rdf:resource="http://purl.org/dc/dcmitype/StillImage" /><dc:title></dc:title></cc:Work></rdf:RDF></metadata><sodipodi:namedview
   pagecolor="#ffffff"
   bordercolor="#666666"
   borderopacity="1"
   objecttolerance="10"
   gridtolerance="10"
   guidetolerance="10"
   inkscape:pageopacity="0"
   inkscape:pageshadow="2"
   inkscape:window-width="1912"
   inkscape:window-height="1173"
   id="namedview62"
   showgrid="false"
   inkscape:zoom="2.5704444"
   inkscape:cx="185.4322"
   inkscape:cy="59.951428"
   inkscape:window-x="0"
   inkscape:window-y="0"
   inkscape:window-maximized="1"
   inkscape:current-layer="Layer_1"
   inkscape:snap-global="false"
   inkscape:object-paths="true"><inkscape:grid
     type="xygrid"
     id="grid3811" /></sodipodi:namedview><defs
   id="defs4541">
	
	

	
	
	
	
	
	
	
	
	
	
	
	
	
	
	

	
	
	
	
	
	
	
	
	
	
	
	
	
	
	
</defs>
<path
   d="m 214.95409,121.78182 c 0,8.604 -6.98,15.579 -15.584,15.579 l -270.588999,0 c -8.614,0 -15.584,-6.976 -15.584,-15.579 l 0,-92.636001 c 0,-8.609 6.97,-15.584 15.584,-15.584 l 270.588999,0 c 8.604,0 15.584,6.975 15.584,15.584 l 0,92.636001 z"
   style="fill:#ffffff;stroke:#000000;stroke-width:6;stroke-miterlimit:4;stroke-dasharray:none"
   id="path4424"
   inkscape:connector-curvature="0" /><path
   style="fill:#0036c0;stroke:#000000;stroke-width:6;fill-opacity:1;stroke-miterlimit:4;stroke-dasharray:none"
   d="M 142.65625 31.625 L 142.65625 31.65625 L 93.96875 31.65625 C 84.828835 31.957504 79.968025 39.909279 81.03125 48.25 L 87.8125 103.40625 C 89.021221 113.25042 98.409462 118.48167 107.4375 118.46875 L 168.4375 118.40625 L 229.4375 118.46875 C 238.46553 118.48167 247.85377 113.25042 249.0625 103.40625 L 255.8125 48.25 C 256.87572 39.909279 252.04617 31.957504 242.90625 31.65625 L 194.21875 31.65625 L 194.21875 31.625 L 168.4375 31.625 L 142.65625 31.625 z "
   transform="translate(-104.705,-0.5)"
   id="path4426" />

<path
   inkscape:connector-curvature="0"
   id="path4430"
   style="fill:none;stroke:#000000;stroke-width:3;stroke-miterlimit:4;stroke-dasharray:none"
   d="m -57.976,61.373 c 7.251,0 13.128,5.877 13.128,13.128 0,7.243 -5.877,13.125 -13.128,13.125 -7.25,0 -13.127,-5.882 -13.127,-13.125 -0.001,-7.251 5.876,-13.128 13.127,-13.128 z" /><path
   inkscape:connector-curvature="0"
   id="path4432"
   style="fill:none;stroke:#000000;stroke-width:3;stroke-miterlimit:4;stroke-dasharray:none"
   d="m 185.58,61.373 c 7.249,0 13.126,5.877 13.126,13.128 0,7.243 -5.877,13.125 -13.126,13.125 -7.247,0 -13.124,-5.882 -13.124,-13.125 0,-7.251 5.877,-13.128 13.124,-13.128 z" />
<path
   inkscape:connector-curvature="0"
   id="path4436"
   style="fill:#ffffff;stroke:#ffffff;stroke-width:2.59739994999999979;color:#000000;fill-opacity:1;fill-rule:nonzero;stroke-linecap:butt;stroke-linejoin:miter;stroke-miterlimit:4;stroke-opacity:1;stroke-dasharray:none;stroke-dashoffset:0;marker:none;visibility:visible;display:inline;overflow:visible;enable-background:accumulate"
   d="m 103.695,49.63 c -3.213,0 -5.821,2.606 -5.821,5.817 0,3.212 2.608,5.819 5.821,5.819 3.212,0 5.812,-2.607 5.812,-5.819 0,-3.211 -2.6,-5.817 -5.812,-5.817 z" /><path
   inkscape:connector-curvature="0"
   id="path4438"
   style="fill:#ffffff;stroke:#ffffff;stroke-width:2.59739994999999979;color:#000000;fill-opacity:1;fill-rule:nonzero;stroke-linecap:butt;stroke-linejoin:miter;stroke-miterlimit:4;stroke-opacity:1;stroke-dasharray:none;stroke-dashoffset:0;marker:none;visibility:visible;display:inline;overflow:visible;enable-background:accumulate"
   d="m 80.893,49.63 c -3.214,0 -5.816,2.606 -5.816,5.817 0,3.212 2.603,5.819 5.816,5.819 3.219,0 5.823,-2.607 5.823,-5.819 0,-3.211 -2.605,-5.817 -5.823,-5.817 z" /><path
   inkscape:connector-curvature="0"
   id="path4440"
   style="fill:#ffffff;stroke:#ffffff;stroke-width:2.59739994999999979;color:#000000;fill-opacity:1;fill-rule:nonzero;stroke-linecap:butt;stroke-linejoin:miter;stroke-miterlimit:4;stroke-opacity:1;stroke-dasharray:none;stroke-dashoffset:0;marker:none;visibility:visible;display:inline;overflow:visible;enable-background:accumulate"
   d="m 58.106,49.633 c -3.213,0 -5.823,2.604 -5.823,5.814 0,3.212 2.61,5.816 5.823,5.816 3.205,0 5.812,-2.604 5.812,-5.816 0,-3.211 -2.607,-5.814 -5.812,-5.814 z" /><path
   inkscape:connector-curvature="0"
   id="path4442"
   style="fill:#ffffff;stroke:#ffffff;stroke-width:2.59739994999999979;color:#000000;fill-opacity:1;fill-rule:nonzero;stroke-linecap:butt;stroke-linejoin:miter;stroke-miterlimit:4;stroke-opacity:1;stroke-dasharray:none;stroke-dashoffset:0;marker:none;visibility:visible;display:inline;overflow:visible;enable-background:accumulate"
   d="m 35.304,49.63 c -3.214,0 -5.811,2.606 -5.811,5.817 0,3.212 2.597,5.819 5.811,5.819 3.214,0 5.821,-2.607 5.821,-5.819 0,-3.211 -2.607,-5.817 -5.821,-5.817 z" /><path
   inkscape:connector-curvature="0"
   id="path4444"
   style="fill:#ffffff;stroke:#ffffff;stroke-width:2.59739994999999979;fill-opacity:1;stroke-opacity:1"
   d="m 12.505,49.63 c -3.216,0 -5.816,2.606 -5.816,5.817 0,3.212 2.6,5.819 5.816,5.819 3.219,0 5.819,-2.607 5.819,-5.819 0,-3.211 -2.6,-5.817 -5.819,-5.817 z" /><path
   inkscape:connector-curvature="0"
   id="path4446"
   style="fill:#ffffff;stroke:#ffffff;stroke-width:2.59739994999999979;color:#000000;fill-opacity:1;fill-rule:nonzero;stroke-linecap:butt;stroke-linejoin:miter;stroke-miterlimit:4;stroke-opacity:1;stroke-dasharray:none;stroke-dashoffset:0;marker:none;visibility:visible;display:inline;overflow:visible;enable-background:accumulate"
   d="m 92.289,68.681 c -3.209,0 -5.812,2.606 -5.812,5.82 0,3.207 2.603,5.812 5.812,5.812 3.214,0 5.826,-2.605 5.826,-5.812 0,-3.214 -2.612,-5.82 -5.826,-5.82 z" /><path
   inkscape:connector-curvature="0"
   id="path4448"
   style="fill:#ffffff;stroke:#ffffff;stroke-width:2.59739994999999979;color:#000000;fill-opacity:1;fill-rule:nonzero;stroke-linecap:butt;stroke-linejoin:miter;stroke-miterlimit:4;stroke-opacity:1;stroke-dasharray:none;stroke-dashoffset:0;marker:none;visibility:visible;display:inline;overflow:visible;enable-background:accumulate"
   d="m 69.501,68.682 c -3.214,0 -5.819,2.605 -5.819,5.819 0,3.205 2.605,5.81 5.819,5.81 3.206,0 5.809,-2.604 5.809,-5.81 0,-3.214 -2.603,-5.819 -5.809,-5.819 z" /><path
   inkscape:connector-curvature="0"
   id="path4450"
   style="fill:#ffffff;stroke:#ffffff;stroke-width:2.59739994999999979;color:#000000;fill-opacity:1;fill-rule:nonzero;stroke-linecap:butt;stroke-linejoin:miter;stroke-miterlimit:4;stroke-opacity:1;stroke-dasharray:none;stroke-dashoffset:0;marker:none;visibility:visible;display:inline;overflow:visible;enable-background:accumulate"
   d="m 115.093,68.681 c 3.213,0 5.818,2.604 5.818,5.817 0,3.208 -2.605,5.805 -5.818,5.805 -3.209,0 -5.812,-2.597 -5.812,-5.805 0,-3.214 2.603,-5.817 5.812,-5.817 z" /><path
   inkscape:connector-curvature="0"
   id="path4452"
   style="fill:#ffffff;stroke:#ffffff;stroke-width:2.59739994999999979;color:#000000;fill-opacity:1;fill-rule:nonzero;stroke-linecap:butt;stroke-linejoin:miter;stroke-miterlimit:4;stroke-opacity:1;stroke-dasharray:none;stroke-dashoffset:0;marker:none;visibility:visible;display:inline;overflow:visible;enable-background:accumulate"
   d="m 46.703,68.681 c -3.206,0 -5.816,2.606 -5.816,5.82 0,3.207 2.61,5.812 5.816,5.812 3.211,0 5.819,-2.605 5.819,-5.812 -10e-4,-3.214 -2.608,-5.82 -5.819,-5.82 z" /><path
   inkscape:connector-curvature="0"
   id="path4454"
   style="fill:#ffffff;stroke:#ffffff;stroke-width:2.59739994999999979;color:#000000;fill-opacity:1;fill-rule:nonzero;stroke-linecap:butt;stroke-linejoin:miter;stroke-miterlimit:4;stroke-opacity:1;stroke-dasharray:none;stroke-dashoffset:0;marker:none;visibility:visible;display:inline;overflow:visible;enable-background:accumulate"
   d="m 23.907,68.681 c -3.214,0 -5.822,2.606 -5.822,5.82 0,3.207 2.608,5.812 5.822,5.812 3.213,0 5.824,-2.605 5.824,-5.812 0,-3.214 -2.61,-5.82 -5.824,-5.82 z" /><path
   inkscape:connector-curvature="0"
   id="path4456"
   style="fill:#ffffff;stroke:#ffffff;stroke-width:2.59739994999999979;color:#000000;fill-opacity:1;fill-rule:nonzero;stroke-linecap:butt;stroke-linejoin:miter;stroke-miterlimit:4;stroke-opacity:1;stroke-dasharray:none;stroke-dashoffset:0;marker:none;visibility:visible;display:inline;overflow:visible;enable-background:accumulate"
   d="m 103.695,99.362 c -3.213,0 -5.821,-2.607 -5.821,-5.821 0,-3.208 2.608,-5.816 5.821,-5.816 3.212,0 5.812,2.608 5.812,5.816 0,3.214 -2.6,5.821 -5.812,5.821 z" /><path
   inkscape:connector-curvature="0"
   id="path4458"
   style="fill:#ffffff;stroke:#ffffff;stroke-width:2.59739994999999979;color:#000000;fill-opacity:1;fill-rule:nonzero;stroke-linecap:butt;stroke-linejoin:miter;stroke-miterlimit:4;stroke-opacity:1;stroke-dasharray:none;stroke-dashoffset:0;marker:none;visibility:visible;display:inline;overflow:visible;enable-background:accumulate"
   d="m 80.893,99.362 c -3.214,0 -5.816,-2.607 -5.816,-5.821 0,-3.208 2.603,-5.816 5.816,-5.816 3.219,0 5.823,2.608 5.823,5.816 0,3.214 -2.605,5.821 -5.823,5.821 z" /><path
   inkscape:connector-curvature="0"
   id="path4460"
   style="fill:#ffffff;stroke:#ffffff;stroke-width:2.59739994999999979;color:#000000;fill-opacity:1;fill-rule:nonzero;stroke-linecap:butt;stroke-linejoin:miter;stroke-miterlimit:4;stroke-opacity:1;stroke-dasharray:none;stroke-dashoffset:0;marker:none;visibility:visible;display:inline;overflow:visible;enable-background:accumulate"
   d="m 58.106,99.36 c -3.213,0 -5.823,-2.605 -5.823,-5.819 0,-3.208 2.61,-5.816 5.823,-5.816 3.205,0 5.812,2.608 5.812,5.816 0,3.214 -2.607,5.819 -5.812,5.819 z" /><path
   inkscape:connector-curvature="0"
   id="path4462"
   style="fill:#ffffff;stroke:#ffffff;stroke-width:2.59739994999999979;color:#000000;fill-opacity:1;fill-rule:nonzero;stroke-linecap:butt;stroke-linejoin:miter;stroke-miterlimit:4;stroke-opacity:1;stroke-dasharray:none;stroke-dashoffset:0;marker:none;visibility:visible;display:inline;overflow:visible;enable-background:accumulate"
   d="m 35.304,99.362 c -3.214,0 -5.811,-2.607 -5.811,-5.821 0,-3.208 2.597,-5.816 5.811,-5.816 3.214,0 5.821,2.608 5.821,5.816 0,3.214 -2.607,5.821 -5.821,5.821 z" /><path
   inkscape:connector-curvature="0"
   id="path4464"
   style="fill:#ffffff;stroke:#ffffff;stroke-width:2.59739994999999979;color:#000000;fill-opacity:1;fill-rule:nonzero;stroke-linecap:butt;stroke-linejoin:miter;stroke-miterlimit:4;stroke-opacity:1;stroke-dasharray:none;stroke-dashoffset:0;marker:none;visibility:visible;display:inline;overflow:visible;enable-background:accumulate"
   d="m 12.505,99.362 c -3.216,0 -5.816,-2.607 -5.816,-5.821 0,-3.208 2.6,-5.816 5.816,-5.816 3.219,0 5.819,2.608 5.819,5.816 0,3.214 -2.6,5.821 -5.819,5.821 z" />
<g
   id="g4468"
   transform="matrix(1.5,0,0,1.5,-35.956988,-27.54025)"
   style="color:#000000;fill:#ffffff;fill-opacity:1;fill-rule:nonzero;stroke-width:1;stroke-linecap:butt;stroke-linejoin:miter;stroke-miterlimit:4;stroke-opacity:1;stroke-dasharray:none;stroke-dashoffset:0;marker:none;visibility:visible;display:inline;overflow:visible;enable-background:accumulate">
		<path
   inkscape:connector-curvature="0"
   id="path4470"
   d="m 103.973,57.629 0.604,0 0,-4.607 -0.533,0 -1.007,0.54 0.119,0.476 0.805,-0.433 0.013,0 0,4.024 -0.001,0 z"
   style="color:#000000;fill:#ffffff;fill-opacity:1;fill-rule:nonzero;stroke-width:1;stroke-linecap:butt;stroke-linejoin:miter;stroke-miterlimit:4;stroke-opacity:1;stroke-dasharray:none;stroke-dashoffset:0;marker:none;visibility:visible;display:inline;overflow:visible;enable-background:accumulate" />
	</g><g
   id="g4484"
   transform="matrix(1.8,0,0,1.5,-28.29189,-27.685)"
   style="fill:#ffffff;fill-opacity:1">
		<path
   inkscape:connector-curvature="0"
   id="path4486"
   d="m 13.822,53.082 -2.204,0 -0.298,2.195 c 0.171,-0.028 0.377,-0.049 0.646,-0.049 0.914,0 1.319,0.417 1.319,1.027 0.005,0.62 -0.503,1.006 -1.086,1.006 -0.425,0 -0.801,-0.144 -0.989,-0.258 l -0.16,0.476 c 0.227,0.142 0.647,0.283 1.149,0.283 1,0 1.719,-0.673 1.719,-1.571 0,-0.596 -0.303,-0.999 -0.664,-1.199 -0.281,-0.168 -0.629,-0.25 -0.992,-0.25 -0.167,0 -0.271,0.017 -0.373,0.031 l 0.175,-1.169 1.758,0 0,-0.522 0,0 z"
   style="fill:#ffffff;fill-opacity:1" />
	</g><g
   id="g4488"
   transform="matrix(1.5,0,0,1.5,-41.285488,-37.355)"
   style="color:#000000;fill:#ffffff;fill-opacity:1;fill-rule:nonzero;stroke-width:1;stroke-linecap:butt;stroke-linejoin:miter;stroke-miterlimit:4;stroke-opacity:1;stroke-dasharray:none;stroke-dashoffset:0;marker:none;visibility:visible;display:inline;overflow:visible;enable-background:accumulate">
		<path
   inkscape:connector-curvature="0"
   id="path4490"
   d="m 116.401,72.188 c -0.114,0 -0.271,0.009 -0.454,0.034 -0.584,0.073 -1.091,0.309 -1.474,0.681 -0.459,0.464 -0.779,1.179 -0.779,2.086 0,1.193 0.645,1.959 1.621,1.959 0.964,0 1.537,-0.777 1.537,-1.625 0,-0.895 -0.573,-1.49 -1.388,-1.49 -0.51,0 -0.902,0.239 -1.121,0.539 l -0.013,0 c 0.106,-0.766 0.617,-1.48 1.604,-1.636 0.175,-0.029 0.337,-0.043 0.467,-0.038 l 0,-0.51 z m -1.078,4.276 c -0.654,0 -1.005,-0.564 -1.012,-1.322 0,-0.112 0.027,-0.197 0.062,-0.27 0.171,-0.338 0.523,-0.565 0.898,-0.565 0.573,0 0.946,0.397 0.946,1.054 0,0.658 -0.357,1.104 -0.888,1.104 l -0.006,0 0,-0.001 z"
   style="color:#000000;fill:#ffffff;fill-opacity:1;fill-rule:nonzero;stroke-width:1;stroke-linecap:butt;stroke-linejoin:miter;stroke-miterlimit:4;stroke-opacity:1;stroke-dasharray:none;stroke-dashoffset:0;marker:none;visibility:visible;display:inline;overflow:visible;enable-background:accumulate" />
	</g><g
   id="g4504"
   transform="matrix(1.5,0,0,1.5,-29.85389,-37.3535)"
   style="fill:#ffffff;fill-opacity:1">
		<path
   inkscape:connector-curvature="0"
   id="path4506"
   d="m 21.738,76.87 0.604,0 0,-4.605 -0.533,0 -1.005,0.539 0.12,0.476 0.802,-0.433 0.013,0 0,4.023 -0.001,0 z"
   style="fill:#ffffff;fill-opacity:1" />
		<path
   inkscape:connector-curvature="0"
   id="path4508"
   d="m 25.492,76.947 c 1.007,0 1.596,-0.863 1.596,-2.432 0,-1.463 -0.561,-2.328 -1.522,-2.328 -0.938,0 -1.611,0.845 -1.611,2.392 0.018,1.526 0.629,2.368 1.532,2.368 l 0.005,0 0,0 z m 0.013,-0.483 c -0.576,0 -0.938,-0.719 -0.924,-1.917 0,-1.153 0.369,-1.875 0.935,-1.875 0.649,0 0.936,0.744 0.936,1.875 0,1.178 -0.31,1.917 -0.936,1.917 l -0.011,0 z"
   style="fill:#ffffff;fill-opacity:1" />
	</g><g
   id="g4510"
   transform="matrix(1.5,0,0,1.5,-35.049988,-46.44475)"
   style="color:#000000;fill:#ffffff;fill-opacity:1;fill-rule:nonzero;stroke-width:1;stroke-linecap:butt;stroke-linejoin:miter;stroke-miterlimit:4;stroke-opacity:1;stroke-dasharray:none;stroke-dashoffset:0;marker:none;visibility:visible;display:inline;overflow:visible;enable-background:accumulate">
		<path
   inkscape:connector-curvature="0"
   id="path4512"
   d="m 102.156,95.626 0.604,0 0,-4.601 -0.53,0 -1.007,0.535 0.119,0.477 0.802,-0.434 0.013,0 0,4.023 -10e-4,0 z"
   style="color:#000000;fill:#ffffff;fill-opacity:1;fill-rule:nonzero;stroke-width:1;stroke-linecap:butt;stroke-linejoin:miter;stroke-miterlimit:4;stroke-opacity:1;stroke-dasharray:none;stroke-dashoffset:0;marker:none;visibility:visible;display:inline;overflow:visible;enable-background:accumulate" />
		<path
   inkscape:connector-curvature="0"
   id="path4514"
   d="m 105.793,95.626 0.602,0 0,-4.601 -0.53,0 -1.01,0.535 0.12,0.477 0.804,-0.434 0.015,0 0,4.023 -10e-4,0 z"
   style="color:#000000;fill:#ffffff;fill-opacity:1;fill-rule:nonzero;stroke-width:1;stroke-linecap:butt;stroke-linejoin:miter;stroke-miterlimit:4;stroke-opacity:1;stroke-dasharray:none;stroke-dashoffset:0;marker:none;visibility:visible;display:inline;overflow:visible;enable-background:accumulate" />
	</g><g
   id="g4534"
   transform="matrix(1.5,0,0,1.5,-24.18039,-46.591)"
   style="fill:#ffffff;fill-opacity:1">
		<path
   inkscape:connector-curvature="0"
   id="path4536"
   d="m 10.389,95.682 0.606,0 0,-4.601 -0.539,0 -0.999,0.54 0.12,0.475 0.799,-0.439 0.013,0 0,4.025 0,0 z"
   style="fill:#ffffff;fill-opacity:1" />
		<path
   inkscape:connector-curvature="0"
   id="path4538"
   d="m 15.417,91.081 -2.205,0 -0.297,2.196 c 0.167,-0.033 0.375,-0.053 0.643,-0.053 0.917,0 1.318,0.421 1.318,1.027 0.01,0.626 -0.5,1.007 -1.079,1.007 -0.425,0 -0.803,-0.143 -0.996,-0.257 l -0.155,0.475 c 0.226,0.143 0.644,0.289 1.15,0.289 0.993,0 1.711,-0.677 1.711,-1.577 0,-0.597 -0.293,-0.997 -0.655,-1.195 -0.288,-0.17 -0.637,-0.248 -0.994,-0.248 -0.172,0 -0.268,0.013 -0.378,0.027 l 0.178,-1.172 1.758,0 0,-0.519 10e-4,0 z"
   style="fill:#ffffff;fill-opacity:1" />
	</g>
</svg>